%TF.GenerationSoftware,KiCad,Pcbnew,(6.0.7)*%
%TF.CreationDate,2023-01-26T19:29:31-08:00*%
%TF.ProjectId,min_stencil,6d696e5f-7374-4656-9e63-696c2e6b6963,rev?*%
%TF.SameCoordinates,Original*%
%TF.FileFunction,Legend,Top*%
%TF.FilePolarity,Positive*%
%FSLAX46Y46*%
G04 Gerber Fmt 4.6, Leading zero omitted, Abs format (unit mm)*
G04 Created by KiCad (PCBNEW (6.0.7)) date 2023-01-26 19:29:31*
%MOMM*%
%LPD*%
G01*
G04 APERTURE LIST*
%ADD10C,0.254000*%
%ADD11C,0.200000*%
%ADD12C,0.120000*%
%ADD13C,0.100000*%
G04 APERTURE END LIST*
D10*
%TO.C,IC1*%
X139685238Y-87574523D02*
X139685238Y-86304523D01*
X141015714Y-87453571D02*
X140955238Y-87514047D01*
X140773809Y-87574523D01*
X140652857Y-87574523D01*
X140471428Y-87514047D01*
X140350476Y-87393095D01*
X140290000Y-87272142D01*
X140229523Y-87030238D01*
X140229523Y-86848809D01*
X140290000Y-86606904D01*
X140350476Y-86485952D01*
X140471428Y-86365000D01*
X140652857Y-86304523D01*
X140773809Y-86304523D01*
X140955238Y-86365000D01*
X141015714Y-86425476D01*
X142225238Y-87574523D02*
X141499523Y-87574523D01*
X141862380Y-87574523D02*
X141862380Y-86304523D01*
X141741428Y-86485952D01*
X141620476Y-86606904D01*
X141499523Y-86667380D01*
D11*
X148990000Y-88935000D02*
X148990000Y-95065000D01*
D12*
X120925000Y-117000000D02*
X120925000Y-92000000D01*
D13*
X142225000Y-89500000D02*
X142225000Y-89500000D01*
D12*
X170925000Y-117000000D02*
X120925000Y-117000000D01*
D11*
X142860000Y-95065000D02*
X142860000Y-88935000D01*
X142860000Y-88935000D02*
X148990000Y-88935000D01*
D13*
X142325000Y-89500000D02*
X142325000Y-89500000D01*
D12*
X170925000Y-67000000D02*
X170925000Y-117000000D01*
D11*
X148990000Y-95065000D02*
X142860000Y-95065000D01*
D12*
X120925000Y-67000000D02*
X170925000Y-67000000D01*
X120925000Y-92000000D02*
X120925000Y-67000000D01*
D13*
X142325000Y-89500000D02*
G75*
G03*
X142225000Y-89500000I-50000J0D01*
G01*
X142225000Y-89500000D02*
G75*
G03*
X142325000Y-89500000I50000J0D01*
G01*
%TD*%
M02*
