%TF.GenerationSoftware,KiCad,Pcbnew,(6.0.2-0)*%
%TF.CreationDate,2023-01-12T00:58:35-06:00*%
%TF.ProjectId,cosmic_watch_remix_V1,636f736d-6963-45f7-9761-7463685f7265,rev?*%
%TF.SameCoordinates,Original*%
%TF.FileFunction,Profile,NP*%
%FSLAX46Y46*%
G04 Gerber Fmt 4.6, Leading zero omitted, Abs format (unit mm)*
G04 Created by KiCad (PCBNEW (6.0.2-0)) date 2023-01-12 00:58:35*
%MOMM*%
%LPD*%
G01*
G04 APERTURE LIST*
%TA.AperFunction,Profile*%
%ADD10C,0.150000*%
%TD*%
%TA.AperFunction,Profile*%
%ADD11C,0.100000*%
%TD*%
G04 APERTURE END LIST*
D10*
X105980000Y-111930000D02*
G75*
G03*
X107250000Y-110660000I1J1269999D01*
G01*
X25970000Y-141140000D02*
X75500000Y-141140000D01*
X100900000Y-120820000D02*
X100900000Y-113200000D01*
X107250000Y-134790000D02*
X107250000Y-123360000D01*
X72960000Y-47160000D02*
X62165000Y-47160000D01*
D11*
X23259802Y-52939991D02*
X26010000Y-52965000D01*
D10*
X100900000Y-141140000D02*
X75500000Y-141140000D01*
X72960000Y-47160000D02*
X73595000Y-46525000D01*
X102170000Y-111930000D02*
X105980000Y-111930000D01*
D11*
X104435000Y-46540000D02*
X107235000Y-50290000D01*
X23110000Y-86360000D02*
X23110000Y-101600000D01*
D10*
X61530000Y-46525000D02*
X29145000Y-46525000D01*
D11*
X21898436Y-46550523D02*
X25970000Y-46525000D01*
X107250000Y-67480000D02*
X107235000Y-50290000D01*
X98995000Y-46525000D02*
X104435000Y-46540000D01*
D10*
X19620000Y-134790000D02*
G75*
G03*
X25970000Y-141140000I6350000J0D01*
G01*
D11*
X26010000Y-52965000D02*
G75*
G03*
X26010000Y-49765000I0J1600000D01*
G01*
D10*
X100900000Y-141140000D02*
G75*
G03*
X107250000Y-134790000I0J6350000D01*
G01*
D11*
X99659975Y-49715793D02*
G75*
G03*
X99610000Y-52865000I-49975J-1574207D01*
G01*
X23309777Y-49790784D02*
X26010000Y-49765000D01*
X103460000Y-49715000D02*
X99659975Y-49715793D01*
X19620000Y-105080000D02*
X23110000Y-101600000D01*
X99610000Y-52865000D02*
X103460000Y-52915000D01*
D10*
X107250000Y-110660000D02*
X107250000Y-67480000D01*
D11*
X19620000Y-105080000D02*
X19620000Y-117900000D01*
X21898436Y-46550523D02*
X19640000Y-48850000D01*
D10*
X25970000Y-46525000D02*
X29145000Y-46525000D01*
X73595000Y-46525000D02*
X98995000Y-46525000D01*
X102170000Y-111930000D02*
G75*
G03*
X100900000Y-113200000I-1J-1269999D01*
G01*
X62165000Y-47160000D02*
X61530000Y-46525000D01*
D11*
X19640000Y-82900000D02*
X23110000Y-86360000D01*
X23230000Y-138600000D02*
X25980198Y-138625009D01*
X23309777Y-49790785D02*
G75*
G03*
X23259802Y-52939991I84226J-1576336D01*
G01*
X23279975Y-135450793D02*
X25980198Y-135425009D01*
X25980198Y-138625009D02*
G75*
G03*
X25980198Y-135425009I0J1600000D01*
G01*
X19620000Y-134790000D02*
X19620000Y-117900000D01*
D10*
X107250000Y-123360000D02*
G75*
G03*
X105980000Y-122090000I-1269999J1D01*
G01*
D11*
X103460000Y-52915000D02*
G75*
G03*
X103460000Y-49715000I0J1600000D01*
G01*
X103430013Y-135459604D02*
X99629988Y-135460397D01*
D10*
X105980000Y-122090000D02*
X102170000Y-122090000D01*
D11*
X99629988Y-135460397D02*
G75*
G03*
X99580013Y-138609604I-49975J-1574207D01*
G01*
X103430013Y-138659604D02*
G75*
G03*
X103430013Y-135459604I0J1600000D01*
G01*
X99580013Y-138609604D02*
X103430013Y-138659604D01*
X23279975Y-135450794D02*
G75*
G03*
X23230000Y-138600000I84226J-1576336D01*
G01*
D10*
X100900000Y-120820000D02*
G75*
G03*
X102170000Y-122090000I1269999J-1D01*
G01*
D11*
X19640000Y-48850000D02*
X19640000Y-82900000D01*
M02*
