%TF.GenerationSoftware,KiCad,Pcbnew,(6.0.2-0)*%
%TF.CreationDate,2023-01-12T00:58:35-06:00*%
%TF.ProjectId,cosmic_watch_remix_V1,636f736d-6963-45f7-9761-7463685f7265,rev?*%
%TF.SameCoordinates,Original*%
%TF.FileFunction,Copper,L1,Top*%
%TF.FilePolarity,Positive*%
%FSLAX46Y46*%
G04 Gerber Fmt 4.6, Leading zero omitted, Abs format (unit mm)*
G04 Created by KiCad (PCBNEW (6.0.2-0)) date 2023-01-12 00:58:35*
%MOMM*%
%LPD*%
G01*
G04 APERTURE LIST*
G04 Aperture macros list*
%AMRoundRect*
0 Rectangle with rounded corners*
0 $1 Rounding radius*
0 $2 $3 $4 $5 $6 $7 $8 $9 X,Y pos of 4 corners*
0 Add a 4 corners polygon primitive as box body*
4,1,4,$2,$3,$4,$5,$6,$7,$8,$9,$2,$3,0*
0 Add four circle primitives for the rounded corners*
1,1,$1+$1,$2,$3*
1,1,$1+$1,$4,$5*
1,1,$1+$1,$6,$7*
1,1,$1+$1,$8,$9*
0 Add four rect primitives between the rounded corners*
20,1,$1+$1,$2,$3,$4,$5,0*
20,1,$1+$1,$4,$5,$6,$7,0*
20,1,$1+$1,$6,$7,$8,$9,0*
20,1,$1+$1,$8,$9,$2,$3,0*%
G04 Aperture macros list end*
%TA.AperFunction,SMDPad,CuDef*%
%ADD10RoundRect,0.200000X0.200000X0.275000X-0.200000X0.275000X-0.200000X-0.275000X0.200000X-0.275000X0*%
%TD*%
%TA.AperFunction,SMDPad,CuDef*%
%ADD11RoundRect,0.150000X0.150000X-0.825000X0.150000X0.825000X-0.150000X0.825000X-0.150000X-0.825000X0*%
%TD*%
%TA.AperFunction,SMDPad,CuDef*%
%ADD12R,3.000000X2.290000*%
%TD*%
%TA.AperFunction,SMDPad,CuDef*%
%ADD13RoundRect,0.200000X-0.200000X-0.275000X0.200000X-0.275000X0.200000X0.275000X-0.200000X0.275000X0*%
%TD*%
%TA.AperFunction,SMDPad,CuDef*%
%ADD14RoundRect,0.225000X-0.250000X0.225000X-0.250000X-0.225000X0.250000X-0.225000X0.250000X0.225000X0*%
%TD*%
%TA.AperFunction,SMDPad,CuDef*%
%ADD15RoundRect,0.150000X-0.350000X0.150000X-0.350000X-0.150000X0.350000X-0.150000X0.350000X0.150000X0*%
%TD*%
%TA.AperFunction,SMDPad,CuDef*%
%ADD16RoundRect,0.250000X-0.650000X0.375000X-0.650000X-0.375000X0.650000X-0.375000X0.650000X0.375000X0*%
%TD*%
%TA.AperFunction,ComponentPad*%
%ADD17C,5.000000*%
%TD*%
%TA.AperFunction,SMDPad,CuDef*%
%ADD18RoundRect,0.200000X0.275000X-0.200000X0.275000X0.200000X-0.275000X0.200000X-0.275000X-0.200000X0*%
%TD*%
%TA.AperFunction,SMDPad,CuDef*%
%ADD19R,0.450000X0.600000*%
%TD*%
%TA.AperFunction,SMDPad,CuDef*%
%ADD20RoundRect,0.225000X-0.225000X-0.250000X0.225000X-0.250000X0.225000X0.250000X-0.225000X0.250000X0*%
%TD*%
%TA.AperFunction,SMDPad,CuDef*%
%ADD21C,0.260000*%
%TD*%
%TA.AperFunction,SMDPad,CuDef*%
%ADD22R,0.600000X0.450000*%
%TD*%
%TA.AperFunction,SMDPad,CuDef*%
%ADD23RoundRect,0.150000X-0.512500X-0.150000X0.512500X-0.150000X0.512500X0.150000X-0.512500X0.150000X0*%
%TD*%
%TA.AperFunction,SMDPad,CuDef*%
%ADD24RoundRect,0.225000X0.225000X0.250000X-0.225000X0.250000X-0.225000X-0.250000X0.225000X-0.250000X0*%
%TD*%
%TA.AperFunction,SMDPad,CuDef*%
%ADD25R,0.250000X1.100000*%
%TD*%
%TA.AperFunction,SMDPad,CuDef*%
%ADD26RoundRect,0.250000X-0.375000X-1.075000X0.375000X-1.075000X0.375000X1.075000X-0.375000X1.075000X0*%
%TD*%
%TA.AperFunction,ViaPad*%
%ADD27C,0.800000*%
%TD*%
%TA.AperFunction,Conductor*%
%ADD28C,0.254000*%
%TD*%
%TA.AperFunction,Conductor*%
%ADD29C,0.250000*%
%TD*%
G04 APERTURE END LIST*
D10*
%TO.P,R5,1*%
%TO.N,Net-(C5-Pad2)*%
X35431500Y-55348000D03*
%TO.P,R5,2*%
%TO.N,GND*%
X33781500Y-55348000D03*
%TD*%
D11*
%TO.P,U2,1*%
%TO.N,Net-(D1-Pad2)*%
X25095000Y-111475000D03*
%TO.P,U2,2,-*%
%TO.N,Net-(D1-Pad1)*%
X26365000Y-111475000D03*
%TO.P,U2,3,+*%
%TO.N,Net-(R8-Pad2)*%
X27635000Y-111475000D03*
%TO.P,U2,4,V-*%
%TO.N,unconnected-(U2-Pad4)*%
X28905000Y-111475000D03*
%TO.P,U2,5,+*%
%TO.N,Net-(C9-Pad1)*%
X28905000Y-106525000D03*
%TO.P,U2,6,-*%
%TO.N,Net-(R10-Pad2)*%
X27635000Y-106525000D03*
%TO.P,U2,7*%
X26365000Y-106525000D03*
%TO.P,U2,8,V+*%
%TO.N,unconnected-(U2-Pad8)*%
X25095000Y-106525000D03*
D12*
%TO.P,U2,9*%
%TO.N,N/C*%
X27000000Y-109000000D03*
%TD*%
D10*
%TO.P,R2,1*%
%TO.N,Net-(R2-Pad1)*%
X26375000Y-81190000D03*
%TO.P,R2,2*%
%TO.N,GND*%
X24725000Y-81190000D03*
%TD*%
D13*
%TO.P,R3,1*%
%TO.N,VCC*%
X24555000Y-72780000D03*
%TO.P,R3,2*%
%TO.N,Net-(J1-Pad3)*%
X26205000Y-72780000D03*
%TD*%
D14*
%TO.P,C8,1*%
%TO.N,VBIAS*%
X48068500Y-54065000D03*
%TO.P,C8,2*%
%TO.N,GND*%
X48068500Y-55615000D03*
%TD*%
%TO.P,C6,1*%
%TO.N,/VOUT*%
X42035500Y-54065000D03*
%TO.P,C6,2*%
%TO.N,GND*%
X42035500Y-55615000D03*
%TD*%
D13*
%TO.P,R4,1*%
%TO.N,VCC*%
X25405000Y-71260000D03*
%TO.P,R4,2*%
%TO.N,Net-(J1-Pad4)*%
X27055000Y-71260000D03*
%TD*%
%TO.P,R7,1*%
%TO.N,/VIN*%
X37845500Y-56440000D03*
%TO.P,R7,2*%
%TO.N,Net-(IC2-Pad4)*%
X39495500Y-56440000D03*
%TD*%
D15*
%TO.P,J1,1,Pin_1*%
%TO.N,VCC*%
X29795000Y-91000000D03*
%TO.P,J1,2,Pin_2*%
%TO.N,Net-(J1-Pad2)*%
X29795000Y-92500000D03*
%TO.P,J1,3,Pin_3*%
%TO.N,Net-(J1-Pad3)*%
X29795000Y-94000000D03*
%TO.P,J1,4,Pin_4*%
%TO.N,Net-(J1-Pad4)*%
X29795000Y-95500000D03*
%TO.P,J1,5,Pin_5*%
%TO.N,GND*%
X29795000Y-97000000D03*
D16*
%TO.P,J1,MP*%
%TO.N,N/C*%
X24605000Y-99605000D03*
X24605000Y-88395000D03*
%TD*%
D17*
%TO.P,,1*%
%TO.N,GND*%
X36000000Y-122000000D03*
%TD*%
D10*
%TO.P,R10,1*%
%TO.N,GND*%
X29821000Y-80990000D03*
%TO.P,R10,2*%
%TO.N,Net-(R10-Pad2)*%
X28171000Y-80990000D03*
%TD*%
%TO.P,R1,1*%
%TO.N,VCC*%
X24925000Y-74300000D03*
%TO.P,R1,2*%
%TO.N,Net-(J1-Pad2)*%
X23275000Y-74300000D03*
%TD*%
D18*
%TO.P,R8,1*%
%TO.N,Net-(IC1-PadC1)*%
X27635000Y-115200000D03*
%TO.P,R8,2*%
%TO.N,Net-(R8-Pad2)*%
X27635000Y-113550000D03*
%TD*%
D14*
%TO.P,C7,1*%
%TO.N,/VOUT*%
X43496500Y-54065000D03*
%TO.P,C7,2*%
%TO.N,GND*%
X43496500Y-55615000D03*
%TD*%
D19*
%TO.P,D1,1,A*%
%TO.N,Net-(D1-Pad1)*%
X23200000Y-109750000D03*
%TO.P,D1,2,K*%
%TO.N,Net-(D1-Pad2)*%
X23200000Y-111850000D03*
%TD*%
D14*
%TO.P,C4,1*%
%TO.N,VCC*%
X34810500Y-49565000D03*
%TO.P,C4,2*%
%TO.N,GND*%
X34810500Y-51115000D03*
%TD*%
D20*
%TO.P,C1,1*%
%TO.N,VCC*%
X27875000Y-72790000D03*
%TO.P,C1,2*%
%TO.N,GND*%
X29425000Y-72790000D03*
%TD*%
D13*
%TO.P,R6,1*%
%TO.N,Net-(C5-Pad2)*%
X35813500Y-57940000D03*
%TO.P,R6,2*%
%TO.N,/VOUT*%
X37463500Y-57940000D03*
%TD*%
D21*
%TO.P,IC1,A1,CATHODE_1*%
%TO.N,VBIAS*%
X61500000Y-91500000D03*
%TO.P,IC1,A2,NO_CONNECT_1*%
%TO.N,GND*%
X62500000Y-91500000D03*
%TO.P,IC1,A3,NO_CONNECT_2*%
X63500000Y-91500000D03*
%TO.P,IC1,A4,NO_CONNECT_3*%
X64500000Y-91500000D03*
%TO.P,IC1,A5,NO_CONNECT_4*%
X65500000Y-91500000D03*
%TO.P,IC1,A6,NO_CONNECT_5*%
X66500000Y-91500000D03*
%TO.P,IC1,B1,NO_CONNECT_6*%
X61500000Y-92500000D03*
%TO.P,IC1,B2,NO_CONNECT_7*%
X62500000Y-92500000D03*
%TO.P,IC1,B3,NO_CONNECT_8*%
X63500000Y-92500000D03*
%TO.P,IC1,B4,NO_CONNECT_9*%
X64500000Y-92500000D03*
%TO.P,IC1,B5,NO_CONNECT_10*%
X65500000Y-92500000D03*
%TO.P,IC1,B6,NO_CONNECT_11*%
X66500000Y-92500000D03*
%TO.P,IC1,C1,ANODE_1*%
%TO.N,Net-(IC1-PadC1)*%
X61500000Y-93500000D03*
%TO.P,IC1,C2,NO_CONNECT_12*%
%TO.N,GND*%
X62500000Y-93500000D03*
%TO.P,IC1,C3,NO_CONNECT_13*%
X63500000Y-93500000D03*
%TO.P,IC1,C4,NO_CONNECT_14*%
X64500000Y-93500000D03*
%TO.P,IC1,C5,NO_CONNECT_15*%
X65500000Y-93500000D03*
%TO.P,IC1,C6,FAST_OUTPUT_1*%
%TO.N,unconnected-(IC1-PadC6)*%
X66500000Y-93500000D03*
%TO.P,IC1,D1,ANODE_2*%
%TO.N,Net-(IC1-PadC1)*%
X61500000Y-94500000D03*
%TO.P,IC1,D2,NO_CONNECT_16*%
%TO.N,GND*%
X62500000Y-94500000D03*
%TO.P,IC1,D3,NO_CONNECT_17*%
X63500000Y-94500000D03*
%TO.P,IC1,D4,NO_CONNECT_18*%
X64500000Y-94500000D03*
%TO.P,IC1,D5,NO_CONNECT_19*%
X65500000Y-94500000D03*
%TO.P,IC1,D6,FAST_OUTPUT_2*%
%TO.N,unconnected-(IC1-PadD6)*%
X66500000Y-94500000D03*
%TO.P,IC1,E1,NO_CONNECT_20*%
%TO.N,GND*%
X61500000Y-95500000D03*
%TO.P,IC1,E2,NO_CONNECT_21*%
X62500000Y-95500000D03*
%TO.P,IC1,E3,NO_CONNECT_22*%
X63500000Y-95500000D03*
%TO.P,IC1,E4,NO_CONNECT_23*%
X64500000Y-95500000D03*
%TO.P,IC1,E5,NO_CONNECT_24*%
X65500000Y-95500000D03*
%TO.P,IC1,E6,NO_CONNECT_25*%
X66500000Y-95500000D03*
%TO.P,IC1,F1,NO_CONNECT_26*%
X61500000Y-96500000D03*
%TO.P,IC1,F2,NO_CONNECT_27*%
X62500000Y-96500000D03*
%TO.P,IC1,F3,NO_CONNECT_28*%
X63500000Y-96500000D03*
%TO.P,IC1,F4,NO_CONNECT_29*%
X64500000Y-96500000D03*
%TO.P,IC1,F5,NO_CONNECT_30*%
X65500000Y-96500000D03*
%TO.P,IC1,F6,CATHODE_2*%
%TO.N,VBIAS*%
X66500000Y-96500000D03*
%TD*%
D18*
%TO.P,R9,1*%
%TO.N,Net-(D1-Pad1)*%
X23500000Y-107625000D03*
%TO.P,R9,2*%
%TO.N,Net-(R10-Pad2)*%
X23500000Y-105975000D03*
%TD*%
D22*
%TO.P,D2,1,A*%
%TO.N,Net-(D1-Pad2)*%
X24250000Y-103600000D03*
%TO.P,D2,2,K*%
%TO.N,Net-(C9-Pad1)*%
X26350000Y-103600000D03*
%TD*%
D23*
%TO.P,IC2,1,SW*%
%TO.N,VCC*%
X37025000Y-53000000D03*
%TO.P,IC2,2,GND*%
%TO.N,GND*%
X37025000Y-53950000D03*
%TO.P,IC2,3,FB*%
%TO.N,Net-(C5-Pad2)*%
X37025000Y-54900000D03*
%TO.P,IC2,4,~{SHDN}*%
%TO.N,Net-(IC2-Pad4)*%
X39300000Y-54900000D03*
%TO.P,IC2,5,VOUT*%
%TO.N,/VOUT*%
X39300000Y-53950000D03*
%TO.P,IC2,6,VIN*%
%TO.N,/VIN*%
X39300000Y-53000000D03*
%TD*%
D20*
%TO.P,C9,1*%
%TO.N,Net-(C9-Pad1)*%
X27900000Y-103585000D03*
%TO.P,C9,2*%
%TO.N,GND*%
X29450000Y-103585000D03*
%TD*%
D17*
%TO.P,,1*%
%TO.N,GND*%
X92000000Y-66000000D03*
%TD*%
%TO.P,,1*%
%TO.N,GND*%
X92000000Y-122000000D03*
%TD*%
D24*
%TO.P,C5,1*%
%TO.N,/VOUT*%
X37413500Y-59440000D03*
%TO.P,C5,2*%
%TO.N,Net-(C5-Pad2)*%
X35863500Y-59440000D03*
%TD*%
D25*
%TO.P,U1,1,ADDR*%
%TO.N,Net-(R2-Pad1)*%
X26600000Y-79450000D03*
%TO.P,U1,2,ALERT/RDY*%
%TO.N,Net-(J1-Pad2)*%
X27100000Y-79450000D03*
%TO.P,U1,3,GND*%
%TO.N,GND*%
X27600000Y-79450000D03*
%TO.P,U1,4,AIN0*%
%TO.N,Net-(R10-Pad2)*%
X28100000Y-79450000D03*
%TO.P,U1,5,AIN1*%
%TO.N,unconnected-(U1-Pad5)*%
X28600000Y-79450000D03*
%TO.P,U1,6,AIN2*%
%TO.N,unconnected-(U1-Pad6)*%
X28600000Y-75150000D03*
%TO.P,U1,7,AIN3*%
%TO.N,unconnected-(U1-Pad7)*%
X28100000Y-75150000D03*
%TO.P,U1,8,VDD*%
%TO.N,VCC*%
X27600000Y-75150000D03*
%TO.P,U1,9,SDA*%
%TO.N,Net-(J1-Pad4)*%
X27100000Y-75150000D03*
%TO.P,U1,10,SCL*%
%TO.N,Net-(J1-Pad3)*%
X26600000Y-75150000D03*
%TD*%
D26*
%TO.P,L2,1,1*%
%TO.N,VCC*%
X36762500Y-50268000D03*
%TO.P,L2,2,2*%
%TO.N,/VIN*%
X39562500Y-50268000D03*
%TD*%
D13*
%TO.P,L3,1,1*%
%TO.N,/VOUT*%
X44957500Y-54078000D03*
%TO.P,L3,2,2*%
%TO.N,VBIAS*%
X46607500Y-54078000D03*
%TD*%
D17*
%TO.P,,1*%
%TO.N,GND*%
X36000000Y-66000000D03*
%TD*%
D27*
%TO.N,GND*%
X44560224Y-55738204D03*
X58000000Y-99160000D03*
X29632000Y-71458000D03*
X27900000Y-78300000D03*
X30246000Y-79740000D03*
X23536000Y-80856000D03*
X34510500Y-52340000D03*
X29800000Y-104700000D03*
X69430000Y-99160000D03*
X46846224Y-55738204D03*
X58000000Y-89000000D03*
X69430000Y-89000000D03*
X32622224Y-55230204D03*
X30500000Y-97900000D03*
%TO.N,VCC*%
X32152531Y-84600000D03*
X30246011Y-84600000D03*
%TO.N,Net-(J1-Pad2)*%
X28897500Y-91900000D03*
X27444500Y-91800000D03*
%TD*%
D28*
%TO.N,GND*%
X35179500Y-53950000D02*
X33781500Y-55348000D01*
X29425000Y-71665000D02*
X29632000Y-71458000D01*
X29821000Y-80165000D02*
X30246000Y-79740000D01*
X29450000Y-104350000D02*
X29800000Y-104700000D01*
X27600000Y-78600000D02*
X27900000Y-78300000D01*
X29425000Y-72790000D02*
X29425000Y-71665000D01*
X44437020Y-55615000D02*
X44560224Y-55738204D01*
X24725000Y-81190000D02*
X23870000Y-81190000D01*
X23870000Y-81190000D02*
X23536000Y-80856000D01*
X43496500Y-55615000D02*
X44437020Y-55615000D01*
X34810500Y-51115000D02*
X34810500Y-52040000D01*
X27600000Y-79450000D02*
X27600000Y-78600000D01*
X46969428Y-55615000D02*
X46846224Y-55738204D01*
X29795000Y-97195000D02*
X30500000Y-97900000D01*
X34810500Y-52040000D02*
X34510500Y-52340000D01*
X48068500Y-55615000D02*
X46969428Y-55615000D01*
X33781500Y-55348000D02*
X32740020Y-55348000D01*
X32740020Y-55348000D02*
X32622224Y-55230204D01*
X29450000Y-103585000D02*
X29450000Y-104350000D01*
X29795000Y-97000000D02*
X29795000Y-97195000D01*
X37025000Y-53950000D02*
X35179500Y-53950000D01*
X29821000Y-80990000D02*
X29821000Y-80165000D01*
%TO.N,VCC*%
X25405000Y-71195000D02*
X27875000Y-68725000D01*
X27875000Y-72790000D02*
X27875000Y-68725000D01*
X24925000Y-73150000D02*
X24555000Y-72780000D01*
X32152531Y-84600000D02*
X32152531Y-79269783D01*
X27600000Y-76125223D02*
X27600000Y-75150000D01*
D29*
X27875000Y-73675000D02*
X27875000Y-72790000D01*
D28*
X32152531Y-79269783D02*
X29478584Y-76595836D01*
D29*
X27600000Y-75150000D02*
X27600000Y-73950000D01*
D28*
X29800000Y-91000000D02*
X30246011Y-90553989D01*
X25405000Y-71260000D02*
X24555000Y-72110000D01*
X27875000Y-56500500D02*
X34810500Y-49565000D01*
X24555000Y-72110000D02*
X24555000Y-72780000D01*
X30246011Y-90553989D02*
X30246011Y-84600000D01*
D29*
X27600000Y-73950000D02*
X27875000Y-73675000D01*
D28*
X28070613Y-76595836D02*
X27600000Y-76125223D01*
X27875000Y-68725000D02*
X27875000Y-56500500D01*
X29478584Y-76595836D02*
X28070613Y-76595836D01*
X24925000Y-74300000D02*
X24925000Y-73150000D01*
%TO.N,Net-(J1-Pad2)*%
X27101520Y-79451520D02*
X27101520Y-91457020D01*
X27101520Y-91457020D02*
X27444500Y-91800000D01*
X27100000Y-78125000D02*
X27100000Y-79450000D01*
X23275000Y-74300000D02*
X27100000Y-78125000D01*
X27100000Y-79450000D02*
X27101520Y-79451520D01*
X28897500Y-91900000D02*
X29195000Y-91900000D01*
X29195000Y-91900000D02*
X29795000Y-92500000D01*
%TO.N,Net-(J1-Pad3)*%
X29795000Y-94000000D02*
X30972511Y-92822489D01*
X26600000Y-76574421D02*
X26600000Y-75150000D01*
X30972511Y-79372511D02*
X29173489Y-77573489D01*
X30972511Y-92822489D02*
X30972511Y-79372511D01*
X27599068Y-77573489D02*
X26600000Y-76574421D01*
D29*
X26205000Y-72780000D02*
X26205000Y-73915000D01*
X26600000Y-74310000D02*
X26600000Y-75150000D01*
D28*
X29173489Y-77573489D02*
X27599068Y-77573489D01*
D29*
X26205000Y-73915000D02*
X26600000Y-74310000D01*
D28*
%TO.N,Net-(J1-Pad4)*%
X27786922Y-77119969D02*
X27100000Y-76433047D01*
D29*
X27100000Y-75150000D02*
X27100000Y-71305000D01*
D28*
X27100000Y-76433047D02*
X27100000Y-75150000D01*
X31426031Y-93868969D02*
X31426031Y-79184657D01*
X29341374Y-77100000D02*
X29321405Y-77119969D01*
X29795000Y-95500000D02*
X31426031Y-93868969D01*
X29321405Y-77119969D02*
X27786922Y-77119969D01*
X31426031Y-79184657D02*
X29341374Y-77100000D01*
D29*
%TO.N,Net-(R2-Pad1)*%
X26600000Y-79450000D02*
X26600000Y-80965000D01*
%TO.N,/VOUT*%
X43496500Y-54065000D02*
X44944500Y-54065000D01*
X42035500Y-54065000D02*
X43496500Y-54065000D01*
D28*
%TO.N,Net-(C5-Pad2)*%
X35879500Y-54900000D02*
X35431500Y-55348000D01*
X37025000Y-54900000D02*
X35879500Y-54900000D01*
X37025000Y-54900000D02*
X37025000Y-55399428D01*
X37025000Y-55399428D02*
X35813500Y-56610928D01*
X35813500Y-56610928D02*
X35813500Y-57888000D01*
D29*
%TO.N,VBIAS*%
X41100000Y-70100000D02*
X35894463Y-70100000D01*
D28*
X67000000Y-88000000D02*
X62500000Y-88000000D01*
D29*
X48868020Y-54864520D02*
X48868020Y-62331980D01*
X37100000Y-87000000D02*
X61500000Y-87000000D01*
X48868020Y-62331980D02*
X41100000Y-70100000D01*
X34600000Y-84500000D02*
X37100000Y-87000000D01*
D28*
X62500000Y-88000000D02*
X61500000Y-87000000D01*
D29*
X48068500Y-54065000D02*
X48868020Y-54864520D01*
D28*
X68500000Y-89500000D02*
X67000000Y-88000000D01*
X61500000Y-87000000D02*
X61500000Y-91500000D01*
D29*
X34600000Y-71394463D02*
X34600000Y-84500000D01*
X46607500Y-54078000D02*
X48055500Y-54078000D01*
D28*
X67500000Y-96500000D02*
X68500000Y-95500000D01*
D29*
X35894463Y-70100000D02*
X34600000Y-71394463D01*
D28*
X66500000Y-96500000D02*
X67500000Y-96500000D01*
X68500000Y-95500000D02*
X68500000Y-89500000D01*
%TO.N,Net-(C9-Pad1)*%
X28905000Y-106525000D02*
X28905000Y-104590000D01*
X27900000Y-103585000D02*
X26365000Y-103585000D01*
X28905000Y-104590000D02*
X27900000Y-103585000D01*
%TO.N,Net-(D1-Pad1)*%
X25500000Y-113000000D02*
X26365000Y-112135000D01*
X22500000Y-112500000D02*
X23000000Y-113000000D01*
X23000000Y-113000000D02*
X25500000Y-113000000D01*
X23500000Y-109450000D02*
X23200000Y-109750000D01*
X22500000Y-110450000D02*
X22500000Y-112500000D01*
X23500000Y-107625000D02*
X23500000Y-109450000D01*
X23200000Y-109750000D02*
X22500000Y-110450000D01*
%TO.N,Net-(D1-Pad2)*%
X23006909Y-106701520D02*
X22698480Y-106393091D01*
X24101520Y-106701520D02*
X23006909Y-106701520D01*
X23500000Y-103600000D02*
X24250000Y-103600000D01*
X22700000Y-104400000D02*
X23500000Y-103600000D01*
X24720000Y-111850000D02*
X25095000Y-111475000D01*
X24468480Y-108568480D02*
X24468480Y-107068480D01*
X22700000Y-105555389D02*
X22700000Y-104400000D01*
X22698480Y-105556909D02*
X22700000Y-105555389D01*
X25095000Y-111475000D02*
X25095000Y-109195000D01*
X22698480Y-106393091D02*
X22698480Y-105556909D01*
X24468480Y-107068480D02*
X24101520Y-106701520D01*
X25095000Y-109195000D02*
X24468480Y-108568480D01*
X23200000Y-111850000D02*
X24720000Y-111850000D01*
%TO.N,Net-(IC1-PadC1)*%
X61500000Y-94500000D02*
X50800000Y-94500000D01*
X61500000Y-94500000D02*
X61500000Y-93500000D01*
X50800000Y-94500000D02*
X30100000Y-115200000D01*
X27635000Y-115200000D02*
X30100000Y-115200000D01*
D29*
%TO.N,/VIN*%
X38012020Y-53904408D02*
X38916428Y-53000000D01*
X38012020Y-56197480D02*
X38012020Y-53904408D01*
%TO.N,Net-(IC2-Pad4)*%
X39300000Y-54900000D02*
X39300000Y-56168500D01*
D28*
%TO.N,Net-(R8-Pad2)*%
X27635000Y-111475000D02*
X27635000Y-113550000D01*
%TO.N,Net-(R10-Pad2)*%
X26365000Y-106525000D02*
X27635000Y-106525000D01*
X28171000Y-98829000D02*
X28171000Y-80990000D01*
X25900000Y-105000000D02*
X25200000Y-104300000D01*
X24475000Y-105000000D02*
X25900000Y-105000000D01*
X25200000Y-101800000D02*
X28171000Y-98829000D01*
X23500000Y-105975000D02*
X24475000Y-105000000D01*
X28100000Y-79450000D02*
X28100000Y-80919000D01*
X25200000Y-104300000D02*
X25200000Y-101800000D01*
X26365000Y-105465000D02*
X26365000Y-106525000D01*
X25900000Y-105000000D02*
X26365000Y-105465000D01*
%TD*%
%TA.AperFunction,NonConductor*%
G36*
X92942121Y-128020002D02*
G01*
X92988614Y-128073658D01*
X93000000Y-128126000D01*
X93000000Y-138876065D01*
X92979998Y-138944186D01*
X92926342Y-138990679D01*
X92876082Y-139002048D01*
X44677684Y-139798716D01*
X32628082Y-139997883D01*
X32559640Y-139979009D01*
X32512267Y-139926129D01*
X32500000Y-139871900D01*
X32500000Y-128126000D01*
X32520002Y-128057879D01*
X32573658Y-128011386D01*
X32626000Y-128000000D01*
X92874000Y-128000000D01*
X92942121Y-128020002D01*
G37*
%TD.AperFunction*%
%TA.AperFunction,NonConductor*%
G36*
X106992121Y-133020002D02*
G01*
X107038614Y-133073658D01*
X107050000Y-133126000D01*
X107050000Y-134752976D01*
X107048047Y-134770182D01*
X107048037Y-134775813D01*
X107044857Y-134789642D01*
X107047989Y-134803483D01*
X107047964Y-134817669D01*
X107047868Y-134817669D01*
X107048600Y-134825635D01*
X107031236Y-135267573D01*
X107030460Y-135277436D01*
X106974864Y-135747161D01*
X106973316Y-135756932D01*
X106881040Y-136220839D01*
X106878733Y-136230447D01*
X106802339Y-136501322D01*
X106750343Y-136685685D01*
X106747286Y-136695094D01*
X106583572Y-137138860D01*
X106579787Y-137147997D01*
X106388187Y-137563611D01*
X106381760Y-137577552D01*
X106377269Y-137586365D01*
X106285153Y-137750850D01*
X106146159Y-137999041D01*
X106140990Y-138007477D01*
X106120028Y-138038849D01*
X105884674Y-138391083D01*
X105878207Y-138400761D01*
X105872398Y-138408757D01*
X105782085Y-138523318D01*
X105579563Y-138780215D01*
X105573138Y-138787738D01*
X105501953Y-138864746D01*
X105252057Y-139135083D01*
X105245083Y-139142057D01*
X105130205Y-139248249D01*
X104897738Y-139463138D01*
X104890215Y-139469563D01*
X104731290Y-139594850D01*
X104518757Y-139762398D01*
X104510769Y-139768201D01*
X104202061Y-139974473D01*
X104117477Y-140030990D01*
X104109041Y-140036159D01*
X103696367Y-140267268D01*
X103687554Y-140271759D01*
X103265267Y-140466436D01*
X103258000Y-140469786D01*
X103248860Y-140473572D01*
X102805094Y-140637286D01*
X102795685Y-140640343D01*
X102645542Y-140682688D01*
X102340447Y-140768733D01*
X102330846Y-140771038D01*
X102103340Y-140816292D01*
X101866932Y-140863316D01*
X101857161Y-140864864D01*
X101387436Y-140920460D01*
X101377573Y-140921236D01*
X100936205Y-140938577D01*
X100928373Y-140937844D01*
X100928373Y-140938061D01*
X100914186Y-140938036D01*
X100900358Y-140934857D01*
X100886519Y-140937988D01*
X100881630Y-140937980D01*
X100863552Y-140940000D01*
X95126000Y-140940000D01*
X95057879Y-140919998D01*
X95011386Y-140866342D01*
X95000000Y-140814000D01*
X95000000Y-137006368D01*
X97800703Y-137006368D01*
X97800958Y-137010897D01*
X97800958Y-137010900D01*
X97805887Y-137098425D01*
X97815122Y-137262424D01*
X97866198Y-137513748D01*
X97867730Y-137518015D01*
X97867731Y-137518018D01*
X97890721Y-137582042D01*
X97952869Y-137755120D01*
X97955002Y-137759129D01*
X97955003Y-137759131D01*
X98020647Y-137882503D01*
X98073335Y-137981527D01*
X98225095Y-138188267D01*
X98404996Y-138371046D01*
X98408611Y-138373789D01*
X98477586Y-138426125D01*
X98609302Y-138526067D01*
X98833770Y-138650111D01*
X98838029Y-138651717D01*
X98838031Y-138651718D01*
X99069484Y-138738998D01*
X99069489Y-138739000D01*
X99073736Y-138740601D01*
X99078171Y-138741576D01*
X99078175Y-138741577D01*
X99288186Y-138787738D01*
X99324218Y-138795658D01*
X99556684Y-138812453D01*
X99575162Y-138813788D01*
X99575111Y-138814489D01*
X99577186Y-138814257D01*
X99579297Y-138814746D01*
X99580013Y-138814747D01*
X99586951Y-138813164D01*
X99594025Y-138812373D01*
X99594034Y-138812453D01*
X99616294Y-138810092D01*
X100130736Y-138816773D01*
X103392247Y-138859131D01*
X103419055Y-138862373D01*
X103422335Y-138863133D01*
X103422341Y-138863134D01*
X103429297Y-138864746D01*
X103430013Y-138864747D01*
X103432141Y-138864262D01*
X103433526Y-138864421D01*
X103433493Y-138863953D01*
X103444958Y-138863133D01*
X103686834Y-138845834D01*
X103691238Y-138844876D01*
X103934020Y-138792062D01*
X103934024Y-138792061D01*
X103938427Y-138791103D01*
X104179670Y-138701124D01*
X104405652Y-138577728D01*
X104611773Y-138423428D01*
X104793837Y-138241364D01*
X104948137Y-138035243D01*
X105071533Y-137809261D01*
X105161512Y-137568018D01*
X105174286Y-137509300D01*
X105215285Y-137320829D01*
X105216243Y-137316425D01*
X105234611Y-137059604D01*
X105216243Y-136802783D01*
X105214732Y-136795836D01*
X105162471Y-136555597D01*
X105162470Y-136555593D01*
X105161512Y-136551190D01*
X105071533Y-136309947D01*
X104948137Y-136083965D01*
X104793837Y-135877844D01*
X104611773Y-135695780D01*
X104405652Y-135541480D01*
X104179670Y-135418084D01*
X103938427Y-135328105D01*
X103934024Y-135327147D01*
X103934020Y-135327146D01*
X103691238Y-135274332D01*
X103686834Y-135273374D01*
X103434443Y-135255323D01*
X103434483Y-135254766D01*
X103432836Y-135254950D01*
X103430729Y-135254462D01*
X103430013Y-135254461D01*
X103423077Y-135256043D01*
X103421265Y-135256456D01*
X103393273Y-135259611D01*
X99672539Y-135260389D01*
X99651248Y-135257611D01*
X99651154Y-135258250D01*
X99644098Y-135257209D01*
X99637213Y-135255381D01*
X99636497Y-135255357D01*
X99634364Y-135255773D01*
X99632536Y-135255503D01*
X99632561Y-135256124D01*
X99384771Y-135266137D01*
X99384766Y-135266138D01*
X99380226Y-135266321D01*
X99375762Y-135267155D01*
X99375759Y-135267155D01*
X99233280Y-135293764D01*
X99128123Y-135313402D01*
X98885406Y-135396232D01*
X98881369Y-135398298D01*
X98881363Y-135398301D01*
X98763708Y-135458528D01*
X98657115Y-135513091D01*
X98447994Y-135661552D01*
X98262383Y-135838530D01*
X98259581Y-135842103D01*
X98259577Y-135842108D01*
X98193031Y-135926980D01*
X98104140Y-136040350D01*
X98101876Y-136044297D01*
X98101875Y-136044299D01*
X98011495Y-136201889D01*
X97976550Y-136262821D01*
X97974877Y-136267053D01*
X97974876Y-136267055D01*
X97957920Y-136309947D01*
X97882264Y-136501322D01*
X97881218Y-136505745D01*
X97836438Y-136695094D01*
X97823240Y-136750899D01*
X97822841Y-136755422D01*
X97822840Y-136755428D01*
X97815327Y-136840596D01*
X97800703Y-137006368D01*
X95000000Y-137006368D01*
X95000000Y-133126000D01*
X95020002Y-133057879D01*
X95073658Y-133011386D01*
X95126000Y-133000000D01*
X106924000Y-133000000D01*
X106992121Y-133020002D01*
G37*
%TD.AperFunction*%
%TA.AperFunction,NonConductor*%
G36*
X30418032Y-54524788D02*
G01*
X30474868Y-54567335D01*
X30499679Y-54633855D01*
X30500000Y-54642844D01*
X30500000Y-55374000D01*
X30479998Y-55442121D01*
X30426342Y-55488614D01*
X30374000Y-55500000D01*
X29642844Y-55500000D01*
X29574723Y-55479998D01*
X29528230Y-55426342D01*
X29518126Y-55356068D01*
X29547620Y-55291488D01*
X29553749Y-55284905D01*
X30284905Y-54553749D01*
X30347217Y-54519723D01*
X30418032Y-54524788D01*
G37*
%TD.AperFunction*%
%TA.AperFunction,NonConductor*%
G36*
X30442121Y-47020002D02*
G01*
X30488614Y-47073658D01*
X30500000Y-47126000D01*
X30500000Y-53360156D01*
X30479998Y-53428277D01*
X30463095Y-53449251D01*
X28449251Y-55463095D01*
X28386939Y-55497121D01*
X28360156Y-55500000D01*
X19966000Y-55500000D01*
X19897879Y-55479998D01*
X19851386Y-55426342D01*
X19840000Y-55374000D01*
X19840000Y-51466273D01*
X21613635Y-51466273D01*
X21645939Y-51718995D01*
X21713931Y-51964533D01*
X21816223Y-52197875D01*
X21950725Y-52414256D01*
X21953623Y-52417702D01*
X21953624Y-52417704D01*
X22052802Y-52535654D01*
X22114693Y-52609260D01*
X22304779Y-52778904D01*
X22517101Y-52919727D01*
X22521168Y-52921655D01*
X22521172Y-52921657D01*
X22743249Y-53026920D01*
X22743255Y-53026922D01*
X22747326Y-53028852D01*
X22751629Y-53030181D01*
X22751636Y-53030184D01*
X22958145Y-53093980D01*
X22990753Y-53104053D01*
X22995196Y-53104755D01*
X22995202Y-53104756D01*
X23237684Y-53143046D01*
X23237579Y-53143713D01*
X23239583Y-53143661D01*
X23241649Y-53144329D01*
X23242362Y-53144391D01*
X23249416Y-53143403D01*
X23249419Y-53143403D01*
X23263603Y-53141416D01*
X23282225Y-53140203D01*
X25972373Y-53164666D01*
X25999679Y-53167916D01*
X26002328Y-53168530D01*
X26002331Y-53168530D01*
X26009284Y-53170142D01*
X26010000Y-53170143D01*
X26012128Y-53169658D01*
X26013513Y-53169817D01*
X26013480Y-53169349D01*
X26077196Y-53164792D01*
X26266821Y-53151230D01*
X26271225Y-53150272D01*
X26514007Y-53097458D01*
X26514011Y-53097457D01*
X26518414Y-53096499D01*
X26759657Y-53006520D01*
X26985639Y-52883124D01*
X27191760Y-52728824D01*
X27373824Y-52546760D01*
X27528124Y-52340639D01*
X27651520Y-52114657D01*
X27741499Y-51873414D01*
X27774145Y-51723346D01*
X27795272Y-51626225D01*
X27796230Y-51621821D01*
X27814598Y-51365000D01*
X27796230Y-51108179D01*
X27764956Y-50964414D01*
X27742458Y-50860993D01*
X27742457Y-50860989D01*
X27741499Y-50856586D01*
X27651520Y-50615343D01*
X27528124Y-50389361D01*
X27373824Y-50183240D01*
X27191760Y-50001176D01*
X26985639Y-49846876D01*
X26759657Y-49723480D01*
X26518414Y-49633501D01*
X26514011Y-49632543D01*
X26514007Y-49632542D01*
X26271225Y-49579728D01*
X26266821Y-49578770D01*
X26014430Y-49560719D01*
X26014470Y-49560163D01*
X26012825Y-49560347D01*
X26010716Y-49559858D01*
X26010000Y-49559857D01*
X26003061Y-49561440D01*
X26003059Y-49561440D01*
X25999749Y-49562195D01*
X25972931Y-49565345D01*
X23765775Y-49586420D01*
X23337959Y-49590505D01*
X23314897Y-49588600D01*
X23299547Y-49585896D01*
X23298832Y-49585933D01*
X23296740Y-49586529D01*
X23294963Y-49586420D01*
X23295038Y-49587014D01*
X23046070Y-49618269D01*
X22800379Y-49685707D01*
X22566807Y-49787472D01*
X22562985Y-49789836D01*
X22562979Y-49789839D01*
X22474250Y-49844717D01*
X22350123Y-49921487D01*
X22154751Y-50085015D01*
X22151744Y-50088369D01*
X22022639Y-50232376D01*
X21984678Y-50274718D01*
X21843377Y-50486722D01*
X21733733Y-50716701D01*
X21732391Y-50721009D01*
X21732390Y-50721013D01*
X21702711Y-50816325D01*
X21657985Y-50959958D01*
X21617677Y-51211527D01*
X21613635Y-51466273D01*
X19840000Y-51466273D01*
X19840000Y-48983318D01*
X19860002Y-48915197D01*
X19876106Y-48895028D01*
X21700274Y-47037710D01*
X21762277Y-47003126D01*
X21790168Y-47000000D01*
X30374000Y-47000000D01*
X30442121Y-47020002D01*
G37*
%TD.AperFunction*%
%TA.AperFunction,NonConductor*%
G36*
X30442121Y-132520002D02*
G01*
X30488614Y-132573658D01*
X30500000Y-132626000D01*
X30500000Y-140814000D01*
X30479998Y-140882121D01*
X30426342Y-140928614D01*
X30374000Y-140940000D01*
X26007024Y-140940000D01*
X25989818Y-140938047D01*
X25984187Y-140938037D01*
X25970358Y-140934857D01*
X25956517Y-140937989D01*
X25942331Y-140937964D01*
X25942331Y-140937868D01*
X25934366Y-140938600D01*
X25815302Y-140933922D01*
X25492427Y-140921236D01*
X25482564Y-140920460D01*
X25012839Y-140864864D01*
X25003068Y-140863316D01*
X24766660Y-140816292D01*
X24539154Y-140771038D01*
X24529553Y-140768733D01*
X24224458Y-140682688D01*
X24074315Y-140640343D01*
X24064906Y-140637286D01*
X23621140Y-140473572D01*
X23612000Y-140469786D01*
X23604734Y-140466436D01*
X23182446Y-140271759D01*
X23173633Y-140267268D01*
X22760959Y-140036159D01*
X22752523Y-140030990D01*
X22667939Y-139974473D01*
X22359231Y-139768201D01*
X22351243Y-139762398D01*
X22138710Y-139594850D01*
X21979785Y-139469563D01*
X21972262Y-139463138D01*
X21739795Y-139248249D01*
X21624917Y-139142057D01*
X21617943Y-139135083D01*
X21379112Y-138876716D01*
X21296862Y-138787738D01*
X21290437Y-138780215D01*
X21101407Y-138540433D01*
X20997602Y-138408757D01*
X20991793Y-138400761D01*
X20968002Y-138365154D01*
X20729010Y-138007477D01*
X20723841Y-137999041D01*
X20492732Y-137586367D01*
X20488240Y-137577552D01*
X20353941Y-137286234D01*
X20290213Y-137147997D01*
X20286428Y-137138860D01*
X20281788Y-137126282D01*
X21583833Y-137126282D01*
X21584404Y-137130747D01*
X21584404Y-137130752D01*
X21586034Y-137143503D01*
X21616137Y-137379004D01*
X21684129Y-137624542D01*
X21786421Y-137857884D01*
X21788802Y-137861714D01*
X21916589Y-138067292D01*
X21920923Y-138074265D01*
X21923821Y-138077711D01*
X21923822Y-138077713D01*
X22023000Y-138195663D01*
X22084891Y-138269269D01*
X22274977Y-138438913D01*
X22487299Y-138579736D01*
X22491366Y-138581664D01*
X22491370Y-138581666D01*
X22713447Y-138686929D01*
X22713453Y-138686931D01*
X22717524Y-138688861D01*
X22721827Y-138690190D01*
X22721834Y-138690193D01*
X22928343Y-138753989D01*
X22960951Y-138764062D01*
X22965394Y-138764764D01*
X22965400Y-138764765D01*
X23207882Y-138803055D01*
X23207777Y-138803722D01*
X23209781Y-138803670D01*
X23211847Y-138804338D01*
X23212560Y-138804400D01*
X23219614Y-138803412D01*
X23219617Y-138803412D01*
X23233801Y-138801425D01*
X23252423Y-138800212D01*
X25942571Y-138824675D01*
X25969877Y-138827925D01*
X25972526Y-138828539D01*
X25972529Y-138828539D01*
X25979482Y-138830151D01*
X25980198Y-138830152D01*
X25982326Y-138829667D01*
X25983711Y-138829826D01*
X25983678Y-138829358D01*
X26047394Y-138824801D01*
X26237019Y-138811239D01*
X26241423Y-138810281D01*
X26484205Y-138757467D01*
X26484209Y-138757466D01*
X26488612Y-138756508D01*
X26729855Y-138666529D01*
X26955837Y-138543133D01*
X27161958Y-138388833D01*
X27344022Y-138206769D01*
X27498322Y-138000648D01*
X27621718Y-137774666D01*
X27711697Y-137533423D01*
X27744343Y-137383355D01*
X27765470Y-137286234D01*
X27766428Y-137281830D01*
X27784796Y-137025009D01*
X27766428Y-136768188D01*
X27749518Y-136690455D01*
X27712656Y-136521002D01*
X27712655Y-136520998D01*
X27711697Y-136516595D01*
X27621718Y-136275352D01*
X27498322Y-136049370D01*
X27344022Y-135843249D01*
X27161958Y-135661185D01*
X26955837Y-135506885D01*
X26729855Y-135383489D01*
X26488612Y-135293510D01*
X26484209Y-135292552D01*
X26484205Y-135292551D01*
X26241423Y-135239737D01*
X26237019Y-135238779D01*
X25984628Y-135220728D01*
X25984668Y-135220172D01*
X25983023Y-135220356D01*
X25980914Y-135219867D01*
X25980198Y-135219866D01*
X25973259Y-135221449D01*
X25973257Y-135221449D01*
X25969947Y-135222204D01*
X25943129Y-135225354D01*
X23735973Y-135246429D01*
X23308157Y-135250514D01*
X23285095Y-135248609D01*
X23269745Y-135245905D01*
X23269030Y-135245942D01*
X23266938Y-135246538D01*
X23265161Y-135246429D01*
X23265236Y-135247023D01*
X23016268Y-135278278D01*
X22770577Y-135345716D01*
X22537005Y-135447481D01*
X22533183Y-135449845D01*
X22533177Y-135449848D01*
X22444448Y-135504726D01*
X22320321Y-135581496D01*
X22124949Y-135745024D01*
X22121942Y-135748378D01*
X21992837Y-135892385D01*
X21954876Y-135934727D01*
X21813575Y-136146731D01*
X21703931Y-136376710D01*
X21702589Y-136381018D01*
X21702588Y-136381022D01*
X21672909Y-136476334D01*
X21628183Y-136619967D01*
X21587875Y-136871536D01*
X21583833Y-137126282D01*
X20281788Y-137126282D01*
X20122714Y-136695094D01*
X20119657Y-136685685D01*
X20077312Y-136535542D01*
X19991267Y-136230447D01*
X19988960Y-136220839D01*
X19975030Y-136150805D01*
X19900795Y-135777600D01*
X19896684Y-135756932D01*
X19895136Y-135747161D01*
X19839540Y-135277436D01*
X19838764Y-135267573D01*
X19821433Y-134826491D01*
X19823481Y-134804848D01*
X19822714Y-134804760D01*
X19823530Y-134797671D01*
X19825142Y-134790716D01*
X19825143Y-134790000D01*
X19823154Y-134781282D01*
X19820000Y-134753267D01*
X19820000Y-132626000D01*
X19840002Y-132557879D01*
X19893658Y-132511386D01*
X19946000Y-132500000D01*
X30374000Y-132500000D01*
X30442121Y-132520002D01*
G37*
%TD.AperFunction*%
%TA.AperFunction,NonConductor*%
G36*
X104533819Y-47020002D02*
G01*
X104566659Y-47050616D01*
X107010055Y-50323021D01*
X107034784Y-50389571D01*
X107035094Y-50398295D01*
X107039436Y-55373890D01*
X107019493Y-55442028D01*
X106965878Y-55488568D01*
X106913436Y-55500000D01*
X95126000Y-55500000D01*
X95057879Y-55479998D01*
X95011386Y-55426342D01*
X95000000Y-55374000D01*
X95000000Y-51261764D01*
X97830690Y-51261764D01*
X97830945Y-51266293D01*
X97830945Y-51266296D01*
X97835874Y-51353821D01*
X97845109Y-51517820D01*
X97896185Y-51769144D01*
X97897717Y-51773411D01*
X97897718Y-51773414D01*
X97915672Y-51823414D01*
X97982856Y-52010516D01*
X97984989Y-52014525D01*
X97984990Y-52014527D01*
X98050634Y-52137899D01*
X98103322Y-52236923D01*
X98255082Y-52443663D01*
X98434983Y-52626442D01*
X98438598Y-52629185D01*
X98507573Y-52681521D01*
X98639289Y-52781463D01*
X98863757Y-52905507D01*
X98868016Y-52907113D01*
X98868018Y-52907114D01*
X99099471Y-52994394D01*
X99099476Y-52994396D01*
X99103723Y-52995997D01*
X99108158Y-52996972D01*
X99108162Y-52996973D01*
X99326321Y-53044925D01*
X99354205Y-53051054D01*
X99586671Y-53067849D01*
X99605149Y-53069184D01*
X99605098Y-53069885D01*
X99607173Y-53069653D01*
X99609284Y-53070142D01*
X99610000Y-53070143D01*
X99616938Y-53068560D01*
X99624012Y-53067769D01*
X99624021Y-53067849D01*
X99646281Y-53065488D01*
X100160723Y-53072169D01*
X103422234Y-53114527D01*
X103449042Y-53117769D01*
X103452322Y-53118529D01*
X103452328Y-53118530D01*
X103459284Y-53120142D01*
X103460000Y-53120143D01*
X103462128Y-53119658D01*
X103463513Y-53119817D01*
X103463480Y-53119349D01*
X103474945Y-53118529D01*
X103716821Y-53101230D01*
X103721225Y-53100272D01*
X103964007Y-53047458D01*
X103964011Y-53047457D01*
X103968414Y-53046499D01*
X104209657Y-52956520D01*
X104435639Y-52833124D01*
X104641760Y-52678824D01*
X104823824Y-52496760D01*
X104978124Y-52290639D01*
X105101520Y-52064657D01*
X105191499Y-51823414D01*
X105204273Y-51764696D01*
X105245272Y-51576225D01*
X105246230Y-51571821D01*
X105264598Y-51315000D01*
X105246230Y-51058179D01*
X105244719Y-51051232D01*
X105192458Y-50810993D01*
X105192457Y-50810989D01*
X105191499Y-50806586D01*
X105101520Y-50565343D01*
X104978124Y-50339361D01*
X104823824Y-50133240D01*
X104641760Y-49951176D01*
X104435639Y-49796876D01*
X104209657Y-49673480D01*
X103968414Y-49583501D01*
X103964011Y-49582543D01*
X103964007Y-49582542D01*
X103721225Y-49529728D01*
X103716821Y-49528770D01*
X103464430Y-49510719D01*
X103464470Y-49510162D01*
X103462823Y-49510346D01*
X103460716Y-49509858D01*
X103460000Y-49509857D01*
X103453064Y-49511439D01*
X103451252Y-49511852D01*
X103423260Y-49515007D01*
X99702526Y-49515785D01*
X99681235Y-49513007D01*
X99681141Y-49513646D01*
X99674085Y-49512605D01*
X99667200Y-49510777D01*
X99666484Y-49510753D01*
X99664351Y-49511169D01*
X99662523Y-49510899D01*
X99662548Y-49511520D01*
X99414758Y-49521533D01*
X99414753Y-49521534D01*
X99410213Y-49521717D01*
X99405749Y-49522551D01*
X99405746Y-49522551D01*
X99263267Y-49549160D01*
X99158110Y-49568798D01*
X98915393Y-49651628D01*
X98911356Y-49653694D01*
X98911350Y-49653697D01*
X98793695Y-49713924D01*
X98687102Y-49768487D01*
X98477981Y-49916948D01*
X98292370Y-50093926D01*
X98289568Y-50097499D01*
X98289564Y-50097504D01*
X98136934Y-50292166D01*
X98134127Y-50295746D01*
X98131863Y-50299693D01*
X98131862Y-50299695D01*
X98099280Y-50356507D01*
X98006537Y-50518217D01*
X98004864Y-50522449D01*
X98004863Y-50522451D01*
X97987907Y-50565343D01*
X97912251Y-50756718D01*
X97853227Y-51006295D01*
X97852828Y-51010818D01*
X97852827Y-51010824D01*
X97845314Y-51095992D01*
X97830690Y-51261764D01*
X95000000Y-51261764D01*
X95000000Y-47126000D01*
X95020002Y-47057879D01*
X95073658Y-47011386D01*
X95126000Y-47000000D01*
X104465698Y-47000000D01*
X104533819Y-47020002D01*
G37*
%TD.AperFunction*%
%TA.AperFunction,Conductor*%
%TO.N,GND*%
G36*
X47281621Y-55250206D02*
G01*
X47328114Y-55303862D01*
X47339500Y-55356204D01*
X47339500Y-55469885D01*
X47343975Y-55485124D01*
X47345365Y-55486329D01*
X47353048Y-55488000D01*
X48069500Y-55488000D01*
X48137621Y-55508002D01*
X48184114Y-55561658D01*
X48195500Y-55614000D01*
X48195500Y-56300885D01*
X48199975Y-56316124D01*
X48201365Y-56317329D01*
X48209048Y-56319000D01*
X48362520Y-56319000D01*
X48430641Y-56339002D01*
X48477134Y-56392658D01*
X48488520Y-56445000D01*
X48488520Y-56882204D01*
X48468518Y-56950325D01*
X48414862Y-56996818D01*
X48362520Y-57008204D01*
X41584224Y-57008204D01*
X41516103Y-56988202D01*
X41469610Y-56934546D01*
X41458224Y-56882204D01*
X41458224Y-56410701D01*
X41478226Y-56342580D01*
X41531882Y-56296087D01*
X41602156Y-56285983D01*
X41628454Y-56292719D01*
X41674192Y-56309866D01*
X41689434Y-56313490D01*
X41736759Y-56318631D01*
X41743573Y-56319000D01*
X41890385Y-56319000D01*
X41905624Y-56314525D01*
X41906829Y-56313135D01*
X41908500Y-56305452D01*
X41908500Y-56300885D01*
X42162500Y-56300885D01*
X42166975Y-56316124D01*
X42168365Y-56317329D01*
X42176048Y-56319000D01*
X42327427Y-56319000D01*
X42334241Y-56318631D01*
X42381566Y-56313490D01*
X42396811Y-56309865D01*
X42509488Y-56267625D01*
X42525075Y-56259092D01*
X42620510Y-56187566D01*
X42633066Y-56175010D01*
X42665174Y-56132169D01*
X42722034Y-56089655D01*
X42792853Y-56084630D01*
X42855146Y-56118690D01*
X42866826Y-56132169D01*
X42898934Y-56175010D01*
X42911490Y-56187566D01*
X43006925Y-56259092D01*
X43022512Y-56267625D01*
X43135189Y-56309865D01*
X43150434Y-56313490D01*
X43197759Y-56318631D01*
X43204573Y-56319000D01*
X43351385Y-56319000D01*
X43366624Y-56314525D01*
X43367829Y-56313135D01*
X43369500Y-56305452D01*
X43369500Y-56300885D01*
X43623500Y-56300885D01*
X43627975Y-56316124D01*
X43629365Y-56317329D01*
X43637048Y-56319000D01*
X43788427Y-56319000D01*
X43795241Y-56318631D01*
X43842566Y-56313490D01*
X43857811Y-56309865D01*
X43970488Y-56267625D01*
X43986075Y-56259092D01*
X44081510Y-56187566D01*
X44094066Y-56175010D01*
X44165592Y-56079575D01*
X44174125Y-56063988D01*
X44216365Y-55951311D01*
X44219990Y-55936066D01*
X44225131Y-55888741D01*
X44225500Y-55881927D01*
X47339500Y-55881927D01*
X47339869Y-55888741D01*
X47345010Y-55936066D01*
X47348635Y-55951311D01*
X47390875Y-56063988D01*
X47399408Y-56079575D01*
X47470934Y-56175010D01*
X47483490Y-56187566D01*
X47578925Y-56259092D01*
X47594512Y-56267625D01*
X47707189Y-56309865D01*
X47722434Y-56313490D01*
X47769759Y-56318631D01*
X47776573Y-56319000D01*
X47923385Y-56319000D01*
X47938624Y-56314525D01*
X47939829Y-56313135D01*
X47941500Y-56305452D01*
X47941500Y-55760115D01*
X47937025Y-55744876D01*
X47935635Y-55743671D01*
X47927952Y-55742000D01*
X47357615Y-55742000D01*
X47342376Y-55746475D01*
X47341171Y-55747865D01*
X47339500Y-55755548D01*
X47339500Y-55881927D01*
X44225500Y-55881927D01*
X44225500Y-55760115D01*
X44221025Y-55744876D01*
X44219635Y-55743671D01*
X44211952Y-55742000D01*
X43641615Y-55742000D01*
X43626376Y-55746475D01*
X43625171Y-55747865D01*
X43623500Y-55755548D01*
X43623500Y-56300885D01*
X43369500Y-56300885D01*
X43369500Y-55760115D01*
X43365025Y-55744876D01*
X43363635Y-55743671D01*
X43355952Y-55742000D01*
X42767500Y-55742000D01*
X42767500Y-55738491D01*
X42764500Y-55738598D01*
X42764500Y-55742000D01*
X42180615Y-55742000D01*
X42165376Y-55746475D01*
X42164171Y-55747865D01*
X42162500Y-55755548D01*
X42162500Y-56300885D01*
X41908500Y-56300885D01*
X41908500Y-55614000D01*
X41928502Y-55545879D01*
X41982158Y-55499386D01*
X42034500Y-55488000D01*
X42764500Y-55488000D01*
X42764500Y-55491509D01*
X42767500Y-55491402D01*
X42767500Y-55488000D01*
X44207385Y-55488000D01*
X44222624Y-55483525D01*
X44223829Y-55482135D01*
X44225500Y-55474452D01*
X44225500Y-55356204D01*
X44245502Y-55288083D01*
X44299158Y-55241590D01*
X44351500Y-55230204D01*
X47213500Y-55230204D01*
X47281621Y-55250206D01*
G37*
%TD.AperFunction*%
%TD*%
%TA.AperFunction,Conductor*%
%TO.N,/VOUT*%
G36*
X41253600Y-53636002D02*
G01*
X41300093Y-53689658D01*
X41310742Y-53755608D01*
X41306869Y-53791259D01*
X41306500Y-53798073D01*
X41306500Y-53919885D01*
X41310975Y-53935124D01*
X41312365Y-53936329D01*
X41320048Y-53938000D01*
X42036500Y-53938000D01*
X42104621Y-53958002D01*
X42151114Y-54011658D01*
X42162500Y-54064000D01*
X42162500Y-54066000D01*
X42142498Y-54134121D01*
X42088842Y-54180614D01*
X42036500Y-54192000D01*
X41324615Y-54192000D01*
X41309376Y-54196475D01*
X41308171Y-54197865D01*
X41306500Y-54205548D01*
X41306500Y-54331927D01*
X41306869Y-54338741D01*
X41312010Y-54386066D01*
X41315635Y-54401311D01*
X41357875Y-54513988D01*
X41366408Y-54529575D01*
X41443313Y-54632187D01*
X41442243Y-54632989D01*
X41471855Y-54687217D01*
X41466790Y-54758032D01*
X41424243Y-54814868D01*
X41357723Y-54839679D01*
X41348734Y-54840000D01*
X40910500Y-54840000D01*
X40910500Y-60371696D01*
X40890498Y-60439817D01*
X40836842Y-60486310D01*
X40782218Y-60497675D01*
X37062215Y-60430243D01*
X36994469Y-60409010D01*
X36948957Y-60354520D01*
X36938500Y-60304264D01*
X36938500Y-60286360D01*
X36958502Y-60218239D01*
X37012158Y-60171746D01*
X37082432Y-60161642D01*
X37091741Y-60163414D01*
X37139759Y-60168631D01*
X37146573Y-60169000D01*
X37268385Y-60169000D01*
X37283624Y-60164525D01*
X37284829Y-60163135D01*
X37286500Y-60155452D01*
X37286500Y-60150885D01*
X37540500Y-60150885D01*
X37544975Y-60166124D01*
X37546365Y-60167329D01*
X37554048Y-60169000D01*
X37680427Y-60169000D01*
X37687241Y-60168631D01*
X37734566Y-60163490D01*
X37749811Y-60159865D01*
X37862488Y-60117625D01*
X37878075Y-60109092D01*
X37973510Y-60037566D01*
X37986066Y-60025010D01*
X38057592Y-59929575D01*
X38066125Y-59913988D01*
X38108365Y-59801311D01*
X38111990Y-59786066D01*
X38117131Y-59738741D01*
X38117500Y-59731927D01*
X38117500Y-59585115D01*
X38113025Y-59569876D01*
X38111635Y-59568671D01*
X38103952Y-59567000D01*
X37558615Y-59567000D01*
X37543376Y-59571475D01*
X37542171Y-59572865D01*
X37540500Y-59580548D01*
X37540500Y-60150885D01*
X37286500Y-60150885D01*
X37286500Y-58765905D01*
X37300355Y-58718718D01*
X37526911Y-58718718D01*
X37539218Y-58745669D01*
X37540500Y-58763597D01*
X37540500Y-59294885D01*
X37544975Y-59310124D01*
X37546365Y-59311329D01*
X37554048Y-59313000D01*
X38099385Y-59313000D01*
X38114624Y-59308525D01*
X38115829Y-59307135D01*
X38117500Y-59299452D01*
X38117500Y-59148073D01*
X38117131Y-59141259D01*
X38111990Y-59093934D01*
X38108365Y-59078689D01*
X38066125Y-58966012D01*
X38057592Y-58950425D01*
X37986066Y-58854990D01*
X37973510Y-58842434D01*
X37912820Y-58796949D01*
X37870306Y-58740089D01*
X37865281Y-58669271D01*
X37899341Y-58606978D01*
X37913527Y-58594771D01*
X37980582Y-58545244D01*
X37993748Y-58532078D01*
X38063663Y-58437420D01*
X38072384Y-58420951D01*
X38111952Y-58308277D01*
X38115219Y-58293386D01*
X38117221Y-58272201D01*
X38117500Y-58266287D01*
X38117500Y-58085115D01*
X38113025Y-58069876D01*
X38111635Y-58068671D01*
X38103952Y-58067000D01*
X37608615Y-58067000D01*
X37593376Y-58071475D01*
X37592171Y-58072865D01*
X37590500Y-58080548D01*
X37590500Y-58614095D01*
X37570498Y-58682216D01*
X37559722Y-58696610D01*
X37557722Y-58698918D01*
X37526911Y-58718718D01*
X37300355Y-58718718D01*
X37306502Y-58697784D01*
X37317278Y-58683390D01*
X37319278Y-58681082D01*
X37350089Y-58661282D01*
X37337782Y-58634331D01*
X37336500Y-58616403D01*
X37336500Y-57939000D01*
X37356502Y-57870879D01*
X37410158Y-57824386D01*
X37462500Y-57813000D01*
X38099384Y-57813000D01*
X38114623Y-57808525D01*
X38115828Y-57807135D01*
X38117499Y-57799452D01*
X38117499Y-57613717D01*
X38117220Y-57607793D01*
X38115219Y-57586618D01*
X38111951Y-57571720D01*
X38072384Y-57459049D01*
X38063665Y-57442584D01*
X38009920Y-57369819D01*
X37985537Y-57303140D01*
X38001074Y-57233865D01*
X38051597Y-57183986D01*
X38099916Y-57170579D01*
X38099814Y-57169499D01*
X38123978Y-57167216D01*
X38123980Y-57167216D01*
X38131627Y-57166493D01*
X38260576Y-57121209D01*
X38370510Y-57040010D01*
X38451709Y-56930076D01*
X38496993Y-56801127D01*
X38500000Y-56769315D01*
X38499999Y-56110686D01*
X38496993Y-56078873D01*
X38469618Y-56000921D01*
X38462500Y-55959172D01*
X38462500Y-55543999D01*
X38482502Y-55475878D01*
X38536158Y-55429385D01*
X38606432Y-55419281D01*
X38645702Y-55431732D01*
X38652108Y-55434996D01*
X38652112Y-55434997D01*
X38660945Y-55439498D01*
X38755666Y-55454500D01*
X38794500Y-55454500D01*
X38862621Y-55474502D01*
X38909114Y-55528158D01*
X38920500Y-55580500D01*
X38920500Y-55866183D01*
X38900498Y-55934304D01*
X38895849Y-55941045D01*
X38894887Y-55942347D01*
X38894886Y-55942350D01*
X38889291Y-55949924D01*
X38844007Y-56078873D01*
X38841000Y-56110685D01*
X38841001Y-56769314D01*
X38844007Y-56801127D01*
X38889291Y-56930076D01*
X38970490Y-57040010D01*
X39080424Y-57121209D01*
X39209373Y-57166493D01*
X39217015Y-57167215D01*
X39217018Y-57167216D01*
X39231921Y-57168624D01*
X39241185Y-57169500D01*
X39495328Y-57169500D01*
X39749814Y-57169499D01*
X39752762Y-57169220D01*
X39752771Y-57169220D01*
X39773978Y-57167216D01*
X39773980Y-57167216D01*
X39781627Y-57166493D01*
X39910576Y-57121209D01*
X40020510Y-57040010D01*
X40101709Y-56930076D01*
X40146993Y-56801127D01*
X40150000Y-56769315D01*
X40149999Y-56110686D01*
X40146993Y-56078873D01*
X40101709Y-55949924D01*
X40020510Y-55839990D01*
X39910576Y-55758791D01*
X39855809Y-55739558D01*
X39788878Y-55716053D01*
X39788875Y-55716052D01*
X39781627Y-55713507D01*
X39777254Y-55713094D01*
X39716246Y-55679640D01*
X39682332Y-55617267D01*
X39679500Y-55590703D01*
X39679500Y-55580500D01*
X39699502Y-55512379D01*
X39753158Y-55465886D01*
X39805500Y-55454500D01*
X39844334Y-55454500D01*
X39939055Y-55439498D01*
X40053223Y-55381326D01*
X40143826Y-55290723D01*
X40201998Y-55176555D01*
X40217000Y-55081834D01*
X40217000Y-54718166D01*
X40201998Y-54623445D01*
X40143826Y-54509277D01*
X40136811Y-54502262D01*
X40134175Y-54498634D01*
X40110315Y-54431767D01*
X40126393Y-54362615D01*
X40134174Y-54350508D01*
X40147918Y-54331592D01*
X40197015Y-54235232D01*
X40203067Y-54216608D01*
X40215725Y-54136685D01*
X40216500Y-54126842D01*
X40216500Y-54095115D01*
X40212025Y-54079876D01*
X40210635Y-54078671D01*
X40202952Y-54077000D01*
X39299000Y-54077000D01*
X39230879Y-54056998D01*
X39184386Y-54003342D01*
X39173000Y-53951000D01*
X39173000Y-53949000D01*
X39193002Y-53880879D01*
X39246658Y-53834386D01*
X39299000Y-53823000D01*
X40198384Y-53823000D01*
X40213623Y-53818525D01*
X40214828Y-53817135D01*
X40216499Y-53809452D01*
X40216499Y-53773160D01*
X40215724Y-53763309D01*
X40215471Y-53761713D01*
X40215550Y-53761101D01*
X40215336Y-53758381D01*
X40215907Y-53758336D01*
X40224569Y-53691302D01*
X40270289Y-53636987D01*
X40339919Y-53616000D01*
X41185479Y-53616000D01*
X41253600Y-53636002D01*
G37*
%TD.AperFunction*%
%TD*%
%TA.AperFunction,Conductor*%
%TO.N,/VIN*%
G36*
X38814136Y-48632002D02*
G01*
X38860629Y-48685658D01*
X38870733Y-48755932D01*
X38841239Y-48820512D01*
X38835110Y-48827095D01*
X38822072Y-48840133D01*
X38746254Y-48941296D01*
X38737722Y-48956882D01*
X38692967Y-49076265D01*
X38689342Y-49091510D01*
X38683869Y-49141892D01*
X38683500Y-49148706D01*
X38683500Y-50122885D01*
X38687975Y-50138124D01*
X38689365Y-50139329D01*
X38697048Y-50141000D01*
X40423384Y-50141000D01*
X40438623Y-50136525D01*
X40439828Y-50135135D01*
X40441499Y-50127452D01*
X40441499Y-49148708D01*
X40441130Y-49141890D01*
X40435659Y-49091518D01*
X40432030Y-49076259D01*
X40387278Y-48956882D01*
X40378746Y-48941296D01*
X40302928Y-48840133D01*
X40289890Y-48827095D01*
X40255864Y-48764783D01*
X40260929Y-48693968D01*
X40303476Y-48637132D01*
X40369996Y-48612321D01*
X40378985Y-48612000D01*
X40576500Y-48612000D01*
X40644621Y-48632002D01*
X40691114Y-48685658D01*
X40702500Y-48738000D01*
X40702500Y-53190000D01*
X40682498Y-53258121D01*
X40628842Y-53304614D01*
X40576500Y-53316000D01*
X40341854Y-53316000D01*
X40273733Y-53295998D01*
X40227240Y-53242342D01*
X40216541Y-53181795D01*
X40216500Y-53181795D01*
X40216500Y-53181564D01*
X40216243Y-53180110D01*
X40216500Y-53176846D01*
X40216500Y-53145115D01*
X40212025Y-53129876D01*
X40210635Y-53128671D01*
X40202952Y-53127000D01*
X39299000Y-53127000D01*
X39230879Y-53106998D01*
X39184386Y-53053342D01*
X39173000Y-53001000D01*
X39173000Y-52854885D01*
X39427000Y-52854885D01*
X39431475Y-52870124D01*
X39432865Y-52871329D01*
X39440548Y-52873000D01*
X40198384Y-52873000D01*
X40213623Y-52868525D01*
X40214828Y-52867135D01*
X40216499Y-52859452D01*
X40216499Y-52823160D01*
X40215724Y-52813313D01*
X40203067Y-52733393D01*
X40197015Y-52714767D01*
X40147917Y-52618407D01*
X40136406Y-52602564D01*
X40059936Y-52526094D01*
X40044093Y-52514583D01*
X39947732Y-52465485D01*
X39929108Y-52459433D01*
X39849185Y-52446775D01*
X39839342Y-52446000D01*
X39445115Y-52446000D01*
X39429876Y-52450475D01*
X39428671Y-52451865D01*
X39427000Y-52459548D01*
X39427000Y-52854885D01*
X39173000Y-52854885D01*
X39173000Y-52464116D01*
X39168525Y-52448877D01*
X39167135Y-52447672D01*
X39159452Y-52446001D01*
X38760660Y-52446001D01*
X38750813Y-52446776D01*
X38670893Y-52459433D01*
X38652267Y-52465485D01*
X38599703Y-52492268D01*
X38529926Y-52505372D01*
X38464142Y-52478672D01*
X38423235Y-52420645D01*
X38416500Y-52380001D01*
X38416500Y-51387292D01*
X38683501Y-51387292D01*
X38683870Y-51394110D01*
X38689341Y-51444482D01*
X38692970Y-51459741D01*
X38737722Y-51579118D01*
X38746254Y-51594704D01*
X38822072Y-51695867D01*
X38834633Y-51708428D01*
X38935796Y-51784246D01*
X38951382Y-51792778D01*
X39070765Y-51837533D01*
X39086010Y-51841158D01*
X39136392Y-51846631D01*
X39143206Y-51847000D01*
X39417385Y-51847000D01*
X39432624Y-51842525D01*
X39433829Y-51841135D01*
X39435500Y-51833452D01*
X39435500Y-51828884D01*
X39689500Y-51828884D01*
X39693975Y-51844123D01*
X39695365Y-51845328D01*
X39703048Y-51846999D01*
X39981792Y-51846999D01*
X39988610Y-51846630D01*
X40038982Y-51841159D01*
X40054241Y-51837530D01*
X40173618Y-51792778D01*
X40189204Y-51784246D01*
X40290367Y-51708428D01*
X40302928Y-51695867D01*
X40378746Y-51594704D01*
X40387278Y-51579118D01*
X40432033Y-51459735D01*
X40435658Y-51444490D01*
X40441131Y-51394108D01*
X40441500Y-51387294D01*
X40441500Y-50413115D01*
X40437025Y-50397876D01*
X40435635Y-50396671D01*
X40427952Y-50395000D01*
X39707615Y-50395000D01*
X39692376Y-50399475D01*
X39691171Y-50400865D01*
X39689500Y-50408548D01*
X39689500Y-51828884D01*
X39435500Y-51828884D01*
X39435500Y-50413115D01*
X39431025Y-50397876D01*
X39429635Y-50396671D01*
X39421952Y-50395000D01*
X38701616Y-50395000D01*
X38686377Y-50399475D01*
X38685172Y-50400865D01*
X38683501Y-50408548D01*
X38683501Y-51387292D01*
X38416500Y-51387292D01*
X38416500Y-48738000D01*
X38436502Y-48669879D01*
X38490158Y-48623386D01*
X38542500Y-48612000D01*
X38746015Y-48612000D01*
X38814136Y-48632002D01*
G37*
%TD.AperFunction*%
%TD*%
%TA.AperFunction,Conductor*%
%TO.N,GND*%
G36*
X61131691Y-87748907D02*
G01*
X61167655Y-87798407D01*
X61172500Y-87829000D01*
X61172500Y-91445413D01*
X61170996Y-91462603D01*
X61164402Y-91500000D01*
X61184641Y-91614781D01*
X61188971Y-91622280D01*
X61188971Y-91622281D01*
X61198292Y-91638425D01*
X61242917Y-91715718D01*
X61332201Y-91790636D01*
X61340340Y-91793598D01*
X61340341Y-91793599D01*
X61433583Y-91827537D01*
X61441724Y-91830500D01*
X61558276Y-91830500D01*
X61566417Y-91827537D01*
X61659659Y-91793599D01*
X61659660Y-91793598D01*
X61667799Y-91790636D01*
X61757083Y-91715718D01*
X61801708Y-91638425D01*
X61811029Y-91622281D01*
X61811029Y-91622280D01*
X61815359Y-91614781D01*
X61835300Y-91501691D01*
X62066525Y-91501691D01*
X62080667Y-91609834D01*
X62084420Y-91623277D01*
X62124209Y-91713703D01*
X62131096Y-91721419D01*
X62142630Y-91715949D01*
X62347493Y-91511086D01*
X62352735Y-91500797D01*
X62646453Y-91500797D01*
X62647249Y-91505828D01*
X62856963Y-91715542D01*
X62866787Y-91720548D01*
X62875108Y-91712058D01*
X62911852Y-91636216D01*
X62954239Y-91592092D01*
X63014466Y-91581309D01*
X63069530Y-91607986D01*
X63091562Y-91639508D01*
X63124210Y-91713704D01*
X63131096Y-91721419D01*
X63142630Y-91715949D01*
X63347493Y-91511086D01*
X63352735Y-91500797D01*
X63646453Y-91500797D01*
X63647249Y-91505828D01*
X63856963Y-91715542D01*
X63866787Y-91720548D01*
X63875108Y-91712058D01*
X63911852Y-91636216D01*
X63954239Y-91592092D01*
X64014466Y-91581309D01*
X64069530Y-91607986D01*
X64091562Y-91639508D01*
X64124210Y-91713704D01*
X64131096Y-91721419D01*
X64142630Y-91715949D01*
X64347493Y-91511086D01*
X64352735Y-91500797D01*
X64646453Y-91500797D01*
X64647249Y-91505828D01*
X64856963Y-91715542D01*
X64866787Y-91720548D01*
X64875108Y-91712058D01*
X64911852Y-91636216D01*
X64954239Y-91592092D01*
X65014466Y-91581309D01*
X65069530Y-91607986D01*
X65091562Y-91639508D01*
X65124210Y-91713704D01*
X65131096Y-91721419D01*
X65142630Y-91715949D01*
X65347493Y-91511086D01*
X65352735Y-91500797D01*
X65646453Y-91500797D01*
X65647249Y-91505828D01*
X65856963Y-91715542D01*
X65866787Y-91720548D01*
X65875108Y-91712058D01*
X65911852Y-91636216D01*
X65954239Y-91592092D01*
X66014466Y-91581309D01*
X66069530Y-91607986D01*
X66091562Y-91639508D01*
X66124210Y-91713704D01*
X66131096Y-91721419D01*
X66142630Y-91715949D01*
X66347493Y-91511086D01*
X66352735Y-91500797D01*
X66646453Y-91500797D01*
X66647249Y-91505828D01*
X66856963Y-91715542D01*
X66866787Y-91720548D01*
X66875108Y-91712058D01*
X66910782Y-91638425D01*
X66915027Y-91625126D01*
X66933658Y-91514385D01*
X66934339Y-91506793D01*
X66934375Y-91503825D01*
X66933879Y-91496209D01*
X66917961Y-91385055D01*
X66914042Y-91371651D01*
X66875438Y-91286748D01*
X66868301Y-91278945D01*
X66857060Y-91284361D01*
X66652507Y-91488914D01*
X66646453Y-91500797D01*
X66352735Y-91500797D01*
X66353547Y-91499203D01*
X66352751Y-91494172D01*
X66142614Y-91284035D01*
X66132990Y-91279131D01*
X66124515Y-91287885D01*
X66089297Y-91362895D01*
X66047452Y-91407534D01*
X65987360Y-91419051D01*
X65931976Y-91393048D01*
X65909561Y-91361797D01*
X65875438Y-91286748D01*
X65868301Y-91278945D01*
X65857060Y-91284361D01*
X65652507Y-91488914D01*
X65646453Y-91500797D01*
X65352735Y-91500797D01*
X65353547Y-91499203D01*
X65352751Y-91494172D01*
X65142614Y-91284035D01*
X65132990Y-91279131D01*
X65124515Y-91287885D01*
X65089297Y-91362895D01*
X65047452Y-91407534D01*
X64987360Y-91419051D01*
X64931976Y-91393048D01*
X64909561Y-91361797D01*
X64875438Y-91286748D01*
X64868301Y-91278945D01*
X64857060Y-91284361D01*
X64652507Y-91488914D01*
X64646453Y-91500797D01*
X64352735Y-91500797D01*
X64353547Y-91499203D01*
X64352751Y-91494172D01*
X64142614Y-91284035D01*
X64132990Y-91279131D01*
X64124515Y-91287885D01*
X64089297Y-91362895D01*
X64047452Y-91407534D01*
X63987360Y-91419051D01*
X63931976Y-91393048D01*
X63909561Y-91361797D01*
X63875438Y-91286748D01*
X63868301Y-91278945D01*
X63857060Y-91284361D01*
X63652507Y-91488914D01*
X63646453Y-91500797D01*
X63352735Y-91500797D01*
X63353547Y-91499203D01*
X63352751Y-91494172D01*
X63142614Y-91284035D01*
X63132990Y-91279131D01*
X63124515Y-91287885D01*
X63089297Y-91362895D01*
X63047452Y-91407534D01*
X62987360Y-91419051D01*
X62931976Y-91393048D01*
X62909561Y-91361797D01*
X62875438Y-91286748D01*
X62868301Y-91278945D01*
X62857060Y-91284361D01*
X62652507Y-91488914D01*
X62646453Y-91500797D01*
X62352735Y-91500797D01*
X62353547Y-91499203D01*
X62352751Y-91494172D01*
X62142614Y-91284035D01*
X62132990Y-91279131D01*
X62124517Y-91287883D01*
X62087557Y-91366604D01*
X62083475Y-91379957D01*
X62066696Y-91487719D01*
X62066525Y-91501691D01*
X61835300Y-91501691D01*
X61835598Y-91500000D01*
X61829004Y-91462603D01*
X61827500Y-91445413D01*
X61827500Y-91135112D01*
X62279923Y-91135112D01*
X62284391Y-91142970D01*
X62488914Y-91347493D01*
X62500797Y-91353547D01*
X62505828Y-91352751D01*
X62714041Y-91144538D01*
X62718844Y-91135112D01*
X63279923Y-91135112D01*
X63284391Y-91142970D01*
X63488914Y-91347493D01*
X63500797Y-91353547D01*
X63505828Y-91352751D01*
X63714041Y-91144538D01*
X63718844Y-91135112D01*
X64279923Y-91135112D01*
X64284391Y-91142970D01*
X64488914Y-91347493D01*
X64500797Y-91353547D01*
X64505828Y-91352751D01*
X64714041Y-91144538D01*
X64718844Y-91135112D01*
X65279923Y-91135112D01*
X65284391Y-91142970D01*
X65488914Y-91347493D01*
X65500797Y-91353547D01*
X65505828Y-91352751D01*
X65714041Y-91144538D01*
X65718844Y-91135112D01*
X66279923Y-91135112D01*
X66284391Y-91142970D01*
X66488914Y-91347493D01*
X66500797Y-91353547D01*
X66505828Y-91352751D01*
X66714041Y-91144538D01*
X66720008Y-91132827D01*
X66714170Y-91126350D01*
X66688141Y-91109479D01*
X66675457Y-91103619D01*
X66570973Y-91072372D01*
X66557155Y-91070307D01*
X66448093Y-91069640D01*
X66434264Y-91071534D01*
X66329392Y-91101507D01*
X66316648Y-91107208D01*
X66288205Y-91125154D01*
X66279923Y-91135112D01*
X65718844Y-91135112D01*
X65720008Y-91132827D01*
X65714170Y-91126350D01*
X65688141Y-91109479D01*
X65675457Y-91103619D01*
X65570973Y-91072372D01*
X65557155Y-91070307D01*
X65448093Y-91069640D01*
X65434264Y-91071534D01*
X65329392Y-91101507D01*
X65316648Y-91107208D01*
X65288205Y-91125154D01*
X65279923Y-91135112D01*
X64718844Y-91135112D01*
X64720008Y-91132827D01*
X64714170Y-91126350D01*
X64688141Y-91109479D01*
X64675457Y-91103619D01*
X64570973Y-91072372D01*
X64557155Y-91070307D01*
X64448093Y-91069640D01*
X64434264Y-91071534D01*
X64329392Y-91101507D01*
X64316648Y-91107208D01*
X64288205Y-91125154D01*
X64279923Y-91135112D01*
X63718844Y-91135112D01*
X63720008Y-91132827D01*
X63714170Y-91126350D01*
X63688141Y-91109479D01*
X63675457Y-91103619D01*
X63570973Y-91072372D01*
X63557155Y-91070307D01*
X63448093Y-91069640D01*
X63434264Y-91071534D01*
X63329392Y-91101507D01*
X63316648Y-91107208D01*
X63288205Y-91125154D01*
X63279923Y-91135112D01*
X62718844Y-91135112D01*
X62720008Y-91132827D01*
X62714170Y-91126350D01*
X62688141Y-91109479D01*
X62675457Y-91103619D01*
X62570973Y-91072372D01*
X62557155Y-91070307D01*
X62448093Y-91069640D01*
X62434264Y-91071534D01*
X62329392Y-91101507D01*
X62316648Y-91107208D01*
X62288205Y-91125154D01*
X62279923Y-91135112D01*
X61827500Y-91135112D01*
X61827500Y-88029663D01*
X61846407Y-87971472D01*
X61895907Y-87935508D01*
X61957093Y-87935508D01*
X61996504Y-87959659D01*
X62255259Y-88218414D01*
X62261094Y-88224782D01*
X62280672Y-88248115D01*
X62280674Y-88248117D01*
X62286240Y-88254750D01*
X62293742Y-88259081D01*
X62293744Y-88259083D01*
X62320121Y-88274312D01*
X62327405Y-88278952D01*
X62352358Y-88296425D01*
X62352361Y-88296426D01*
X62359457Y-88301395D01*
X62367828Y-88303638D01*
X62373197Y-88306141D01*
X62378760Y-88308166D01*
X62386261Y-88312497D01*
X62409419Y-88316581D01*
X62424790Y-88319291D01*
X62433222Y-88321160D01*
X62471016Y-88331287D01*
X62509993Y-88327877D01*
X62518621Y-88327500D01*
X66823338Y-88327500D01*
X66881529Y-88346407D01*
X66893342Y-88356496D01*
X68143504Y-89606659D01*
X68171281Y-89661176D01*
X68172500Y-89676663D01*
X68172500Y-95323337D01*
X68153593Y-95381528D01*
X68143504Y-95393341D01*
X67393342Y-96143504D01*
X67338825Y-96171281D01*
X67323338Y-96172500D01*
X66575289Y-96172500D01*
X66563743Y-96171490D01*
X66558276Y-96169500D01*
X66441724Y-96169500D01*
X66433584Y-96172463D01*
X66433583Y-96172463D01*
X66406046Y-96182486D01*
X66399960Y-96184117D01*
X66394786Y-96186000D01*
X66386261Y-96187503D01*
X66378761Y-96191833D01*
X66373598Y-96193712D01*
X66367885Y-96196375D01*
X66332201Y-96209364D01*
X66325566Y-96214931D01*
X66325565Y-96214932D01*
X66303110Y-96233773D01*
X66297954Y-96237384D01*
X66293740Y-96240920D01*
X66286240Y-96245250D01*
X66280675Y-96251883D01*
X66276461Y-96255418D01*
X66272004Y-96259875D01*
X66242917Y-96284282D01*
X66238588Y-96291779D01*
X66238588Y-96291780D01*
X66223931Y-96317168D01*
X66220326Y-96322316D01*
X66217571Y-96327087D01*
X66212002Y-96333724D01*
X66209039Y-96341866D01*
X66206282Y-96346641D01*
X66203629Y-96352330D01*
X66188971Y-96377718D01*
X66188970Y-96377722D01*
X66184641Y-96385219D01*
X66180706Y-96407534D01*
X66178047Y-96422614D01*
X66176416Y-96428700D01*
X66175461Y-96434118D01*
X66172500Y-96442253D01*
X66172500Y-96450913D01*
X66171545Y-96456330D01*
X66170996Y-96462603D01*
X66164402Y-96500000D01*
X66165906Y-96508530D01*
X66170996Y-96537396D01*
X66171545Y-96543670D01*
X66172500Y-96549087D01*
X66172500Y-96557747D01*
X66175461Y-96565882D01*
X66176416Y-96571300D01*
X66178047Y-96577386D01*
X66184641Y-96614781D01*
X66188970Y-96622278D01*
X66188971Y-96622282D01*
X66203629Y-96647670D01*
X66206282Y-96653359D01*
X66209039Y-96658134D01*
X66212002Y-96666276D01*
X66217571Y-96672913D01*
X66220326Y-96677684D01*
X66223930Y-96682830D01*
X66242917Y-96715718D01*
X66249765Y-96721464D01*
X66272004Y-96740125D01*
X66276461Y-96744582D01*
X66280675Y-96748117D01*
X66286240Y-96754750D01*
X66293740Y-96759080D01*
X66297954Y-96762616D01*
X66303110Y-96766227D01*
X66318281Y-96778956D01*
X66332201Y-96790636D01*
X66348109Y-96796426D01*
X66367884Y-96803624D01*
X66373598Y-96806288D01*
X66378761Y-96808167D01*
X66386261Y-96812497D01*
X66394786Y-96814000D01*
X66399960Y-96815883D01*
X66406046Y-96817514D01*
X66433583Y-96827537D01*
X66433584Y-96827537D01*
X66441724Y-96830500D01*
X66558276Y-96830500D01*
X66563743Y-96828510D01*
X66575289Y-96827500D01*
X67481383Y-96827500D01*
X67490011Y-96827877D01*
X67528984Y-96831287D01*
X67566781Y-96821159D01*
X67575210Y-96819291D01*
X67605211Y-96814001D01*
X67605212Y-96814001D01*
X67613739Y-96812497D01*
X67621237Y-96808168D01*
X67626798Y-96806144D01*
X67632177Y-96803636D01*
X67640543Y-96801394D01*
X67647636Y-96796428D01*
X67647639Y-96796426D01*
X67672587Y-96778956D01*
X67679874Y-96774314D01*
X67706261Y-96759080D01*
X67706263Y-96759078D01*
X67713760Y-96754750D01*
X67738911Y-96724776D01*
X67744746Y-96718408D01*
X68718414Y-95744741D01*
X68724782Y-95738906D01*
X68748115Y-95719328D01*
X68748117Y-95719326D01*
X68754750Y-95713760D01*
X68774312Y-95679879D01*
X68778952Y-95672595D01*
X68796425Y-95647642D01*
X68796426Y-95647639D01*
X68801395Y-95640543D01*
X68803638Y-95632172D01*
X68806141Y-95626803D01*
X68808166Y-95621240D01*
X68812497Y-95613739D01*
X68816581Y-95590581D01*
X68819291Y-95575210D01*
X68821160Y-95566780D01*
X68829046Y-95537348D01*
X68831287Y-95528984D01*
X68827877Y-95490007D01*
X68827500Y-95481379D01*
X68827500Y-89518608D01*
X68827877Y-89509980D01*
X68830531Y-89479643D01*
X68831286Y-89471015D01*
X68821162Y-89433233D01*
X68819292Y-89424799D01*
X68814001Y-89394791D01*
X68812497Y-89386261D01*
X68808167Y-89378760D01*
X68806141Y-89373194D01*
X68803636Y-89367822D01*
X68801394Y-89359457D01*
X68778958Y-89327415D01*
X68774318Y-89320131D01*
X68759082Y-89293741D01*
X68759078Y-89293736D01*
X68754750Y-89286240D01*
X68724782Y-89261094D01*
X68718414Y-89255259D01*
X67362158Y-87899004D01*
X67334381Y-87844487D01*
X67343952Y-87784055D01*
X67387217Y-87740790D01*
X67432162Y-87730000D01*
X70601000Y-87730000D01*
X70659191Y-87748907D01*
X70695155Y-87798407D01*
X70700000Y-87829000D01*
X70700000Y-100331000D01*
X70681093Y-100389191D01*
X70631593Y-100425155D01*
X70601000Y-100430000D01*
X56829000Y-100430000D01*
X56770809Y-100411093D01*
X56734845Y-100361593D01*
X56730000Y-100331000D01*
X56730000Y-96867459D01*
X61279790Y-96867459D01*
X61285368Y-96873726D01*
X61307106Y-96888195D01*
X61319708Y-96894206D01*
X61423814Y-96926731D01*
X61437597Y-96928963D01*
X61546642Y-96930962D01*
X61560500Y-96929236D01*
X61665726Y-96900548D01*
X61678539Y-96895003D01*
X61711672Y-96874660D01*
X61717811Y-96867459D01*
X62279790Y-96867459D01*
X62285368Y-96873726D01*
X62307106Y-96888195D01*
X62319708Y-96894206D01*
X62423814Y-96926731D01*
X62437597Y-96928963D01*
X62546642Y-96930962D01*
X62560500Y-96929236D01*
X62665726Y-96900548D01*
X62678539Y-96895003D01*
X62711672Y-96874660D01*
X62717811Y-96867459D01*
X63279790Y-96867459D01*
X63285368Y-96873726D01*
X63307106Y-96888195D01*
X63319708Y-96894206D01*
X63423814Y-96926731D01*
X63437597Y-96928963D01*
X63546642Y-96930962D01*
X63560500Y-96929236D01*
X63665726Y-96900548D01*
X63678539Y-96895003D01*
X63711672Y-96874660D01*
X63717811Y-96867459D01*
X64279790Y-96867459D01*
X64285368Y-96873726D01*
X64307106Y-96888195D01*
X64319708Y-96894206D01*
X64423814Y-96926731D01*
X64437597Y-96928963D01*
X64546642Y-96930962D01*
X64560500Y-96929236D01*
X64665726Y-96900548D01*
X64678539Y-96895003D01*
X64711672Y-96874660D01*
X64717811Y-96867459D01*
X65279790Y-96867459D01*
X65285368Y-96873726D01*
X65307106Y-96888195D01*
X65319708Y-96894206D01*
X65423814Y-96926731D01*
X65437597Y-96928963D01*
X65546642Y-96930962D01*
X65560500Y-96929236D01*
X65665726Y-96900548D01*
X65678539Y-96895003D01*
X65711672Y-96874660D01*
X65719946Y-96864954D01*
X65715370Y-96856791D01*
X65511086Y-96652507D01*
X65499203Y-96646453D01*
X65494172Y-96647249D01*
X65285844Y-96855577D01*
X65279790Y-96867459D01*
X64717811Y-96867459D01*
X64719946Y-96864954D01*
X64715370Y-96856791D01*
X64511086Y-96652507D01*
X64499203Y-96646453D01*
X64494172Y-96647249D01*
X64285844Y-96855577D01*
X64279790Y-96867459D01*
X63717811Y-96867459D01*
X63719946Y-96864954D01*
X63715370Y-96856791D01*
X63511086Y-96652507D01*
X63499203Y-96646453D01*
X63494172Y-96647249D01*
X63285844Y-96855577D01*
X63279790Y-96867459D01*
X62717811Y-96867459D01*
X62719946Y-96864954D01*
X62715370Y-96856791D01*
X62511086Y-96652507D01*
X62499203Y-96646453D01*
X62494172Y-96647249D01*
X62285844Y-96855577D01*
X62279790Y-96867459D01*
X61717811Y-96867459D01*
X61719946Y-96864954D01*
X61715370Y-96856791D01*
X61511086Y-96652507D01*
X61499203Y-96646453D01*
X61494172Y-96647249D01*
X61285844Y-96855577D01*
X61279790Y-96867459D01*
X56730000Y-96867459D01*
X56730000Y-96501691D01*
X61066525Y-96501691D01*
X61080667Y-96609834D01*
X61084420Y-96623277D01*
X61124209Y-96713703D01*
X61131096Y-96721419D01*
X61142630Y-96715949D01*
X61347493Y-96511086D01*
X61352735Y-96500797D01*
X61646453Y-96500797D01*
X61647249Y-96505828D01*
X61856963Y-96715542D01*
X61866787Y-96720548D01*
X61875108Y-96712058D01*
X61911852Y-96636216D01*
X61954239Y-96592092D01*
X62014466Y-96581309D01*
X62069530Y-96607986D01*
X62091562Y-96639508D01*
X62124210Y-96713704D01*
X62131096Y-96721419D01*
X62142630Y-96715949D01*
X62347493Y-96511086D01*
X62352735Y-96500797D01*
X62646453Y-96500797D01*
X62647249Y-96505828D01*
X62856963Y-96715542D01*
X62866787Y-96720548D01*
X62875108Y-96712058D01*
X62911852Y-96636216D01*
X62954239Y-96592092D01*
X63014466Y-96581309D01*
X63069530Y-96607986D01*
X63091562Y-96639508D01*
X63124210Y-96713704D01*
X63131096Y-96721419D01*
X63142630Y-96715949D01*
X63347493Y-96511086D01*
X63352735Y-96500797D01*
X63646453Y-96500797D01*
X63647249Y-96505828D01*
X63856963Y-96715542D01*
X63866787Y-96720548D01*
X63875108Y-96712058D01*
X63911852Y-96636216D01*
X63954239Y-96592092D01*
X64014466Y-96581309D01*
X64069530Y-96607986D01*
X64091562Y-96639508D01*
X64124210Y-96713704D01*
X64131096Y-96721419D01*
X64142630Y-96715949D01*
X64347493Y-96511086D01*
X64352735Y-96500797D01*
X64646453Y-96500797D01*
X64647249Y-96505828D01*
X64856963Y-96715542D01*
X64866787Y-96720548D01*
X64875108Y-96712058D01*
X64911852Y-96636216D01*
X64954239Y-96592092D01*
X65014466Y-96581309D01*
X65069530Y-96607986D01*
X65091562Y-96639508D01*
X65124210Y-96713704D01*
X65131096Y-96721419D01*
X65142630Y-96715949D01*
X65347493Y-96511086D01*
X65352735Y-96500797D01*
X65646453Y-96500797D01*
X65647249Y-96505828D01*
X65856963Y-96715542D01*
X65866787Y-96720548D01*
X65875108Y-96712058D01*
X65910782Y-96638425D01*
X65915027Y-96625126D01*
X65933658Y-96514385D01*
X65934339Y-96506793D01*
X65934375Y-96503825D01*
X65933879Y-96496209D01*
X65917961Y-96385055D01*
X65914042Y-96371651D01*
X65875438Y-96286748D01*
X65868301Y-96278945D01*
X65857060Y-96284361D01*
X65652507Y-96488914D01*
X65646453Y-96500797D01*
X65352735Y-96500797D01*
X65353547Y-96499203D01*
X65352751Y-96494172D01*
X65142614Y-96284035D01*
X65132990Y-96279131D01*
X65124515Y-96287885D01*
X65089297Y-96362895D01*
X65047452Y-96407534D01*
X64987360Y-96419051D01*
X64931976Y-96393048D01*
X64909561Y-96361797D01*
X64875438Y-96286748D01*
X64868301Y-96278945D01*
X64857060Y-96284361D01*
X64652507Y-96488914D01*
X64646453Y-96500797D01*
X64352735Y-96500797D01*
X64353547Y-96499203D01*
X64352751Y-96494172D01*
X64142614Y-96284035D01*
X64132990Y-96279131D01*
X64124515Y-96287885D01*
X64089297Y-96362895D01*
X64047452Y-96407534D01*
X63987360Y-96419051D01*
X63931976Y-96393048D01*
X63909561Y-96361797D01*
X63875438Y-96286748D01*
X63868301Y-96278945D01*
X63857060Y-96284361D01*
X63652507Y-96488914D01*
X63646453Y-96500797D01*
X63352735Y-96500797D01*
X63353547Y-96499203D01*
X63352751Y-96494172D01*
X63142614Y-96284035D01*
X63132990Y-96279131D01*
X63124515Y-96287885D01*
X63089297Y-96362895D01*
X63047452Y-96407534D01*
X62987360Y-96419051D01*
X62931976Y-96393048D01*
X62909561Y-96361797D01*
X62875438Y-96286748D01*
X62868301Y-96278945D01*
X62857060Y-96284361D01*
X62652507Y-96488914D01*
X62646453Y-96500797D01*
X62352735Y-96500797D01*
X62353547Y-96499203D01*
X62352751Y-96494172D01*
X62142614Y-96284035D01*
X62132990Y-96279131D01*
X62124515Y-96287885D01*
X62089297Y-96362895D01*
X62047452Y-96407534D01*
X61987360Y-96419051D01*
X61931976Y-96393048D01*
X61909561Y-96361797D01*
X61875438Y-96286748D01*
X61868301Y-96278945D01*
X61857060Y-96284361D01*
X61652507Y-96488914D01*
X61646453Y-96500797D01*
X61352735Y-96500797D01*
X61353547Y-96499203D01*
X61352751Y-96494172D01*
X61142614Y-96284035D01*
X61132990Y-96279131D01*
X61124517Y-96287883D01*
X61087557Y-96366604D01*
X61083475Y-96379957D01*
X61066696Y-96487719D01*
X61066525Y-96501691D01*
X56730000Y-96501691D01*
X56730000Y-95867459D01*
X61279790Y-95867459D01*
X61285368Y-95873726D01*
X61307106Y-95888195D01*
X61319709Y-95894207D01*
X61354888Y-95905197D01*
X61404793Y-95940597D01*
X61424360Y-95998569D01*
X61406114Y-96056971D01*
X61352573Y-96094881D01*
X61329396Y-96101506D01*
X61316648Y-96107208D01*
X61288205Y-96125154D01*
X61279923Y-96135112D01*
X61284391Y-96142970D01*
X61488914Y-96347493D01*
X61500797Y-96353547D01*
X61505828Y-96352751D01*
X61714041Y-96144538D01*
X61720008Y-96132827D01*
X61714170Y-96126350D01*
X61688141Y-96109479D01*
X61675462Y-96103621D01*
X61647480Y-96095253D01*
X61597146Y-96060466D01*
X61576873Y-96002737D01*
X61594403Y-95944116D01*
X61643041Y-95906996D01*
X61649803Y-95904890D01*
X61665722Y-95900550D01*
X61678539Y-95895003D01*
X61711672Y-95874660D01*
X61717811Y-95867459D01*
X62279790Y-95867459D01*
X62285368Y-95873726D01*
X62307106Y-95888195D01*
X62319709Y-95894207D01*
X62354888Y-95905197D01*
X62404793Y-95940597D01*
X62424360Y-95998569D01*
X62406114Y-96056971D01*
X62352573Y-96094881D01*
X62329396Y-96101506D01*
X62316648Y-96107208D01*
X62288205Y-96125154D01*
X62279923Y-96135112D01*
X62284391Y-96142970D01*
X62488914Y-96347493D01*
X62500797Y-96353547D01*
X62505828Y-96352751D01*
X62714041Y-96144538D01*
X62720008Y-96132827D01*
X62714170Y-96126350D01*
X62688141Y-96109479D01*
X62675462Y-96103621D01*
X62647480Y-96095253D01*
X62597146Y-96060466D01*
X62576873Y-96002737D01*
X62594403Y-95944116D01*
X62643041Y-95906996D01*
X62649803Y-95904890D01*
X62665722Y-95900550D01*
X62678539Y-95895003D01*
X62711672Y-95874660D01*
X62717811Y-95867459D01*
X63279790Y-95867459D01*
X63285368Y-95873726D01*
X63307106Y-95888195D01*
X63319709Y-95894207D01*
X63354888Y-95905197D01*
X63404793Y-95940597D01*
X63424360Y-95998569D01*
X63406114Y-96056971D01*
X63352573Y-96094881D01*
X63329396Y-96101506D01*
X63316648Y-96107208D01*
X63288205Y-96125154D01*
X63279923Y-96135112D01*
X63284391Y-96142970D01*
X63488914Y-96347493D01*
X63500797Y-96353547D01*
X63505828Y-96352751D01*
X63714041Y-96144538D01*
X63720008Y-96132827D01*
X63714170Y-96126350D01*
X63688141Y-96109479D01*
X63675462Y-96103621D01*
X63647480Y-96095253D01*
X63597146Y-96060466D01*
X63576873Y-96002737D01*
X63594403Y-95944116D01*
X63643041Y-95906996D01*
X63649803Y-95904890D01*
X63665722Y-95900550D01*
X63678539Y-95895003D01*
X63711672Y-95874660D01*
X63717811Y-95867459D01*
X64279790Y-95867459D01*
X64285368Y-95873726D01*
X64307106Y-95888195D01*
X64319709Y-95894207D01*
X64354888Y-95905197D01*
X64404793Y-95940597D01*
X64424360Y-95998569D01*
X64406114Y-96056971D01*
X64352573Y-96094881D01*
X64329396Y-96101506D01*
X64316648Y-96107208D01*
X64288205Y-96125154D01*
X64279923Y-96135112D01*
X64284391Y-96142970D01*
X64488914Y-96347493D01*
X64500797Y-96353547D01*
X64505828Y-96352751D01*
X64714041Y-96144538D01*
X64720008Y-96132827D01*
X64714170Y-96126350D01*
X64688141Y-96109479D01*
X64675462Y-96103621D01*
X64647480Y-96095253D01*
X64597146Y-96060466D01*
X64576873Y-96002737D01*
X64594403Y-95944116D01*
X64643041Y-95906996D01*
X64649803Y-95904890D01*
X64665722Y-95900550D01*
X64678539Y-95895003D01*
X64711672Y-95874660D01*
X64717811Y-95867459D01*
X65279790Y-95867459D01*
X65285368Y-95873726D01*
X65307106Y-95888195D01*
X65319709Y-95894207D01*
X65354888Y-95905197D01*
X65404793Y-95940597D01*
X65424360Y-95998569D01*
X65406114Y-96056971D01*
X65352573Y-96094881D01*
X65329396Y-96101506D01*
X65316648Y-96107208D01*
X65288205Y-96125154D01*
X65279923Y-96135112D01*
X65284391Y-96142970D01*
X65488914Y-96347493D01*
X65500797Y-96353547D01*
X65505828Y-96352751D01*
X65714041Y-96144538D01*
X65720008Y-96132827D01*
X65714170Y-96126350D01*
X65688141Y-96109479D01*
X65675462Y-96103621D01*
X65647480Y-96095253D01*
X65597146Y-96060466D01*
X65576873Y-96002737D01*
X65594403Y-95944116D01*
X65643041Y-95906996D01*
X65649803Y-95904890D01*
X65665722Y-95900550D01*
X65678539Y-95895003D01*
X65711672Y-95874660D01*
X65717811Y-95867459D01*
X66279790Y-95867459D01*
X66285368Y-95873726D01*
X66307106Y-95888195D01*
X66319708Y-95894206D01*
X66423814Y-95926731D01*
X66437597Y-95928963D01*
X66546642Y-95930962D01*
X66560500Y-95929236D01*
X66665726Y-95900548D01*
X66678539Y-95895003D01*
X66711672Y-95874660D01*
X66719946Y-95864954D01*
X66715370Y-95856791D01*
X66511086Y-95652507D01*
X66499203Y-95646453D01*
X66494172Y-95647249D01*
X66285844Y-95855577D01*
X66279790Y-95867459D01*
X65717811Y-95867459D01*
X65719946Y-95864954D01*
X65715370Y-95856791D01*
X65511086Y-95652507D01*
X65499203Y-95646453D01*
X65494172Y-95647249D01*
X65285844Y-95855577D01*
X65279790Y-95867459D01*
X64717811Y-95867459D01*
X64719946Y-95864954D01*
X64715370Y-95856791D01*
X64511086Y-95652507D01*
X64499203Y-95646453D01*
X64494172Y-95647249D01*
X64285844Y-95855577D01*
X64279790Y-95867459D01*
X63717811Y-95867459D01*
X63719946Y-95864954D01*
X63715370Y-95856791D01*
X63511086Y-95652507D01*
X63499203Y-95646453D01*
X63494172Y-95647249D01*
X63285844Y-95855577D01*
X63279790Y-95867459D01*
X62717811Y-95867459D01*
X62719946Y-95864954D01*
X62715370Y-95856791D01*
X62511086Y-95652507D01*
X62499203Y-95646453D01*
X62494172Y-95647249D01*
X62285844Y-95855577D01*
X62279790Y-95867459D01*
X61717811Y-95867459D01*
X61719946Y-95864954D01*
X61715370Y-95856791D01*
X61511086Y-95652507D01*
X61499203Y-95646453D01*
X61494172Y-95647249D01*
X61285844Y-95855577D01*
X61279790Y-95867459D01*
X56730000Y-95867459D01*
X56730000Y-95501691D01*
X61066525Y-95501691D01*
X61080667Y-95609834D01*
X61084420Y-95623277D01*
X61124209Y-95713703D01*
X61131096Y-95721419D01*
X61142630Y-95715949D01*
X61347493Y-95511086D01*
X61352735Y-95500797D01*
X61646453Y-95500797D01*
X61647249Y-95505828D01*
X61856963Y-95715542D01*
X61866787Y-95720548D01*
X61875108Y-95712058D01*
X61911852Y-95636216D01*
X61954239Y-95592092D01*
X62014466Y-95581309D01*
X62069530Y-95607986D01*
X62091562Y-95639508D01*
X62124210Y-95713704D01*
X62131096Y-95721419D01*
X62142630Y-95715949D01*
X62347493Y-95511086D01*
X62352735Y-95500797D01*
X62646453Y-95500797D01*
X62647249Y-95505828D01*
X62856963Y-95715542D01*
X62866787Y-95720548D01*
X62875108Y-95712058D01*
X62911852Y-95636216D01*
X62954239Y-95592092D01*
X63014466Y-95581309D01*
X63069530Y-95607986D01*
X63091562Y-95639508D01*
X63124210Y-95713704D01*
X63131096Y-95721419D01*
X63142630Y-95715949D01*
X63347493Y-95511086D01*
X63352735Y-95500797D01*
X63646453Y-95500797D01*
X63647249Y-95505828D01*
X63856963Y-95715542D01*
X63866787Y-95720548D01*
X63875108Y-95712058D01*
X63911852Y-95636216D01*
X63954239Y-95592092D01*
X64014466Y-95581309D01*
X64069530Y-95607986D01*
X64091562Y-95639508D01*
X64124210Y-95713704D01*
X64131096Y-95721419D01*
X64142630Y-95715949D01*
X64347493Y-95511086D01*
X64352735Y-95500797D01*
X64646453Y-95500797D01*
X64647249Y-95505828D01*
X64856963Y-95715542D01*
X64866787Y-95720548D01*
X64875108Y-95712058D01*
X64911852Y-95636216D01*
X64954239Y-95592092D01*
X65014466Y-95581309D01*
X65069530Y-95607986D01*
X65091562Y-95639508D01*
X65124210Y-95713704D01*
X65131096Y-95721419D01*
X65142630Y-95715949D01*
X65347493Y-95511086D01*
X65352735Y-95500797D01*
X65646453Y-95500797D01*
X65647249Y-95505828D01*
X65856963Y-95715542D01*
X65866787Y-95720548D01*
X65875108Y-95712058D01*
X65911852Y-95636216D01*
X65954239Y-95592092D01*
X66014466Y-95581309D01*
X66069530Y-95607986D01*
X66091562Y-95639508D01*
X66124210Y-95713704D01*
X66131096Y-95721419D01*
X66142630Y-95715949D01*
X66347493Y-95511086D01*
X66352735Y-95500797D01*
X66646453Y-95500797D01*
X66647249Y-95505828D01*
X66856963Y-95715542D01*
X66866787Y-95720548D01*
X66875108Y-95712058D01*
X66910782Y-95638425D01*
X66915027Y-95625126D01*
X66933658Y-95514385D01*
X66934339Y-95506793D01*
X66934375Y-95503825D01*
X66933879Y-95496209D01*
X66917961Y-95385055D01*
X66914042Y-95371651D01*
X66875438Y-95286748D01*
X66868301Y-95278945D01*
X66857060Y-95284361D01*
X66652507Y-95488914D01*
X66646453Y-95500797D01*
X66352735Y-95500797D01*
X66353547Y-95499203D01*
X66352751Y-95494172D01*
X66142614Y-95284035D01*
X66132990Y-95279131D01*
X66124515Y-95287885D01*
X66089297Y-95362895D01*
X66047452Y-95407534D01*
X65987360Y-95419051D01*
X65931976Y-95393048D01*
X65909561Y-95361797D01*
X65875438Y-95286748D01*
X65868301Y-95278945D01*
X65857060Y-95284361D01*
X65652507Y-95488914D01*
X65646453Y-95500797D01*
X65352735Y-95500797D01*
X65353547Y-95499203D01*
X65352751Y-95494172D01*
X65142614Y-95284035D01*
X65132990Y-95279131D01*
X65124515Y-95287885D01*
X65089297Y-95362895D01*
X65047452Y-95407534D01*
X64987360Y-95419051D01*
X64931976Y-95393048D01*
X64909561Y-95361797D01*
X64875438Y-95286748D01*
X64868301Y-95278945D01*
X64857060Y-95284361D01*
X64652507Y-95488914D01*
X64646453Y-95500797D01*
X64352735Y-95500797D01*
X64353547Y-95499203D01*
X64352751Y-95494172D01*
X64142614Y-95284035D01*
X64132990Y-95279131D01*
X64124515Y-95287885D01*
X64089297Y-95362895D01*
X64047452Y-95407534D01*
X63987360Y-95419051D01*
X63931976Y-95393048D01*
X63909561Y-95361797D01*
X63875438Y-95286748D01*
X63868301Y-95278945D01*
X63857060Y-95284361D01*
X63652507Y-95488914D01*
X63646453Y-95500797D01*
X63352735Y-95500797D01*
X63353547Y-95499203D01*
X63352751Y-95494172D01*
X63142614Y-95284035D01*
X63132990Y-95279131D01*
X63124515Y-95287885D01*
X63089297Y-95362895D01*
X63047452Y-95407534D01*
X62987360Y-95419051D01*
X62931976Y-95393048D01*
X62909561Y-95361797D01*
X62875438Y-95286748D01*
X62868301Y-95278945D01*
X62857060Y-95284361D01*
X62652507Y-95488914D01*
X62646453Y-95500797D01*
X62352735Y-95500797D01*
X62353547Y-95499203D01*
X62352751Y-95494172D01*
X62142614Y-95284035D01*
X62132990Y-95279131D01*
X62124515Y-95287885D01*
X62089297Y-95362895D01*
X62047452Y-95407534D01*
X61987360Y-95419051D01*
X61931976Y-95393048D01*
X61909561Y-95361797D01*
X61875438Y-95286748D01*
X61868301Y-95278945D01*
X61857060Y-95284361D01*
X61652507Y-95488914D01*
X61646453Y-95500797D01*
X61352735Y-95500797D01*
X61353547Y-95499203D01*
X61352751Y-95494172D01*
X61142614Y-95284035D01*
X61132990Y-95279131D01*
X61124517Y-95287883D01*
X61087557Y-95366604D01*
X61083475Y-95379957D01*
X61066696Y-95487719D01*
X61066525Y-95501691D01*
X56730000Y-95501691D01*
X56730000Y-95135112D01*
X61279923Y-95135112D01*
X61284391Y-95142970D01*
X61488914Y-95347493D01*
X61500797Y-95353547D01*
X61505828Y-95352751D01*
X61714041Y-95144538D01*
X61720008Y-95132827D01*
X61714170Y-95126350D01*
X61688141Y-95109479D01*
X61675457Y-95103619D01*
X61570973Y-95072372D01*
X61557155Y-95070307D01*
X61448093Y-95069640D01*
X61434264Y-95071534D01*
X61329392Y-95101507D01*
X61316648Y-95107208D01*
X61288205Y-95125154D01*
X61279923Y-95135112D01*
X56730000Y-95135112D01*
X56730000Y-94926500D01*
X56748907Y-94868309D01*
X56750077Y-94867459D01*
X62279790Y-94867459D01*
X62285368Y-94873726D01*
X62307106Y-94888195D01*
X62319709Y-94894207D01*
X62354888Y-94905197D01*
X62404793Y-94940597D01*
X62424360Y-94998569D01*
X62406114Y-95056971D01*
X62352573Y-95094881D01*
X62329396Y-95101506D01*
X62316648Y-95107208D01*
X62288205Y-95125154D01*
X62279923Y-95135112D01*
X62284391Y-95142970D01*
X62488914Y-95347493D01*
X62500797Y-95353547D01*
X62505828Y-95352751D01*
X62714041Y-95144538D01*
X62720008Y-95132827D01*
X62714170Y-95126350D01*
X62688141Y-95109479D01*
X62675462Y-95103621D01*
X62647480Y-95095253D01*
X62597146Y-95060466D01*
X62576873Y-95002737D01*
X62594403Y-94944116D01*
X62643041Y-94906996D01*
X62649803Y-94904890D01*
X62665722Y-94900550D01*
X62678539Y-94895003D01*
X62711672Y-94874660D01*
X62717811Y-94867459D01*
X63279790Y-94867459D01*
X63285368Y-94873726D01*
X63307106Y-94888195D01*
X63319709Y-94894207D01*
X63354888Y-94905197D01*
X63404793Y-94940597D01*
X63424360Y-94998569D01*
X63406114Y-95056971D01*
X63352573Y-95094881D01*
X63329396Y-95101506D01*
X63316648Y-95107208D01*
X63288205Y-95125154D01*
X63279923Y-95135112D01*
X63284391Y-95142970D01*
X63488914Y-95347493D01*
X63500797Y-95353547D01*
X63505828Y-95352751D01*
X63714041Y-95144538D01*
X63720008Y-95132827D01*
X63714170Y-95126350D01*
X63688141Y-95109479D01*
X63675462Y-95103621D01*
X63647480Y-95095253D01*
X63597146Y-95060466D01*
X63576873Y-95002737D01*
X63594403Y-94944116D01*
X63643041Y-94906996D01*
X63649803Y-94904890D01*
X63665722Y-94900550D01*
X63678539Y-94895003D01*
X63711672Y-94874660D01*
X63717811Y-94867459D01*
X64279790Y-94867459D01*
X64285368Y-94873726D01*
X64307106Y-94888195D01*
X64319709Y-94894207D01*
X64354888Y-94905197D01*
X64404793Y-94940597D01*
X64424360Y-94998569D01*
X64406114Y-95056971D01*
X64352573Y-95094881D01*
X64329396Y-95101506D01*
X64316648Y-95107208D01*
X64288205Y-95125154D01*
X64279923Y-95135112D01*
X64284391Y-95142970D01*
X64488914Y-95347493D01*
X64500797Y-95353547D01*
X64505828Y-95352751D01*
X64714041Y-95144538D01*
X64720008Y-95132827D01*
X64714170Y-95126350D01*
X64688141Y-95109479D01*
X64675462Y-95103621D01*
X64647480Y-95095253D01*
X64597146Y-95060466D01*
X64576873Y-95002737D01*
X64594403Y-94944116D01*
X64643041Y-94906996D01*
X64649803Y-94904890D01*
X64665722Y-94900550D01*
X64678539Y-94895003D01*
X64711672Y-94874660D01*
X64717811Y-94867459D01*
X65279790Y-94867459D01*
X65285368Y-94873726D01*
X65307106Y-94888195D01*
X65319709Y-94894207D01*
X65354888Y-94905197D01*
X65404793Y-94940597D01*
X65424360Y-94998569D01*
X65406114Y-95056971D01*
X65352573Y-95094881D01*
X65329396Y-95101506D01*
X65316648Y-95107208D01*
X65288205Y-95125154D01*
X65279923Y-95135112D01*
X65284391Y-95142970D01*
X65488914Y-95347493D01*
X65500797Y-95353547D01*
X65505828Y-95352751D01*
X65714041Y-95144538D01*
X65718844Y-95135112D01*
X66279923Y-95135112D01*
X66284391Y-95142970D01*
X66488914Y-95347493D01*
X66500797Y-95353547D01*
X66505828Y-95352751D01*
X66714041Y-95144538D01*
X66720008Y-95132827D01*
X66714170Y-95126350D01*
X66688141Y-95109479D01*
X66675457Y-95103619D01*
X66570973Y-95072372D01*
X66557155Y-95070307D01*
X66448093Y-95069640D01*
X66434264Y-95071534D01*
X66329392Y-95101507D01*
X66316648Y-95107208D01*
X66288205Y-95125154D01*
X66279923Y-95135112D01*
X65718844Y-95135112D01*
X65720008Y-95132827D01*
X65714170Y-95126350D01*
X65688141Y-95109479D01*
X65675462Y-95103621D01*
X65647480Y-95095253D01*
X65597146Y-95060466D01*
X65576873Y-95002737D01*
X65594403Y-94944116D01*
X65643041Y-94906996D01*
X65649803Y-94904890D01*
X65665722Y-94900550D01*
X65678539Y-94895003D01*
X65711672Y-94874660D01*
X65719946Y-94864954D01*
X65715370Y-94856791D01*
X65511086Y-94652507D01*
X65499203Y-94646453D01*
X65494172Y-94647249D01*
X65285844Y-94855577D01*
X65279790Y-94867459D01*
X64717811Y-94867459D01*
X64719946Y-94864954D01*
X64715370Y-94856791D01*
X64511086Y-94652507D01*
X64499203Y-94646453D01*
X64494172Y-94647249D01*
X64285844Y-94855577D01*
X64279790Y-94867459D01*
X63717811Y-94867459D01*
X63719946Y-94864954D01*
X63715370Y-94856791D01*
X63511086Y-94652507D01*
X63499203Y-94646453D01*
X63494172Y-94647249D01*
X63285844Y-94855577D01*
X63279790Y-94867459D01*
X62717811Y-94867459D01*
X62719946Y-94864954D01*
X62715370Y-94856791D01*
X62511086Y-94652507D01*
X62499203Y-94646453D01*
X62494172Y-94647249D01*
X62285844Y-94855577D01*
X62279790Y-94867459D01*
X56750077Y-94867459D01*
X56798407Y-94832345D01*
X56829000Y-94827500D01*
X61424711Y-94827500D01*
X61436257Y-94828510D01*
X61441724Y-94830500D01*
X61558276Y-94830500D01*
X61566416Y-94827537D01*
X61566417Y-94827537D01*
X61593954Y-94817514D01*
X61600040Y-94815883D01*
X61605214Y-94814000D01*
X61613739Y-94812497D01*
X61621239Y-94808167D01*
X61626402Y-94806288D01*
X61632116Y-94803624D01*
X61659659Y-94793599D01*
X61667799Y-94790636D01*
X61674436Y-94785067D01*
X61696890Y-94766227D01*
X61702046Y-94762616D01*
X61706260Y-94759080D01*
X61713760Y-94754750D01*
X61719325Y-94748117D01*
X61723539Y-94744582D01*
X61727996Y-94740125D01*
X61732433Y-94736402D01*
X61757083Y-94715718D01*
X61776070Y-94682830D01*
X61779674Y-94677684D01*
X61782429Y-94672913D01*
X61787998Y-94666276D01*
X61790961Y-94658134D01*
X61793718Y-94653359D01*
X61796371Y-94647670D01*
X61811029Y-94622282D01*
X61811030Y-94622278D01*
X61815359Y-94614781D01*
X61821953Y-94577386D01*
X61823584Y-94571300D01*
X61824539Y-94565882D01*
X61827500Y-94557747D01*
X61827500Y-94549087D01*
X61828455Y-94543670D01*
X61829004Y-94537396D01*
X61834094Y-94508530D01*
X61835300Y-94501691D01*
X62066525Y-94501691D01*
X62080667Y-94609834D01*
X62084420Y-94623277D01*
X62124209Y-94713703D01*
X62131096Y-94721419D01*
X62142630Y-94715949D01*
X62347493Y-94511086D01*
X62352735Y-94500797D01*
X62646453Y-94500797D01*
X62647249Y-94505828D01*
X62856963Y-94715542D01*
X62866787Y-94720548D01*
X62875108Y-94712058D01*
X62911852Y-94636216D01*
X62954239Y-94592092D01*
X63014466Y-94581309D01*
X63069530Y-94607986D01*
X63091562Y-94639508D01*
X63124210Y-94713704D01*
X63131096Y-94721419D01*
X63142630Y-94715949D01*
X63347493Y-94511086D01*
X63352735Y-94500797D01*
X63646453Y-94500797D01*
X63647249Y-94505828D01*
X63856963Y-94715542D01*
X63866787Y-94720548D01*
X63875108Y-94712058D01*
X63911852Y-94636216D01*
X63954239Y-94592092D01*
X64014466Y-94581309D01*
X64069530Y-94607986D01*
X64091562Y-94639508D01*
X64124210Y-94713704D01*
X64131096Y-94721419D01*
X64142630Y-94715949D01*
X64347493Y-94511086D01*
X64352735Y-94500797D01*
X64646453Y-94500797D01*
X64647249Y-94505828D01*
X64856963Y-94715542D01*
X64866787Y-94720548D01*
X64875108Y-94712058D01*
X64911852Y-94636216D01*
X64954239Y-94592092D01*
X65014466Y-94581309D01*
X65069530Y-94607986D01*
X65091562Y-94639508D01*
X65124210Y-94713704D01*
X65131096Y-94721419D01*
X65142630Y-94715949D01*
X65347493Y-94511086D01*
X65352735Y-94500797D01*
X65646453Y-94500797D01*
X65647249Y-94505828D01*
X65856963Y-94715542D01*
X65866787Y-94720548D01*
X65875108Y-94712058D01*
X65910782Y-94638425D01*
X65915027Y-94625126D01*
X65933658Y-94514385D01*
X65934339Y-94506793D01*
X65934375Y-94503825D01*
X65934126Y-94500000D01*
X66164402Y-94500000D01*
X66184641Y-94614781D01*
X66188971Y-94622280D01*
X66188971Y-94622281D01*
X66198292Y-94638425D01*
X66242917Y-94715718D01*
X66332201Y-94790636D01*
X66340340Y-94793598D01*
X66340341Y-94793599D01*
X66433583Y-94827537D01*
X66441724Y-94830500D01*
X66558276Y-94830500D01*
X66566417Y-94827537D01*
X66659659Y-94793599D01*
X66659660Y-94793598D01*
X66667799Y-94790636D01*
X66757083Y-94715718D01*
X66801708Y-94638425D01*
X66811029Y-94622281D01*
X66811029Y-94622280D01*
X66815359Y-94614781D01*
X66835598Y-94500000D01*
X66815359Y-94385219D01*
X66757083Y-94284282D01*
X66667799Y-94209364D01*
X66659660Y-94206402D01*
X66659659Y-94206401D01*
X66566417Y-94172463D01*
X66566416Y-94172463D01*
X66558276Y-94169500D01*
X66441724Y-94169500D01*
X66433584Y-94172463D01*
X66433583Y-94172463D01*
X66340341Y-94206401D01*
X66340340Y-94206402D01*
X66332201Y-94209364D01*
X66242917Y-94284282D01*
X66184641Y-94385219D01*
X66164402Y-94500000D01*
X65934126Y-94500000D01*
X65933879Y-94496209D01*
X65917961Y-94385055D01*
X65914042Y-94371651D01*
X65875438Y-94286748D01*
X65868301Y-94278945D01*
X65857060Y-94284361D01*
X65652507Y-94488914D01*
X65646453Y-94500797D01*
X65352735Y-94500797D01*
X65353547Y-94499203D01*
X65352751Y-94494172D01*
X65142614Y-94284035D01*
X65132990Y-94279131D01*
X65124515Y-94287885D01*
X65089297Y-94362895D01*
X65047452Y-94407534D01*
X64987360Y-94419051D01*
X64931976Y-94393048D01*
X64909561Y-94361797D01*
X64875438Y-94286748D01*
X64868301Y-94278945D01*
X64857060Y-94284361D01*
X64652507Y-94488914D01*
X64646453Y-94500797D01*
X64352735Y-94500797D01*
X64353547Y-94499203D01*
X64352751Y-94494172D01*
X64142614Y-94284035D01*
X64132990Y-94279131D01*
X64124515Y-94287885D01*
X64089297Y-94362895D01*
X64047452Y-94407534D01*
X63987360Y-94419051D01*
X63931976Y-94393048D01*
X63909561Y-94361797D01*
X63875438Y-94286748D01*
X63868301Y-94278945D01*
X63857060Y-94284361D01*
X63652507Y-94488914D01*
X63646453Y-94500797D01*
X63352735Y-94500797D01*
X63353547Y-94499203D01*
X63352751Y-94494172D01*
X63142614Y-94284035D01*
X63132990Y-94279131D01*
X63124515Y-94287885D01*
X63089297Y-94362895D01*
X63047452Y-94407534D01*
X62987360Y-94419051D01*
X62931976Y-94393048D01*
X62909561Y-94361797D01*
X62875438Y-94286748D01*
X62868301Y-94278945D01*
X62857060Y-94284361D01*
X62652507Y-94488914D01*
X62646453Y-94500797D01*
X62352735Y-94500797D01*
X62353547Y-94499203D01*
X62352751Y-94494172D01*
X62142614Y-94284035D01*
X62132990Y-94279131D01*
X62124517Y-94287883D01*
X62087557Y-94366604D01*
X62083475Y-94379957D01*
X62066696Y-94487719D01*
X62066525Y-94501691D01*
X61835300Y-94501691D01*
X61835598Y-94500000D01*
X61829004Y-94462603D01*
X61827500Y-94445413D01*
X61827500Y-93867459D01*
X62279790Y-93867459D01*
X62285368Y-93873726D01*
X62307106Y-93888195D01*
X62319709Y-93894207D01*
X62354888Y-93905197D01*
X62404793Y-93940597D01*
X62424360Y-93998569D01*
X62406114Y-94056971D01*
X62352573Y-94094881D01*
X62329396Y-94101506D01*
X62316648Y-94107208D01*
X62288205Y-94125154D01*
X62279923Y-94135112D01*
X62284391Y-94142970D01*
X62488914Y-94347493D01*
X62500797Y-94353547D01*
X62505828Y-94352751D01*
X62714041Y-94144538D01*
X62720008Y-94132827D01*
X62714170Y-94126350D01*
X62688141Y-94109479D01*
X62675462Y-94103621D01*
X62647480Y-94095253D01*
X62597146Y-94060466D01*
X62576873Y-94002737D01*
X62594403Y-93944116D01*
X62643041Y-93906996D01*
X62649803Y-93904890D01*
X62665722Y-93900550D01*
X62678539Y-93895003D01*
X62711672Y-93874660D01*
X62717811Y-93867459D01*
X63279790Y-93867459D01*
X63285368Y-93873726D01*
X63307106Y-93888195D01*
X63319709Y-93894207D01*
X63354888Y-93905197D01*
X63404793Y-93940597D01*
X63424360Y-93998569D01*
X63406114Y-94056971D01*
X63352573Y-94094881D01*
X63329396Y-94101506D01*
X63316648Y-94107208D01*
X63288205Y-94125154D01*
X63279923Y-94135112D01*
X63284391Y-94142970D01*
X63488914Y-94347493D01*
X63500797Y-94353547D01*
X63505828Y-94352751D01*
X63714041Y-94144538D01*
X63720008Y-94132827D01*
X63714170Y-94126350D01*
X63688141Y-94109479D01*
X63675462Y-94103621D01*
X63647480Y-94095253D01*
X63597146Y-94060466D01*
X63576873Y-94002737D01*
X63594403Y-93944116D01*
X63643041Y-93906996D01*
X63649803Y-93904890D01*
X63665722Y-93900550D01*
X63678539Y-93895003D01*
X63711672Y-93874660D01*
X63717811Y-93867459D01*
X64279790Y-93867459D01*
X64285368Y-93873726D01*
X64307106Y-93888195D01*
X64319709Y-93894207D01*
X64354888Y-93905197D01*
X64404793Y-93940597D01*
X64424360Y-93998569D01*
X64406114Y-94056971D01*
X64352573Y-94094881D01*
X64329396Y-94101506D01*
X64316648Y-94107208D01*
X64288205Y-94125154D01*
X64279923Y-94135112D01*
X64284391Y-94142970D01*
X64488914Y-94347493D01*
X64500797Y-94353547D01*
X64505828Y-94352751D01*
X64714041Y-94144538D01*
X64720008Y-94132827D01*
X64714170Y-94126350D01*
X64688141Y-94109479D01*
X64675462Y-94103621D01*
X64647480Y-94095253D01*
X64597146Y-94060466D01*
X64576873Y-94002737D01*
X64594403Y-93944116D01*
X64643041Y-93906996D01*
X64649803Y-93904890D01*
X64665722Y-93900550D01*
X64678539Y-93895003D01*
X64711672Y-93874660D01*
X64717811Y-93867459D01*
X65279790Y-93867459D01*
X65285368Y-93873726D01*
X65307106Y-93888195D01*
X65319709Y-93894207D01*
X65354888Y-93905197D01*
X65404793Y-93940597D01*
X65424360Y-93998569D01*
X65406114Y-94056971D01*
X65352573Y-94094881D01*
X65329396Y-94101506D01*
X65316648Y-94107208D01*
X65288205Y-94125154D01*
X65279923Y-94135112D01*
X65284391Y-94142970D01*
X65488914Y-94347493D01*
X65500797Y-94353547D01*
X65505828Y-94352751D01*
X65714041Y-94144538D01*
X65720008Y-94132827D01*
X65714170Y-94126350D01*
X65688141Y-94109479D01*
X65675462Y-94103621D01*
X65647480Y-94095253D01*
X65597146Y-94060466D01*
X65576873Y-94002737D01*
X65594403Y-93944116D01*
X65643041Y-93906996D01*
X65649803Y-93904890D01*
X65665722Y-93900550D01*
X65678539Y-93895003D01*
X65711672Y-93874660D01*
X65719946Y-93864954D01*
X65715370Y-93856791D01*
X65511086Y-93652507D01*
X65499203Y-93646453D01*
X65494172Y-93647249D01*
X65285844Y-93855577D01*
X65279790Y-93867459D01*
X64717811Y-93867459D01*
X64719946Y-93864954D01*
X64715370Y-93856791D01*
X64511086Y-93652507D01*
X64499203Y-93646453D01*
X64494172Y-93647249D01*
X64285844Y-93855577D01*
X64279790Y-93867459D01*
X63717811Y-93867459D01*
X63719946Y-93864954D01*
X63715370Y-93856791D01*
X63511086Y-93652507D01*
X63499203Y-93646453D01*
X63494172Y-93647249D01*
X63285844Y-93855577D01*
X63279790Y-93867459D01*
X62717811Y-93867459D01*
X62719946Y-93864954D01*
X62715370Y-93856791D01*
X62511086Y-93652507D01*
X62499203Y-93646453D01*
X62494172Y-93647249D01*
X62285844Y-93855577D01*
X62279790Y-93867459D01*
X61827500Y-93867459D01*
X61827500Y-93554587D01*
X61829004Y-93537396D01*
X61834094Y-93508530D01*
X61835300Y-93501691D01*
X62066525Y-93501691D01*
X62080667Y-93609834D01*
X62084420Y-93623277D01*
X62124209Y-93713703D01*
X62131096Y-93721419D01*
X62142630Y-93715949D01*
X62347493Y-93511086D01*
X62352735Y-93500797D01*
X62646453Y-93500797D01*
X62647249Y-93505828D01*
X62856963Y-93715542D01*
X62866787Y-93720548D01*
X62875108Y-93712058D01*
X62911852Y-93636216D01*
X62954239Y-93592092D01*
X63014466Y-93581309D01*
X63069530Y-93607986D01*
X63091562Y-93639508D01*
X63124210Y-93713704D01*
X63131096Y-93721419D01*
X63142630Y-93715949D01*
X63347493Y-93511086D01*
X63352735Y-93500797D01*
X63646453Y-93500797D01*
X63647249Y-93505828D01*
X63856963Y-93715542D01*
X63866787Y-93720548D01*
X63875108Y-93712058D01*
X63911852Y-93636216D01*
X63954239Y-93592092D01*
X64014466Y-93581309D01*
X64069530Y-93607986D01*
X64091562Y-93639508D01*
X64124210Y-93713704D01*
X64131096Y-93721419D01*
X64142630Y-93715949D01*
X64347493Y-93511086D01*
X64352735Y-93500797D01*
X64646453Y-93500797D01*
X64647249Y-93505828D01*
X64856963Y-93715542D01*
X64866787Y-93720548D01*
X64875108Y-93712058D01*
X64911852Y-93636216D01*
X64954239Y-93592092D01*
X65014466Y-93581309D01*
X65069530Y-93607986D01*
X65091562Y-93639508D01*
X65124210Y-93713704D01*
X65131096Y-93721419D01*
X65142630Y-93715949D01*
X65347493Y-93511086D01*
X65352735Y-93500797D01*
X65646453Y-93500797D01*
X65647249Y-93505828D01*
X65856963Y-93715542D01*
X65866787Y-93720548D01*
X65875108Y-93712058D01*
X65910782Y-93638425D01*
X65915027Y-93625126D01*
X65933658Y-93514385D01*
X65934339Y-93506793D01*
X65934375Y-93503825D01*
X65934126Y-93500000D01*
X66164402Y-93500000D01*
X66184641Y-93614781D01*
X66188971Y-93622280D01*
X66188971Y-93622281D01*
X66198292Y-93638425D01*
X66242917Y-93715718D01*
X66332201Y-93790636D01*
X66340340Y-93793598D01*
X66340341Y-93793599D01*
X66433583Y-93827537D01*
X66441724Y-93830500D01*
X66558276Y-93830500D01*
X66566417Y-93827537D01*
X66659659Y-93793599D01*
X66659660Y-93793598D01*
X66667799Y-93790636D01*
X66757083Y-93715718D01*
X66801708Y-93638425D01*
X66811029Y-93622281D01*
X66811029Y-93622280D01*
X66815359Y-93614781D01*
X66835598Y-93500000D01*
X66815359Y-93385219D01*
X66757083Y-93284282D01*
X66667799Y-93209364D01*
X66659660Y-93206402D01*
X66659659Y-93206401D01*
X66566417Y-93172463D01*
X66566416Y-93172463D01*
X66558276Y-93169500D01*
X66441724Y-93169500D01*
X66433584Y-93172463D01*
X66433583Y-93172463D01*
X66340341Y-93206401D01*
X66340340Y-93206402D01*
X66332201Y-93209364D01*
X66242917Y-93284282D01*
X66184641Y-93385219D01*
X66164402Y-93500000D01*
X65934126Y-93500000D01*
X65933879Y-93496209D01*
X65917961Y-93385055D01*
X65914042Y-93371651D01*
X65875438Y-93286748D01*
X65868301Y-93278945D01*
X65857060Y-93284361D01*
X65652507Y-93488914D01*
X65646453Y-93500797D01*
X65352735Y-93500797D01*
X65353547Y-93499203D01*
X65352751Y-93494172D01*
X65142614Y-93284035D01*
X65132990Y-93279131D01*
X65124515Y-93287885D01*
X65089297Y-93362895D01*
X65047452Y-93407534D01*
X64987360Y-93419051D01*
X64931976Y-93393048D01*
X64909561Y-93361797D01*
X64875438Y-93286748D01*
X64868301Y-93278945D01*
X64857060Y-93284361D01*
X64652507Y-93488914D01*
X64646453Y-93500797D01*
X64352735Y-93500797D01*
X64353547Y-93499203D01*
X64352751Y-93494172D01*
X64142614Y-93284035D01*
X64132990Y-93279131D01*
X64124515Y-93287885D01*
X64089297Y-93362895D01*
X64047452Y-93407534D01*
X63987360Y-93419051D01*
X63931976Y-93393048D01*
X63909561Y-93361797D01*
X63875438Y-93286748D01*
X63868301Y-93278945D01*
X63857060Y-93284361D01*
X63652507Y-93488914D01*
X63646453Y-93500797D01*
X63352735Y-93500797D01*
X63353547Y-93499203D01*
X63352751Y-93494172D01*
X63142614Y-93284035D01*
X63132990Y-93279131D01*
X63124515Y-93287885D01*
X63089297Y-93362895D01*
X63047452Y-93407534D01*
X62987360Y-93419051D01*
X62931976Y-93393048D01*
X62909561Y-93361797D01*
X62875438Y-93286748D01*
X62868301Y-93278945D01*
X62857060Y-93284361D01*
X62652507Y-93488914D01*
X62646453Y-93500797D01*
X62352735Y-93500797D01*
X62353547Y-93499203D01*
X62352751Y-93494172D01*
X62142614Y-93284035D01*
X62132990Y-93279131D01*
X62124517Y-93287883D01*
X62087557Y-93366604D01*
X62083475Y-93379957D01*
X62066696Y-93487719D01*
X62066525Y-93501691D01*
X61835300Y-93501691D01*
X61835598Y-93500000D01*
X61815359Y-93385219D01*
X61757083Y-93284282D01*
X61667799Y-93209364D01*
X61659660Y-93206402D01*
X61659659Y-93206401D01*
X61566417Y-93172463D01*
X61566416Y-93172463D01*
X61558276Y-93169500D01*
X61441724Y-93169500D01*
X61433584Y-93172463D01*
X61433583Y-93172463D01*
X61340341Y-93206401D01*
X61340340Y-93206402D01*
X61332201Y-93209364D01*
X61242917Y-93284282D01*
X61184641Y-93385219D01*
X61164402Y-93500000D01*
X61165906Y-93508530D01*
X61170996Y-93537396D01*
X61172500Y-93554587D01*
X61172500Y-94073500D01*
X61153593Y-94131691D01*
X61104093Y-94167655D01*
X61073500Y-94172500D01*
X56829000Y-94172500D01*
X56770809Y-94153593D01*
X56734845Y-94104093D01*
X56730000Y-94073500D01*
X56730000Y-92867459D01*
X61279790Y-92867459D01*
X61285368Y-92873726D01*
X61307106Y-92888195D01*
X61319708Y-92894206D01*
X61423814Y-92926731D01*
X61437597Y-92928963D01*
X61546642Y-92930962D01*
X61560500Y-92929236D01*
X61665726Y-92900548D01*
X61678539Y-92895003D01*
X61711672Y-92874660D01*
X61717811Y-92867459D01*
X62279790Y-92867459D01*
X62285368Y-92873726D01*
X62307106Y-92888195D01*
X62319709Y-92894207D01*
X62354888Y-92905197D01*
X62404793Y-92940597D01*
X62424360Y-92998569D01*
X62406114Y-93056971D01*
X62352573Y-93094881D01*
X62329396Y-93101506D01*
X62316648Y-93107208D01*
X62288205Y-93125154D01*
X62279923Y-93135112D01*
X62284391Y-93142970D01*
X62488914Y-93347493D01*
X62500797Y-93353547D01*
X62505828Y-93352751D01*
X62714041Y-93144538D01*
X62720008Y-93132827D01*
X62714170Y-93126350D01*
X62688141Y-93109479D01*
X62675462Y-93103621D01*
X62647480Y-93095253D01*
X62597146Y-93060466D01*
X62576873Y-93002737D01*
X62594403Y-92944116D01*
X62643041Y-92906996D01*
X62649803Y-92904890D01*
X62665722Y-92900550D01*
X62678539Y-92895003D01*
X62711672Y-92874660D01*
X62717811Y-92867459D01*
X63279790Y-92867459D01*
X63285368Y-92873726D01*
X63307106Y-92888195D01*
X63319709Y-92894207D01*
X63354888Y-92905197D01*
X63404793Y-92940597D01*
X63424360Y-92998569D01*
X63406114Y-93056971D01*
X63352573Y-93094881D01*
X63329396Y-93101506D01*
X63316648Y-93107208D01*
X63288205Y-93125154D01*
X63279923Y-93135112D01*
X63284391Y-93142970D01*
X63488914Y-93347493D01*
X63500797Y-93353547D01*
X63505828Y-93352751D01*
X63714041Y-93144538D01*
X63720008Y-93132827D01*
X63714170Y-93126350D01*
X63688141Y-93109479D01*
X63675462Y-93103621D01*
X63647480Y-93095253D01*
X63597146Y-93060466D01*
X63576873Y-93002737D01*
X63594403Y-92944116D01*
X63643041Y-92906996D01*
X63649803Y-92904890D01*
X63665722Y-92900550D01*
X63678539Y-92895003D01*
X63711672Y-92874660D01*
X63717811Y-92867459D01*
X64279790Y-92867459D01*
X64285368Y-92873726D01*
X64307106Y-92888195D01*
X64319709Y-92894207D01*
X64354888Y-92905197D01*
X64404793Y-92940597D01*
X64424360Y-92998569D01*
X64406114Y-93056971D01*
X64352573Y-93094881D01*
X64329396Y-93101506D01*
X64316648Y-93107208D01*
X64288205Y-93125154D01*
X64279923Y-93135112D01*
X64284391Y-93142970D01*
X64488914Y-93347493D01*
X64500797Y-93353547D01*
X64505828Y-93352751D01*
X64714041Y-93144538D01*
X64720008Y-93132827D01*
X64714170Y-93126350D01*
X64688141Y-93109479D01*
X64675462Y-93103621D01*
X64647480Y-93095253D01*
X64597146Y-93060466D01*
X64576873Y-93002737D01*
X64594403Y-92944116D01*
X64643041Y-92906996D01*
X64649803Y-92904890D01*
X64665722Y-92900550D01*
X64678539Y-92895003D01*
X64711672Y-92874660D01*
X64717811Y-92867459D01*
X65279790Y-92867459D01*
X65285368Y-92873726D01*
X65307106Y-92888195D01*
X65319709Y-92894207D01*
X65354888Y-92905197D01*
X65404793Y-92940597D01*
X65424360Y-92998569D01*
X65406114Y-93056971D01*
X65352573Y-93094881D01*
X65329396Y-93101506D01*
X65316648Y-93107208D01*
X65288205Y-93125154D01*
X65279923Y-93135112D01*
X65284391Y-93142970D01*
X65488914Y-93347493D01*
X65500797Y-93353547D01*
X65505828Y-93352751D01*
X65714041Y-93144538D01*
X65720008Y-93132827D01*
X65714170Y-93126350D01*
X65688141Y-93109479D01*
X65675462Y-93103621D01*
X65647480Y-93095253D01*
X65597146Y-93060466D01*
X65576873Y-93002737D01*
X65594403Y-92944116D01*
X65643041Y-92906996D01*
X65649803Y-92904890D01*
X65665722Y-92900550D01*
X65678539Y-92895003D01*
X65711672Y-92874660D01*
X65717811Y-92867459D01*
X66279790Y-92867459D01*
X66285368Y-92873726D01*
X66307106Y-92888195D01*
X66319708Y-92894206D01*
X66423814Y-92926731D01*
X66437597Y-92928963D01*
X66546642Y-92930962D01*
X66560500Y-92929236D01*
X66665726Y-92900548D01*
X66678539Y-92895003D01*
X66711672Y-92874660D01*
X66719946Y-92864954D01*
X66715370Y-92856791D01*
X66511086Y-92652507D01*
X66499203Y-92646453D01*
X66494172Y-92647249D01*
X66285844Y-92855577D01*
X66279790Y-92867459D01*
X65717811Y-92867459D01*
X65719946Y-92864954D01*
X65715370Y-92856791D01*
X65511086Y-92652507D01*
X65499203Y-92646453D01*
X65494172Y-92647249D01*
X65285844Y-92855577D01*
X65279790Y-92867459D01*
X64717811Y-92867459D01*
X64719946Y-92864954D01*
X64715370Y-92856791D01*
X64511086Y-92652507D01*
X64499203Y-92646453D01*
X64494172Y-92647249D01*
X64285844Y-92855577D01*
X64279790Y-92867459D01*
X63717811Y-92867459D01*
X63719946Y-92864954D01*
X63715370Y-92856791D01*
X63511086Y-92652507D01*
X63499203Y-92646453D01*
X63494172Y-92647249D01*
X63285844Y-92855577D01*
X63279790Y-92867459D01*
X62717811Y-92867459D01*
X62719946Y-92864954D01*
X62715370Y-92856791D01*
X62511086Y-92652507D01*
X62499203Y-92646453D01*
X62494172Y-92647249D01*
X62285844Y-92855577D01*
X62279790Y-92867459D01*
X61717811Y-92867459D01*
X61719946Y-92864954D01*
X61715370Y-92856791D01*
X61511086Y-92652507D01*
X61499203Y-92646453D01*
X61494172Y-92647249D01*
X61285844Y-92855577D01*
X61279790Y-92867459D01*
X56730000Y-92867459D01*
X56730000Y-92501691D01*
X61066525Y-92501691D01*
X61080667Y-92609834D01*
X61084420Y-92623277D01*
X61124209Y-92713703D01*
X61131096Y-92721419D01*
X61142630Y-92715949D01*
X61347493Y-92511086D01*
X61352735Y-92500797D01*
X61646453Y-92500797D01*
X61647249Y-92505828D01*
X61856963Y-92715542D01*
X61866787Y-92720548D01*
X61875108Y-92712058D01*
X61911852Y-92636216D01*
X61954239Y-92592092D01*
X62014466Y-92581309D01*
X62069530Y-92607986D01*
X62091562Y-92639508D01*
X62124210Y-92713704D01*
X62131096Y-92721419D01*
X62142630Y-92715949D01*
X62347493Y-92511086D01*
X62352735Y-92500797D01*
X62646453Y-92500797D01*
X62647249Y-92505828D01*
X62856963Y-92715542D01*
X62866787Y-92720548D01*
X62875108Y-92712058D01*
X62911852Y-92636216D01*
X62954239Y-92592092D01*
X63014466Y-92581309D01*
X63069530Y-92607986D01*
X63091562Y-92639508D01*
X63124210Y-92713704D01*
X63131096Y-92721419D01*
X63142630Y-92715949D01*
X63347493Y-92511086D01*
X63352735Y-92500797D01*
X63646453Y-92500797D01*
X63647249Y-92505828D01*
X63856963Y-92715542D01*
X63866787Y-92720548D01*
X63875108Y-92712058D01*
X63911852Y-92636216D01*
X63954239Y-92592092D01*
X64014466Y-92581309D01*
X64069530Y-92607986D01*
X64091562Y-92639508D01*
X64124210Y-92713704D01*
X64131096Y-92721419D01*
X64142630Y-92715949D01*
X64347493Y-92511086D01*
X64352735Y-92500797D01*
X64646453Y-92500797D01*
X64647249Y-92505828D01*
X64856963Y-92715542D01*
X64866787Y-92720548D01*
X64875108Y-92712058D01*
X64911852Y-92636216D01*
X64954239Y-92592092D01*
X65014466Y-92581309D01*
X65069530Y-92607986D01*
X65091562Y-92639508D01*
X65124210Y-92713704D01*
X65131096Y-92721419D01*
X65142630Y-92715949D01*
X65347493Y-92511086D01*
X65352735Y-92500797D01*
X65646453Y-92500797D01*
X65647249Y-92505828D01*
X65856963Y-92715542D01*
X65866787Y-92720548D01*
X65875108Y-92712058D01*
X65911852Y-92636216D01*
X65954239Y-92592092D01*
X66014466Y-92581309D01*
X66069530Y-92607986D01*
X66091562Y-92639508D01*
X66124210Y-92713704D01*
X66131096Y-92721419D01*
X66142630Y-92715949D01*
X66347493Y-92511086D01*
X66352735Y-92500797D01*
X66646453Y-92500797D01*
X66647249Y-92505828D01*
X66856963Y-92715542D01*
X66866787Y-92720548D01*
X66875108Y-92712058D01*
X66910782Y-92638425D01*
X66915027Y-92625126D01*
X66933658Y-92514385D01*
X66934339Y-92506793D01*
X66934375Y-92503825D01*
X66933879Y-92496209D01*
X66917961Y-92385055D01*
X66914042Y-92371651D01*
X66875438Y-92286748D01*
X66868301Y-92278945D01*
X66857060Y-92284361D01*
X66652507Y-92488914D01*
X66646453Y-92500797D01*
X66352735Y-92500797D01*
X66353547Y-92499203D01*
X66352751Y-92494172D01*
X66142614Y-92284035D01*
X66132990Y-92279131D01*
X66124515Y-92287885D01*
X66089297Y-92362895D01*
X66047452Y-92407534D01*
X65987360Y-92419051D01*
X65931976Y-92393048D01*
X65909561Y-92361797D01*
X65875438Y-92286748D01*
X65868301Y-92278945D01*
X65857060Y-92284361D01*
X65652507Y-92488914D01*
X65646453Y-92500797D01*
X65352735Y-92500797D01*
X65353547Y-92499203D01*
X65352751Y-92494172D01*
X65142614Y-92284035D01*
X65132990Y-92279131D01*
X65124515Y-92287885D01*
X65089297Y-92362895D01*
X65047452Y-92407534D01*
X64987360Y-92419051D01*
X64931976Y-92393048D01*
X64909561Y-92361797D01*
X64875438Y-92286748D01*
X64868301Y-92278945D01*
X64857060Y-92284361D01*
X64652507Y-92488914D01*
X64646453Y-92500797D01*
X64352735Y-92500797D01*
X64353547Y-92499203D01*
X64352751Y-92494172D01*
X64142614Y-92284035D01*
X64132990Y-92279131D01*
X64124515Y-92287885D01*
X64089297Y-92362895D01*
X64047452Y-92407534D01*
X63987360Y-92419051D01*
X63931976Y-92393048D01*
X63909561Y-92361797D01*
X63875438Y-92286748D01*
X63868301Y-92278945D01*
X63857060Y-92284361D01*
X63652507Y-92488914D01*
X63646453Y-92500797D01*
X63352735Y-92500797D01*
X63353547Y-92499203D01*
X63352751Y-92494172D01*
X63142614Y-92284035D01*
X63132990Y-92279131D01*
X63124515Y-92287885D01*
X63089297Y-92362895D01*
X63047452Y-92407534D01*
X62987360Y-92419051D01*
X62931976Y-92393048D01*
X62909561Y-92361797D01*
X62875438Y-92286748D01*
X62868301Y-92278945D01*
X62857060Y-92284361D01*
X62652507Y-92488914D01*
X62646453Y-92500797D01*
X62352735Y-92500797D01*
X62353547Y-92499203D01*
X62352751Y-92494172D01*
X62142614Y-92284035D01*
X62132990Y-92279131D01*
X62124515Y-92287885D01*
X62089297Y-92362895D01*
X62047452Y-92407534D01*
X61987360Y-92419051D01*
X61931976Y-92393048D01*
X61909561Y-92361797D01*
X61875438Y-92286748D01*
X61868301Y-92278945D01*
X61857060Y-92284361D01*
X61652507Y-92488914D01*
X61646453Y-92500797D01*
X61352735Y-92500797D01*
X61353547Y-92499203D01*
X61352751Y-92494172D01*
X61142614Y-92284035D01*
X61132990Y-92279131D01*
X61124517Y-92287883D01*
X61087557Y-92366604D01*
X61083475Y-92379957D01*
X61066696Y-92487719D01*
X61066525Y-92501691D01*
X56730000Y-92501691D01*
X56730000Y-92135112D01*
X61279923Y-92135112D01*
X61284391Y-92142970D01*
X61488914Y-92347493D01*
X61500797Y-92353547D01*
X61505828Y-92352751D01*
X61714041Y-92144538D01*
X61720008Y-92132827D01*
X61714170Y-92126350D01*
X61688141Y-92109479D01*
X61675457Y-92103619D01*
X61570973Y-92072372D01*
X61557155Y-92070307D01*
X61448093Y-92069640D01*
X61434264Y-92071534D01*
X61329392Y-92101507D01*
X61316648Y-92107208D01*
X61288205Y-92125154D01*
X61279923Y-92135112D01*
X56730000Y-92135112D01*
X56730000Y-91867459D01*
X62279790Y-91867459D01*
X62285368Y-91873726D01*
X62307106Y-91888195D01*
X62319709Y-91894207D01*
X62354888Y-91905197D01*
X62404793Y-91940597D01*
X62424360Y-91998569D01*
X62406114Y-92056971D01*
X62352573Y-92094881D01*
X62329396Y-92101506D01*
X62316648Y-92107208D01*
X62288205Y-92125154D01*
X62279923Y-92135112D01*
X62284391Y-92142970D01*
X62488914Y-92347493D01*
X62500797Y-92353547D01*
X62505828Y-92352751D01*
X62714041Y-92144538D01*
X62720008Y-92132827D01*
X62714170Y-92126350D01*
X62688141Y-92109479D01*
X62675462Y-92103621D01*
X62647480Y-92095253D01*
X62597146Y-92060466D01*
X62576873Y-92002737D01*
X62594403Y-91944116D01*
X62643041Y-91906996D01*
X62649803Y-91904890D01*
X62665722Y-91900550D01*
X62678539Y-91895003D01*
X62711672Y-91874660D01*
X62717811Y-91867459D01*
X63279790Y-91867459D01*
X63285368Y-91873726D01*
X63307106Y-91888195D01*
X63319709Y-91894207D01*
X63354888Y-91905197D01*
X63404793Y-91940597D01*
X63424360Y-91998569D01*
X63406114Y-92056971D01*
X63352573Y-92094881D01*
X63329396Y-92101506D01*
X63316648Y-92107208D01*
X63288205Y-92125154D01*
X63279923Y-92135112D01*
X63284391Y-92142970D01*
X63488914Y-92347493D01*
X63500797Y-92353547D01*
X63505828Y-92352751D01*
X63714041Y-92144538D01*
X63720008Y-92132827D01*
X63714170Y-92126350D01*
X63688141Y-92109479D01*
X63675462Y-92103621D01*
X63647480Y-92095253D01*
X63597146Y-92060466D01*
X63576873Y-92002737D01*
X63594403Y-91944116D01*
X63643041Y-91906996D01*
X63649803Y-91904890D01*
X63665722Y-91900550D01*
X63678539Y-91895003D01*
X63711672Y-91874660D01*
X63717811Y-91867459D01*
X64279790Y-91867459D01*
X64285368Y-91873726D01*
X64307106Y-91888195D01*
X64319709Y-91894207D01*
X64354888Y-91905197D01*
X64404793Y-91940597D01*
X64424360Y-91998569D01*
X64406114Y-92056971D01*
X64352573Y-92094881D01*
X64329396Y-92101506D01*
X64316648Y-92107208D01*
X64288205Y-92125154D01*
X64279923Y-92135112D01*
X64284391Y-92142970D01*
X64488914Y-92347493D01*
X64500797Y-92353547D01*
X64505828Y-92352751D01*
X64714041Y-92144538D01*
X64720008Y-92132827D01*
X64714170Y-92126350D01*
X64688141Y-92109479D01*
X64675462Y-92103621D01*
X64647480Y-92095253D01*
X64597146Y-92060466D01*
X64576873Y-92002737D01*
X64594403Y-91944116D01*
X64643041Y-91906996D01*
X64649803Y-91904890D01*
X64665722Y-91900550D01*
X64678539Y-91895003D01*
X64711672Y-91874660D01*
X64717811Y-91867459D01*
X65279790Y-91867459D01*
X65285368Y-91873726D01*
X65307106Y-91888195D01*
X65319709Y-91894207D01*
X65354888Y-91905197D01*
X65404793Y-91940597D01*
X65424360Y-91998569D01*
X65406114Y-92056971D01*
X65352573Y-92094881D01*
X65329396Y-92101506D01*
X65316648Y-92107208D01*
X65288205Y-92125154D01*
X65279923Y-92135112D01*
X65284391Y-92142970D01*
X65488914Y-92347493D01*
X65500797Y-92353547D01*
X65505828Y-92352751D01*
X65714041Y-92144538D01*
X65720008Y-92132827D01*
X65714170Y-92126350D01*
X65688141Y-92109479D01*
X65675462Y-92103621D01*
X65647480Y-92095253D01*
X65597146Y-92060466D01*
X65576873Y-92002737D01*
X65594403Y-91944116D01*
X65643041Y-91906996D01*
X65649803Y-91904890D01*
X65665722Y-91900550D01*
X65678539Y-91895003D01*
X65711672Y-91874660D01*
X65717811Y-91867459D01*
X66279790Y-91867459D01*
X66285368Y-91873726D01*
X66307106Y-91888195D01*
X66319709Y-91894207D01*
X66354888Y-91905197D01*
X66404793Y-91940597D01*
X66424360Y-91998569D01*
X66406114Y-92056971D01*
X66352573Y-92094881D01*
X66329396Y-92101506D01*
X66316648Y-92107208D01*
X66288205Y-92125154D01*
X66279923Y-92135112D01*
X66284391Y-92142970D01*
X66488914Y-92347493D01*
X66500797Y-92353547D01*
X66505828Y-92352751D01*
X66714041Y-92144538D01*
X66720008Y-92132827D01*
X66714170Y-92126350D01*
X66688141Y-92109479D01*
X66675462Y-92103621D01*
X66647480Y-92095253D01*
X66597146Y-92060466D01*
X66576873Y-92002737D01*
X66594403Y-91944116D01*
X66643041Y-91906996D01*
X66649803Y-91904890D01*
X66665722Y-91900550D01*
X66678539Y-91895003D01*
X66711672Y-91874660D01*
X66719946Y-91864954D01*
X66715370Y-91856791D01*
X66511086Y-91652507D01*
X66499203Y-91646453D01*
X66494172Y-91647249D01*
X66285844Y-91855577D01*
X66279790Y-91867459D01*
X65717811Y-91867459D01*
X65719946Y-91864954D01*
X65715370Y-91856791D01*
X65511086Y-91652507D01*
X65499203Y-91646453D01*
X65494172Y-91647249D01*
X65285844Y-91855577D01*
X65279790Y-91867459D01*
X64717811Y-91867459D01*
X64719946Y-91864954D01*
X64715370Y-91856791D01*
X64511086Y-91652507D01*
X64499203Y-91646453D01*
X64494172Y-91647249D01*
X64285844Y-91855577D01*
X64279790Y-91867459D01*
X63717811Y-91867459D01*
X63719946Y-91864954D01*
X63715370Y-91856791D01*
X63511086Y-91652507D01*
X63499203Y-91646453D01*
X63494172Y-91647249D01*
X63285844Y-91855577D01*
X63279790Y-91867459D01*
X62717811Y-91867459D01*
X62719946Y-91864954D01*
X62715370Y-91856791D01*
X62511086Y-91652507D01*
X62499203Y-91646453D01*
X62494172Y-91647249D01*
X62285844Y-91855577D01*
X62279790Y-91867459D01*
X56730000Y-91867459D01*
X56730000Y-87829000D01*
X56748907Y-87770809D01*
X56798407Y-87734845D01*
X56829000Y-87730000D01*
X61073500Y-87730000D01*
X61131691Y-87748907D01*
G37*
%TD.AperFunction*%
%TD*%
%TA.AperFunction,Conductor*%
%TO.N,VCC*%
G36*
X35958736Y-48709685D02*
G01*
X36004491Y-48762489D01*
X36014435Y-48831647D01*
X35990923Y-48888365D01*
X35949714Y-48943350D01*
X35941317Y-48958689D01*
X35896871Y-49077247D01*
X35893303Y-49092256D01*
X35887863Y-49142331D01*
X35887500Y-49149028D01*
X35887500Y-50125170D01*
X35891904Y-50140169D01*
X35893274Y-50141356D01*
X35900832Y-50143000D01*
X37619670Y-50143000D01*
X37634669Y-50138596D01*
X37635856Y-50137226D01*
X37637500Y-50129668D01*
X37637500Y-49149028D01*
X37637137Y-49142331D01*
X37631697Y-49092256D01*
X37628129Y-49077247D01*
X37583683Y-48958689D01*
X37575286Y-48943350D01*
X37534077Y-48888365D01*
X37509624Y-48822915D01*
X37524438Y-48754633D01*
X37573816Y-48705201D01*
X37633303Y-48690000D01*
X37784500Y-48690000D01*
X37851539Y-48709685D01*
X37897294Y-48762489D01*
X37908500Y-48814000D01*
X37908500Y-52387753D01*
X37888815Y-52454792D01*
X37836011Y-52500547D01*
X37766853Y-52510491D01*
X37728205Y-52498238D01*
X37671345Y-52469266D01*
X37653005Y-52463308D01*
X37573803Y-52450764D01*
X37564101Y-52450000D01*
X37167830Y-52450000D01*
X37152831Y-52454404D01*
X37151644Y-52455774D01*
X37150000Y-52463332D01*
X37150000Y-53001000D01*
X37130315Y-53068039D01*
X37077511Y-53113794D01*
X37026000Y-53125000D01*
X36130331Y-53125000D01*
X36115332Y-53129404D01*
X36103117Y-53143501D01*
X36083360Y-53179682D01*
X36022037Y-53213166D01*
X35995680Y-53216000D01*
X34714355Y-53216000D01*
X34647316Y-53196315D01*
X34601561Y-53143511D01*
X34591617Y-53074353D01*
X34620642Y-53010797D01*
X34679420Y-52973023D01*
X34686672Y-52971130D01*
X34726546Y-52961998D01*
X34726548Y-52961997D01*
X34733832Y-52960329D01*
X34875355Y-52889151D01*
X34881036Y-52884299D01*
X34881039Y-52884297D01*
X34912800Y-52857170D01*
X36112500Y-52857170D01*
X36116904Y-52872169D01*
X36118274Y-52873356D01*
X36125832Y-52875000D01*
X36882170Y-52875000D01*
X36897169Y-52870596D01*
X36898356Y-52869226D01*
X36900000Y-52861668D01*
X36900000Y-52467831D01*
X36895596Y-52452832D01*
X36894226Y-52451645D01*
X36886668Y-52450001D01*
X36485891Y-52450001D01*
X36476211Y-52450763D01*
X36396987Y-52463309D01*
X36378660Y-52469264D01*
X36283150Y-52517929D01*
X36267553Y-52529261D01*
X36191761Y-52605053D01*
X36180429Y-52620650D01*
X36131766Y-52716155D01*
X36125808Y-52734495D01*
X36113264Y-52813697D01*
X36112500Y-52823399D01*
X36112500Y-52857170D01*
X34912800Y-52857170D01*
X34990132Y-52791122D01*
X34995814Y-52786269D01*
X35088255Y-52657624D01*
X35147342Y-52510641D01*
X35150201Y-52490553D01*
X35169090Y-52357830D01*
X35169091Y-52357822D01*
X35169662Y-52353807D01*
X35169807Y-52340000D01*
X35158277Y-52244720D01*
X35162578Y-52194295D01*
X35172610Y-52160749D01*
X35174416Y-52155190D01*
X35188931Y-52113859D01*
X35191516Y-52106498D01*
X35192000Y-52100909D01*
X35192000Y-52098218D01*
X35192115Y-52095559D01*
X35192308Y-52095567D01*
X35192362Y-52094705D01*
X35194225Y-52088476D01*
X35192096Y-52034297D01*
X35192000Y-52029428D01*
X35192000Y-51888773D01*
X35211685Y-51821734D01*
X35264489Y-51775979D01*
X35272472Y-51772664D01*
X35284862Y-51768019D01*
X35284866Y-51768017D01*
X35293135Y-51764917D01*
X35403044Y-51682544D01*
X35485417Y-51572635D01*
X35488515Y-51564370D01*
X35488517Y-51564367D01*
X35530902Y-51451300D01*
X35533630Y-51444024D01*
X35539828Y-51386972D01*
X35887500Y-51386972D01*
X35887863Y-51393669D01*
X35893303Y-51443744D01*
X35896871Y-51458753D01*
X35941317Y-51577311D01*
X35949712Y-51592646D01*
X36025016Y-51693124D01*
X36037376Y-51705484D01*
X36137854Y-51780788D01*
X36153189Y-51789183D01*
X36271747Y-51833629D01*
X36286756Y-51837197D01*
X36336831Y-51842637D01*
X36343528Y-51843000D01*
X36619670Y-51843000D01*
X36634669Y-51838596D01*
X36635856Y-51837226D01*
X36637500Y-51829668D01*
X36637500Y-51825170D01*
X36887500Y-51825170D01*
X36891904Y-51840169D01*
X36893274Y-51841356D01*
X36900832Y-51843000D01*
X37181472Y-51843000D01*
X37188169Y-51842637D01*
X37238244Y-51837197D01*
X37253253Y-51833629D01*
X37371811Y-51789183D01*
X37387146Y-51780788D01*
X37487624Y-51705484D01*
X37499984Y-51693124D01*
X37575288Y-51592646D01*
X37583683Y-51577311D01*
X37628129Y-51458753D01*
X37631697Y-51443744D01*
X37637137Y-51393669D01*
X37637500Y-51386972D01*
X37637500Y-50410830D01*
X37633096Y-50395831D01*
X37631726Y-50394644D01*
X37624168Y-50393000D01*
X36905330Y-50393000D01*
X36890331Y-50397404D01*
X36889144Y-50398774D01*
X36887500Y-50406332D01*
X36887500Y-51825170D01*
X36637500Y-51825170D01*
X36637500Y-50410830D01*
X36633096Y-50395831D01*
X36631726Y-50394644D01*
X36624168Y-50393000D01*
X35905330Y-50393000D01*
X35890331Y-50397404D01*
X35889144Y-50398774D01*
X35887500Y-50406332D01*
X35887500Y-51386972D01*
X35539828Y-51386972D01*
X35540000Y-51385389D01*
X35539999Y-50844612D01*
X35533630Y-50785976D01*
X35521074Y-50752483D01*
X35488517Y-50665633D01*
X35488515Y-50665630D01*
X35485417Y-50657365D01*
X35403044Y-50547456D01*
X35293135Y-50465083D01*
X35284869Y-50461984D01*
X35284863Y-50461981D01*
X35262786Y-50453705D01*
X35206923Y-50411741D01*
X35182615Y-50346235D01*
X35197581Y-50277987D01*
X35247069Y-50228665D01*
X35262789Y-50221486D01*
X35282677Y-50214031D01*
X35298025Y-50205628D01*
X35392761Y-50134628D01*
X35405128Y-50122261D01*
X35476128Y-50027525D01*
X35484532Y-50012175D01*
X35526460Y-49900329D01*
X35530030Y-49885320D01*
X35535137Y-49838303D01*
X35535500Y-49831606D01*
X35535500Y-49707830D01*
X35531096Y-49692831D01*
X35529726Y-49691644D01*
X35522168Y-49690000D01*
X34809500Y-49690000D01*
X34742461Y-49670315D01*
X34696706Y-49617511D01*
X34685500Y-49566000D01*
X34685500Y-49564000D01*
X34705185Y-49496961D01*
X34757989Y-49451206D01*
X34809500Y-49440000D01*
X35517670Y-49440000D01*
X35532669Y-49435596D01*
X35533856Y-49434226D01*
X35535500Y-49426668D01*
X35535500Y-49298394D01*
X35535137Y-49291697D01*
X35530030Y-49244680D01*
X35526460Y-49229671D01*
X35484532Y-49117825D01*
X35476128Y-49102475D01*
X35405128Y-49007739D01*
X35392761Y-48995372D01*
X35298022Y-48924369D01*
X35295093Y-48922766D01*
X35292753Y-48920421D01*
X35290952Y-48919071D01*
X35291147Y-48918811D01*
X35245743Y-48873305D01*
X35230967Y-48805016D01*
X35255457Y-48739579D01*
X35311437Y-48697770D01*
X35354641Y-48690000D01*
X35891697Y-48690000D01*
X35958736Y-48709685D01*
G37*
%TD.AperFunction*%
%TD*%
%TA.AperFunction,Conductor*%
%TO.N,Net-(C5-Pad2)*%
G36*
X36134824Y-54351502D02*
G01*
X36181317Y-54405158D01*
X36191421Y-54475432D01*
X36178970Y-54514703D01*
X36127985Y-54614768D01*
X36121933Y-54633393D01*
X36120721Y-54641046D01*
X36090309Y-54705199D01*
X36030042Y-54742726D01*
X35959052Y-54741713D01*
X35921413Y-54722688D01*
X35853916Y-54672834D01*
X35837451Y-54664116D01*
X35724777Y-54624548D01*
X35709886Y-54621281D01*
X35688701Y-54619279D01*
X35682787Y-54619000D01*
X35576615Y-54619000D01*
X35561376Y-54623475D01*
X35560171Y-54624865D01*
X35558500Y-54632548D01*
X35558500Y-56058884D01*
X35562975Y-56074123D01*
X35564365Y-56075328D01*
X35572048Y-56076999D01*
X35682783Y-56076999D01*
X35688707Y-56076720D01*
X35709882Y-56074719D01*
X35724780Y-56071451D01*
X35837451Y-56031884D01*
X35853920Y-56023163D01*
X35948578Y-55953248D01*
X35961748Y-55940078D01*
X36031663Y-55845420D01*
X36040384Y-55828951D01*
X36079952Y-55716277D01*
X36083219Y-55701386D01*
X36085221Y-55680201D01*
X36085500Y-55674287D01*
X36085500Y-55490734D01*
X36105502Y-55422613D01*
X36159158Y-55376120D01*
X36229432Y-55366016D01*
X36271059Y-55382912D01*
X36272075Y-55380917D01*
X36377268Y-55434515D01*
X36395892Y-55440567D01*
X36475815Y-55453225D01*
X36485658Y-55454000D01*
X36512500Y-55454000D01*
X36580621Y-55474002D01*
X36627114Y-55527658D01*
X36638500Y-55580000D01*
X36638500Y-57364317D01*
X36618498Y-57432438D01*
X36564842Y-57478931D01*
X36494568Y-57489035D01*
X36429988Y-57459541D01*
X36411149Y-57439176D01*
X36343748Y-57347922D01*
X36330578Y-57334752D01*
X36235920Y-57264837D01*
X36219451Y-57256116D01*
X36106777Y-57216548D01*
X36091886Y-57213281D01*
X36070701Y-57211279D01*
X36064787Y-57211000D01*
X35958615Y-57211000D01*
X35943376Y-57215475D01*
X35942171Y-57216865D01*
X35940500Y-57224548D01*
X35940500Y-58618619D01*
X35928726Y-58658717D01*
X35945012Y-58666155D01*
X35947012Y-58667888D01*
X35985396Y-58727614D01*
X35990500Y-58763113D01*
X35990500Y-60150885D01*
X35994975Y-60166124D01*
X35996365Y-60167329D01*
X36004048Y-60169000D01*
X36130427Y-60169000D01*
X36137241Y-60168631D01*
X36184566Y-60163490D01*
X36199811Y-60159865D01*
X36312488Y-60117625D01*
X36328075Y-60109092D01*
X36430687Y-60032187D01*
X36431489Y-60033257D01*
X36485717Y-60003645D01*
X36556532Y-60008710D01*
X36613368Y-60051257D01*
X36638179Y-60117777D01*
X36638500Y-60126766D01*
X36638500Y-60302000D01*
X36618498Y-60370121D01*
X36564842Y-60416614D01*
X36512500Y-60428000D01*
X34986500Y-60428000D01*
X34918379Y-60407998D01*
X34871886Y-60354342D01*
X34860500Y-60302000D01*
X34860500Y-59731927D01*
X35159500Y-59731927D01*
X35159869Y-59738741D01*
X35165010Y-59786066D01*
X35168635Y-59801311D01*
X35210875Y-59913988D01*
X35219408Y-59929575D01*
X35290934Y-60025010D01*
X35303490Y-60037566D01*
X35398925Y-60109092D01*
X35414512Y-60117625D01*
X35527189Y-60159865D01*
X35542434Y-60163490D01*
X35589759Y-60168631D01*
X35596573Y-60169000D01*
X35718385Y-60169000D01*
X35733624Y-60164525D01*
X35734829Y-60163135D01*
X35736500Y-60155452D01*
X35736500Y-59585115D01*
X35732025Y-59569876D01*
X35730635Y-59568671D01*
X35722952Y-59567000D01*
X35177615Y-59567000D01*
X35162376Y-59571475D01*
X35161171Y-59572865D01*
X35159500Y-59580548D01*
X35159500Y-59731927D01*
X34860500Y-59731927D01*
X34860500Y-59294885D01*
X35159500Y-59294885D01*
X35163975Y-59310124D01*
X35165365Y-59311329D01*
X35173048Y-59313000D01*
X35718385Y-59313000D01*
X35733624Y-59308525D01*
X35734829Y-59307135D01*
X35736500Y-59299452D01*
X35736500Y-58761380D01*
X35748274Y-58721282D01*
X35731988Y-58713844D01*
X35729988Y-58712111D01*
X35691604Y-58652385D01*
X35686500Y-58616886D01*
X35686500Y-58085115D01*
X35682025Y-58069876D01*
X35680635Y-58068671D01*
X35672952Y-58067000D01*
X35177616Y-58067000D01*
X35162377Y-58071475D01*
X35161172Y-58072865D01*
X35159501Y-58080548D01*
X35159501Y-58266283D01*
X35159780Y-58272207D01*
X35161781Y-58293382D01*
X35165049Y-58308280D01*
X35204616Y-58420951D01*
X35213337Y-58437420D01*
X35283252Y-58532078D01*
X35296418Y-58545244D01*
X35363473Y-58594771D01*
X35406384Y-58651332D01*
X35411904Y-58722114D01*
X35378281Y-58784644D01*
X35364180Y-58796949D01*
X35303490Y-58842434D01*
X35290934Y-58854990D01*
X35219408Y-58950425D01*
X35210875Y-58966012D01*
X35168635Y-59078689D01*
X35165010Y-59093934D01*
X35159869Y-59141259D01*
X35159500Y-59148073D01*
X35159500Y-59294885D01*
X34860500Y-59294885D01*
X34860500Y-57794885D01*
X35159500Y-57794885D01*
X35163975Y-57810124D01*
X35165365Y-57811329D01*
X35173048Y-57813000D01*
X35668385Y-57813000D01*
X35683624Y-57808525D01*
X35684829Y-57807135D01*
X35686500Y-57799452D01*
X35686500Y-57229116D01*
X35682025Y-57213877D01*
X35680635Y-57212672D01*
X35672952Y-57211001D01*
X35562217Y-57211001D01*
X35556293Y-57211280D01*
X35535118Y-57213281D01*
X35520220Y-57216549D01*
X35407549Y-57256116D01*
X35391080Y-57264837D01*
X35296422Y-57334752D01*
X35283252Y-57347922D01*
X35213337Y-57442580D01*
X35204616Y-57459049D01*
X35165048Y-57571723D01*
X35161781Y-57586614D01*
X35159779Y-57607799D01*
X35159500Y-57613713D01*
X35159500Y-57794885D01*
X34860500Y-57794885D01*
X34860500Y-56151714D01*
X34880502Y-56083593D01*
X34934158Y-56037100D01*
X35004432Y-56026996D01*
X35028249Y-56032832D01*
X35138218Y-56071451D01*
X35153114Y-56074719D01*
X35174299Y-56076721D01*
X35180213Y-56077000D01*
X35286385Y-56077000D01*
X35301624Y-56072525D01*
X35302829Y-56071135D01*
X35304500Y-56063452D01*
X35304500Y-54637116D01*
X35300025Y-54621877D01*
X35278226Y-54602988D01*
X35256237Y-54590982D01*
X35222210Y-54528671D01*
X35227272Y-54457855D01*
X35256234Y-54412788D01*
X35300617Y-54368405D01*
X35362929Y-54334379D01*
X35389712Y-54331500D01*
X36066703Y-54331500D01*
X36134824Y-54351502D01*
G37*
%TD.AperFunction*%
%TD*%
M02*
