%TF.GenerationSoftware,KiCad,Pcbnew,(6.0.2-0)*%
%TF.CreationDate,2023-01-12T00:58:35-06:00*%
%TF.ProjectId,cosmic_watch_remix_V1,636f736d-6963-45f7-9761-7463685f7265,rev?*%
%TF.SameCoordinates,Original*%
%TF.FileFunction,Soldermask,Bot*%
%TF.FilePolarity,Negative*%
%FSLAX46Y46*%
G04 Gerber Fmt 4.6, Leading zero omitted, Abs format (unit mm)*
G04 Created by KiCad (PCBNEW (6.0.2-0)) date 2023-01-12 00:58:35*
%MOMM*%
%LPD*%
G01*
G04 APERTURE LIST*
%ADD10C,5.000000*%
G04 APERTURE END LIST*
D10*
%TO.C,*%
X36000000Y-122000000D03*
%TD*%
%TO.C,*%
X92000000Y-66000000D03*
%TD*%
%TO.C,*%
X92000000Y-122000000D03*
%TD*%
%TO.C,*%
X36000000Y-66000000D03*
%TD*%
G36*
X28442121Y-134520002D02*
G01*
X28488614Y-134573658D01*
X28500000Y-134626000D01*
X28500000Y-139374000D01*
X28479998Y-139442121D01*
X28426342Y-139488614D01*
X28374000Y-139500000D01*
X22052190Y-139500000D01*
X21984069Y-139479998D01*
X21963095Y-139463095D01*
X20536905Y-138036905D01*
X20502879Y-137974593D01*
X20500000Y-137947810D01*
X20500000Y-137121781D01*
X21788843Y-137121781D01*
X21789471Y-137131709D01*
X21823378Y-137368565D01*
X21825559Y-137378262D01*
X21896328Y-137606838D01*
X21900008Y-137616069D01*
X22005868Y-137830650D01*
X22010960Y-137839197D01*
X22149281Y-138034446D01*
X22155640Y-138042066D01*
X22322978Y-138213119D01*
X22330457Y-138219643D01*
X22522627Y-138362221D01*
X22531050Y-138367493D01*
X22743262Y-138478043D01*
X22752405Y-138481922D01*
X22979371Y-138557692D01*
X22989026Y-138560087D01*
X23225180Y-138599202D01*
X23234882Y-138600044D01*
X25977446Y-138624984D01*
X25982939Y-138624793D01*
X26225559Y-138605698D01*
X26235306Y-138604155D01*
X26469813Y-138547854D01*
X26479198Y-138544805D01*
X26702009Y-138452514D01*
X26710803Y-138448033D01*
X26916437Y-138322020D01*
X26924419Y-138316220D01*
X27107807Y-138159593D01*
X27114782Y-138152618D01*
X27271409Y-137969230D01*
X27277209Y-137961248D01*
X27403222Y-137755614D01*
X27407703Y-137746820D01*
X27499994Y-137524009D01*
X27503043Y-137514624D01*
X27559344Y-137280117D01*
X27560887Y-137270370D01*
X27579810Y-137029939D01*
X27579810Y-137020079D01*
X27560887Y-136779648D01*
X27559344Y-136769901D01*
X27503043Y-136535394D01*
X27499994Y-136526009D01*
X27407703Y-136303198D01*
X27403222Y-136294404D01*
X27277209Y-136088770D01*
X27271409Y-136080788D01*
X27114782Y-135897400D01*
X27107807Y-135890425D01*
X26924419Y-135733798D01*
X26916437Y-135727998D01*
X26710803Y-135601985D01*
X26702009Y-135597504D01*
X26479198Y-135505213D01*
X26469813Y-135502164D01*
X26235306Y-135445863D01*
X26225559Y-135444320D01*
X25982952Y-135425226D01*
X25977428Y-135425035D01*
X23283852Y-135450756D01*
X23276134Y-135451305D01*
X23037841Y-135483043D01*
X23028144Y-135485124D01*
X22798870Y-135553660D01*
X22789615Y-135557244D01*
X22574003Y-135661005D01*
X22565411Y-135666010D01*
X22368813Y-135802420D01*
X22361137Y-135808698D01*
X22188451Y-135974359D01*
X22181856Y-135981771D01*
X22037408Y-136172535D01*
X22032050Y-136180911D01*
X21919429Y-136392035D01*
X21915463Y-136401135D01*
X21837473Y-136627360D01*
X21834990Y-136636967D01*
X21793581Y-136872647D01*
X21792640Y-136882532D01*
X21788843Y-137121781D01*
X20500000Y-137121781D01*
X20500000Y-134626000D01*
X20520002Y-134557879D01*
X20573658Y-134511386D01*
X20626000Y-134500000D01*
X28374000Y-134500000D01*
X28442121Y-134520002D01*
G37*
G36*
X27515931Y-48520002D02*
G01*
X27536905Y-48536905D01*
X28963095Y-49963095D01*
X28997121Y-50025407D01*
X29000000Y-50052190D01*
X29000000Y-52947810D01*
X28979998Y-53015931D01*
X28963095Y-53036905D01*
X27536905Y-54463095D01*
X27474593Y-54497121D01*
X27447810Y-54500000D01*
X20626000Y-54500000D01*
X20557879Y-54479998D01*
X20511386Y-54426342D01*
X20500000Y-54374000D01*
X20500000Y-51461772D01*
X21818645Y-51461772D01*
X21819273Y-51471700D01*
X21853180Y-51708556D01*
X21855361Y-51718253D01*
X21926130Y-51946829D01*
X21929810Y-51956060D01*
X22035670Y-52170641D01*
X22040762Y-52179188D01*
X22179083Y-52374437D01*
X22185442Y-52382057D01*
X22352780Y-52553110D01*
X22360259Y-52559634D01*
X22552429Y-52702212D01*
X22560852Y-52707484D01*
X22773064Y-52818034D01*
X22782207Y-52821913D01*
X23009173Y-52897683D01*
X23018828Y-52900078D01*
X23254982Y-52939193D01*
X23264684Y-52940035D01*
X26007248Y-52964975D01*
X26012741Y-52964784D01*
X26255361Y-52945689D01*
X26265108Y-52944146D01*
X26499615Y-52887845D01*
X26509000Y-52884796D01*
X26731811Y-52792505D01*
X26740605Y-52788024D01*
X26946239Y-52662011D01*
X26954221Y-52656211D01*
X27137609Y-52499584D01*
X27144584Y-52492609D01*
X27301211Y-52309221D01*
X27307011Y-52301239D01*
X27433024Y-52095605D01*
X27437505Y-52086811D01*
X27529796Y-51864000D01*
X27532845Y-51854615D01*
X27589146Y-51620108D01*
X27590689Y-51610361D01*
X27609612Y-51369930D01*
X27609612Y-51360070D01*
X27590689Y-51119639D01*
X27589146Y-51109892D01*
X27532845Y-50875385D01*
X27529796Y-50866000D01*
X27437505Y-50643189D01*
X27433024Y-50634395D01*
X27307011Y-50428761D01*
X27301211Y-50420779D01*
X27144584Y-50237391D01*
X27137609Y-50230416D01*
X26954221Y-50073789D01*
X26946239Y-50067989D01*
X26740605Y-49941976D01*
X26731811Y-49937495D01*
X26509000Y-49845204D01*
X26499615Y-49842155D01*
X26265108Y-49785854D01*
X26255361Y-49784311D01*
X26012754Y-49765217D01*
X26007230Y-49765026D01*
X23313654Y-49790747D01*
X23305936Y-49791296D01*
X23067643Y-49823034D01*
X23057946Y-49825115D01*
X22828672Y-49893651D01*
X22819417Y-49897235D01*
X22603805Y-50000996D01*
X22595213Y-50006001D01*
X22398615Y-50142411D01*
X22390939Y-50148689D01*
X22218253Y-50314350D01*
X22211658Y-50321762D01*
X22067210Y-50512526D01*
X22061852Y-50520902D01*
X21949231Y-50732026D01*
X21945265Y-50741126D01*
X21867275Y-50967351D01*
X21864792Y-50976958D01*
X21823383Y-51212638D01*
X21822442Y-51222523D01*
X21818645Y-51461772D01*
X20500000Y-51461772D01*
X20500000Y-48626000D01*
X20520002Y-48557879D01*
X20573658Y-48511386D01*
X20626000Y-48500000D01*
X27447810Y-48500000D01*
X27515931Y-48520002D01*
G37*
G36*
X105015931Y-48520002D02*
G01*
X105036905Y-48536905D01*
X106463095Y-49963095D01*
X106497121Y-50025407D01*
X106500000Y-50052190D01*
X106500000Y-52947810D01*
X106479998Y-53015931D01*
X106463095Y-53036905D01*
X105036905Y-54463095D01*
X104974593Y-54497121D01*
X104947810Y-54500000D01*
X96626000Y-54500000D01*
X96557879Y-54479998D01*
X96511386Y-54426342D01*
X96500000Y-54374000D01*
X96500000Y-51270002D01*
X98035515Y-51270002D01*
X98050713Y-51509146D01*
X98052134Y-51519028D01*
X98104926Y-51752768D01*
X98107888Y-51762295D01*
X98196950Y-51984761D01*
X98201377Y-51993693D01*
X98324469Y-52199292D01*
X98330263Y-52207428D01*
X98484290Y-52390989D01*
X98491284Y-52398096D01*
X98672387Y-52555023D01*
X98680421Y-52560939D01*
X98884039Y-52687276D01*
X98892910Y-52691850D01*
X99113939Y-52784432D01*
X99123406Y-52787541D01*
X99356280Y-52844035D01*
X99366136Y-52845613D01*
X99607930Y-52864835D01*
X99612087Y-52865027D01*
X103457104Y-52914962D01*
X103462879Y-52914773D01*
X103705361Y-52895689D01*
X103715108Y-52894146D01*
X103949615Y-52837845D01*
X103959000Y-52834796D01*
X104181811Y-52742505D01*
X104190605Y-52738024D01*
X104396239Y-52612011D01*
X104404221Y-52606211D01*
X104587609Y-52449584D01*
X104594584Y-52442609D01*
X104751211Y-52259221D01*
X104757011Y-52251239D01*
X104883024Y-52045605D01*
X104887505Y-52036811D01*
X104979796Y-51814000D01*
X104982845Y-51804615D01*
X105039146Y-51570108D01*
X105040689Y-51560361D01*
X105059612Y-51319930D01*
X105059612Y-51310070D01*
X105040689Y-51069639D01*
X105039146Y-51059892D01*
X104982845Y-50825385D01*
X104979796Y-50816000D01*
X104887505Y-50593189D01*
X104883024Y-50584395D01*
X104757011Y-50378761D01*
X104751211Y-50370779D01*
X104594584Y-50187391D01*
X104587609Y-50180416D01*
X104404221Y-50023789D01*
X104396239Y-50017989D01*
X104190605Y-49891976D01*
X104181811Y-49887495D01*
X103959000Y-49795204D01*
X103949615Y-49792155D01*
X103715108Y-49735854D01*
X103705361Y-49734311D01*
X103462475Y-49715195D01*
X103457512Y-49715001D01*
X99661477Y-49715793D01*
X99658468Y-49715865D01*
X99415614Y-49727433D01*
X99405727Y-49728695D01*
X99171173Y-49777773D01*
X99161601Y-49780583D01*
X98937744Y-49866106D01*
X98928747Y-49870388D01*
X98721212Y-49990209D01*
X98713004Y-49995859D01*
X98527006Y-50146966D01*
X98519795Y-50153842D01*
X98360017Y-50332430D01*
X98353970Y-50340375D01*
X98224416Y-50541964D01*
X98219708Y-50550750D01*
X98123626Y-50770291D01*
X98120370Y-50779700D01*
X98060184Y-51011662D01*
X98058452Y-51021486D01*
X98035674Y-51260027D01*
X98035515Y-51270002D01*
X96500000Y-51270002D01*
X96500000Y-48626000D01*
X96520002Y-48557879D01*
X96573658Y-48511386D01*
X96626000Y-48500000D01*
X104947810Y-48500000D01*
X105015931Y-48520002D01*
G37*
G36*
X106442121Y-134520002D02*
G01*
X106488614Y-134573658D01*
X106500000Y-134626000D01*
X106500000Y-137743332D01*
X106483935Y-137804898D01*
X106316682Y-138103550D01*
X106311512Y-138111986D01*
X106164355Y-138332222D01*
X106148685Y-138351315D01*
X105036905Y-139463095D01*
X104974593Y-139497121D01*
X104947810Y-139500000D01*
X97126000Y-139500000D01*
X97057879Y-139479998D01*
X97011386Y-139426342D01*
X97000000Y-139374000D01*
X97000000Y-137014606D01*
X98005528Y-137014606D01*
X98020726Y-137253750D01*
X98022147Y-137263632D01*
X98074940Y-137497373D01*
X98077900Y-137506892D01*
X98166964Y-137729368D01*
X98171391Y-137738299D01*
X98294482Y-137943896D01*
X98300276Y-137952032D01*
X98454303Y-138135593D01*
X98461297Y-138142700D01*
X98642400Y-138299627D01*
X98650434Y-138305543D01*
X98854052Y-138431880D01*
X98862923Y-138436454D01*
X99083952Y-138529036D01*
X99093419Y-138532145D01*
X99326293Y-138588639D01*
X99336149Y-138590217D01*
X99577943Y-138609439D01*
X99582100Y-138609631D01*
X103427117Y-138659566D01*
X103432892Y-138659377D01*
X103675374Y-138640293D01*
X103685121Y-138638750D01*
X103919628Y-138582449D01*
X103929013Y-138579400D01*
X104151824Y-138487109D01*
X104160618Y-138482628D01*
X104366252Y-138356615D01*
X104374234Y-138350815D01*
X104557622Y-138194188D01*
X104564597Y-138187213D01*
X104721224Y-138003825D01*
X104727024Y-137995843D01*
X104853037Y-137790209D01*
X104857518Y-137781415D01*
X104949809Y-137558604D01*
X104952858Y-137549219D01*
X105009159Y-137314712D01*
X105010702Y-137304965D01*
X105029625Y-137064534D01*
X105029625Y-137054674D01*
X105010702Y-136814243D01*
X105009159Y-136804496D01*
X104952858Y-136569989D01*
X104949809Y-136560604D01*
X104857518Y-136337793D01*
X104853037Y-136328999D01*
X104727024Y-136123365D01*
X104721224Y-136115383D01*
X104564597Y-135931995D01*
X104557622Y-135925020D01*
X104374234Y-135768393D01*
X104366252Y-135762593D01*
X104160618Y-135636580D01*
X104151824Y-135632099D01*
X103929013Y-135539808D01*
X103919628Y-135536759D01*
X103685121Y-135480458D01*
X103675374Y-135478915D01*
X103432488Y-135459799D01*
X103427525Y-135459605D01*
X99631490Y-135460397D01*
X99628481Y-135460469D01*
X99385627Y-135472037D01*
X99375740Y-135473299D01*
X99141186Y-135522377D01*
X99131614Y-135525187D01*
X98907757Y-135610710D01*
X98898760Y-135614992D01*
X98691225Y-135734813D01*
X98683017Y-135740463D01*
X98497019Y-135891570D01*
X98489808Y-135898446D01*
X98330030Y-136077034D01*
X98323983Y-136084979D01*
X98194429Y-136286568D01*
X98189721Y-136295354D01*
X98093639Y-136514895D01*
X98090383Y-136524304D01*
X98030197Y-136756266D01*
X98028465Y-136766090D01*
X98005687Y-137004631D01*
X98005528Y-137014606D01*
X97000000Y-137014606D01*
X97000000Y-134626000D01*
X97020002Y-134557879D01*
X97073658Y-134511386D01*
X97126000Y-134500000D01*
X106374000Y-134500000D01*
X106442121Y-134520002D01*
G37*
M02*
