%TF.GenerationSoftware,KiCad,Pcbnew,(6.0.2-0)*%
%TF.CreationDate,2023-01-12T00:58:35-06:00*%
%TF.ProjectId,cosmic_watch_remix_V1,636f736d-6963-45f7-9761-7463685f7265,rev?*%
%TF.SameCoordinates,Original*%
%TF.FileFunction,Paste,Top*%
%TF.FilePolarity,Positive*%
%FSLAX46Y46*%
G04 Gerber Fmt 4.6, Leading zero omitted, Abs format (unit mm)*
G04 Created by KiCad (PCBNEW (6.0.2-0)) date 2023-01-12 00:58:35*
%MOMM*%
%LPD*%
G01*
G04 APERTURE LIST*
G04 Aperture macros list*
%AMRoundRect*
0 Rectangle with rounded corners*
0 $1 Rounding radius*
0 $2 $3 $4 $5 $6 $7 $8 $9 X,Y pos of 4 corners*
0 Add a 4 corners polygon primitive as box body*
4,1,4,$2,$3,$4,$5,$6,$7,$8,$9,$2,$3,0*
0 Add four circle primitives for the rounded corners*
1,1,$1+$1,$2,$3*
1,1,$1+$1,$4,$5*
1,1,$1+$1,$6,$7*
1,1,$1+$1,$8,$9*
0 Add four rect primitives between the rounded corners*
20,1,$1+$1,$2,$3,$4,$5,0*
20,1,$1+$1,$4,$5,$6,$7,0*
20,1,$1+$1,$6,$7,$8,$9,0*
20,1,$1+$1,$8,$9,$2,$3,0*%
G04 Aperture macros list end*
%ADD10RoundRect,0.200000X0.200000X0.275000X-0.200000X0.275000X-0.200000X-0.275000X0.200000X-0.275000X0*%
%ADD11RoundRect,0.230000X0.375000X-0.230000X0.375000X0.230000X-0.375000X0.230000X-0.375000X-0.230000X0*%
%ADD12RoundRect,0.150000X0.150000X-0.825000X0.150000X0.825000X-0.150000X0.825000X-0.150000X-0.825000X0*%
%ADD13RoundRect,0.200000X-0.200000X-0.275000X0.200000X-0.275000X0.200000X0.275000X-0.200000X0.275000X0*%
%ADD14RoundRect,0.225000X-0.250000X0.225000X-0.250000X-0.225000X0.250000X-0.225000X0.250000X0.225000X0*%
%ADD15RoundRect,0.150000X-0.350000X0.150000X-0.350000X-0.150000X0.350000X-0.150000X0.350000X0.150000X0*%
%ADD16RoundRect,0.250000X-0.650000X0.375000X-0.650000X-0.375000X0.650000X-0.375000X0.650000X0.375000X0*%
%ADD17RoundRect,0.200000X0.275000X-0.200000X0.275000X0.200000X-0.275000X0.200000X-0.275000X-0.200000X0*%
%ADD18R,0.450000X0.600000*%
%ADD19RoundRect,0.225000X-0.225000X-0.250000X0.225000X-0.250000X0.225000X0.250000X-0.225000X0.250000X0*%
%ADD20C,0.260000*%
%ADD21R,0.600000X0.450000*%
%ADD22RoundRect,0.150000X-0.512500X-0.150000X0.512500X-0.150000X0.512500X0.150000X-0.512500X0.150000X0*%
%ADD23RoundRect,0.225000X0.225000X0.250000X-0.225000X0.250000X-0.225000X-0.250000X0.225000X-0.250000X0*%
%ADD24R,0.250000X1.100000*%
%ADD25RoundRect,0.250000X-0.375000X-1.075000X0.375000X-1.075000X0.375000X1.075000X-0.375000X1.075000X0*%
G04 APERTURE END LIST*
D10*
%TO.C,R5*%
X35431500Y-55348000D03*
X33781500Y-55348000D03*
%TD*%
D11*
%TO.C,U2*%
X27750000Y-108430000D03*
X26250000Y-109570000D03*
X27750000Y-109570000D03*
X26250000Y-108430000D03*
D12*
X25095000Y-111475000D03*
X26365000Y-111475000D03*
X27635000Y-111475000D03*
X28905000Y-111475000D03*
X28905000Y-106525000D03*
X27635000Y-106525000D03*
X26365000Y-106525000D03*
X25095000Y-106525000D03*
%TD*%
D10*
%TO.C,R2*%
X26375000Y-81190000D03*
X24725000Y-81190000D03*
%TD*%
D13*
%TO.C,R3*%
X24555000Y-72780000D03*
X26205000Y-72780000D03*
%TD*%
D14*
%TO.C,C8*%
X48068500Y-54065000D03*
X48068500Y-55615000D03*
%TD*%
%TO.C,C6*%
X42035500Y-54065000D03*
X42035500Y-55615000D03*
%TD*%
D13*
%TO.C,R4*%
X25405000Y-71260000D03*
X27055000Y-71260000D03*
%TD*%
%TO.C,R7*%
X37845500Y-56440000D03*
X39495500Y-56440000D03*
%TD*%
D15*
%TO.C,J1*%
X29795000Y-91000000D03*
X29795000Y-92500000D03*
X29795000Y-94000000D03*
X29795000Y-95500000D03*
X29795000Y-97000000D03*
D16*
X24605000Y-99605000D03*
X24605000Y-88395000D03*
%TD*%
D10*
%TO.C,R10*%
X29821000Y-80990000D03*
X28171000Y-80990000D03*
%TD*%
%TO.C,R1*%
X24925000Y-74300000D03*
X23275000Y-74300000D03*
%TD*%
D17*
%TO.C,R8*%
X27635000Y-115200000D03*
X27635000Y-113550000D03*
%TD*%
D14*
%TO.C,C7*%
X43496500Y-54065000D03*
X43496500Y-55615000D03*
%TD*%
D18*
%TO.C,D1*%
X23200000Y-109750000D03*
X23200000Y-111850000D03*
%TD*%
D14*
%TO.C,C4*%
X34810500Y-49565000D03*
X34810500Y-51115000D03*
%TD*%
D19*
%TO.C,C1*%
X27875000Y-72790000D03*
X29425000Y-72790000D03*
%TD*%
D13*
%TO.C,R6*%
X35813500Y-57940000D03*
X37463500Y-57940000D03*
%TD*%
D20*
%TO.C,IC1*%
X61500000Y-91500000D03*
X62500000Y-91500000D03*
X63500000Y-91500000D03*
X64500000Y-91500000D03*
X65500000Y-91500000D03*
X66500000Y-91500000D03*
X61500000Y-92500000D03*
X62500000Y-92500000D03*
X63500000Y-92500000D03*
X64500000Y-92500000D03*
X65500000Y-92500000D03*
X66500000Y-92500000D03*
X61500000Y-93500000D03*
X62500000Y-93500000D03*
X63500000Y-93500000D03*
X64500000Y-93500000D03*
X65500000Y-93500000D03*
X66500000Y-93500000D03*
X61500000Y-94500000D03*
X62500000Y-94500000D03*
X63500000Y-94500000D03*
X64500000Y-94500000D03*
X65500000Y-94500000D03*
X66500000Y-94500000D03*
X61500000Y-95500000D03*
X62500000Y-95500000D03*
X63500000Y-95500000D03*
X64500000Y-95500000D03*
X65500000Y-95500000D03*
X66500000Y-95500000D03*
X61500000Y-96500000D03*
X62500000Y-96500000D03*
X63500000Y-96500000D03*
X64500000Y-96500000D03*
X65500000Y-96500000D03*
X66500000Y-96500000D03*
%TD*%
D17*
%TO.C,R9*%
X23500000Y-107625000D03*
X23500000Y-105975000D03*
%TD*%
D21*
%TO.C,D2*%
X24250000Y-103600000D03*
X26350000Y-103600000D03*
%TD*%
D22*
%TO.C,IC2*%
X37025000Y-53000000D03*
X37025000Y-53950000D03*
X37025000Y-54900000D03*
X39300000Y-54900000D03*
X39300000Y-53950000D03*
X39300000Y-53000000D03*
%TD*%
D19*
%TO.C,C9*%
X27900000Y-103585000D03*
X29450000Y-103585000D03*
%TD*%
D23*
%TO.C,C5*%
X37413500Y-59440000D03*
X35863500Y-59440000D03*
%TD*%
D24*
%TO.C,U1*%
X26600000Y-79450000D03*
X27100000Y-79450000D03*
X27600000Y-79450000D03*
X28100000Y-79450000D03*
X28600000Y-79450000D03*
X28600000Y-75150000D03*
X28100000Y-75150000D03*
X27600000Y-75150000D03*
X27100000Y-75150000D03*
X26600000Y-75150000D03*
%TD*%
D25*
%TO.C,L2*%
X36762500Y-50268000D03*
X39562500Y-50268000D03*
%TD*%
D13*
%TO.C,L3*%
X44957500Y-54078000D03*
X46607500Y-54078000D03*
%TD*%
M02*
