%TF.GenerationSoftware,KiCad,Pcbnew,7.0.1-0*%
%TF.CreationDate,2023-03-22T23:36:25-07:00*%
%TF.ProjectId,Cosmic_Watch_Rev7_Nano_Revised,436f736d-6963-45f5-9761-7463685f5265,6.1*%
%TF.SameCoordinates,Original*%
%TF.FileFunction,Copper,L2,Bot*%
%TF.FilePolarity,Positive*%
%FSLAX46Y46*%
G04 Gerber Fmt 4.6, Leading zero omitted, Abs format (unit mm)*
G04 Created by KiCad (PCBNEW 7.0.1-0) date 2023-03-22 23:36:25*
%MOMM*%
%LPD*%
G01*
G04 APERTURE LIST*
%TA.AperFunction,ComponentPad*%
%ADD10C,5.000000*%
%TD*%
%TA.AperFunction,ComponentPad*%
%ADD11C,1.778000*%
%TD*%
%TA.AperFunction,ComponentPad*%
%ADD12C,3.000000*%
%TD*%
%TA.AperFunction,ComponentPad*%
%ADD13C,3.200000*%
%TD*%
%TA.AperFunction,ComponentPad*%
%ADD14R,4.000000X4.000000*%
%TD*%
%TA.AperFunction,SMDPad,CuDef*%
%ADD15C,0.260000*%
%TD*%
%TA.AperFunction,ViaPad*%
%ADD16C,0.600000*%
%TD*%
%TA.AperFunction,ViaPad*%
%ADD17C,0.800000*%
%TD*%
%TA.AperFunction,Conductor*%
%ADD18C,0.250000*%
%TD*%
%TA.AperFunction,Conductor*%
%ADD19C,0.200000*%
%TD*%
%TA.AperFunction,Conductor*%
%ADD20C,0.508000*%
%TD*%
%TA.AperFunction,Conductor*%
%ADD21C,0.254000*%
%TD*%
G04 APERTURE END LIST*
D10*
%TO.P,,1*%
%TO.N,GND*%
X175320000Y-122080000D03*
%TD*%
D11*
%TO.P,,2*%
%TO.N,+5V*%
X162100000Y-111545000D03*
%TD*%
D12*
%TO.P,TP2,1,TP1*%
%TO.N,Net-(C7-Pad2)*%
X243736500Y-97408000D03*
%TD*%
D13*
%TO.P,U$9,P$1*%
%TO.N,N/C*%
X174800000Y-107100000D03*
%TD*%
D12*
%TO.P,TP3,1,TP1*%
%TO.N,Net-(R9-Pad2)*%
X243736500Y-91058000D03*
%TD*%
D14*
%TO.P,TP4,1*%
%TO.N,GND*%
X243800000Y-84200000D03*
%TD*%
D11*
%TO.P,,4*%
%TO.N,VCC*%
X162100000Y-106465000D03*
%TD*%
D10*
%TO.P,,1*%
%TO.N,GND*%
X231320000Y-122080000D03*
%TD*%
%TO.P,,1*%
%TO.N,GND*%
X175320000Y-66080000D03*
%TD*%
D12*
%TO.P,TP1,1,TP1*%
%TO.N,Net-(R4-Pad2)*%
X243736500Y-103758000D03*
%TD*%
D10*
%TO.P,,1*%
%TO.N,GND*%
X231320000Y-66080000D03*
%TD*%
D11*
%TO.P,,1*%
%TO.N,Net-(J1-Pad2)*%
X162100000Y-114085000D03*
%TD*%
%TO.P,,3*%
%TO.N,GND*%
X162100000Y-109005000D03*
%TD*%
D15*
%TO.P,IC1,A1,CATHODE_1*%
%TO.N,Net-(IC1-PadA1)*%
X205820000Y-91580000D03*
%TO.P,IC1,A2,NO_CONNECT_1*%
%TO.N,GND*%
X204820000Y-91580000D03*
%TO.P,IC1,A3,NO_CONNECT_2*%
X203820000Y-91580000D03*
%TO.P,IC1,A4,NO_CONNECT_3*%
X202820000Y-91580000D03*
%TO.P,IC1,A5,NO_CONNECT_4*%
X201820000Y-91580000D03*
%TO.P,IC1,A6,NO_CONNECT_5*%
X200820000Y-91580000D03*
%TO.P,IC1,B1,NO_CONNECT_6*%
X205820000Y-92580000D03*
%TO.P,IC1,B2,NO_CONNECT_7*%
X204820000Y-92580000D03*
%TO.P,IC1,B3,NO_CONNECT_8*%
X203820000Y-92580000D03*
%TO.P,IC1,B4,NO_CONNECT_9*%
X202820000Y-92580000D03*
%TO.P,IC1,B5,NO_CONNECT_10*%
X201820000Y-92580000D03*
%TO.P,IC1,B6,NO_CONNECT_11*%
X200820000Y-92580000D03*
%TO.P,IC1,C1,ANODE_1*%
%TO.N,N/C*%
X205820000Y-93580000D03*
%TO.P,IC1,C2,NO_CONNECT_12*%
%TO.N,GND*%
X204820000Y-93580000D03*
%TO.P,IC1,C3,NO_CONNECT_13*%
X203820000Y-93580000D03*
%TO.P,IC1,C4,NO_CONNECT_14*%
X202820000Y-93580000D03*
%TO.P,IC1,C5,NO_CONNECT_15*%
X201820000Y-93580000D03*
%TO.P,IC1,C6,FAST_OUTPUT_1*%
%TO.N,Net-(C18-Pad1)*%
X200820000Y-93580000D03*
%TO.P,IC1,D1,ANODE_2*%
%TO.N,N/C*%
X205820000Y-94580000D03*
%TO.P,IC1,D2,NO_CONNECT_16*%
%TO.N,GND*%
X204820000Y-94580000D03*
%TO.P,IC1,D3,NO_CONNECT_17*%
X203820000Y-94580000D03*
%TO.P,IC1,D4,NO_CONNECT_18*%
X202820000Y-94580000D03*
%TO.P,IC1,D5,NO_CONNECT_19*%
X201820000Y-94580000D03*
%TO.P,IC1,D6,FAST_OUTPUT_2*%
%TO.N,Net-(C18-Pad1)*%
X200820000Y-94580000D03*
%TO.P,IC1,E1,NO_CONNECT_20*%
%TO.N,GND*%
X205820000Y-95580000D03*
%TO.P,IC1,E2,NO_CONNECT_21*%
X204820000Y-95580000D03*
%TO.P,IC1,E3,NO_CONNECT_22*%
X203820000Y-95580000D03*
%TO.P,IC1,E4,NO_CONNECT_23*%
X202820000Y-95580000D03*
%TO.P,IC1,E5,NO_CONNECT_24*%
X201820000Y-95580000D03*
%TO.P,IC1,E6,NO_CONNECT_25*%
X200820000Y-95580000D03*
%TO.P,IC1,F1,NO_CONNECT_26*%
X205820000Y-96580000D03*
%TO.P,IC1,F2,NO_CONNECT_27*%
X204820000Y-96580000D03*
%TO.P,IC1,F3,NO_CONNECT_28*%
X203820000Y-96580000D03*
%TO.P,IC1,F4,NO_CONNECT_29*%
X202820000Y-96580000D03*
%TO.P,IC1,F5,NO_CONNECT_30*%
X201820000Y-96580000D03*
%TO.P,IC1,F6,CATHODE_2*%
%TO.N,Net-(IC1-PadA1)*%
X200820000Y-96580000D03*
%TD*%
D16*
%TO.N,GND*%
X209200000Y-83900000D03*
D17*
%TO.N,Net-(R9-Pad2)*%
X172200000Y-80800000D03*
X169566011Y-80800000D03*
X220000000Y-81000000D03*
%TO.N,Net-(C7-Pad2)*%
X206689000Y-65717300D03*
X218754000Y-67622300D03*
X212404000Y-67557800D03*
X236800000Y-93300000D03*
X217419500Y-75242300D03*
X209229000Y-65717300D03*
X218818500Y-73972300D03*
X218754000Y-65717300D03*
X236800000Y-87877800D03*
X212404000Y-68956800D03*
%TO.N,Net-(R4-Pad2)*%
X238500000Y-97000000D03*
X238300000Y-87600000D03*
%TO.N,GND*%
X215579000Y-68956800D03*
X217628872Y-68682928D03*
X212700000Y-61600000D03*
X208750000Y-99240000D03*
X225104000Y-78481800D03*
X162856000Y-80936000D03*
X216849000Y-65017800D03*
X167220000Y-78380000D03*
X223834000Y-72702300D03*
X169820000Y-97980000D03*
X216849000Y-67572100D03*
X232724000Y-93657300D03*
X197320000Y-99240000D03*
X168952000Y-71538000D03*
X224443600Y-76400000D03*
X232724000Y-91117300D03*
X233359000Y-97467300D03*
X197320000Y-89080000D03*
%TO.N,Net-(C7-Pad1)*%
X209229000Y-68257300D03*
X207077200Y-68075000D03*
X217484000Y-70797300D03*
X217419500Y-72702300D03*
%TO.N,Net-(C1-Pad2)*%
X212404000Y-91117300D03*
X210372000Y-87256500D03*
%TO.N,Net-(C1-Pad1)*%
X215655200Y-93250900D03*
X215147200Y-90202900D03*
%TO.N,Net-(IC1-PadA1)*%
X209700000Y-102600000D03*
X233294500Y-88577300D03*
X234693500Y-88577300D03*
X230248500Y-88577300D03*
X227579500Y-88577300D03*
%TO.N,VCC*%
X169566011Y-84680000D03*
X171472531Y-84680000D03*
%TO.N,Net-(D2-Pad2)*%
X214309000Y-68956800D03*
X214309000Y-67557800D03*
%TO.N,Net-(C14-Pad1)*%
X240979000Y-93592800D03*
X237104500Y-74607300D03*
X225739000Y-61272300D03*
X240979000Y-95562300D03*
X234654400Y-96197300D03*
X238503500Y-74607300D03*
X232266800Y-96197300D03*
X224143900Y-61272300D03*
%TO.N,+5V*%
X190000000Y-80000000D03*
X190000000Y-82000000D03*
X182000000Y-80000000D03*
X211032400Y-103862800D03*
X194000000Y-82000000D03*
X199000000Y-82000000D03*
X186000000Y-82000000D03*
X186000000Y-80000000D03*
X182000000Y-82000000D03*
X199000000Y-80000000D03*
X211083200Y-100870900D03*
X194000000Y-80000000D03*
%TO.N,Net-(D1-Pad2)*%
X220659000Y-78481800D03*
X220659000Y-76447800D03*
%TO.N,Net-(C18-Pad1)*%
X198460000Y-93110000D03*
%TD*%
D18*
%TO.N,Net-(R9-Pad2)*%
X172200000Y-80800000D02*
X169566011Y-80800000D01*
X239278500Y-86600000D02*
X231700000Y-86600000D01*
X243736500Y-91058000D02*
X239278500Y-86600000D01*
X220200000Y-80800000D02*
X220000000Y-81000000D01*
X226000000Y-80800000D02*
X220200000Y-80800000D01*
X226000000Y-80900000D02*
X226000000Y-80800000D01*
X231700000Y-86600000D02*
X226000000Y-80900000D01*
D19*
%TO.N,Net-(C7-Pad2)*%
X218754000Y-65717300D02*
X218754000Y-67622300D01*
D18*
X236800000Y-93300000D02*
X236800000Y-91400000D01*
X236800000Y-91400000D02*
X236800000Y-87877800D01*
D19*
X212404000Y-67557800D02*
X212404000Y-68956800D01*
X218728600Y-75242300D02*
X218818500Y-75152400D01*
X206689000Y-65717300D02*
X209229000Y-65717300D01*
X217419500Y-75242300D02*
X218728600Y-75242300D01*
X218818500Y-75152400D02*
X218818500Y-73972300D01*
%TO.N,Net-(R4-Pad2)*%
X238300000Y-87600000D02*
X238300000Y-96800000D01*
X238300000Y-96800000D02*
X238500000Y-97000000D01*
%TO.N,GND*%
X224469000Y-76447800D02*
X225104000Y-77082800D01*
X217628872Y-68682928D02*
X217355000Y-68956800D01*
X217355000Y-68956800D02*
X215579000Y-68956800D01*
X216849000Y-65017800D02*
X216849000Y-67572100D01*
X225104000Y-77082800D02*
X225104000Y-78481800D01*
X232724000Y-93657300D02*
X232724000Y-91117300D01*
%TO.N,Net-(C7-Pad1)*%
X207259500Y-68257300D02*
X207077200Y-68075000D01*
X217484000Y-70797300D02*
X217484000Y-72702300D01*
X209229000Y-68257300D02*
X207259500Y-68257300D01*
X217484000Y-72702300D02*
X217419500Y-72702300D01*
%TO.N,Net-(C1-Pad2)*%
X212404000Y-91117300D02*
X211337200Y-91117300D01*
X211337200Y-91117300D02*
X210372000Y-90152100D01*
X210372000Y-90152100D02*
X210372000Y-87256500D01*
D20*
%TO.N,Net-(C1-Pad1)*%
X215655200Y-93250900D02*
X215655200Y-90710900D01*
X215655200Y-90710900D02*
X215147200Y-90202900D01*
D18*
%TO.N,Net-(IC1-PadA1)*%
X205820000Y-91580000D02*
X206480000Y-91580000D01*
X209700000Y-99165386D02*
X209700000Y-102600000D01*
X204747300Y-102547300D02*
X209647300Y-102547300D01*
X209647300Y-102547300D02*
X209700000Y-102600000D01*
X206480000Y-91580000D02*
X207959000Y-93059000D01*
D19*
X233359000Y-88577300D02*
X233294500Y-88577300D01*
D18*
X200820000Y-96580000D02*
X200820000Y-98620000D01*
X208915489Y-98515489D02*
X209050103Y-98515489D01*
X207959000Y-93059000D02*
X207959000Y-97559000D01*
D19*
X234693500Y-88577300D02*
X233359000Y-88577300D01*
X230248500Y-88577300D02*
X227579500Y-88577300D01*
D18*
X209050103Y-98515489D02*
X209700000Y-99165386D01*
X200820000Y-98620000D02*
X204747300Y-102547300D01*
X207959000Y-97559000D02*
X208915489Y-98515489D01*
D21*
%TO.N,VCC*%
X169566011Y-84680000D02*
X171472531Y-84680000D01*
D18*
%TO.N,Net-(D2-Pad2)*%
X214309000Y-67557800D02*
X214309000Y-68956800D01*
D19*
%TO.N,Net-(C14-Pad1)*%
X238503500Y-74607300D02*
X237104500Y-74607300D01*
X224469000Y-61272300D02*
X224143900Y-61272300D01*
X240979000Y-95562300D02*
X240979000Y-93592800D01*
D18*
X232266800Y-96197300D02*
X234654400Y-96197300D01*
D19*
X225739000Y-61272300D02*
X224469000Y-61272300D01*
D20*
%TO.N,+5V*%
X211032400Y-100921700D02*
X211083200Y-100870900D01*
X194000000Y-82000000D02*
X194000000Y-80000000D01*
X211032400Y-103862800D02*
X211032400Y-100921700D01*
X182000000Y-82000000D02*
X182000000Y-80000000D01*
X186000000Y-82000000D02*
X186000000Y-80000000D01*
X190000000Y-82000000D02*
X190000000Y-80000000D01*
X199000000Y-82000000D02*
X199000000Y-80000000D01*
D19*
%TO.N,Net-(D1-Pad2)*%
X220659000Y-76447800D02*
X220659000Y-78417300D01*
X220659000Y-78417300D02*
X220659000Y-78481800D01*
D18*
%TO.N,Net-(C18-Pad1)*%
X200820000Y-94580000D02*
X200820000Y-93580000D01*
X198930000Y-93580000D02*
X198460000Y-93110000D01*
X200820000Y-93580000D02*
X198930000Y-93580000D01*
%TD*%
%TA.AperFunction,NonConductor*%
G36*
X246006500Y-133096881D02*
G01*
X246052619Y-133143000D01*
X246069500Y-133206000D01*
X246069500Y-134867522D01*
X246069403Y-134872469D01*
X246051662Y-135323996D01*
X246050886Y-135333859D01*
X245998064Y-135780152D01*
X245996516Y-135789923D01*
X245908843Y-136230685D01*
X245906533Y-136240306D01*
X245784549Y-136672828D01*
X245781492Y-136682237D01*
X245625946Y-137103863D01*
X245622160Y-137113003D01*
X245434017Y-137521116D01*
X245429526Y-137529931D01*
X245209935Y-137922039D01*
X245204765Y-137930475D01*
X244955096Y-138304131D01*
X244949281Y-138312135D01*
X244671061Y-138665056D01*
X244664636Y-138672579D01*
X244359581Y-139002585D01*
X244352585Y-139009581D01*
X244022579Y-139314636D01*
X244015056Y-139321061D01*
X243662135Y-139599281D01*
X243654131Y-139605096D01*
X243280475Y-139854765D01*
X243272039Y-139859935D01*
X242879931Y-140079526D01*
X242871116Y-140084017D01*
X242463003Y-140272160D01*
X242453863Y-140275946D01*
X242032237Y-140431492D01*
X242022828Y-140434549D01*
X241590306Y-140556533D01*
X241580685Y-140558843D01*
X241139923Y-140646516D01*
X241130152Y-140648064D01*
X240683859Y-140700886D01*
X240673996Y-140701662D01*
X240222469Y-140719403D01*
X240217522Y-140719500D01*
X234446000Y-140719500D01*
X234383000Y-140702619D01*
X234336881Y-140656500D01*
X234320000Y-140593500D01*
X234320000Y-137219059D01*
X236822668Y-137219059D01*
X236854571Y-137492020D01*
X236922183Y-137758389D01*
X237024324Y-138013523D01*
X237159204Y-138252955D01*
X237159208Y-138252960D01*
X237324481Y-138472526D01*
X237517259Y-138668385D01*
X237734176Y-138837120D01*
X237971446Y-138975785D01*
X238052132Y-139009581D01*
X238224927Y-139081958D01*
X238391691Y-139127113D01*
X238490190Y-139153785D01*
X238544673Y-139161030D01*
X238762605Y-139190014D01*
X238763272Y-139190014D01*
X238895917Y-139190100D01*
X238897306Y-139190110D01*
X242665174Y-139239044D01*
X242672842Y-139240104D01*
X242684121Y-139240104D01*
X242684125Y-139240105D01*
X242745951Y-139240104D01*
X242747586Y-139240114D01*
X242750865Y-139240157D01*
X242783370Y-139240580D01*
X242790820Y-139240095D01*
X242887690Y-139240095D01*
X243160680Y-139204153D01*
X243426644Y-139132886D01*
X243681030Y-139027514D01*
X243919486Y-138889840D01*
X244137932Y-138722219D01*
X244332630Y-138527519D01*
X244500250Y-138309072D01*
X244637922Y-138070615D01*
X244743292Y-137816228D01*
X244814556Y-137550264D01*
X244850496Y-137277273D01*
X244850496Y-137001927D01*
X244814556Y-136728936D01*
X244743292Y-136462972D01*
X244637922Y-136208585D01*
X244637921Y-136208582D01*
X244500252Y-135970131D01*
X244462996Y-135921578D01*
X244332630Y-135751681D01*
X244137932Y-135556981D01*
X244086764Y-135517718D01*
X243919483Y-135389357D01*
X243681035Y-135251688D01*
X243426637Y-135146311D01*
X243160683Y-135075047D01*
X242887690Y-135039104D01*
X242794534Y-135039104D01*
X242794405Y-135039095D01*
X242752100Y-135039103D01*
X242752053Y-135039104D01*
X242750017Y-135039104D01*
X242684124Y-135039103D01*
X242667922Y-135039103D01*
X242667780Y-135039121D01*
X238959891Y-135039893D01*
X238955950Y-135039832D01*
X238828528Y-135035870D01*
X238555105Y-135063436D01*
X238287689Y-135126813D01*
X238030967Y-135224889D01*
X237789419Y-135355954D01*
X237567261Y-135517718D01*
X237368361Y-135707368D01*
X237196205Y-135921577D01*
X237053790Y-136156616D01*
X236943607Y-136408379D01*
X236867578Y-136672467D01*
X236827027Y-136944281D01*
X236822668Y-137219059D01*
X234320000Y-137219059D01*
X234320000Y-133206000D01*
X234336881Y-133143000D01*
X234383000Y-133096881D01*
X234446000Y-133080000D01*
X245943500Y-133080000D01*
X246006500Y-133096881D01*
G37*
%TD.AperFunction*%
%TA.AperFunction,NonConductor*%
G36*
X169757000Y-132596881D02*
G01*
X169803119Y-132643000D01*
X169820000Y-132706000D01*
X169820000Y-140593500D01*
X169803119Y-140656500D01*
X169757000Y-140702619D01*
X169694000Y-140719500D01*
X165292478Y-140719500D01*
X165287531Y-140719403D01*
X164836003Y-140701662D01*
X164826140Y-140700886D01*
X164379847Y-140648064D01*
X164370076Y-140646516D01*
X163929314Y-140558843D01*
X163919693Y-140556533D01*
X163487171Y-140434549D01*
X163477762Y-140431492D01*
X163056136Y-140275946D01*
X163046996Y-140272160D01*
X162638883Y-140084017D01*
X162630068Y-140079526D01*
X162237960Y-139859935D01*
X162229524Y-139854765D01*
X161855868Y-139605096D01*
X161847864Y-139599281D01*
X161494943Y-139321061D01*
X161487420Y-139314636D01*
X161344980Y-139182966D01*
X161157414Y-139009581D01*
X161150418Y-139002585D01*
X160845363Y-138672579D01*
X160838938Y-138665056D01*
X160560718Y-138312135D01*
X160554903Y-138304131D01*
X160305234Y-137930475D01*
X160300064Y-137922039D01*
X160080473Y-137529931D01*
X160075982Y-137521116D01*
X159995052Y-137345565D01*
X159887832Y-137112988D01*
X159884059Y-137103879D01*
X159873051Y-137074040D01*
X160600886Y-137074040D01*
X160614316Y-137345565D01*
X160625293Y-137405890D01*
X160662984Y-137613035D01*
X160717093Y-137781630D01*
X160746062Y-137871890D01*
X160862132Y-138117720D01*
X161009223Y-138346349D01*
X161184834Y-138553884D01*
X161385962Y-138736782D01*
X161609191Y-138891936D01*
X161609193Y-138891937D01*
X161609196Y-138891939D01*
X161850730Y-139016711D01*
X161850733Y-139016712D01*
X162106450Y-139108972D01*
X162106453Y-139108972D01*
X162106454Y-139108973D01*
X162372013Y-139167154D01*
X162486623Y-139176913D01*
X162494989Y-139177909D01*
X162509651Y-139180154D01*
X162521635Y-139180262D01*
X162531181Y-139180712D01*
X162573105Y-139184290D01*
X162580524Y-139182964D01*
X162603802Y-139181009D01*
X165216065Y-139204764D01*
X165221525Y-139205509D01*
X165234305Y-139205509D01*
X165297309Y-139205509D01*
X165298454Y-139205513D01*
X165331445Y-139205814D01*
X165331445Y-139205813D01*
X165336741Y-139205862D01*
X165342285Y-139205491D01*
X165437871Y-139205491D01*
X165710862Y-139169552D01*
X165976827Y-139098287D01*
X166231215Y-138992916D01*
X166469673Y-138855243D01*
X166688121Y-138687622D01*
X166882820Y-138492923D01*
X167050441Y-138274475D01*
X167188115Y-138036017D01*
X167293486Y-137781630D01*
X167364751Y-137515665D01*
X167400691Y-137242674D01*
X167400691Y-136967326D01*
X167364751Y-136694335D01*
X167293486Y-136428370D01*
X167188115Y-136173983D01*
X167050441Y-135935525D01*
X166882820Y-135717077D01*
X166882817Y-135717074D01*
X166882814Y-135717070D01*
X166688127Y-135522383D01*
X166688122Y-135522379D01*
X166688121Y-135522378D01*
X166469673Y-135354757D01*
X166469672Y-135354756D01*
X166469669Y-135354754D01*
X166231217Y-135217085D01*
X166122389Y-135172007D01*
X165976827Y-135111713D01*
X165887974Y-135087905D01*
X165710859Y-135040447D01*
X165437871Y-135004509D01*
X165342000Y-135004509D01*
X165336468Y-135004139D01*
X165298437Y-135004503D01*
X165297234Y-135004509D01*
X165221727Y-135004509D01*
X165216003Y-135005289D01*
X162663747Y-135029661D01*
X162640964Y-135027388D01*
X162586957Y-135030274D01*
X162581440Y-135030447D01*
X162559398Y-135030657D01*
X162555319Y-135031284D01*
X162542905Y-135032565D01*
X162437526Y-135038178D01*
X162170259Y-135087905D01*
X161911737Y-135172006D01*
X161666366Y-135289051D01*
X161438317Y-135437050D01*
X161231489Y-135613474D01*
X161049388Y-135815327D01*
X160895115Y-136039177D01*
X160771301Y-136281202D01*
X160680052Y-136537297D01*
X160622924Y-136803078D01*
X160600886Y-137074040D01*
X159873051Y-137074040D01*
X159728503Y-136682225D01*
X159725454Y-136672841D01*
X159603463Y-136240295D01*
X159601156Y-136230685D01*
X159596500Y-136207276D01*
X159513480Y-135789905D01*
X159511937Y-135780170D01*
X159459112Y-135333846D01*
X159458338Y-135324009D01*
X159440596Y-134872468D01*
X159440500Y-134867522D01*
X159440500Y-132706000D01*
X159457381Y-132643000D01*
X159503500Y-132596881D01*
X159566500Y-132580000D01*
X169694000Y-132580000D01*
X169757000Y-132596881D01*
G37*
%TD.AperFunction*%
%TA.AperFunction,NonConductor*%
G36*
X169757000Y-47122381D02*
G01*
X169803119Y-47168500D01*
X169820000Y-47231500D01*
X169820000Y-55454000D01*
X169803119Y-55517000D01*
X169757000Y-55563119D01*
X169694000Y-55580000D01*
X159586500Y-55580000D01*
X159523500Y-55563119D01*
X159477381Y-55517000D01*
X159460500Y-55454000D01*
X159460500Y-51414040D01*
X160630695Y-51414040D01*
X160644124Y-51685562D01*
X160655102Y-51745892D01*
X160692793Y-51953032D01*
X160746903Y-52121632D01*
X160775870Y-52211887D01*
X160891939Y-52457714D01*
X161039034Y-52686348D01*
X161214636Y-52893875D01*
X161415763Y-53076771D01*
X161415765Y-53076772D01*
X161415769Y-53076776D01*
X161639001Y-53231932D01*
X161880535Y-53356703D01*
X161880538Y-53356704D01*
X162136253Y-53448963D01*
X162136258Y-53448964D01*
X162401816Y-53507146D01*
X162516446Y-53516906D01*
X162524768Y-53517896D01*
X162539453Y-53520145D01*
X162551438Y-53520253D01*
X162560984Y-53520703D01*
X162602908Y-53524281D01*
X162610317Y-53522957D01*
X162633604Y-53521000D01*
X165245868Y-53544755D01*
X165251328Y-53545500D01*
X165264108Y-53545500D01*
X165327111Y-53545500D01*
X165328256Y-53545504D01*
X165361247Y-53545805D01*
X165361248Y-53545804D01*
X165366661Y-53545854D01*
X165371953Y-53545500D01*
X165467674Y-53545500D01*
X165740666Y-53509560D01*
X166006632Y-53438295D01*
X166261021Y-53332923D01*
X166499479Y-53195249D01*
X166717928Y-53027628D01*
X166912628Y-52832928D01*
X167080249Y-52614479D01*
X167217923Y-52376021D01*
X167323295Y-52121632D01*
X167394560Y-51855666D01*
X167430500Y-51582674D01*
X167430500Y-51307326D01*
X167394560Y-51034334D01*
X167323295Y-50768368D01*
X167217923Y-50513979D01*
X167080249Y-50275521D01*
X166912628Y-50057072D01*
X166912625Y-50057069D01*
X166912622Y-50057065D01*
X166717934Y-49862377D01*
X166717929Y-49862373D01*
X166717928Y-49862372D01*
X166499479Y-49694751D01*
X166499478Y-49694750D01*
X166499475Y-49694748D01*
X166261023Y-49557078D01*
X166152227Y-49512013D01*
X166006632Y-49451705D01*
X165917839Y-49427913D01*
X165740663Y-49380439D01*
X165467674Y-49344500D01*
X165371802Y-49344500D01*
X165366270Y-49344130D01*
X165328239Y-49344494D01*
X165327036Y-49344500D01*
X165251530Y-49344500D01*
X165245806Y-49345280D01*
X162693547Y-49369652D01*
X162670764Y-49367380D01*
X162668871Y-49367481D01*
X162662241Y-49367835D01*
X162616760Y-49370264D01*
X162611250Y-49370437D01*
X162589197Y-49370648D01*
X162584939Y-49371302D01*
X162572532Y-49372582D01*
X162467331Y-49378186D01*
X162200063Y-49427913D01*
X161941543Y-49512013D01*
X161696172Y-49629058D01*
X161468129Y-49777053D01*
X161261293Y-49953483D01*
X161079192Y-50155336D01*
X160924926Y-50379173D01*
X160801110Y-50621204D01*
X160709862Y-50877297D01*
X160652733Y-51143078D01*
X160630695Y-51414040D01*
X159460500Y-51414040D01*
X159460500Y-49186207D01*
X159469875Y-49138513D01*
X159496606Y-49097917D01*
X160045277Y-48539275D01*
X161392974Y-47167085D01*
X161433759Y-47139341D01*
X161482072Y-47129380D01*
X165291287Y-47105502D01*
X165292078Y-47105500D01*
X169694000Y-47105500D01*
X169757000Y-47122381D01*
G37*
%TD.AperFunction*%
%TA.AperFunction,NonConductor*%
G36*
X232257000Y-128096881D02*
G01*
X232303119Y-128143000D01*
X232320000Y-128206000D01*
X232320000Y-138956065D01*
X232303465Y-139018463D01*
X232258198Y-139064483D01*
X232196082Y-139082048D01*
X183997680Y-139878716D01*
X171948081Y-140077882D01*
X171884206Y-140061707D01*
X171837230Y-140015500D01*
X171820000Y-139951900D01*
X171820000Y-128206000D01*
X171836881Y-128143000D01*
X171883000Y-128096881D01*
X171946000Y-128080000D01*
X232194000Y-128080000D01*
X232257000Y-128096881D01*
G37*
%TD.AperFunction*%
%TA.AperFunction,NonConductor*%
G36*
X243440614Y-47119634D02*
G01*
X243496891Y-47133074D01*
X243541227Y-47170250D01*
X246029642Y-50502947D01*
X246048240Y-50538562D01*
X246054681Y-50578221D01*
X246058936Y-55453890D01*
X246042092Y-55516937D01*
X245995968Y-55563101D01*
X245932936Y-55580000D01*
X234446000Y-55580000D01*
X234383000Y-55563119D01*
X234336881Y-55517000D01*
X234320000Y-55454000D01*
X234320000Y-51474459D01*
X236852672Y-51474459D01*
X236884575Y-51747417D01*
X236952187Y-52013787D01*
X237054324Y-52268915D01*
X237088631Y-52329814D01*
X237189207Y-52508352D01*
X237354479Y-52727917D01*
X237547255Y-52923776D01*
X237764170Y-53092511D01*
X238001437Y-53231176D01*
X238254914Y-53337349D01*
X238520176Y-53409178D01*
X238735353Y-53437796D01*
X238792590Y-53445409D01*
X238792931Y-53445409D01*
X238925902Y-53445496D01*
X238927291Y-53445506D01*
X242695158Y-53494440D01*
X242702821Y-53495500D01*
X242714108Y-53495500D01*
X242775937Y-53495500D01*
X242777573Y-53495511D01*
X242809297Y-53495923D01*
X242809298Y-53495922D01*
X242813395Y-53495976D01*
X242820726Y-53495500D01*
X242917674Y-53495500D01*
X243190666Y-53459560D01*
X243456632Y-53388295D01*
X243711021Y-53282923D01*
X243949479Y-53145249D01*
X244167928Y-52977628D01*
X244362628Y-52782928D01*
X244530249Y-52564479D01*
X244667923Y-52326021D01*
X244773295Y-52071632D01*
X244844560Y-51805666D01*
X244880500Y-51532674D01*
X244880500Y-51257326D01*
X244844560Y-50984334D01*
X244773295Y-50718368D01*
X244667923Y-50463979D01*
X244571102Y-50296280D01*
X244530251Y-50225524D01*
X244530249Y-50225521D01*
X244362628Y-50007072D01*
X244362625Y-50007069D01*
X244362622Y-50007065D01*
X244167934Y-49812377D01*
X244167929Y-49812373D01*
X244167928Y-49812372D01*
X243949479Y-49644751D01*
X243949478Y-49644750D01*
X243949475Y-49644748D01*
X243711023Y-49507078D01*
X243646368Y-49480297D01*
X243456632Y-49401705D01*
X243456631Y-49401704D01*
X243190663Y-49330439D01*
X242917674Y-49294500D01*
X242824698Y-49294500D01*
X242824571Y-49294491D01*
X242782171Y-49294499D01*
X242782111Y-49294500D01*
X242697841Y-49294500D01*
X242697707Y-49294517D01*
X238989645Y-49295289D01*
X238985706Y-49295228D01*
X238858513Y-49291275D01*
X238585090Y-49318843D01*
X238317676Y-49382221D01*
X238060961Y-49480297D01*
X237819412Y-49611364D01*
X237597253Y-49773131D01*
X237398355Y-49962779D01*
X237226204Y-50176983D01*
X237083793Y-50412019D01*
X236973609Y-50663784D01*
X236897581Y-50927871D01*
X236857031Y-51199680D01*
X236852672Y-51474459D01*
X234320000Y-51474459D01*
X234320000Y-47231500D01*
X234336881Y-47168500D01*
X234383000Y-47122381D01*
X234446000Y-47105500D01*
X238314449Y-47105500D01*
X243440614Y-47119634D01*
G37*
%TD.AperFunction*%
%TA.AperFunction,Conductor*%
%TO.N,GND*%
G36*
X200638714Y-47115091D02*
G01*
X200679591Y-47142405D01*
X201083461Y-47546275D01*
X201100363Y-47567248D01*
X201102857Y-47571129D01*
X201140336Y-47603604D01*
X201146908Y-47609722D01*
X201156407Y-47619221D01*
X201156410Y-47619223D01*
X201156411Y-47619224D01*
X201167152Y-47627265D01*
X201174157Y-47632909D01*
X201211628Y-47665378D01*
X201215815Y-47667290D01*
X201238982Y-47681036D01*
X201242669Y-47683796D01*
X201289128Y-47701124D01*
X201297437Y-47704565D01*
X201297438Y-47704566D01*
X201297441Y-47704567D01*
X201342543Y-47725165D01*
X201347099Y-47725820D01*
X201373203Y-47732482D01*
X201377517Y-47734091D01*
X201418078Y-47736991D01*
X201426972Y-47737628D01*
X201435917Y-47738589D01*
X201449201Y-47740500D01*
X201462620Y-47740500D01*
X201471608Y-47740820D01*
X201521073Y-47744359D01*
X201524801Y-47743547D01*
X201525574Y-47743380D01*
X201552357Y-47740500D01*
X212212643Y-47740500D01*
X212239426Y-47743380D01*
X212240429Y-47743598D01*
X212243927Y-47744359D01*
X212293391Y-47740820D01*
X212302380Y-47740500D01*
X212315798Y-47740500D01*
X212315799Y-47740500D01*
X212329097Y-47738587D01*
X212338009Y-47737629D01*
X212387483Y-47734091D01*
X212391798Y-47732481D01*
X212417897Y-47725820D01*
X212422457Y-47725165D01*
X212445349Y-47714709D01*
X212467561Y-47704566D01*
X212475862Y-47701127D01*
X212522331Y-47683796D01*
X212526018Y-47681036D01*
X212549190Y-47667288D01*
X212553372Y-47665378D01*
X212590845Y-47632907D01*
X212597846Y-47627265D01*
X212608593Y-47619221D01*
X212618096Y-47609717D01*
X212624669Y-47603598D01*
X212662143Y-47571128D01*
X212664631Y-47567256D01*
X212681531Y-47546281D01*
X213085409Y-47142404D01*
X213126287Y-47115091D01*
X213174505Y-47105500D01*
X233934500Y-47105500D01*
X233997500Y-47122381D01*
X234043619Y-47168500D01*
X234060500Y-47231500D01*
X234060500Y-55454000D01*
X234069341Y-55521161D01*
X234086223Y-55584165D01*
X234112148Y-55646750D01*
X234153389Y-55700497D01*
X234199502Y-55746610D01*
X234199506Y-55746613D01*
X234253250Y-55787852D01*
X234315836Y-55813777D01*
X234378836Y-55830658D01*
X234446000Y-55839500D01*
X245933381Y-55839500D01*
X245996349Y-55856362D01*
X246042464Y-55902437D01*
X246059381Y-55965390D01*
X246069500Y-67560709D01*
X246069500Y-81841098D01*
X246057403Y-81894970D01*
X246023434Y-81938497D01*
X245974117Y-81963322D01*
X245918920Y-81964677D01*
X245825019Y-81946000D01*
X243927000Y-81946000D01*
X243927000Y-86453999D01*
X245825017Y-86453999D01*
X245918920Y-86435322D01*
X245974117Y-86436677D01*
X246023434Y-86461502D01*
X246057403Y-86505029D01*
X246069500Y-86558901D01*
X246069500Y-110733813D01*
X246068893Y-110746164D01*
X246055930Y-110877773D01*
X246051111Y-110901998D01*
X246014527Y-111022598D01*
X246005075Y-111045418D01*
X245945666Y-111156565D01*
X245931944Y-111177102D01*
X245851992Y-111274525D01*
X245834525Y-111291992D01*
X245737102Y-111371944D01*
X245716565Y-111385666D01*
X245605418Y-111445075D01*
X245582598Y-111454527D01*
X245461998Y-111491111D01*
X245437773Y-111495930D01*
X245342630Y-111505301D01*
X245306161Y-111508893D01*
X245293813Y-111509500D01*
X241555892Y-111509500D01*
X241490000Y-111509500D01*
X241363371Y-111509500D01*
X241112692Y-111545542D01*
X241112691Y-111545542D01*
X241112686Y-111545543D01*
X240869695Y-111616892D01*
X240639321Y-111722100D01*
X240426263Y-111859024D01*
X240234868Y-112024868D01*
X240069024Y-112216263D01*
X239932100Y-112429321D01*
X239826892Y-112659695D01*
X239755543Y-112902686D01*
X239755542Y-112902691D01*
X239755542Y-112902692D01*
X239719500Y-113153371D01*
X239719500Y-113244201D01*
X239719500Y-120834108D01*
X239719500Y-120900000D01*
X239719500Y-121026629D01*
X239755542Y-121277308D01*
X239755543Y-121277313D01*
X239804522Y-121444119D01*
X239826893Y-121520307D01*
X239932100Y-121750678D01*
X240016559Y-121882100D01*
X240069024Y-121963736D01*
X240234868Y-122155131D01*
X240426263Y-122320975D01*
X240426268Y-122320979D01*
X240639322Y-122457900D01*
X240869693Y-122563107D01*
X241112692Y-122634458D01*
X241363371Y-122670500D01*
X241454201Y-122670500D01*
X241490000Y-122670500D01*
X241555892Y-122670500D01*
X245234108Y-122670500D01*
X245293813Y-122670500D01*
X245306162Y-122671106D01*
X245437778Y-122684070D01*
X245461992Y-122688886D01*
X245582599Y-122725472D01*
X245605418Y-122734924D01*
X245716565Y-122794333D01*
X245737101Y-122808054D01*
X245834527Y-122888009D01*
X245851992Y-122905474D01*
X245931944Y-123002897D01*
X245945666Y-123023434D01*
X246005075Y-123134581D01*
X246014527Y-123157401D01*
X246051111Y-123278001D01*
X246055930Y-123302226D01*
X246068893Y-123433836D01*
X246069500Y-123446187D01*
X246069500Y-132694500D01*
X246052619Y-132757500D01*
X246006500Y-132803619D01*
X245943500Y-132820500D01*
X234446000Y-132820500D01*
X234378838Y-132829341D01*
X234315834Y-132846223D01*
X234253249Y-132872148D01*
X234199502Y-132913389D01*
X234153389Y-132959502D01*
X234112148Y-133013249D01*
X234086223Y-133075834D01*
X234069341Y-133138838D01*
X234060500Y-133206000D01*
X234060500Y-140593500D01*
X234043619Y-140656500D01*
X233997500Y-140702619D01*
X233934500Y-140719500D01*
X214855799Y-140719500D01*
X170205500Y-140719500D01*
X170142500Y-140702619D01*
X170096381Y-140656500D01*
X170079500Y-140593500D01*
X170079500Y-139951900D01*
X171560500Y-139951900D01*
X171569529Y-140019756D01*
X171586757Y-140083351D01*
X171586758Y-140083355D01*
X171586759Y-140083356D01*
X171613214Y-140146486D01*
X171655256Y-140200502D01*
X171702232Y-140246709D01*
X171756940Y-140287857D01*
X171820504Y-140313267D01*
X171884379Y-140329442D01*
X171945287Y-140336523D01*
X171952369Y-140337347D01*
X171952369Y-140337346D01*
X171952370Y-140337347D01*
X195271931Y-139951900D01*
X232200374Y-139341513D01*
X232266695Y-139331756D01*
X232291905Y-139324626D01*
X232328810Y-139314191D01*
X232390416Y-139287774D01*
X232443200Y-139246457D01*
X232488467Y-139200437D01*
X232528909Y-139146974D01*
X232554307Y-139084934D01*
X232570842Y-139022536D01*
X232579500Y-138956065D01*
X232579500Y-128206000D01*
X232570658Y-128138836D01*
X232553777Y-128075836D01*
X232527852Y-128013250D01*
X232486613Y-127959506D01*
X232486610Y-127959502D01*
X232440497Y-127913389D01*
X232386750Y-127872148D01*
X232324165Y-127846223D01*
X232261161Y-127829341D01*
X232194000Y-127820500D01*
X171946000Y-127820500D01*
X171878838Y-127829341D01*
X171815834Y-127846223D01*
X171753249Y-127872148D01*
X171699502Y-127913389D01*
X171653389Y-127959502D01*
X171612148Y-128013249D01*
X171586223Y-128075834D01*
X171569341Y-128138838D01*
X171560500Y-128206000D01*
X171560500Y-139951900D01*
X170079500Y-139951900D01*
X170079500Y-132706000D01*
X170070658Y-132638838D01*
X170070658Y-132638836D01*
X170053777Y-132575836D01*
X170027852Y-132513250D01*
X169986613Y-132459506D01*
X169986610Y-132459502D01*
X169940497Y-132413389D01*
X169886750Y-132372148D01*
X169824165Y-132346223D01*
X169761161Y-132329341D01*
X169694000Y-132320500D01*
X159566500Y-132320500D01*
X159503500Y-132303619D01*
X159457381Y-132257500D01*
X159440500Y-132194500D01*
X159440500Y-124117176D01*
X173462430Y-124117176D01*
X173490420Y-124145166D01*
X173752685Y-124350637D01*
X174037817Y-124523004D01*
X174341629Y-124659740D01*
X174659719Y-124758860D01*
X174987437Y-124818918D01*
X175320000Y-124839033D01*
X175652562Y-124818918D01*
X175980280Y-124758860D01*
X176298370Y-124659740D01*
X176602182Y-124523004D01*
X176887314Y-124350637D01*
X177149579Y-124145166D01*
X177177570Y-124117176D01*
X229462430Y-124117176D01*
X229490420Y-124145166D01*
X229752685Y-124350637D01*
X230037817Y-124523004D01*
X230341629Y-124659740D01*
X230659719Y-124758860D01*
X230987437Y-124818918D01*
X231320000Y-124839033D01*
X231652562Y-124818918D01*
X231980280Y-124758860D01*
X232298370Y-124659740D01*
X232602182Y-124523004D01*
X232887314Y-124350637D01*
X233149579Y-124145166D01*
X233177570Y-124117176D01*
X233177570Y-124117174D01*
X231320001Y-122259605D01*
X231319999Y-122259605D01*
X229462430Y-124117174D01*
X229462430Y-124117176D01*
X177177570Y-124117176D01*
X177177570Y-124117174D01*
X175320001Y-122259605D01*
X175319999Y-122259605D01*
X173462430Y-124117174D01*
X173462430Y-124117176D01*
X159440500Y-124117176D01*
X159440500Y-122080000D01*
X172560966Y-122080000D01*
X172581081Y-122412562D01*
X172641139Y-122740280D01*
X172740259Y-123058370D01*
X172876995Y-123362182D01*
X173049362Y-123647314D01*
X173254833Y-123909579D01*
X173282824Y-123937570D01*
X173282826Y-123937570D01*
X175140395Y-122080001D01*
X175499605Y-122080001D01*
X177357174Y-123937570D01*
X177357176Y-123937570D01*
X177385166Y-123909579D01*
X177590637Y-123647314D01*
X177763004Y-123362182D01*
X177899740Y-123058370D01*
X177998860Y-122740280D01*
X178058918Y-122412562D01*
X178079033Y-122080000D01*
X228560966Y-122080000D01*
X228581081Y-122412562D01*
X228641139Y-122740280D01*
X228740259Y-123058370D01*
X228876995Y-123362182D01*
X229049362Y-123647314D01*
X229254833Y-123909579D01*
X229282824Y-123937570D01*
X229282826Y-123937570D01*
X231140395Y-122080001D01*
X231499605Y-122080001D01*
X233357174Y-123937570D01*
X233357176Y-123937570D01*
X233385166Y-123909579D01*
X233590637Y-123647314D01*
X233763004Y-123362182D01*
X233899740Y-123058370D01*
X233998860Y-122740280D01*
X234058918Y-122412562D01*
X234079033Y-122080000D01*
X234058918Y-121747437D01*
X233998860Y-121419719D01*
X233899740Y-121101629D01*
X233763004Y-120797817D01*
X233590637Y-120512685D01*
X233385166Y-120250420D01*
X233357176Y-120222430D01*
X233357174Y-120222430D01*
X231499605Y-122079999D01*
X231499605Y-122080001D01*
X231140395Y-122080001D01*
X231140395Y-122079999D01*
X229282826Y-120222430D01*
X229282824Y-120222430D01*
X229254833Y-120250420D01*
X229049362Y-120512685D01*
X228876995Y-120797817D01*
X228740259Y-121101629D01*
X228641139Y-121419719D01*
X228581081Y-121747437D01*
X228560966Y-122080000D01*
X178079033Y-122080000D01*
X178058918Y-121747437D01*
X177998860Y-121419719D01*
X177899740Y-121101629D01*
X177763004Y-120797817D01*
X177590637Y-120512685D01*
X177385166Y-120250420D01*
X177357176Y-120222430D01*
X177357174Y-120222430D01*
X175499605Y-122079999D01*
X175499605Y-122080001D01*
X175140395Y-122080001D01*
X175140395Y-122079999D01*
X173282826Y-120222430D01*
X173282824Y-120222430D01*
X173254833Y-120250420D01*
X173049362Y-120512685D01*
X172876995Y-120797817D01*
X172740259Y-121101629D01*
X172641139Y-121419719D01*
X172581081Y-121747437D01*
X172560966Y-122080000D01*
X159440500Y-122080000D01*
X159440500Y-120042826D01*
X173462430Y-120042826D01*
X175319999Y-121900395D01*
X175320001Y-121900395D01*
X177177570Y-120042826D01*
X229462430Y-120042826D01*
X231319999Y-121900395D01*
X231320001Y-121900395D01*
X233177570Y-120042826D01*
X233177570Y-120042824D01*
X233149579Y-120014833D01*
X232887314Y-119809362D01*
X232602182Y-119636995D01*
X232298370Y-119500259D01*
X231980280Y-119401139D01*
X231652562Y-119341081D01*
X231320000Y-119320966D01*
X230987437Y-119341081D01*
X230659719Y-119401139D01*
X230341629Y-119500259D01*
X230037817Y-119636995D01*
X229752685Y-119809362D01*
X229490420Y-120014833D01*
X229462430Y-120042824D01*
X229462430Y-120042826D01*
X177177570Y-120042826D01*
X177177570Y-120042824D01*
X177149579Y-120014833D01*
X176887314Y-119809362D01*
X176602182Y-119636995D01*
X176298370Y-119500259D01*
X175980280Y-119401139D01*
X175652562Y-119341081D01*
X175320000Y-119320966D01*
X174987437Y-119341081D01*
X174659719Y-119401139D01*
X174341629Y-119500259D01*
X174037817Y-119636995D01*
X173752685Y-119809362D01*
X173490420Y-120014833D01*
X173462430Y-120042824D01*
X173462430Y-120042826D01*
X159440500Y-120042826D01*
X159440500Y-114084999D01*
X160951600Y-114084999D01*
X160971154Y-114296016D01*
X161029148Y-114499846D01*
X161123612Y-114689556D01*
X161251321Y-114858669D01*
X161251323Y-114858671D01*
X161407935Y-115001442D01*
X161588115Y-115113005D01*
X161785726Y-115189560D01*
X161994039Y-115228500D01*
X162205959Y-115228500D01*
X162205961Y-115228500D01*
X162414274Y-115189560D01*
X162611885Y-115113005D01*
X162792065Y-115001442D01*
X162948677Y-114858671D01*
X163076389Y-114689554D01*
X163170850Y-114499850D01*
X163228845Y-114296018D01*
X163248399Y-114085000D01*
X163228845Y-113873982D01*
X163170850Y-113670150D01*
X163076389Y-113480446D01*
X162948677Y-113311329D01*
X162792065Y-113168558D01*
X162729595Y-113129878D01*
X162611886Y-113056995D01*
X162513079Y-113018717D01*
X162414274Y-112980440D01*
X162205961Y-112941500D01*
X161994039Y-112941500D01*
X161785725Y-112980440D01*
X161785726Y-112980440D01*
X161588113Y-113056995D01*
X161407936Y-113168557D01*
X161251321Y-113311330D01*
X161123612Y-113480443D01*
X161029148Y-113670153D01*
X160971154Y-113873983D01*
X160951600Y-114084999D01*
X159440500Y-114084999D01*
X159440500Y-111545000D01*
X160951600Y-111545000D01*
X160971154Y-111756016D01*
X161029148Y-111959846D01*
X161123612Y-112149556D01*
X161173991Y-112216268D01*
X161251323Y-112318671D01*
X161407935Y-112461442D01*
X161588115Y-112573005D01*
X161785726Y-112649560D01*
X161994039Y-112688500D01*
X162205959Y-112688500D01*
X162205961Y-112688500D01*
X162414274Y-112649560D01*
X162611885Y-112573005D01*
X162792065Y-112461442D01*
X162948677Y-112318671D01*
X163076389Y-112149554D01*
X163170850Y-111959850D01*
X163228845Y-111756018D01*
X163248399Y-111545000D01*
X163228845Y-111333982D01*
X163170850Y-111130150D01*
X163076389Y-110940446D01*
X163047354Y-110901998D01*
X162948678Y-110771330D01*
X162907524Y-110733813D01*
X162792065Y-110628558D01*
X162741982Y-110597548D01*
X162611886Y-110516995D01*
X162513079Y-110478717D01*
X162414274Y-110440440D01*
X162205961Y-110401500D01*
X161994039Y-110401500D01*
X161785726Y-110440439D01*
X161785726Y-110440440D01*
X161588113Y-110516995D01*
X161407936Y-110628557D01*
X161251321Y-110771330D01*
X161123612Y-110940443D01*
X161029148Y-111130153D01*
X160971154Y-111333983D01*
X160951600Y-111545000D01*
X159440500Y-111545000D01*
X159440500Y-109899736D01*
X161384867Y-109899736D01*
X161408238Y-109921042D01*
X161588336Y-110032554D01*
X161785863Y-110109076D01*
X161994087Y-110148000D01*
X162205913Y-110148000D01*
X162414136Y-110109076D01*
X162611666Y-110032553D01*
X162791759Y-109921044D01*
X162815132Y-109899736D01*
X162100001Y-109184605D01*
X162100000Y-109184605D01*
X161384867Y-109899736D01*
X159440500Y-109899736D01*
X159440500Y-109004999D01*
X160952102Y-109004999D01*
X160971647Y-109215923D01*
X161029617Y-109419666D01*
X161124039Y-109609292D01*
X161206675Y-109718718D01*
X161920394Y-109005001D01*
X162279605Y-109005001D01*
X162993322Y-109718718D01*
X162993323Y-109718718D01*
X163075961Y-109609289D01*
X163170382Y-109419666D01*
X163228352Y-109215923D01*
X163247897Y-109004999D01*
X163228352Y-108794076D01*
X163170382Y-108590333D01*
X163075960Y-108400707D01*
X162993323Y-108291280D01*
X162279605Y-109005000D01*
X162279605Y-109005001D01*
X161920394Y-109005001D01*
X161920395Y-109005000D01*
X161920395Y-109004999D01*
X161206676Y-108291280D01*
X161206674Y-108291280D01*
X161124039Y-108400708D01*
X161029617Y-108590333D01*
X160971647Y-108794076D01*
X160952102Y-109004999D01*
X159440500Y-109004999D01*
X159440500Y-108110262D01*
X161384866Y-108110262D01*
X162099999Y-108825395D01*
X162100000Y-108825395D01*
X162815131Y-108110262D01*
X162791761Y-108088957D01*
X162611663Y-107977445D01*
X162414136Y-107900923D01*
X162205913Y-107862000D01*
X161994087Y-107862000D01*
X161785863Y-107900923D01*
X161588336Y-107977445D01*
X161408236Y-108088959D01*
X161384866Y-108110261D01*
X161384866Y-108110262D01*
X159440500Y-108110262D01*
X159440500Y-106464999D01*
X160951600Y-106464999D01*
X160971154Y-106676016D01*
X161029148Y-106879846D01*
X161123612Y-107069556D01*
X161251321Y-107238669D01*
X161251323Y-107238671D01*
X161407935Y-107381442D01*
X161588115Y-107493005D01*
X161785726Y-107569560D01*
X161994039Y-107608500D01*
X162205959Y-107608500D01*
X162205961Y-107608500D01*
X162414274Y-107569560D01*
X162611885Y-107493005D01*
X162792065Y-107381442D01*
X162948677Y-107238671D01*
X163053398Y-107099999D01*
X172784000Y-107099999D01*
X172814628Y-107450075D01*
X172905579Y-107789512D01*
X173054093Y-108108001D01*
X173255656Y-108395863D01*
X173504136Y-108644343D01*
X173791998Y-108845906D01*
X173791999Y-108845906D01*
X173792000Y-108845907D01*
X174110487Y-108994420D01*
X174449925Y-109085372D01*
X174800000Y-109116000D01*
X175150075Y-109085372D01*
X175489513Y-108994420D01*
X175808000Y-108845907D01*
X176095860Y-108644346D01*
X176344346Y-108395860D01*
X176545907Y-108108000D01*
X176694420Y-107789513D01*
X176785372Y-107450075D01*
X176816000Y-107100000D01*
X176785372Y-106749925D01*
X176694420Y-106410487D01*
X176545907Y-106092000D01*
X176516603Y-106050150D01*
X176344343Y-105804136D01*
X176095863Y-105555656D01*
X175808001Y-105354093D01*
X175489512Y-105205579D01*
X175150075Y-105114628D01*
X174800000Y-105084000D01*
X174449924Y-105114628D01*
X174110487Y-105205579D01*
X173791998Y-105354093D01*
X173504136Y-105555656D01*
X173255656Y-105804136D01*
X173054093Y-106091998D01*
X172905579Y-106410487D01*
X172814628Y-106749924D01*
X172784000Y-107099999D01*
X163053398Y-107099999D01*
X163076389Y-107069554D01*
X163170850Y-106879850D01*
X163228845Y-106676018D01*
X163248399Y-106465000D01*
X163228845Y-106253982D01*
X163170850Y-106050150D01*
X163076389Y-105860446D01*
X163033868Y-105804140D01*
X162948678Y-105691330D01*
X162948677Y-105691329D01*
X162792065Y-105548558D01*
X162741982Y-105517548D01*
X162611886Y-105436995D01*
X162505543Y-105395798D01*
X162414274Y-105360440D01*
X162205961Y-105321500D01*
X161994039Y-105321500D01*
X161819680Y-105354093D01*
X161785726Y-105360440D01*
X161588113Y-105436995D01*
X161407936Y-105548557D01*
X161251321Y-105691330D01*
X161123612Y-105860443D01*
X161029148Y-106050153D01*
X160971154Y-106253983D01*
X160951600Y-106464999D01*
X159440500Y-106464999D01*
X159440500Y-105420032D01*
X159450126Y-105371730D01*
X159477532Y-105330809D01*
X159757335Y-105051808D01*
X162736025Y-102081651D01*
X162756878Y-102064874D01*
X162761128Y-102062143D01*
X162793304Y-102025007D01*
X162799551Y-102018307D01*
X162808749Y-102009137D01*
X162817101Y-101998011D01*
X162822601Y-101991197D01*
X162855377Y-101953373D01*
X162857097Y-101949605D01*
X162870962Y-101926277D01*
X162873447Y-101922968D01*
X162891000Y-101876110D01*
X162894377Y-101867974D01*
X162915164Y-101822459D01*
X162915163Y-101822459D01*
X162915165Y-101822457D01*
X162915754Y-101818352D01*
X162922482Y-101792070D01*
X162923936Y-101788192D01*
X162927576Y-101738285D01*
X162928525Y-101729529D01*
X162930500Y-101715799D01*
X162930500Y-101702828D01*
X162930834Y-101693659D01*
X162930909Y-101692627D01*
X162934410Y-101644651D01*
X162933341Y-101639702D01*
X162930500Y-101613097D01*
X162930500Y-96579999D01*
X200430706Y-96579999D01*
X200438949Y-96632038D01*
X200440500Y-96651749D01*
X200440500Y-98567574D01*
X200437818Y-98593432D01*
X200435580Y-98604100D01*
X200439532Y-98635796D01*
X200440500Y-98651382D01*
X200440500Y-98651448D01*
X200443955Y-98672159D01*
X200444705Y-98677304D01*
X200452241Y-98737751D01*
X200452276Y-98737861D01*
X200481255Y-98791410D01*
X200483638Y-98796039D01*
X200510406Y-98850793D01*
X200510461Y-98850866D01*
X200555284Y-98892130D01*
X200559041Y-98895735D01*
X204441881Y-102778575D01*
X204458266Y-102798750D01*
X204464232Y-102807882D01*
X204489441Y-102827503D01*
X204501142Y-102837837D01*
X204501181Y-102837876D01*
X204501184Y-102837878D01*
X204501187Y-102837881D01*
X204518299Y-102850099D01*
X204522442Y-102853189D01*
X204570534Y-102890620D01*
X204570596Y-102890652D01*
X204578317Y-102892950D01*
X204578321Y-102892953D01*
X204629043Y-102908052D01*
X204633907Y-102909611D01*
X204683973Y-102926800D01*
X204683975Y-102926800D01*
X204691580Y-102929411D01*
X204691669Y-102929424D01*
X204699708Y-102929091D01*
X204699710Y-102929092D01*
X204752513Y-102926908D01*
X204757721Y-102926800D01*
X209064168Y-102926800D01*
X209122723Y-102941233D01*
X209167864Y-102981224D01*
X209206502Y-103037201D01*
X209325471Y-103142599D01*
X209466207Y-103216463D01*
X209620529Y-103254500D01*
X209779469Y-103254500D01*
X209779471Y-103254500D01*
X209933793Y-103216463D01*
X210074529Y-103142599D01*
X210193498Y-103037201D01*
X210283787Y-102906395D01*
X210283787Y-102906394D01*
X210292478Y-102893804D01*
X210295291Y-102895745D01*
X210321398Y-102860712D01*
X210385740Y-102835417D01*
X210453742Y-102847879D01*
X210504933Y-102894346D01*
X210523900Y-102960829D01*
X210523900Y-103408070D01*
X210518195Y-103445555D01*
X210501596Y-103479646D01*
X210448612Y-103556405D01*
X210392250Y-103705019D01*
X210373093Y-103862799D01*
X210392250Y-104020580D01*
X210448612Y-104169194D01*
X210522748Y-104276599D01*
X210538902Y-104300001D01*
X210657871Y-104405399D01*
X210798607Y-104479263D01*
X210952929Y-104517300D01*
X211111869Y-104517300D01*
X211111871Y-104517300D01*
X211266193Y-104479263D01*
X211406929Y-104405399D01*
X211525898Y-104300001D01*
X211616187Y-104169195D01*
X211672549Y-104020582D01*
X211691707Y-103862800D01*
X211678982Y-103758000D01*
X241977080Y-103758000D01*
X241996731Y-104020229D01*
X242055246Y-104276599D01*
X242151317Y-104521384D01*
X242282796Y-104749113D01*
X242282798Y-104749116D01*
X242282799Y-104749117D01*
X242446754Y-104954710D01*
X242586096Y-105084000D01*
X242639523Y-105133573D01*
X242802472Y-105244669D01*
X242856790Y-105281702D01*
X242979615Y-105340851D01*
X243093711Y-105395798D01*
X243149752Y-105413084D01*
X243344992Y-105473308D01*
X243605018Y-105512500D01*
X243867980Y-105512500D01*
X243867982Y-105512500D01*
X244128008Y-105473308D01*
X244379288Y-105395798D01*
X244616210Y-105281702D01*
X244833480Y-105133570D01*
X245026246Y-104954710D01*
X245190201Y-104749117D01*
X245321683Y-104521384D01*
X245417754Y-104276598D01*
X245476269Y-104020228D01*
X245495920Y-103758000D01*
X245476269Y-103495772D01*
X245417754Y-103239402D01*
X245321683Y-102994616D01*
X245229769Y-102835417D01*
X245190203Y-102766886D01*
X245182943Y-102757782D01*
X245026246Y-102561290D01*
X244833480Y-102382430D01*
X244833481Y-102382430D01*
X244833476Y-102382426D01*
X244616210Y-102234298D01*
X244379288Y-102120201D01*
X244191063Y-102062142D01*
X244128008Y-102042692D01*
X243867982Y-102003500D01*
X243605018Y-102003500D01*
X243344992Y-102042692D01*
X243344988Y-102042693D01*
X243344989Y-102042693D01*
X243093711Y-102120201D01*
X242856789Y-102234298D01*
X242639523Y-102382426D01*
X242533727Y-102480590D01*
X242446754Y-102561290D01*
X242415884Y-102600000D01*
X242282796Y-102766886D01*
X242151317Y-102994615D01*
X242055246Y-103239400D01*
X241996731Y-103495770D01*
X241977080Y-103758000D01*
X211678982Y-103758000D01*
X211672549Y-103705018D01*
X211616187Y-103556405D01*
X211563203Y-103479645D01*
X211546605Y-103445555D01*
X211540900Y-103408070D01*
X211540900Y-101396523D01*
X211552001Y-101344810D01*
X211569161Y-101321488D01*
X211568007Y-101320692D01*
X211615398Y-101252034D01*
X211666987Y-101177295D01*
X211723349Y-101028682D01*
X211742507Y-100870900D01*
X211723349Y-100713118D01*
X211666987Y-100564505D01*
X211576698Y-100433699D01*
X211457729Y-100328301D01*
X211316993Y-100254437D01*
X211162671Y-100216400D01*
X211003729Y-100216400D01*
X210849407Y-100254437D01*
X210849406Y-100254437D01*
X210849404Y-100254438D01*
X210708672Y-100328300D01*
X210589701Y-100433699D01*
X210499412Y-100564505D01*
X210443050Y-100713119D01*
X210423893Y-100870899D01*
X210443050Y-101028680D01*
X210499413Y-101177296D01*
X210501594Y-101180456D01*
X210518194Y-101214547D01*
X210523900Y-101252034D01*
X210523900Y-102239171D01*
X210504933Y-102305654D01*
X210453742Y-102352121D01*
X210385740Y-102364583D01*
X210321398Y-102339288D01*
X210295291Y-102304254D01*
X210292478Y-102306196D01*
X210193498Y-102162799D01*
X210121946Y-102099409D01*
X210090600Y-102056809D01*
X210079500Y-102005097D01*
X210079500Y-99217807D01*
X210082182Y-99191949D01*
X210084418Y-99181285D01*
X210080468Y-99149597D01*
X210079500Y-99134011D01*
X210079500Y-99133941D01*
X210076044Y-99113237D01*
X210075296Y-99108113D01*
X210068752Y-99055603D01*
X210068751Y-99055601D01*
X210067756Y-99047616D01*
X210067730Y-99047536D01*
X210038734Y-98993954D01*
X210036351Y-98989325D01*
X210009592Y-98934589D01*
X210009545Y-98934526D01*
X210003619Y-98929071D01*
X210003619Y-98929070D01*
X209964713Y-98893254D01*
X209960957Y-98889649D01*
X209355521Y-98284213D01*
X209339133Y-98264033D01*
X209333170Y-98254906D01*
X209307958Y-98235282D01*
X209296256Y-98224947D01*
X209296220Y-98224911D01*
X209279135Y-98212712D01*
X209274966Y-98209603D01*
X209250084Y-98190238D01*
X209233222Y-98177114D01*
X209233220Y-98177113D01*
X209226870Y-98172171D01*
X209226795Y-98172132D01*
X209168414Y-98154751D01*
X209163456Y-98153162D01*
X209097669Y-98130578D01*
X209076655Y-98126398D01*
X209035778Y-98099084D01*
X208375405Y-97438711D01*
X208348091Y-97397834D01*
X208338500Y-97349616D01*
X208338500Y-96197299D01*
X231607493Y-96197299D01*
X231626650Y-96355080D01*
X231683012Y-96503694D01*
X231749454Y-96599952D01*
X231773302Y-96634501D01*
X231892271Y-96739899D01*
X232033007Y-96813763D01*
X232187329Y-96851800D01*
X232346269Y-96851800D01*
X232346271Y-96851800D01*
X232500593Y-96813763D01*
X232641329Y-96739899D01*
X232760298Y-96634501D01*
X232762561Y-96631221D01*
X232807701Y-96591232D01*
X232866256Y-96576800D01*
X234054944Y-96576800D01*
X234113499Y-96591232D01*
X234158638Y-96631221D01*
X234160902Y-96634501D01*
X234279871Y-96739899D01*
X234420607Y-96813763D01*
X234574929Y-96851800D01*
X234733869Y-96851800D01*
X234733871Y-96851800D01*
X234888193Y-96813763D01*
X235028929Y-96739899D01*
X235147898Y-96634501D01*
X235238187Y-96503695D01*
X235294549Y-96355082D01*
X235313707Y-96197300D01*
X235294549Y-96039518D01*
X235238187Y-95890905D01*
X235147898Y-95760099D01*
X235028929Y-95654701D01*
X234888193Y-95580837D01*
X234733871Y-95542800D01*
X234574929Y-95542800D01*
X234420607Y-95580837D01*
X234420606Y-95580837D01*
X234420604Y-95580838D01*
X234279872Y-95654700D01*
X234161459Y-95759605D01*
X234160902Y-95760099D01*
X234158638Y-95763378D01*
X234113499Y-95803368D01*
X234054944Y-95817800D01*
X232866256Y-95817800D01*
X232807701Y-95803368D01*
X232762561Y-95763378D01*
X232760298Y-95760099D01*
X232641329Y-95654701D01*
X232500593Y-95580837D01*
X232346271Y-95542800D01*
X232187329Y-95542800D01*
X232033007Y-95580837D01*
X232033006Y-95580837D01*
X232033004Y-95580838D01*
X231892272Y-95654700D01*
X231773301Y-95760099D01*
X231683012Y-95890905D01*
X231626650Y-96039519D01*
X231607493Y-96197299D01*
X208338500Y-96197299D01*
X208338500Y-93111426D01*
X208341182Y-93085568D01*
X208343419Y-93074899D01*
X208339468Y-93043204D01*
X208338500Y-93027618D01*
X208338500Y-93027558D01*
X208337104Y-93019191D01*
X208335040Y-93006823D01*
X208334294Y-93001700D01*
X208331132Y-92976337D01*
X208327752Y-92949218D01*
X208327751Y-92949217D01*
X208326756Y-92941228D01*
X208326732Y-92941155D01*
X208322900Y-92934074D01*
X208322900Y-92934073D01*
X208297746Y-92887593D01*
X208295362Y-92882961D01*
X208268593Y-92828204D01*
X208268545Y-92828140D01*
X208262619Y-92822685D01*
X208262619Y-92822684D01*
X208223713Y-92786868D01*
X208219957Y-92783263D01*
X206785418Y-91348724D01*
X206769030Y-91328544D01*
X206763067Y-91319417D01*
X206737855Y-91299793D01*
X206726153Y-91289458D01*
X206726117Y-91289422D01*
X206709032Y-91277223D01*
X206704863Y-91274114D01*
X206679981Y-91254749D01*
X206663119Y-91241625D01*
X206663117Y-91241624D01*
X206656767Y-91236682D01*
X206656692Y-91236643D01*
X206598311Y-91219262D01*
X206593353Y-91217673D01*
X206535722Y-91197888D01*
X206535630Y-91197875D01*
X206474786Y-91200392D01*
X206469579Y-91200500D01*
X205891749Y-91200500D01*
X205872040Y-91198949D01*
X205862814Y-91197488D01*
X205819999Y-91190706D01*
X205699702Y-91209760D01*
X205591176Y-91265056D01*
X205505056Y-91351176D01*
X205449758Y-91459705D01*
X205444194Y-91494836D01*
X205414259Y-91558450D01*
X205380300Y-91579999D01*
X205414259Y-91601549D01*
X205444194Y-91665164D01*
X205449758Y-91700294D01*
X205505056Y-91808823D01*
X205591178Y-91894945D01*
X205625601Y-91912484D01*
X205633716Y-91917647D01*
X205645680Y-91922714D01*
X205699702Y-91950240D01*
X205734834Y-91955804D01*
X205798449Y-91985739D01*
X205836121Y-92045099D01*
X205836121Y-92064623D01*
X205852330Y-92016875D01*
X205897880Y-91974769D01*
X205958002Y-91959500D01*
X206270616Y-91959500D01*
X206318834Y-91969091D01*
X206359711Y-91996405D01*
X207542595Y-93179289D01*
X207569909Y-93220166D01*
X207579500Y-93268384D01*
X207579500Y-97506574D01*
X207576818Y-97532432D01*
X207574580Y-97543100D01*
X207578532Y-97574796D01*
X207579500Y-97590382D01*
X207579500Y-97590448D01*
X207582955Y-97611159D01*
X207583705Y-97616304D01*
X207591241Y-97676751D01*
X207591276Y-97676861D01*
X207620255Y-97730410D01*
X207622638Y-97735039D01*
X207649406Y-97789793D01*
X207649461Y-97789866D01*
X207694284Y-97831130D01*
X207698041Y-97834735D01*
X208610070Y-98746764D01*
X208626455Y-98766939D01*
X208632421Y-98776071D01*
X208657630Y-98795692D01*
X208669331Y-98806026D01*
X208669370Y-98806065D01*
X208669373Y-98806067D01*
X208669376Y-98806070D01*
X208686488Y-98818288D01*
X208690631Y-98821378D01*
X208738723Y-98858809D01*
X208738785Y-98858841D01*
X208746506Y-98861139D01*
X208746510Y-98861142D01*
X208797232Y-98876241D01*
X208802096Y-98877800D01*
X208852162Y-98894989D01*
X208852163Y-98894989D01*
X208867923Y-98900400D01*
X208888937Y-98904580D01*
X208929814Y-98931894D01*
X209283595Y-99285675D01*
X209310909Y-99326552D01*
X209320500Y-99374770D01*
X209320500Y-102005097D01*
X209309399Y-102056809D01*
X209278054Y-102099409D01*
X209236625Y-102136112D01*
X209197751Y-102159612D01*
X209153071Y-102167800D01*
X204956684Y-102167800D01*
X204908466Y-102158209D01*
X204867589Y-102130895D01*
X201236405Y-98499711D01*
X201209091Y-98458834D01*
X201199500Y-98410616D01*
X201199500Y-96926126D01*
X201653478Y-96926126D01*
X201699856Y-96949757D01*
X201820000Y-96968787D01*
X201940141Y-96949758D01*
X201986518Y-96926126D01*
X202653478Y-96926126D01*
X202699856Y-96949757D01*
X202820000Y-96968787D01*
X202940141Y-96949758D01*
X202986518Y-96926126D01*
X203653478Y-96926126D01*
X203699856Y-96949757D01*
X203820000Y-96968787D01*
X203940141Y-96949758D01*
X203986518Y-96926126D01*
X204653478Y-96926126D01*
X204699856Y-96949757D01*
X204820000Y-96968787D01*
X204940141Y-96949758D01*
X204986518Y-96926126D01*
X205653478Y-96926126D01*
X205699856Y-96949757D01*
X205820000Y-96968787D01*
X205940141Y-96949758D01*
X205986520Y-96926125D01*
X205986521Y-96926125D01*
X205820001Y-96759605D01*
X205820000Y-96759605D01*
X205653478Y-96926126D01*
X204986518Y-96926126D01*
X204986520Y-96926125D01*
X204986521Y-96926125D01*
X204820001Y-96759605D01*
X204820000Y-96759605D01*
X204653478Y-96926126D01*
X203986518Y-96926126D01*
X203986520Y-96926125D01*
X203986521Y-96926125D01*
X203820001Y-96759605D01*
X203820000Y-96759605D01*
X203653478Y-96926126D01*
X202986518Y-96926126D01*
X202986520Y-96926125D01*
X202986521Y-96926125D01*
X202820001Y-96759605D01*
X202820000Y-96759605D01*
X202653478Y-96926126D01*
X201986518Y-96926126D01*
X201986520Y-96926125D01*
X201986521Y-96926125D01*
X201820001Y-96759605D01*
X201820000Y-96759605D01*
X201653478Y-96926126D01*
X201199500Y-96926126D01*
X201199500Y-96718002D01*
X201214769Y-96657880D01*
X201256875Y-96612330D01*
X201304626Y-96596120D01*
X201337321Y-96596120D01*
X201376749Y-96602895D01*
X201425462Y-96641298D01*
X201449949Y-96698291D01*
X201450242Y-96700143D01*
X201473872Y-96746520D01*
X201473873Y-96746520D01*
X201640394Y-96580001D01*
X201999605Y-96580001D01*
X202166125Y-96746521D01*
X202166125Y-96746520D01*
X202189757Y-96700141D01*
X202195551Y-96663566D01*
X202225486Y-96599952D01*
X202256925Y-96579999D01*
X202383074Y-96579999D01*
X202414514Y-96599951D01*
X202444449Y-96663566D01*
X202450242Y-96700143D01*
X202473872Y-96746520D01*
X202473873Y-96746520D01*
X202640394Y-96580001D01*
X202999605Y-96580001D01*
X203166125Y-96746521D01*
X203166125Y-96746520D01*
X203189757Y-96700141D01*
X203195551Y-96663566D01*
X203225486Y-96599952D01*
X203256925Y-96579999D01*
X203383074Y-96579999D01*
X203414514Y-96599951D01*
X203444449Y-96663566D01*
X203450242Y-96700143D01*
X203473872Y-96746520D01*
X203473873Y-96746520D01*
X203640394Y-96580001D01*
X203999605Y-96580001D01*
X204166125Y-96746521D01*
X204166125Y-96746520D01*
X204189757Y-96700141D01*
X204195551Y-96663566D01*
X204225486Y-96599952D01*
X204256925Y-96579999D01*
X204383074Y-96579999D01*
X204414514Y-96599951D01*
X204444449Y-96663566D01*
X204450242Y-96700143D01*
X204473872Y-96746520D01*
X204473873Y-96746520D01*
X204640394Y-96580001D01*
X204999605Y-96580001D01*
X205166125Y-96746521D01*
X205166125Y-96746520D01*
X205189757Y-96700141D01*
X205195551Y-96663566D01*
X205225486Y-96599952D01*
X205256925Y-96579999D01*
X205383074Y-96579999D01*
X205414514Y-96599951D01*
X205444449Y-96663566D01*
X205450242Y-96700143D01*
X205473872Y-96746520D01*
X205473873Y-96746520D01*
X205640394Y-96580001D01*
X205999605Y-96580001D01*
X206166125Y-96746521D01*
X206166125Y-96746520D01*
X206189758Y-96700141D01*
X206208787Y-96579999D01*
X206189757Y-96459856D01*
X206166126Y-96413478D01*
X205999605Y-96580000D01*
X205999605Y-96580001D01*
X205640394Y-96580001D01*
X205640395Y-96580000D01*
X205640395Y-96579999D01*
X205473874Y-96413478D01*
X205473872Y-96413478D01*
X205450242Y-96459857D01*
X205444449Y-96496433D01*
X205414514Y-96560048D01*
X205383074Y-96579999D01*
X205256925Y-96579999D01*
X205225486Y-96560047D01*
X205195551Y-96496433D01*
X205189757Y-96459856D01*
X205166126Y-96413478D01*
X204999605Y-96580000D01*
X204999605Y-96580001D01*
X204640394Y-96580001D01*
X204640395Y-96580000D01*
X204640395Y-96579999D01*
X204473874Y-96413478D01*
X204473872Y-96413478D01*
X204450242Y-96459857D01*
X204444449Y-96496433D01*
X204414514Y-96560048D01*
X204383074Y-96579999D01*
X204256925Y-96579999D01*
X204225486Y-96560047D01*
X204195551Y-96496433D01*
X204189757Y-96459856D01*
X204166126Y-96413478D01*
X203999605Y-96580000D01*
X203999605Y-96580001D01*
X203640394Y-96580001D01*
X203640395Y-96580000D01*
X203640395Y-96579999D01*
X203473874Y-96413478D01*
X203473872Y-96413478D01*
X203450242Y-96459857D01*
X203444449Y-96496433D01*
X203414514Y-96560048D01*
X203383074Y-96579999D01*
X203256925Y-96579999D01*
X203225486Y-96560047D01*
X203195551Y-96496433D01*
X203189757Y-96459856D01*
X203166126Y-96413478D01*
X202999605Y-96580000D01*
X202999605Y-96580001D01*
X202640394Y-96580001D01*
X202640395Y-96580000D01*
X202640395Y-96579999D01*
X202473874Y-96413478D01*
X202473872Y-96413478D01*
X202450242Y-96459857D01*
X202444449Y-96496433D01*
X202414514Y-96560048D01*
X202383074Y-96579999D01*
X202256925Y-96579999D01*
X202225486Y-96560047D01*
X202195551Y-96496433D01*
X202189757Y-96459856D01*
X202166126Y-96413478D01*
X201999605Y-96580000D01*
X201999605Y-96580001D01*
X201640394Y-96580001D01*
X201640395Y-96580000D01*
X201640395Y-96579999D01*
X201473874Y-96413478D01*
X201473872Y-96413478D01*
X201450242Y-96459857D01*
X201444702Y-96494835D01*
X201414766Y-96558449D01*
X201355405Y-96596120D01*
X201337321Y-96596120D01*
X201304626Y-96596120D01*
X201285099Y-96596120D01*
X201225739Y-96558448D01*
X201195804Y-96494833D01*
X201190240Y-96459702D01*
X201134945Y-96351179D01*
X201134944Y-96351178D01*
X201134943Y-96351176D01*
X201048823Y-96265056D01*
X200987625Y-96233874D01*
X201653478Y-96233874D01*
X201819999Y-96400395D01*
X201820000Y-96400395D01*
X201986519Y-96233874D01*
X202653478Y-96233874D01*
X202819999Y-96400395D01*
X202820000Y-96400395D01*
X202986519Y-96233874D01*
X203653478Y-96233874D01*
X203819999Y-96400395D01*
X203820000Y-96400395D01*
X203986519Y-96233874D01*
X204653478Y-96233874D01*
X204819999Y-96400395D01*
X204820000Y-96400395D01*
X204986519Y-96233874D01*
X205653478Y-96233874D01*
X205819999Y-96400395D01*
X205820000Y-96400395D01*
X205986520Y-96233873D01*
X205986520Y-96233872D01*
X205940143Y-96210242D01*
X205903566Y-96204449D01*
X205839951Y-96174514D01*
X205819999Y-96143074D01*
X205800048Y-96174514D01*
X205736433Y-96204449D01*
X205699857Y-96210242D01*
X205653478Y-96233872D01*
X205653478Y-96233874D01*
X204986519Y-96233874D01*
X204986520Y-96233873D01*
X204986520Y-96233872D01*
X204940143Y-96210242D01*
X204903566Y-96204449D01*
X204839951Y-96174514D01*
X204819999Y-96143074D01*
X204800048Y-96174514D01*
X204736433Y-96204449D01*
X204699857Y-96210242D01*
X204653478Y-96233872D01*
X204653478Y-96233874D01*
X203986519Y-96233874D01*
X203986520Y-96233873D01*
X203986520Y-96233872D01*
X203940143Y-96210242D01*
X203903566Y-96204449D01*
X203839951Y-96174514D01*
X203819999Y-96143074D01*
X203800048Y-96174514D01*
X203736433Y-96204449D01*
X203699857Y-96210242D01*
X203653478Y-96233872D01*
X203653478Y-96233874D01*
X202986519Y-96233874D01*
X202986520Y-96233873D01*
X202986520Y-96233872D01*
X202940143Y-96210242D01*
X202903566Y-96204449D01*
X202839951Y-96174514D01*
X202819999Y-96143074D01*
X202800048Y-96174514D01*
X202736433Y-96204449D01*
X202699857Y-96210242D01*
X202653478Y-96233872D01*
X202653478Y-96233874D01*
X201986519Y-96233874D01*
X201986520Y-96233873D01*
X201986520Y-96233872D01*
X201940143Y-96210242D01*
X201903566Y-96204449D01*
X201839951Y-96174514D01*
X201819999Y-96143074D01*
X201800048Y-96174514D01*
X201736433Y-96204449D01*
X201699857Y-96210242D01*
X201653478Y-96233872D01*
X201653478Y-96233874D01*
X200987625Y-96233874D01*
X200940294Y-96209758D01*
X200905164Y-96204194D01*
X200841549Y-96174259D01*
X200819999Y-96140300D01*
X200798450Y-96174259D01*
X200734836Y-96204194D01*
X200699705Y-96209758D01*
X200591176Y-96265056D01*
X200505055Y-96351177D01*
X200487480Y-96385670D01*
X200482356Y-96393732D01*
X200477312Y-96405625D01*
X200449758Y-96459703D01*
X200442647Y-96504599D01*
X200439925Y-96515550D01*
X200438949Y-96527962D01*
X200430706Y-96579999D01*
X162930500Y-96579999D01*
X162930500Y-95926126D01*
X200653478Y-95926126D01*
X200699856Y-95949757D01*
X200734832Y-95955297D01*
X200798447Y-95985231D01*
X200819999Y-96019191D01*
X200841552Y-95985231D01*
X200905167Y-95955297D01*
X200940141Y-95949758D01*
X200986518Y-95926126D01*
X201653478Y-95926126D01*
X201699856Y-95949757D01*
X201736433Y-95955551D01*
X201800047Y-95985486D01*
X201819999Y-96016925D01*
X201839952Y-95985486D01*
X201903566Y-95955551D01*
X201940141Y-95949757D01*
X201986518Y-95926126D01*
X202653478Y-95926126D01*
X202699856Y-95949757D01*
X202736433Y-95955551D01*
X202800047Y-95985486D01*
X202819999Y-96016925D01*
X202839952Y-95985486D01*
X202903566Y-95955551D01*
X202940141Y-95949757D01*
X202986518Y-95926126D01*
X203653478Y-95926126D01*
X203699856Y-95949757D01*
X203736433Y-95955551D01*
X203800047Y-95985486D01*
X203819999Y-96016925D01*
X203839952Y-95985486D01*
X203903566Y-95955551D01*
X203940141Y-95949757D01*
X203986518Y-95926126D01*
X204653478Y-95926126D01*
X204699856Y-95949757D01*
X204736433Y-95955551D01*
X204800047Y-95985486D01*
X204819999Y-96016925D01*
X204839952Y-95985486D01*
X204903566Y-95955551D01*
X204940141Y-95949757D01*
X204986518Y-95926126D01*
X205653478Y-95926126D01*
X205699856Y-95949757D01*
X205736433Y-95955551D01*
X205800047Y-95985486D01*
X205819999Y-96016925D01*
X205839952Y-95985486D01*
X205903566Y-95955551D01*
X205940141Y-95949757D01*
X205986520Y-95926125D01*
X205986521Y-95926124D01*
X205820001Y-95759605D01*
X205820000Y-95759605D01*
X205653478Y-95926126D01*
X204986518Y-95926126D01*
X204986520Y-95926125D01*
X204986521Y-95926124D01*
X204820001Y-95759605D01*
X204820000Y-95759605D01*
X204653478Y-95926126D01*
X203986518Y-95926126D01*
X203986520Y-95926125D01*
X203986521Y-95926124D01*
X203820001Y-95759605D01*
X203820000Y-95759605D01*
X203653478Y-95926126D01*
X202986518Y-95926126D01*
X202986520Y-95926125D01*
X202986521Y-95926124D01*
X202820001Y-95759605D01*
X202820000Y-95759605D01*
X202653478Y-95926126D01*
X201986518Y-95926126D01*
X201986520Y-95926125D01*
X201986521Y-95926124D01*
X201820001Y-95759605D01*
X201820000Y-95759605D01*
X201653478Y-95926126D01*
X200986518Y-95926126D01*
X200986520Y-95926125D01*
X200986521Y-95926124D01*
X200820001Y-95759605D01*
X200820000Y-95759605D01*
X200653478Y-95926126D01*
X162930500Y-95926126D01*
X162930500Y-95580000D01*
X200431213Y-95580000D01*
X200450242Y-95700143D01*
X200473872Y-95746520D01*
X200473873Y-95746520D01*
X200640394Y-95580001D01*
X200999605Y-95580001D01*
X201166125Y-95746521D01*
X201166125Y-95746520D01*
X201189757Y-95700141D01*
X201195551Y-95663566D01*
X201225486Y-95599952D01*
X201256925Y-95579999D01*
X201383074Y-95579999D01*
X201414514Y-95599951D01*
X201444449Y-95663566D01*
X201450242Y-95700143D01*
X201473872Y-95746520D01*
X201473873Y-95746520D01*
X201640394Y-95580001D01*
X201999605Y-95580001D01*
X202166125Y-95746521D01*
X202166125Y-95746520D01*
X202189757Y-95700141D01*
X202195551Y-95663566D01*
X202225486Y-95599952D01*
X202256925Y-95579999D01*
X202383074Y-95579999D01*
X202414514Y-95599951D01*
X202444449Y-95663566D01*
X202450242Y-95700143D01*
X202473872Y-95746520D01*
X202473873Y-95746520D01*
X202640394Y-95580001D01*
X202999605Y-95580001D01*
X203166125Y-95746521D01*
X203166125Y-95746520D01*
X203189757Y-95700141D01*
X203195551Y-95663566D01*
X203225486Y-95599952D01*
X203256925Y-95579999D01*
X203383074Y-95579999D01*
X203414514Y-95599951D01*
X203444449Y-95663566D01*
X203450242Y-95700143D01*
X203473872Y-95746520D01*
X203473873Y-95746520D01*
X203640394Y-95580001D01*
X203999605Y-95580001D01*
X204166125Y-95746521D01*
X204166125Y-95746520D01*
X204189757Y-95700141D01*
X204195551Y-95663566D01*
X204225486Y-95599952D01*
X204256925Y-95579999D01*
X204383074Y-95579999D01*
X204414514Y-95599951D01*
X204444449Y-95663566D01*
X204450242Y-95700143D01*
X204473872Y-95746520D01*
X204473873Y-95746520D01*
X204640394Y-95580001D01*
X204999605Y-95580001D01*
X205166125Y-95746521D01*
X205166125Y-95746520D01*
X205189757Y-95700141D01*
X205195551Y-95663566D01*
X205225486Y-95599952D01*
X205256925Y-95579999D01*
X205383074Y-95579999D01*
X205414514Y-95599951D01*
X205444449Y-95663566D01*
X205450242Y-95700143D01*
X205473872Y-95746520D01*
X205473873Y-95746520D01*
X205640394Y-95580001D01*
X205999605Y-95580001D01*
X206166125Y-95746521D01*
X206166125Y-95746520D01*
X206189758Y-95700141D01*
X206208787Y-95580000D01*
X206189757Y-95459856D01*
X206166126Y-95413478D01*
X205999605Y-95580000D01*
X205999605Y-95580001D01*
X205640394Y-95580001D01*
X205640395Y-95580000D01*
X205640395Y-95579999D01*
X205473874Y-95413478D01*
X205473872Y-95413478D01*
X205450242Y-95459857D01*
X205444449Y-95496433D01*
X205414514Y-95560048D01*
X205383074Y-95579999D01*
X205256925Y-95579999D01*
X205225486Y-95560047D01*
X205195551Y-95496433D01*
X205189757Y-95459856D01*
X205166126Y-95413478D01*
X204999605Y-95580000D01*
X204999605Y-95580001D01*
X204640394Y-95580001D01*
X204640395Y-95580000D01*
X204640395Y-95579999D01*
X204473874Y-95413478D01*
X204473872Y-95413478D01*
X204450242Y-95459857D01*
X204444449Y-95496433D01*
X204414514Y-95560048D01*
X204383074Y-95579999D01*
X204256925Y-95579999D01*
X204225486Y-95560047D01*
X204195551Y-95496433D01*
X204189757Y-95459856D01*
X204166126Y-95413478D01*
X203999605Y-95580000D01*
X203999605Y-95580001D01*
X203640394Y-95580001D01*
X203640395Y-95580000D01*
X203640395Y-95579999D01*
X203473874Y-95413478D01*
X203473872Y-95413478D01*
X203450242Y-95459857D01*
X203444449Y-95496433D01*
X203414514Y-95560048D01*
X203383074Y-95579999D01*
X203256925Y-95579999D01*
X203225486Y-95560047D01*
X203195551Y-95496433D01*
X203189757Y-95459856D01*
X203166126Y-95413478D01*
X202999605Y-95580000D01*
X202999605Y-95580001D01*
X202640394Y-95580001D01*
X202640395Y-95580000D01*
X202640395Y-95579999D01*
X202473874Y-95413478D01*
X202473872Y-95413478D01*
X202450242Y-95459857D01*
X202444449Y-95496433D01*
X202414514Y-95560048D01*
X202383074Y-95579999D01*
X202256925Y-95579999D01*
X202225486Y-95560047D01*
X202195551Y-95496433D01*
X202189757Y-95459856D01*
X202166126Y-95413478D01*
X201999605Y-95580000D01*
X201999605Y-95580001D01*
X201640394Y-95580001D01*
X201640395Y-95580000D01*
X201640395Y-95579999D01*
X201473874Y-95413478D01*
X201473872Y-95413478D01*
X201450242Y-95459857D01*
X201444449Y-95496433D01*
X201414514Y-95560048D01*
X201383074Y-95579999D01*
X201256925Y-95579999D01*
X201225486Y-95560047D01*
X201195551Y-95496433D01*
X201189757Y-95459856D01*
X201166126Y-95413478D01*
X200999605Y-95580000D01*
X200999605Y-95580001D01*
X200640394Y-95580001D01*
X200640395Y-95580000D01*
X200640395Y-95579999D01*
X200473874Y-95413478D01*
X200473872Y-95413478D01*
X200450242Y-95459857D01*
X200431213Y-95580000D01*
X162930500Y-95580000D01*
X162930500Y-95233874D01*
X200653478Y-95233874D01*
X200819999Y-95400395D01*
X200820000Y-95400395D01*
X200986519Y-95233874D01*
X201653478Y-95233874D01*
X201819999Y-95400395D01*
X201820000Y-95400395D01*
X201986519Y-95233874D01*
X202653478Y-95233874D01*
X202819999Y-95400395D01*
X202820000Y-95400395D01*
X202986519Y-95233874D01*
X203653478Y-95233874D01*
X203819999Y-95400395D01*
X203820000Y-95400395D01*
X203986519Y-95233874D01*
X204653478Y-95233874D01*
X204819999Y-95400395D01*
X204820000Y-95400395D01*
X204986519Y-95233874D01*
X205653478Y-95233874D01*
X205819999Y-95400395D01*
X205820000Y-95400395D01*
X205986520Y-95233873D01*
X205986520Y-95233872D01*
X205940143Y-95210242D01*
X205905164Y-95204702D01*
X205841550Y-95174766D01*
X205819999Y-95140807D01*
X205798449Y-95174766D01*
X205734835Y-95204702D01*
X205699857Y-95210242D01*
X205653478Y-95233872D01*
X205653478Y-95233874D01*
X204986519Y-95233874D01*
X204986520Y-95233873D01*
X204986520Y-95233872D01*
X204940143Y-95210242D01*
X204903566Y-95204449D01*
X204839951Y-95174514D01*
X204819999Y-95143074D01*
X204800048Y-95174514D01*
X204736433Y-95204449D01*
X204699857Y-95210242D01*
X204653478Y-95233872D01*
X204653478Y-95233874D01*
X203986519Y-95233874D01*
X203986520Y-95233873D01*
X203986520Y-95233872D01*
X203940143Y-95210242D01*
X203903566Y-95204449D01*
X203839951Y-95174514D01*
X203819999Y-95143074D01*
X203800048Y-95174514D01*
X203736433Y-95204449D01*
X203699857Y-95210242D01*
X203653478Y-95233872D01*
X203653478Y-95233874D01*
X202986519Y-95233874D01*
X202986520Y-95233873D01*
X202986520Y-95233872D01*
X202940143Y-95210242D01*
X202903566Y-95204449D01*
X202839951Y-95174514D01*
X202819999Y-95143074D01*
X202800048Y-95174514D01*
X202736433Y-95204449D01*
X202699857Y-95210242D01*
X202653478Y-95233872D01*
X202653478Y-95233874D01*
X201986519Y-95233874D01*
X201986520Y-95233873D01*
X201986520Y-95233872D01*
X201940143Y-95210242D01*
X201903566Y-95204449D01*
X201839951Y-95174514D01*
X201819999Y-95143074D01*
X201800048Y-95174514D01*
X201736433Y-95204449D01*
X201699857Y-95210242D01*
X201653478Y-95233872D01*
X201653478Y-95233874D01*
X200986519Y-95233874D01*
X200986520Y-95233873D01*
X200986520Y-95233872D01*
X200940143Y-95210242D01*
X200905164Y-95204702D01*
X200841550Y-95174766D01*
X200819999Y-95140807D01*
X200798449Y-95174766D01*
X200734835Y-95204702D01*
X200699857Y-95210242D01*
X200653478Y-95233872D01*
X200653478Y-95233874D01*
X162930500Y-95233874D01*
X162930500Y-93110000D01*
X197800693Y-93110000D01*
X197819850Y-93267780D01*
X197876212Y-93416394D01*
X197906212Y-93459857D01*
X197966502Y-93547201D01*
X198085471Y-93652599D01*
X198226207Y-93726463D01*
X198380529Y-93764500D01*
X198380531Y-93764500D01*
X198525616Y-93764500D01*
X198573834Y-93774091D01*
X198614711Y-93801405D01*
X198624581Y-93811275D01*
X198640966Y-93831450D01*
X198646932Y-93840582D01*
X198672141Y-93860203D01*
X198683842Y-93870537D01*
X198683882Y-93870577D01*
X198700977Y-93882782D01*
X198705141Y-93885887D01*
X198716776Y-93894943D01*
X198753225Y-93923313D01*
X198753314Y-93923359D01*
X198811697Y-93940740D01*
X198816660Y-93942330D01*
X198838294Y-93949757D01*
X198855170Y-93955551D01*
X198874276Y-93962110D01*
X198874366Y-93962123D01*
X198882407Y-93961790D01*
X198882409Y-93961791D01*
X198932365Y-93959725D01*
X198935200Y-93959608D01*
X198940406Y-93959500D01*
X200314500Y-93959500D01*
X200377500Y-93976381D01*
X200423619Y-94022500D01*
X200440500Y-94085500D01*
X200440500Y-94508251D01*
X200438949Y-94527962D01*
X200430706Y-94580000D01*
X200444196Y-94665167D01*
X200449760Y-94700298D01*
X200481328Y-94762254D01*
X200505056Y-94808823D01*
X200591176Y-94894943D01*
X200591178Y-94894944D01*
X200591179Y-94894945D01*
X200699702Y-94950240D01*
X200734833Y-94955804D01*
X200798448Y-94985739D01*
X200819999Y-95019697D01*
X200841551Y-94985739D01*
X200905165Y-94955804D01*
X200940298Y-94950240D01*
X200987625Y-94926126D01*
X201653477Y-94926126D01*
X201699856Y-94949757D01*
X201736433Y-94955551D01*
X201800047Y-94985486D01*
X201819999Y-95016925D01*
X201839952Y-94985486D01*
X201903566Y-94955551D01*
X201940141Y-94949757D01*
X201986518Y-94926126D01*
X202653477Y-94926126D01*
X202699856Y-94949757D01*
X202736433Y-94955551D01*
X202800047Y-94985486D01*
X202819999Y-95016925D01*
X202839952Y-94985486D01*
X202903566Y-94955551D01*
X202940141Y-94949757D01*
X202986518Y-94926126D01*
X203653477Y-94926126D01*
X203699856Y-94949757D01*
X203736433Y-94955551D01*
X203800047Y-94985486D01*
X203819999Y-95016925D01*
X203839952Y-94985486D01*
X203903566Y-94955551D01*
X203940141Y-94949757D01*
X203986518Y-94926126D01*
X204653478Y-94926126D01*
X204699856Y-94949757D01*
X204736433Y-94955551D01*
X204800047Y-94985486D01*
X204819999Y-95016925D01*
X204839952Y-94985486D01*
X204903566Y-94955551D01*
X204940141Y-94949757D01*
X204986520Y-94926125D01*
X204986521Y-94926125D01*
X204820001Y-94759605D01*
X204820000Y-94759605D01*
X204653478Y-94926126D01*
X203986518Y-94926126D01*
X203986520Y-94926125D01*
X203986521Y-94926125D01*
X203820001Y-94759605D01*
X203820000Y-94759605D01*
X203653477Y-94926126D01*
X202986518Y-94926126D01*
X202986520Y-94926125D01*
X202986521Y-94926125D01*
X202820001Y-94759605D01*
X202820000Y-94759605D01*
X202653477Y-94926126D01*
X201986518Y-94926126D01*
X201986520Y-94926125D01*
X201986521Y-94926125D01*
X201820001Y-94759605D01*
X201820000Y-94759605D01*
X201653477Y-94926126D01*
X200987625Y-94926126D01*
X201048821Y-94894945D01*
X201134945Y-94808821D01*
X201152459Y-94774444D01*
X201157636Y-94766316D01*
X201162721Y-94754304D01*
X201190240Y-94700298D01*
X201195804Y-94665164D01*
X201225738Y-94601550D01*
X201285099Y-94563877D01*
X201304617Y-94563877D01*
X201337339Y-94563877D01*
X201355405Y-94563877D01*
X201414767Y-94601548D01*
X201444702Y-94665163D01*
X201450242Y-94700143D01*
X201473872Y-94746520D01*
X201473873Y-94746520D01*
X201640394Y-94580001D01*
X201999605Y-94580001D01*
X202166125Y-94746521D01*
X202166125Y-94746520D01*
X202189757Y-94700141D01*
X202195551Y-94663566D01*
X202225486Y-94599952D01*
X202256925Y-94579999D01*
X202383074Y-94579999D01*
X202414514Y-94599951D01*
X202444449Y-94663566D01*
X202450242Y-94700143D01*
X202473872Y-94746520D01*
X202473873Y-94746520D01*
X202640394Y-94580001D01*
X202999605Y-94580001D01*
X203166125Y-94746521D01*
X203166125Y-94746520D01*
X203189757Y-94700141D01*
X203195551Y-94663566D01*
X203225486Y-94599952D01*
X203256925Y-94579999D01*
X203383074Y-94579999D01*
X203414514Y-94599951D01*
X203444449Y-94663566D01*
X203450242Y-94700143D01*
X203473872Y-94746520D01*
X203473873Y-94746520D01*
X203640394Y-94580001D01*
X203999605Y-94580001D01*
X204166125Y-94746521D01*
X204166125Y-94746520D01*
X204189757Y-94700141D01*
X204195551Y-94663566D01*
X204225486Y-94599952D01*
X204256925Y-94579999D01*
X204383074Y-94579999D01*
X204414514Y-94599951D01*
X204444449Y-94663566D01*
X204450242Y-94700143D01*
X204473872Y-94746520D01*
X204473873Y-94746520D01*
X204640394Y-94580001D01*
X204999605Y-94580001D01*
X205166125Y-94746521D01*
X205166125Y-94746520D01*
X205189758Y-94700141D01*
X205195297Y-94665167D01*
X205225231Y-94601552D01*
X205259191Y-94579999D01*
X205380300Y-94579999D01*
X205414259Y-94601549D01*
X205444194Y-94665164D01*
X205449758Y-94700294D01*
X205505056Y-94808823D01*
X205591176Y-94894943D01*
X205591178Y-94894944D01*
X205591179Y-94894945D01*
X205699702Y-94950240D01*
X205734833Y-94955804D01*
X205798448Y-94985739D01*
X205819999Y-95019697D01*
X205841551Y-94985739D01*
X205905165Y-94955804D01*
X205940298Y-94950240D01*
X206048821Y-94894945D01*
X206134945Y-94808821D01*
X206190240Y-94700298D01*
X206209293Y-94580000D01*
X206190240Y-94459702D01*
X206134945Y-94351179D01*
X206134944Y-94351178D01*
X206134943Y-94351176D01*
X206048823Y-94265056D01*
X206044912Y-94263063D01*
X205940298Y-94209760D01*
X205906763Y-94204448D01*
X205843150Y-94174514D01*
X205819999Y-94138035D01*
X205796849Y-94174514D01*
X205733235Y-94204449D01*
X205699702Y-94209760D01*
X205591176Y-94265056D01*
X205505056Y-94351176D01*
X205449758Y-94459705D01*
X205444194Y-94494836D01*
X205414259Y-94558450D01*
X205380300Y-94579999D01*
X205259191Y-94579999D01*
X205225231Y-94558447D01*
X205195297Y-94494832D01*
X205189757Y-94459856D01*
X205166126Y-94413478D01*
X204999605Y-94580000D01*
X204999605Y-94580001D01*
X204640394Y-94580001D01*
X204640395Y-94580000D01*
X204640395Y-94579999D01*
X204473874Y-94413478D01*
X204473872Y-94413478D01*
X204450242Y-94459857D01*
X204444449Y-94496433D01*
X204414514Y-94560048D01*
X204383074Y-94579999D01*
X204256925Y-94579999D01*
X204225486Y-94560047D01*
X204195551Y-94496433D01*
X204189757Y-94459856D01*
X204166126Y-94413478D01*
X203999605Y-94580000D01*
X203999605Y-94580001D01*
X203640394Y-94580001D01*
X203640395Y-94580000D01*
X203640395Y-94579999D01*
X203473874Y-94413478D01*
X203473872Y-94413478D01*
X203450242Y-94459857D01*
X203444449Y-94496433D01*
X203414514Y-94560048D01*
X203383074Y-94579999D01*
X203256925Y-94579999D01*
X203225486Y-94560047D01*
X203195551Y-94496433D01*
X203189757Y-94459856D01*
X203166126Y-94413478D01*
X202999605Y-94580000D01*
X202999605Y-94580001D01*
X202640394Y-94580001D01*
X202640395Y-94580000D01*
X202640395Y-94579999D01*
X202473874Y-94413478D01*
X202473872Y-94413478D01*
X202450242Y-94459857D01*
X202444449Y-94496433D01*
X202414514Y-94560048D01*
X202383074Y-94579999D01*
X202256925Y-94579999D01*
X202225486Y-94560047D01*
X202195551Y-94496433D01*
X202189757Y-94459856D01*
X202166126Y-94413478D01*
X201999605Y-94580000D01*
X201999605Y-94580001D01*
X201640394Y-94580001D01*
X201640395Y-94580000D01*
X201640395Y-94579999D01*
X201473874Y-94413478D01*
X201473872Y-94413478D01*
X201450242Y-94459857D01*
X201449949Y-94461709D01*
X201425462Y-94518702D01*
X201376749Y-94557105D01*
X201337339Y-94563877D01*
X201304617Y-94563877D01*
X201256875Y-94547670D01*
X201214769Y-94502120D01*
X201199500Y-94441998D01*
X201199500Y-94233874D01*
X201653478Y-94233874D01*
X201819999Y-94400395D01*
X201820000Y-94400395D01*
X201986519Y-94233874D01*
X202653478Y-94233874D01*
X202819999Y-94400395D01*
X202820000Y-94400395D01*
X202986519Y-94233874D01*
X203653478Y-94233874D01*
X203819999Y-94400395D01*
X203820000Y-94400395D01*
X203986519Y-94233874D01*
X204653478Y-94233874D01*
X204819999Y-94400395D01*
X204820000Y-94400395D01*
X204986520Y-94233873D01*
X204986520Y-94233872D01*
X204940143Y-94210242D01*
X204903566Y-94204449D01*
X204839951Y-94174514D01*
X204819999Y-94143074D01*
X204800048Y-94174514D01*
X204736433Y-94204449D01*
X204699857Y-94210242D01*
X204653478Y-94233872D01*
X204653478Y-94233874D01*
X203986519Y-94233874D01*
X203986520Y-94233873D01*
X203986520Y-94233872D01*
X203940143Y-94210242D01*
X203903566Y-94204449D01*
X203839951Y-94174514D01*
X203819999Y-94143074D01*
X203800048Y-94174514D01*
X203736433Y-94204449D01*
X203699857Y-94210242D01*
X203653478Y-94233872D01*
X203653478Y-94233874D01*
X202986519Y-94233874D01*
X202986520Y-94233873D01*
X202986520Y-94233872D01*
X202940143Y-94210242D01*
X202903566Y-94204449D01*
X202839951Y-94174514D01*
X202819999Y-94143074D01*
X202800048Y-94174514D01*
X202736433Y-94204449D01*
X202699857Y-94210242D01*
X202653478Y-94233872D01*
X202653478Y-94233874D01*
X201986519Y-94233874D01*
X201986520Y-94233873D01*
X201986520Y-94233872D01*
X201940143Y-94210242D01*
X201903566Y-94204449D01*
X201839951Y-94174514D01*
X201819999Y-94143074D01*
X201800048Y-94174514D01*
X201736433Y-94204449D01*
X201699857Y-94210242D01*
X201653478Y-94233872D01*
X201653478Y-94233874D01*
X201199500Y-94233874D01*
X201199500Y-93926126D01*
X201653478Y-93926126D01*
X201699856Y-93949757D01*
X201736433Y-93955551D01*
X201800047Y-93985486D01*
X201819999Y-94016925D01*
X201839952Y-93985486D01*
X201903566Y-93955551D01*
X201940141Y-93949757D01*
X201986518Y-93926126D01*
X202653478Y-93926126D01*
X202699856Y-93949757D01*
X202736433Y-93955551D01*
X202800047Y-93985486D01*
X202819999Y-94016925D01*
X202839952Y-93985486D01*
X202903566Y-93955551D01*
X202940141Y-93949757D01*
X202986518Y-93926126D01*
X203653478Y-93926126D01*
X203699856Y-93949757D01*
X203736433Y-93955551D01*
X203800047Y-93985486D01*
X203819999Y-94016925D01*
X203839952Y-93985486D01*
X203903566Y-93955551D01*
X203940141Y-93949757D01*
X203986518Y-93926126D01*
X204653478Y-93926126D01*
X204699856Y-93949757D01*
X204736433Y-93955551D01*
X204800047Y-93985486D01*
X204819999Y-94016925D01*
X204839952Y-93985486D01*
X204903566Y-93955551D01*
X204940141Y-93949757D01*
X204986520Y-93926125D01*
X204986521Y-93926124D01*
X204820001Y-93759605D01*
X204820000Y-93759605D01*
X204653478Y-93926126D01*
X203986518Y-93926126D01*
X203986520Y-93926125D01*
X203986521Y-93926124D01*
X203820001Y-93759605D01*
X203820000Y-93759605D01*
X203653478Y-93926126D01*
X202986518Y-93926126D01*
X202986520Y-93926125D01*
X202986521Y-93926124D01*
X202820001Y-93759605D01*
X202820000Y-93759605D01*
X202653478Y-93926126D01*
X201986518Y-93926126D01*
X201986520Y-93926125D01*
X201986521Y-93926124D01*
X201820001Y-93759605D01*
X201820000Y-93759605D01*
X201653478Y-93926126D01*
X201199500Y-93926126D01*
X201199500Y-93718002D01*
X201214769Y-93657880D01*
X201256875Y-93612330D01*
X201304626Y-93596120D01*
X201337321Y-93596120D01*
X201376749Y-93602895D01*
X201425462Y-93641298D01*
X201449949Y-93698291D01*
X201450242Y-93700143D01*
X201473872Y-93746520D01*
X201473873Y-93746520D01*
X201640394Y-93580001D01*
X201999605Y-93580001D01*
X202166125Y-93746521D01*
X202166125Y-93746520D01*
X202189757Y-93700141D01*
X202195551Y-93663566D01*
X202225486Y-93599952D01*
X202256925Y-93579999D01*
X202383074Y-93579999D01*
X202414514Y-93599951D01*
X202444449Y-93663566D01*
X202450242Y-93700143D01*
X202473872Y-93746520D01*
X202473873Y-93746520D01*
X202640394Y-93580001D01*
X202999605Y-93580001D01*
X203166125Y-93746521D01*
X203166125Y-93746520D01*
X203189757Y-93700141D01*
X203195551Y-93663566D01*
X203225486Y-93599952D01*
X203256925Y-93579999D01*
X203383074Y-93579999D01*
X203414514Y-93599951D01*
X203444449Y-93663566D01*
X203450242Y-93700143D01*
X203473872Y-93746520D01*
X203473873Y-93746520D01*
X203640394Y-93580001D01*
X203999605Y-93580001D01*
X204166125Y-93746521D01*
X204166125Y-93746520D01*
X204189757Y-93700141D01*
X204195551Y-93663566D01*
X204225486Y-93599952D01*
X204256925Y-93579999D01*
X204383074Y-93579999D01*
X204414514Y-93599951D01*
X204444449Y-93663566D01*
X204450242Y-93700143D01*
X204473872Y-93746520D01*
X204473873Y-93746520D01*
X204640394Y-93580001D01*
X204999605Y-93580001D01*
X205166125Y-93746521D01*
X205166125Y-93746520D01*
X205189758Y-93700141D01*
X205195297Y-93665167D01*
X205225231Y-93601552D01*
X205259191Y-93579999D01*
X205380300Y-93579999D01*
X205414259Y-93601549D01*
X205444194Y-93665164D01*
X205449758Y-93700294D01*
X205505056Y-93808823D01*
X205591176Y-93894943D01*
X205591178Y-93894944D01*
X205591179Y-93894945D01*
X205699702Y-93950240D01*
X205733235Y-93955551D01*
X205796849Y-93985486D01*
X205819999Y-94021964D01*
X205843150Y-93985486D01*
X205906763Y-93955551D01*
X205940298Y-93950240D01*
X206048821Y-93894945D01*
X206134945Y-93808821D01*
X206190240Y-93700298D01*
X206209293Y-93580000D01*
X206190240Y-93459702D01*
X206134945Y-93351179D01*
X206134944Y-93351178D01*
X206134943Y-93351176D01*
X206048823Y-93265056D01*
X205940294Y-93209758D01*
X205905164Y-93204194D01*
X205841549Y-93174259D01*
X205819999Y-93140300D01*
X205798450Y-93174259D01*
X205734836Y-93204194D01*
X205699705Y-93209758D01*
X205591176Y-93265056D01*
X205505056Y-93351176D01*
X205449758Y-93459705D01*
X205444194Y-93494836D01*
X205414259Y-93558450D01*
X205380300Y-93579999D01*
X205259191Y-93579999D01*
X205225231Y-93558447D01*
X205195297Y-93494832D01*
X205189757Y-93459856D01*
X205166126Y-93413478D01*
X204999605Y-93580000D01*
X204999605Y-93580001D01*
X204640394Y-93580001D01*
X204640395Y-93580000D01*
X204640395Y-93579999D01*
X204473874Y-93413478D01*
X204473872Y-93413478D01*
X204450242Y-93459857D01*
X204444449Y-93496433D01*
X204414514Y-93560048D01*
X204383074Y-93579999D01*
X204256925Y-93579999D01*
X204225486Y-93560047D01*
X204195551Y-93496433D01*
X204189757Y-93459856D01*
X204166126Y-93413478D01*
X203999605Y-93580000D01*
X203999605Y-93580001D01*
X203640394Y-93580001D01*
X203640395Y-93580000D01*
X203640395Y-93579999D01*
X203473874Y-93413478D01*
X203473872Y-93413478D01*
X203450242Y-93459857D01*
X203444449Y-93496433D01*
X203414514Y-93560048D01*
X203383074Y-93579999D01*
X203256925Y-93579999D01*
X203225486Y-93560047D01*
X203195551Y-93496433D01*
X203189757Y-93459856D01*
X203166126Y-93413478D01*
X202999605Y-93580000D01*
X202999605Y-93580001D01*
X202640394Y-93580001D01*
X202640395Y-93580000D01*
X202640395Y-93579999D01*
X202473874Y-93413478D01*
X202473872Y-93413478D01*
X202450242Y-93459857D01*
X202444449Y-93496433D01*
X202414514Y-93560048D01*
X202383074Y-93579999D01*
X202256925Y-93579999D01*
X202225486Y-93560047D01*
X202195551Y-93496433D01*
X202189757Y-93459856D01*
X202166126Y-93413478D01*
X201999605Y-93580000D01*
X201999605Y-93580001D01*
X201640394Y-93580001D01*
X201640395Y-93580000D01*
X201640395Y-93579999D01*
X201473874Y-93413478D01*
X201473872Y-93413478D01*
X201450242Y-93459857D01*
X201444702Y-93494835D01*
X201414766Y-93558449D01*
X201355405Y-93596120D01*
X201337321Y-93596120D01*
X201304626Y-93596120D01*
X201285099Y-93596120D01*
X201225739Y-93558448D01*
X201195804Y-93494833D01*
X201195804Y-93494832D01*
X201190240Y-93459702D01*
X201134945Y-93351179D01*
X201134944Y-93351178D01*
X201134943Y-93351176D01*
X201048822Y-93265055D01*
X201014383Y-93247508D01*
X201006299Y-93242366D01*
X200994357Y-93237303D01*
X200987627Y-93233874D01*
X201653478Y-93233874D01*
X201819999Y-93400395D01*
X201820000Y-93400395D01*
X201986519Y-93233874D01*
X202653478Y-93233874D01*
X202819999Y-93400395D01*
X202820000Y-93400395D01*
X202986519Y-93233874D01*
X203653478Y-93233874D01*
X203819999Y-93400395D01*
X203820000Y-93400395D01*
X203986519Y-93233874D01*
X204653478Y-93233874D01*
X204819999Y-93400395D01*
X204820000Y-93400395D01*
X204986520Y-93233873D01*
X204986520Y-93233872D01*
X204940143Y-93210242D01*
X204903566Y-93204449D01*
X204839951Y-93174514D01*
X204819999Y-93143074D01*
X204800048Y-93174514D01*
X204736433Y-93204449D01*
X204699857Y-93210242D01*
X204653478Y-93233872D01*
X204653478Y-93233874D01*
X203986519Y-93233874D01*
X203986520Y-93233873D01*
X203986520Y-93233872D01*
X203940143Y-93210242D01*
X203903566Y-93204449D01*
X203839951Y-93174514D01*
X203819999Y-93143074D01*
X203800048Y-93174514D01*
X203736433Y-93204449D01*
X203699857Y-93210242D01*
X203653478Y-93233872D01*
X203653478Y-93233874D01*
X202986519Y-93233874D01*
X202986520Y-93233873D01*
X202986520Y-93233872D01*
X202940143Y-93210242D01*
X202903566Y-93204449D01*
X202839951Y-93174514D01*
X202819999Y-93143074D01*
X202800048Y-93174514D01*
X202736433Y-93204449D01*
X202699857Y-93210242D01*
X202653478Y-93233872D01*
X202653478Y-93233874D01*
X201986519Y-93233874D01*
X201986520Y-93233873D01*
X201986520Y-93233872D01*
X201940143Y-93210242D01*
X201903566Y-93204449D01*
X201839951Y-93174514D01*
X201819999Y-93143074D01*
X201800048Y-93174514D01*
X201736433Y-93204449D01*
X201699857Y-93210242D01*
X201653478Y-93233872D01*
X201653478Y-93233874D01*
X200987627Y-93233874D01*
X200940297Y-93209759D01*
X200905165Y-93204194D01*
X200841551Y-93174259D01*
X200803881Y-93114897D01*
X200803881Y-93095368D01*
X200787669Y-93143125D01*
X200742119Y-93185231D01*
X200681997Y-93200500D01*
X199241922Y-93200500D01*
X199183367Y-93186067D01*
X199138226Y-93146076D01*
X199116841Y-93089688D01*
X199100149Y-92952218D01*
X199090254Y-92926126D01*
X200653478Y-92926126D01*
X200699856Y-92949757D01*
X200701708Y-92950051D01*
X200758701Y-92974538D01*
X200797104Y-93023251D01*
X200803881Y-93062690D01*
X200803881Y-93044592D01*
X200841554Y-92985231D01*
X200905168Y-92955297D01*
X200940141Y-92949758D01*
X200986518Y-92926126D01*
X201653478Y-92926126D01*
X201699856Y-92949757D01*
X201736433Y-92955551D01*
X201800047Y-92985486D01*
X201819999Y-93016925D01*
X201839952Y-92985486D01*
X201903566Y-92955551D01*
X201940141Y-92949757D01*
X201986518Y-92926126D01*
X202653478Y-92926126D01*
X202699856Y-92949757D01*
X202736433Y-92955551D01*
X202800047Y-92985486D01*
X202819999Y-93016925D01*
X202839952Y-92985486D01*
X202903566Y-92955551D01*
X202940141Y-92949757D01*
X202986518Y-92926126D01*
X203653478Y-92926126D01*
X203699856Y-92949757D01*
X203736433Y-92955551D01*
X203800047Y-92985486D01*
X203819999Y-93016925D01*
X203839952Y-92985486D01*
X203903566Y-92955551D01*
X203940141Y-92949757D01*
X203986518Y-92926126D01*
X204653478Y-92926126D01*
X204699856Y-92949757D01*
X204736433Y-92955551D01*
X204800047Y-92985486D01*
X204819999Y-93016925D01*
X204839952Y-92985486D01*
X204903566Y-92955551D01*
X204940141Y-92949757D01*
X204986518Y-92926126D01*
X205653478Y-92926126D01*
X205699856Y-92949757D01*
X205734832Y-92955297D01*
X205798447Y-92985231D01*
X205819999Y-93019191D01*
X205841552Y-92985231D01*
X205905167Y-92955297D01*
X205940141Y-92949758D01*
X205986520Y-92926125D01*
X205986521Y-92926125D01*
X205820001Y-92759605D01*
X205820000Y-92759605D01*
X205653478Y-92926126D01*
X204986518Y-92926126D01*
X204986520Y-92926125D01*
X204986521Y-92926125D01*
X204820001Y-92759605D01*
X204820000Y-92759605D01*
X204653478Y-92926126D01*
X203986518Y-92926126D01*
X203986520Y-92926125D01*
X203986521Y-92926125D01*
X203820001Y-92759605D01*
X203820000Y-92759605D01*
X203653478Y-92926126D01*
X202986518Y-92926126D01*
X202986520Y-92926125D01*
X202986521Y-92926125D01*
X202820001Y-92759605D01*
X202820000Y-92759605D01*
X202653478Y-92926126D01*
X201986518Y-92926126D01*
X201986520Y-92926125D01*
X201986521Y-92926125D01*
X201820001Y-92759605D01*
X201820000Y-92759605D01*
X201653478Y-92926126D01*
X200986518Y-92926126D01*
X200986520Y-92926125D01*
X200986521Y-92926125D01*
X200820001Y-92759605D01*
X200820000Y-92759605D01*
X200653478Y-92926126D01*
X199090254Y-92926126D01*
X199043787Y-92803605D01*
X198953498Y-92672799D01*
X198848751Y-92580001D01*
X198848749Y-92579999D01*
X200431213Y-92579999D01*
X200450242Y-92700143D01*
X200473872Y-92746520D01*
X200473873Y-92746520D01*
X200640394Y-92580001D01*
X200999605Y-92580001D01*
X201166125Y-92746521D01*
X201166125Y-92746520D01*
X201189757Y-92700141D01*
X201195551Y-92663566D01*
X201225486Y-92599952D01*
X201256925Y-92579999D01*
X201383074Y-92579999D01*
X201414514Y-92599951D01*
X201444449Y-92663566D01*
X201450242Y-92700143D01*
X201473872Y-92746520D01*
X201473873Y-92746520D01*
X201640394Y-92580001D01*
X201999605Y-92580001D01*
X202166125Y-92746521D01*
X202166125Y-92746520D01*
X202189757Y-92700141D01*
X202195551Y-92663566D01*
X202225486Y-92599952D01*
X202256925Y-92579999D01*
X202383074Y-92579999D01*
X202414514Y-92599951D01*
X202444449Y-92663566D01*
X202450242Y-92700143D01*
X202473872Y-92746520D01*
X202473873Y-92746520D01*
X202640394Y-92580001D01*
X202999605Y-92580001D01*
X203166125Y-92746521D01*
X203166125Y-92746520D01*
X203189757Y-92700141D01*
X203195551Y-92663566D01*
X203225486Y-92599952D01*
X203256925Y-92579999D01*
X203383074Y-92579999D01*
X203414514Y-92599951D01*
X203444449Y-92663566D01*
X203450242Y-92700143D01*
X203473872Y-92746520D01*
X203473873Y-92746520D01*
X203640394Y-92580001D01*
X203999605Y-92580001D01*
X204166125Y-92746521D01*
X204166125Y-92746520D01*
X204189757Y-92700141D01*
X204195551Y-92663566D01*
X204225486Y-92599952D01*
X204256925Y-92579999D01*
X204383074Y-92579999D01*
X204414514Y-92599951D01*
X204444449Y-92663566D01*
X204450242Y-92700143D01*
X204473872Y-92746520D01*
X204473873Y-92746520D01*
X204640394Y-92580001D01*
X204999605Y-92580001D01*
X205166125Y-92746521D01*
X205166125Y-92746520D01*
X205189757Y-92700141D01*
X205195551Y-92663566D01*
X205225486Y-92599952D01*
X205256925Y-92579999D01*
X205383074Y-92579999D01*
X205414514Y-92599951D01*
X205444449Y-92663566D01*
X205450242Y-92700143D01*
X205473872Y-92746520D01*
X205473873Y-92746520D01*
X205640394Y-92580001D01*
X205999605Y-92580001D01*
X206166125Y-92746521D01*
X206166125Y-92746520D01*
X206189758Y-92700141D01*
X206208787Y-92580000D01*
X206189757Y-92459856D01*
X206166126Y-92413478D01*
X205999605Y-92580000D01*
X205999605Y-92580001D01*
X205640394Y-92580001D01*
X205640395Y-92580000D01*
X205640395Y-92579999D01*
X205473874Y-92413478D01*
X205473872Y-92413478D01*
X205450242Y-92459857D01*
X205444449Y-92496433D01*
X205414514Y-92560048D01*
X205383074Y-92579999D01*
X205256925Y-92579999D01*
X205225486Y-92560047D01*
X205195551Y-92496433D01*
X205189757Y-92459856D01*
X205166126Y-92413478D01*
X204999605Y-92580000D01*
X204999605Y-92580001D01*
X204640394Y-92580001D01*
X204640395Y-92580000D01*
X204640395Y-92579999D01*
X204473874Y-92413478D01*
X204473872Y-92413478D01*
X204450242Y-92459857D01*
X204444449Y-92496433D01*
X204414514Y-92560048D01*
X204383074Y-92579999D01*
X204256925Y-92579999D01*
X204225486Y-92560047D01*
X204195551Y-92496433D01*
X204189757Y-92459856D01*
X204166126Y-92413478D01*
X203999605Y-92580000D01*
X203999605Y-92580001D01*
X203640394Y-92580001D01*
X203640395Y-92580000D01*
X203640395Y-92579999D01*
X203473874Y-92413478D01*
X203473872Y-92413478D01*
X203450242Y-92459857D01*
X203444449Y-92496433D01*
X203414514Y-92560048D01*
X203383074Y-92579999D01*
X203256925Y-92579999D01*
X203225486Y-92560047D01*
X203195551Y-92496433D01*
X203189757Y-92459856D01*
X203166126Y-92413478D01*
X202999605Y-92580000D01*
X202999605Y-92580001D01*
X202640394Y-92580001D01*
X202640395Y-92580000D01*
X202640395Y-92579999D01*
X202473874Y-92413478D01*
X202473872Y-92413478D01*
X202450242Y-92459857D01*
X202444449Y-92496433D01*
X202414514Y-92560048D01*
X202383074Y-92579999D01*
X202256925Y-92579999D01*
X202225486Y-92560047D01*
X202195551Y-92496433D01*
X202189757Y-92459856D01*
X202166126Y-92413478D01*
X201999605Y-92580000D01*
X201999605Y-92580001D01*
X201640394Y-92580001D01*
X201640395Y-92580000D01*
X201640395Y-92579999D01*
X201473874Y-92413478D01*
X201473872Y-92413478D01*
X201450242Y-92459857D01*
X201444449Y-92496433D01*
X201414514Y-92560048D01*
X201383074Y-92579999D01*
X201256925Y-92579999D01*
X201225486Y-92560047D01*
X201195551Y-92496433D01*
X201189757Y-92459856D01*
X201166126Y-92413478D01*
X200999605Y-92580000D01*
X200999605Y-92580001D01*
X200640394Y-92580001D01*
X200640395Y-92580000D01*
X200640395Y-92579999D01*
X200473874Y-92413478D01*
X200473872Y-92413478D01*
X200450242Y-92459857D01*
X200431213Y-92579999D01*
X198848749Y-92579999D01*
X198834529Y-92567401D01*
X198693793Y-92493537D01*
X198539471Y-92455500D01*
X198380529Y-92455500D01*
X198226207Y-92493537D01*
X198226206Y-92493537D01*
X198226204Y-92493538D01*
X198085472Y-92567400D01*
X197966501Y-92672799D01*
X197876212Y-92803605D01*
X197819850Y-92952219D01*
X197800693Y-93110000D01*
X162930500Y-93110000D01*
X162930500Y-92233874D01*
X200653478Y-92233874D01*
X200819999Y-92400395D01*
X200820000Y-92400395D01*
X200986519Y-92233874D01*
X201653478Y-92233874D01*
X201819999Y-92400395D01*
X201820000Y-92400395D01*
X201986519Y-92233874D01*
X202653478Y-92233874D01*
X202819999Y-92400395D01*
X202820000Y-92400395D01*
X202986519Y-92233874D01*
X203653478Y-92233874D01*
X203819999Y-92400395D01*
X203820000Y-92400395D01*
X203986519Y-92233874D01*
X204653478Y-92233874D01*
X204819999Y-92400395D01*
X204820000Y-92400395D01*
X204986519Y-92233874D01*
X205653478Y-92233874D01*
X205819999Y-92400395D01*
X205820000Y-92400395D01*
X205986520Y-92233873D01*
X205986520Y-92233872D01*
X205940143Y-92210242D01*
X205938291Y-92209949D01*
X205881298Y-92185462D01*
X205842895Y-92136749D01*
X205836121Y-92097327D01*
X205836121Y-92115405D01*
X205798450Y-92174766D01*
X205734836Y-92204702D01*
X205699857Y-92210242D01*
X205653478Y-92233872D01*
X205653478Y-92233874D01*
X204986519Y-92233874D01*
X204986520Y-92233873D01*
X204986520Y-92233872D01*
X204940143Y-92210242D01*
X204903566Y-92204449D01*
X204839951Y-92174514D01*
X204819999Y-92143074D01*
X204800048Y-92174514D01*
X204736433Y-92204449D01*
X204699857Y-92210242D01*
X204653478Y-92233872D01*
X204653478Y-92233874D01*
X203986519Y-92233874D01*
X203986520Y-92233873D01*
X203986520Y-92233872D01*
X203940143Y-92210242D01*
X203903566Y-92204449D01*
X203839951Y-92174514D01*
X203819999Y-92143074D01*
X203800048Y-92174514D01*
X203736433Y-92204449D01*
X203699857Y-92210242D01*
X203653478Y-92233872D01*
X203653478Y-92233874D01*
X202986519Y-92233874D01*
X202986520Y-92233873D01*
X202986520Y-92233872D01*
X202940143Y-92210242D01*
X202903566Y-92204449D01*
X202839951Y-92174514D01*
X202819999Y-92143074D01*
X202800048Y-92174514D01*
X202736433Y-92204449D01*
X202699857Y-92210242D01*
X202653478Y-92233872D01*
X202653478Y-92233874D01*
X201986519Y-92233874D01*
X201986520Y-92233873D01*
X201986520Y-92233872D01*
X201940143Y-92210242D01*
X201903566Y-92204449D01*
X201839951Y-92174514D01*
X201819999Y-92143074D01*
X201800048Y-92174514D01*
X201736433Y-92204449D01*
X201699857Y-92210242D01*
X201653478Y-92233872D01*
X201653478Y-92233874D01*
X200986519Y-92233874D01*
X200986520Y-92233873D01*
X200986520Y-92233872D01*
X200940143Y-92210242D01*
X200903566Y-92204449D01*
X200839951Y-92174514D01*
X200819999Y-92143074D01*
X200800048Y-92174514D01*
X200736433Y-92204449D01*
X200699857Y-92210242D01*
X200653478Y-92233872D01*
X200653478Y-92233874D01*
X162930500Y-92233874D01*
X162930500Y-91926126D01*
X200653478Y-91926126D01*
X200699856Y-91949757D01*
X200736433Y-91955551D01*
X200800047Y-91985486D01*
X200819999Y-92016925D01*
X200839952Y-91985486D01*
X200903566Y-91955551D01*
X200940141Y-91949757D01*
X200986518Y-91926126D01*
X201653478Y-91926126D01*
X201699856Y-91949757D01*
X201736433Y-91955551D01*
X201800047Y-91985486D01*
X201819999Y-92016925D01*
X201839952Y-91985486D01*
X201903566Y-91955551D01*
X201940141Y-91949757D01*
X201986518Y-91926126D01*
X202653478Y-91926126D01*
X202699856Y-91949757D01*
X202736433Y-91955551D01*
X202800047Y-91985486D01*
X202819999Y-92016925D01*
X202839952Y-91985486D01*
X202903566Y-91955551D01*
X202940141Y-91949757D01*
X202986518Y-91926126D01*
X203653478Y-91926126D01*
X203699856Y-91949757D01*
X203736433Y-91955551D01*
X203800047Y-91985486D01*
X203819999Y-92016925D01*
X203839952Y-91985486D01*
X203903566Y-91955551D01*
X203940141Y-91949757D01*
X203986518Y-91926126D01*
X204653478Y-91926126D01*
X204699856Y-91949757D01*
X204736433Y-91955551D01*
X204800047Y-91985486D01*
X204819999Y-92016925D01*
X204839952Y-91985486D01*
X204903566Y-91955551D01*
X204940141Y-91949757D01*
X204986520Y-91926125D01*
X204986521Y-91926124D01*
X204820001Y-91759605D01*
X204820000Y-91759605D01*
X204653478Y-91926126D01*
X203986518Y-91926126D01*
X203986520Y-91926125D01*
X203986521Y-91926124D01*
X203820001Y-91759605D01*
X203820000Y-91759605D01*
X203653478Y-91926126D01*
X202986518Y-91926126D01*
X202986520Y-91926125D01*
X202986521Y-91926124D01*
X202820001Y-91759605D01*
X202820000Y-91759605D01*
X202653478Y-91926126D01*
X201986518Y-91926126D01*
X201986520Y-91926125D01*
X201986521Y-91926124D01*
X201820001Y-91759605D01*
X201820000Y-91759605D01*
X201653478Y-91926126D01*
X200986518Y-91926126D01*
X200986520Y-91926125D01*
X200986521Y-91926124D01*
X200820001Y-91759605D01*
X200820000Y-91759605D01*
X200653478Y-91926126D01*
X162930500Y-91926126D01*
X162930500Y-91580000D01*
X200431213Y-91580000D01*
X200450242Y-91700143D01*
X200473872Y-91746520D01*
X200473873Y-91746520D01*
X200640394Y-91580001D01*
X200999605Y-91580001D01*
X201166125Y-91746521D01*
X201166125Y-91746520D01*
X201189757Y-91700141D01*
X201195551Y-91663566D01*
X201225486Y-91599952D01*
X201256925Y-91579999D01*
X201383074Y-91579999D01*
X201414514Y-91599951D01*
X201444449Y-91663566D01*
X201450242Y-91700143D01*
X201473872Y-91746520D01*
X201473873Y-91746520D01*
X201640394Y-91580001D01*
X201999605Y-91580001D01*
X202166125Y-91746521D01*
X202166125Y-91746520D01*
X202189757Y-91700141D01*
X202195551Y-91663566D01*
X202225486Y-91599952D01*
X202256925Y-91579999D01*
X202383074Y-91579999D01*
X202414514Y-91599951D01*
X202444449Y-91663566D01*
X202450242Y-91700143D01*
X202473872Y-91746520D01*
X202473873Y-91746520D01*
X202640394Y-91580001D01*
X202999605Y-91580001D01*
X203166125Y-91746521D01*
X203166125Y-91746520D01*
X203189757Y-91700141D01*
X203195551Y-91663566D01*
X203225486Y-91599952D01*
X203256925Y-91579999D01*
X203383074Y-91579999D01*
X203414514Y-91599951D01*
X203444449Y-91663566D01*
X203450242Y-91700143D01*
X203473872Y-91746520D01*
X203473873Y-91746520D01*
X203640394Y-91580001D01*
X203999605Y-91580001D01*
X204166125Y-91746521D01*
X204166125Y-91746520D01*
X204189757Y-91700141D01*
X204195551Y-91663566D01*
X204225486Y-91599952D01*
X204256925Y-91579999D01*
X204383074Y-91579999D01*
X204414514Y-91599951D01*
X204444449Y-91663566D01*
X204450242Y-91700143D01*
X204473872Y-91746520D01*
X204473873Y-91746520D01*
X204640394Y-91580001D01*
X204999605Y-91580001D01*
X205166125Y-91746521D01*
X205166125Y-91746520D01*
X205189758Y-91700141D01*
X205195297Y-91665167D01*
X205225231Y-91601552D01*
X205259191Y-91579999D01*
X205225231Y-91558447D01*
X205195297Y-91494832D01*
X205189757Y-91459856D01*
X205166126Y-91413478D01*
X204999605Y-91580000D01*
X204999605Y-91580001D01*
X204640394Y-91580001D01*
X204640395Y-91580000D01*
X204640395Y-91579999D01*
X204473874Y-91413478D01*
X204473872Y-91413478D01*
X204450242Y-91459857D01*
X204444449Y-91496433D01*
X204414514Y-91560048D01*
X204383074Y-91579999D01*
X204256925Y-91579999D01*
X204225486Y-91560047D01*
X204195551Y-91496433D01*
X204189757Y-91459856D01*
X204166126Y-91413478D01*
X203999605Y-91580000D01*
X203999605Y-91580001D01*
X203640394Y-91580001D01*
X203640395Y-91580000D01*
X203640395Y-91579999D01*
X203473874Y-91413478D01*
X203473872Y-91413478D01*
X203450242Y-91459857D01*
X203444449Y-91496433D01*
X203414514Y-91560048D01*
X203383074Y-91579999D01*
X203256925Y-91579999D01*
X203225486Y-91560047D01*
X203195551Y-91496433D01*
X203189757Y-91459856D01*
X203166126Y-91413478D01*
X202999605Y-91580000D01*
X202999605Y-91580001D01*
X202640394Y-91580001D01*
X202640395Y-91580000D01*
X202640395Y-91579999D01*
X202473874Y-91413478D01*
X202473872Y-91413478D01*
X202450242Y-91459857D01*
X202444449Y-91496433D01*
X202414514Y-91560048D01*
X202383074Y-91579999D01*
X202256925Y-91579999D01*
X202225486Y-91560047D01*
X202195551Y-91496433D01*
X202189757Y-91459856D01*
X202166126Y-91413478D01*
X201999605Y-91580000D01*
X201999605Y-91580001D01*
X201640394Y-91580001D01*
X201640395Y-91580000D01*
X201640395Y-91579999D01*
X201473874Y-91413478D01*
X201473872Y-91413478D01*
X201450242Y-91459857D01*
X201444449Y-91496433D01*
X201414514Y-91560048D01*
X201383074Y-91579999D01*
X201256925Y-91579999D01*
X201225486Y-91560047D01*
X201195551Y-91496433D01*
X201189757Y-91459856D01*
X201166126Y-91413478D01*
X200999605Y-91580000D01*
X200999605Y-91580001D01*
X200640394Y-91580001D01*
X200640395Y-91580000D01*
X200640395Y-91579999D01*
X200473874Y-91413478D01*
X200473872Y-91413478D01*
X200450242Y-91459857D01*
X200431213Y-91580000D01*
X162930500Y-91580000D01*
X162930500Y-91233874D01*
X200653478Y-91233874D01*
X200819999Y-91400395D01*
X200820000Y-91400395D01*
X200986519Y-91233874D01*
X201653478Y-91233874D01*
X201819999Y-91400395D01*
X201820000Y-91400395D01*
X201986519Y-91233874D01*
X202653478Y-91233874D01*
X202819999Y-91400395D01*
X202820000Y-91400395D01*
X202986519Y-91233874D01*
X203653478Y-91233874D01*
X203819999Y-91400395D01*
X203820000Y-91400395D01*
X203986519Y-91233874D01*
X204653478Y-91233874D01*
X204819999Y-91400395D01*
X204820000Y-91400395D01*
X204986520Y-91233873D01*
X204986520Y-91233872D01*
X204940143Y-91210242D01*
X204820000Y-91191213D01*
X204699857Y-91210242D01*
X204653478Y-91233872D01*
X204653478Y-91233874D01*
X203986519Y-91233874D01*
X203986520Y-91233873D01*
X203986520Y-91233872D01*
X203940143Y-91210242D01*
X203820000Y-91191213D01*
X203699857Y-91210242D01*
X203653478Y-91233872D01*
X203653478Y-91233874D01*
X202986519Y-91233874D01*
X202986520Y-91233873D01*
X202986520Y-91233872D01*
X202940143Y-91210242D01*
X202820000Y-91191213D01*
X202699857Y-91210242D01*
X202653478Y-91233872D01*
X202653478Y-91233874D01*
X201986519Y-91233874D01*
X201986520Y-91233873D01*
X201986520Y-91233872D01*
X201940143Y-91210242D01*
X201820000Y-91191213D01*
X201699857Y-91210242D01*
X201653478Y-91233872D01*
X201653478Y-91233874D01*
X200986519Y-91233874D01*
X200986520Y-91233873D01*
X200986520Y-91233872D01*
X200940143Y-91210242D01*
X200820000Y-91191213D01*
X200699857Y-91210242D01*
X200653478Y-91233872D01*
X200653478Y-91233874D01*
X162930500Y-91233874D01*
X162930500Y-87256500D01*
X209712693Y-87256500D01*
X209731850Y-87414280D01*
X209788212Y-87562894D01*
X209878501Y-87693700D01*
X209975054Y-87779239D01*
X210006399Y-87821839D01*
X210017500Y-87873551D01*
X210017500Y-90102266D01*
X210014818Y-90128124D01*
X210012904Y-90137247D01*
X210016532Y-90166344D01*
X210017455Y-90181206D01*
X210020701Y-90200664D01*
X210021450Y-90205810D01*
X210028473Y-90262150D01*
X210055497Y-90312086D01*
X210057879Y-90316714D01*
X210082819Y-90367729D01*
X210124608Y-90406198D01*
X210128365Y-90409804D01*
X211051290Y-91332729D01*
X211067676Y-91352906D01*
X211072779Y-91360717D01*
X211095924Y-91378732D01*
X211107071Y-91388576D01*
X211123127Y-91400040D01*
X211127297Y-91403149D01*
X211140567Y-91413478D01*
X211172107Y-91438026D01*
X211179349Y-91440182D01*
X211179352Y-91440184D01*
X211226545Y-91454233D01*
X211231494Y-91455820D01*
X211285192Y-91474254D01*
X211292742Y-91473941D01*
X211292744Y-91473942D01*
X211341914Y-91471907D01*
X211347122Y-91471800D01*
X211787288Y-91471800D01*
X211845843Y-91486233D01*
X211890983Y-91526223D01*
X211910502Y-91554501D01*
X212029471Y-91659899D01*
X212170207Y-91733763D01*
X212324529Y-91771800D01*
X212483469Y-91771800D01*
X212483471Y-91771800D01*
X212637793Y-91733763D01*
X212778529Y-91659899D01*
X212897498Y-91554501D01*
X212987787Y-91423695D01*
X213044149Y-91275082D01*
X213063307Y-91117300D01*
X213044149Y-90959518D01*
X212987787Y-90810905D01*
X212897498Y-90680099D01*
X212778529Y-90574701D01*
X212653908Y-90509295D01*
X212637795Y-90500838D01*
X212637794Y-90500837D01*
X212637793Y-90500837D01*
X212483471Y-90462800D01*
X212324529Y-90462800D01*
X212170207Y-90500837D01*
X212170206Y-90500837D01*
X212170204Y-90500838D01*
X212029472Y-90574700D01*
X211910501Y-90680099D01*
X211890984Y-90708376D01*
X211845843Y-90748367D01*
X211787288Y-90762800D01*
X211536229Y-90762800D01*
X211488011Y-90753209D01*
X211447134Y-90725895D01*
X210924139Y-90202900D01*
X214487893Y-90202900D01*
X214507050Y-90360680D01*
X214563412Y-90509294D01*
X214624035Y-90597122D01*
X214653702Y-90640101D01*
X214772671Y-90745499D01*
X214913407Y-90819363D01*
X215050856Y-90853241D01*
X215100388Y-90877979D01*
X215134535Y-90921564D01*
X215146700Y-90975579D01*
X215146700Y-92796170D01*
X215140995Y-92833655D01*
X215124396Y-92867746D01*
X215071412Y-92944505D01*
X215015050Y-93093119D01*
X214995893Y-93250899D01*
X215015050Y-93408680D01*
X215071412Y-93557294D01*
X215145871Y-93665167D01*
X215161702Y-93688101D01*
X215280671Y-93793499D01*
X215421407Y-93867363D01*
X215575729Y-93905400D01*
X215734669Y-93905400D01*
X215734671Y-93905400D01*
X215888993Y-93867363D01*
X216029729Y-93793499D01*
X216148698Y-93688101D01*
X216238987Y-93557295D01*
X216295349Y-93408682D01*
X216314507Y-93250900D01*
X216295349Y-93093118D01*
X216238987Y-92944505D01*
X216186003Y-92867745D01*
X216169405Y-92833655D01*
X216163700Y-92796170D01*
X216163700Y-90779110D01*
X216166579Y-90752329D01*
X216166584Y-90752302D01*
X216167619Y-90747548D01*
X216164021Y-90697240D01*
X216163700Y-90688252D01*
X216163700Y-90674533D01*
X216161748Y-90660960D01*
X216160786Y-90652011D01*
X216157188Y-90601701D01*
X216157188Y-90601699D01*
X216155478Y-90597116D01*
X216148815Y-90571014D01*
X216148119Y-90566166D01*
X216127160Y-90520273D01*
X216123717Y-90511962D01*
X216106088Y-90464697D01*
X216106088Y-90464696D01*
X216103152Y-90460774D01*
X216089410Y-90437611D01*
X216087376Y-90433157D01*
X216054332Y-90395022D01*
X216048703Y-90388037D01*
X216040480Y-90377052D01*
X216030769Y-90367341D01*
X216024668Y-90360788D01*
X215991621Y-90322650D01*
X215987501Y-90320002D01*
X215966527Y-90303099D01*
X215828984Y-90165556D01*
X215804793Y-90131619D01*
X215792999Y-90091654D01*
X215787349Y-90045118D01*
X215730987Y-89896505D01*
X215640698Y-89765699D01*
X215521729Y-89660301D01*
X215380993Y-89586437D01*
X215226671Y-89548400D01*
X215067729Y-89548400D01*
X214913407Y-89586437D01*
X214913406Y-89586437D01*
X214913404Y-89586438D01*
X214772672Y-89660300D01*
X214653701Y-89765699D01*
X214563412Y-89896505D01*
X214507050Y-90045119D01*
X214487893Y-90202900D01*
X210924139Y-90202900D01*
X210763405Y-90042166D01*
X210736091Y-90001289D01*
X210726500Y-89953071D01*
X210726500Y-88577300D01*
X226920193Y-88577300D01*
X226939350Y-88735080D01*
X226995712Y-88883694D01*
X227066483Y-88986224D01*
X227086002Y-89014501D01*
X227204971Y-89119899D01*
X227345707Y-89193763D01*
X227500029Y-89231800D01*
X227658969Y-89231800D01*
X227658971Y-89231800D01*
X227813293Y-89193763D01*
X227954029Y-89119899D01*
X228072998Y-89014501D01*
X228092516Y-88986223D01*
X228137657Y-88946233D01*
X228196212Y-88931800D01*
X229631788Y-88931800D01*
X229690343Y-88946233D01*
X229735483Y-88986223D01*
X229755002Y-89014501D01*
X229873971Y-89119899D01*
X230014707Y-89193763D01*
X230169029Y-89231800D01*
X230327969Y-89231800D01*
X230327971Y-89231800D01*
X230482293Y-89193763D01*
X230623029Y-89119899D01*
X230741998Y-89014501D01*
X230832287Y-88883695D01*
X230888649Y-88735082D01*
X230907807Y-88577300D01*
X232635193Y-88577300D01*
X232654350Y-88735080D01*
X232710712Y-88883694D01*
X232781483Y-88986224D01*
X232801002Y-89014501D01*
X232919971Y-89119899D01*
X233060707Y-89193763D01*
X233215029Y-89231800D01*
X233373969Y-89231800D01*
X233373971Y-89231800D01*
X233528293Y-89193763D01*
X233669029Y-89119899D01*
X233787998Y-89014501D01*
X233807516Y-88986223D01*
X233852657Y-88946233D01*
X233911212Y-88931800D01*
X234076788Y-88931800D01*
X234135343Y-88946233D01*
X234180483Y-88986223D01*
X234200002Y-89014501D01*
X234318971Y-89119899D01*
X234459707Y-89193763D01*
X234614029Y-89231800D01*
X234772969Y-89231800D01*
X234772971Y-89231800D01*
X234927293Y-89193763D01*
X235068029Y-89119899D01*
X235186998Y-89014501D01*
X235277287Y-88883695D01*
X235333649Y-88735082D01*
X235352807Y-88577300D01*
X235333649Y-88419518D01*
X235277287Y-88270905D01*
X235186998Y-88140099D01*
X235068029Y-88034701D01*
X234927293Y-87960837D01*
X234772971Y-87922800D01*
X234614029Y-87922800D01*
X234459707Y-87960837D01*
X234459706Y-87960837D01*
X234459704Y-87960838D01*
X234318972Y-88034700D01*
X234200001Y-88140099D01*
X234180484Y-88168376D01*
X234135343Y-88208367D01*
X234076788Y-88222800D01*
X233911212Y-88222800D01*
X233852657Y-88208367D01*
X233807516Y-88168376D01*
X233787998Y-88140099D01*
X233768403Y-88122739D01*
X233669029Y-88034701D01*
X233528293Y-87960837D01*
X233373971Y-87922800D01*
X233215029Y-87922800D01*
X233060707Y-87960837D01*
X233060706Y-87960837D01*
X233060704Y-87960838D01*
X232919972Y-88034700D01*
X232801001Y-88140099D01*
X232710712Y-88270905D01*
X232654350Y-88419519D01*
X232635193Y-88577300D01*
X230907807Y-88577300D01*
X230888649Y-88419518D01*
X230832287Y-88270905D01*
X230741998Y-88140099D01*
X230623029Y-88034701D01*
X230482293Y-87960837D01*
X230327971Y-87922800D01*
X230169029Y-87922800D01*
X230014707Y-87960837D01*
X230014706Y-87960837D01*
X230014704Y-87960838D01*
X229873972Y-88034700D01*
X229755001Y-88140099D01*
X229735484Y-88168376D01*
X229690343Y-88208367D01*
X229631788Y-88222800D01*
X228196212Y-88222800D01*
X228137657Y-88208367D01*
X228092516Y-88168376D01*
X228072998Y-88140099D01*
X228053403Y-88122739D01*
X227954029Y-88034701D01*
X227813293Y-87960837D01*
X227658971Y-87922800D01*
X227500029Y-87922800D01*
X227345707Y-87960837D01*
X227345706Y-87960837D01*
X227345704Y-87960838D01*
X227204972Y-88034700D01*
X227086001Y-88140099D01*
X226995712Y-88270905D01*
X226939350Y-88419519D01*
X226920193Y-88577300D01*
X210726500Y-88577300D01*
X210726500Y-87873551D01*
X210737601Y-87821839D01*
X210768946Y-87779239D01*
X210793168Y-87757780D01*
X210865498Y-87693701D01*
X210955787Y-87562895D01*
X211012149Y-87414282D01*
X211031307Y-87256500D01*
X211012149Y-87098718D01*
X210955787Y-86950105D01*
X210865498Y-86819299D01*
X210746529Y-86713901D01*
X210605793Y-86640037D01*
X210451471Y-86602000D01*
X210292529Y-86602000D01*
X210138207Y-86640037D01*
X210138206Y-86640037D01*
X210138204Y-86640038D01*
X209997472Y-86713900D01*
X209878501Y-86819299D01*
X209788212Y-86950105D01*
X209731850Y-87098719D01*
X209712693Y-87256500D01*
X162930500Y-87256500D01*
X162930500Y-86506898D01*
X162933341Y-86480293D01*
X162934410Y-86475345D01*
X162930833Y-86426341D01*
X162930500Y-86417172D01*
X162930500Y-86404205D01*
X162930500Y-86404201D01*
X162928521Y-86390439D01*
X162927577Y-86381722D01*
X162923935Y-86331804D01*
X162922482Y-86327925D01*
X162915755Y-86301648D01*
X162915165Y-86297543D01*
X162894379Y-86252030D01*
X162890999Y-86243886D01*
X162881255Y-86217875D01*
X162873446Y-86197029D01*
X162870954Y-86193711D01*
X162857099Y-86170398D01*
X162855377Y-86166627D01*
X162822607Y-86128808D01*
X162817071Y-86121948D01*
X162808743Y-86110856D01*
X162799560Y-86101699D01*
X162793305Y-86094991D01*
X162761126Y-86057855D01*
X162756864Y-86055116D01*
X162736022Y-86038345D01*
X161373751Y-84680000D01*
X168906704Y-84680000D01*
X168925861Y-84837780D01*
X168982223Y-84986394D01*
X169072511Y-85117199D01*
X169072513Y-85117201D01*
X169191482Y-85222599D01*
X169332218Y-85296463D01*
X169486540Y-85334500D01*
X169645480Y-85334500D01*
X169645482Y-85334500D01*
X169799804Y-85296463D01*
X169940540Y-85222599D01*
X170059509Y-85117201D01*
X170060393Y-85115921D01*
X170105534Y-85075932D01*
X170164087Y-85061500D01*
X170874455Y-85061500D01*
X170933008Y-85075932D01*
X170978149Y-85115921D01*
X170979031Y-85117199D01*
X170979032Y-85117200D01*
X170979033Y-85117201D01*
X171098002Y-85222599D01*
X171238738Y-85296463D01*
X171393060Y-85334500D01*
X171552000Y-85334500D01*
X171552002Y-85334500D01*
X171706324Y-85296463D01*
X171847060Y-85222599D01*
X171966029Y-85117201D01*
X172056318Y-84986395D01*
X172112680Y-84837782D01*
X172131838Y-84680000D01*
X172112680Y-84522218D01*
X172056318Y-84373605D01*
X171966029Y-84242799D01*
X171847060Y-84137401D01*
X171706324Y-84063537D01*
X171552002Y-84025500D01*
X171393060Y-84025500D01*
X171238738Y-84063537D01*
X171238737Y-84063537D01*
X171238735Y-84063538D01*
X171098003Y-84137400D01*
X170979031Y-84242800D01*
X170978149Y-84244079D01*
X170933008Y-84284068D01*
X170874455Y-84298500D01*
X170164087Y-84298500D01*
X170105534Y-84284068D01*
X170060393Y-84244079D01*
X170059510Y-84242800D01*
X170059509Y-84242799D01*
X169940540Y-84137401D01*
X169799804Y-84063537D01*
X169645482Y-84025500D01*
X169486540Y-84025500D01*
X169332218Y-84063537D01*
X169332217Y-84063537D01*
X169332215Y-84063538D01*
X169191483Y-84137400D01*
X169072512Y-84242799D01*
X168982223Y-84373605D01*
X168925861Y-84522219D01*
X168906704Y-84680000D01*
X161373751Y-84680000D01*
X159497533Y-82809189D01*
X159470126Y-82768267D01*
X159460500Y-82719965D01*
X159460500Y-81999999D01*
X181340693Y-81999999D01*
X181359850Y-82157780D01*
X181416212Y-82306394D01*
X181416213Y-82306395D01*
X181506502Y-82437201D01*
X181625471Y-82542599D01*
X181766207Y-82616463D01*
X181920529Y-82654500D01*
X182079469Y-82654500D01*
X182079471Y-82654500D01*
X182233793Y-82616463D01*
X182374529Y-82542599D01*
X182493498Y-82437201D01*
X182583787Y-82306395D01*
X182640149Y-82157782D01*
X182659307Y-82000000D01*
X182659307Y-81999999D01*
X185340693Y-81999999D01*
X185359850Y-82157780D01*
X185416212Y-82306394D01*
X185416213Y-82306395D01*
X185506502Y-82437201D01*
X185625471Y-82542599D01*
X185766207Y-82616463D01*
X185920529Y-82654500D01*
X186079469Y-82654500D01*
X186079471Y-82654500D01*
X186233793Y-82616463D01*
X186374529Y-82542599D01*
X186493498Y-82437201D01*
X186583787Y-82306395D01*
X186640149Y-82157782D01*
X186659307Y-82000000D01*
X186659307Y-81999999D01*
X189340693Y-81999999D01*
X189359850Y-82157780D01*
X189416212Y-82306394D01*
X189416213Y-82306395D01*
X189506502Y-82437201D01*
X189625471Y-82542599D01*
X189766207Y-82616463D01*
X189920529Y-82654500D01*
X190079469Y-82654500D01*
X190079471Y-82654500D01*
X190233793Y-82616463D01*
X190374529Y-82542599D01*
X190493498Y-82437201D01*
X190583787Y-82306395D01*
X190640149Y-82157782D01*
X190659307Y-82000000D01*
X190659307Y-81999999D01*
X193340693Y-81999999D01*
X193359850Y-82157780D01*
X193416212Y-82306394D01*
X193416213Y-82306395D01*
X193506502Y-82437201D01*
X193625471Y-82542599D01*
X193766207Y-82616463D01*
X193920529Y-82654500D01*
X194079469Y-82654500D01*
X194079471Y-82654500D01*
X194233793Y-82616463D01*
X194374529Y-82542599D01*
X194493498Y-82437201D01*
X194583787Y-82306395D01*
X194640149Y-82157782D01*
X194659307Y-82000000D01*
X194659307Y-81999999D01*
X198340693Y-81999999D01*
X198359850Y-82157780D01*
X198416212Y-82306394D01*
X198416213Y-82306395D01*
X198506502Y-82437201D01*
X198625471Y-82542599D01*
X198766207Y-82616463D01*
X198920529Y-82654500D01*
X199079469Y-82654500D01*
X199079471Y-82654500D01*
X199233793Y-82616463D01*
X199374529Y-82542599D01*
X199493498Y-82437201D01*
X199583787Y-82306395D01*
X199640149Y-82157782D01*
X199659307Y-82000000D01*
X199640149Y-81842218D01*
X199583787Y-81693605D01*
X199530803Y-81616845D01*
X199514205Y-81582755D01*
X199508500Y-81545270D01*
X199508500Y-80999999D01*
X219340693Y-80999999D01*
X219359850Y-81157780D01*
X219416212Y-81306394D01*
X219492187Y-81416463D01*
X219506502Y-81437201D01*
X219625471Y-81542599D01*
X219766207Y-81616463D01*
X219920529Y-81654500D01*
X220079469Y-81654500D01*
X220079471Y-81654500D01*
X220233793Y-81616463D01*
X220374529Y-81542599D01*
X220493498Y-81437201D01*
X220583787Y-81306395D01*
X220601070Y-81260821D01*
X220628011Y-81218217D01*
X220669495Y-81189583D01*
X220718883Y-81179500D01*
X225690616Y-81179500D01*
X225738834Y-81189091D01*
X225779711Y-81216405D01*
X231394581Y-86831275D01*
X231410966Y-86851450D01*
X231416932Y-86860582D01*
X231442141Y-86880203D01*
X231453842Y-86890537D01*
X231453882Y-86890577D01*
X231470977Y-86902782D01*
X231475141Y-86905887D01*
X231509213Y-86932407D01*
X231523225Y-86943313D01*
X231523314Y-86943359D01*
X231581697Y-86960740D01*
X231586660Y-86962330D01*
X231644276Y-86982110D01*
X231644366Y-86982123D01*
X231652407Y-86981790D01*
X231652409Y-86981791D01*
X231702365Y-86979725D01*
X231705200Y-86979608D01*
X231710406Y-86979500D01*
X236671962Y-86979500D01*
X236730517Y-86993933D01*
X236775658Y-87033924D01*
X236797043Y-87090312D01*
X236789774Y-87150180D01*
X236755516Y-87199812D01*
X236702118Y-87227837D01*
X236566207Y-87261337D01*
X236566206Y-87261337D01*
X236566204Y-87261338D01*
X236425472Y-87335200D01*
X236306501Y-87440599D01*
X236216212Y-87571405D01*
X236159850Y-87720019D01*
X236140693Y-87877800D01*
X236159850Y-88035580D01*
X236216212Y-88184194D01*
X236306501Y-88315000D01*
X236378054Y-88378391D01*
X236409400Y-88420991D01*
X236420500Y-88472703D01*
X236420500Y-92705097D01*
X236409400Y-92756809D01*
X236378054Y-92799409D01*
X236306501Y-92862799D01*
X236216212Y-92993605D01*
X236159850Y-93142219D01*
X236140693Y-93300000D01*
X236159850Y-93457780D01*
X236216212Y-93606394D01*
X236299088Y-93726461D01*
X236306502Y-93737201D01*
X236425471Y-93842599D01*
X236566207Y-93916463D01*
X236720529Y-93954500D01*
X236879469Y-93954500D01*
X236879471Y-93954500D01*
X237033793Y-93916463D01*
X237174529Y-93842599D01*
X237293498Y-93737201D01*
X237383787Y-93606395D01*
X237440149Y-93457782D01*
X237459307Y-93300000D01*
X237440149Y-93142218D01*
X237383787Y-92993605D01*
X237293498Y-92862799D01*
X237248218Y-92822684D01*
X237221946Y-92799409D01*
X237190600Y-92756809D01*
X237179500Y-92705097D01*
X237179500Y-88472703D01*
X237190600Y-88420991D01*
X237221946Y-88378391D01*
X237227997Y-88373029D01*
X237293498Y-88315001D01*
X237383787Y-88184195D01*
X237440149Y-88035582D01*
X237457363Y-87893809D01*
X237482326Y-87832497D01*
X237534928Y-87792301D01*
X237600648Y-87784321D01*
X237661342Y-87810759D01*
X237700255Y-87864318D01*
X237716213Y-87906395D01*
X237806501Y-88037200D01*
X237903054Y-88122739D01*
X237934399Y-88165339D01*
X237945500Y-88217051D01*
X237945500Y-96611912D01*
X237939795Y-96649398D01*
X237923195Y-96683490D01*
X237916211Y-96693606D01*
X237859850Y-96842219D01*
X237840693Y-96999999D01*
X237859850Y-97157780D01*
X237916212Y-97306394D01*
X237982070Y-97401806D01*
X238006502Y-97437201D01*
X238125471Y-97542599D01*
X238266207Y-97616463D01*
X238420529Y-97654500D01*
X238579469Y-97654500D01*
X238579471Y-97654500D01*
X238733793Y-97616463D01*
X238874529Y-97542599D01*
X238993498Y-97437201D01*
X239013655Y-97407999D01*
X241977080Y-97407999D01*
X241996731Y-97670229D01*
X242055246Y-97926599D01*
X242151317Y-98171384D01*
X242282796Y-98399113D01*
X242282798Y-98399116D01*
X242282799Y-98399117D01*
X242446754Y-98604710D01*
X242609812Y-98756005D01*
X242639523Y-98783573D01*
X242797832Y-98891505D01*
X242856790Y-98931702D01*
X242976445Y-98989325D01*
X243093711Y-99045798D01*
X243149752Y-99063084D01*
X243344992Y-99123308D01*
X243605018Y-99162500D01*
X243867980Y-99162500D01*
X243867982Y-99162500D01*
X244128008Y-99123308D01*
X244379288Y-99045798D01*
X244616210Y-98931702D01*
X244808657Y-98800494D01*
X244833476Y-98783573D01*
X244833477Y-98783571D01*
X244833480Y-98783570D01*
X245026246Y-98604710D01*
X245190201Y-98399117D01*
X245321683Y-98171384D01*
X245417754Y-97926598D01*
X245476269Y-97670228D01*
X245495920Y-97408000D01*
X245476269Y-97145772D01*
X245417754Y-96889402D01*
X245321683Y-96644616D01*
X245190201Y-96416883D01*
X245026246Y-96211290D01*
X244833480Y-96032430D01*
X244833481Y-96032430D01*
X244833476Y-96032426D01*
X244616210Y-95884298D01*
X244379288Y-95770201D01*
X244152163Y-95700143D01*
X244128008Y-95692692D01*
X243867982Y-95653500D01*
X243605018Y-95653500D01*
X243344992Y-95692692D01*
X243344988Y-95692693D01*
X243344989Y-95692693D01*
X243093711Y-95770201D01*
X242856789Y-95884298D01*
X242639523Y-96032426D01*
X242533727Y-96130590D01*
X242446754Y-96211290D01*
X242428745Y-96233873D01*
X242282796Y-96416886D01*
X242151317Y-96644615D01*
X242055246Y-96889400D01*
X241996731Y-97145770D01*
X241977080Y-97407999D01*
X239013655Y-97407999D01*
X239083787Y-97306395D01*
X239140149Y-97157782D01*
X239159307Y-97000000D01*
X239140149Y-96842218D01*
X239083787Y-96693605D01*
X238993498Y-96562799D01*
X238874529Y-96457401D01*
X238733793Y-96383537D01*
X238733788Y-96383535D01*
X238721945Y-96377320D01*
X238672672Y-96330937D01*
X238654500Y-96265752D01*
X238654500Y-95562300D01*
X240319693Y-95562300D01*
X240338850Y-95720080D01*
X240395212Y-95868694D01*
X240395213Y-95868695D01*
X240485502Y-95999501D01*
X240604471Y-96104899D01*
X240745207Y-96178763D01*
X240899529Y-96216800D01*
X241058469Y-96216800D01*
X241058471Y-96216800D01*
X241212793Y-96178763D01*
X241353529Y-96104899D01*
X241472498Y-95999501D01*
X241562787Y-95868695D01*
X241619149Y-95720082D01*
X241638307Y-95562300D01*
X241619149Y-95404518D01*
X241562787Y-95255905D01*
X241472498Y-95125099D01*
X241375945Y-95039560D01*
X241344601Y-94996961D01*
X241333500Y-94945249D01*
X241333500Y-94209851D01*
X241344601Y-94158139D01*
X241375946Y-94115539D01*
X241472498Y-94030001D01*
X241562787Y-93899195D01*
X241619149Y-93750582D01*
X241638307Y-93592800D01*
X241619149Y-93435018D01*
X241562787Y-93286405D01*
X241472498Y-93155599D01*
X241353529Y-93050201D01*
X241212793Y-92976337D01*
X241058471Y-92938300D01*
X240899529Y-92938300D01*
X240745207Y-92976337D01*
X240745206Y-92976337D01*
X240745204Y-92976338D01*
X240604472Y-93050200D01*
X240485501Y-93155599D01*
X240395212Y-93286405D01*
X240338850Y-93435019D01*
X240319693Y-93592799D01*
X240338850Y-93750580D01*
X240395212Y-93899194D01*
X240485501Y-94030000D01*
X240582054Y-94115539D01*
X240613399Y-94158139D01*
X240624500Y-94209851D01*
X240624500Y-94945249D01*
X240613399Y-94996961D01*
X240582054Y-95039561D01*
X240485501Y-95125099D01*
X240395212Y-95255905D01*
X240338850Y-95404519D01*
X240319693Y-95562300D01*
X238654500Y-95562300D01*
X238654500Y-88217051D01*
X238665601Y-88165339D01*
X238696946Y-88122739D01*
X238793498Y-88037201D01*
X238883787Y-87906395D01*
X238940149Y-87757782D01*
X238959307Y-87600000D01*
X238940149Y-87442218D01*
X238883787Y-87293605D01*
X238803353Y-87177076D01*
X238781279Y-87113108D01*
X238795482Y-87046945D01*
X238841864Y-86997672D01*
X238907049Y-86979500D01*
X239069116Y-86979500D01*
X239117334Y-86989091D01*
X239158211Y-87016405D01*
X242187306Y-90045501D01*
X242216612Y-90091501D01*
X242223732Y-90145576D01*
X242207331Y-90197594D01*
X242151318Y-90294614D01*
X242055246Y-90539400D01*
X241996731Y-90795770D01*
X241977080Y-91058000D01*
X241996731Y-91320229D01*
X242055246Y-91576599D01*
X242151317Y-91821384D01*
X242282796Y-92049113D01*
X242282798Y-92049116D01*
X242282799Y-92049117D01*
X242446754Y-92254710D01*
X242603766Y-92400395D01*
X242639523Y-92433573D01*
X242731723Y-92496433D01*
X242856790Y-92581702D01*
X242979614Y-92640851D01*
X243093711Y-92695798D01*
X243123858Y-92705097D01*
X243344992Y-92773308D01*
X243605018Y-92812500D01*
X243867980Y-92812500D01*
X243867982Y-92812500D01*
X244128008Y-92773308D01*
X244379288Y-92695798D01*
X244616210Y-92581702D01*
X244794924Y-92459857D01*
X244833476Y-92433573D01*
X244833477Y-92433571D01*
X244833480Y-92433570D01*
X245026246Y-92254710D01*
X245190201Y-92049117D01*
X245321683Y-91821384D01*
X245417754Y-91576598D01*
X245476269Y-91320228D01*
X245495920Y-91058000D01*
X245476269Y-90795772D01*
X245417754Y-90539402D01*
X245321683Y-90294616D01*
X245229419Y-90134811D01*
X245190203Y-90066886D01*
X245173149Y-90045501D01*
X245026246Y-89861290D01*
X244833480Y-89682430D01*
X244833481Y-89682430D01*
X244833476Y-89682426D01*
X244616210Y-89534298D01*
X244379288Y-89420201D01*
X244197607Y-89364160D01*
X244128008Y-89342692D01*
X243867982Y-89303500D01*
X243605018Y-89303500D01*
X243344992Y-89342692D01*
X243344988Y-89342693D01*
X243344989Y-89342693D01*
X243093711Y-89420201D01*
X242864915Y-89530384D01*
X242814957Y-89542774D01*
X242764213Y-89534152D01*
X242721151Y-89505957D01*
X239583918Y-86368724D01*
X239567530Y-86348544D01*
X239561567Y-86339417D01*
X239536355Y-86319793D01*
X239524653Y-86309458D01*
X239524617Y-86309422D01*
X239507532Y-86297223D01*
X239503363Y-86294114D01*
X239478481Y-86274749D01*
X239461619Y-86261625D01*
X239461617Y-86261624D01*
X239455267Y-86256682D01*
X239455192Y-86256643D01*
X239396811Y-86239262D01*
X239391853Y-86237673D01*
X239334222Y-86217888D01*
X239334130Y-86217875D01*
X239273286Y-86220392D01*
X239268079Y-86220500D01*
X231909384Y-86220500D01*
X231861166Y-86210909D01*
X231820289Y-86183595D01*
X229963694Y-84327000D01*
X241546001Y-84327000D01*
X241546001Y-86225018D01*
X241560736Y-86299105D01*
X241616876Y-86383124D01*
X241700893Y-86439263D01*
X241774981Y-86454000D01*
X243673000Y-86454000D01*
X243673000Y-84327000D01*
X241546001Y-84327000D01*
X229963694Y-84327000D01*
X229709694Y-84073000D01*
X241546000Y-84073000D01*
X243673000Y-84073000D01*
X243673000Y-81946001D01*
X241774982Y-81946001D01*
X241700894Y-81960736D01*
X241616875Y-82016876D01*
X241560736Y-82100893D01*
X241546000Y-82174981D01*
X241546000Y-84073000D01*
X229709694Y-84073000D01*
X226402885Y-80766191D01*
X226379950Y-80734762D01*
X226367698Y-80697834D01*
X226363899Y-80675070D01*
X226363750Y-80674794D01*
X226352418Y-80645752D01*
X226352341Y-80645448D01*
X226329137Y-80609932D01*
X226323807Y-80600987D01*
X226303620Y-80563686D01*
X226303619Y-80563684D01*
X226303385Y-80563469D01*
X226283243Y-80539686D01*
X226283068Y-80539418D01*
X226249586Y-80513358D01*
X226241640Y-80506628D01*
X226210436Y-80477902D01*
X226210145Y-80477775D01*
X226183375Y-80461824D01*
X226183120Y-80461625D01*
X226142994Y-80447850D01*
X226133293Y-80444064D01*
X226094450Y-80427025D01*
X226094127Y-80426999D01*
X226063634Y-80420605D01*
X226063328Y-80420500D01*
X226063327Y-80420500D01*
X226020907Y-80420500D01*
X226010503Y-80420070D01*
X225968228Y-80416567D01*
X225967922Y-80416644D01*
X225936992Y-80420500D01*
X220335275Y-80420500D01*
X220276720Y-80406067D01*
X220233795Y-80383538D01*
X220233794Y-80383537D01*
X220233793Y-80383537D01*
X220079471Y-80345500D01*
X219920529Y-80345500D01*
X219766207Y-80383537D01*
X219766206Y-80383537D01*
X219766204Y-80383538D01*
X219625472Y-80457400D01*
X219506501Y-80562799D01*
X219416212Y-80693605D01*
X219359850Y-80842219D01*
X219340693Y-80999999D01*
X199508500Y-80999999D01*
X199508500Y-80454730D01*
X199514205Y-80417245D01*
X199530804Y-80383154D01*
X199544855Y-80362798D01*
X199583787Y-80306395D01*
X199640149Y-80157782D01*
X199659307Y-80000000D01*
X199640149Y-79842218D01*
X199583787Y-79693605D01*
X199493498Y-79562799D01*
X199374529Y-79457401D01*
X199233793Y-79383537D01*
X199079471Y-79345500D01*
X198920529Y-79345500D01*
X198766207Y-79383537D01*
X198766206Y-79383537D01*
X198766204Y-79383538D01*
X198625472Y-79457400D01*
X198506501Y-79562799D01*
X198416212Y-79693605D01*
X198359850Y-79842219D01*
X198340693Y-80000000D01*
X198359850Y-80157780D01*
X198416212Y-80306394D01*
X198469196Y-80383154D01*
X198485795Y-80417245D01*
X198491500Y-80454730D01*
X198491500Y-81545270D01*
X198485795Y-81582755D01*
X198469196Y-81616846D01*
X198416212Y-81693605D01*
X198359850Y-81842219D01*
X198340693Y-81999999D01*
X194659307Y-81999999D01*
X194640149Y-81842218D01*
X194583787Y-81693605D01*
X194530803Y-81616845D01*
X194514205Y-81582755D01*
X194508500Y-81545270D01*
X194508500Y-80454730D01*
X194514205Y-80417245D01*
X194530804Y-80383154D01*
X194544855Y-80362798D01*
X194583787Y-80306395D01*
X194640149Y-80157782D01*
X194659307Y-80000000D01*
X194640149Y-79842218D01*
X194583787Y-79693605D01*
X194493498Y-79562799D01*
X194374529Y-79457401D01*
X194233793Y-79383537D01*
X194079471Y-79345500D01*
X193920529Y-79345500D01*
X193766207Y-79383537D01*
X193766206Y-79383537D01*
X193766204Y-79383538D01*
X193625472Y-79457400D01*
X193506501Y-79562799D01*
X193416212Y-79693605D01*
X193359850Y-79842219D01*
X193340693Y-80000000D01*
X193359850Y-80157780D01*
X193416212Y-80306394D01*
X193469196Y-80383154D01*
X193485795Y-80417245D01*
X193491500Y-80454730D01*
X193491500Y-81545270D01*
X193485795Y-81582755D01*
X193469196Y-81616846D01*
X193416212Y-81693605D01*
X193359850Y-81842219D01*
X193340693Y-81999999D01*
X190659307Y-81999999D01*
X190640149Y-81842218D01*
X190583787Y-81693605D01*
X190530803Y-81616845D01*
X190514205Y-81582755D01*
X190508500Y-81545270D01*
X190508500Y-80454730D01*
X190514205Y-80417245D01*
X190530804Y-80383154D01*
X190544855Y-80362798D01*
X190583787Y-80306395D01*
X190640149Y-80157782D01*
X190659307Y-80000000D01*
X190640149Y-79842218D01*
X190583787Y-79693605D01*
X190493498Y-79562799D01*
X190374529Y-79457401D01*
X190233793Y-79383537D01*
X190079471Y-79345500D01*
X189920529Y-79345500D01*
X189766207Y-79383537D01*
X189766206Y-79383537D01*
X189766204Y-79383538D01*
X189625472Y-79457400D01*
X189506501Y-79562799D01*
X189416212Y-79693605D01*
X189359850Y-79842219D01*
X189340693Y-80000000D01*
X189359850Y-80157780D01*
X189416212Y-80306394D01*
X189469196Y-80383154D01*
X189485795Y-80417245D01*
X189491500Y-80454730D01*
X189491500Y-81545270D01*
X189485795Y-81582755D01*
X189469196Y-81616846D01*
X189416212Y-81693605D01*
X189359850Y-81842219D01*
X189340693Y-81999999D01*
X186659307Y-81999999D01*
X186640149Y-81842218D01*
X186583787Y-81693605D01*
X186530803Y-81616845D01*
X186514205Y-81582755D01*
X186508500Y-81545270D01*
X186508500Y-80454730D01*
X186514205Y-80417245D01*
X186530804Y-80383154D01*
X186544855Y-80362798D01*
X186583787Y-80306395D01*
X186640149Y-80157782D01*
X186659307Y-80000000D01*
X186640149Y-79842218D01*
X186583787Y-79693605D01*
X186493498Y-79562799D01*
X186374529Y-79457401D01*
X186233793Y-79383537D01*
X186079471Y-79345500D01*
X185920529Y-79345500D01*
X185766207Y-79383537D01*
X185766206Y-79383537D01*
X185766204Y-79383538D01*
X185625472Y-79457400D01*
X185506501Y-79562799D01*
X185416212Y-79693605D01*
X185359850Y-79842219D01*
X185340693Y-80000000D01*
X185359850Y-80157780D01*
X185416212Y-80306394D01*
X185469196Y-80383154D01*
X185485795Y-80417245D01*
X185491500Y-80454730D01*
X185491500Y-81545270D01*
X185485795Y-81582755D01*
X185469196Y-81616846D01*
X185416212Y-81693605D01*
X185359850Y-81842219D01*
X185340693Y-81999999D01*
X182659307Y-81999999D01*
X182640149Y-81842218D01*
X182583787Y-81693605D01*
X182530803Y-81616845D01*
X182514205Y-81582755D01*
X182508500Y-81545270D01*
X182508500Y-80454730D01*
X182514205Y-80417245D01*
X182530804Y-80383154D01*
X182544855Y-80362798D01*
X182583787Y-80306395D01*
X182640149Y-80157782D01*
X182659307Y-80000000D01*
X182640149Y-79842218D01*
X182583787Y-79693605D01*
X182493498Y-79562799D01*
X182374529Y-79457401D01*
X182233793Y-79383537D01*
X182079471Y-79345500D01*
X181920529Y-79345500D01*
X181766207Y-79383537D01*
X181766206Y-79383537D01*
X181766204Y-79383538D01*
X181625472Y-79457400D01*
X181506501Y-79562799D01*
X181416212Y-79693605D01*
X181359850Y-79842219D01*
X181340693Y-80000000D01*
X181359850Y-80157780D01*
X181416212Y-80306394D01*
X181469196Y-80383154D01*
X181485795Y-80417245D01*
X181491500Y-80454730D01*
X181491500Y-81545270D01*
X181485795Y-81582755D01*
X181469196Y-81616846D01*
X181416212Y-81693605D01*
X181359850Y-81842219D01*
X181340693Y-81999999D01*
X159460500Y-81999999D01*
X159460500Y-80799999D01*
X168906704Y-80799999D01*
X168925861Y-80957780D01*
X168982223Y-81106394D01*
X169058158Y-81216405D01*
X169072513Y-81237201D01*
X169191482Y-81342599D01*
X169332218Y-81416463D01*
X169486540Y-81454500D01*
X169645480Y-81454500D01*
X169645482Y-81454500D01*
X169799804Y-81416463D01*
X169940540Y-81342599D01*
X170059509Y-81237201D01*
X170061772Y-81233921D01*
X170106912Y-81193932D01*
X170165467Y-81179500D01*
X171600544Y-81179500D01*
X171659099Y-81193932D01*
X171704238Y-81233921D01*
X171706502Y-81237201D01*
X171825471Y-81342599D01*
X171966207Y-81416463D01*
X172120529Y-81454500D01*
X172279469Y-81454500D01*
X172279471Y-81454500D01*
X172433793Y-81416463D01*
X172574529Y-81342599D01*
X172693498Y-81237201D01*
X172783787Y-81106395D01*
X172840149Y-80957782D01*
X172859307Y-80800000D01*
X172840149Y-80642218D01*
X172783787Y-80493605D01*
X172693498Y-80362799D01*
X172574529Y-80257401D01*
X172433793Y-80183537D01*
X172279471Y-80145500D01*
X172120529Y-80145500D01*
X171966207Y-80183537D01*
X171966206Y-80183537D01*
X171966204Y-80183538D01*
X171825472Y-80257400D01*
X171770168Y-80306395D01*
X171706502Y-80362799D01*
X171704238Y-80366078D01*
X171659099Y-80406068D01*
X171600544Y-80420500D01*
X170165467Y-80420500D01*
X170106912Y-80406068D01*
X170061772Y-80366078D01*
X170059509Y-80362799D01*
X169940540Y-80257401D01*
X169799804Y-80183537D01*
X169645482Y-80145500D01*
X169486540Y-80145500D01*
X169332218Y-80183537D01*
X169332217Y-80183537D01*
X169332215Y-80183538D01*
X169191483Y-80257400D01*
X169072512Y-80362799D01*
X168982223Y-80493605D01*
X168925861Y-80642219D01*
X168906704Y-80799999D01*
X159460500Y-80799999D01*
X159460500Y-78481800D01*
X219999693Y-78481800D01*
X220018850Y-78639580D01*
X220075212Y-78788194D01*
X220075213Y-78788195D01*
X220165502Y-78919001D01*
X220284471Y-79024399D01*
X220425207Y-79098263D01*
X220579529Y-79136300D01*
X220738469Y-79136300D01*
X220738471Y-79136300D01*
X220892793Y-79098263D01*
X221033529Y-79024399D01*
X221152498Y-78919001D01*
X221242787Y-78788195D01*
X221299149Y-78639582D01*
X221318307Y-78481800D01*
X221299149Y-78324018D01*
X221242787Y-78175405D01*
X221152498Y-78044599D01*
X221055945Y-77959060D01*
X221024601Y-77916461D01*
X221013500Y-77864749D01*
X221013500Y-77064851D01*
X221024601Y-77013139D01*
X221055946Y-76970539D01*
X221152498Y-76885001D01*
X221242787Y-76754195D01*
X221299149Y-76605582D01*
X221318307Y-76447800D01*
X221299149Y-76290018D01*
X221242787Y-76141405D01*
X221152498Y-76010599D01*
X221033529Y-75905201D01*
X220892793Y-75831337D01*
X220738471Y-75793300D01*
X220579529Y-75793300D01*
X220425207Y-75831337D01*
X220425206Y-75831337D01*
X220425204Y-75831338D01*
X220284472Y-75905200D01*
X220165501Y-76010599D01*
X220075212Y-76141405D01*
X220018850Y-76290019D01*
X219999693Y-76447799D01*
X220018850Y-76605580D01*
X220075212Y-76754194D01*
X220165501Y-76885000D01*
X220262054Y-76970539D01*
X220293399Y-77013139D01*
X220304500Y-77064851D01*
X220304500Y-77864749D01*
X220293399Y-77916461D01*
X220262054Y-77959061D01*
X220165501Y-78044599D01*
X220075212Y-78175405D01*
X220018850Y-78324019D01*
X219999693Y-78481800D01*
X159460500Y-78481800D01*
X159460500Y-75242299D01*
X216760193Y-75242299D01*
X216779350Y-75400080D01*
X216835712Y-75548694D01*
X216906483Y-75651224D01*
X216926002Y-75679501D01*
X217044971Y-75784899D01*
X217185707Y-75858763D01*
X217340029Y-75896800D01*
X217498969Y-75896800D01*
X217498971Y-75896800D01*
X217653293Y-75858763D01*
X217794029Y-75784899D01*
X217912998Y-75679501D01*
X217932516Y-75651223D01*
X217977657Y-75611233D01*
X218036212Y-75596800D01*
X218678766Y-75596800D01*
X218704622Y-75599481D01*
X218713747Y-75601395D01*
X218742846Y-75597767D01*
X218757703Y-75596845D01*
X218757973Y-75596800D01*
X218757977Y-75596800D01*
X218777176Y-75593595D01*
X218782293Y-75592851D01*
X218838652Y-75585826D01*
X218854335Y-75577338D01*
X218888606Y-75558790D01*
X218893179Y-75556436D01*
X218937440Y-75534799D01*
X218937443Y-75534795D01*
X218944231Y-75531477D01*
X218949345Y-75525920D01*
X218949349Y-75525919D01*
X218982723Y-75489663D01*
X218986282Y-75485955D01*
X219033931Y-75438306D01*
X219054106Y-75421923D01*
X219061916Y-75416821D01*
X219079923Y-75393684D01*
X219089784Y-75382519D01*
X219101238Y-75366475D01*
X219104357Y-75362292D01*
X219139227Y-75317492D01*
X219155431Y-75263063D01*
X219157011Y-75258127D01*
X219173000Y-75211556D01*
X219173000Y-75211553D01*
X219175454Y-75204405D01*
X219173108Y-75147676D01*
X219173000Y-75142469D01*
X219173000Y-74607300D01*
X236445193Y-74607300D01*
X236464350Y-74765080D01*
X236520712Y-74913694D01*
X236591483Y-75016224D01*
X236611002Y-75044501D01*
X236729971Y-75149899D01*
X236870707Y-75223763D01*
X237025029Y-75261800D01*
X237183969Y-75261800D01*
X237183971Y-75261800D01*
X237338293Y-75223763D01*
X237479029Y-75149899D01*
X237597998Y-75044501D01*
X237617516Y-75016223D01*
X237662657Y-74976233D01*
X237721212Y-74961800D01*
X237886788Y-74961800D01*
X237945343Y-74976233D01*
X237990483Y-75016223D01*
X238010002Y-75044501D01*
X238128971Y-75149899D01*
X238269707Y-75223763D01*
X238424029Y-75261800D01*
X238582969Y-75261800D01*
X238582971Y-75261800D01*
X238737293Y-75223763D01*
X238878029Y-75149899D01*
X238996998Y-75044501D01*
X239087287Y-74913695D01*
X239143649Y-74765082D01*
X239162807Y-74607300D01*
X239143649Y-74449518D01*
X239087287Y-74300905D01*
X238996998Y-74170099D01*
X238878029Y-74064701D01*
X238737293Y-73990837D01*
X238582971Y-73952800D01*
X238424029Y-73952800D01*
X238269707Y-73990837D01*
X238269706Y-73990837D01*
X238269704Y-73990838D01*
X238128972Y-74064700D01*
X238010001Y-74170099D01*
X237990484Y-74198376D01*
X237945343Y-74238367D01*
X237886788Y-74252800D01*
X237721212Y-74252800D01*
X237662657Y-74238367D01*
X237617516Y-74198376D01*
X237597998Y-74170099D01*
X237552826Y-74130080D01*
X237479029Y-74064701D01*
X237338293Y-73990837D01*
X237183971Y-73952800D01*
X237025029Y-73952800D01*
X236870707Y-73990837D01*
X236870706Y-73990837D01*
X236870704Y-73990838D01*
X236729972Y-74064700D01*
X236611001Y-74170099D01*
X236520712Y-74300905D01*
X236464350Y-74449519D01*
X236445193Y-74607300D01*
X219173000Y-74607300D01*
X219173000Y-74589351D01*
X219184101Y-74537639D01*
X219215446Y-74495039D01*
X219266828Y-74449518D01*
X219311998Y-74409501D01*
X219402287Y-74278695D01*
X219458649Y-74130082D01*
X219477807Y-73972300D01*
X219458649Y-73814518D01*
X219402287Y-73665905D01*
X219311998Y-73535099D01*
X219193029Y-73429701D01*
X219052293Y-73355837D01*
X218897971Y-73317800D01*
X218739029Y-73317800D01*
X218584707Y-73355837D01*
X218584706Y-73355837D01*
X218584704Y-73355838D01*
X218443972Y-73429700D01*
X218325001Y-73535099D01*
X218234712Y-73665905D01*
X218178350Y-73814519D01*
X218159193Y-73972300D01*
X218178350Y-74130080D01*
X218234712Y-74278694D01*
X218325001Y-74409500D01*
X218421554Y-74495039D01*
X218452899Y-74537639D01*
X218464000Y-74589351D01*
X218464000Y-74761800D01*
X218447119Y-74824800D01*
X218401000Y-74870919D01*
X218338000Y-74887800D01*
X218036212Y-74887800D01*
X217977657Y-74873367D01*
X217932516Y-74833376D01*
X217926596Y-74824800D01*
X217912998Y-74805099D01*
X217794029Y-74699701D01*
X217653293Y-74625837D01*
X217498971Y-74587800D01*
X217340029Y-74587800D01*
X217185707Y-74625837D01*
X217185706Y-74625837D01*
X217185704Y-74625838D01*
X217044972Y-74699700D01*
X216926001Y-74805099D01*
X216835712Y-74935905D01*
X216779350Y-75084519D01*
X216760193Y-75242299D01*
X159460500Y-75242299D01*
X159460500Y-72702300D01*
X216760193Y-72702300D01*
X216779350Y-72860080D01*
X216835712Y-73008694D01*
X216835713Y-73008695D01*
X216926002Y-73139501D01*
X217044971Y-73244899D01*
X217185707Y-73318763D01*
X217340029Y-73356800D01*
X217498969Y-73356800D01*
X217498971Y-73356800D01*
X217653293Y-73318763D01*
X217794029Y-73244899D01*
X217912998Y-73139501D01*
X218003287Y-73008695D01*
X218059649Y-72860082D01*
X218078807Y-72702300D01*
X218059649Y-72544518D01*
X218003287Y-72395905D01*
X217912998Y-72265099D01*
X217880946Y-72236703D01*
X217849600Y-72194102D01*
X217838500Y-72142391D01*
X217838500Y-71414351D01*
X217849601Y-71362639D01*
X217880946Y-71320039D01*
X217977498Y-71234501D01*
X218067787Y-71103695D01*
X218124149Y-70955082D01*
X218143307Y-70797300D01*
X218124149Y-70639518D01*
X218067787Y-70490905D01*
X217977498Y-70360099D01*
X217858529Y-70254701D01*
X217717793Y-70180837D01*
X217563471Y-70142800D01*
X217404529Y-70142800D01*
X217250207Y-70180837D01*
X217250206Y-70180837D01*
X217250204Y-70180838D01*
X217109472Y-70254700D01*
X216990501Y-70360099D01*
X216900212Y-70490905D01*
X216843850Y-70639519D01*
X216824693Y-70797300D01*
X216843850Y-70955080D01*
X216900212Y-71103694D01*
X216990501Y-71234500D01*
X217087054Y-71320039D01*
X217118399Y-71362639D01*
X217129500Y-71414351D01*
X217129500Y-72039167D01*
X217111328Y-72104352D01*
X217062054Y-72150735D01*
X217044971Y-72159700D01*
X216926001Y-72265099D01*
X216835712Y-72395905D01*
X216779350Y-72544519D01*
X216760193Y-72702300D01*
X159460500Y-72702300D01*
X159460500Y-68956800D01*
X211744693Y-68956800D01*
X211763850Y-69114580D01*
X211820212Y-69263194D01*
X211820213Y-69263195D01*
X211910502Y-69394001D01*
X212029471Y-69499399D01*
X212170207Y-69573263D01*
X212324529Y-69611300D01*
X212483469Y-69611300D01*
X212483471Y-69611300D01*
X212637793Y-69573263D01*
X212778529Y-69499399D01*
X212897498Y-69394001D01*
X212987787Y-69263195D01*
X213044149Y-69114582D01*
X213063307Y-68956800D01*
X213649693Y-68956800D01*
X213668850Y-69114580D01*
X213725212Y-69263194D01*
X213725213Y-69263195D01*
X213815502Y-69394001D01*
X213934471Y-69499399D01*
X214075207Y-69573263D01*
X214229529Y-69611300D01*
X214388469Y-69611300D01*
X214388471Y-69611300D01*
X214542793Y-69573263D01*
X214683529Y-69499399D01*
X214802498Y-69394001D01*
X214892787Y-69263195D01*
X214949149Y-69114582D01*
X214968307Y-68956800D01*
X214949149Y-68799018D01*
X214892787Y-68650405D01*
X214802498Y-68519599D01*
X214730946Y-68456209D01*
X214699600Y-68413609D01*
X214688500Y-68361897D01*
X214688500Y-68152703D01*
X214699600Y-68100991D01*
X214730946Y-68058391D01*
X214736997Y-68053029D01*
X214802498Y-67995001D01*
X214892787Y-67864195D01*
X214949149Y-67715582D01*
X214960475Y-67622300D01*
X218094693Y-67622300D01*
X218113850Y-67780080D01*
X218170212Y-67928694D01*
X218215980Y-67995001D01*
X218260502Y-68059501D01*
X218379471Y-68164899D01*
X218520207Y-68238763D01*
X218674529Y-68276800D01*
X218833469Y-68276800D01*
X218833471Y-68276800D01*
X218987793Y-68238763D01*
X219128529Y-68164899D01*
X219182397Y-68117176D01*
X229462430Y-68117176D01*
X229490420Y-68145166D01*
X229752685Y-68350637D01*
X230037817Y-68523004D01*
X230341629Y-68659740D01*
X230659719Y-68758860D01*
X230987437Y-68818918D01*
X231320000Y-68839033D01*
X231652562Y-68818918D01*
X231980280Y-68758860D01*
X232298370Y-68659740D01*
X232602182Y-68523004D01*
X232887314Y-68350637D01*
X233149579Y-68145166D01*
X233177570Y-68117176D01*
X233177570Y-68117174D01*
X231320001Y-66259605D01*
X231319999Y-66259605D01*
X229462430Y-68117174D01*
X229462430Y-68117176D01*
X219182397Y-68117176D01*
X219247498Y-68059501D01*
X219337787Y-67928695D01*
X219394149Y-67780082D01*
X219413307Y-67622300D01*
X219394149Y-67464518D01*
X219337787Y-67315905D01*
X219247498Y-67185099D01*
X219150945Y-67099560D01*
X219119601Y-67056961D01*
X219108500Y-67005249D01*
X219108500Y-66334351D01*
X219119601Y-66282639D01*
X219150946Y-66240039D01*
X219247498Y-66154501D01*
X219298923Y-66079999D01*
X228560966Y-66079999D01*
X228581081Y-66412562D01*
X228641139Y-66740280D01*
X228740259Y-67058370D01*
X228876995Y-67362182D01*
X229049362Y-67647314D01*
X229254833Y-67909579D01*
X229282824Y-67937570D01*
X229282826Y-67937570D01*
X231140395Y-66080001D01*
X231499605Y-66080001D01*
X233357174Y-67937570D01*
X233357176Y-67937570D01*
X233385166Y-67909579D01*
X233590637Y-67647314D01*
X233763004Y-67362182D01*
X233899740Y-67058370D01*
X233998860Y-66740280D01*
X234058918Y-66412562D01*
X234079033Y-66079999D01*
X234058918Y-65747437D01*
X233998860Y-65419719D01*
X233899740Y-65101629D01*
X233763004Y-64797817D01*
X233590637Y-64512685D01*
X233385166Y-64250420D01*
X233357176Y-64222430D01*
X233357174Y-64222430D01*
X231499605Y-66079999D01*
X231499605Y-66080001D01*
X231140395Y-66080001D01*
X231140395Y-66079999D01*
X229282826Y-64222430D01*
X229282824Y-64222430D01*
X229254833Y-64250420D01*
X229049362Y-64512685D01*
X228876995Y-64797817D01*
X228740259Y-65101629D01*
X228641139Y-65419719D01*
X228581081Y-65747437D01*
X228560966Y-66079999D01*
X219298923Y-66079999D01*
X219337787Y-66023695D01*
X219394149Y-65875082D01*
X219413307Y-65717300D01*
X219394149Y-65559518D01*
X219337787Y-65410905D01*
X219247498Y-65280099D01*
X219128529Y-65174701D01*
X218987793Y-65100837D01*
X218833471Y-65062800D01*
X218674529Y-65062800D01*
X218520207Y-65100837D01*
X218520206Y-65100837D01*
X218520204Y-65100838D01*
X218379472Y-65174700D01*
X218260501Y-65280099D01*
X218170212Y-65410905D01*
X218113850Y-65559519D01*
X218094693Y-65717299D01*
X218113850Y-65875080D01*
X218170212Y-66023694D01*
X218260501Y-66154500D01*
X218357054Y-66240039D01*
X218388399Y-66282639D01*
X218399500Y-66334351D01*
X218399500Y-67005249D01*
X218388399Y-67056961D01*
X218357054Y-67099561D01*
X218260501Y-67185099D01*
X218170212Y-67315905D01*
X218113850Y-67464519D01*
X218094693Y-67622300D01*
X214960475Y-67622300D01*
X214968307Y-67557800D01*
X214949149Y-67400018D01*
X214892787Y-67251405D01*
X214802498Y-67120599D01*
X214683529Y-67015201D01*
X214542793Y-66941337D01*
X214388471Y-66903300D01*
X214229529Y-66903300D01*
X214075207Y-66941337D01*
X214075206Y-66941337D01*
X214075204Y-66941338D01*
X213934472Y-67015200D01*
X213815501Y-67120599D01*
X213725212Y-67251405D01*
X213668850Y-67400019D01*
X213649693Y-67557800D01*
X213668850Y-67715580D01*
X213725212Y-67864194D01*
X213815501Y-67995000D01*
X213887054Y-68058391D01*
X213918400Y-68100991D01*
X213929500Y-68152703D01*
X213929500Y-68361897D01*
X213918400Y-68413609D01*
X213887054Y-68456209D01*
X213815501Y-68519599D01*
X213725212Y-68650405D01*
X213668850Y-68799019D01*
X213649693Y-68956800D01*
X213063307Y-68956800D01*
X213044149Y-68799018D01*
X212987787Y-68650405D01*
X212897498Y-68519599D01*
X212800945Y-68434060D01*
X212769601Y-68391461D01*
X212758500Y-68339749D01*
X212758500Y-68174851D01*
X212769601Y-68123139D01*
X212800946Y-68080539D01*
X212825946Y-68058391D01*
X212897498Y-67995001D01*
X212987787Y-67864195D01*
X213044149Y-67715582D01*
X213063307Y-67557800D01*
X213044149Y-67400018D01*
X212987787Y-67251405D01*
X212897498Y-67120599D01*
X212778529Y-67015201D01*
X212637793Y-66941337D01*
X212483471Y-66903300D01*
X212324529Y-66903300D01*
X212170207Y-66941337D01*
X212170206Y-66941337D01*
X212170204Y-66941338D01*
X212029472Y-67015200D01*
X211910501Y-67120599D01*
X211820212Y-67251405D01*
X211763850Y-67400019D01*
X211744693Y-67557800D01*
X211763850Y-67715580D01*
X211820212Y-67864194D01*
X211910501Y-67995000D01*
X212007054Y-68080539D01*
X212038399Y-68123139D01*
X212049500Y-68174851D01*
X212049500Y-68339749D01*
X212038399Y-68391461D01*
X212007054Y-68434061D01*
X211910501Y-68519599D01*
X211820212Y-68650405D01*
X211763850Y-68799019D01*
X211744693Y-68956800D01*
X159460500Y-68956800D01*
X159460500Y-68117176D01*
X173462430Y-68117176D01*
X173490420Y-68145166D01*
X173752685Y-68350637D01*
X174037817Y-68523004D01*
X174341629Y-68659740D01*
X174659719Y-68758860D01*
X174987437Y-68818918D01*
X175320000Y-68839033D01*
X175652562Y-68818918D01*
X175980280Y-68758860D01*
X176298370Y-68659740D01*
X176602182Y-68523004D01*
X176887314Y-68350637D01*
X177149579Y-68145166D01*
X177177570Y-68117176D01*
X177177570Y-68117174D01*
X177135396Y-68075000D01*
X206417893Y-68075000D01*
X206437050Y-68232780D01*
X206493412Y-68381394D01*
X206529765Y-68434061D01*
X206583702Y-68512201D01*
X206702671Y-68617599D01*
X206843407Y-68691463D01*
X206997729Y-68729500D01*
X207156669Y-68729500D01*
X207156671Y-68729500D01*
X207310993Y-68691463D01*
X207435281Y-68626231D01*
X207493834Y-68611800D01*
X208612288Y-68611800D01*
X208670843Y-68626233D01*
X208715984Y-68666224D01*
X208733403Y-68691461D01*
X208735502Y-68694501D01*
X208854471Y-68799899D01*
X208995207Y-68873763D01*
X209149529Y-68911800D01*
X209308469Y-68911800D01*
X209308471Y-68911800D01*
X209462793Y-68873763D01*
X209603529Y-68799899D01*
X209722498Y-68694501D01*
X209812787Y-68563695D01*
X209869149Y-68415082D01*
X209888307Y-68257300D01*
X209869149Y-68099518D01*
X209812787Y-67950905D01*
X209722498Y-67820099D01*
X209603529Y-67714701D01*
X209462793Y-67640837D01*
X209308471Y-67602800D01*
X209149529Y-67602800D01*
X208995207Y-67640837D01*
X208995206Y-67640837D01*
X208995204Y-67640838D01*
X208854472Y-67714700D01*
X208735501Y-67820099D01*
X208715984Y-67848376D01*
X208670843Y-67888367D01*
X208612288Y-67902800D01*
X207798852Y-67902800D01*
X207749464Y-67892717D01*
X207707980Y-67864083D01*
X207681040Y-67821480D01*
X207660987Y-67768605D01*
X207570698Y-67637799D01*
X207553203Y-67622300D01*
X207451729Y-67532401D01*
X207310993Y-67458537D01*
X207156671Y-67420500D01*
X206997729Y-67420500D01*
X206843407Y-67458537D01*
X206843406Y-67458537D01*
X206843404Y-67458538D01*
X206702672Y-67532400D01*
X206583701Y-67637799D01*
X206493412Y-67768605D01*
X206437050Y-67917219D01*
X206417893Y-68075000D01*
X177135396Y-68075000D01*
X175320001Y-66259605D01*
X175319999Y-66259605D01*
X173462430Y-68117174D01*
X173462430Y-68117176D01*
X159460500Y-68117176D01*
X159460500Y-66079999D01*
X172560966Y-66079999D01*
X172581081Y-66412562D01*
X172641139Y-66740280D01*
X172740259Y-67058370D01*
X172876995Y-67362182D01*
X173049362Y-67647314D01*
X173254833Y-67909579D01*
X173282824Y-67937570D01*
X173282826Y-67937570D01*
X175140395Y-66080001D01*
X175499605Y-66080001D01*
X177357174Y-67937570D01*
X177357176Y-67937570D01*
X177385166Y-67909579D01*
X177590637Y-67647314D01*
X177763004Y-67362182D01*
X177899740Y-67058370D01*
X177998860Y-66740280D01*
X178058918Y-66412562D01*
X178079033Y-66079999D01*
X178058918Y-65747437D01*
X178053395Y-65717299D01*
X206029693Y-65717299D01*
X206048850Y-65875080D01*
X206105212Y-66023694D01*
X206175983Y-66126224D01*
X206195502Y-66154501D01*
X206314471Y-66259899D01*
X206455207Y-66333763D01*
X206609529Y-66371800D01*
X206768469Y-66371800D01*
X206768471Y-66371800D01*
X206922793Y-66333763D01*
X207063529Y-66259899D01*
X207182498Y-66154501D01*
X207202016Y-66126223D01*
X207247157Y-66086233D01*
X207305712Y-66071800D01*
X208612288Y-66071800D01*
X208670843Y-66086233D01*
X208715983Y-66126223D01*
X208735502Y-66154501D01*
X208854471Y-66259899D01*
X208995207Y-66333763D01*
X209149529Y-66371800D01*
X209308469Y-66371800D01*
X209308471Y-66371800D01*
X209462793Y-66333763D01*
X209603529Y-66259899D01*
X209722498Y-66154501D01*
X209812787Y-66023695D01*
X209869149Y-65875082D01*
X209888307Y-65717300D01*
X209869149Y-65559518D01*
X209812787Y-65410905D01*
X209722498Y-65280099D01*
X209603529Y-65174701D01*
X209462793Y-65100837D01*
X209308471Y-65062800D01*
X209149529Y-65062800D01*
X208995207Y-65100837D01*
X208995206Y-65100837D01*
X208995204Y-65100838D01*
X208854472Y-65174700D01*
X208735501Y-65280099D01*
X208715984Y-65308376D01*
X208670843Y-65348367D01*
X208612288Y-65362800D01*
X207305712Y-65362800D01*
X207247157Y-65348367D01*
X207202016Y-65308376D01*
X207182498Y-65280099D01*
X207063529Y-65174701D01*
X206922793Y-65100837D01*
X206768471Y-65062800D01*
X206609529Y-65062800D01*
X206455207Y-65100837D01*
X206455206Y-65100837D01*
X206455204Y-65100838D01*
X206314472Y-65174700D01*
X206195501Y-65280099D01*
X206105212Y-65410905D01*
X206048850Y-65559519D01*
X206029693Y-65717299D01*
X178053395Y-65717299D01*
X177998860Y-65419719D01*
X177899740Y-65101629D01*
X177763004Y-64797817D01*
X177590637Y-64512685D01*
X177385166Y-64250420D01*
X177357176Y-64222430D01*
X177357174Y-64222430D01*
X175499605Y-66079999D01*
X175499605Y-66080001D01*
X175140395Y-66080001D01*
X175140395Y-66079999D01*
X173282826Y-64222430D01*
X173282824Y-64222430D01*
X173254833Y-64250420D01*
X173049362Y-64512685D01*
X172876995Y-64797817D01*
X172740259Y-65101629D01*
X172641139Y-65419719D01*
X172581081Y-65747437D01*
X172560966Y-66079999D01*
X159460500Y-66079999D01*
X159460500Y-64042826D01*
X173462430Y-64042826D01*
X175319999Y-65900395D01*
X175320001Y-65900395D01*
X177177570Y-64042826D01*
X229462430Y-64042826D01*
X231319999Y-65900395D01*
X231320001Y-65900395D01*
X233177570Y-64042826D01*
X233177570Y-64042824D01*
X233149579Y-64014833D01*
X232887314Y-63809362D01*
X232602182Y-63636995D01*
X232298370Y-63500259D01*
X231980280Y-63401139D01*
X231652562Y-63341081D01*
X231320000Y-63320966D01*
X230987437Y-63341081D01*
X230659719Y-63401139D01*
X230341629Y-63500259D01*
X230037817Y-63636995D01*
X229752685Y-63809362D01*
X229490420Y-64014833D01*
X229462430Y-64042824D01*
X229462430Y-64042826D01*
X177177570Y-64042826D01*
X177177570Y-64042824D01*
X177149579Y-64014833D01*
X176887314Y-63809362D01*
X176602182Y-63636995D01*
X176298370Y-63500259D01*
X175980280Y-63401139D01*
X175652562Y-63341081D01*
X175320000Y-63320966D01*
X174987437Y-63341081D01*
X174659719Y-63401139D01*
X174341629Y-63500259D01*
X174037817Y-63636995D01*
X173752685Y-63809362D01*
X173490420Y-64014833D01*
X173462430Y-64042824D01*
X173462430Y-64042826D01*
X159460500Y-64042826D01*
X159460500Y-61272300D01*
X223484593Y-61272300D01*
X223503750Y-61430080D01*
X223560112Y-61578694D01*
X223630883Y-61681224D01*
X223650402Y-61709501D01*
X223769371Y-61814899D01*
X223910107Y-61888763D01*
X224064429Y-61926800D01*
X224223369Y-61926800D01*
X224223371Y-61926800D01*
X224377693Y-61888763D01*
X224518429Y-61814899D01*
X224637398Y-61709501D01*
X224656916Y-61681223D01*
X224702057Y-61641233D01*
X224760612Y-61626800D01*
X225122288Y-61626800D01*
X225180843Y-61641233D01*
X225225983Y-61681223D01*
X225245502Y-61709501D01*
X225364471Y-61814899D01*
X225505207Y-61888763D01*
X225659529Y-61926800D01*
X225818469Y-61926800D01*
X225818471Y-61926800D01*
X225972793Y-61888763D01*
X226113529Y-61814899D01*
X226232498Y-61709501D01*
X226322787Y-61578695D01*
X226379149Y-61430082D01*
X226398307Y-61272300D01*
X226379149Y-61114518D01*
X226322787Y-60965905D01*
X226232498Y-60835099D01*
X226113529Y-60729701D01*
X225972793Y-60655837D01*
X225818471Y-60617800D01*
X225659529Y-60617800D01*
X225505207Y-60655837D01*
X225505206Y-60655837D01*
X225505204Y-60655838D01*
X225364472Y-60729700D01*
X225245501Y-60835099D01*
X225225984Y-60863376D01*
X225180843Y-60903367D01*
X225122288Y-60917800D01*
X224760612Y-60917800D01*
X224702057Y-60903367D01*
X224656916Y-60863376D01*
X224637398Y-60835099D01*
X224518429Y-60729701D01*
X224377693Y-60655837D01*
X224223371Y-60617800D01*
X224064429Y-60617800D01*
X223910107Y-60655837D01*
X223910106Y-60655837D01*
X223910104Y-60655838D01*
X223769372Y-60729700D01*
X223650401Y-60835099D01*
X223560112Y-60965905D01*
X223503750Y-61114519D01*
X223484593Y-61272300D01*
X159460500Y-61272300D01*
X159460500Y-55965500D01*
X159477381Y-55902500D01*
X159523500Y-55856381D01*
X159586500Y-55839500D01*
X169694000Y-55839500D01*
X169761164Y-55830658D01*
X169824164Y-55813777D01*
X169886750Y-55787852D01*
X169940494Y-55746613D01*
X169986613Y-55700494D01*
X170027852Y-55646750D01*
X170053777Y-55584164D01*
X170070658Y-55521164D01*
X170079500Y-55454000D01*
X170079500Y-47231500D01*
X170096381Y-47168500D01*
X170142500Y-47122381D01*
X170205500Y-47105500D01*
X200590496Y-47105500D01*
X200638714Y-47115091D01*
G37*
%TD.AperFunction*%
%TD*%
%TA.AperFunction,Conductor*%
%TO.N,GND*%
G36*
X210020000Y-99102010D02*
G01*
X210019198Y-99099019D01*
X210017335Y-99090609D01*
X210010589Y-99052344D01*
X210010588Y-99052342D01*
X210010588Y-99052341D01*
X210009834Y-99051036D01*
X209999943Y-99027154D01*
X209999942Y-99027151D01*
X209999554Y-99025702D01*
X209977260Y-98993863D01*
X209972633Y-98986601D01*
X209953194Y-98952931D01*
X209923428Y-98927954D01*
X209917060Y-98922120D01*
X209293371Y-98298431D01*
X209287537Y-98292063D01*
X209262557Y-98262294D01*
X209228897Y-98242859D01*
X209221617Y-98238221D01*
X209189788Y-98215935D01*
X209188328Y-98215544D01*
X209164455Y-98205655D01*
X209163148Y-98204901D01*
X209163146Y-98204900D01*
X209163145Y-98204900D01*
X209124881Y-98198152D01*
X209116452Y-98196284D01*
X209062049Y-98181707D01*
X209062375Y-98180489D01*
X209052646Y-98179207D01*
X209016511Y-98156185D01*
X208313496Y-97453170D01*
X208292036Y-97421052D01*
X208284500Y-97383166D01*
X208284500Y-93077534D01*
X208284877Y-93068904D01*
X208288264Y-93030193D01*
X208278205Y-92992655D01*
X208276335Y-92984220D01*
X208269683Y-92946495D01*
X208269588Y-92945955D01*
X208268834Y-92944650D01*
X208258943Y-92920768D01*
X208258942Y-92920765D01*
X208258554Y-92919316D01*
X208236260Y-92887477D01*
X208231633Y-92880215D01*
X208212194Y-92846545D01*
X208182428Y-92821568D01*
X208176060Y-92815734D01*
X206723268Y-91362942D01*
X206717434Y-91356574D01*
X206692454Y-91326805D01*
X206658794Y-91307370D01*
X206651514Y-91302732D01*
X206619685Y-91280446D01*
X206618225Y-91280055D01*
X206594352Y-91270166D01*
X206593045Y-91269412D01*
X206593043Y-91269411D01*
X206593042Y-91269411D01*
X206554778Y-91262663D01*
X206546350Y-91260795D01*
X206508807Y-91250735D01*
X206473330Y-91253839D01*
X206470093Y-91254123D01*
X206461466Y-91254500D01*
X205909470Y-91254500D01*
X205881115Y-91249500D01*
X205878276Y-91249500D01*
X205761724Y-91249500D01*
X205761722Y-91249500D01*
X205714962Y-91266518D01*
X205706726Y-91268748D01*
X205698968Y-91272341D01*
X205652200Y-91289364D01*
X205614006Y-91321411D01*
X205606954Y-91326387D01*
X205600967Y-91332353D01*
X205562918Y-91364281D01*
X205538140Y-91407197D01*
X205533149Y-91414334D01*
X205529445Y-91422255D01*
X205504640Y-91465220D01*
X205495982Y-91514313D01*
X205493733Y-91522826D01*
X205492996Y-91531261D01*
X205484402Y-91579999D01*
X205492996Y-91628739D01*
X205493745Y-91637307D01*
X205496006Y-91645820D01*
X205504640Y-91694780D01*
X205529393Y-91737653D01*
X205533161Y-91745728D01*
X205538212Y-91752929D01*
X205562915Y-91795717D01*
X205576876Y-91807431D01*
X205600776Y-91827485D01*
X205606993Y-91833710D01*
X205614268Y-91838807D01*
X205652201Y-91870636D01*
X205698637Y-91887538D01*
X205706746Y-91891327D01*
X205715342Y-91893617D01*
X205761724Y-91910500D01*
X205878276Y-91910500D01*
X205881115Y-91910500D01*
X205909470Y-91905500D01*
X206304166Y-91905500D01*
X206342052Y-91913036D01*
X206374170Y-91934496D01*
X207604504Y-93164830D01*
X207625964Y-93196948D01*
X207633500Y-93234834D01*
X207633500Y-97540466D01*
X207633123Y-97549096D01*
X207629735Y-97587807D01*
X207639795Y-97625350D01*
X207641663Y-97633778D01*
X207648411Y-97672042D01*
X207648412Y-97672045D01*
X207649166Y-97673352D01*
X207659055Y-97697225D01*
X207659446Y-97698685D01*
X207681732Y-97730514D01*
X207686370Y-97737794D01*
X207705803Y-97771452D01*
X207705805Y-97771454D01*
X207705806Y-97771455D01*
X207735583Y-97796441D01*
X207741938Y-97802264D01*
X208672219Y-98732545D01*
X208678053Y-98738912D01*
X208703034Y-98768683D01*
X208736704Y-98788122D01*
X208743966Y-98792749D01*
X208775805Y-98815043D01*
X208777254Y-98815431D01*
X208777257Y-98815432D01*
X208801139Y-98825323D01*
X208802444Y-98826077D01*
X208836221Y-98832032D01*
X208840709Y-98832824D01*
X208849136Y-98834692D01*
X208886682Y-98844753D01*
X208903546Y-98849272D01*
X208903220Y-98850484D01*
X208912898Y-98851753D01*
X208949080Y-98874792D01*
X209345504Y-99271216D01*
X209366964Y-99303334D01*
X209374500Y-99341220D01*
X209374500Y-100510000D01*
X203170326Y-100510000D01*
X201174496Y-98514170D01*
X201153036Y-98482052D01*
X201145500Y-98444166D01*
X201145500Y-96946495D01*
X201594924Y-96946495D01*
X201639533Y-96975163D01*
X201758175Y-97010000D01*
X201881824Y-97010000D01*
X202000464Y-96975163D01*
X202045073Y-96946495D01*
X202594924Y-96946495D01*
X202639533Y-96975163D01*
X202758175Y-97010000D01*
X202881824Y-97010000D01*
X203000464Y-96975163D01*
X203045073Y-96946495D01*
X203594924Y-96946495D01*
X203639533Y-96975163D01*
X203758175Y-97010000D01*
X203881824Y-97010000D01*
X204000464Y-96975163D01*
X204045073Y-96946495D01*
X204594924Y-96946495D01*
X204639533Y-96975163D01*
X204758175Y-97010000D01*
X204881824Y-97010000D01*
X205000464Y-96975163D01*
X205045073Y-96946495D01*
X205594924Y-96946495D01*
X205639533Y-96975163D01*
X205758175Y-97010000D01*
X205881824Y-97010000D01*
X206000464Y-96975163D01*
X206045073Y-96946495D01*
X205819999Y-96721421D01*
X205594924Y-96946495D01*
X205045073Y-96946495D01*
X204819999Y-96721421D01*
X204594924Y-96946495D01*
X204045073Y-96946495D01*
X203819999Y-96721421D01*
X203594924Y-96946495D01*
X203045073Y-96946495D01*
X202819999Y-96721421D01*
X202594924Y-96946495D01*
X202045073Y-96946495D01*
X201819999Y-96721421D01*
X201594924Y-96946495D01*
X201145500Y-96946495D01*
X201145500Y-96645930D01*
X201147004Y-96628739D01*
X201155598Y-96580000D01*
X201385577Y-96580000D01*
X201403174Y-96702391D01*
X201451145Y-96807431D01*
X201451146Y-96807432D01*
X201678578Y-96580000D01*
X201961421Y-96580000D01*
X202188852Y-96807432D01*
X202188853Y-96807432D01*
X202229947Y-96717452D01*
X202266477Y-96675294D01*
X202320000Y-96659579D01*
X202373524Y-96675295D01*
X202410053Y-96717453D01*
X202451145Y-96807431D01*
X202451146Y-96807432D01*
X202678578Y-96580000D01*
X202961421Y-96580000D01*
X203188852Y-96807432D01*
X203188853Y-96807432D01*
X203229947Y-96717452D01*
X203266477Y-96675294D01*
X203320000Y-96659579D01*
X203373524Y-96675295D01*
X203410053Y-96717453D01*
X203451145Y-96807431D01*
X203451146Y-96807432D01*
X203678578Y-96580000D01*
X203678577Y-96579999D01*
X203961420Y-96579999D01*
X204188852Y-96807432D01*
X204188853Y-96807432D01*
X204229947Y-96717452D01*
X204266477Y-96675294D01*
X204320000Y-96659579D01*
X204373524Y-96675295D01*
X204410053Y-96717453D01*
X204451145Y-96807431D01*
X204451146Y-96807432D01*
X204678578Y-96580000D01*
X204961421Y-96580000D01*
X205188852Y-96807432D01*
X205188853Y-96807432D01*
X205229947Y-96717452D01*
X205266477Y-96675294D01*
X205320000Y-96659579D01*
X205373524Y-96675295D01*
X205410053Y-96717453D01*
X205451145Y-96807431D01*
X205451146Y-96807432D01*
X205678578Y-96580000D01*
X205678577Y-96579999D01*
X205961420Y-96579999D01*
X206188852Y-96807432D01*
X206188853Y-96807432D01*
X206236825Y-96702390D01*
X206254422Y-96580000D01*
X206236825Y-96457609D01*
X206188852Y-96352566D01*
X205961420Y-96579999D01*
X205678577Y-96579999D01*
X205451145Y-96352567D01*
X205410053Y-96442546D01*
X205373524Y-96484704D01*
X205320000Y-96500420D01*
X205266477Y-96484705D01*
X205229947Y-96442547D01*
X205188852Y-96352566D01*
X204961421Y-96580000D01*
X204678578Y-96580000D01*
X204451145Y-96352567D01*
X204410053Y-96442546D01*
X204373524Y-96484704D01*
X204320000Y-96500420D01*
X204266477Y-96484705D01*
X204229947Y-96442547D01*
X204188852Y-96352566D01*
X203961420Y-96579999D01*
X203678577Y-96579999D01*
X203451145Y-96352567D01*
X203410053Y-96442546D01*
X203373524Y-96484704D01*
X203320000Y-96500420D01*
X203266477Y-96484705D01*
X203229947Y-96442547D01*
X203188852Y-96352566D01*
X202961421Y-96580000D01*
X202678578Y-96580000D01*
X202451145Y-96352567D01*
X202410053Y-96442546D01*
X202373524Y-96484704D01*
X202320000Y-96500420D01*
X202266477Y-96484705D01*
X202229947Y-96442547D01*
X202188852Y-96352566D01*
X201961421Y-96580000D01*
X201678578Y-96580000D01*
X201451145Y-96352567D01*
X201403173Y-96457611D01*
X201385577Y-96580000D01*
X201155598Y-96580000D01*
X201135359Y-96465219D01*
X201135359Y-96465217D01*
X201077083Y-96364281D01*
X200987799Y-96289363D01*
X200878277Y-96249500D01*
X200878276Y-96249500D01*
X200761724Y-96249500D01*
X200761723Y-96249500D01*
X200652200Y-96289363D01*
X200562916Y-96364281D01*
X200504640Y-96465217D01*
X200484402Y-96580000D01*
X200492996Y-96628739D01*
X200494500Y-96645930D01*
X200494500Y-98601466D01*
X200494123Y-98610096D01*
X200490735Y-98648807D01*
X200500795Y-98686350D01*
X200502663Y-98694778D01*
X200509411Y-98733042D01*
X200509412Y-98733045D01*
X200510166Y-98734352D01*
X200520055Y-98758225D01*
X200520446Y-98759685D01*
X200542732Y-98791514D01*
X200547370Y-98798794D01*
X200566803Y-98832452D01*
X200566805Y-98832454D01*
X200566806Y-98832455D01*
X200596583Y-98857441D01*
X200602938Y-98863264D01*
X202249674Y-100510000D01*
X196050000Y-100510000D01*
X196050000Y-95946495D01*
X200594924Y-95946495D01*
X200639533Y-95975163D01*
X200758175Y-96010000D01*
X200881824Y-96010000D01*
X201000464Y-95975163D01*
X201045073Y-95946495D01*
X201594924Y-95946495D01*
X201639532Y-95975163D01*
X201673067Y-95985010D01*
X201716171Y-96011003D01*
X201740922Y-96054832D01*
X201740923Y-96105167D01*
X201716171Y-96148996D01*
X201673067Y-96174990D01*
X201639534Y-96184836D01*
X201594925Y-96213503D01*
X201820000Y-96438578D01*
X202045073Y-96213504D01*
X202045073Y-96213503D01*
X202000466Y-96184836D01*
X201966931Y-96174989D01*
X201923826Y-96148995D01*
X201899075Y-96105166D01*
X201899076Y-96054830D01*
X201923828Y-96011001D01*
X201966932Y-95985009D01*
X202000464Y-95975163D01*
X202045073Y-95946495D01*
X202594924Y-95946495D01*
X202639532Y-95975163D01*
X202673067Y-95985010D01*
X202716171Y-96011003D01*
X202740922Y-96054832D01*
X202740923Y-96105167D01*
X202716171Y-96148996D01*
X202673067Y-96174990D01*
X202639534Y-96184836D01*
X202594925Y-96213503D01*
X202820000Y-96438578D01*
X203045073Y-96213504D01*
X203045073Y-96213503D01*
X203000466Y-96184836D01*
X202966931Y-96174989D01*
X202923826Y-96148995D01*
X202899075Y-96105166D01*
X202899076Y-96054830D01*
X202923828Y-96011001D01*
X202966932Y-95985009D01*
X203000464Y-95975163D01*
X203045073Y-95946495D01*
X203594924Y-95946495D01*
X203639532Y-95975163D01*
X203673067Y-95985010D01*
X203716171Y-96011003D01*
X203740922Y-96054832D01*
X203740923Y-96105167D01*
X203716171Y-96148996D01*
X203673067Y-96174990D01*
X203639534Y-96184836D01*
X203594925Y-96213503D01*
X203820000Y-96438578D01*
X204045073Y-96213504D01*
X204045073Y-96213503D01*
X204000466Y-96184836D01*
X203966931Y-96174989D01*
X203923826Y-96148995D01*
X203899075Y-96105166D01*
X203899076Y-96054830D01*
X203923828Y-96011001D01*
X203966932Y-95985009D01*
X204000464Y-95975163D01*
X204045073Y-95946495D01*
X204594924Y-95946495D01*
X204639532Y-95975163D01*
X204673067Y-95985010D01*
X204716171Y-96011003D01*
X204740922Y-96054832D01*
X204740923Y-96105167D01*
X204716171Y-96148996D01*
X204673067Y-96174990D01*
X204639534Y-96184836D01*
X204594925Y-96213503D01*
X204820000Y-96438578D01*
X205045073Y-96213504D01*
X205045073Y-96213503D01*
X205000466Y-96184836D01*
X204966931Y-96174989D01*
X204923826Y-96148995D01*
X204899075Y-96105166D01*
X204899076Y-96054830D01*
X204923828Y-96011001D01*
X204966932Y-95985009D01*
X205000464Y-95975163D01*
X205045073Y-95946495D01*
X205594924Y-95946495D01*
X205639532Y-95975163D01*
X205673067Y-95985010D01*
X205716171Y-96011003D01*
X205740922Y-96054832D01*
X205740923Y-96105167D01*
X205716171Y-96148996D01*
X205673067Y-96174990D01*
X205639534Y-96184836D01*
X205594925Y-96213503D01*
X205820000Y-96438578D01*
X206045073Y-96213504D01*
X206045073Y-96213503D01*
X206000466Y-96184836D01*
X205966931Y-96174989D01*
X205923826Y-96148995D01*
X205899075Y-96105166D01*
X205899076Y-96054830D01*
X205923828Y-96011001D01*
X205966932Y-95985009D01*
X206000464Y-95975163D01*
X206045073Y-95946495D01*
X205819999Y-95721421D01*
X205594924Y-95946495D01*
X205045073Y-95946495D01*
X204819999Y-95721421D01*
X204594924Y-95946495D01*
X204045073Y-95946495D01*
X203819999Y-95721421D01*
X203594924Y-95946495D01*
X203045073Y-95946495D01*
X202819999Y-95721421D01*
X202594924Y-95946495D01*
X202045073Y-95946495D01*
X201819999Y-95721421D01*
X201594924Y-95946495D01*
X201045073Y-95946495D01*
X200819999Y-95721421D01*
X200594924Y-95946495D01*
X196050000Y-95946495D01*
X196050000Y-95580000D01*
X200385577Y-95580000D01*
X200403174Y-95702391D01*
X200451145Y-95807431D01*
X200451146Y-95807432D01*
X200678578Y-95580000D01*
X200961421Y-95580000D01*
X201188852Y-95807432D01*
X201188853Y-95807432D01*
X201229947Y-95717452D01*
X201266477Y-95675294D01*
X201320000Y-95659579D01*
X201373524Y-95675295D01*
X201410053Y-95717453D01*
X201451145Y-95807431D01*
X201451146Y-95807432D01*
X201678578Y-95580000D01*
X201961421Y-95580000D01*
X202188852Y-95807432D01*
X202188853Y-95807432D01*
X202229947Y-95717452D01*
X202266477Y-95675294D01*
X202320000Y-95659579D01*
X202373524Y-95675295D01*
X202410053Y-95717453D01*
X202451145Y-95807431D01*
X202451146Y-95807432D01*
X202678578Y-95580000D01*
X202678577Y-95579999D01*
X202961420Y-95579999D01*
X203188852Y-95807432D01*
X203188853Y-95807432D01*
X203229947Y-95717452D01*
X203266477Y-95675294D01*
X203320000Y-95659579D01*
X203373524Y-95675295D01*
X203410053Y-95717453D01*
X203451145Y-95807431D01*
X203451146Y-95807432D01*
X203678578Y-95580000D01*
X203678577Y-95579999D01*
X203961420Y-95579999D01*
X204188852Y-95807432D01*
X204188853Y-95807432D01*
X204229947Y-95717452D01*
X204266477Y-95675294D01*
X204320000Y-95659579D01*
X204373524Y-95675295D01*
X204410053Y-95717453D01*
X204451145Y-95807431D01*
X204451146Y-95807432D01*
X204678578Y-95580000D01*
X204961421Y-95580000D01*
X205188852Y-95807432D01*
X205188853Y-95807432D01*
X205229947Y-95717452D01*
X205266477Y-95675294D01*
X205320000Y-95659579D01*
X205373524Y-95675295D01*
X205410053Y-95717453D01*
X205451145Y-95807431D01*
X205451146Y-95807432D01*
X205678578Y-95580000D01*
X205961421Y-95580000D01*
X206188852Y-95807432D01*
X206188853Y-95807432D01*
X206236825Y-95702390D01*
X206254422Y-95579999D01*
X206236825Y-95457609D01*
X206188852Y-95352566D01*
X205961421Y-95580000D01*
X205678578Y-95580000D01*
X205451145Y-95352567D01*
X205410053Y-95442546D01*
X205373524Y-95484704D01*
X205320000Y-95500420D01*
X205266477Y-95484705D01*
X205229947Y-95442547D01*
X205188852Y-95352566D01*
X204961421Y-95580000D01*
X204678578Y-95580000D01*
X204451145Y-95352567D01*
X204410053Y-95442546D01*
X204373524Y-95484704D01*
X204320000Y-95500420D01*
X204266477Y-95484705D01*
X204229947Y-95442547D01*
X204188852Y-95352566D01*
X203961420Y-95579999D01*
X203678577Y-95579999D01*
X203451145Y-95352567D01*
X203410053Y-95442546D01*
X203373524Y-95484704D01*
X203320000Y-95500420D01*
X203266477Y-95484705D01*
X203229947Y-95442547D01*
X203188852Y-95352566D01*
X202961420Y-95579999D01*
X202678577Y-95579999D01*
X202451145Y-95352567D01*
X202410053Y-95442546D01*
X202373524Y-95484704D01*
X202320000Y-95500420D01*
X202266477Y-95484705D01*
X202229947Y-95442547D01*
X202188852Y-95352566D01*
X201961421Y-95580000D01*
X201678578Y-95580000D01*
X201451145Y-95352567D01*
X201410053Y-95442546D01*
X201373524Y-95484704D01*
X201320000Y-95500420D01*
X201266477Y-95484705D01*
X201229947Y-95442547D01*
X201188852Y-95352566D01*
X200961421Y-95580000D01*
X200678578Y-95580000D01*
X200451145Y-95352567D01*
X200403173Y-95457611D01*
X200385577Y-95580000D01*
X196050000Y-95580000D01*
X196050000Y-95213503D01*
X200594925Y-95213503D01*
X200820000Y-95438578D01*
X201045073Y-95213504D01*
X201045073Y-95213503D01*
X201000466Y-95184836D01*
X200881825Y-95150000D01*
X200758176Y-95150000D01*
X200639534Y-95184836D01*
X200594925Y-95213503D01*
X196050000Y-95213503D01*
X196050000Y-94946495D01*
X201594924Y-94946495D01*
X201639532Y-94975163D01*
X201673067Y-94985010D01*
X201716171Y-95011003D01*
X201740922Y-95054832D01*
X201740923Y-95105167D01*
X201716171Y-95148996D01*
X201673067Y-95174990D01*
X201639534Y-95184836D01*
X201594925Y-95213503D01*
X201820000Y-95438578D01*
X202045073Y-95213504D01*
X202045073Y-95213503D01*
X202000466Y-95184836D01*
X201966931Y-95174989D01*
X201923826Y-95148995D01*
X201899075Y-95105166D01*
X201899076Y-95054830D01*
X201923828Y-95011001D01*
X201966932Y-94985009D01*
X202000464Y-94975163D01*
X202045073Y-94946495D01*
X202594924Y-94946495D01*
X202639532Y-94975163D01*
X202673067Y-94985010D01*
X202716171Y-95011003D01*
X202740922Y-95054832D01*
X202740923Y-95105167D01*
X202716171Y-95148996D01*
X202673067Y-95174990D01*
X202639534Y-95184836D01*
X202594925Y-95213503D01*
X202820000Y-95438578D01*
X203045073Y-95213504D01*
X203045073Y-95213503D01*
X203000466Y-95184836D01*
X202966931Y-95174989D01*
X202923826Y-95148995D01*
X202899075Y-95105166D01*
X202899076Y-95054830D01*
X202923828Y-95011001D01*
X202966932Y-94985009D01*
X203000464Y-94975163D01*
X203045073Y-94946495D01*
X203594924Y-94946495D01*
X203639532Y-94975163D01*
X203673067Y-94985010D01*
X203716171Y-95011003D01*
X203740922Y-95054832D01*
X203740923Y-95105167D01*
X203716171Y-95148996D01*
X203673067Y-95174990D01*
X203639534Y-95184836D01*
X203594925Y-95213503D01*
X203820000Y-95438578D01*
X204045073Y-95213504D01*
X204045073Y-95213503D01*
X204000466Y-95184836D01*
X203966931Y-95174989D01*
X203923826Y-95148995D01*
X203899075Y-95105166D01*
X203899076Y-95054830D01*
X203923828Y-95011001D01*
X203966932Y-94985009D01*
X204000464Y-94975163D01*
X204045073Y-94946495D01*
X204594924Y-94946495D01*
X204639532Y-94975163D01*
X204673067Y-94985010D01*
X204716171Y-95011003D01*
X204740922Y-95054832D01*
X204740923Y-95105167D01*
X204716171Y-95148996D01*
X204673067Y-95174990D01*
X204639534Y-95184836D01*
X204594925Y-95213503D01*
X204820000Y-95438578D01*
X205045073Y-95213504D01*
X205045073Y-95213503D01*
X205594925Y-95213503D01*
X205820000Y-95438578D01*
X206045073Y-95213504D01*
X206045073Y-95213503D01*
X206000466Y-95184836D01*
X205881825Y-95150000D01*
X205758176Y-95150000D01*
X205639534Y-95184836D01*
X205594925Y-95213503D01*
X205045073Y-95213503D01*
X205000466Y-95184836D01*
X204966931Y-95174989D01*
X204923826Y-95148995D01*
X204899075Y-95105166D01*
X204899076Y-95054830D01*
X204923828Y-95011001D01*
X204966932Y-94985009D01*
X205000464Y-94975163D01*
X205045073Y-94946495D01*
X204819999Y-94721421D01*
X204594924Y-94946495D01*
X204045073Y-94946495D01*
X203819999Y-94721421D01*
X203594924Y-94946495D01*
X203045073Y-94946495D01*
X202819999Y-94721421D01*
X202594924Y-94946495D01*
X202045073Y-94946495D01*
X201819999Y-94721421D01*
X201594924Y-94946495D01*
X196050000Y-94946495D01*
X196050000Y-93109999D01*
X197854318Y-93109999D01*
X197874955Y-93266761D01*
X197935464Y-93412841D01*
X198031717Y-93538282D01*
X198086086Y-93580000D01*
X198157159Y-93634536D01*
X198303238Y-93695044D01*
X198460000Y-93715682D01*
X198540044Y-93705143D01*
X198584785Y-93709550D01*
X198622967Y-93733293D01*
X198686736Y-93797063D01*
X198692560Y-93803418D01*
X198717545Y-93833194D01*
X198717547Y-93833195D01*
X198751203Y-93852627D01*
X198758473Y-93857257D01*
X198790316Y-93879554D01*
X198791761Y-93879941D01*
X198791768Y-93879943D01*
X198815650Y-93889834D01*
X198816955Y-93890588D01*
X198816956Y-93890588D01*
X198816958Y-93890589D01*
X198842029Y-93895008D01*
X198855228Y-93897336D01*
X198863638Y-93899199D01*
X198901193Y-93909263D01*
X198901193Y-93909262D01*
X198901194Y-93909263D01*
X198923978Y-93907269D01*
X198939897Y-93905876D01*
X198948525Y-93905500D01*
X200395500Y-93905500D01*
X200445000Y-93918763D01*
X200481237Y-93955000D01*
X200494500Y-94004500D01*
X200494500Y-94514070D01*
X200492996Y-94531261D01*
X200484402Y-94579999D01*
X200504640Y-94694782D01*
X200562916Y-94795718D01*
X200652200Y-94870636D01*
X200761723Y-94910500D01*
X200761724Y-94910500D01*
X200878276Y-94910500D01*
X200878277Y-94910500D01*
X200987799Y-94870636D01*
X201077083Y-94795718D01*
X201135359Y-94694782D01*
X201141566Y-94659579D01*
X201155598Y-94580000D01*
X201155598Y-94579999D01*
X201385577Y-94579999D01*
X201403174Y-94702391D01*
X201451145Y-94807431D01*
X201451146Y-94807432D01*
X201678578Y-94580000D01*
X201961421Y-94580000D01*
X202188852Y-94807432D01*
X202188853Y-94807432D01*
X202229947Y-94717452D01*
X202266477Y-94675294D01*
X202320000Y-94659579D01*
X202373524Y-94675295D01*
X202410053Y-94717453D01*
X202451145Y-94807431D01*
X202451146Y-94807432D01*
X202678578Y-94580000D01*
X202961421Y-94580000D01*
X203188852Y-94807432D01*
X203188853Y-94807432D01*
X203229947Y-94717452D01*
X203266477Y-94675294D01*
X203320000Y-94659579D01*
X203373524Y-94675295D01*
X203410053Y-94717453D01*
X203451145Y-94807431D01*
X203451146Y-94807432D01*
X203678578Y-94580000D01*
X203961421Y-94580000D01*
X204188852Y-94807432D01*
X204188853Y-94807432D01*
X204229947Y-94717452D01*
X204266477Y-94675294D01*
X204320000Y-94659579D01*
X204373524Y-94675295D01*
X204410053Y-94717453D01*
X204451145Y-94807431D01*
X204451146Y-94807432D01*
X204678578Y-94580000D01*
X204961421Y-94580000D01*
X205188852Y-94807432D01*
X205188853Y-94807432D01*
X205236825Y-94702390D01*
X205254422Y-94580000D01*
X205484402Y-94580000D01*
X205504640Y-94694782D01*
X205562916Y-94795718D01*
X205652200Y-94870636D01*
X205761723Y-94910500D01*
X205761724Y-94910500D01*
X205878276Y-94910500D01*
X205878277Y-94910500D01*
X205987799Y-94870636D01*
X206077083Y-94795718D01*
X206135359Y-94694782D01*
X206141566Y-94659579D01*
X206155598Y-94580000D01*
X206135359Y-94465219D01*
X206135359Y-94465217D01*
X206077083Y-94364281D01*
X205987799Y-94289363D01*
X205878277Y-94249500D01*
X205878276Y-94249500D01*
X205761724Y-94249500D01*
X205761723Y-94249500D01*
X205652200Y-94289363D01*
X205562916Y-94364281D01*
X205504640Y-94465217D01*
X205484402Y-94580000D01*
X205254422Y-94580000D01*
X205254422Y-94579999D01*
X205236825Y-94457609D01*
X205188852Y-94352566D01*
X204961421Y-94580000D01*
X204678578Y-94580000D01*
X204451145Y-94352567D01*
X204410053Y-94442546D01*
X204373524Y-94484704D01*
X204320000Y-94500420D01*
X204266477Y-94484705D01*
X204229947Y-94442547D01*
X204188852Y-94352566D01*
X203961421Y-94580000D01*
X203678578Y-94580000D01*
X203451145Y-94352567D01*
X203410053Y-94442546D01*
X203373524Y-94484704D01*
X203320000Y-94500420D01*
X203266477Y-94484705D01*
X203229947Y-94442547D01*
X203188852Y-94352566D01*
X202961421Y-94580000D01*
X202678578Y-94580000D01*
X202451145Y-94352567D01*
X202410053Y-94442546D01*
X202373524Y-94484704D01*
X202320000Y-94500420D01*
X202266477Y-94484705D01*
X202229947Y-94442547D01*
X202188852Y-94352566D01*
X201961421Y-94580000D01*
X201678578Y-94580000D01*
X201451145Y-94352567D01*
X201403173Y-94457611D01*
X201385577Y-94579999D01*
X201155598Y-94579999D01*
X201147003Y-94531260D01*
X201145500Y-94514070D01*
X201145500Y-93946495D01*
X201594924Y-93946495D01*
X201639532Y-93975163D01*
X201673067Y-93985010D01*
X201716171Y-94011003D01*
X201740922Y-94054832D01*
X201740923Y-94105167D01*
X201716171Y-94148996D01*
X201673067Y-94174990D01*
X201639534Y-94184836D01*
X201594925Y-94213503D01*
X201820000Y-94438578D01*
X202045073Y-94213504D01*
X202045073Y-94213503D01*
X202000466Y-94184836D01*
X201966931Y-94174989D01*
X201923826Y-94148995D01*
X201899075Y-94105166D01*
X201899076Y-94054830D01*
X201923828Y-94011001D01*
X201966932Y-93985009D01*
X202000464Y-93975163D01*
X202045073Y-93946495D01*
X202594924Y-93946495D01*
X202639532Y-93975163D01*
X202673067Y-93985010D01*
X202716171Y-94011003D01*
X202740922Y-94054832D01*
X202740923Y-94105167D01*
X202716171Y-94148996D01*
X202673067Y-94174990D01*
X202639534Y-94184836D01*
X202594925Y-94213503D01*
X202820000Y-94438578D01*
X203045073Y-94213504D01*
X203045073Y-94213503D01*
X203000466Y-94184836D01*
X202966931Y-94174989D01*
X202923826Y-94148995D01*
X202899075Y-94105166D01*
X202899076Y-94054830D01*
X202923828Y-94011001D01*
X202966932Y-93985009D01*
X203000464Y-93975163D01*
X203045073Y-93946495D01*
X203594924Y-93946495D01*
X203639532Y-93975163D01*
X203673067Y-93985010D01*
X203716171Y-94011003D01*
X203740922Y-94054832D01*
X203740923Y-94105167D01*
X203716171Y-94148996D01*
X203673067Y-94174990D01*
X203639534Y-94184836D01*
X203594925Y-94213503D01*
X203820000Y-94438578D01*
X204045073Y-94213504D01*
X204045073Y-94213503D01*
X204000466Y-94184836D01*
X203966931Y-94174989D01*
X203923826Y-94148995D01*
X203899075Y-94105166D01*
X203899076Y-94054830D01*
X203923828Y-94011001D01*
X203966932Y-93985009D01*
X204000464Y-93975163D01*
X204045073Y-93946495D01*
X204594924Y-93946495D01*
X204639532Y-93975163D01*
X204673067Y-93985010D01*
X204716171Y-94011003D01*
X204740922Y-94054832D01*
X204740923Y-94105167D01*
X204716171Y-94148996D01*
X204673067Y-94174990D01*
X204639534Y-94184836D01*
X204594925Y-94213503D01*
X204820000Y-94438578D01*
X205045073Y-94213504D01*
X205045073Y-94213503D01*
X205000466Y-94184836D01*
X204966931Y-94174989D01*
X204923826Y-94148995D01*
X204899075Y-94105166D01*
X204899076Y-94054830D01*
X204923828Y-94011001D01*
X204966932Y-93985009D01*
X205000464Y-93975163D01*
X205045073Y-93946495D01*
X204819999Y-93721421D01*
X204594924Y-93946495D01*
X204045073Y-93946495D01*
X203819999Y-93721421D01*
X203594924Y-93946495D01*
X203045073Y-93946495D01*
X202819999Y-93721421D01*
X202594924Y-93946495D01*
X202045073Y-93946495D01*
X201819999Y-93721421D01*
X201594924Y-93946495D01*
X201145500Y-93946495D01*
X201145500Y-93645930D01*
X201147004Y-93628739D01*
X201155598Y-93580000D01*
X201155598Y-93579999D01*
X201385577Y-93579999D01*
X201403174Y-93702391D01*
X201451145Y-93807431D01*
X201451146Y-93807432D01*
X201678578Y-93580000D01*
X201961421Y-93580000D01*
X202188852Y-93807432D01*
X202188853Y-93807432D01*
X202229947Y-93717452D01*
X202266477Y-93675294D01*
X202320000Y-93659579D01*
X202373524Y-93675295D01*
X202410053Y-93717453D01*
X202451145Y-93807431D01*
X202451146Y-93807432D01*
X202678578Y-93580000D01*
X202961421Y-93580000D01*
X203188852Y-93807432D01*
X203188853Y-93807432D01*
X203229947Y-93717452D01*
X203266477Y-93675294D01*
X203320000Y-93659579D01*
X203373524Y-93675295D01*
X203410053Y-93717453D01*
X203451145Y-93807431D01*
X203451146Y-93807432D01*
X203678578Y-93580000D01*
X203961421Y-93580000D01*
X204188852Y-93807432D01*
X204188853Y-93807432D01*
X204229947Y-93717452D01*
X204266477Y-93675294D01*
X204320000Y-93659579D01*
X204373524Y-93675295D01*
X204410053Y-93717453D01*
X204451145Y-93807431D01*
X204451146Y-93807432D01*
X204678578Y-93580000D01*
X204961421Y-93580000D01*
X205188852Y-93807432D01*
X205188853Y-93807432D01*
X205236825Y-93702390D01*
X205254422Y-93580000D01*
X205484402Y-93580000D01*
X205504640Y-93694782D01*
X205562916Y-93795718D01*
X205652200Y-93870636D01*
X205761723Y-93910500D01*
X205761724Y-93910500D01*
X205878276Y-93910500D01*
X205878277Y-93910500D01*
X205987799Y-93870636D01*
X206077083Y-93795718D01*
X206135359Y-93694782D01*
X206141566Y-93659579D01*
X206155598Y-93580000D01*
X206138795Y-93484704D01*
X206135359Y-93465217D01*
X206077083Y-93364281D01*
X205987799Y-93289363D01*
X205878277Y-93249500D01*
X205878276Y-93249500D01*
X205761724Y-93249500D01*
X205761723Y-93249500D01*
X205652200Y-93289363D01*
X205562916Y-93364281D01*
X205504640Y-93465217D01*
X205484402Y-93580000D01*
X205254422Y-93580000D01*
X205254422Y-93579999D01*
X205236825Y-93457609D01*
X205188852Y-93352566D01*
X204961421Y-93580000D01*
X204678578Y-93580000D01*
X204451145Y-93352567D01*
X204410053Y-93442546D01*
X204373524Y-93484704D01*
X204320000Y-93500420D01*
X204266477Y-93484705D01*
X204229947Y-93442547D01*
X204188852Y-93352566D01*
X203961421Y-93580000D01*
X203678578Y-93580000D01*
X203451145Y-93352567D01*
X203410053Y-93442546D01*
X203373524Y-93484704D01*
X203320000Y-93500420D01*
X203266477Y-93484705D01*
X203229947Y-93442547D01*
X203188852Y-93352566D01*
X202961421Y-93580000D01*
X202678578Y-93580000D01*
X202451145Y-93352567D01*
X202410053Y-93442546D01*
X202373524Y-93484704D01*
X202320000Y-93500420D01*
X202266477Y-93484705D01*
X202229947Y-93442547D01*
X202188852Y-93352566D01*
X201961421Y-93580000D01*
X201678578Y-93580000D01*
X201451145Y-93352567D01*
X201403173Y-93457611D01*
X201385577Y-93579999D01*
X201155598Y-93579999D01*
X201147003Y-93531260D01*
X201146233Y-93522456D01*
X201143949Y-93513936D01*
X201135359Y-93465220D01*
X201135359Y-93465219D01*
X201110717Y-93422539D01*
X201106954Y-93414421D01*
X201101760Y-93407024D01*
X201077083Y-93364281D01*
X201039261Y-93332545D01*
X201033150Y-93326420D01*
X201025837Y-93321281D01*
X200987799Y-93289363D01*
X200941224Y-93272411D01*
X200933407Y-93268772D01*
X200924966Y-93266493D01*
X200878276Y-93249500D01*
X200761724Y-93249500D01*
X200758885Y-93249500D01*
X200730530Y-93254500D01*
X199159546Y-93254500D01*
X199106353Y-93238996D01*
X199069822Y-93197339D01*
X199061393Y-93142578D01*
X199062113Y-93137101D01*
X199065682Y-93110000D01*
X199045044Y-92953238D01*
X199042251Y-92946495D01*
X200594924Y-92946495D01*
X200639533Y-92975163D01*
X200758175Y-93010000D01*
X200881824Y-93010000D01*
X201000464Y-92975163D01*
X201045073Y-92946495D01*
X201594924Y-92946495D01*
X201639532Y-92975163D01*
X201673067Y-92985010D01*
X201716171Y-93011003D01*
X201740922Y-93054832D01*
X201740923Y-93105167D01*
X201716171Y-93148996D01*
X201673067Y-93174990D01*
X201639534Y-93184836D01*
X201594925Y-93213503D01*
X201820000Y-93438578D01*
X202045073Y-93213504D01*
X202045073Y-93213503D01*
X202000466Y-93184836D01*
X201966931Y-93174989D01*
X201923826Y-93148995D01*
X201899075Y-93105166D01*
X201899076Y-93054830D01*
X201923828Y-93011001D01*
X201966932Y-92985009D01*
X202000464Y-92975163D01*
X202045073Y-92946495D01*
X202594924Y-92946495D01*
X202639532Y-92975163D01*
X202673067Y-92985010D01*
X202716171Y-93011003D01*
X202740922Y-93054832D01*
X202740923Y-93105167D01*
X202716171Y-93148996D01*
X202673067Y-93174990D01*
X202639534Y-93184836D01*
X202594925Y-93213503D01*
X202820000Y-93438578D01*
X203045073Y-93213504D01*
X203045073Y-93213503D01*
X203000466Y-93184836D01*
X202966931Y-93174989D01*
X202923826Y-93148995D01*
X202899075Y-93105166D01*
X202899076Y-93054830D01*
X202923828Y-93011001D01*
X202966932Y-92985009D01*
X203000464Y-92975163D01*
X203045073Y-92946495D01*
X203594924Y-92946495D01*
X203639532Y-92975163D01*
X203673067Y-92985010D01*
X203716171Y-93011003D01*
X203740922Y-93054832D01*
X203740923Y-93105167D01*
X203716171Y-93148996D01*
X203673067Y-93174990D01*
X203639534Y-93184836D01*
X203594925Y-93213503D01*
X203820000Y-93438578D01*
X204045073Y-93213504D01*
X204045073Y-93213503D01*
X204000466Y-93184836D01*
X203966931Y-93174989D01*
X203923826Y-93148995D01*
X203899075Y-93105166D01*
X203899076Y-93054830D01*
X203923828Y-93011001D01*
X203966932Y-92985009D01*
X204000464Y-92975163D01*
X204045073Y-92946495D01*
X204594924Y-92946495D01*
X204639532Y-92975163D01*
X204673067Y-92985010D01*
X204716171Y-93011003D01*
X204740922Y-93054832D01*
X204740923Y-93105167D01*
X204716171Y-93148996D01*
X204673067Y-93174990D01*
X204639534Y-93184836D01*
X204594925Y-93213503D01*
X204820000Y-93438578D01*
X205045073Y-93213504D01*
X205045073Y-93213503D01*
X205000466Y-93184836D01*
X204966931Y-93174989D01*
X204923826Y-93148995D01*
X204899075Y-93105166D01*
X204899076Y-93054830D01*
X204923828Y-93011001D01*
X204966932Y-92985009D01*
X205000464Y-92975163D01*
X205045073Y-92946495D01*
X205594924Y-92946495D01*
X205639533Y-92975163D01*
X205758175Y-93010000D01*
X205881824Y-93010000D01*
X206000464Y-92975163D01*
X206045073Y-92946495D01*
X205819999Y-92721421D01*
X205594924Y-92946495D01*
X205045073Y-92946495D01*
X204819999Y-92721421D01*
X204594924Y-92946495D01*
X204045073Y-92946495D01*
X203819999Y-92721421D01*
X203594924Y-92946495D01*
X203045073Y-92946495D01*
X202819999Y-92721421D01*
X202594924Y-92946495D01*
X202045073Y-92946495D01*
X201819999Y-92721421D01*
X201594924Y-92946495D01*
X201045073Y-92946495D01*
X200819999Y-92721421D01*
X200594924Y-92946495D01*
X199042251Y-92946495D01*
X198984536Y-92807159D01*
X198962139Y-92777971D01*
X198888282Y-92681717D01*
X198762841Y-92585464D01*
X198749647Y-92579999D01*
X200385577Y-92579999D01*
X200403174Y-92702391D01*
X200451145Y-92807431D01*
X200451146Y-92807432D01*
X200678578Y-92580000D01*
X200961421Y-92580000D01*
X201188852Y-92807432D01*
X201188853Y-92807432D01*
X201229947Y-92717452D01*
X201266477Y-92675294D01*
X201320000Y-92659579D01*
X201373524Y-92675295D01*
X201410053Y-92717453D01*
X201451145Y-92807431D01*
X201451146Y-92807432D01*
X201678578Y-92580000D01*
X201961421Y-92580000D01*
X202188852Y-92807432D01*
X202188853Y-92807432D01*
X202229947Y-92717452D01*
X202266477Y-92675294D01*
X202320000Y-92659579D01*
X202373524Y-92675295D01*
X202410053Y-92717453D01*
X202451145Y-92807431D01*
X202451146Y-92807432D01*
X202678578Y-92580000D01*
X202961421Y-92580000D01*
X203188852Y-92807432D01*
X203188853Y-92807432D01*
X203229947Y-92717452D01*
X203266477Y-92675294D01*
X203320000Y-92659579D01*
X203373524Y-92675295D01*
X203410053Y-92717453D01*
X203451145Y-92807431D01*
X203451146Y-92807432D01*
X203678578Y-92580000D01*
X203678577Y-92579999D01*
X203961420Y-92579999D01*
X204188852Y-92807432D01*
X204188853Y-92807432D01*
X204229947Y-92717452D01*
X204266477Y-92675294D01*
X204320000Y-92659579D01*
X204373524Y-92675295D01*
X204410053Y-92717453D01*
X204451145Y-92807431D01*
X204451146Y-92807432D01*
X204678578Y-92580000D01*
X204678577Y-92579999D01*
X204961420Y-92579999D01*
X205188852Y-92807432D01*
X205188853Y-92807432D01*
X205229947Y-92717452D01*
X205266477Y-92675294D01*
X205320000Y-92659579D01*
X205373524Y-92675295D01*
X205410053Y-92717453D01*
X205451145Y-92807431D01*
X205451146Y-92807432D01*
X205678578Y-92580000D01*
X205961421Y-92580000D01*
X206188852Y-92807432D01*
X206188853Y-92807432D01*
X206236825Y-92702390D01*
X206254422Y-92579999D01*
X206236825Y-92457609D01*
X206188852Y-92352566D01*
X205961421Y-92580000D01*
X205678578Y-92580000D01*
X205451145Y-92352567D01*
X205410053Y-92442546D01*
X205373524Y-92484704D01*
X205320000Y-92500420D01*
X205266477Y-92484705D01*
X205229947Y-92442547D01*
X205188852Y-92352566D01*
X204961420Y-92579999D01*
X204678577Y-92579999D01*
X204451145Y-92352567D01*
X204410053Y-92442546D01*
X204373524Y-92484704D01*
X204320000Y-92500420D01*
X204266477Y-92484705D01*
X204229947Y-92442547D01*
X204188852Y-92352566D01*
X203961420Y-92579999D01*
X203678577Y-92579999D01*
X203451145Y-92352567D01*
X203410053Y-92442546D01*
X203373524Y-92484704D01*
X203320000Y-92500420D01*
X203266477Y-92484705D01*
X203229947Y-92442547D01*
X203188852Y-92352566D01*
X202961421Y-92580000D01*
X202678578Y-92580000D01*
X202451145Y-92352567D01*
X202410053Y-92442546D01*
X202373524Y-92484704D01*
X202320000Y-92500420D01*
X202266477Y-92484705D01*
X202229947Y-92442547D01*
X202188852Y-92352566D01*
X201961421Y-92580000D01*
X201678578Y-92580000D01*
X201451145Y-92352567D01*
X201410053Y-92442546D01*
X201373524Y-92484704D01*
X201320000Y-92500420D01*
X201266477Y-92484705D01*
X201229947Y-92442547D01*
X201188852Y-92352566D01*
X200961421Y-92580000D01*
X200678578Y-92580000D01*
X200451145Y-92352567D01*
X200403173Y-92457611D01*
X200385577Y-92579999D01*
X198749647Y-92579999D01*
X198616761Y-92524955D01*
X198460000Y-92504318D01*
X198303238Y-92524955D01*
X198157158Y-92585464D01*
X198031717Y-92681717D01*
X197935464Y-92807158D01*
X197874955Y-92953238D01*
X197854318Y-93109999D01*
X196050000Y-93109999D01*
X196050000Y-91946495D01*
X200594924Y-91946495D01*
X200639532Y-91975163D01*
X200673067Y-91985010D01*
X200716171Y-92011003D01*
X200740922Y-92054832D01*
X200740923Y-92105167D01*
X200716171Y-92148996D01*
X200673067Y-92174990D01*
X200639534Y-92184836D01*
X200594925Y-92213503D01*
X200820000Y-92438578D01*
X201045073Y-92213504D01*
X201045073Y-92213503D01*
X201000466Y-92184836D01*
X200966931Y-92174989D01*
X200923826Y-92148995D01*
X200899075Y-92105166D01*
X200899076Y-92054830D01*
X200923828Y-92011001D01*
X200966932Y-91985009D01*
X201000464Y-91975163D01*
X201045073Y-91946495D01*
X201594924Y-91946495D01*
X201639532Y-91975163D01*
X201673067Y-91985010D01*
X201716171Y-92011003D01*
X201740922Y-92054832D01*
X201740923Y-92105167D01*
X201716171Y-92148996D01*
X201673067Y-92174990D01*
X201639534Y-92184836D01*
X201594925Y-92213503D01*
X201820000Y-92438578D01*
X202045073Y-92213504D01*
X202045073Y-92213503D01*
X202000466Y-92184836D01*
X201966931Y-92174989D01*
X201923826Y-92148995D01*
X201899075Y-92105166D01*
X201899076Y-92054830D01*
X201923828Y-92011001D01*
X201966932Y-91985009D01*
X202000464Y-91975163D01*
X202045073Y-91946495D01*
X202594924Y-91946495D01*
X202639532Y-91975163D01*
X202673067Y-91985010D01*
X202716171Y-92011003D01*
X202740922Y-92054832D01*
X202740923Y-92105167D01*
X202716171Y-92148996D01*
X202673067Y-92174990D01*
X202639534Y-92184836D01*
X202594925Y-92213503D01*
X202820000Y-92438578D01*
X203045073Y-92213504D01*
X203045073Y-92213503D01*
X203000466Y-92184836D01*
X202966931Y-92174989D01*
X202923826Y-92148995D01*
X202899075Y-92105166D01*
X202899076Y-92054830D01*
X202923828Y-92011001D01*
X202966932Y-91985009D01*
X203000464Y-91975163D01*
X203045073Y-91946495D01*
X203594924Y-91946495D01*
X203639532Y-91975163D01*
X203673067Y-91985010D01*
X203716171Y-92011003D01*
X203740922Y-92054832D01*
X203740923Y-92105167D01*
X203716171Y-92148996D01*
X203673067Y-92174990D01*
X203639534Y-92184836D01*
X203594925Y-92213503D01*
X203820000Y-92438578D01*
X204045073Y-92213504D01*
X204045073Y-92213503D01*
X204000466Y-92184836D01*
X203966931Y-92174989D01*
X203923826Y-92148995D01*
X203899075Y-92105166D01*
X203899076Y-92054830D01*
X203923828Y-92011001D01*
X203966932Y-91985009D01*
X204000464Y-91975163D01*
X204045073Y-91946495D01*
X204594924Y-91946495D01*
X204639532Y-91975163D01*
X204673067Y-91985010D01*
X204716171Y-92011003D01*
X204740922Y-92054832D01*
X204740923Y-92105167D01*
X204716171Y-92148996D01*
X204673067Y-92174990D01*
X204639534Y-92184836D01*
X204594925Y-92213503D01*
X204820000Y-92438578D01*
X205045073Y-92213504D01*
X205045073Y-92213503D01*
X205594925Y-92213503D01*
X205820000Y-92438578D01*
X206045073Y-92213504D01*
X206045073Y-92213503D01*
X206000466Y-92184836D01*
X205881825Y-92150000D01*
X205758176Y-92150000D01*
X205639534Y-92184836D01*
X205594925Y-92213503D01*
X205045073Y-92213503D01*
X205000466Y-92184836D01*
X204966931Y-92174989D01*
X204923826Y-92148995D01*
X204899075Y-92105166D01*
X204899076Y-92054830D01*
X204923828Y-92011001D01*
X204966932Y-91985009D01*
X205000464Y-91975163D01*
X205045073Y-91946495D01*
X204819999Y-91721421D01*
X204594924Y-91946495D01*
X204045073Y-91946495D01*
X203819999Y-91721421D01*
X203594924Y-91946495D01*
X203045073Y-91946495D01*
X202819999Y-91721421D01*
X202594924Y-91946495D01*
X202045073Y-91946495D01*
X201819999Y-91721421D01*
X201594924Y-91946495D01*
X201045073Y-91946495D01*
X200819999Y-91721421D01*
X200594924Y-91946495D01*
X196050000Y-91946495D01*
X196050000Y-91579999D01*
X200385577Y-91579999D01*
X200403174Y-91702391D01*
X200451145Y-91807431D01*
X200451146Y-91807432D01*
X200678578Y-91580000D01*
X200961421Y-91580000D01*
X201188852Y-91807432D01*
X201188853Y-91807432D01*
X201229947Y-91717452D01*
X201266477Y-91675294D01*
X201320000Y-91659579D01*
X201373524Y-91675295D01*
X201410053Y-91717453D01*
X201451145Y-91807431D01*
X201451146Y-91807432D01*
X201678578Y-91580000D01*
X201961421Y-91580000D01*
X202188852Y-91807432D01*
X202188853Y-91807432D01*
X202229947Y-91717452D01*
X202266477Y-91675294D01*
X202320000Y-91659579D01*
X202373524Y-91675295D01*
X202410053Y-91717453D01*
X202451145Y-91807431D01*
X202451146Y-91807432D01*
X202678578Y-91580000D01*
X202678577Y-91579999D01*
X202961420Y-91579999D01*
X203188852Y-91807432D01*
X203188853Y-91807432D01*
X203229947Y-91717452D01*
X203266477Y-91675294D01*
X203320000Y-91659579D01*
X203373524Y-91675295D01*
X203410053Y-91717453D01*
X203451145Y-91807431D01*
X203451146Y-91807432D01*
X203678578Y-91580000D01*
X203961421Y-91580000D01*
X204188852Y-91807432D01*
X204188853Y-91807432D01*
X204229947Y-91717452D01*
X204266477Y-91675294D01*
X204320000Y-91659579D01*
X204373524Y-91675295D01*
X204410053Y-91717453D01*
X204451145Y-91807431D01*
X204451146Y-91807432D01*
X204678578Y-91580000D01*
X204961421Y-91580000D01*
X205188852Y-91807432D01*
X205188853Y-91807432D01*
X205236825Y-91702390D01*
X205254422Y-91580000D01*
X205236825Y-91457609D01*
X205188852Y-91352566D01*
X204961421Y-91580000D01*
X204678578Y-91580000D01*
X204451145Y-91352567D01*
X204410053Y-91442546D01*
X204373524Y-91484704D01*
X204320000Y-91500420D01*
X204266477Y-91484705D01*
X204229947Y-91442547D01*
X204188852Y-91352566D01*
X203961421Y-91580000D01*
X203678578Y-91580000D01*
X203451145Y-91352567D01*
X203410053Y-91442546D01*
X203373524Y-91484704D01*
X203320000Y-91500420D01*
X203266477Y-91484705D01*
X203229947Y-91442547D01*
X203188852Y-91352566D01*
X202961420Y-91579999D01*
X202678577Y-91579999D01*
X202451145Y-91352567D01*
X202410053Y-91442546D01*
X202373524Y-91484704D01*
X202320000Y-91500420D01*
X202266477Y-91484705D01*
X202229947Y-91442547D01*
X202188852Y-91352566D01*
X201961421Y-91580000D01*
X201678578Y-91580000D01*
X201451145Y-91352567D01*
X201410053Y-91442546D01*
X201373524Y-91484704D01*
X201320000Y-91500420D01*
X201266477Y-91484705D01*
X201229947Y-91442547D01*
X201188852Y-91352566D01*
X200961421Y-91580000D01*
X200678578Y-91580000D01*
X200451145Y-91352567D01*
X200403173Y-91457611D01*
X200385577Y-91579999D01*
X196050000Y-91579999D01*
X196050000Y-91213503D01*
X200594925Y-91213503D01*
X200820000Y-91438578D01*
X201045073Y-91213504D01*
X201045073Y-91213503D01*
X201594925Y-91213503D01*
X201820000Y-91438578D01*
X202045073Y-91213504D01*
X202045073Y-91213503D01*
X202594925Y-91213503D01*
X202820000Y-91438578D01*
X203045073Y-91213504D01*
X203045073Y-91213503D01*
X203594925Y-91213503D01*
X203820000Y-91438578D01*
X204045073Y-91213504D01*
X204045073Y-91213503D01*
X204594925Y-91213503D01*
X204820000Y-91438578D01*
X205045073Y-91213504D01*
X205045073Y-91213503D01*
X205000466Y-91184836D01*
X204881825Y-91150000D01*
X204758176Y-91150000D01*
X204639534Y-91184836D01*
X204594925Y-91213503D01*
X204045073Y-91213503D01*
X204000466Y-91184836D01*
X203881825Y-91150000D01*
X203758176Y-91150000D01*
X203639534Y-91184836D01*
X203594925Y-91213503D01*
X203045073Y-91213503D01*
X203000466Y-91184836D01*
X202881825Y-91150000D01*
X202758176Y-91150000D01*
X202639534Y-91184836D01*
X202594925Y-91213503D01*
X202045073Y-91213503D01*
X202000466Y-91184836D01*
X201881825Y-91150000D01*
X201758176Y-91150000D01*
X201639534Y-91184836D01*
X201594925Y-91213503D01*
X201045073Y-91213503D01*
X201000466Y-91184836D01*
X200881825Y-91150000D01*
X200758176Y-91150000D01*
X200639534Y-91184836D01*
X200594925Y-91213503D01*
X196050000Y-91213503D01*
X196050000Y-87810000D01*
X210020000Y-87810000D01*
X210020000Y-99102010D01*
G37*
%TD.AperFunction*%
%TD*%
M02*
