%TF.GenerationSoftware,KiCad,Pcbnew,7.0.1-0*%
%TF.CreationDate,2023-03-22T23:36:25-07:00*%
%TF.ProjectId,Cosmic_Watch_Rev7_Nano_Revised,436f736d-6963-45f5-9761-7463685f5265,6.1*%
%TF.SameCoordinates,Original*%
%TF.FileFunction,Copper,L1,Top*%
%TF.FilePolarity,Positive*%
%FSLAX46Y46*%
G04 Gerber Fmt 4.6, Leading zero omitted, Abs format (unit mm)*
G04 Created by KiCad (PCBNEW 7.0.1-0) date 2023-03-22 23:36:25*
%MOMM*%
%LPD*%
G01*
G04 APERTURE LIST*
G04 Aperture macros list*
%AMRoundRect*
0 Rectangle with rounded corners*
0 $1 Rounding radius*
0 $2 $3 $4 $5 $6 $7 $8 $9 X,Y pos of 4 corners*
0 Add a 4 corners polygon primitive as box body*
4,1,4,$2,$3,$4,$5,$6,$7,$8,$9,$2,$3,0*
0 Add four circle primitives for the rounded corners*
1,1,$1+$1,$2,$3*
1,1,$1+$1,$4,$5*
1,1,$1+$1,$6,$7*
1,1,$1+$1,$8,$9*
0 Add four rect primitives between the rounded corners*
20,1,$1+$1,$2,$3,$4,$5,0*
20,1,$1+$1,$4,$5,$6,$7,0*
20,1,$1+$1,$6,$7,$8,$9,0*
20,1,$1+$1,$8,$9,$2,$3,0*%
G04 Aperture macros list end*
%TA.AperFunction,SMDPad,CuDef*%
%ADD10RoundRect,0.250000X0.337500X0.475000X-0.337500X0.475000X-0.337500X-0.475000X0.337500X-0.475000X0*%
%TD*%
%TA.AperFunction,SMDPad,CuDef*%
%ADD11RoundRect,0.250000X-0.475000X0.337500X-0.475000X-0.337500X0.475000X-0.337500X0.475000X0.337500X0*%
%TD*%
%TA.AperFunction,SMDPad,CuDef*%
%ADD12RoundRect,0.249999X-0.450001X0.350001X-0.450001X-0.350001X0.450001X-0.350001X0.450001X0.350001X0*%
%TD*%
%TA.AperFunction,SMDPad,CuDef*%
%ADD13RoundRect,0.250000X0.475000X-0.337500X0.475000X0.337500X-0.475000X0.337500X-0.475000X-0.337500X0*%
%TD*%
%TA.AperFunction,ComponentPad*%
%ADD14C,5.000000*%
%TD*%
%TA.AperFunction,SMDPad,CuDef*%
%ADD15RoundRect,0.200000X0.200000X0.275000X-0.200000X0.275000X-0.200000X-0.275000X0.200000X-0.275000X0*%
%TD*%
%TA.AperFunction,SMDPad,CuDef*%
%ADD16R,1.220000X0.650000*%
%TD*%
%TA.AperFunction,ComponentPad*%
%ADD17C,1.778000*%
%TD*%
%TA.AperFunction,SMDPad,CuDef*%
%ADD18RoundRect,0.150000X-0.350000X0.150000X-0.350000X-0.150000X0.350000X-0.150000X0.350000X0.150000X0*%
%TD*%
%TA.AperFunction,SMDPad,CuDef*%
%ADD19RoundRect,0.250000X-0.650000X0.375000X-0.650000X-0.375000X0.650000X-0.375000X0.650000X0.375000X0*%
%TD*%
%TA.AperFunction,ComponentPad*%
%ADD20C,3.000000*%
%TD*%
%TA.AperFunction,SMDPad,CuDef*%
%ADD21RoundRect,0.250000X-0.462500X-1.075000X0.462500X-1.075000X0.462500X1.075000X-0.462500X1.075000X0*%
%TD*%
%TA.AperFunction,SMDPad,CuDef*%
%ADD22RoundRect,0.249999X0.450001X-0.350001X0.450001X0.350001X-0.450001X0.350001X-0.450001X-0.350001X0*%
%TD*%
%TA.AperFunction,ComponentPad*%
%ADD23C,3.200000*%
%TD*%
%TA.AperFunction,ComponentPad*%
%ADD24R,4.000000X4.000000*%
%TD*%
%TA.AperFunction,SMDPad,CuDef*%
%ADD25RoundRect,0.200000X-0.275000X0.200000X-0.275000X-0.200000X0.275000X-0.200000X0.275000X0.200000X0*%
%TD*%
%TA.AperFunction,SMDPad,CuDef*%
%ADD26RoundRect,0.225000X-0.225000X-0.250000X0.225000X-0.250000X0.225000X0.250000X-0.225000X0.250000X0*%
%TD*%
%TA.AperFunction,SMDPad,CuDef*%
%ADD27RoundRect,0.249999X0.450001X-0.325001X0.450001X0.325001X-0.450001X0.325001X-0.450001X-0.325001X0*%
%TD*%
%TA.AperFunction,SMDPad,CuDef*%
%ADD28RoundRect,0.249999X0.350001X0.450001X-0.350001X0.450001X-0.350001X-0.450001X0.350001X-0.450001X0*%
%TD*%
%TA.AperFunction,SMDPad,CuDef*%
%ADD29RoundRect,0.200000X-0.200000X-0.275000X0.200000X-0.275000X0.200000X0.275000X-0.200000X0.275000X0*%
%TD*%
%TA.AperFunction,SMDPad,CuDef*%
%ADD30RoundRect,0.150000X0.825000X0.150000X-0.825000X0.150000X-0.825000X-0.150000X0.825000X-0.150000X0*%
%TD*%
%TA.AperFunction,SMDPad,CuDef*%
%ADD31R,0.900000X1.200000*%
%TD*%
%TA.AperFunction,SMDPad,CuDef*%
%ADD32R,0.250000X1.100000*%
%TD*%
%TA.AperFunction,ViaPad*%
%ADD33C,0.600000*%
%TD*%
%TA.AperFunction,ViaPad*%
%ADD34C,0.800000*%
%TD*%
%TA.AperFunction,Conductor*%
%ADD35C,0.200000*%
%TD*%
%TA.AperFunction,Conductor*%
%ADD36C,0.250000*%
%TD*%
%TA.AperFunction,Conductor*%
%ADD37C,0.254000*%
%TD*%
%TA.AperFunction,Conductor*%
%ADD38C,0.508000*%
%TD*%
G04 APERTURE END LIST*
D10*
%TO.P,C6,1*%
%TO.N,Net-(C14-Pad1)*%
X224855500Y-74264400D03*
%TO.P,C6,2*%
%TO.N,GND*%
X222780500Y-74264400D03*
%TD*%
D11*
%TO.P,C5,1*%
%TO.N,+5V*%
X210880000Y-58562500D03*
%TO.P,C5,2*%
%TO.N,GND*%
X210880000Y-60637500D03*
%TD*%
D12*
%TO.P,R20,1*%
%TO.N,Net-(C7-Pad2)*%
X232216000Y-83983800D03*
%TO.P,R20,2*%
%TO.N,GND*%
X232216000Y-85983800D03*
%TD*%
D13*
%TO.P,C7,1*%
%TO.N,Net-(C7-Pad1)*%
X205038000Y-68075000D03*
%TO.P,C7,2*%
%TO.N,Net-(C7-Pad2)*%
X205038000Y-66000000D03*
%TD*%
D14*
%TO.P,,1*%
%TO.N,GND*%
X175320000Y-122080000D03*
%TD*%
D15*
%TO.P,R10,1*%
%TO.N,Net-(R10-Pad1)*%
X165725000Y-81200000D03*
%TO.P,R10,2*%
%TO.N,GND*%
X164075000Y-81200000D03*
%TD*%
D16*
%TO.P,U1,1,sw*%
%TO.N,Net-(L1-Pad1)*%
X219987500Y-97147300D03*
%TO.P,U1,2,gnd*%
%TO.N,GND*%
X219987500Y-96197300D03*
%TO.P,U1,3,FB*%
%TO.N,Net-(C1-Pad2)*%
X219987500Y-95247300D03*
%TO.P,U1,4,SHDN*%
%TO.N,+5V*%
X217367500Y-95247300D03*
%TO.P,U1,5,Vout*%
%TO.N,Net-(C1-Pad1)*%
X217367500Y-96197300D03*
%TO.P,U1,6,Vin*%
%TO.N,+5V*%
X217367500Y-97147300D03*
%TD*%
D17*
%TO.P,,2*%
%TO.N,+5V*%
X162100000Y-111545000D03*
%TD*%
D18*
%TO.P,J1,1,Pin_1*%
%TO.N,VCC*%
X168995000Y-91200000D03*
%TO.P,J1,2,Pin_2*%
%TO.N,Net-(J1-Pad2)*%
X168995000Y-92700000D03*
%TO.P,J1,3,Pin_3*%
%TO.N,Net-(J1-Pad3)*%
X168995000Y-94200000D03*
%TO.P,J1,4,Pin_4*%
%TO.N,Net-(J1-Pad4)*%
X168995000Y-95700000D03*
%TO.P,J1,5,Pin_5*%
%TO.N,GND*%
X168995000Y-97200000D03*
D19*
%TO.P,J1,MP*%
%TO.N,N/C*%
X163805000Y-88595000D03*
X163805000Y-99805000D03*
%TD*%
D20*
%TO.P,TP2,1,TP1*%
%TO.N,Net-(C7-Pad2)*%
X243736500Y-97408000D03*
%TD*%
D21*
%TO.P,L1,1,1*%
%TO.N,Net-(L1-Pad1)*%
X210880000Y-96197300D03*
%TO.P,L1,2,2*%
%TO.N,+5V*%
X213855000Y-96197300D03*
%TD*%
D12*
%TO.P,R2,1*%
%TO.N,Net-(C1-Pad2)*%
X211896000Y-86269800D03*
%TO.P,R2,2*%
%TO.N,Net-(C1-Pad1)*%
X211896000Y-88269800D03*
%TD*%
D22*
%TO.P,R3,1*%
%TO.N,Net-(C7-Pad1)*%
X196402000Y-68000000D03*
%TO.P,R3,2*%
%TO.N,GND*%
X196402000Y-66000000D03*
%TD*%
D12*
%TO.P,R9,1*%
%TO.N,Net-(C14-Pad2)*%
X238566000Y-92365800D03*
%TO.P,R9,2*%
%TO.N,Net-(R9-Pad2)*%
X238566000Y-94365800D03*
%TD*%
D22*
%TO.P,R5,1*%
%TO.N,Net-(C7-Pad1)*%
X200720000Y-68000000D03*
%TO.P,R5,2*%
%TO.N,Net-(C7-Pad2)*%
X200720000Y-66000000D03*
%TD*%
D13*
%TO.P,C1,1*%
%TO.N,Net-(C1-Pad1)*%
X215198000Y-88323300D03*
%TO.P,C1,2*%
%TO.N,Net-(C1-Pad2)*%
X215198000Y-86248300D03*
%TD*%
D23*
%TO.P,U$9,P$1*%
%TO.N,N/C*%
X174800000Y-107100000D03*
%TD*%
D12*
%TO.P,R1,1*%
%TO.N,Net-(C1-Pad2)*%
X217992000Y-86291300D03*
%TO.P,R1,2*%
%TO.N,GND*%
X217992000Y-88291300D03*
%TD*%
D20*
%TO.P,TP3,1,TP1*%
%TO.N,Net-(R9-Pad2)*%
X243736500Y-91058000D03*
%TD*%
D24*
%TO.P,TP4,1*%
%TO.N,GND*%
X243800000Y-84200000D03*
%TD*%
D25*
%TO.P,R8,1*%
%TO.N,VCC*%
X173050000Y-98125000D03*
%TO.P,R8,2*%
%TO.N,Net-(J1-Pad2)*%
X173050000Y-99775000D03*
%TD*%
D17*
%TO.P,,4*%
%TO.N,VCC*%
X162100000Y-106465000D03*
%TD*%
D14*
%TO.P,,1*%
%TO.N,GND*%
X231320000Y-122080000D03*
%TD*%
D26*
%TO.P,C8,1*%
%TO.N,VCC*%
X167225000Y-72910000D03*
%TO.P,C8,2*%
%TO.N,GND*%
X168775000Y-72910000D03*
%TD*%
D13*
%TO.P,C18,1*%
%TO.N,Net-(C18-Pad1)*%
X201990000Y-88323300D03*
%TO.P,C18,2*%
%TO.N,GND*%
X201990000Y-86248300D03*
%TD*%
D27*
%TO.P,L2,1,1*%
%TO.N,Net-(C1-Pad1)*%
X205546000Y-88344800D03*
%TO.P,L2,2,2*%
%TO.N,Net-(C18-Pad1)*%
X205546000Y-86294800D03*
%TD*%
D28*
%TO.P,R7,1*%
%TO.N,Net-(D2-Pad2)*%
X224818000Y-63190000D03*
%TO.P,R7,2*%
%TO.N,Net-(C14-Pad1)*%
X222818000Y-63190000D03*
%TD*%
D14*
%TO.P,,1*%
%TO.N,GND*%
X175320000Y-66080000D03*
%TD*%
D12*
%TO.P,R4,1*%
%TO.N,Net-(IC1-PadA1)*%
X237804000Y-83745800D03*
%TO.P,R4,2*%
%TO.N,Net-(R4-Pad2)*%
X237804000Y-85745800D03*
%TD*%
%TO.P,R24,1*%
%TO.N,Net-(C14-Pad2)*%
X234756000Y-92365800D03*
%TO.P,R24,2*%
%TO.N,GND*%
X234756000Y-94365800D03*
%TD*%
D29*
%TO.P,R12,1*%
%TO.N,VCC*%
X164775000Y-71300000D03*
%TO.P,R12,2*%
%TO.N,Net-(J1-Pad4)*%
X166425000Y-71300000D03*
%TD*%
D20*
%TO.P,TP1,1,TP1*%
%TO.N,Net-(R4-Pad2)*%
X243736500Y-103758000D03*
%TD*%
D14*
%TO.P,,1*%
%TO.N,GND*%
X231320000Y-66080000D03*
%TD*%
D30*
%TO.P,U2,1,OUT_A*%
%TO.N,Net-(C7-Pad2)*%
X215198000Y-74366000D03*
%TO.P,U2,2,-IN_A*%
%TO.N,Net-(C7-Pad1)*%
X215198000Y-73096000D03*
%TO.P,U2,3,+IN_A*%
%TO.N,Net-(R4-Pad2)*%
X215198000Y-71826000D03*
%TO.P,U2,4,V-*%
%TO.N,GND*%
X215198000Y-70556000D03*
%TO.P,U2,5,+IN_B*%
%TO.N,Net-(C7-Pad2)*%
X210248000Y-70556000D03*
%TO.P,U2,6,-IN_B*%
%TO.N,Net-(D2-Pad2)*%
X210248000Y-71826000D03*
%TO.P,U2,7,OUT_B*%
%TO.N,Net-(D1-Pad2)*%
X210248000Y-73096000D03*
%TO.P,U2,8,V+*%
%TO.N,+5V*%
X210248000Y-74366000D03*
%TD*%
D13*
%TO.P,C2,1*%
%TO.N,Net-(C1-Pad1)*%
X208848000Y-88344800D03*
%TO.P,C2,2*%
%TO.N,GND*%
X208848000Y-86269800D03*
%TD*%
D28*
%TO.P,R6,1*%
%TO.N,Net-(D2-Pad2)*%
X224843400Y-59176800D03*
%TO.P,R6,2*%
%TO.N,GND*%
X222843400Y-59176800D03*
%TD*%
D31*
%TO.P,D2,1,K*%
%TO.N,Net-(D1-Pad2)*%
X225366400Y-66847600D03*
%TO.P,D2,2,A*%
%TO.N,Net-(D2-Pad2)*%
X222066400Y-66847600D03*
%TD*%
%TO.P,D1,1,K*%
%TO.N,Net-(C14-Pad1)*%
X225391800Y-70505200D03*
%TO.P,D1,2,A*%
%TO.N,Net-(D1-Pad2)*%
X222091800Y-70505200D03*
%TD*%
D13*
%TO.P,C14,1*%
%TO.N,Net-(C14-Pad1)*%
X230946000Y-94440800D03*
%TO.P,C14,2*%
%TO.N,Net-(C14-Pad2)*%
X230946000Y-92365800D03*
%TD*%
D17*
%TO.P,,1*%
%TO.N,Net-(J1-Pad2)*%
X162100000Y-114085000D03*
%TD*%
D11*
%TO.P,C3,1*%
%TO.N,+5V*%
X221294000Y-86291300D03*
%TO.P,C3,2*%
%TO.N,GND*%
X221294000Y-88366300D03*
%TD*%
D29*
%TO.P,R11,1*%
%TO.N,VCC*%
X163975000Y-72900000D03*
%TO.P,R11,2*%
%TO.N,Net-(J1-Pad3)*%
X165625000Y-72900000D03*
%TD*%
D17*
%TO.P,,3*%
%TO.N,GND*%
X162100000Y-109005000D03*
%TD*%
D32*
%TO.P,U3,1,ADDR*%
%TO.N,Net-(R10-Pad1)*%
X165920000Y-79530000D03*
%TO.P,U3,2,ALERT/RDY*%
%TO.N,N/C*%
X166420000Y-79530000D03*
%TO.P,U3,3,GND*%
%TO.N,GND*%
X166920000Y-79530000D03*
%TO.P,U3,4,AIN0*%
%TO.N,Net-(R9-Pad2)*%
X167420000Y-79530000D03*
%TO.P,U3,5,AIN1*%
%TO.N,unconnected-(U3-Pad5)*%
X167920000Y-79530000D03*
%TO.P,U3,6,AIN2*%
%TO.N,unconnected-(U3-Pad6)*%
X167920000Y-75230000D03*
%TO.P,U3,7,AIN3*%
%TO.N,unconnected-(U3-Pad7)*%
X167420000Y-75230000D03*
%TO.P,U3,8,VDD*%
%TO.N,VDDA*%
X166920000Y-75230000D03*
%TO.P,U3,9,SDA*%
%TO.N,Net-(J1-Pad4)*%
X166420000Y-75230000D03*
%TO.P,U3,10,SCL*%
%TO.N,Net-(J1-Pad3)*%
X165920000Y-75230000D03*
%TD*%
D11*
%TO.P,C4,1*%
%TO.N,+5V*%
X214400000Y-58562500D03*
%TO.P,C4,2*%
%TO.N,GND*%
X214400000Y-60637500D03*
%TD*%
D33*
%TO.N,GND*%
X209200000Y-83900000D03*
D34*
%TO.N,Net-(R9-Pad2)*%
X172200000Y-80800000D03*
X169566011Y-80800000D03*
X220000000Y-81000000D03*
%TO.N,Net-(C7-Pad2)*%
X206689000Y-65717300D03*
X218754000Y-67622300D03*
X212404000Y-67557800D03*
X236800000Y-93300000D03*
X217419500Y-75242300D03*
X209229000Y-65717300D03*
X218818500Y-73972300D03*
X218754000Y-65717300D03*
X236800000Y-87877800D03*
X212404000Y-68956800D03*
%TO.N,Net-(R4-Pad2)*%
X238500000Y-97000000D03*
X238300000Y-87600000D03*
%TO.N,GND*%
X215579000Y-68956800D03*
X217628872Y-68682928D03*
X212700000Y-61600000D03*
X208750000Y-99240000D03*
X225104000Y-78481800D03*
X162856000Y-80936000D03*
X216849000Y-65017800D03*
X167220000Y-78380000D03*
X223834000Y-72702300D03*
X169820000Y-97980000D03*
X216849000Y-67572100D03*
X232724000Y-93657300D03*
X197320000Y-99240000D03*
X168952000Y-71538000D03*
X224443600Y-76400000D03*
X232724000Y-91117300D03*
X233359000Y-97467300D03*
X197320000Y-89080000D03*
%TO.N,Net-(C7-Pad1)*%
X209229000Y-68257300D03*
X207077200Y-68075000D03*
X217484000Y-70797300D03*
X217419500Y-72702300D03*
%TO.N,Net-(C1-Pad2)*%
X212404000Y-91117300D03*
X210372000Y-87256500D03*
%TO.N,Net-(C1-Pad1)*%
X215655200Y-93250900D03*
X215147200Y-90202900D03*
%TO.N,Net-(IC1-PadA1)*%
X209700000Y-102600000D03*
X233294500Y-88577300D03*
X234693500Y-88577300D03*
X230248500Y-88577300D03*
X227579500Y-88577300D03*
%TO.N,VCC*%
X169566011Y-84680000D03*
X171472531Y-84680000D03*
%TO.N,Net-(D2-Pad2)*%
X214309000Y-68956800D03*
X214309000Y-67557800D03*
%TO.N,Net-(C14-Pad1)*%
X240979000Y-93592800D03*
X237104500Y-74607300D03*
X225739000Y-61272300D03*
X240979000Y-95562300D03*
X234654400Y-96197300D03*
X238503500Y-74607300D03*
X232266800Y-96197300D03*
X224143900Y-61272300D03*
%TO.N,+5V*%
X190000000Y-80000000D03*
X190000000Y-82000000D03*
X182000000Y-80000000D03*
X211032400Y-103862800D03*
X194000000Y-82000000D03*
X199000000Y-82000000D03*
X186000000Y-82000000D03*
X186000000Y-80000000D03*
X182000000Y-82000000D03*
X199000000Y-80000000D03*
X211083200Y-100870900D03*
X194000000Y-80000000D03*
%TO.N,Net-(D1-Pad2)*%
X220659000Y-78481800D03*
X220659000Y-76447800D03*
%TO.N,Net-(C18-Pad1)*%
X198460000Y-93110000D03*
%TD*%
D35*
%TO.N,Net-(R4-Pad2)*%
X217877700Y-71826000D02*
X218119000Y-72067300D01*
X233994000Y-83497300D02*
X236242500Y-85745800D01*
X218119000Y-72067300D02*
X218119000Y-76030000D01*
X215198000Y-71826000D02*
X217877700Y-71826000D01*
X232876700Y-77300000D02*
X233994000Y-78417300D01*
X218119000Y-76030000D02*
X219389000Y-77300000D01*
X219389000Y-77300000D02*
X232876700Y-77300000D01*
X233994000Y-78417300D02*
X233994000Y-83497300D01*
X236242500Y-85745800D02*
X237804000Y-85745800D01*
%TO.N,GND*%
X209229000Y-83929000D02*
X209200000Y-83900000D01*
X209229000Y-84767300D02*
X209229000Y-83929000D01*
D36*
%TO.N,Net-(R9-Pad2)*%
X220000000Y-81000000D02*
X172400000Y-81000000D01*
X172400000Y-81000000D02*
X172200000Y-80800000D01*
X169566011Y-80800000D02*
X167865978Y-80800000D01*
X167865978Y-80800000D02*
X167420000Y-80354022D01*
X242334200Y-94365800D02*
X243736500Y-92963500D01*
X167420000Y-80354022D02*
X167420000Y-79530000D01*
X243736500Y-92963500D02*
X243736500Y-91058000D01*
X238566000Y-94365800D02*
X242334200Y-94365800D01*
%TO.N,Net-(C7-Pad2)*%
X236800000Y-87877800D02*
X236577800Y-87877800D01*
X243736500Y-95286680D02*
X243287609Y-94837789D01*
D35*
X229549000Y-77782300D02*
X217484000Y-77782300D01*
X217419500Y-77717800D02*
X217484000Y-77782300D01*
X215198000Y-77401300D02*
X215579000Y-77782300D01*
D36*
X243736500Y-97408000D02*
X243736500Y-95286680D01*
D35*
X229549000Y-77782300D02*
X232216000Y-80449300D01*
X206406300Y-66000000D02*
X206689000Y-65717300D01*
D36*
X243287609Y-94837789D02*
X239962211Y-94837789D01*
D35*
X212404000Y-69527300D02*
X212404000Y-68956800D01*
X217419500Y-75242300D02*
X217419500Y-77717800D01*
X210563500Y-65717300D02*
X212404000Y-67557800D01*
D36*
X239100000Y-95600000D02*
X237300000Y-95600000D01*
X239862211Y-94837789D02*
X239100000Y-95600000D01*
D35*
X205038000Y-66000000D02*
X200720000Y-66000000D01*
X210248000Y-70556000D02*
X211375300Y-70556000D01*
X218754000Y-67622300D02*
X218754000Y-73907800D01*
X215198000Y-74366000D02*
X215198000Y-77401300D01*
D36*
X236800000Y-95100000D02*
X236800000Y-93300000D01*
D35*
X215579000Y-77782300D02*
X217484000Y-77782300D01*
X218754000Y-73907800D02*
X218818500Y-73972300D01*
X209229000Y-65717300D02*
X210563500Y-65717300D01*
X210563500Y-65717300D02*
X218754000Y-65717300D01*
D36*
X237300000Y-95600000D02*
X236800000Y-95100000D01*
D35*
X232216000Y-80449300D02*
X232216000Y-83983800D01*
X211375300Y-70556000D02*
X212404000Y-69527300D01*
D36*
X232683800Y-83983800D02*
X232216000Y-83983800D01*
X236577800Y-87877800D02*
X232683800Y-83983800D01*
D35*
X205038000Y-66000000D02*
X206406300Y-66000000D01*
D36*
X239962211Y-94837789D02*
X239862211Y-94837789D01*
D35*
%TO.N,Net-(R4-Pad2)*%
X237804000Y-87104000D02*
X238300000Y-87600000D01*
X238500000Y-98521500D02*
X243736500Y-103758000D01*
X238500000Y-97000000D02*
X238500000Y-98521500D01*
X237804000Y-85745800D02*
X237804000Y-87104000D01*
%TO.N,GND*%
X208848000Y-85148300D02*
X209229000Y-84767300D01*
X230184000Y-81592300D02*
X230184000Y-85402300D01*
X218944500Y-59176800D02*
X217484000Y-60637300D01*
X209229000Y-84767300D02*
X218754000Y-84767300D01*
X221294000Y-88366300D02*
X219600000Y-88366300D01*
X233994000Y-89847300D02*
X232724000Y-91117300D01*
D37*
X169115000Y-97275000D02*
X169820000Y-97980000D01*
D35*
X202244000Y-84767300D02*
X201990000Y-85021300D01*
D36*
X215198000Y-70556000D02*
X215198000Y-69337800D01*
D35*
X233432500Y-94365800D02*
X232724000Y-93657300D01*
D37*
X168745000Y-72870000D02*
X168745000Y-71745000D01*
D36*
X215198000Y-69337800D02*
X215579000Y-68956800D01*
D35*
X201990000Y-85021300D02*
X201990000Y-86248300D01*
X209229000Y-84767300D02*
X202244000Y-84767300D01*
X223134500Y-76447800D02*
X224469000Y-76447800D01*
X222780500Y-74264400D02*
X222780500Y-76093800D01*
D37*
X164045000Y-81270000D02*
X163190000Y-81270000D01*
D35*
X212784200Y-60615800D02*
X210905400Y-60615800D01*
X219600000Y-85613300D02*
X219600000Y-88366300D01*
X222843400Y-59176800D02*
X218944500Y-59176800D01*
X227579500Y-80957300D02*
X229549000Y-80957300D01*
X222780500Y-76093800D02*
X223134500Y-76447800D01*
X223199000Y-72702300D02*
X222780500Y-73120800D01*
X233305500Y-85983800D02*
X233994000Y-86672300D01*
X214944000Y-60615800D02*
X212784200Y-60615800D01*
X210880000Y-60641200D02*
X198430100Y-60641200D01*
X234756000Y-94365800D02*
X233432500Y-94365800D01*
D37*
X168745000Y-71745000D02*
X168952000Y-71538000D01*
D35*
X212784200Y-60615800D02*
X212784200Y-61515800D01*
X229549000Y-80957300D02*
X230184000Y-81592300D01*
X223834000Y-72702300D02*
X223199000Y-72702300D01*
X233994000Y-86672300D02*
X233994000Y-89847300D01*
D37*
X166920000Y-78680000D02*
X167220000Y-78380000D01*
D35*
X225104000Y-78481800D02*
X227579500Y-80957300D01*
X233432500Y-94365800D02*
X233359000Y-94439300D01*
X217484000Y-60637300D02*
X217484000Y-64382800D01*
X216849000Y-67572100D02*
X216849000Y-67903056D01*
X208848000Y-86269800D02*
X208848000Y-85148300D01*
X216849000Y-67903056D02*
X217628872Y-68682928D01*
X218754000Y-84767300D02*
X219600000Y-85613300D01*
X219600000Y-88366300D02*
X218067000Y-88366300D01*
D37*
X169115000Y-97080000D02*
X169115000Y-97275000D01*
D35*
X196402000Y-62669300D02*
X196402000Y-66000000D01*
X222780500Y-73120800D02*
X222780500Y-74264400D01*
D37*
X163190000Y-81270000D02*
X162856000Y-80936000D01*
D35*
X232216000Y-85983800D02*
X233305500Y-85983800D01*
X219987500Y-96197300D02*
X220797500Y-96197300D01*
X221294000Y-95700800D02*
X221294000Y-88366300D01*
X220797500Y-96197300D02*
X221294000Y-95700800D01*
D37*
X166920000Y-79530000D02*
X166920000Y-78680000D01*
D35*
X198430100Y-60641200D02*
X196402000Y-62669300D01*
X230765500Y-85983800D02*
X232216000Y-85983800D01*
X217484000Y-60637300D02*
X214965500Y-60637300D01*
X217484000Y-64382800D02*
X216849000Y-65017800D01*
X233359000Y-94439300D02*
X233359000Y-97467300D01*
X230184000Y-85402300D02*
X230765500Y-85983800D01*
X212784200Y-61515800D02*
X212700000Y-61600000D01*
%TO.N,Net-(C7-Pad1)*%
X216214000Y-68257300D02*
X209229000Y-68257300D01*
X217025800Y-73096000D02*
X217419500Y-72702300D01*
X205038000Y-68075000D02*
X200795000Y-68075000D01*
X217484000Y-69527300D02*
X217484000Y-70797300D01*
X216214000Y-68257300D02*
X217484000Y-69527300D01*
X205038000Y-68075000D02*
X207077200Y-68075000D01*
X200720000Y-68000000D02*
X196402000Y-68000000D01*
X215198000Y-73096000D02*
X217025800Y-73096000D01*
%TO.N,Net-(C1-Pad2)*%
X212404000Y-91117300D02*
X219211200Y-91117300D01*
X219211200Y-91117300D02*
X219987500Y-91893600D01*
X217992000Y-86291300D02*
X215241000Y-86291300D01*
X219987500Y-91893600D02*
X219987500Y-95247300D01*
X210901500Y-86269800D02*
X210372000Y-86799300D01*
X211896000Y-86269800D02*
X210901500Y-86269800D01*
X215176500Y-86269800D02*
X211896000Y-86269800D01*
X210372000Y-86799300D02*
X210372000Y-87256500D01*
D38*
%TO.N,Net-(C1-Pad1)*%
X208848000Y-88344800D02*
X205546000Y-88344800D01*
X211896000Y-88269800D02*
X208923000Y-88269800D01*
X215147200Y-90202900D02*
X215147200Y-88272500D01*
X217367500Y-96197300D02*
X216061600Y-96197300D01*
X215144500Y-88269800D02*
X211896000Y-88269800D01*
X216061600Y-96197300D02*
X215655200Y-95790900D01*
X215655200Y-95790900D02*
X215655200Y-93250900D01*
D35*
%TO.N,Net-(IC1-PadA1)*%
X239074000Y-88577300D02*
X234693500Y-88577300D01*
X227579500Y-88577300D02*
X227009000Y-88577300D01*
X233294500Y-88577300D02*
X230248500Y-88577300D01*
X237804000Y-83745800D02*
X239322500Y-83745800D01*
X209752700Y-102547300D02*
X209700000Y-102600000D01*
X239322500Y-83745800D02*
X239709000Y-84132300D01*
X239709000Y-87942300D02*
X239074000Y-88577300D01*
X224469000Y-101912300D02*
X223834000Y-102547300D01*
X224469000Y-91117300D02*
X224469000Y-101912300D01*
X239709000Y-84132300D02*
X239709000Y-87942300D01*
X227009000Y-88577300D02*
X224469000Y-91117300D01*
X223834000Y-102547300D02*
X209752700Y-102547300D01*
%TO.N,Net-(C14-Pad2)*%
X234756000Y-92365800D02*
X230946000Y-92365800D01*
X238566000Y-92365800D02*
X234756000Y-92365800D01*
D36*
%TO.N,VCC*%
X167000000Y-70000000D02*
X168000000Y-71000000D01*
X164775000Y-71300000D02*
X164775000Y-71225000D01*
D37*
X169566011Y-90633989D02*
X169566011Y-84680000D01*
X171472531Y-84680000D02*
X171472531Y-79349783D01*
X166920000Y-76205223D02*
X166920000Y-75230000D01*
X163875000Y-72190000D02*
X163875000Y-72860000D01*
D36*
X166000000Y-70000000D02*
X167000000Y-70000000D01*
D37*
X171800000Y-99100000D02*
X167890000Y-99100000D01*
X164245000Y-73230000D02*
X163875000Y-72860000D01*
D36*
X167195000Y-73755000D02*
X167195000Y-72870000D01*
D37*
X171800000Y-96200000D02*
X171800000Y-99100000D01*
X162100000Y-104890000D02*
X162100000Y-106465000D01*
D36*
X168000000Y-72135000D02*
X167225000Y-72910000D01*
D37*
X172390000Y-95610000D02*
X173050000Y-96270000D01*
D36*
X164775000Y-71225000D02*
X166000000Y-70000000D01*
X173050000Y-98125000D02*
X173050000Y-96270000D01*
D37*
X169120000Y-91080000D02*
X169566011Y-90633989D01*
X167390613Y-76675836D02*
X166920000Y-76205223D01*
X167890000Y-99100000D02*
X162100000Y-104890000D01*
X171472531Y-94692531D02*
X172390000Y-95610000D01*
X171472531Y-84680000D02*
X171472531Y-94692531D01*
X172390000Y-95610000D02*
X171800000Y-96200000D01*
X168798584Y-76675836D02*
X167390613Y-76675836D01*
X171472531Y-79349783D02*
X168798584Y-76675836D01*
D36*
X166920000Y-75230000D02*
X166920000Y-74030000D01*
D37*
X164725000Y-71340000D02*
X163875000Y-72190000D01*
D36*
X168000000Y-71000000D02*
X168000000Y-72135000D01*
X166920000Y-74030000D02*
X167195000Y-73755000D01*
%TO.N,Net-(D2-Pad2)*%
X215019200Y-66847600D02*
X214309000Y-67557800D01*
X214309000Y-69527300D02*
X212010300Y-71826000D01*
X214309000Y-68956800D02*
X214309000Y-69527300D01*
X222066400Y-66847600D02*
X215019200Y-66847600D01*
X224818000Y-64733300D02*
X224469000Y-65082300D01*
D35*
X224843400Y-59176800D02*
X224843400Y-63164600D01*
D36*
X222564000Y-65082300D02*
X222066400Y-65579900D01*
X224469000Y-65082300D02*
X222564000Y-65082300D01*
X222066400Y-65579900D02*
X222066400Y-66847600D01*
X212010300Y-71826000D02*
X210248000Y-71826000D01*
X224818000Y-63190000D02*
X224818000Y-64733300D01*
D35*
%TO.N,Net-(C14-Pad1)*%
X222818000Y-61653300D02*
X222818000Y-63190000D01*
X223199000Y-61272300D02*
X222818000Y-61653300D01*
X224143900Y-61272300D02*
X223199000Y-61272300D01*
D36*
X234654400Y-96197300D02*
X240344000Y-96197300D01*
D35*
X226958200Y-61272300D02*
X227009000Y-61323100D01*
X224855500Y-74264400D02*
X224855500Y-72315800D01*
X240979000Y-76512300D02*
X239074000Y-74607300D01*
X227009000Y-70162300D02*
X227009000Y-61323100D01*
X237104500Y-74607300D02*
X227009000Y-74607300D01*
X225391800Y-71779500D02*
X224855500Y-72315800D01*
X240979000Y-93592800D02*
X240979000Y-76512300D01*
X226666100Y-74264400D02*
X227009000Y-74607300D01*
X225391800Y-71779500D02*
X225391800Y-70505200D01*
X230819000Y-94567800D02*
X230819000Y-95562300D01*
X240344000Y-96197300D02*
X240979000Y-95562300D01*
X225739000Y-61272300D02*
X226958200Y-61272300D01*
X224855500Y-74264400D02*
X226666100Y-74264400D01*
D36*
X231454000Y-96197300D02*
X232266800Y-96197300D01*
D35*
X230819000Y-95562300D02*
X231454000Y-96197300D01*
X225391800Y-70505200D02*
X226666100Y-70505200D01*
X226666100Y-70505200D02*
X227009000Y-70162300D01*
X239074000Y-74607300D02*
X238503500Y-74607300D01*
%TO.N,Net-(L1-Pad1)*%
X220659000Y-98737300D02*
X209864000Y-98737300D01*
X209229000Y-96832300D02*
X209864000Y-96197300D01*
X209864000Y-96197300D02*
X210880000Y-96197300D01*
X221294000Y-98102300D02*
X220659000Y-98737300D01*
X219987500Y-97147300D02*
X220974000Y-97147300D01*
X221294000Y-97467300D02*
X221294000Y-98102300D01*
X220974000Y-97147300D02*
X221294000Y-97467300D01*
X209864000Y-98737300D02*
X209229000Y-98102300D01*
X209229000Y-98102300D02*
X209229000Y-96832300D01*
D38*
%TO.N,+5V*%
X162100000Y-111545000D02*
X175555000Y-111545000D01*
X175555000Y-111545000D02*
X182300000Y-104800000D01*
D36*
%TO.N,Net-(J1-Pad2)*%
X160886000Y-112871000D02*
X162100000Y-114085000D01*
X167140000Y-98308173D02*
X160886000Y-104562173D01*
X168995000Y-92700000D02*
X167140000Y-94555000D01*
X160886000Y-104562173D02*
X160886000Y-112871000D01*
X167140000Y-94555000D02*
X167140000Y-98308173D01*
D37*
%TO.N,Net-(J1-Pad3)*%
X166919068Y-77653489D02*
X165920000Y-76654421D01*
X169115000Y-94080000D02*
X170292511Y-92902489D01*
X170292511Y-79452511D02*
X168493489Y-77653489D01*
X170292511Y-92902489D02*
X170292511Y-79452511D01*
X168493489Y-77653489D02*
X166919068Y-77653489D01*
X165920000Y-76654421D02*
X165920000Y-75230000D01*
D36*
X165525000Y-73995000D02*
X165920000Y-74390000D01*
X165525000Y-72860000D02*
X165525000Y-73995000D01*
X165920000Y-74390000D02*
X165920000Y-75230000D01*
D37*
%TO.N,Net-(J1-Pad4)*%
X169115000Y-95580000D02*
X170746031Y-93948969D01*
X168661374Y-77180000D02*
X168641405Y-77199969D01*
X170746031Y-79264657D02*
X168661374Y-77180000D01*
D36*
X166420000Y-75230000D02*
X166420000Y-71385000D01*
D37*
X166420000Y-76513047D02*
X166420000Y-75230000D01*
X170746031Y-93948969D02*
X170746031Y-79264657D01*
X168641405Y-77199969D02*
X167106922Y-77199969D01*
X167106922Y-77199969D02*
X166420000Y-76513047D01*
D35*
%TO.N,Net-(D1-Pad2)*%
X225366400Y-66847600D02*
X225366400Y-67994900D01*
X220659000Y-78481800D02*
X215008500Y-78481800D01*
X215008500Y-78481800D02*
X212404000Y-75877300D01*
X225366400Y-67994900D02*
X225168500Y-68192800D01*
X220659000Y-70568700D02*
X220722500Y-70505200D01*
X220366900Y-70505200D02*
X220722500Y-70505200D01*
X212404000Y-75877300D02*
X212404000Y-73337300D01*
X212404000Y-73337300D02*
X212162700Y-73096000D01*
X220733268Y-68192800D02*
X219851762Y-69074306D01*
X220722500Y-70505200D02*
X222091800Y-70505200D01*
X225168500Y-68192800D02*
X220733268Y-68192800D01*
X219851762Y-69074306D02*
X219851762Y-69990062D01*
X219851762Y-69990062D02*
X220366900Y-70505200D01*
X212162700Y-73096000D02*
X210248000Y-73096000D01*
X220659000Y-76447800D02*
X220659000Y-70568700D01*
D38*
%TO.N,Net-(C18-Pad1)*%
X203891500Y-86294800D02*
X203514000Y-86672300D01*
X201990000Y-88323300D02*
X203480800Y-88323300D01*
X205546000Y-86294800D02*
X203891500Y-86294800D01*
X202820000Y-90460000D02*
X199130000Y-90460000D01*
X199130000Y-90460000D02*
X198460000Y-91130000D01*
X198460000Y-91130000D02*
X198460000Y-93110000D01*
X203514000Y-89766000D02*
X202820000Y-90460000D01*
D36*
X203480800Y-88323300D02*
X203514000Y-88356500D01*
D38*
X203514000Y-86672300D02*
X203514000Y-89766000D01*
D36*
%TO.N,Net-(R10-Pad1)*%
X165920000Y-79530000D02*
X165920000Y-81045000D01*
%TD*%
%TA.AperFunction,Conductor*%
%TO.N,+5V*%
G36*
X236937000Y-57016881D02*
G01*
X236983119Y-57063000D01*
X237000000Y-57126000D01*
X237000000Y-73598683D01*
X236987248Y-73653918D01*
X236951574Y-73697972D01*
X236900198Y-73721929D01*
X236822215Y-73738505D01*
X236822213Y-73738505D01*
X236822212Y-73738506D01*
X236670786Y-73805925D01*
X236647746Y-73816183D01*
X236493247Y-73928433D01*
X236467426Y-73957111D01*
X236425039Y-73987907D01*
X236373790Y-73998800D01*
X227313239Y-73998800D01*
X227265021Y-73989209D01*
X227224144Y-73961895D01*
X227130415Y-73868166D01*
X227119548Y-73855775D01*
X227100088Y-73830414D01*
X227068824Y-73806424D01*
X227068174Y-73805925D01*
X227068172Y-73805923D01*
X226972976Y-73732876D01*
X226972975Y-73732875D01*
X226852671Y-73683044D01*
X226824951Y-73671562D01*
X226824950Y-73671561D01*
X226824948Y-73671561D01*
X226805568Y-73669008D01*
X226805556Y-73669008D01*
X226791569Y-73667166D01*
X226697803Y-73654822D01*
X226697791Y-73654822D01*
X226666100Y-73650650D01*
X226634407Y-73654822D01*
X226617964Y-73655900D01*
X226038807Y-73655900D01*
X225987782Y-73645106D01*
X225945499Y-73614573D01*
X225919202Y-73569533D01*
X225885115Y-73466662D01*
X225792030Y-73315748D01*
X225792028Y-73315746D01*
X225792027Y-73315744D01*
X225666655Y-73190372D01*
X225666652Y-73190370D01*
X225523851Y-73102289D01*
X225479976Y-73056456D01*
X225464000Y-72995050D01*
X225464000Y-72620040D01*
X225473591Y-72571822D01*
X225500904Y-72530945D01*
X225572349Y-72459500D01*
X225788039Y-72243808D01*
X225800424Y-72232948D01*
X225825787Y-72213487D01*
X225839748Y-72195291D01*
X225839752Y-72195288D01*
X225858561Y-72170777D01*
X225881410Y-72140998D01*
X225923323Y-72086378D01*
X225949395Y-72023434D01*
X225984638Y-71938351D01*
X225988214Y-71911183D01*
X225988574Y-71908452D01*
X225988574Y-71908450D01*
X226001378Y-71811197D01*
X226001378Y-71811190D01*
X226005550Y-71779499D01*
X226001378Y-71747807D01*
X226000300Y-71731362D01*
X226000300Y-71676285D01*
X226010473Y-71626686D01*
X226039349Y-71585096D01*
X226082265Y-71558230D01*
X226085424Y-71557050D01*
X226088004Y-71556089D01*
X226205061Y-71468461D01*
X226292689Y-71351404D01*
X226343789Y-71214401D01*
X226343789Y-71214398D01*
X226349319Y-71199573D01*
X226351923Y-71200544D01*
X226363450Y-71169073D01*
X226408731Y-71128401D01*
X226467795Y-71113700D01*
X226617964Y-71113700D01*
X226634407Y-71114777D01*
X226666100Y-71118950D01*
X226697793Y-71114777D01*
X226697803Y-71114777D01*
X226705984Y-71113700D01*
X226705985Y-71113700D01*
X226808346Y-71100224D01*
X226808347Y-71100224D01*
X226813881Y-71099495D01*
X226824951Y-71098038D01*
X226972976Y-71036724D01*
X227068172Y-70963677D01*
X227068172Y-70963676D01*
X227084729Y-70950972D01*
X227084732Y-70950969D01*
X227085646Y-70950267D01*
X227100087Y-70939187D01*
X227119557Y-70913811D01*
X227130409Y-70901438D01*
X227405235Y-70626612D01*
X227417619Y-70615752D01*
X227417788Y-70615622D01*
X227442987Y-70596287D01*
X227456948Y-70578091D01*
X227456952Y-70578088D01*
X227540523Y-70469178D01*
X227572435Y-70392136D01*
X227601838Y-70321151D01*
X227609648Y-70261824D01*
X227617500Y-70202185D01*
X227618578Y-70193997D01*
X227618578Y-70193990D01*
X227621178Y-70174239D01*
X227622750Y-70162300D01*
X227618577Y-70130607D01*
X227617500Y-70114164D01*
X227617500Y-66079999D01*
X228306400Y-66079999D01*
X228320717Y-66325800D01*
X228326778Y-66429857D01*
X228365472Y-66649300D01*
X228387633Y-66774984D01*
X228488144Y-67110716D01*
X228529335Y-67206206D01*
X228626950Y-67432501D01*
X228743901Y-67635067D01*
X228793143Y-67720357D01*
X228802175Y-67736000D01*
X229011449Y-68017104D01*
X229251943Y-68272012D01*
X229347972Y-68352590D01*
X229520400Y-68497276D01*
X229520402Y-68497277D01*
X229520403Y-68497278D01*
X229813200Y-68689853D01*
X230126374Y-68847135D01*
X230455690Y-68966996D01*
X230796694Y-69047816D01*
X231075158Y-69080363D01*
X231144774Y-69088500D01*
X231144775Y-69088500D01*
X231495225Y-69088500D01*
X231495226Y-69088500D01*
X231553238Y-69081719D01*
X231843306Y-69047816D01*
X232184310Y-68966996D01*
X232513626Y-68847135D01*
X232826800Y-68689853D01*
X233119597Y-68497278D01*
X233388057Y-68272012D01*
X233628551Y-68017104D01*
X233837825Y-67736000D01*
X234013050Y-67432501D01*
X234151857Y-67110712D01*
X234252367Y-66774984D01*
X234313222Y-66429857D01*
X234333599Y-66080000D01*
X234313222Y-65730143D01*
X234252367Y-65385016D01*
X234151857Y-65049288D01*
X234013050Y-64727499D01*
X233837825Y-64424000D01*
X233628551Y-64142896D01*
X233388057Y-63887988D01*
X233271891Y-63790512D01*
X233119599Y-63662723D01*
X232826800Y-63470147D01*
X232513622Y-63312863D01*
X232184314Y-63193005D01*
X232184310Y-63193004D01*
X231843306Y-63112184D01*
X231843304Y-63112183D01*
X231843301Y-63112183D01*
X231495226Y-63071500D01*
X231495225Y-63071500D01*
X231144775Y-63071500D01*
X231144774Y-63071500D01*
X230796698Y-63112183D01*
X230455685Y-63193005D01*
X230126377Y-63312863D01*
X229813199Y-63470147D01*
X229520400Y-63662723D01*
X229251945Y-63887986D01*
X229011449Y-64142895D01*
X228802172Y-64424004D01*
X228626950Y-64727499D01*
X228488144Y-65049283D01*
X228387633Y-65385015D01*
X228358935Y-65547772D01*
X228326778Y-65730143D01*
X228326256Y-65739100D01*
X228306400Y-66079999D01*
X227617500Y-66079999D01*
X227617500Y-61371236D01*
X227618578Y-61354790D01*
X227622750Y-61323100D01*
X227618578Y-61291409D01*
X227618578Y-61291403D01*
X227601838Y-61164250D01*
X227587414Y-61129429D01*
X227587413Y-61129426D01*
X227540524Y-61016222D01*
X227462462Y-60914491D01*
X227462450Y-60914478D01*
X227442987Y-60889113D01*
X227427398Y-60877151D01*
X227404143Y-60853895D01*
X227403030Y-60852444D01*
X227392187Y-60838313D01*
X227392185Y-60838312D01*
X227392185Y-60838311D01*
X227360275Y-60813825D01*
X227360274Y-60813825D01*
X227360272Y-60813823D01*
X227289296Y-60759361D01*
X227265075Y-60740775D01*
X227160404Y-60697419D01*
X227117051Y-60679462D01*
X227117050Y-60679461D01*
X227117048Y-60679461D01*
X227097668Y-60676908D01*
X227097656Y-60676908D01*
X227083669Y-60675066D01*
X226989903Y-60662722D01*
X226989891Y-60662722D01*
X226958200Y-60658550D01*
X226926507Y-60662722D01*
X226910064Y-60663800D01*
X226469710Y-60663800D01*
X226418461Y-60652907D01*
X226376074Y-60622111D01*
X226350252Y-60593433D01*
X226195753Y-60481183D01*
X226195752Y-60481182D01*
X226021288Y-60403506D01*
X225834487Y-60363800D01*
X225833273Y-60363800D01*
X225823912Y-60361552D01*
X225821533Y-60361047D01*
X225821546Y-60360984D01*
X225776070Y-60350067D01*
X225731337Y-60311861D01*
X225708824Y-60257511D01*
X225713440Y-60198864D01*
X225744178Y-60148705D01*
X225792427Y-60100455D01*
X225792426Y-60100455D01*
X225792430Y-60100452D01*
X225885515Y-59949539D01*
X225941287Y-59781227D01*
X225951900Y-59677346D01*
X225951900Y-58676254D01*
X225941287Y-58572373D01*
X225885515Y-58404061D01*
X225792430Y-58253148D01*
X225792428Y-58253146D01*
X225792427Y-58253144D01*
X225667055Y-58127772D01*
X225667052Y-58127770D01*
X225516139Y-58034685D01*
X225347827Y-57978913D01*
X225243946Y-57968300D01*
X224442854Y-57968300D01*
X224338973Y-57978913D01*
X224170661Y-58034685D01*
X224112319Y-58070671D01*
X224019744Y-58127772D01*
X223932495Y-58215022D01*
X223876011Y-58247634D01*
X223810789Y-58247634D01*
X223754305Y-58215022D01*
X223667055Y-58127772D01*
X223667052Y-58127770D01*
X223516139Y-58034685D01*
X223347827Y-57978913D01*
X223243946Y-57968300D01*
X222442854Y-57968300D01*
X222338973Y-57978913D01*
X222170661Y-58034685D01*
X222112319Y-58070671D01*
X222019744Y-58127772D01*
X221894372Y-58253144D01*
X221894370Y-58253148D01*
X221801285Y-58404061D01*
X221775480Y-58481935D01*
X221749186Y-58526973D01*
X221706903Y-58557506D01*
X221655877Y-58568300D01*
X218992636Y-58568300D01*
X218976192Y-58567222D01*
X218944500Y-58563050D01*
X218912807Y-58567222D01*
X218912794Y-58567223D01*
X218805083Y-58581402D01*
X218805062Y-58581405D01*
X218805043Y-58581408D01*
X218790755Y-58583289D01*
X218785647Y-58583962D01*
X218637624Y-58645275D01*
X218597253Y-58676254D01*
X218557268Y-58706936D01*
X218557267Y-58706936D01*
X218557265Y-58706937D01*
X218510510Y-58742814D01*
X218491042Y-58768185D01*
X218480178Y-58780572D01*
X217268856Y-59991895D01*
X217227979Y-60019209D01*
X217179761Y-60028800D01*
X215669227Y-60028800D01*
X215607821Y-60012824D01*
X215561986Y-59968947D01*
X215474202Y-59826627D01*
X215474030Y-59826348D01*
X215474028Y-59826346D01*
X215474027Y-59826344D01*
X215338239Y-59690556D01*
X215340493Y-59688301D01*
X215314451Y-59661089D01*
X215298488Y-59599671D01*
X215314484Y-59538262D01*
X215340246Y-59511369D01*
X215337926Y-59509049D01*
X215473632Y-59373342D01*
X215566659Y-59222522D01*
X215622393Y-59054328D01*
X215633000Y-58950503D01*
X215633000Y-58816500D01*
X213167000Y-58816500D01*
X213167000Y-58950503D01*
X213177606Y-59054328D01*
X213233340Y-59222522D01*
X213326367Y-59373342D01*
X213462074Y-59509049D01*
X213459754Y-59511368D01*
X213485520Y-59538272D01*
X213501511Y-59599672D01*
X213485552Y-59661081D01*
X213459507Y-59688302D01*
X213461761Y-59690556D01*
X213325972Y-59826344D01*
X213251275Y-59947447D01*
X213205440Y-59991324D01*
X213144034Y-60007300D01*
X212832343Y-60007300D01*
X212815897Y-60006222D01*
X212784200Y-60002049D01*
X212752503Y-60006222D01*
X212736057Y-60007300D01*
X212135966Y-60007300D01*
X212074560Y-59991324D01*
X212028725Y-59947447D01*
X211954202Y-59826627D01*
X211954030Y-59826348D01*
X211954028Y-59826346D01*
X211954027Y-59826344D01*
X211818239Y-59690556D01*
X211820493Y-59688301D01*
X211794451Y-59661089D01*
X211778488Y-59599671D01*
X211794484Y-59538262D01*
X211820246Y-59511369D01*
X211817926Y-59509049D01*
X211953632Y-59373342D01*
X212046659Y-59222522D01*
X212102393Y-59054328D01*
X212113000Y-58950503D01*
X212113000Y-58816500D01*
X209647000Y-58816500D01*
X209647000Y-58950503D01*
X209657606Y-59054328D01*
X209713340Y-59222522D01*
X209806367Y-59373342D01*
X209942074Y-59509049D01*
X209939754Y-59511368D01*
X209965520Y-59538272D01*
X209981511Y-59599672D01*
X209965552Y-59661081D01*
X209939507Y-59688302D01*
X209941761Y-59690556D01*
X209805972Y-59826344D01*
X209778017Y-59871667D01*
X209715607Y-59972848D01*
X209669774Y-60016724D01*
X209608368Y-60032700D01*
X198478244Y-60032700D01*
X198461798Y-60031622D01*
X198430100Y-60027449D01*
X198271251Y-60048361D01*
X198123221Y-60109676D01*
X198028796Y-60182132D01*
X198028576Y-60182302D01*
X197996111Y-60207214D01*
X197976645Y-60232581D01*
X197965781Y-60244968D01*
X196005767Y-62204982D01*
X195993380Y-62215847D01*
X195968012Y-62235313D01*
X195940973Y-62270551D01*
X195940950Y-62270579D01*
X195870476Y-62362422D01*
X195809969Y-62508500D01*
X195809868Y-62508744D01*
X195809854Y-62508779D01*
X195809853Y-62508780D01*
X195809852Y-62508779D01*
X195809162Y-62510446D01*
X195792422Y-62637604D01*
X195792422Y-62637610D01*
X195788250Y-62669300D01*
X195792422Y-62700990D01*
X195793500Y-62717436D01*
X195793500Y-64812477D01*
X195782706Y-64863503D01*
X195752173Y-64905786D01*
X195707135Y-64932080D01*
X195629261Y-64957885D01*
X195612279Y-64968360D01*
X195478344Y-65050972D01*
X195352972Y-65176344D01*
X195324605Y-65222334D01*
X195259885Y-65327261D01*
X195204113Y-65495573D01*
X195193500Y-65599454D01*
X195193500Y-66400546D01*
X195204113Y-66504427D01*
X195259885Y-66672739D01*
X195317831Y-66766683D01*
X195352972Y-66823655D01*
X195440222Y-66910905D01*
X195472834Y-66967389D01*
X195472834Y-67032611D01*
X195440222Y-67089095D01*
X195352972Y-67176344D01*
X195334553Y-67206206D01*
X195259885Y-67327261D01*
X195204113Y-67495573D01*
X195193500Y-67599454D01*
X195193500Y-68400546D01*
X195204113Y-68504427D01*
X195259885Y-68672739D01*
X195345099Y-68810891D01*
X195352972Y-68823655D01*
X195478344Y-68949027D01*
X195478346Y-68949028D01*
X195478348Y-68949030D01*
X195629261Y-69042115D01*
X195797573Y-69097887D01*
X195901454Y-69108500D01*
X196902542Y-69108500D01*
X196902546Y-69108500D01*
X197006427Y-69097887D01*
X197174739Y-69042115D01*
X197325652Y-68949030D01*
X197451030Y-68823652D01*
X197544115Y-68672739D01*
X197544115Y-68672737D01*
X197546820Y-68668353D01*
X197592655Y-68624476D01*
X197654061Y-68608500D01*
X199467939Y-68608500D01*
X199529345Y-68624476D01*
X199575180Y-68668353D01*
X199577884Y-68672737D01*
X199577885Y-68672739D01*
X199649097Y-68788191D01*
X199670972Y-68823655D01*
X199796344Y-68949027D01*
X199796346Y-68949028D01*
X199796348Y-68949030D01*
X199947261Y-69042115D01*
X200115573Y-69097887D01*
X200219454Y-69108500D01*
X201220542Y-69108500D01*
X201220546Y-69108500D01*
X201324427Y-69097887D01*
X201492739Y-69042115D01*
X201643652Y-68949030D01*
X201769030Y-68823652D01*
X201818559Y-68743352D01*
X201864394Y-68699476D01*
X201925800Y-68683500D01*
X203768650Y-68683500D01*
X203830056Y-68699476D01*
X203875889Y-68743351D01*
X203934396Y-68838205D01*
X203963972Y-68886155D01*
X204089344Y-69011527D01*
X204089346Y-69011528D01*
X204089348Y-69011530D01*
X204240262Y-69104615D01*
X204408574Y-69160387D01*
X204512455Y-69171000D01*
X205563544Y-69170999D01*
X205667426Y-69160387D01*
X205835738Y-69104615D01*
X205986652Y-69011530D01*
X206112030Y-68886152D01*
X206200110Y-68743351D01*
X206245944Y-68699476D01*
X206307350Y-68683500D01*
X206346490Y-68683500D01*
X206397739Y-68694393D01*
X206440126Y-68725189D01*
X206465947Y-68753866D01*
X206620448Y-68866118D01*
X206794912Y-68943794D01*
X206981713Y-68983500D01*
X207172685Y-68983500D01*
X207172687Y-68983500D01*
X207359488Y-68943794D01*
X207533952Y-68866118D01*
X207688453Y-68753866D01*
X207816240Y-68611944D01*
X207911727Y-68446556D01*
X207970742Y-68264928D01*
X207990704Y-68075000D01*
X207970742Y-67885072D01*
X207921760Y-67734322D01*
X207911727Y-67703443D01*
X207816241Y-67538057D01*
X207688452Y-67396133D01*
X207533953Y-67283883D01*
X207533952Y-67283882D01*
X207359488Y-67206206D01*
X207172687Y-67166500D01*
X206981713Y-67166500D01*
X206857178Y-67192970D01*
X206794911Y-67206206D01*
X206620446Y-67283883D01*
X206465947Y-67396133D01*
X206440126Y-67424811D01*
X206397739Y-67455607D01*
X206346490Y-67466500D01*
X206307350Y-67466500D01*
X206245944Y-67450524D01*
X206200110Y-67406648D01*
X206112030Y-67263848D01*
X206112028Y-67263846D01*
X206112027Y-67263844D01*
X205976239Y-67128056D01*
X205978593Y-67125701D01*
X205952943Y-67098910D01*
X205936965Y-67037500D01*
X205952943Y-66976090D01*
X205978593Y-66949298D01*
X205976239Y-66946944D01*
X206112027Y-66811155D01*
X206112027Y-66811154D01*
X206112030Y-66811152D01*
X206200110Y-66668351D01*
X206245944Y-66624476D01*
X206307350Y-66608500D01*
X206358164Y-66608500D01*
X206374607Y-66609577D01*
X206406300Y-66613750D01*
X206446180Y-66608500D01*
X206446185Y-66608500D01*
X206465437Y-66605965D01*
X206508077Y-66607639D01*
X206593513Y-66625800D01*
X206784485Y-66625800D01*
X206784487Y-66625800D01*
X206971288Y-66586094D01*
X207145752Y-66508418D01*
X207300253Y-66396166D01*
X207428040Y-66254244D01*
X207523527Y-66088856D01*
X207582542Y-65907228D01*
X207602504Y-65717300D01*
X207582542Y-65527372D01*
X207538394Y-65391500D01*
X207523527Y-65345743D01*
X207428041Y-65180357D01*
X207313667Y-65053332D01*
X207300253Y-65038434D01*
X207299691Y-65038026D01*
X207203803Y-64968359D01*
X207145752Y-64926182D01*
X206971288Y-64848506D01*
X206784487Y-64808800D01*
X206593513Y-64808800D01*
X206503787Y-64827872D01*
X206406711Y-64848506D01*
X206232246Y-64926183D01*
X206085609Y-65032721D01*
X206040843Y-65053332D01*
X205991596Y-65055195D01*
X205945401Y-65038026D01*
X205936800Y-65032721D01*
X205835738Y-64970385D01*
X205667426Y-64914613D01*
X205563545Y-64904000D01*
X205563540Y-64904000D01*
X204512459Y-64904000D01*
X204408573Y-64914613D01*
X204240262Y-64970385D01*
X204089344Y-65063472D01*
X203963972Y-65188844D01*
X203938150Y-65230708D01*
X203875889Y-65331648D01*
X203830056Y-65375524D01*
X203768650Y-65391500D01*
X201972061Y-65391500D01*
X201910655Y-65375524D01*
X201864820Y-65331647D01*
X201862114Y-65327260D01*
X201769030Y-65176348D01*
X201769028Y-65176346D01*
X201769027Y-65176344D01*
X201643655Y-65050972D01*
X201623328Y-65038434D01*
X201492739Y-64957885D01*
X201324427Y-64902113D01*
X201220546Y-64891500D01*
X200219454Y-64891500D01*
X200115573Y-64902113D01*
X199947261Y-64957885D01*
X199930279Y-64968360D01*
X199796344Y-65050972D01*
X199670972Y-65176344D01*
X199642605Y-65222334D01*
X199577885Y-65327261D01*
X199522113Y-65495573D01*
X199511500Y-65599454D01*
X199511500Y-66400546D01*
X199522113Y-66504427D01*
X199577885Y-66672739D01*
X199635831Y-66766683D01*
X199670972Y-66823655D01*
X199758222Y-66910905D01*
X199790834Y-66967389D01*
X199790834Y-67032611D01*
X199758222Y-67089095D01*
X199670972Y-67176344D01*
X199575180Y-67331647D01*
X199529345Y-67375524D01*
X199467939Y-67391500D01*
X197654061Y-67391500D01*
X197592655Y-67375524D01*
X197546820Y-67331647D01*
X197505001Y-67263848D01*
X197451030Y-67176348D01*
X197451028Y-67176346D01*
X197451027Y-67176344D01*
X197363778Y-67089095D01*
X197331166Y-67032611D01*
X197331166Y-66967389D01*
X197363778Y-66910905D01*
X197451027Y-66823655D01*
X197451030Y-66823652D01*
X197544115Y-66672739D01*
X197599887Y-66504427D01*
X197610500Y-66400546D01*
X197610500Y-65599454D01*
X197599887Y-65495573D01*
X197544115Y-65327261D01*
X197451030Y-65176348D01*
X197451028Y-65176346D01*
X197451027Y-65176344D01*
X197325655Y-65050972D01*
X197305328Y-65038434D01*
X197174739Y-64957885D01*
X197096864Y-64932080D01*
X197051827Y-64905786D01*
X197021294Y-64863503D01*
X197010500Y-64812477D01*
X197010500Y-62973539D01*
X197020091Y-62925321D01*
X197047405Y-62884444D01*
X198645244Y-61286605D01*
X198686121Y-61259291D01*
X198734339Y-61249700D01*
X209612932Y-61249700D01*
X209674338Y-61265676D01*
X209720171Y-61309552D01*
X209742914Y-61346422D01*
X209805972Y-61448655D01*
X209931344Y-61574027D01*
X209931346Y-61574028D01*
X209931348Y-61574030D01*
X210082262Y-61667115D01*
X210250574Y-61722887D01*
X210354455Y-61733500D01*
X211405544Y-61733499D01*
X211509426Y-61722887D01*
X211641074Y-61679263D01*
X211696605Y-61673876D01*
X211749020Y-61692997D01*
X211788040Y-61732877D01*
X211806012Y-61785694D01*
X211806399Y-61789372D01*
X211806458Y-61789929D01*
X211865472Y-61971556D01*
X211960958Y-62136942D01*
X212049532Y-62235313D01*
X212088747Y-62278866D01*
X212243248Y-62391118D01*
X212417712Y-62468794D01*
X212604513Y-62508500D01*
X212795485Y-62508500D01*
X212795487Y-62508500D01*
X212982288Y-62468794D01*
X213156752Y-62391118D01*
X213311253Y-62278866D01*
X213439040Y-62136944D01*
X213534527Y-61971556D01*
X213591252Y-61796973D01*
X213626955Y-61742111D01*
X213685366Y-61712564D01*
X213750715Y-61716306D01*
X213770574Y-61722887D01*
X213874455Y-61733500D01*
X214925544Y-61733499D01*
X215029426Y-61722887D01*
X215197738Y-61667115D01*
X215348652Y-61574030D01*
X215474030Y-61448652D01*
X215562234Y-61305650D01*
X215608066Y-61261776D01*
X215669473Y-61245800D01*
X216749500Y-61245800D01*
X216812500Y-61262681D01*
X216858619Y-61308800D01*
X216875500Y-61371800D01*
X216875500Y-63983300D01*
X216858619Y-64046300D01*
X216812500Y-64092419D01*
X216766106Y-64104850D01*
X216766467Y-64106547D01*
X216753515Y-64109300D01*
X216753513Y-64109300D01*
X216628638Y-64135843D01*
X216566711Y-64149006D01*
X216392246Y-64226683D01*
X216237747Y-64338933D01*
X216109958Y-64480857D01*
X216014472Y-64646243D01*
X215955458Y-64827870D01*
X215951713Y-64863503D01*
X215937790Y-64995972D01*
X215916940Y-65053258D01*
X215871634Y-65094051D01*
X215812481Y-65108800D01*
X210611636Y-65108800D01*
X210595192Y-65107722D01*
X210563500Y-65103550D01*
X210531807Y-65107722D01*
X210515364Y-65108800D01*
X209959710Y-65108800D01*
X209908461Y-65097907D01*
X209866074Y-65067111D01*
X209850026Y-65049288D01*
X209840253Y-65038434D01*
X209839691Y-65038026D01*
X209743803Y-64968359D01*
X209685752Y-64926182D01*
X209511288Y-64848506D01*
X209324487Y-64808800D01*
X209133513Y-64808800D01*
X209043787Y-64827872D01*
X208946711Y-64848506D01*
X208772246Y-64926183D01*
X208617747Y-65038433D01*
X208489958Y-65180357D01*
X208394472Y-65345743D01*
X208335458Y-65527370D01*
X208315496Y-65717299D01*
X208335458Y-65907229D01*
X208394472Y-66088856D01*
X208489958Y-66254242D01*
X208489960Y-66254244D01*
X208617747Y-66396166D01*
X208772248Y-66508418D01*
X208946712Y-66586094D01*
X209133513Y-66625800D01*
X209324485Y-66625800D01*
X209324487Y-66625800D01*
X209511288Y-66586094D01*
X209685752Y-66508418D01*
X209840253Y-66396166D01*
X209866073Y-66367489D01*
X209908461Y-66336693D01*
X209959710Y-66325800D01*
X210259261Y-66325800D01*
X210307479Y-66335391D01*
X210348356Y-66362705D01*
X211419356Y-67433705D01*
X211450094Y-67483864D01*
X211454710Y-67542511D01*
X211432197Y-67596861D01*
X211387464Y-67635067D01*
X211330261Y-67648800D01*
X209959710Y-67648800D01*
X209908461Y-67637907D01*
X209866074Y-67607111D01*
X209840252Y-67578433D01*
X209732638Y-67500247D01*
X209685752Y-67466182D01*
X209511288Y-67388506D01*
X209324487Y-67348800D01*
X209133513Y-67348800D01*
X209043787Y-67367872D01*
X208946711Y-67388506D01*
X208772246Y-67466183D01*
X208617747Y-67578433D01*
X208489958Y-67720357D01*
X208394472Y-67885743D01*
X208335458Y-68067370D01*
X208315496Y-68257300D01*
X208335458Y-68447229D01*
X208394472Y-68628856D01*
X208489958Y-68794242D01*
X208564197Y-68876693D01*
X208617747Y-68936166D01*
X208772248Y-69048418D01*
X208946712Y-69126094D01*
X209133513Y-69165800D01*
X209324485Y-69165800D01*
X209324487Y-69165800D01*
X209511288Y-69126094D01*
X209685752Y-69048418D01*
X209840253Y-68936166D01*
X209866073Y-68907489D01*
X209908461Y-68876693D01*
X209959710Y-68865800D01*
X211367481Y-68865800D01*
X211426634Y-68880549D01*
X211471940Y-68921342D01*
X211492790Y-68978627D01*
X211504338Y-69088500D01*
X211510458Y-69146729D01*
X211569473Y-69328357D01*
X211584425Y-69354256D01*
X211600826Y-69406274D01*
X211593706Y-69460349D01*
X211564400Y-69506349D01*
X211340702Y-69730047D01*
X211282942Y-69762993D01*
X211216455Y-69761949D01*
X211176834Y-69750438D01*
X211162832Y-69749336D01*
X211139502Y-69747500D01*
X209356498Y-69747500D01*
X209333167Y-69749336D01*
X209319166Y-69750438D01*
X209159400Y-69796854D01*
X209016189Y-69881549D01*
X208898549Y-69999189D01*
X208813854Y-70142400D01*
X208767438Y-70302166D01*
X208764500Y-70339503D01*
X208764500Y-70772497D01*
X208767438Y-70809833D01*
X208813854Y-70969599D01*
X208813855Y-70969601D01*
X208891105Y-71100224D01*
X208906650Y-71126508D01*
X208903071Y-71128624D01*
X208920256Y-71158389D01*
X208920256Y-71223611D01*
X208903071Y-71253375D01*
X208906650Y-71255492D01*
X208813854Y-71412400D01*
X208767438Y-71572166D01*
X208767438Y-71572169D01*
X208764500Y-71609498D01*
X208764500Y-72042502D01*
X208766598Y-72069165D01*
X208767438Y-72079833D01*
X208811922Y-72232948D01*
X208813855Y-72239601D01*
X208867637Y-72330542D01*
X208906650Y-72396508D01*
X208903071Y-72398624D01*
X208920256Y-72428389D01*
X208920256Y-72493611D01*
X208903071Y-72523375D01*
X208906650Y-72525492D01*
X208813854Y-72682400D01*
X208767438Y-72842166D01*
X208767438Y-72842169D01*
X208764500Y-72879498D01*
X208764500Y-73312502D01*
X208766452Y-73337300D01*
X208767438Y-73349833D01*
X208801380Y-73466662D01*
X208813855Y-73509601D01*
X208897271Y-73650650D01*
X208906650Y-73666508D01*
X208903189Y-73668554D01*
X208920591Y-73698676D01*
X208920644Y-73763833D01*
X208903464Y-73793681D01*
X208907048Y-73795801D01*
X208814318Y-73952600D01*
X208768007Y-74112000D01*
X210376000Y-74112000D01*
X210439000Y-74128881D01*
X210485119Y-74175000D01*
X210502000Y-74238000D01*
X210502000Y-75173999D01*
X211139454Y-75173999D01*
X211176752Y-75171064D01*
X211336398Y-75124682D01*
X211479501Y-75040052D01*
X211580405Y-74939149D01*
X211630564Y-74908411D01*
X211689211Y-74903795D01*
X211743561Y-74926308D01*
X211781767Y-74971041D01*
X211795500Y-75028244D01*
X211795500Y-75829164D01*
X211794422Y-75845610D01*
X211790250Y-75877299D01*
X211794422Y-75908990D01*
X211794422Y-75908997D01*
X211803049Y-75974527D01*
X211811161Y-76036150D01*
X211872476Y-76184178D01*
X211945521Y-76279372D01*
X211945524Y-76279374D01*
X211970010Y-76311284D01*
X211970011Y-76311285D01*
X211970013Y-76311287D01*
X211995379Y-76330751D01*
X212007769Y-76341618D01*
X214544181Y-78878030D01*
X214555047Y-78890419D01*
X214574513Y-78915787D01*
X214599878Y-78935250D01*
X214599891Y-78935262D01*
X214701622Y-79013323D01*
X214701623Y-79013323D01*
X214701624Y-79013324D01*
X214744419Y-79031050D01*
X214849650Y-79074638D01*
X214976796Y-79091377D01*
X214976810Y-79091378D01*
X215008500Y-79095550D01*
X215040192Y-79091377D01*
X215056636Y-79090300D01*
X219928290Y-79090300D01*
X219979539Y-79101193D01*
X220021926Y-79131989D01*
X220047747Y-79160666D01*
X220202248Y-79272918D01*
X220376712Y-79350594D01*
X220563513Y-79390300D01*
X220754485Y-79390300D01*
X220754487Y-79390300D01*
X220941288Y-79350594D01*
X221115752Y-79272918D01*
X221270253Y-79160666D01*
X221398040Y-79018744D01*
X221493527Y-78853356D01*
X221552542Y-78671728D01*
X221570209Y-78503627D01*
X221591060Y-78446342D01*
X221636366Y-78405549D01*
X221695519Y-78390800D01*
X224067481Y-78390800D01*
X224126634Y-78405549D01*
X224171940Y-78446342D01*
X224192790Y-78503627D01*
X224198267Y-78555736D01*
X224210458Y-78671729D01*
X224269472Y-78853356D01*
X224364958Y-79018742D01*
X224364960Y-79018744D01*
X224492747Y-79160666D01*
X224647248Y-79272918D01*
X224821712Y-79350594D01*
X225008513Y-79390300D01*
X225099761Y-79390300D01*
X225147979Y-79399891D01*
X225188856Y-79427205D01*
X227115181Y-81353530D01*
X227126047Y-81365919D01*
X227145513Y-81391287D01*
X227170877Y-81410750D01*
X227170893Y-81410764D01*
X227272622Y-81488823D01*
X227272623Y-81488823D01*
X227272624Y-81488824D01*
X227420649Y-81550138D01*
X227579500Y-81571051D01*
X227611198Y-81566877D01*
X227627644Y-81565800D01*
X229244761Y-81565800D01*
X229292979Y-81575391D01*
X229333856Y-81602705D01*
X229538595Y-81807444D01*
X229565909Y-81848321D01*
X229575500Y-81896539D01*
X229575500Y-85354164D01*
X229574422Y-85370607D01*
X229573739Y-85375800D01*
X229570250Y-85402299D01*
X229574422Y-85433990D01*
X229574422Y-85433997D01*
X229586445Y-85525323D01*
X229586445Y-85525324D01*
X229591161Y-85561150D01*
X229652476Y-85709178D01*
X229725521Y-85804372D01*
X229725524Y-85804374D01*
X229750010Y-85836284D01*
X229750011Y-85836285D01*
X229750013Y-85836287D01*
X229775379Y-85855751D01*
X229787769Y-85866618D01*
X230301181Y-86380030D01*
X230312047Y-86392419D01*
X230331513Y-86417787D01*
X230356878Y-86437250D01*
X230356891Y-86437262D01*
X230458623Y-86515324D01*
X230509199Y-86536273D01*
X230509200Y-86536273D01*
X230606650Y-86576638D01*
X230733796Y-86593377D01*
X230733810Y-86593378D01*
X230765500Y-86597550D01*
X230797192Y-86593377D01*
X230813636Y-86592300D01*
X230963939Y-86592300D01*
X231025345Y-86608276D01*
X231071180Y-86652153D01*
X231073884Y-86656537D01*
X231073885Y-86656539D01*
X231161389Y-86798404D01*
X231166972Y-86807455D01*
X231292344Y-86932827D01*
X231292346Y-86932828D01*
X231292348Y-86932830D01*
X231443261Y-87025915D01*
X231611573Y-87081687D01*
X231715454Y-87092300D01*
X232716542Y-87092300D01*
X232716546Y-87092300D01*
X232820427Y-87081687D01*
X232988739Y-87025915D01*
X233139652Y-86932830D01*
X233148133Y-86924349D01*
X233170405Y-86902078D01*
X233220564Y-86871340D01*
X233279211Y-86866724D01*
X233333561Y-86889237D01*
X233371767Y-86933970D01*
X233385500Y-86991173D01*
X233385500Y-87542800D01*
X233368619Y-87605800D01*
X233322500Y-87651919D01*
X233259500Y-87668800D01*
X233199013Y-87668800D01*
X233109287Y-87687872D01*
X233012211Y-87708506D01*
X232837746Y-87786183D01*
X232683247Y-87898433D01*
X232657426Y-87927111D01*
X232615039Y-87957907D01*
X232563790Y-87968800D01*
X230979210Y-87968800D01*
X230927961Y-87957907D01*
X230885574Y-87927111D01*
X230859752Y-87898433D01*
X230705253Y-87786183D01*
X230705252Y-87786182D01*
X230530788Y-87708506D01*
X230343987Y-87668800D01*
X230153013Y-87668800D01*
X230063287Y-87687872D01*
X229966211Y-87708506D01*
X229791746Y-87786183D01*
X229637247Y-87898433D01*
X229509458Y-88040357D01*
X229413972Y-88205743D01*
X229354958Y-88387370D01*
X229334996Y-88577299D01*
X229354958Y-88767229D01*
X229413972Y-88948856D01*
X229509458Y-89114242D01*
X229622988Y-89240330D01*
X229637247Y-89256166D01*
X229791748Y-89368418D01*
X229966212Y-89446094D01*
X230153013Y-89485800D01*
X230343985Y-89485800D01*
X230343987Y-89485800D01*
X230530788Y-89446094D01*
X230705252Y-89368418D01*
X230859753Y-89256166D01*
X230885573Y-89227489D01*
X230927961Y-89196693D01*
X230979210Y-89185800D01*
X232563790Y-89185800D01*
X232615039Y-89196693D01*
X232657426Y-89227489D01*
X232683247Y-89256166D01*
X232837748Y-89368418D01*
X233012212Y-89446094D01*
X233199013Y-89485800D01*
X233199015Y-89485800D01*
X233211967Y-89488553D01*
X233211494Y-89490777D01*
X233247964Y-89499533D01*
X233292697Y-89537739D01*
X233315210Y-89592089D01*
X233310594Y-89650736D01*
X233279856Y-89700895D01*
X232808856Y-90171895D01*
X232767979Y-90199209D01*
X232719761Y-90208800D01*
X232628513Y-90208800D01*
X232503978Y-90235270D01*
X232441711Y-90248506D01*
X232267246Y-90326183D01*
X232112747Y-90438433D01*
X231984958Y-90580357D01*
X231889472Y-90745743D01*
X231830458Y-90927370D01*
X231810496Y-91117299D01*
X231816330Y-91172809D01*
X231807358Y-91234367D01*
X231770029Y-91284130D01*
X231713441Y-91309968D01*
X231651388Y-91305584D01*
X231625586Y-91297034D01*
X231575427Y-91280413D01*
X231558112Y-91278644D01*
X231471545Y-91269800D01*
X231471540Y-91269800D01*
X230420459Y-91269800D01*
X230316573Y-91280413D01*
X230148262Y-91336185D01*
X229997344Y-91429272D01*
X229871972Y-91554644D01*
X229852185Y-91586724D01*
X229778885Y-91705562D01*
X229723113Y-91873874D01*
X229717024Y-91933480D01*
X229712500Y-91977759D01*
X229712500Y-92753840D01*
X229717194Y-92799787D01*
X229723113Y-92857726D01*
X229778885Y-93026038D01*
X229830718Y-93110072D01*
X229871972Y-93176955D01*
X230007761Y-93312744D01*
X230005408Y-93315096D01*
X230031062Y-93341900D01*
X230047034Y-93403300D01*
X230031062Y-93464700D01*
X230005408Y-93491503D01*
X230007761Y-93493856D01*
X229871972Y-93629644D01*
X229856248Y-93655137D01*
X229778885Y-93780562D01*
X229723113Y-93948873D01*
X229723113Y-93948874D01*
X229712500Y-94052759D01*
X229712500Y-94828840D01*
X229716728Y-94870227D01*
X229723113Y-94932726D01*
X229778885Y-95101038D01*
X229863241Y-95237800D01*
X229871972Y-95251955D01*
X229997344Y-95377327D01*
X229997346Y-95377328D01*
X229997348Y-95377330D01*
X230146161Y-95469119D01*
X230185784Y-95507887D01*
X230204935Y-95559910D01*
X230205250Y-95562300D01*
X230209422Y-95593994D01*
X230209423Y-95594006D01*
X230218872Y-95665775D01*
X230218872Y-95665776D01*
X230226161Y-95721150D01*
X230287476Y-95869178D01*
X230360521Y-95964372D01*
X230360524Y-95964374D01*
X230385010Y-95996284D01*
X230385011Y-95996285D01*
X230385013Y-95996287D01*
X230410379Y-96015751D01*
X230422769Y-96026618D01*
X230885347Y-96489196D01*
X230902637Y-96510777D01*
X230961998Y-96604316D01*
X230961999Y-96604317D01*
X230962000Y-96604318D01*
X231078679Y-96713886D01*
X231218940Y-96790995D01*
X231218942Y-96790995D01*
X231218943Y-96790996D01*
X231373968Y-96830800D01*
X231373970Y-96830800D01*
X231558600Y-96830800D01*
X231609848Y-96841693D01*
X231652235Y-96872488D01*
X231655546Y-96876166D01*
X231724172Y-96926025D01*
X231810048Y-96988418D01*
X231984512Y-97066094D01*
X232171313Y-97105800D01*
X232171315Y-97105800D01*
X232347782Y-97105800D01*
X232404985Y-97119533D01*
X232449719Y-97157740D01*
X232472231Y-97212091D01*
X232467614Y-97270735D01*
X232466086Y-97275438D01*
X232465458Y-97277371D01*
X232445496Y-97467300D01*
X232465458Y-97657229D01*
X232524472Y-97838856D01*
X232619958Y-98004242D01*
X232718234Y-98113388D01*
X232747747Y-98146166D01*
X232902248Y-98258418D01*
X233076712Y-98336094D01*
X233263513Y-98375800D01*
X233454485Y-98375800D01*
X233454487Y-98375800D01*
X233641288Y-98336094D01*
X233815752Y-98258418D01*
X233970253Y-98146166D01*
X234098040Y-98004244D01*
X234193527Y-97838856D01*
X234252542Y-97657228D01*
X234272504Y-97467300D01*
X234252542Y-97277372D01*
X234237368Y-97230674D01*
X234233955Y-97165542D01*
X234263566Y-97107428D01*
X234318266Y-97071906D01*
X234383398Y-97068493D01*
X234426718Y-97077700D01*
X234558911Y-97105800D01*
X234558913Y-97105800D01*
X234749885Y-97105800D01*
X234749887Y-97105800D01*
X234936688Y-97066094D01*
X235111152Y-96988418D01*
X235265653Y-96876166D01*
X235268964Y-96872488D01*
X235311352Y-96841693D01*
X235362600Y-96830800D01*
X236874000Y-96830800D01*
X236937000Y-96847681D01*
X236983119Y-96893800D01*
X237000000Y-96956800D01*
X237000000Y-105874000D01*
X236983119Y-105937000D01*
X236937000Y-105983119D01*
X236874000Y-106000000D01*
X180126000Y-106000000D01*
X180063000Y-105983119D01*
X180016881Y-105937000D01*
X180000000Y-105874000D01*
X180000000Y-102600000D01*
X208786496Y-102600000D01*
X208806458Y-102789929D01*
X208865472Y-102971556D01*
X208960958Y-103136942D01*
X208982664Y-103161049D01*
X209088747Y-103278866D01*
X209243248Y-103391118D01*
X209417712Y-103468794D01*
X209604513Y-103508500D01*
X209795485Y-103508500D01*
X209795487Y-103508500D01*
X209982288Y-103468794D01*
X210156752Y-103391118D01*
X210311253Y-103278866D01*
X210384526Y-103197487D01*
X210426911Y-103166693D01*
X210478160Y-103155800D01*
X223785864Y-103155800D01*
X223802307Y-103156877D01*
X223834000Y-103161050D01*
X223865693Y-103156877D01*
X223865703Y-103156877D01*
X223873884Y-103155800D01*
X223873885Y-103155800D01*
X223973456Y-103142691D01*
X223992851Y-103140138D01*
X224140876Y-103078824D01*
X224236072Y-103005777D01*
X224236072Y-103005776D01*
X224252629Y-102993072D01*
X224252632Y-102993069D01*
X224253546Y-102992367D01*
X224267987Y-102981287D01*
X224287455Y-102955915D01*
X224298304Y-102943544D01*
X224865239Y-102376608D01*
X224877624Y-102365748D01*
X224902987Y-102346287D01*
X224916948Y-102328091D01*
X224916952Y-102328088D01*
X225000523Y-102219177D01*
X225000522Y-102219177D01*
X225000524Y-102219176D01*
X225061838Y-102071151D01*
X225082751Y-101912300D01*
X225078577Y-101880601D01*
X225077500Y-101864156D01*
X225077500Y-91421539D01*
X225087091Y-91373321D01*
X225114402Y-91332446D01*
X227030854Y-89415994D01*
X227072744Y-89388268D01*
X227122143Y-89379112D01*
X227171188Y-89389985D01*
X227297212Y-89446094D01*
X227484013Y-89485800D01*
X227674985Y-89485800D01*
X227674987Y-89485800D01*
X227861788Y-89446094D01*
X228036252Y-89368418D01*
X228190753Y-89256166D01*
X228318540Y-89114244D01*
X228414027Y-88948856D01*
X228473042Y-88767228D01*
X228493004Y-88577300D01*
X228473042Y-88387372D01*
X228414027Y-88205744D01*
X228414027Y-88205743D01*
X228318541Y-88040357D01*
X228190752Y-87898433D01*
X228036253Y-87786183D01*
X228036252Y-87786182D01*
X227861788Y-87708506D01*
X227674987Y-87668800D01*
X227484013Y-87668800D01*
X227394287Y-87687872D01*
X227297211Y-87708506D01*
X227122746Y-87786183D01*
X226968246Y-87898433D01*
X226927354Y-87943849D01*
X226892388Y-87971044D01*
X226850171Y-87984458D01*
X226850153Y-87984460D01*
X226702126Y-88045775D01*
X226702124Y-88045776D01*
X226702125Y-88045776D01*
X226697110Y-88049624D01*
X226697108Y-88049625D01*
X226697105Y-88049627D01*
X226606928Y-88118823D01*
X226606930Y-88118821D01*
X226575011Y-88143314D01*
X226555545Y-88168681D01*
X226544681Y-88181068D01*
X224072767Y-90652982D01*
X224060380Y-90663847D01*
X224035012Y-90683313D01*
X224007973Y-90718551D01*
X224007950Y-90718579D01*
X223937476Y-90810422D01*
X223878436Y-90952958D01*
X223876161Y-90958450D01*
X223859422Y-91085603D01*
X223859422Y-91085609D01*
X223855250Y-91117300D01*
X223858622Y-91142918D01*
X223859422Y-91148990D01*
X223860500Y-91165436D01*
X223860500Y-101608061D01*
X223850909Y-101656279D01*
X223823595Y-101697156D01*
X223618856Y-101901895D01*
X223577979Y-101929209D01*
X223529761Y-101938800D01*
X210376507Y-101938800D01*
X210337571Y-101932633D01*
X210302449Y-101914737D01*
X210156752Y-101808882D01*
X209982288Y-101731206D01*
X209795487Y-101691500D01*
X209604513Y-101691500D01*
X209479979Y-101717970D01*
X209417711Y-101731206D01*
X209243246Y-101808883D01*
X209088747Y-101921133D01*
X208960958Y-102063057D01*
X208865472Y-102228443D01*
X208806458Y-102410070D01*
X208786496Y-102600000D01*
X180000000Y-102600000D01*
X180000000Y-99240000D01*
X196406496Y-99240000D01*
X196426458Y-99429929D01*
X196485472Y-99611556D01*
X196580958Y-99776942D01*
X196580960Y-99776944D01*
X196708747Y-99918866D01*
X196863248Y-100031118D01*
X197037712Y-100108794D01*
X197224513Y-100148500D01*
X197415485Y-100148500D01*
X197415487Y-100148500D01*
X197602288Y-100108794D01*
X197776752Y-100031118D01*
X197931253Y-99918866D01*
X198059040Y-99776944D01*
X198154527Y-99611556D01*
X198213542Y-99429928D01*
X198233504Y-99240000D01*
X198213542Y-99050072D01*
X198154527Y-98868444D01*
X198154527Y-98868443D01*
X198059041Y-98703057D01*
X197931252Y-98561133D01*
X197776753Y-98448883D01*
X197776752Y-98448882D01*
X197602288Y-98371206D01*
X197415487Y-98331500D01*
X197224513Y-98331500D01*
X197101746Y-98357595D01*
X197037711Y-98371206D01*
X196863246Y-98448883D01*
X196708747Y-98561133D01*
X196580958Y-98703057D01*
X196485472Y-98868443D01*
X196426458Y-99050070D01*
X196406496Y-99240000D01*
X180000000Y-99240000D01*
X180000000Y-93110000D01*
X197546496Y-93110000D01*
X197566458Y-93299929D01*
X197625472Y-93481556D01*
X197720958Y-93646942D01*
X197720960Y-93646944D01*
X197848747Y-93788866D01*
X198003248Y-93901118D01*
X198177712Y-93978794D01*
X198364513Y-94018500D01*
X198555485Y-94018500D01*
X198555487Y-94018500D01*
X198742288Y-93978794D01*
X198916752Y-93901118D01*
X199071253Y-93788866D01*
X199199040Y-93646944D01*
X199294527Y-93481556D01*
X199353542Y-93299928D01*
X199373504Y-93110000D01*
X199353542Y-92920072D01*
X199294527Y-92738444D01*
X199239380Y-92642927D01*
X199222500Y-92579929D01*
X199222500Y-91498028D01*
X199232091Y-91449810D01*
X199259405Y-91408932D01*
X199408934Y-91259404D01*
X199449811Y-91232091D01*
X199498029Y-91222500D01*
X202755271Y-91222500D01*
X202773531Y-91223830D01*
X202779503Y-91224704D01*
X202797672Y-91227366D01*
X202847815Y-91222979D01*
X202858797Y-91222500D01*
X202864411Y-91222500D01*
X202864412Y-91222500D01*
X202895688Y-91218843D01*
X202899318Y-91218472D01*
X202975240Y-91211831D01*
X202975245Y-91211829D01*
X202976528Y-91211717D01*
X202995827Y-91207439D01*
X202997037Y-91206998D01*
X202997042Y-91206998D01*
X203068703Y-91180915D01*
X203072052Y-91179751D01*
X203144440Y-91155765D01*
X203144446Y-91155761D01*
X203145663Y-91155358D01*
X203163463Y-91146741D01*
X203164536Y-91146034D01*
X203164539Y-91146034D01*
X203228253Y-91104128D01*
X203231264Y-91102209D01*
X203296149Y-91062188D01*
X203296149Y-91062187D01*
X203297248Y-91061510D01*
X203312578Y-91049022D01*
X203365768Y-90992643D01*
X203368289Y-90990046D01*
X204007405Y-90350931D01*
X204021243Y-90338972D01*
X204040822Y-90324398D01*
X204073178Y-90285835D01*
X204080608Y-90277729D01*
X204084573Y-90273765D01*
X204104123Y-90249038D01*
X204106395Y-90246248D01*
X204155396Y-90187853D01*
X204155398Y-90187848D01*
X204156227Y-90186861D01*
X204166847Y-90170192D01*
X204167391Y-90169024D01*
X204167395Y-90169020D01*
X204199630Y-90099889D01*
X204201166Y-90096715D01*
X204235394Y-90028566D01*
X204235395Y-90028560D01*
X204235971Y-90027414D01*
X204242463Y-90008739D01*
X204242723Y-90007477D01*
X204242725Y-90007474D01*
X204258135Y-89932837D01*
X204258920Y-89929297D01*
X204268901Y-89887185D01*
X204276500Y-89855123D01*
X204276500Y-89855122D01*
X204276795Y-89853877D01*
X204278806Y-89834196D01*
X204278723Y-89831346D01*
X204276552Y-89756745D01*
X204276500Y-89753082D01*
X204276500Y-89227173D01*
X204290233Y-89169970D01*
X204328439Y-89125237D01*
X204382789Y-89102724D01*
X204441436Y-89107340D01*
X204491595Y-89138078D01*
X204622344Y-89268827D01*
X204622346Y-89268828D01*
X204622348Y-89268830D01*
X204773261Y-89361915D01*
X204941573Y-89417687D01*
X205045454Y-89428300D01*
X206046542Y-89428300D01*
X206046546Y-89428300D01*
X206150427Y-89417687D01*
X206318739Y-89361915D01*
X206469652Y-89268830D01*
X206519655Y-89218827D01*
X206594278Y-89144205D01*
X206635155Y-89116891D01*
X206683373Y-89107300D01*
X207673638Y-89107300D01*
X207735039Y-89123273D01*
X207760986Y-89148108D01*
X207763556Y-89145539D01*
X207899344Y-89281327D01*
X207899346Y-89281328D01*
X207899348Y-89281330D01*
X208050262Y-89374415D01*
X208218574Y-89430187D01*
X208322455Y-89440800D01*
X209373544Y-89440799D01*
X209477426Y-89430187D01*
X209645738Y-89374415D01*
X209796652Y-89281330D01*
X209922030Y-89155952D01*
X209951099Y-89108824D01*
X209961383Y-89092152D01*
X210007217Y-89048276D01*
X210068623Y-89032300D01*
X210738928Y-89032300D01*
X210800334Y-89048276D01*
X210846168Y-89092153D01*
X210846969Y-89093452D01*
X210972344Y-89218827D01*
X210972346Y-89218828D01*
X210972348Y-89218830D01*
X211123261Y-89311915D01*
X211291573Y-89367687D01*
X211395454Y-89378300D01*
X212396542Y-89378300D01*
X212396546Y-89378300D01*
X212500427Y-89367687D01*
X212668739Y-89311915D01*
X212819652Y-89218830D01*
X212945030Y-89093452D01*
X212945030Y-89093451D01*
X212945832Y-89092153D01*
X212991666Y-89048276D01*
X213053072Y-89032300D01*
X213990639Y-89032300D01*
X214052045Y-89048276D01*
X214097879Y-89092152D01*
X214111506Y-89114244D01*
X214123972Y-89134455D01*
X214249344Y-89259827D01*
X214249346Y-89259828D01*
X214249348Y-89259830D01*
X214319062Y-89302830D01*
X214324847Y-89306398D01*
X214368724Y-89352233D01*
X214384700Y-89413639D01*
X214384700Y-89672829D01*
X214367819Y-89735827D01*
X214348017Y-89770127D01*
X214312671Y-89831346D01*
X214253658Y-90012970D01*
X214253657Y-90012972D01*
X214253658Y-90012972D01*
X214233696Y-90202900D01*
X214246653Y-90326183D01*
X214251220Y-90369630D01*
X214239158Y-90438035D01*
X214192680Y-90489654D01*
X214125910Y-90508800D01*
X213134710Y-90508800D01*
X213083461Y-90497907D01*
X213041074Y-90467111D01*
X213015252Y-90438433D01*
X212920553Y-90369630D01*
X212860752Y-90326182D01*
X212686288Y-90248506D01*
X212499487Y-90208800D01*
X212308513Y-90208800D01*
X212183978Y-90235270D01*
X212121711Y-90248506D01*
X211947246Y-90326183D01*
X211792747Y-90438433D01*
X211664958Y-90580357D01*
X211569472Y-90745743D01*
X211510458Y-90927370D01*
X211493827Y-91085603D01*
X211490496Y-91117300D01*
X211492995Y-91141076D01*
X211510458Y-91307229D01*
X211569472Y-91488856D01*
X211664958Y-91654242D01*
X211703860Y-91697447D01*
X211792747Y-91796166D01*
X211947248Y-91908418D01*
X212121712Y-91986094D01*
X212308513Y-92025800D01*
X212499485Y-92025800D01*
X212499487Y-92025800D01*
X212686288Y-91986094D01*
X212860752Y-91908418D01*
X213015253Y-91796166D01*
X213041073Y-91767489D01*
X213083461Y-91736693D01*
X213134710Y-91725800D01*
X218906961Y-91725800D01*
X218955179Y-91735391D01*
X218996056Y-91762705D01*
X219342095Y-92108744D01*
X219369409Y-92149621D01*
X219379000Y-92197839D01*
X219379000Y-94295230D01*
X219364298Y-94354295D01*
X219323624Y-94399577D01*
X219283004Y-94414452D01*
X219283127Y-94414781D01*
X219268300Y-94420310D01*
X219268299Y-94420311D01*
X219214537Y-94440363D01*
X219131294Y-94471411D01*
X219014238Y-94559038D01*
X218926611Y-94676094D01*
X218892949Y-94766346D01*
X218875511Y-94813099D01*
X218869000Y-94873662D01*
X218869000Y-95620938D01*
X218875426Y-95680714D01*
X218876429Y-95690037D01*
X218882249Y-95722295D01*
X218876429Y-95754561D01*
X218869000Y-95823662D01*
X218869000Y-96570938D01*
X218876428Y-96640036D01*
X218882249Y-96672298D01*
X218876428Y-96704564D01*
X218869000Y-96773662D01*
X218869000Y-97520938D01*
X218875511Y-97581500D01*
X218926611Y-97718505D01*
X219014238Y-97835561D01*
X219102899Y-97901932D01*
X219142004Y-97950458D01*
X219153069Y-98011789D01*
X219133388Y-98070921D01*
X219087775Y-98113388D01*
X219027390Y-98128800D01*
X218326776Y-98128800D01*
X218266391Y-98113388D01*
X218220778Y-98070921D01*
X218201097Y-98011789D01*
X218212162Y-97950458D01*
X218251267Y-97901932D01*
X218340404Y-97835204D01*
X218427945Y-97718262D01*
X218478994Y-97581393D01*
X218485500Y-97520889D01*
X218485500Y-97401300D01*
X216249500Y-97401300D01*
X216249500Y-97520889D01*
X216256005Y-97581393D01*
X216307054Y-97718262D01*
X216394595Y-97835204D01*
X216483733Y-97901932D01*
X216522838Y-97950458D01*
X216533903Y-98011789D01*
X216514222Y-98070921D01*
X216468609Y-98113388D01*
X216408224Y-98128800D01*
X214817064Y-98128800D01*
X214754700Y-98112284D01*
X214708685Y-98067065D01*
X214691083Y-98004999D01*
X214706508Y-97942356D01*
X214750917Y-97895559D01*
X214790842Y-97870932D01*
X214916132Y-97745642D01*
X215009159Y-97594822D01*
X215064893Y-97426628D01*
X215075500Y-97322803D01*
X215075500Y-96593728D01*
X215089233Y-96536525D01*
X215127439Y-96491792D01*
X215181789Y-96469279D01*
X215240436Y-96473895D01*
X215290594Y-96504632D01*
X215385335Y-96599373D01*
X215476662Y-96690700D01*
X215488629Y-96704547D01*
X215495155Y-96713313D01*
X215503202Y-96724122D01*
X215541762Y-96756477D01*
X215549859Y-96763897D01*
X215553835Y-96767873D01*
X215578552Y-96787417D01*
X215581367Y-96789709D01*
X215632124Y-96832300D01*
X215640739Y-96839528D01*
X215657418Y-96850153D01*
X215658579Y-96850694D01*
X215658580Y-96850695D01*
X215727682Y-96882917D01*
X215730883Y-96884466D01*
X215799034Y-96918694D01*
X215800185Y-96919272D01*
X215818864Y-96925764D01*
X215820124Y-96926024D01*
X215820126Y-96926025D01*
X215894827Y-96941448D01*
X215898245Y-96942206D01*
X215972477Y-96959800D01*
X215972480Y-96959800D01*
X215973729Y-96960096D01*
X215993403Y-96962106D01*
X215994689Y-96962068D01*
X215994691Y-96962069D01*
X216070854Y-96959852D01*
X216074518Y-96959800D01*
X216452665Y-96959800D01*
X216496697Y-96967744D01*
X216511296Y-96973189D01*
X216648299Y-97024289D01*
X216708862Y-97030800D01*
X218026138Y-97030800D01*
X218086701Y-97024289D01*
X218223704Y-96973189D01*
X218296851Y-96918430D01*
X218332569Y-96899748D01*
X218372360Y-96893300D01*
X218485500Y-96893300D01*
X218485500Y-96773710D01*
X218477903Y-96703054D01*
X218472483Y-96673013D01*
X218478773Y-96638152D01*
X218479487Y-96631504D01*
X218479489Y-96631501D01*
X218486000Y-96570938D01*
X218486000Y-95823662D01*
X218485445Y-95818504D01*
X218480077Y-95768572D01*
X218479489Y-95763099D01*
X218479487Y-95763096D01*
X218478773Y-95756447D01*
X218472483Y-95721581D01*
X218477903Y-95691544D01*
X218485500Y-95620890D01*
X218485500Y-95501300D01*
X218372360Y-95501300D01*
X218332569Y-95494852D01*
X218296851Y-95476169D01*
X218223704Y-95421411D01*
X218223703Y-95421410D01*
X218105511Y-95377327D01*
X218086701Y-95370311D01*
X218026138Y-95363800D01*
X217239500Y-95363800D01*
X217176500Y-95346919D01*
X217130381Y-95300800D01*
X217113500Y-95237800D01*
X217113500Y-94414300D01*
X217621500Y-94414300D01*
X217621500Y-94993300D01*
X218485500Y-94993300D01*
X218485500Y-94873711D01*
X218478994Y-94813206D01*
X218427945Y-94676337D01*
X218340404Y-94559395D01*
X218223462Y-94471854D01*
X218086593Y-94420805D01*
X218026089Y-94414300D01*
X217621500Y-94414300D01*
X217113500Y-94414300D01*
X216708911Y-94414300D01*
X216648404Y-94420805D01*
X216587731Y-94443435D01*
X216527996Y-94450397D01*
X216471839Y-94428878D01*
X216432052Y-94383781D01*
X216417700Y-94325379D01*
X216417700Y-93780971D01*
X216434580Y-93717972D01*
X216489727Y-93622456D01*
X216548742Y-93440828D01*
X216568704Y-93250900D01*
X216548742Y-93060972D01*
X216515491Y-92958638D01*
X216489727Y-92879343D01*
X216394241Y-92713957D01*
X216266452Y-92572033D01*
X216111953Y-92459783D01*
X216111952Y-92459782D01*
X215937488Y-92382106D01*
X215750687Y-92342400D01*
X215559713Y-92342400D01*
X215435179Y-92368870D01*
X215372911Y-92382106D01*
X215198446Y-92459783D01*
X215043947Y-92572033D01*
X214916158Y-92713957D01*
X214820672Y-92879343D01*
X214761658Y-93060970D01*
X214741696Y-93250900D01*
X214761658Y-93440829D01*
X214820671Y-93622453D01*
X214820673Y-93622456D01*
X214875819Y-93717972D01*
X214892700Y-93780971D01*
X214892700Y-94360736D01*
X214875358Y-94424528D01*
X214828106Y-94470760D01*
X214763951Y-94486706D01*
X214700553Y-94467977D01*
X214640021Y-94430640D01*
X214471828Y-94374906D01*
X214368003Y-94364300D01*
X214109000Y-94364300D01*
X214109000Y-96325300D01*
X214092119Y-96388300D01*
X214046000Y-96434419D01*
X213983000Y-96451300D01*
X212634500Y-96451300D01*
X212634500Y-97322803D01*
X212645106Y-97426628D01*
X212700840Y-97594822D01*
X212793867Y-97745642D01*
X212919157Y-97870932D01*
X212959083Y-97895559D01*
X213003492Y-97942356D01*
X213018917Y-98004999D01*
X213001315Y-98067065D01*
X212955300Y-98112284D01*
X212892936Y-98128800D01*
X211843017Y-98128800D01*
X211780653Y-98112284D01*
X211734638Y-98067065D01*
X211717036Y-98004999D01*
X211732462Y-97942356D01*
X211776868Y-97895560D01*
X211816152Y-97871330D01*
X211941530Y-97745952D01*
X212034615Y-97595038D01*
X212090387Y-97426726D01*
X212101000Y-97322845D01*
X212100999Y-95943300D01*
X212634500Y-95943300D01*
X213601000Y-95943300D01*
X213601000Y-94364300D01*
X213341997Y-94364300D01*
X213238171Y-94374906D01*
X213069977Y-94430640D01*
X212919157Y-94523667D01*
X212793867Y-94648957D01*
X212700840Y-94799777D01*
X212645106Y-94967971D01*
X212634500Y-95071797D01*
X212634500Y-95943300D01*
X212100999Y-95943300D01*
X212100999Y-95071756D01*
X212090387Y-94967874D01*
X212034615Y-94799562D01*
X211941530Y-94648648D01*
X211941528Y-94648646D01*
X211941527Y-94648644D01*
X211816155Y-94523272D01*
X211816152Y-94523270D01*
X211665238Y-94430185D01*
X211496926Y-94374413D01*
X211393045Y-94363800D01*
X211393040Y-94363800D01*
X210366959Y-94363800D01*
X210263073Y-94374413D01*
X210094762Y-94430185D01*
X209943844Y-94523272D01*
X209818472Y-94648644D01*
X209818470Y-94648648D01*
X209725385Y-94799562D01*
X209669613Y-94967874D01*
X209662558Y-95036935D01*
X209659000Y-95071759D01*
X209659000Y-95539386D01*
X209649409Y-95587604D01*
X209622096Y-95628481D01*
X209581220Y-95655794D01*
X209557123Y-95665775D01*
X209462696Y-95738232D01*
X209462476Y-95738402D01*
X209430011Y-95763314D01*
X209410545Y-95788681D01*
X209399681Y-95801068D01*
X208832767Y-96367982D01*
X208820380Y-96378847D01*
X208795012Y-96398313D01*
X208767973Y-96433551D01*
X208767950Y-96433579D01*
X208697476Y-96525422D01*
X208637353Y-96670573D01*
X208637252Y-96670817D01*
X208637242Y-96670841D01*
X208636161Y-96673450D01*
X208619422Y-96800603D01*
X208619422Y-96800610D01*
X208615250Y-96832299D01*
X208619422Y-96863990D01*
X208620500Y-96880436D01*
X208620500Y-98054164D01*
X208619422Y-98070610D01*
X208615250Y-98102299D01*
X208619422Y-98133990D01*
X208619422Y-98133997D01*
X208628872Y-98205775D01*
X208628873Y-98205781D01*
X208630469Y-98217908D01*
X208623176Y-98279507D01*
X208587375Y-98330161D01*
X208531743Y-98357595D01*
X208467715Y-98371204D01*
X208293246Y-98448883D01*
X208138747Y-98561133D01*
X208010958Y-98703057D01*
X207915472Y-98868443D01*
X207856458Y-99050070D01*
X207836496Y-99240000D01*
X207856458Y-99429929D01*
X207915472Y-99611556D01*
X208010958Y-99776942D01*
X208010960Y-99776944D01*
X208138747Y-99918866D01*
X208293248Y-100031118D01*
X208467712Y-100108794D01*
X208654513Y-100148500D01*
X208845485Y-100148500D01*
X208845487Y-100148500D01*
X209032288Y-100108794D01*
X209206752Y-100031118D01*
X209361253Y-99918866D01*
X209489040Y-99776944D01*
X209584527Y-99611556D01*
X209643542Y-99429928D01*
X209643542Y-99429926D01*
X209644780Y-99426117D01*
X209674744Y-99376738D01*
X209723592Y-99345918D01*
X209781056Y-99340131D01*
X209864000Y-99351051D01*
X209895698Y-99346877D01*
X209912144Y-99345800D01*
X220610864Y-99345800D01*
X220627307Y-99346877D01*
X220659000Y-99351050D01*
X220690693Y-99346877D01*
X220690703Y-99346877D01*
X220698884Y-99345800D01*
X220698885Y-99345800D01*
X220798456Y-99332691D01*
X220817851Y-99330138D01*
X220965876Y-99268824D01*
X221061072Y-99195777D01*
X221061072Y-99195776D01*
X221077629Y-99183072D01*
X221077632Y-99183069D01*
X221078546Y-99182367D01*
X221092987Y-99171287D01*
X221112457Y-99145911D01*
X221123309Y-99133538D01*
X221690235Y-98566612D01*
X221702619Y-98555752D01*
X221702788Y-98555622D01*
X221727987Y-98536287D01*
X221741948Y-98518091D01*
X221741952Y-98518088D01*
X221795056Y-98448883D01*
X221825524Y-98409176D01*
X221886838Y-98261151D01*
X221907751Y-98102300D01*
X221903577Y-98070601D01*
X221902500Y-98054156D01*
X221902500Y-97515436D01*
X221903578Y-97498990D01*
X221903710Y-97497981D01*
X221907750Y-97467300D01*
X221903578Y-97435610D01*
X221903578Y-97435603D01*
X221886838Y-97308450D01*
X221873964Y-97277370D01*
X221825524Y-97160425D01*
X221794147Y-97119533D01*
X221783609Y-97105799D01*
X221783610Y-97105801D01*
X221754535Y-97067910D01*
X221752477Y-97065228D01*
X221752476Y-97065227D01*
X221747450Y-97058677D01*
X221747450Y-97058676D01*
X221747443Y-97058669D01*
X221727987Y-97033312D01*
X221702618Y-97013846D01*
X221690228Y-97002979D01*
X221438315Y-96751066D01*
X221427448Y-96738675D01*
X221407986Y-96713311D01*
X221376075Y-96688825D01*
X221371489Y-96685306D01*
X221329792Y-96628438D01*
X221325180Y-96558072D01*
X221359096Y-96496251D01*
X221690235Y-96165112D01*
X221702619Y-96154252D01*
X221727137Y-96135439D01*
X221727987Y-96134787D01*
X221752474Y-96102874D01*
X221752477Y-96102872D01*
X221825524Y-96007676D01*
X221886838Y-95859651D01*
X221892255Y-95818504D01*
X221902500Y-95740685D01*
X221903578Y-95732497D01*
X221903578Y-95732490D01*
X221907750Y-95700800D01*
X221903577Y-95669107D01*
X221902500Y-95652664D01*
X221902500Y-89549607D01*
X221913294Y-89498582D01*
X221943827Y-89456299D01*
X221988865Y-89430002D01*
X222091738Y-89395915D01*
X222242652Y-89302830D01*
X222368030Y-89177452D01*
X222461115Y-89026538D01*
X222516887Y-88858226D01*
X222527500Y-88754345D01*
X222527499Y-87978256D01*
X222516887Y-87874374D01*
X222461115Y-87706062D01*
X222368030Y-87555148D01*
X222368028Y-87555146D01*
X222368027Y-87555144D01*
X222232239Y-87419356D01*
X222234493Y-87417101D01*
X222208451Y-87389889D01*
X222192488Y-87328471D01*
X222208484Y-87267062D01*
X222234246Y-87240169D01*
X222231926Y-87237849D01*
X222367632Y-87102142D01*
X222460659Y-86951322D01*
X222516393Y-86783128D01*
X222527000Y-86679303D01*
X222527000Y-86545300D01*
X221166000Y-86545300D01*
X221103000Y-86528419D01*
X221056881Y-86482300D01*
X221040000Y-86419300D01*
X221040000Y-85195800D01*
X221548000Y-85195800D01*
X221548000Y-86037300D01*
X222527000Y-86037300D01*
X222527000Y-85903297D01*
X222516393Y-85799471D01*
X222460659Y-85631277D01*
X222367632Y-85480457D01*
X222242342Y-85355167D01*
X222091522Y-85262140D01*
X221923328Y-85206406D01*
X221819503Y-85195800D01*
X221548000Y-85195800D01*
X221040000Y-85195800D01*
X220768497Y-85195800D01*
X220664671Y-85206406D01*
X220496477Y-85262140D01*
X220345658Y-85355167D01*
X220341856Y-85358969D01*
X220289336Y-85390446D01*
X220228179Y-85393448D01*
X220172828Y-85367267D01*
X220136355Y-85318087D01*
X220131524Y-85306424D01*
X220131523Y-85306423D01*
X220131522Y-85306420D01*
X220053457Y-85204685D01*
X220053443Y-85204669D01*
X220033987Y-85179312D01*
X220008618Y-85159846D01*
X219996228Y-85148979D01*
X219218315Y-84371066D01*
X219207448Y-84358675D01*
X219187986Y-84333311D01*
X219156074Y-84308824D01*
X219156074Y-84308825D01*
X219156072Y-84308823D01*
X219079709Y-84250227D01*
X219060875Y-84235775D01*
X218956204Y-84192419D01*
X218912851Y-84174462D01*
X218912850Y-84174461D01*
X218912848Y-84174461D01*
X218893468Y-84171908D01*
X218893456Y-84171908D01*
X218879469Y-84170066D01*
X218785703Y-84157722D01*
X218785691Y-84157722D01*
X218754000Y-84153550D01*
X218722307Y-84157722D01*
X218705864Y-84158800D01*
X210125450Y-84158800D01*
X210058414Y-84139487D01*
X210011928Y-84087469D01*
X210000242Y-84018694D01*
X210013616Y-83900000D01*
X209993217Y-83718953D01*
X209933043Y-83546985D01*
X209899305Y-83493292D01*
X209836110Y-83392717D01*
X209707282Y-83263889D01*
X209553014Y-83166956D01*
X209381049Y-83106783D01*
X209260348Y-83093183D01*
X209200000Y-83086384D01*
X209199999Y-83086384D01*
X209018950Y-83106783D01*
X208846985Y-83166956D01*
X208692717Y-83263889D01*
X208563889Y-83392717D01*
X208466956Y-83546985D01*
X208406783Y-83718950D01*
X208386384Y-83899999D01*
X208386384Y-83900000D01*
X208399757Y-84018694D01*
X208388072Y-84087469D01*
X208341586Y-84139487D01*
X208274550Y-84158800D01*
X202292136Y-84158800D01*
X202275690Y-84157722D01*
X202244000Y-84153550D01*
X202212310Y-84157722D01*
X202212296Y-84157722D01*
X202085150Y-84174461D01*
X202006896Y-84206876D01*
X201937122Y-84235776D01*
X201845279Y-84306250D01*
X201845251Y-84306273D01*
X201810010Y-84333314D01*
X201790545Y-84358681D01*
X201779681Y-84371068D01*
X201593767Y-84556982D01*
X201581380Y-84567847D01*
X201556012Y-84587313D01*
X201528973Y-84622551D01*
X201528950Y-84622579D01*
X201458476Y-84714422D01*
X201400537Y-84854300D01*
X201400536Y-84854302D01*
X201397161Y-84862450D01*
X201380422Y-84989603D01*
X201380422Y-84989610D01*
X201376250Y-85021300D01*
X201379861Y-85048734D01*
X201374153Y-85105969D01*
X201343602Y-85154704D01*
X201294573Y-85184782D01*
X201192264Y-85218684D01*
X201041344Y-85311772D01*
X200915972Y-85437144D01*
X200874396Y-85504550D01*
X200822885Y-85588062D01*
X200767113Y-85756374D01*
X200756961Y-85855751D01*
X200756500Y-85860259D01*
X200756500Y-86636340D01*
X200766243Y-86731714D01*
X200767113Y-86740226D01*
X200822885Y-86908538D01*
X200887626Y-87013499D01*
X200915972Y-87059455D01*
X201051761Y-87195244D01*
X201049408Y-87197596D01*
X201075062Y-87224400D01*
X201091034Y-87285800D01*
X201075062Y-87347200D01*
X201049408Y-87374003D01*
X201051761Y-87376356D01*
X200915972Y-87512144D01*
X200889447Y-87555148D01*
X200822885Y-87663062D01*
X200767113Y-87831374D01*
X200758380Y-87916861D01*
X200756500Y-87935259D01*
X200756500Y-88711340D01*
X200762210Y-88767228D01*
X200767113Y-88815226D01*
X200822885Y-88983538D01*
X200903506Y-89114244D01*
X200915972Y-89134455D01*
X201041344Y-89259827D01*
X201041346Y-89259828D01*
X201041348Y-89259830D01*
X201192262Y-89352915D01*
X201360574Y-89408687D01*
X201464455Y-89419300D01*
X202478172Y-89419299D01*
X202535374Y-89433032D01*
X202580108Y-89471237D01*
X202602620Y-89525587D01*
X202598006Y-89584233D01*
X202567268Y-89634393D01*
X202541065Y-89660596D01*
X202500191Y-89687908D01*
X202451972Y-89697500D01*
X199194729Y-89697500D01*
X199176469Y-89696170D01*
X199152329Y-89692634D01*
X199152328Y-89692634D01*
X199111911Y-89696170D01*
X199102184Y-89697021D01*
X199091203Y-89697500D01*
X199085588Y-89697500D01*
X199056536Y-89700895D01*
X199054302Y-89701156D01*
X199050663Y-89701527D01*
X198973492Y-89708279D01*
X198954153Y-89712566D01*
X198881341Y-89739067D01*
X198877883Y-89740269D01*
X198804347Y-89764637D01*
X198786528Y-89773263D01*
X198721786Y-89815845D01*
X198718696Y-89817813D01*
X198652764Y-89858481D01*
X198637412Y-89870987D01*
X198584228Y-89927357D01*
X198581676Y-89929984D01*
X197966602Y-90545058D01*
X197952754Y-90557027D01*
X197933180Y-90571600D01*
X197933178Y-90571601D01*
X197933178Y-90571602D01*
X197900821Y-90610163D01*
X197893406Y-90618255D01*
X197889426Y-90622235D01*
X197869885Y-90646947D01*
X197867576Y-90649781D01*
X197817783Y-90709124D01*
X197807142Y-90725825D01*
X197774394Y-90796053D01*
X197772798Y-90799350D01*
X197738032Y-90868574D01*
X197731535Y-90887265D01*
X197715866Y-90963148D01*
X197715073Y-90966722D01*
X197697204Y-91042121D01*
X197695193Y-91061803D01*
X197697447Y-91139254D01*
X197697500Y-91142918D01*
X197697500Y-92579929D01*
X197680619Y-92642927D01*
X197654167Y-92688744D01*
X197625471Y-92738446D01*
X197566458Y-92920070D01*
X197546496Y-93110000D01*
X180000000Y-93110000D01*
X180000000Y-89080000D01*
X196406496Y-89080000D01*
X196410095Y-89114242D01*
X196426458Y-89269929D01*
X196485472Y-89451556D01*
X196580958Y-89616942D01*
X196663099Y-89708169D01*
X196708747Y-89758866D01*
X196863248Y-89871118D01*
X197037712Y-89948794D01*
X197224513Y-89988500D01*
X197415485Y-89988500D01*
X197415487Y-89988500D01*
X197602288Y-89948794D01*
X197776752Y-89871118D01*
X197931253Y-89758866D01*
X198059040Y-89616944D01*
X198154527Y-89451556D01*
X198213542Y-89269928D01*
X198233504Y-89080000D01*
X198213542Y-88890072D01*
X198169440Y-88754340D01*
X198154527Y-88708443D01*
X198059041Y-88543057D01*
X197931252Y-88401133D01*
X197776753Y-88288883D01*
X197776752Y-88288882D01*
X197602288Y-88211206D01*
X197415487Y-88171500D01*
X197224513Y-88171500D01*
X197099979Y-88197970D01*
X197037711Y-88211206D01*
X196863246Y-88288883D01*
X196708747Y-88401133D01*
X196580958Y-88543057D01*
X196485472Y-88708443D01*
X196426458Y-88890070D01*
X196416634Y-88983538D01*
X196406496Y-89080000D01*
X180000000Y-89080000D01*
X180000000Y-81759500D01*
X180016881Y-81696500D01*
X180063000Y-81650381D01*
X180126000Y-81633500D01*
X219291800Y-81633500D01*
X219343048Y-81644393D01*
X219385435Y-81675188D01*
X219388746Y-81678866D01*
X219476893Y-81742908D01*
X219543248Y-81791118D01*
X219717712Y-81868794D01*
X219904513Y-81908500D01*
X220095485Y-81908500D01*
X220095487Y-81908500D01*
X220282288Y-81868794D01*
X220456752Y-81791118D01*
X220611253Y-81678866D01*
X220739040Y-81536944D01*
X220834527Y-81371556D01*
X220893542Y-81189928D01*
X220913504Y-81000000D01*
X220893542Y-80810072D01*
X220859506Y-80705321D01*
X220834527Y-80628443D01*
X220739041Y-80463057D01*
X220636901Y-80349619D01*
X220611253Y-80321134D01*
X220456752Y-80208882D01*
X220282288Y-80131206D01*
X220095487Y-80091500D01*
X219904513Y-80091500D01*
X219779978Y-80117970D01*
X219717711Y-80131206D01*
X219543246Y-80208883D01*
X219388746Y-80321133D01*
X219385435Y-80324812D01*
X219343048Y-80355607D01*
X219291800Y-80366500D01*
X180126000Y-80366500D01*
X180063000Y-80349619D01*
X180016881Y-80303500D01*
X180000000Y-80240500D01*
X180000000Y-74620000D01*
X208768007Y-74620000D01*
X208814318Y-74779399D01*
X208898947Y-74922501D01*
X209016498Y-75040052D01*
X209159600Y-75124681D01*
X209319247Y-75171064D01*
X209356547Y-75174000D01*
X209994000Y-75174000D01*
X209994000Y-74620000D01*
X208768007Y-74620000D01*
X180000000Y-74620000D01*
X180000000Y-58308500D01*
X209647000Y-58308500D01*
X210626000Y-58308500D01*
X210626000Y-57467000D01*
X211134000Y-57467000D01*
X211134000Y-58308500D01*
X212113000Y-58308500D01*
X213167000Y-58308500D01*
X214146000Y-58308500D01*
X214146000Y-57467000D01*
X214654000Y-57467000D01*
X214654000Y-58308500D01*
X215633000Y-58308500D01*
X215633000Y-58174497D01*
X215622393Y-58070671D01*
X215566659Y-57902477D01*
X215473632Y-57751657D01*
X215348342Y-57626367D01*
X215197522Y-57533340D01*
X215029328Y-57477606D01*
X214925503Y-57467000D01*
X214654000Y-57467000D01*
X214146000Y-57467000D01*
X213874497Y-57467000D01*
X213770671Y-57477606D01*
X213602477Y-57533340D01*
X213451657Y-57626367D01*
X213326367Y-57751657D01*
X213233340Y-57902477D01*
X213177606Y-58070671D01*
X213167000Y-58174497D01*
X213167000Y-58308500D01*
X212113000Y-58308500D01*
X212113000Y-58174497D01*
X212102393Y-58070671D01*
X212046659Y-57902477D01*
X211953632Y-57751657D01*
X211828342Y-57626367D01*
X211677522Y-57533340D01*
X211509328Y-57477606D01*
X211405503Y-57467000D01*
X211134000Y-57467000D01*
X210626000Y-57467000D01*
X210354497Y-57467000D01*
X210250671Y-57477606D01*
X210082477Y-57533340D01*
X209931657Y-57626367D01*
X209806367Y-57751657D01*
X209713340Y-57902477D01*
X209657606Y-58070671D01*
X209647000Y-58174497D01*
X209647000Y-58308500D01*
X180000000Y-58308500D01*
X180000000Y-57126000D01*
X180016881Y-57063000D01*
X180063000Y-57016881D01*
X180126000Y-57000000D01*
X236874000Y-57000000D01*
X236937000Y-57016881D01*
G37*
%TD.AperFunction*%
%TD*%
%TA.AperFunction,NonConductor*%
G36*
X246006500Y-133096881D02*
G01*
X246052619Y-133143000D01*
X246069500Y-133206000D01*
X246069500Y-134867522D01*
X246069403Y-134872469D01*
X246051662Y-135323996D01*
X246050886Y-135333859D01*
X245998064Y-135780152D01*
X245996516Y-135789923D01*
X245908843Y-136230685D01*
X245906533Y-136240306D01*
X245784549Y-136672828D01*
X245781492Y-136682237D01*
X245625946Y-137103863D01*
X245622160Y-137113003D01*
X245434017Y-137521116D01*
X245429526Y-137529931D01*
X245209935Y-137922039D01*
X245204765Y-137930475D01*
X244955096Y-138304131D01*
X244949281Y-138312135D01*
X244671061Y-138665056D01*
X244664636Y-138672579D01*
X244359581Y-139002585D01*
X244352585Y-139009581D01*
X244022579Y-139314636D01*
X244015056Y-139321061D01*
X243662135Y-139599281D01*
X243654131Y-139605096D01*
X243280475Y-139854765D01*
X243272039Y-139859935D01*
X242879931Y-140079526D01*
X242871116Y-140084017D01*
X242463003Y-140272160D01*
X242453863Y-140275946D01*
X242032237Y-140431492D01*
X242022828Y-140434549D01*
X241590306Y-140556533D01*
X241580685Y-140558843D01*
X241139923Y-140646516D01*
X241130152Y-140648064D01*
X240683859Y-140700886D01*
X240673996Y-140701662D01*
X240222469Y-140719403D01*
X240217522Y-140719500D01*
X234446000Y-140719500D01*
X234383000Y-140702619D01*
X234336881Y-140656500D01*
X234320000Y-140593500D01*
X234320000Y-137219059D01*
X236822668Y-137219059D01*
X236854571Y-137492020D01*
X236922183Y-137758389D01*
X237024324Y-138013523D01*
X237159204Y-138252955D01*
X237159208Y-138252960D01*
X237324481Y-138472526D01*
X237517259Y-138668385D01*
X237734176Y-138837120D01*
X237971446Y-138975785D01*
X238052132Y-139009581D01*
X238224927Y-139081958D01*
X238391691Y-139127113D01*
X238490190Y-139153785D01*
X238544673Y-139161030D01*
X238762605Y-139190014D01*
X238763272Y-139190014D01*
X238895917Y-139190100D01*
X238897306Y-139190110D01*
X242665174Y-139239044D01*
X242672842Y-139240104D01*
X242684121Y-139240104D01*
X242684125Y-139240105D01*
X242745951Y-139240104D01*
X242747586Y-139240114D01*
X242750865Y-139240157D01*
X242783370Y-139240580D01*
X242790820Y-139240095D01*
X242887690Y-139240095D01*
X243160680Y-139204153D01*
X243426644Y-139132886D01*
X243681030Y-139027514D01*
X243919486Y-138889840D01*
X244137932Y-138722219D01*
X244332630Y-138527519D01*
X244500250Y-138309072D01*
X244637922Y-138070615D01*
X244743292Y-137816228D01*
X244814556Y-137550264D01*
X244850496Y-137277273D01*
X244850496Y-137001927D01*
X244814556Y-136728936D01*
X244743292Y-136462972D01*
X244637922Y-136208585D01*
X244637921Y-136208582D01*
X244500252Y-135970131D01*
X244462996Y-135921578D01*
X244332630Y-135751681D01*
X244137932Y-135556981D01*
X244086764Y-135517718D01*
X243919483Y-135389357D01*
X243681035Y-135251688D01*
X243426637Y-135146311D01*
X243160683Y-135075047D01*
X242887690Y-135039104D01*
X242794534Y-135039104D01*
X242794405Y-135039095D01*
X242752100Y-135039103D01*
X242752053Y-135039104D01*
X242750017Y-135039104D01*
X242684124Y-135039103D01*
X242667922Y-135039103D01*
X242667780Y-135039121D01*
X238959891Y-135039893D01*
X238955950Y-135039832D01*
X238828528Y-135035870D01*
X238555105Y-135063436D01*
X238287689Y-135126813D01*
X238030967Y-135224889D01*
X237789419Y-135355954D01*
X237567261Y-135517718D01*
X237368361Y-135707368D01*
X237196205Y-135921577D01*
X237053790Y-136156616D01*
X236943607Y-136408379D01*
X236867578Y-136672467D01*
X236827027Y-136944281D01*
X236822668Y-137219059D01*
X234320000Y-137219059D01*
X234320000Y-133206000D01*
X234336881Y-133143000D01*
X234383000Y-133096881D01*
X234446000Y-133080000D01*
X245943500Y-133080000D01*
X246006500Y-133096881D01*
G37*
%TD.AperFunction*%
%TA.AperFunction,NonConductor*%
G36*
X169757000Y-132596881D02*
G01*
X169803119Y-132643000D01*
X169820000Y-132706000D01*
X169820000Y-140593500D01*
X169803119Y-140656500D01*
X169757000Y-140702619D01*
X169694000Y-140719500D01*
X165292478Y-140719500D01*
X165287531Y-140719403D01*
X164836003Y-140701662D01*
X164826140Y-140700886D01*
X164379847Y-140648064D01*
X164370076Y-140646516D01*
X163929314Y-140558843D01*
X163919693Y-140556533D01*
X163487171Y-140434549D01*
X163477762Y-140431492D01*
X163056136Y-140275946D01*
X163046996Y-140272160D01*
X162638883Y-140084017D01*
X162630068Y-140079526D01*
X162237960Y-139859935D01*
X162229524Y-139854765D01*
X161855868Y-139605096D01*
X161847864Y-139599281D01*
X161494943Y-139321061D01*
X161487420Y-139314636D01*
X161344980Y-139182966D01*
X161157414Y-139009581D01*
X161150418Y-139002585D01*
X160845363Y-138672579D01*
X160838938Y-138665056D01*
X160560718Y-138312135D01*
X160554903Y-138304131D01*
X160305234Y-137930475D01*
X160300064Y-137922039D01*
X160080473Y-137529931D01*
X160075982Y-137521116D01*
X159995052Y-137345565D01*
X159887832Y-137112988D01*
X159884059Y-137103879D01*
X159873051Y-137074040D01*
X160600886Y-137074040D01*
X160614316Y-137345565D01*
X160625293Y-137405890D01*
X160662984Y-137613035D01*
X160717093Y-137781630D01*
X160746062Y-137871890D01*
X160862132Y-138117720D01*
X161009223Y-138346349D01*
X161184834Y-138553884D01*
X161385962Y-138736782D01*
X161609191Y-138891936D01*
X161609193Y-138891937D01*
X161609196Y-138891939D01*
X161850730Y-139016711D01*
X161850733Y-139016712D01*
X162106450Y-139108972D01*
X162106453Y-139108972D01*
X162106454Y-139108973D01*
X162372013Y-139167154D01*
X162486623Y-139176913D01*
X162494989Y-139177909D01*
X162509651Y-139180154D01*
X162521635Y-139180262D01*
X162531181Y-139180712D01*
X162573105Y-139184290D01*
X162580524Y-139182964D01*
X162603802Y-139181009D01*
X165216065Y-139204764D01*
X165221525Y-139205509D01*
X165234305Y-139205509D01*
X165297309Y-139205509D01*
X165298454Y-139205513D01*
X165331445Y-139205814D01*
X165331445Y-139205813D01*
X165336741Y-139205862D01*
X165342285Y-139205491D01*
X165437871Y-139205491D01*
X165710862Y-139169552D01*
X165976827Y-139098287D01*
X166231215Y-138992916D01*
X166469673Y-138855243D01*
X166688121Y-138687622D01*
X166882820Y-138492923D01*
X167050441Y-138274475D01*
X167188115Y-138036017D01*
X167293486Y-137781630D01*
X167364751Y-137515665D01*
X167400691Y-137242674D01*
X167400691Y-136967326D01*
X167364751Y-136694335D01*
X167293486Y-136428370D01*
X167188115Y-136173983D01*
X167050441Y-135935525D01*
X166882820Y-135717077D01*
X166882817Y-135717074D01*
X166882814Y-135717070D01*
X166688127Y-135522383D01*
X166688122Y-135522379D01*
X166688121Y-135522378D01*
X166469673Y-135354757D01*
X166469672Y-135354756D01*
X166469669Y-135354754D01*
X166231217Y-135217085D01*
X166122389Y-135172007D01*
X165976827Y-135111713D01*
X165887974Y-135087905D01*
X165710859Y-135040447D01*
X165437871Y-135004509D01*
X165342000Y-135004509D01*
X165336468Y-135004139D01*
X165298437Y-135004503D01*
X165297234Y-135004509D01*
X165221727Y-135004509D01*
X165216003Y-135005289D01*
X162663747Y-135029661D01*
X162640964Y-135027388D01*
X162586957Y-135030274D01*
X162581440Y-135030447D01*
X162559398Y-135030657D01*
X162555319Y-135031284D01*
X162542905Y-135032565D01*
X162437526Y-135038178D01*
X162170259Y-135087905D01*
X161911737Y-135172006D01*
X161666366Y-135289051D01*
X161438317Y-135437050D01*
X161231489Y-135613474D01*
X161049388Y-135815327D01*
X160895115Y-136039177D01*
X160771301Y-136281202D01*
X160680052Y-136537297D01*
X160622924Y-136803078D01*
X160600886Y-137074040D01*
X159873051Y-137074040D01*
X159728503Y-136682225D01*
X159725454Y-136672841D01*
X159603463Y-136240295D01*
X159601156Y-136230685D01*
X159596500Y-136207276D01*
X159513480Y-135789905D01*
X159511937Y-135780170D01*
X159459112Y-135333846D01*
X159458338Y-135324009D01*
X159440596Y-134872468D01*
X159440500Y-134867522D01*
X159440500Y-132706000D01*
X159457381Y-132643000D01*
X159503500Y-132596881D01*
X159566500Y-132580000D01*
X169694000Y-132580000D01*
X169757000Y-132596881D01*
G37*
%TD.AperFunction*%
%TA.AperFunction,NonConductor*%
G36*
X169757000Y-47122381D02*
G01*
X169803119Y-47168500D01*
X169820000Y-47231500D01*
X169820000Y-55454000D01*
X169803119Y-55517000D01*
X169757000Y-55563119D01*
X169694000Y-55580000D01*
X159586500Y-55580000D01*
X159523500Y-55563119D01*
X159477381Y-55517000D01*
X159460500Y-55454000D01*
X159460500Y-51414040D01*
X160630695Y-51414040D01*
X160644124Y-51685562D01*
X160655102Y-51745892D01*
X160692793Y-51953032D01*
X160746903Y-52121632D01*
X160775870Y-52211887D01*
X160891939Y-52457714D01*
X161039034Y-52686348D01*
X161214636Y-52893875D01*
X161415763Y-53076771D01*
X161415765Y-53076772D01*
X161415769Y-53076776D01*
X161639001Y-53231932D01*
X161880535Y-53356703D01*
X161880538Y-53356704D01*
X162136253Y-53448963D01*
X162136258Y-53448964D01*
X162401816Y-53507146D01*
X162516446Y-53516906D01*
X162524768Y-53517896D01*
X162539453Y-53520145D01*
X162551438Y-53520253D01*
X162560984Y-53520703D01*
X162602908Y-53524281D01*
X162610317Y-53522957D01*
X162633604Y-53521000D01*
X165245868Y-53544755D01*
X165251328Y-53545500D01*
X165264108Y-53545500D01*
X165327111Y-53545500D01*
X165328256Y-53545504D01*
X165361247Y-53545805D01*
X165361248Y-53545804D01*
X165366661Y-53545854D01*
X165371953Y-53545500D01*
X165467674Y-53545500D01*
X165740666Y-53509560D01*
X166006632Y-53438295D01*
X166261021Y-53332923D01*
X166499479Y-53195249D01*
X166717928Y-53027628D01*
X166912628Y-52832928D01*
X167080249Y-52614479D01*
X167217923Y-52376021D01*
X167323295Y-52121632D01*
X167394560Y-51855666D01*
X167430500Y-51582674D01*
X167430500Y-51307326D01*
X167394560Y-51034334D01*
X167323295Y-50768368D01*
X167217923Y-50513979D01*
X167080249Y-50275521D01*
X166912628Y-50057072D01*
X166912625Y-50057069D01*
X166912622Y-50057065D01*
X166717934Y-49862377D01*
X166717929Y-49862373D01*
X166717928Y-49862372D01*
X166499479Y-49694751D01*
X166499478Y-49694750D01*
X166499475Y-49694748D01*
X166261023Y-49557078D01*
X166152227Y-49512013D01*
X166006632Y-49451705D01*
X165917839Y-49427913D01*
X165740663Y-49380439D01*
X165467674Y-49344500D01*
X165371802Y-49344500D01*
X165366270Y-49344130D01*
X165328239Y-49344494D01*
X165327036Y-49344500D01*
X165251530Y-49344500D01*
X165245806Y-49345280D01*
X162693547Y-49369652D01*
X162670764Y-49367380D01*
X162668871Y-49367481D01*
X162662241Y-49367835D01*
X162616760Y-49370264D01*
X162611250Y-49370437D01*
X162589197Y-49370648D01*
X162584939Y-49371302D01*
X162572532Y-49372582D01*
X162467331Y-49378186D01*
X162200063Y-49427913D01*
X161941543Y-49512013D01*
X161696172Y-49629058D01*
X161468129Y-49777053D01*
X161261293Y-49953483D01*
X161079192Y-50155336D01*
X160924926Y-50379173D01*
X160801110Y-50621204D01*
X160709862Y-50877297D01*
X160652733Y-51143078D01*
X160630695Y-51414040D01*
X159460500Y-51414040D01*
X159460500Y-49186207D01*
X159469875Y-49138513D01*
X159496606Y-49097917D01*
X160045277Y-48539275D01*
X161392974Y-47167085D01*
X161433759Y-47139341D01*
X161482072Y-47129380D01*
X165291287Y-47105502D01*
X165292078Y-47105500D01*
X169694000Y-47105500D01*
X169757000Y-47122381D01*
G37*
%TD.AperFunction*%
%TA.AperFunction,NonConductor*%
G36*
X232257000Y-128096881D02*
G01*
X232303119Y-128143000D01*
X232320000Y-128206000D01*
X232320000Y-138956065D01*
X232303465Y-139018463D01*
X232258198Y-139064483D01*
X232196082Y-139082048D01*
X183997680Y-139878716D01*
X171948081Y-140077882D01*
X171884206Y-140061707D01*
X171837230Y-140015500D01*
X171820000Y-139951900D01*
X171820000Y-128206000D01*
X171836881Y-128143000D01*
X171883000Y-128096881D01*
X171946000Y-128080000D01*
X232194000Y-128080000D01*
X232257000Y-128096881D01*
G37*
%TD.AperFunction*%
%TA.AperFunction,NonConductor*%
G36*
X243440614Y-47119634D02*
G01*
X243496891Y-47133074D01*
X243541227Y-47170250D01*
X246029642Y-50502947D01*
X246048240Y-50538562D01*
X246054681Y-50578221D01*
X246058936Y-55453890D01*
X246042092Y-55516937D01*
X245995968Y-55563101D01*
X245932936Y-55580000D01*
X234446000Y-55580000D01*
X234383000Y-55563119D01*
X234336881Y-55517000D01*
X234320000Y-55454000D01*
X234320000Y-51474459D01*
X236852672Y-51474459D01*
X236884575Y-51747417D01*
X236952187Y-52013787D01*
X237054324Y-52268915D01*
X237088631Y-52329814D01*
X237189207Y-52508352D01*
X237354479Y-52727917D01*
X237547255Y-52923776D01*
X237764170Y-53092511D01*
X238001437Y-53231176D01*
X238254914Y-53337349D01*
X238520176Y-53409178D01*
X238735353Y-53437796D01*
X238792590Y-53445409D01*
X238792931Y-53445409D01*
X238925902Y-53445496D01*
X238927291Y-53445506D01*
X242695158Y-53494440D01*
X242702821Y-53495500D01*
X242714108Y-53495500D01*
X242775937Y-53495500D01*
X242777573Y-53495511D01*
X242809297Y-53495923D01*
X242809298Y-53495922D01*
X242813395Y-53495976D01*
X242820726Y-53495500D01*
X242917674Y-53495500D01*
X243190666Y-53459560D01*
X243456632Y-53388295D01*
X243711021Y-53282923D01*
X243949479Y-53145249D01*
X244167928Y-52977628D01*
X244362628Y-52782928D01*
X244530249Y-52564479D01*
X244667923Y-52326021D01*
X244773295Y-52071632D01*
X244844560Y-51805666D01*
X244880500Y-51532674D01*
X244880500Y-51257326D01*
X244844560Y-50984334D01*
X244773295Y-50718368D01*
X244667923Y-50463979D01*
X244571102Y-50296280D01*
X244530251Y-50225524D01*
X244530249Y-50225521D01*
X244362628Y-50007072D01*
X244362625Y-50007069D01*
X244362622Y-50007065D01*
X244167934Y-49812377D01*
X244167929Y-49812373D01*
X244167928Y-49812372D01*
X243949479Y-49644751D01*
X243949478Y-49644750D01*
X243949475Y-49644748D01*
X243711023Y-49507078D01*
X243646368Y-49480297D01*
X243456632Y-49401705D01*
X243456631Y-49401704D01*
X243190663Y-49330439D01*
X242917674Y-49294500D01*
X242824698Y-49294500D01*
X242824571Y-49294491D01*
X242782171Y-49294499D01*
X242782111Y-49294500D01*
X242697841Y-49294500D01*
X242697707Y-49294517D01*
X238989645Y-49295289D01*
X238985706Y-49295228D01*
X238858513Y-49291275D01*
X238585090Y-49318843D01*
X238317676Y-49382221D01*
X238060961Y-49480297D01*
X237819412Y-49611364D01*
X237597253Y-49773131D01*
X237398355Y-49962779D01*
X237226204Y-50176983D01*
X237083793Y-50412019D01*
X236973609Y-50663784D01*
X236897581Y-50927871D01*
X236857031Y-51199680D01*
X236852672Y-51474459D01*
X234320000Y-51474459D01*
X234320000Y-47231500D01*
X234336881Y-47168500D01*
X234383000Y-47122381D01*
X234446000Y-47105500D01*
X238314449Y-47105500D01*
X243440614Y-47119634D01*
G37*
%TD.AperFunction*%
M02*
