%TF.GenerationSoftware,KiCad,Pcbnew,7.0.1-0*%
%TF.CreationDate,2023-03-22T23:36:25-07:00*%
%TF.ProjectId,Cosmic_Watch_Rev7_Nano_Revised,436f736d-6963-45f5-9761-7463685f5265,6.1*%
%TF.SameCoordinates,Original*%
%TF.FileFunction,Legend,Bot*%
%TF.FilePolarity,Positive*%
%FSLAX46Y46*%
G04 Gerber Fmt 4.6, Leading zero omitted, Abs format (unit mm)*
G04 Created by KiCad (PCBNEW 7.0.1-0) date 2023-03-22 23:36:25*
%MOMM*%
%LPD*%
G01*
G04 APERTURE LIST*
%ADD10C,0.150000*%
%ADD11C,0.120000*%
%ADD12C,0.100000*%
%ADD13C,0.200000*%
%ADD14C,5.000000*%
%ADD15C,1.879600*%
%ADD16C,3.000000*%
%ADD17C,3.301600*%
%ADD18R,4.000000X4.000000*%
%ADD19C,0.260000*%
G04 APERTURE END LIST*
D10*
X231320000Y-61080000D02*
X236320000Y-61080000D01*
X236320000Y-61080000D02*
X236320000Y-127080000D01*
X170320000Y-61080000D02*
X231320000Y-61080000D01*
X236320000Y-127080000D02*
X170320000Y-127080000D01*
X170320000Y-127080000D02*
X170320000Y-61080000D01*
D11*
%TO.C,IC1*%
X228320000Y-119080000D02*
X228320000Y-94080000D01*
X228320000Y-94080000D02*
X228320000Y-69080000D01*
X228320000Y-69080000D02*
X178320000Y-69080000D01*
D12*
X207020000Y-91580000D02*
X207020000Y-91580000D01*
X206920000Y-91580000D02*
X206920000Y-91580000D01*
D13*
X206385000Y-97145000D02*
X206385000Y-91015000D01*
X206385000Y-91015000D02*
X200255000Y-91015000D01*
X200255000Y-97145000D02*
X206385000Y-97145000D01*
X200255000Y-91015000D02*
X200255000Y-97145000D01*
D11*
X178320000Y-119080000D02*
X228320000Y-119080000D01*
X178320000Y-69080000D02*
X178320000Y-119080000D01*
D12*
X206920000Y-91580000D02*
G75*
G03*
X207020000Y-91580000I50000J0D01*
G01*
X207020000Y-91580000D02*
G75*
G03*
X206920000Y-91580000I-50000J0D01*
G01*
%TO.C,G\u002A\u002A\u002A*%
G36*
X280842665Y-86751733D02*
G01*
X280826367Y-86838766D01*
X280747465Y-87123762D01*
X280641933Y-87423583D01*
X280512791Y-87731047D01*
X280363060Y-88038974D01*
X280195761Y-88340184D01*
X280013916Y-88627496D01*
X279820545Y-88893731D01*
X279815209Y-88900573D01*
X279760463Y-88975155D01*
X279718644Y-89045244D01*
X279683709Y-89124347D01*
X279649615Y-89225973D01*
X279610318Y-89363631D01*
X279601986Y-89393705D01*
X279496537Y-89733752D01*
X279371044Y-90076474D01*
X279231101Y-90408515D01*
X279082303Y-90716520D01*
X278930244Y-90987134D01*
X278926693Y-90992922D01*
X278887092Y-91060381D01*
X278871504Y-91103773D01*
X278877481Y-91141092D01*
X278902570Y-91190334D01*
X278906904Y-91198113D01*
X278945934Y-91263933D01*
X278977856Y-91311600D01*
X278998151Y-91341927D01*
X279042897Y-91418602D01*
X279101167Y-91525203D01*
X279168064Y-91652248D01*
X279238689Y-91790252D01*
X279308144Y-91929735D01*
X279371530Y-92061211D01*
X279423948Y-92175200D01*
X279584889Y-92559449D01*
X279803638Y-93178804D01*
X279972816Y-93801052D01*
X280048412Y-94195887D01*
X280093146Y-94429529D01*
X280165348Y-95067566D01*
X280190142Y-95718500D01*
X280190144Y-95719500D01*
X280173790Y-96169571D01*
X280122306Y-96585544D01*
X280034685Y-96970951D01*
X279909920Y-97329325D01*
X279747000Y-97664197D01*
X279544919Y-97979100D01*
X279339219Y-98231402D01*
X279075307Y-98482414D01*
X278781968Y-98692125D01*
X278459652Y-98860261D01*
X278108812Y-98986552D01*
X277729900Y-99070724D01*
X277728870Y-99070889D01*
X277567743Y-99087837D01*
X277367438Y-99095134D01*
X277138428Y-99093492D01*
X276891187Y-99083623D01*
X276636189Y-99066242D01*
X276383907Y-99042060D01*
X276144816Y-99011790D01*
X275929388Y-98976146D01*
X275748098Y-98935840D01*
X275717709Y-98927957D01*
X275619264Y-98903366D01*
X275520100Y-98879600D01*
X275398103Y-98848352D01*
X275218584Y-98796293D01*
X275016551Y-98732705D01*
X274805351Y-98661950D01*
X274598335Y-98588392D01*
X274408850Y-98516394D01*
X274349113Y-98492931D01*
X274234735Y-98449124D01*
X274142898Y-98415468D01*
X274081790Y-98394917D01*
X274059600Y-98390424D01*
X274059676Y-98391135D01*
X274071151Y-98421847D01*
X274098344Y-98484795D01*
X274135800Y-98567313D01*
X274138401Y-98572945D01*
X274175579Y-98656805D01*
X274201968Y-98722387D01*
X274212000Y-98755916D01*
X274215488Y-98775371D01*
X274234793Y-98823994D01*
X274259677Y-98876400D01*
X274320363Y-99046777D01*
X274365217Y-99241002D01*
X274377160Y-99320112D01*
X274381334Y-99401888D01*
X274371513Y-99479542D01*
X274344816Y-99565088D01*
X274298363Y-99670537D01*
X274229273Y-99807900D01*
X274176938Y-99910816D01*
X274113080Y-100040550D01*
X274053739Y-100165183D01*
X274003588Y-100274691D01*
X273967295Y-100359052D01*
X273949532Y-100408243D01*
X273943615Y-100451313D01*
X273956123Y-100485350D01*
X273995637Y-100512018D01*
X274069886Y-100536378D01*
X274186600Y-100563492D01*
X274239555Y-100574443D01*
X274346818Y-100593571D01*
X274461786Y-100609322D01*
X274595229Y-100622873D01*
X274757915Y-100635400D01*
X274960614Y-100648082D01*
X275032176Y-100652649D01*
X275129899Y-100660391D01*
X275200491Y-100667906D01*
X275232147Y-100674062D01*
X275236426Y-100678770D01*
X275236128Y-100719551D01*
X275213302Y-100788196D01*
X275172430Y-100873335D01*
X275117995Y-100963600D01*
X275090716Y-101004252D01*
X275036799Y-101084526D01*
X274994963Y-101146721D01*
X274993346Y-101149136D01*
X274961689Y-101203538D01*
X274948600Y-101239854D01*
X274948388Y-101243576D01*
X274929550Y-101272633D01*
X274928135Y-101273687D01*
X274907611Y-101304641D01*
X274870908Y-101370540D01*
X274822821Y-101461868D01*
X274768149Y-101569110D01*
X274711689Y-101682749D01*
X274658237Y-101793271D01*
X274612590Y-101891160D01*
X274579547Y-101966900D01*
X274556149Y-102028679D01*
X274521449Y-102129591D01*
X274488580Y-102233600D01*
X274462060Y-102318762D01*
X274436681Y-102393822D01*
X274419683Y-102436800D01*
X274418177Y-102439974D01*
X274403271Y-102493817D01*
X274393405Y-102566141D01*
X274392305Y-102599881D01*
X274400096Y-102640486D01*
X274425417Y-102681534D01*
X274475492Y-102733645D01*
X274557548Y-102807441D01*
X274586120Y-102832603D01*
X274669728Y-102907110D01*
X274740935Y-102971762D01*
X274786771Y-103014826D01*
X274845044Y-103072152D01*
X274796546Y-103185294D01*
X274765345Y-103254408D01*
X274722012Y-103343543D01*
X274678218Y-103428289D01*
X274641191Y-103494725D01*
X274618157Y-103528928D01*
X274613259Y-103535309D01*
X274588523Y-103576569D01*
X274554657Y-103639412D01*
X274546151Y-103655275D01*
X274496558Y-103734982D01*
X274446950Y-103799471D01*
X274443731Y-103803021D01*
X274405535Y-103852185D01*
X274389800Y-103885908D01*
X274384413Y-103907876D01*
X274358542Y-103904575D01*
X274313787Y-103862780D01*
X274252928Y-103786351D01*
X274178745Y-103679148D01*
X274094020Y-103545031D01*
X274001532Y-103387862D01*
X273904062Y-103211500D01*
X273888107Y-103182520D01*
X273853936Y-103125634D01*
X273832466Y-103097200D01*
X273785351Y-103042953D01*
X273745476Y-102959764D01*
X273729400Y-102877216D01*
X273732159Y-102846615D01*
X273747369Y-102768946D01*
X273772242Y-102670396D01*
X273802620Y-102565053D01*
X273834347Y-102467008D01*
X273863264Y-102390350D01*
X273885214Y-102349170D01*
X273897496Y-102326531D01*
X273907200Y-102271700D01*
X273910967Y-102237761D01*
X273929134Y-102194229D01*
X273952250Y-102155225D01*
X273977721Y-102093900D01*
X273983116Y-102078618D01*
X274008678Y-102007474D01*
X274043882Y-101910557D01*
X274082787Y-101804240D01*
X274099074Y-101759484D01*
X274130906Y-101669182D01*
X274152956Y-101602563D01*
X274161200Y-101571570D01*
X274156471Y-101567302D01*
X274114363Y-101556550D01*
X274038031Y-101545818D01*
X273938950Y-101536897D01*
X273671392Y-101516023D01*
X273367720Y-101485182D01*
X273098980Y-101448688D01*
X272856346Y-101405471D01*
X272852664Y-101404728D01*
X272736070Y-101381352D01*
X272639304Y-101362236D01*
X272572351Y-101349334D01*
X272545196Y-101344600D01*
X272534229Y-101361553D01*
X272539642Y-101414500D01*
X272561506Y-101492532D01*
X272597383Y-101584453D01*
X272619786Y-101632985D01*
X272761897Y-101873779D01*
X272945524Y-102093900D01*
X272949732Y-102098944D01*
X272984506Y-102135676D01*
X273036301Y-102197514D01*
X273056276Y-102237962D01*
X273049189Y-102264966D01*
X273047713Y-102266508D01*
X273028760Y-102275329D01*
X272990261Y-102282291D01*
X272927753Y-102287523D01*
X272836772Y-102291152D01*
X272712854Y-102293307D01*
X272551536Y-102294116D01*
X272348354Y-102293706D01*
X272098845Y-102292206D01*
X271906020Y-102291314D01*
X271696898Y-102291530D01*
X271504370Y-102292948D01*
X271335276Y-102295464D01*
X271196456Y-102298972D01*
X271094751Y-102303368D01*
X271037000Y-102308544D01*
X270984977Y-102316933D01*
X270886246Y-102331975D01*
X270808400Y-102342792D01*
X270764529Y-102349397D01*
X270652064Y-102374034D01*
X270539219Y-102407499D01*
X270438580Y-102445293D01*
X270362733Y-102482917D01*
X270324265Y-102515869D01*
X270321365Y-102522128D01*
X270305316Y-102579514D01*
X270289185Y-102667933D01*
X270276068Y-102771004D01*
X270273403Y-102795546D01*
X270259158Y-102891699D01*
X270242290Y-102966004D01*
X270225902Y-103004048D01*
X270211421Y-103011789D01*
X270144488Y-103023798D01*
X270027548Y-103030838D01*
X269860970Y-103032880D01*
X269824201Y-103032689D01*
X269662356Y-103028261D01*
X269545117Y-103017275D01*
X269467521Y-102998640D01*
X269424603Y-102971265D01*
X269411400Y-102934058D01*
X269412179Y-102926725D01*
X269428020Y-102875683D01*
X269452395Y-102815970D01*
X269665400Y-102815970D01*
X269665503Y-102817055D01*
X269690074Y-102836000D01*
X269744775Y-102852725D01*
X269756232Y-102854873D01*
X269895679Y-102864740D01*
X270040050Y-102850674D01*
X270057034Y-102846513D01*
X270083030Y-102828222D01*
X270094578Y-102786752D01*
X270097200Y-102708350D01*
X270102738Y-102623983D01*
X270133782Y-102495017D01*
X270187483Y-102389854D01*
X270258515Y-102321274D01*
X270275787Y-102311672D01*
X270378336Y-102267011D01*
X270511868Y-102222335D01*
X270660513Y-102182516D01*
X270808400Y-102152429D01*
X270842890Y-102148143D01*
X270935691Y-102140862D01*
X271067291Y-102133499D01*
X271230248Y-102126366D01*
X271417122Y-102119775D01*
X271620475Y-102114038D01*
X271832864Y-102109467D01*
X272692228Y-102093900D01*
X272629154Y-102020556D01*
X272575806Y-101947721D01*
X272504887Y-101824946D01*
X272438072Y-101684829D01*
X272383792Y-101545397D01*
X272350477Y-101424677D01*
X272337006Y-101363694D01*
X272312112Y-101293008D01*
X272286464Y-101268400D01*
X272263878Y-101262730D01*
X272201464Y-101238968D01*
X272112819Y-101200945D01*
X272009150Y-101153312D01*
X271822544Y-101050499D01*
X271648182Y-100921896D01*
X271509185Y-100781409D01*
X271413259Y-100635729D01*
X271407338Y-100623413D01*
X271381348Y-100557053D01*
X271364734Y-100482568D01*
X271355163Y-100385753D01*
X271350302Y-100252400D01*
X271348467Y-100170429D01*
X271345780Y-100066336D01*
X271343322Y-99987865D01*
X271341461Y-99947600D01*
X271334384Y-99932826D01*
X271320181Y-99958410D01*
X271301325Y-100017324D01*
X271280180Y-100101104D01*
X271259106Y-100201289D01*
X271240468Y-100309415D01*
X271232317Y-100372437D01*
X271224527Y-100525923D01*
X271234116Y-100662648D01*
X271259876Y-100771898D01*
X271300600Y-100842959D01*
X271304217Y-100846811D01*
X271339844Y-100893735D01*
X271380452Y-100957250D01*
X271388817Y-100971012D01*
X271424333Y-101019998D01*
X271448877Y-101039800D01*
X271457449Y-101043322D01*
X271468800Y-101075783D01*
X271470422Y-101090992D01*
X271487850Y-101120233D01*
X271499413Y-101129894D01*
X271539676Y-101171448D01*
X271599687Y-101237469D01*
X271671368Y-101319200D01*
X271711814Y-101365869D01*
X271787622Y-101452444D01*
X271851791Y-101524623D01*
X271893618Y-101570313D01*
X271927390Y-101626643D01*
X271949730Y-101712860D01*
X271952233Y-101800860D01*
X271931962Y-101867847D01*
X271893241Y-101904749D01*
X271806830Y-101940973D01*
X271695867Y-101954200D01*
X271668059Y-101955062D01*
X271578406Y-101962417D01*
X271464727Y-101975664D01*
X271344947Y-101992830D01*
X271307022Y-101998787D01*
X271166942Y-102020324D01*
X271026119Y-102041396D01*
X270910000Y-102058179D01*
X270847288Y-102067323D01*
X270765272Y-102080792D01*
X270678070Y-102097362D01*
X270574648Y-102119292D01*
X270443970Y-102148843D01*
X270275000Y-102188276D01*
X270105615Y-102232626D01*
X269978897Y-102276765D01*
X269897783Y-102320500D01*
X269859672Y-102364937D01*
X269857192Y-102371193D01*
X269832613Y-102428822D01*
X269794882Y-102513615D01*
X269751088Y-102609595D01*
X269739937Y-102633912D01*
X269701986Y-102719685D01*
X269675411Y-102784535D01*
X269665400Y-102815970D01*
X269452395Y-102815970D01*
X269459131Y-102799469D01*
X269498707Y-102712562D01*
X269539942Y-102629436D01*
X269576033Y-102564570D01*
X269600175Y-102532438D01*
X269609864Y-102524178D01*
X269605329Y-102513388D01*
X269600129Y-102497421D01*
X269619348Y-102455850D01*
X269627729Y-102441331D01*
X269660035Y-102371480D01*
X269690123Y-102289875D01*
X269696345Y-102271526D01*
X269739169Y-102191967D01*
X269803105Y-102144353D01*
X269815768Y-102138624D01*
X269893166Y-102108110D01*
X269992847Y-102073415D01*
X270100817Y-102038879D01*
X270203083Y-102008838D01*
X270285651Y-101987632D01*
X270334526Y-101979600D01*
X270365994Y-101976442D01*
X270438431Y-101963074D01*
X270525334Y-101942793D01*
X270539384Y-101939321D01*
X270639973Y-101918361D01*
X270776517Y-101894174D01*
X270936782Y-101868569D01*
X271108537Y-101843357D01*
X271279547Y-101820348D01*
X271437579Y-101801351D01*
X271570400Y-101788176D01*
X271585434Y-101786877D01*
X271677314Y-101776709D01*
X271746480Y-101765361D01*
X271778941Y-101755054D01*
X271774460Y-101732169D01*
X271742642Y-101682570D01*
X271690041Y-101618490D01*
X271674082Y-101600682D01*
X271555209Y-101467422D01*
X271465476Y-101365426D01*
X271400179Y-101289211D01*
X271354611Y-101233296D01*
X271324066Y-101192200D01*
X271284814Y-101139213D01*
X271238526Y-101083524D01*
X271213769Y-101050447D01*
X271170800Y-100980738D01*
X271125758Y-100897594D01*
X271076543Y-100773173D01*
X271044737Y-100594998D01*
X271047017Y-100389327D01*
X271083074Y-100150800D01*
X271095846Y-100086191D01*
X271112220Y-99992459D01*
X271121094Y-99925525D01*
X271120776Y-99896800D01*
X271110896Y-99895213D01*
X271056734Y-99892579D01*
X270960119Y-99890134D01*
X270826334Y-99887944D01*
X270660662Y-99886073D01*
X270468386Y-99884590D01*
X270254790Y-99883560D01*
X270025156Y-99883050D01*
X269902693Y-99882806D01*
X269675563Y-99881678D01*
X269464487Y-99879769D01*
X269275255Y-99877183D01*
X269113660Y-99874024D01*
X268985492Y-99870393D01*
X268896542Y-99866395D01*
X268852600Y-99862134D01*
X268781224Y-99844706D01*
X268668182Y-99809472D01*
X268550352Y-99761618D01*
X268415296Y-99695873D01*
X268250580Y-99606967D01*
X268216020Y-99584647D01*
X268149130Y-99535347D01*
X268074935Y-99475970D01*
X268062734Y-99465789D01*
X267995419Y-99409292D01*
X267941856Y-99363244D01*
X267884957Y-99312744D01*
X267807632Y-99242891D01*
X267744728Y-99185883D01*
X267568414Y-99274246D01*
X267552180Y-99282408D01*
X267466553Y-99326334D01*
X267399960Y-99361901D01*
X267365665Y-99382054D01*
X267358375Y-99386772D01*
X267311657Y-99413008D01*
X267236182Y-99453032D01*
X267144300Y-99500250D01*
X267116102Y-99514487D01*
X267022947Y-99558263D01*
X266956861Y-99576745D01*
X266903464Y-99568656D01*
X266848375Y-99532718D01*
X266777213Y-99467655D01*
X266732552Y-99430015D01*
X266703410Y-99414200D01*
X266698850Y-99413190D01*
X266661719Y-99392748D01*
X266607098Y-99354275D01*
X266573320Y-99330999D01*
X266484299Y-99278061D01*
X266367212Y-99214589D01*
X266233919Y-99146567D01*
X266096280Y-99079979D01*
X265966154Y-99020808D01*
X265855400Y-98975037D01*
X265797459Y-98954200D01*
X265618676Y-98900339D01*
X265408758Y-98848655D01*
X265181847Y-98802153D01*
X264952083Y-98763838D01*
X264733608Y-98736713D01*
X264589715Y-98722519D01*
X264466908Y-98909609D01*
X264442477Y-98946698D01*
X264389603Y-99026001D01*
X264350203Y-99083735D01*
X264331400Y-99109400D01*
X264305884Y-99144224D01*
X264260295Y-99221265D01*
X264200808Y-99331743D01*
X264178704Y-99373101D01*
X264123753Y-99459939D01*
X264069561Y-99510992D01*
X264004041Y-99535125D01*
X263915101Y-99541200D01*
X263868879Y-99539776D01*
X263773158Y-99529604D01*
X263698894Y-99512863D01*
X263691332Y-99510293D01*
X263635277Y-99495755D01*
X263606048Y-99496086D01*
X263605194Y-99500970D01*
X263617896Y-99541952D01*
X263650049Y-99616652D01*
X263697667Y-99717181D01*
X263756761Y-99835653D01*
X263823345Y-99964177D01*
X263893432Y-100094867D01*
X263963034Y-100219833D01*
X264028164Y-100331187D01*
X264147448Y-100521984D01*
X264451728Y-100961741D01*
X264796241Y-101402798D01*
X265174649Y-101837702D01*
X265580615Y-102259000D01*
X266007800Y-102659238D01*
X266030411Y-102679342D01*
X266128652Y-102767109D01*
X266191461Y-102824476D01*
X266221161Y-102854055D01*
X266220070Y-102858457D01*
X266190510Y-102840294D01*
X266134800Y-102802177D01*
X266063986Y-102752384D01*
X266008358Y-102712060D01*
X265982400Y-102691638D01*
X265981946Y-102691170D01*
X265955269Y-102667939D01*
X265900886Y-102622682D01*
X265830000Y-102564730D01*
X265806132Y-102545249D01*
X265519849Y-102295244D01*
X265217393Y-102001773D01*
X264897634Y-101663697D01*
X264559447Y-101279875D01*
X264502230Y-101209672D01*
X264402865Y-101078452D01*
X264288598Y-100919426D01*
X264165807Y-100742006D01*
X264040869Y-100555603D01*
X263920161Y-100369628D01*
X263810061Y-100193491D01*
X263716947Y-100036604D01*
X263700696Y-100007805D01*
X263622689Y-99861452D01*
X263534176Y-99685046D01*
X263441730Y-99492494D01*
X263351924Y-99297699D01*
X263339764Y-99270067D01*
X263627685Y-99270067D01*
X263632158Y-99277363D01*
X263675348Y-99306532D01*
X263747379Y-99334359D01*
X263831183Y-99355198D01*
X263909695Y-99363400D01*
X263955732Y-99354979D01*
X263993591Y-99318950D01*
X263996162Y-99312545D01*
X264025480Y-99256152D01*
X264075985Y-99170406D01*
X264140966Y-99065649D01*
X264213713Y-98952220D01*
X264287515Y-98840460D01*
X264355660Y-98740708D01*
X264411438Y-98663304D01*
X264448138Y-98618589D01*
X264455087Y-98611759D01*
X264505546Y-98573211D01*
X264564878Y-98555110D01*
X264653821Y-98550600D01*
X264708774Y-98551750D01*
X264891314Y-98566704D01*
X265102408Y-98596770D01*
X265328289Y-98639180D01*
X265555192Y-98691163D01*
X265769351Y-98749952D01*
X265957000Y-98812775D01*
X265968722Y-98817245D01*
X266100607Y-98873127D01*
X266253941Y-98945929D01*
X266415031Y-99028422D01*
X266570181Y-99113380D01*
X266705696Y-99193577D01*
X266807881Y-99261785D01*
X266880141Y-99311650D01*
X266944056Y-99349087D01*
X266982176Y-99363400D01*
X266982959Y-99363381D01*
X267023672Y-99350634D01*
X267092934Y-99318785D01*
X267176209Y-99274495D01*
X267277761Y-99218897D01*
X267401269Y-99155236D01*
X267520039Y-99097670D01*
X267624144Y-99050826D01*
X267703656Y-99019327D01*
X267748648Y-99007800D01*
X267777980Y-99011232D01*
X267866300Y-99052386D01*
X267972601Y-99140406D01*
X268023155Y-99186009D01*
X268105708Y-99254716D01*
X268192200Y-99322099D01*
X268192719Y-99322487D01*
X268264603Y-99377144D01*
X268319154Y-99420242D01*
X268344600Y-99442480D01*
X268360005Y-99455483D01*
X268415602Y-99489192D01*
X268495568Y-99531081D01*
X268585566Y-99574117D01*
X268671257Y-99611272D01*
X268738300Y-99635514D01*
X268780241Y-99647582D01*
X268869360Y-99671453D01*
X268954605Y-99690566D01*
X269042046Y-99705214D01*
X269137752Y-99715691D01*
X269247795Y-99722290D01*
X269378243Y-99725304D01*
X269535167Y-99725026D01*
X269724637Y-99721751D01*
X269952723Y-99715770D01*
X270225494Y-99707378D01*
X270363672Y-99703255D01*
X270582726Y-99698445D01*
X270760952Y-99697311D01*
X270904733Y-99699918D01*
X271020453Y-99706333D01*
X271114494Y-99716623D01*
X271157179Y-99722713D01*
X271296271Y-99743467D01*
X271394327Y-99764585D01*
X271458513Y-99793436D01*
X271495993Y-99837389D01*
X271513933Y-99903816D01*
X271519496Y-100000084D01*
X271519849Y-100133564D01*
X271520609Y-100231644D01*
X271524945Y-100337034D01*
X271534919Y-100415290D01*
X271552548Y-100480267D01*
X271579849Y-100545819D01*
X271647484Y-100654272D01*
X271757006Y-100774297D01*
X271891042Y-100883935D01*
X272036681Y-100971164D01*
X272123832Y-101010136D01*
X272294665Y-101073823D01*
X272490130Y-101134899D01*
X272694288Y-101188536D01*
X272891200Y-101229910D01*
X273050269Y-101257457D01*
X273311275Y-101297403D01*
X273540615Y-101324452D01*
X273749272Y-101339798D01*
X273948225Y-101344632D01*
X274023428Y-101345024D01*
X274121697Y-101348440D01*
X274187949Y-101356991D01*
X274234101Y-101372613D01*
X274272075Y-101397243D01*
X274305465Y-101428278D01*
X274332121Y-101481131D01*
X274339000Y-101561481D01*
X274338496Y-101581096D01*
X274326126Y-101675587D01*
X274302378Y-101756488D01*
X274288333Y-101790217D01*
X274256002Y-101872563D01*
X274215730Y-101978662D01*
X274173115Y-102093900D01*
X274144249Y-102172468D01*
X274106046Y-102274659D01*
X274075504Y-102354271D01*
X274057408Y-102398700D01*
X274048004Y-102421478D01*
X274022806Y-102491763D01*
X273992597Y-102583548D01*
X273961653Y-102682916D01*
X273934254Y-102775949D01*
X273914677Y-102848730D01*
X273907200Y-102887342D01*
X273908683Y-102899225D01*
X273927896Y-102919400D01*
X273931495Y-102920332D01*
X273958681Y-102947949D01*
X273992438Y-103001950D01*
X273994768Y-103006327D01*
X274033712Y-103077499D01*
X274066992Y-103135382D01*
X274068561Y-103137982D01*
X274098441Y-103187474D01*
X274144469Y-103263700D01*
X274197360Y-103351282D01*
X274233215Y-103411170D01*
X274289610Y-103504155D01*
X274329331Y-103556897D01*
X274360729Y-103570347D01*
X274392155Y-103545459D01*
X274431959Y-103483183D01*
X274488491Y-103384472D01*
X274526322Y-103318360D01*
X274581676Y-103214930D01*
X274611116Y-103146603D01*
X274616416Y-103108774D01*
X274599350Y-103096839D01*
X274591649Y-103093899D01*
X274552334Y-103064767D01*
X274492625Y-103012404D01*
X274422811Y-102946664D01*
X274353181Y-102877397D01*
X274294025Y-102814458D01*
X274255630Y-102767698D01*
X274252184Y-102762445D01*
X274223212Y-102686005D01*
X274212147Y-102589898D01*
X274216079Y-102532220D01*
X274242569Y-102396339D01*
X274291285Y-102229413D01*
X274359014Y-102039162D01*
X274442546Y-101833302D01*
X274538667Y-101619551D01*
X274644166Y-101405628D01*
X274755831Y-101199249D01*
X274870450Y-101008132D01*
X274878250Y-100995827D01*
X274924399Y-100921297D01*
X274955805Y-100867584D01*
X274966044Y-100845607D01*
X274965537Y-100845374D01*
X274935024Y-100840978D01*
X274864729Y-100833227D01*
X274764403Y-100823144D01*
X274643800Y-100811755D01*
X274600030Y-100807586D01*
X274369731Y-100780164D01*
X274169500Y-100746769D01*
X274006234Y-100708717D01*
X273886831Y-100667325D01*
X273885864Y-100666890D01*
X273805628Y-100605955D01*
X273765713Y-100514548D01*
X273766548Y-100393647D01*
X273767163Y-100390150D01*
X273784322Y-100332756D01*
X273817199Y-100247416D01*
X273860819Y-100144846D01*
X273910207Y-100035762D01*
X273960389Y-99930883D01*
X274006389Y-99840923D01*
X274043235Y-99776601D01*
X274065950Y-99748633D01*
X274070695Y-99745641D01*
X274085000Y-99712202D01*
X274088368Y-99695713D01*
X274108572Y-99640740D01*
X274140959Y-99568642D01*
X274170652Y-99495604D01*
X274189526Y-99393808D01*
X274182244Y-99278623D01*
X274149090Y-99134800D01*
X274132846Y-99076585D01*
X274111260Y-98997374D01*
X274097957Y-98946164D01*
X274088122Y-98917136D01*
X274060195Y-98871234D01*
X274050918Y-98859562D01*
X274034200Y-98809069D01*
X274029526Y-98785147D01*
X274003323Y-98717100D01*
X273958946Y-98623012D01*
X273901981Y-98513461D01*
X273838014Y-98399022D01*
X273772629Y-98290275D01*
X273711412Y-98197795D01*
X273628248Y-98082760D01*
X273534819Y-97962389D01*
X277120300Y-97962389D01*
X277209200Y-97960772D01*
X277265309Y-97957359D01*
X277367338Y-97946860D01*
X277489197Y-97931560D01*
X277614120Y-97913739D01*
X277725342Y-97895675D01*
X277806100Y-97879646D01*
X277822739Y-97875680D01*
X277990812Y-97834147D01*
X278110965Y-97801250D01*
X278185069Y-97776438D01*
X278214997Y-97759160D01*
X278225083Y-97749650D01*
X278268189Y-97737800D01*
X278272972Y-97737363D01*
X278320675Y-97722386D01*
X278396378Y-97690370D01*
X278486019Y-97647168D01*
X278574375Y-97599399D01*
X278825209Y-97430367D01*
X279044403Y-97230226D01*
X279226193Y-97004797D01*
X279364814Y-96759900D01*
X279396048Y-96693357D01*
X279425486Y-96633954D01*
X279440240Y-96601070D01*
X279470213Y-96523327D01*
X279505383Y-96424521D01*
X279540165Y-96320957D01*
X279568972Y-96228941D01*
X279586219Y-96164779D01*
X279597170Y-96121679D01*
X279611111Y-96084194D01*
X279614738Y-96076240D01*
X279625950Y-96036535D01*
X279641856Y-95963535D01*
X279663291Y-95853023D01*
X279691086Y-95700784D01*
X279726076Y-95502600D01*
X279728709Y-95487276D01*
X279747964Y-95355099D01*
X279763284Y-95206395D01*
X279775276Y-95032603D01*
X279784545Y-94825158D01*
X279791697Y-94575500D01*
X279795793Y-94374249D01*
X279797571Y-94195887D01*
X279795910Y-94051526D01*
X279790148Y-93932434D01*
X279779626Y-93829878D01*
X279763681Y-93735125D01*
X279741653Y-93639443D01*
X279712882Y-93534100D01*
X279690224Y-93454690D01*
X279657950Y-93341177D01*
X279626240Y-93229300D01*
X279618655Y-93202886D01*
X279577043Y-93067291D01*
X279529915Y-92925279D01*
X279483572Y-92795324D01*
X279444316Y-92695900D01*
X279434211Y-92672149D01*
X279405711Y-92604486D01*
X279366427Y-92510793D01*
X279321700Y-92403800D01*
X279296637Y-92345246D01*
X279237609Y-92214181D01*
X279168274Y-92066630D01*
X279093815Y-91913066D01*
X279019419Y-91763959D01*
X278950271Y-91629781D01*
X278891557Y-91521005D01*
X278848461Y-91448102D01*
X278844077Y-91441363D01*
X278802231Y-91375815D01*
X278771003Y-91325020D01*
X278759239Y-91309532D01*
X278738796Y-91307876D01*
X278707811Y-91337566D01*
X278658011Y-91404417D01*
X278618506Y-91459407D01*
X278577922Y-91514070D01*
X278556708Y-91540200D01*
X278537886Y-91561450D01*
X278495832Y-91612188D01*
X278441100Y-91679900D01*
X278383454Y-91748964D01*
X278295737Y-91847954D01*
X278211196Y-91937918D01*
X278201803Y-91947502D01*
X278119858Y-92031382D01*
X278068114Y-92089136D01*
X278042547Y-92130884D01*
X278039139Y-92166745D01*
X278053867Y-92206841D01*
X278082710Y-92261291D01*
X278105868Y-92306906D01*
X278128224Y-92358372D01*
X278131179Y-92378399D01*
X278127761Y-92382853D01*
X278143102Y-92410150D01*
X278171179Y-92458025D01*
X278212133Y-92547295D01*
X278262083Y-92668485D01*
X278317978Y-92813126D01*
X278376768Y-92972751D01*
X278435403Y-93138888D01*
X278490833Y-93303071D01*
X278540007Y-93456830D01*
X278579875Y-93591696D01*
X278607386Y-93699200D01*
X278619286Y-93750142D01*
X278646032Y-93854386D01*
X278670905Y-93940500D01*
X278670928Y-93940571D01*
X278691332Y-94017862D01*
X278713747Y-94122768D01*
X278733323Y-94232600D01*
X278750991Y-94342303D01*
X278770277Y-94458373D01*
X278786115Y-94550100D01*
X278797678Y-94625620D01*
X278811639Y-94740849D01*
X278822299Y-94854900D01*
X278822846Y-94862039D01*
X278833072Y-94980535D01*
X278846537Y-95118882D01*
X278860481Y-95248600D01*
X278873446Y-95398735D01*
X278881470Y-95571599D01*
X278882422Y-95630846D01*
X278884357Y-95751353D01*
X278882086Y-95923640D01*
X278874634Y-96074108D01*
X278861977Y-96188400D01*
X278851072Y-96253365D01*
X278830952Y-96368932D01*
X278814424Y-96453301D01*
X278798488Y-96519603D01*
X278780144Y-96580968D01*
X278756391Y-96650528D01*
X278742434Y-96688365D01*
X278689825Y-96812568D01*
X278627940Y-96939265D01*
X278565364Y-97051608D01*
X278510682Y-97132746D01*
X278461184Y-97192761D01*
X278240237Y-97418255D01*
X277993265Y-97604656D01*
X277714882Y-97755560D01*
X277399700Y-97874565D01*
X277357619Y-97887669D01*
X277266875Y-97916051D01*
X277196500Y-97938216D01*
X277120300Y-97962389D01*
X273534819Y-97962389D01*
X273532341Y-97959196D01*
X273448004Y-97864147D01*
X273367212Y-97788761D01*
X273281939Y-97724189D01*
X273242741Y-97697757D01*
X273195473Y-97669881D01*
X273146089Y-97648873D01*
X273084912Y-97632261D01*
X273002263Y-97617568D01*
X272888468Y-97602322D01*
X272733848Y-97584048D01*
X272675004Y-97577520D01*
X272504567Y-97561145D01*
X272333179Y-97547845D01*
X272177939Y-97538846D01*
X272055947Y-97535378D01*
X271984780Y-97534137D01*
X271863141Y-97527675D01*
X271758459Y-97517001D01*
X271687647Y-97503576D01*
X271678555Y-97500801D01*
X271591142Y-97468359D01*
X271498623Y-97426082D01*
X271414148Y-97380935D01*
X271350867Y-97339883D01*
X271340916Y-97329569D01*
X271937569Y-97329569D01*
X271942012Y-97332348D01*
X271984558Y-97340576D01*
X272061144Y-97347632D01*
X272159202Y-97352230D01*
X272218984Y-97354089D01*
X272322846Y-97358824D01*
X272421100Y-97366195D01*
X272532376Y-97377748D01*
X272675300Y-97395026D01*
X272681913Y-97395828D01*
X272750038Y-97403011D01*
X272847216Y-97412193D01*
X272954700Y-97421593D01*
X272971037Y-97423061D01*
X273077705Y-97437084D01*
X273170726Y-97456133D01*
X273231552Y-97476527D01*
X273241471Y-97481237D01*
X273319324Y-97508093D01*
X273439890Y-97539772D01*
X273596754Y-97575113D01*
X273783499Y-97612957D01*
X273993709Y-97652141D01*
X274220967Y-97691506D01*
X274458859Y-97729891D01*
X274700967Y-97766135D01*
X274940876Y-97799078D01*
X275172169Y-97827559D01*
X275224262Y-97833110D01*
X275416199Y-97847931D01*
X275632434Y-97857654D01*
X275862267Y-97862368D01*
X276094998Y-97862160D01*
X276319926Y-97857118D01*
X276526353Y-97847330D01*
X276703578Y-97832884D01*
X276840900Y-97813868D01*
X276907400Y-97801003D01*
X277263138Y-97714839D01*
X277574658Y-97606758D01*
X277844089Y-97475088D01*
X278073563Y-97318153D01*
X278265208Y-97134281D01*
X278421154Y-96921797D01*
X278543532Y-96679028D01*
X278634472Y-96404300D01*
X278659306Y-96281531D01*
X278681198Y-96093080D01*
X278693263Y-95872847D01*
X278695240Y-95630846D01*
X278686868Y-95377092D01*
X278667886Y-95121600D01*
X278663653Y-95078078D01*
X278647270Y-94920397D01*
X278630511Y-94781865D01*
X278610954Y-94645245D01*
X278586180Y-94493302D01*
X278553770Y-94308800D01*
X278543818Y-94252716D01*
X278529768Y-94171465D01*
X278521043Y-94118300D01*
X278519316Y-94108123D01*
X278505208Y-94043695D01*
X278485109Y-93965900D01*
X278468454Y-93904761D01*
X278441571Y-93803585D01*
X278414394Y-93699200D01*
X278413165Y-93694443D01*
X278387103Y-93600207D01*
X278352038Y-93481612D01*
X278311832Y-93350848D01*
X278270350Y-93220104D01*
X278231456Y-93101572D01*
X278199013Y-93007440D01*
X278176886Y-92949900D01*
X278162864Y-92917238D01*
X278132802Y-92844737D01*
X278098179Y-92759400D01*
X278090434Y-92740152D01*
X278028459Y-92589981D01*
X277973047Y-92462322D01*
X277927083Y-92363413D01*
X277893451Y-92299493D01*
X277875035Y-92276799D01*
X277872662Y-92277641D01*
X277841962Y-92298245D01*
X277787308Y-92339221D01*
X277721117Y-92390913D01*
X277655803Y-92443660D01*
X277603784Y-92487806D01*
X277559403Y-92523654D01*
X277467990Y-92589611D01*
X277351411Y-92668414D01*
X277220673Y-92752980D01*
X277086787Y-92836226D01*
X276960760Y-92911071D01*
X276853600Y-92970433D01*
X276769191Y-93015575D01*
X276695775Y-93059820D01*
X276649575Y-93098345D01*
X276620223Y-93140217D01*
X276597351Y-93194501D01*
X276576182Y-93252165D01*
X276542506Y-93337231D01*
X276509855Y-93403835D01*
X276468057Y-93471482D01*
X276406941Y-93559682D01*
X276384035Y-93591122D01*
X276229984Y-93769262D01*
X276036742Y-93948133D01*
X275813330Y-94120013D01*
X275568769Y-94277180D01*
X275523252Y-94303243D01*
X275414223Y-94363089D01*
X275289252Y-94429199D01*
X275158435Y-94496484D01*
X275031865Y-94559854D01*
X274919638Y-94614219D01*
X274831847Y-94654490D01*
X274778588Y-94675578D01*
X274752844Y-94688928D01*
X274716341Y-94737929D01*
X274683338Y-94828314D01*
X274667459Y-94884703D01*
X274650418Y-94950898D01*
X274643800Y-94985180D01*
X274642365Y-95000110D01*
X274622646Y-95070443D01*
X274583003Y-95173531D01*
X274527548Y-95300992D01*
X274460390Y-95444445D01*
X274385642Y-95595509D01*
X274307412Y-95745802D01*
X274229814Y-95886945D01*
X274156956Y-96010556D01*
X274092950Y-96108253D01*
X273910795Y-96336216D01*
X273651156Y-96588896D01*
X273357043Y-96806295D01*
X273032173Y-96985340D01*
X273002814Y-96998678D01*
X272882775Y-97047940D01*
X272738347Y-97101363D01*
X272581452Y-97155103D01*
X272424014Y-97205316D01*
X272277956Y-97248157D01*
X272155202Y-97279780D01*
X272067676Y-97296343D01*
X272009077Y-97304934D01*
X271954523Y-97317859D01*
X271937569Y-97329569D01*
X271340916Y-97329569D01*
X271321931Y-97309891D01*
X271328996Y-97287613D01*
X271371790Y-97259686D01*
X271438717Y-97238241D01*
X271514904Y-97229475D01*
X271567419Y-97224007D01*
X271676838Y-97198334D01*
X271817032Y-97154474D01*
X271979501Y-97095566D01*
X272155745Y-97024750D01*
X272337265Y-96945163D01*
X272515559Y-96859946D01*
X272563988Y-96835196D01*
X272672311Y-96777109D01*
X272786074Y-96713247D01*
X272895221Y-96649540D01*
X272989695Y-96591918D01*
X273059440Y-96546309D01*
X273094400Y-96518644D01*
X273109860Y-96506170D01*
X273159064Y-96472480D01*
X273227560Y-96428604D01*
X273255179Y-96409724D01*
X273338371Y-96342553D01*
X273441171Y-96249988D01*
X273554299Y-96141312D01*
X273668477Y-96025811D01*
X273774426Y-95912769D01*
X273862868Y-95811470D01*
X273924524Y-95731200D01*
X273975061Y-95652742D01*
X274082392Y-95460183D01*
X274177336Y-95255413D01*
X274252603Y-95055006D01*
X274300901Y-94875536D01*
X274316940Y-94794572D01*
X274220020Y-94822001D01*
X274166113Y-94833922D01*
X274032277Y-94848029D01*
X273873395Y-94850261D01*
X273705519Y-94840679D01*
X273544704Y-94819347D01*
X273517255Y-94814294D01*
X273432865Y-94796663D01*
X273376632Y-94781552D01*
X273359547Y-94771786D01*
X273363256Y-94769297D01*
X273403174Y-94755432D01*
X273468044Y-94739870D01*
X273709642Y-94684329D01*
X273988485Y-94608639D01*
X274272861Y-94521206D01*
X274544091Y-94427788D01*
X274783500Y-94334146D01*
X274869959Y-94296123D01*
X275001265Y-94234050D01*
X275136448Y-94166039D01*
X275267189Y-94096661D01*
X275385170Y-94030487D01*
X275482072Y-93972085D01*
X275549577Y-93926028D01*
X275579367Y-93896884D01*
X275585849Y-93888870D01*
X275623817Y-93877000D01*
X275639299Y-93875049D01*
X275659800Y-93857076D01*
X275659865Y-93856180D01*
X275681324Y-93829749D01*
X275729650Y-93795046D01*
X275737332Y-93790278D01*
X275823701Y-93723940D01*
X275924569Y-93628864D01*
X276027670Y-93517385D01*
X276120736Y-93401834D01*
X276168180Y-93336197D01*
X276204645Y-93282582D01*
X276218600Y-93257557D01*
X276218419Y-93256789D01*
X276193883Y-93255895D01*
X276140573Y-93267924D01*
X276138495Y-93268509D01*
X276063417Y-93282944D01*
X275958627Y-93294948D01*
X275837484Y-93303933D01*
X275713349Y-93309314D01*
X275599584Y-93310503D01*
X275509547Y-93306914D01*
X275456600Y-93297960D01*
X275393100Y-93272872D01*
X275469300Y-93255901D01*
X275531604Y-93238810D01*
X275584434Y-93218295D01*
X275635286Y-93198648D01*
X275704793Y-93179775D01*
X275708195Y-93179010D01*
X275767869Y-93159687D01*
X275800708Y-93138445D01*
X275811431Y-93127985D01*
X275855484Y-93115000D01*
X275889997Y-93105980D01*
X275959391Y-93079810D01*
X276050054Y-93041896D01*
X276149394Y-92997691D01*
X276244821Y-92952648D01*
X276323742Y-92912220D01*
X276336524Y-92905336D01*
X276392480Y-92875658D01*
X276475046Y-92832165D01*
X276571392Y-92781626D01*
X276618453Y-92756440D01*
X276700028Y-92709723D01*
X276756375Y-92673173D01*
X276777400Y-92653087D01*
X276777914Y-92648858D01*
X276801673Y-92632400D01*
X276816389Y-92626842D01*
X276865692Y-92599163D01*
X276935880Y-92555491D01*
X277014346Y-92503972D01*
X277088488Y-92452757D01*
X277145700Y-92409993D01*
X277159254Y-92399477D01*
X277208170Y-92362735D01*
X277272700Y-92315079D01*
X277301901Y-92293021D01*
X277417022Y-92197727D01*
X277553291Y-92074987D01*
X277701620Y-91933408D01*
X277852924Y-91781592D01*
X277998116Y-91628145D01*
X278004532Y-91621139D01*
X278193392Y-91395625D01*
X278381993Y-91136208D01*
X278560444Y-90858265D01*
X278718851Y-90577170D01*
X278847320Y-90308300D01*
X278856461Y-90286976D01*
X278889090Y-90211497D01*
X278913503Y-90155900D01*
X278942900Y-90087191D01*
X278989782Y-89966553D01*
X279034316Y-89840154D01*
X279073859Y-89716858D01*
X279105769Y-89605529D01*
X279127404Y-89515034D01*
X279136121Y-89454236D01*
X279129279Y-89432000D01*
X279121483Y-89434189D01*
X279079479Y-89455301D01*
X279018446Y-89491572D01*
X278949034Y-89531892D01*
X278845330Y-89586874D01*
X278720028Y-89649900D01*
X278581492Y-89717094D01*
X278438086Y-89784581D01*
X278298174Y-89848487D01*
X278170122Y-89904936D01*
X278062293Y-89950055D01*
X277983053Y-89979968D01*
X277940766Y-89990800D01*
X277942733Y-89983996D01*
X277976892Y-89954894D01*
X278040702Y-89908160D01*
X278126591Y-89849549D01*
X278279007Y-89745057D01*
X278521169Y-89566577D01*
X278763852Y-89373916D01*
X278999635Y-89173668D01*
X279221099Y-88972427D01*
X279420823Y-88776789D01*
X279591386Y-88593348D01*
X279725367Y-88428700D01*
X279731637Y-88420243D01*
X279789817Y-88343481D01*
X279837893Y-88282874D01*
X279865994Y-88250900D01*
X279889758Y-88223717D01*
X279944154Y-88148968D01*
X280023838Y-88030924D01*
X280128592Y-87869900D01*
X280158339Y-87820667D01*
X280208046Y-87731186D01*
X280264021Y-87624750D01*
X280321193Y-87511634D01*
X280374488Y-87402110D01*
X280418836Y-87306451D01*
X280449164Y-87234932D01*
X280460400Y-87197824D01*
X280463886Y-87176920D01*
X280483549Y-87126605D01*
X280486081Y-87121613D01*
X280513417Y-87055863D01*
X280545847Y-86963719D01*
X280576552Y-86865598D01*
X280598707Y-86781921D01*
X280604143Y-86751733D01*
X280600033Y-86727824D01*
X280576052Y-86733858D01*
X280527005Y-86771982D01*
X280447700Y-86844343D01*
X280401756Y-86885810D01*
X280309381Y-86963973D01*
X280219100Y-87035354D01*
X280159268Y-87081397D01*
X280099595Y-87129569D01*
X280066700Y-87159035D01*
X280053628Y-87171488D01*
X280004636Y-87211622D01*
X279939700Y-87260406D01*
X279905173Y-87285673D01*
X279851921Y-87326164D01*
X279825400Y-87348581D01*
X279819248Y-87353987D01*
X279778524Y-87385229D01*
X279706370Y-87438638D01*
X279609737Y-87509171D01*
X279495578Y-87591790D01*
X279370847Y-87681455D01*
X279242497Y-87773124D01*
X279117480Y-87861757D01*
X279020654Y-87929593D01*
X278870634Y-88033020D01*
X278724115Y-88132274D01*
X278593677Y-88218860D01*
X278491900Y-88284280D01*
X278467713Y-88299485D01*
X278387279Y-88351063D01*
X278321479Y-88394573D01*
X278319136Y-88396157D01*
X278264048Y-88428164D01*
X278226229Y-88441400D01*
X278219422Y-88442055D01*
X278199800Y-88460776D01*
X278198887Y-88467252D01*
X278188323Y-88481176D01*
X278158749Y-88501112D01*
X278101331Y-88532580D01*
X278007237Y-88581100D01*
X277982323Y-88594042D01*
X277919524Y-88628748D01*
X277882300Y-88652428D01*
X277867790Y-88662276D01*
X277807615Y-88696782D01*
X277710710Y-88748675D01*
X277583108Y-88814915D01*
X277430841Y-88892464D01*
X277259944Y-88978282D01*
X277109269Y-89053044D01*
X277076448Y-89069329D01*
X276886386Y-89162567D01*
X276695793Y-89254954D01*
X276510700Y-89343453D01*
X276309503Y-89438827D01*
X276157513Y-89510726D01*
X276047024Y-89562993D01*
X275824569Y-89667861D01*
X275638693Y-89755045D01*
X275485953Y-89826159D01*
X275362903Y-89882816D01*
X275266100Y-89926631D01*
X275195257Y-89958515D01*
X275082882Y-90009670D01*
X274986700Y-90054062D01*
X274945272Y-90073269D01*
X274839728Y-90121430D01*
X274745400Y-90163598D01*
X274719814Y-90174971D01*
X274631088Y-90215262D01*
X274521611Y-90265770D01*
X274409359Y-90318225D01*
X274350889Y-90345541D01*
X274264149Y-90385195D01*
X274202012Y-90412459D01*
X274175104Y-90422599D01*
X274159865Y-90427449D01*
X274108585Y-90448262D01*
X274035451Y-90479756D01*
X273954738Y-90515649D01*
X273880719Y-90549660D01*
X273827668Y-90575506D01*
X273827585Y-90575549D01*
X273788581Y-90593313D01*
X273713363Y-90625606D01*
X273612727Y-90667853D01*
X273497468Y-90715476D01*
X273383693Y-90762317D01*
X273273650Y-90807980D01*
X273185775Y-90844821D01*
X273132500Y-90867656D01*
X273103865Y-90879879D01*
X273029804Y-90910722D01*
X272922113Y-90955165D01*
X272788512Y-91010049D01*
X272636722Y-91072218D01*
X272474466Y-91138513D01*
X272309465Y-91205777D01*
X272149439Y-91270853D01*
X272002110Y-91330582D01*
X271875200Y-91381808D01*
X271761180Y-91430818D01*
X271642332Y-91494178D01*
X271558917Y-91558281D01*
X271502506Y-91628709D01*
X271490146Y-91652008D01*
X271479858Y-91681625D01*
X271472081Y-91722139D01*
X271466568Y-91779251D01*
X271463073Y-91858659D01*
X271461351Y-91966064D01*
X271461156Y-92107163D01*
X271462242Y-92287658D01*
X271464363Y-92513247D01*
X271464376Y-92514584D01*
X271464832Y-92946482D01*
X271456688Y-93332142D01*
X271439609Y-93675440D01*
X271413262Y-93980250D01*
X271377312Y-94250447D01*
X271331423Y-94489905D01*
X271275261Y-94702500D01*
X271253190Y-94774262D01*
X271227683Y-94854059D01*
X271204360Y-94919260D01*
X271177265Y-94985004D01*
X271140443Y-95066430D01*
X271087937Y-95178678D01*
X270984405Y-95376054D01*
X270784463Y-95671085D01*
X270546392Y-95935729D01*
X270275000Y-96164158D01*
X270253168Y-96179373D01*
X270159468Y-96235791D01*
X270053376Y-96289963D01*
X269953036Y-96333131D01*
X269876589Y-96356533D01*
X269826143Y-96368570D01*
X269753310Y-96391976D01*
X269717380Y-96401465D01*
X269634988Y-96412642D01*
X269541412Y-96417000D01*
X269497137Y-96416446D01*
X269415742Y-96411806D01*
X269324325Y-96401016D01*
X269209719Y-96382363D01*
X269058753Y-96354129D01*
X269056215Y-96353603D01*
X268996755Y-96333656D01*
X268908242Y-96295970D01*
X268804968Y-96247267D01*
X268701224Y-96194267D01*
X268611300Y-96143692D01*
X268559416Y-96111804D01*
X268462466Y-96050052D01*
X268357135Y-95981016D01*
X268253675Y-95911605D01*
X268162335Y-95848726D01*
X268093366Y-95799284D01*
X268057018Y-95770188D01*
X268029951Y-95747333D01*
X267995994Y-95731200D01*
X267991645Y-95730289D01*
X267953696Y-95705116D01*
X267891651Y-95651111D01*
X267813260Y-95575906D01*
X267726272Y-95487131D01*
X267638438Y-95392418D01*
X267557507Y-95299400D01*
X267538242Y-95276421D01*
X267470216Y-95196427D01*
X267413038Y-95130830D01*
X267377459Y-95092016D01*
X267374514Y-95088990D01*
X267335613Y-95044822D01*
X267278327Y-94975686D01*
X267213941Y-94895166D01*
X267200994Y-94878840D01*
X267142186Y-94808594D01*
X267127366Y-94792834D01*
X267848414Y-94792834D01*
X267850459Y-94827696D01*
X267882992Y-94894263D01*
X267942472Y-94984688D01*
X268024176Y-95092750D01*
X268123379Y-95212226D01*
X268235357Y-95336893D01*
X268355386Y-95460531D01*
X268531272Y-95634363D01*
X268380786Y-95617946D01*
X268315072Y-95610248D01*
X268227090Y-95598378D01*
X268166800Y-95588345D01*
X268151843Y-95586586D01*
X268147489Y-95597951D01*
X268181369Y-95631772D01*
X268255700Y-95690604D01*
X268267140Y-95699209D01*
X268343338Y-95753467D01*
X268404305Y-95791922D01*
X268437734Y-95806723D01*
X268446555Y-95807748D01*
X268475834Y-95827284D01*
X268480107Y-95833060D01*
X268518802Y-95864338D01*
X268587934Y-95911214D01*
X268676859Y-95967122D01*
X268774928Y-96025495D01*
X268871496Y-96079768D01*
X268955915Y-96123373D01*
X268980294Y-96134926D01*
X269076593Y-96174780D01*
X269136675Y-96188411D01*
X269157400Y-96175016D01*
X269152155Y-96164529D01*
X269122610Y-96120257D01*
X269072848Y-96050748D01*
X269009547Y-95965466D01*
X268977993Y-95923215D01*
X268907701Y-95826537D01*
X268847668Y-95740700D01*
X268808271Y-95680400D01*
X268765767Y-95605738D01*
X268706719Y-95493782D01*
X268642182Y-95364834D01*
X268576262Y-95227774D01*
X268513065Y-95091482D01*
X268456696Y-94964837D01*
X268411261Y-94856721D01*
X268380864Y-94776011D01*
X268369612Y-94731590D01*
X268368906Y-94716424D01*
X268350358Y-94666364D01*
X268304300Y-94656093D01*
X268227396Y-94684507D01*
X268193930Y-94699442D01*
X268095798Y-94731575D01*
X267995379Y-94752661D01*
X267944153Y-94761112D01*
X267879416Y-94777235D01*
X267848414Y-94792834D01*
X267127366Y-94792834D01*
X267095772Y-94759237D01*
X267070854Y-94740600D01*
X267061523Y-94737065D01*
X267049200Y-94704616D01*
X267047350Y-94689362D01*
X267027595Y-94660166D01*
X267027244Y-94660000D01*
X267004247Y-94636518D01*
X266955664Y-94579478D01*
X266886711Y-94495249D01*
X266802605Y-94390200D01*
X266708563Y-94270700D01*
X266682235Y-94237076D01*
X266558009Y-94082472D01*
X266453399Y-93961450D01*
X266360955Y-93866869D01*
X266273228Y-93791594D01*
X266182770Y-93728484D01*
X266082130Y-93670403D01*
X266076960Y-93667630D01*
X265974436Y-93609192D01*
X265902202Y-93556993D01*
X265844576Y-93497663D01*
X265785876Y-93417835D01*
X265757104Y-93378952D01*
X265682805Y-93294867D01*
X265609547Y-93228677D01*
X265579650Y-93205636D01*
X265524230Y-93159456D01*
X265493839Y-93129042D01*
X265482884Y-93121946D01*
X265475677Y-93146840D01*
X265477291Y-93201658D01*
X265487167Y-93274814D01*
X265504743Y-93354719D01*
X265505842Y-93358866D01*
X265520151Y-93439999D01*
X265511044Y-93508132D01*
X265473482Y-93578633D01*
X265402428Y-93666872D01*
X265324520Y-93755709D01*
X265202863Y-93893654D01*
X265099261Y-94010114D01*
X265018759Y-94099429D01*
X264966400Y-94155942D01*
X264955078Y-94168142D01*
X264895869Y-94239286D01*
X264839400Y-94316153D01*
X264820847Y-94342463D01*
X264781336Y-94390929D01*
X264756850Y-94410226D01*
X264748139Y-94414549D01*
X264737800Y-94448500D01*
X264735230Y-94465990D01*
X264714909Y-94486599D01*
X264706765Y-94489906D01*
X264673592Y-94522923D01*
X264632359Y-94579914D01*
X264618498Y-94601534D01*
X264561261Y-94690083D01*
X264504698Y-94776764D01*
X264488526Y-94801696D01*
X264424933Y-94903906D01*
X264353266Y-95024016D01*
X264279293Y-95151823D01*
X264208780Y-95277122D01*
X264147493Y-95389709D01*
X264101199Y-95479381D01*
X264075666Y-95535933D01*
X264059561Y-95588250D01*
X264059844Y-95639053D01*
X264087154Y-95692167D01*
X264098653Y-95708359D01*
X264176859Y-95783384D01*
X264273092Y-95837346D01*
X264366885Y-95858105D01*
X264375525Y-95857762D01*
X264455244Y-95832045D01*
X264548793Y-95769436D01*
X264600708Y-95730103D01*
X264743612Y-95640756D01*
X264911241Y-95554870D01*
X265086185Y-95480927D01*
X265251035Y-95427404D01*
X265258402Y-95425449D01*
X265368916Y-95392443D01*
X265473299Y-95355486D01*
X265549855Y-95322216D01*
X265567366Y-95313402D01*
X265657092Y-95282938D01*
X265742619Y-95285308D01*
X265768665Y-95291293D01*
X265819253Y-95315959D01*
X265853516Y-95362282D01*
X265876855Y-95439976D01*
X265894673Y-95558755D01*
X265900193Y-95599342D01*
X265920124Y-95710042D01*
X265943363Y-95807400D01*
X265948979Y-95827013D01*
X265979302Y-95933903D01*
X266007917Y-96036000D01*
X266018540Y-96072986D01*
X266064105Y-96217113D01*
X266123330Y-96389141D01*
X266191199Y-96574820D01*
X266262697Y-96759900D01*
X266271689Y-96781768D01*
X266307852Y-96863397D01*
X266356021Y-96966469D01*
X266411403Y-97081350D01*
X266469204Y-97198404D01*
X266524631Y-97307996D01*
X266572890Y-97400490D01*
X266599501Y-97448702D01*
X266609188Y-97466252D01*
X266628731Y-97495645D01*
X266644872Y-97513460D01*
X266683679Y-97568496D01*
X266727670Y-97640722D01*
X266780947Y-97776545D01*
X266792142Y-97915661D01*
X266794219Y-97941467D01*
X266760079Y-98120625D01*
X266753947Y-98140317D01*
X266722176Y-98243447D01*
X266692844Y-98340048D01*
X266671227Y-98389580D01*
X266652298Y-98432951D01*
X266588632Y-98519072D01*
X266515197Y-98578652D01*
X266442937Y-98600293D01*
X266433174Y-98599959D01*
X266358360Y-98592254D01*
X266274500Y-98577952D01*
X266267194Y-98576429D01*
X266187291Y-98559996D01*
X266081161Y-98538418D01*
X265969700Y-98515946D01*
X265958403Y-98513675D01*
X265843669Y-98490278D01*
X265734167Y-98467432D01*
X265652200Y-98449786D01*
X265628474Y-98444636D01*
X265532202Y-98425446D01*
X265449000Y-98411047D01*
X265430048Y-98408088D01*
X265339554Y-98392370D01*
X265245800Y-98374318D01*
X265184141Y-98363950D01*
X265080455Y-98349867D01*
X264954711Y-98334993D01*
X264821993Y-98321218D01*
X264752045Y-98313805D01*
X264669389Y-98304431D01*
X264604637Y-98300295D01*
X264551065Y-98305235D01*
X264501950Y-98323093D01*
X264450570Y-98357710D01*
X264390202Y-98412927D01*
X264314122Y-98492583D01*
X264215609Y-98600520D01*
X264087939Y-98740579D01*
X264010730Y-98824400D01*
X263908667Y-98934352D01*
X263817760Y-99031350D01*
X263745701Y-99107201D01*
X263700179Y-99153709D01*
X263674525Y-99181079D01*
X263636856Y-99234251D01*
X263627685Y-99270067D01*
X263339764Y-99270067D01*
X263271333Y-99114566D01*
X263206531Y-98957000D01*
X263205422Y-98954156D01*
X263148130Y-98801059D01*
X263088365Y-98630657D01*
X263028585Y-98451086D01*
X262971252Y-98270485D01*
X262918827Y-98096991D01*
X262873768Y-97938743D01*
X262838538Y-97803877D01*
X262815595Y-97700533D01*
X262807400Y-97636847D01*
X262806780Y-97630741D01*
X262786306Y-97580185D01*
X262784834Y-97577715D01*
X263050782Y-97577715D01*
X263050947Y-97644765D01*
X263118950Y-98020332D01*
X263220925Y-98456725D01*
X263340649Y-98853531D01*
X263361856Y-98914052D01*
X263409731Y-99036075D01*
X263447965Y-99109177D01*
X263476934Y-99133975D01*
X263497010Y-99111084D01*
X263501290Y-99103575D01*
X263525899Y-99072415D01*
X263573650Y-99017708D01*
X263646551Y-98937272D01*
X263746609Y-98828924D01*
X263875831Y-98690483D01*
X264036226Y-98519766D01*
X264229800Y-98314591D01*
X264420300Y-98112980D01*
X264648900Y-98127702D01*
X264891489Y-98147152D01*
X265216451Y-98185198D01*
X265512500Y-98233978D01*
X265531234Y-98237604D01*
X265637455Y-98257865D01*
X265730447Y-98275145D01*
X265791900Y-98286033D01*
X265844664Y-98295930D01*
X265934518Y-98314630D01*
X266033200Y-98336536D01*
X266116875Y-98355664D01*
X266203609Y-98375342D01*
X266261052Y-98388199D01*
X266276354Y-98389580D01*
X266276249Y-98374866D01*
X266237910Y-98335940D01*
X266159452Y-98270621D01*
X266134529Y-98250627D01*
X266061083Y-98190781D01*
X266006950Y-98145272D01*
X265982400Y-98122681D01*
X265979048Y-98119180D01*
X265944547Y-98090045D01*
X265882872Y-98041298D01*
X265804600Y-97981349D01*
X265783767Y-97965540D01*
X265705874Y-97905230D01*
X265645434Y-97856591D01*
X265614100Y-97828949D01*
X265581987Y-97800650D01*
X265521806Y-97752700D01*
X265446697Y-97695582D01*
X265371656Y-97638730D01*
X265306897Y-97587832D01*
X265268897Y-97555751D01*
X265252475Y-97541580D01*
X265198340Y-97498465D01*
X265120529Y-97438628D01*
X265029900Y-97370484D01*
X264974581Y-97328961D01*
X264892855Y-97266123D01*
X264831652Y-97217167D01*
X264801203Y-97190162D01*
X264794663Y-97183411D01*
X264723227Y-97145899D01*
X264611385Y-97125580D01*
X264465841Y-97123128D01*
X264293300Y-97139215D01*
X264268228Y-97142631D01*
X264168852Y-97155395D01*
X264068930Y-97167372D01*
X264014836Y-97175805D01*
X263887054Y-97205983D01*
X263736891Y-97250915D01*
X263576303Y-97306138D01*
X263417246Y-97367188D01*
X263271678Y-97429604D01*
X263151553Y-97488923D01*
X263068829Y-97540680D01*
X263050782Y-97577715D01*
X262784834Y-97577715D01*
X262742705Y-97507003D01*
X262683914Y-97424826D01*
X262670705Y-97407431D01*
X262610731Y-97320661D01*
X262551791Y-97225048D01*
X262504227Y-97139104D01*
X262722203Y-97139104D01*
X262728181Y-97168263D01*
X262762527Y-97219235D01*
X262827622Y-97300368D01*
X262911344Y-97402361D01*
X263081622Y-97319083D01*
X263199108Y-97262240D01*
X263310622Y-97210714D01*
X263408673Y-97169407D01*
X263510389Y-97131165D01*
X263632900Y-97088833D01*
X263713600Y-97062558D01*
X263788458Y-97041114D01*
X263866659Y-97022837D01*
X263957633Y-97005980D01*
X264070811Y-96988796D01*
X264215622Y-96969538D01*
X264401497Y-96946459D01*
X264662093Y-96914658D01*
X264795197Y-96983938D01*
X264893637Y-97040532D01*
X265021288Y-97123482D01*
X265149481Y-97214727D01*
X265258585Y-97300842D01*
X265285615Y-97323187D01*
X265350052Y-97374757D01*
X265423685Y-97432343D01*
X265471947Y-97470076D01*
X265524911Y-97512800D01*
X265550600Y-97535365D01*
X265562135Y-97545619D01*
X265608079Y-97583640D01*
X265682228Y-97643834D01*
X265777629Y-97720568D01*
X265887330Y-97808210D01*
X265953881Y-97861399D01*
X266065138Y-97951141D01*
X266162469Y-98030652D01*
X266237229Y-98092847D01*
X266280770Y-98130638D01*
X266291455Y-98140337D01*
X266339991Y-98179233D01*
X266369864Y-98195000D01*
X266373514Y-98195976D01*
X266401791Y-98223015D01*
X266438535Y-98275553D01*
X266487522Y-98356107D01*
X266511450Y-98294603D01*
X266553227Y-98176585D01*
X266591497Y-98035830D01*
X266611048Y-97915661D01*
X266610646Y-97824413D01*
X266589059Y-97770418D01*
X266565767Y-97741298D01*
X266531909Y-97685348D01*
X266521126Y-97667174D01*
X266491359Y-97642280D01*
X266439288Y-97629605D01*
X266350700Y-97624367D01*
X266288506Y-97620474D01*
X266218141Y-97608059D01*
X266140960Y-97583283D01*
X266044460Y-97541995D01*
X265916138Y-97480041D01*
X265804400Y-97423342D01*
X265696403Y-97366163D01*
X265609739Y-97317801D01*
X265556617Y-97284884D01*
X265544211Y-97276175D01*
X265493142Y-97243164D01*
X265465257Y-97229800D01*
X265464708Y-97229743D01*
X265436196Y-97214743D01*
X265378724Y-97178331D01*
X265304078Y-97127953D01*
X265224939Y-97073188D01*
X265155236Y-97024949D01*
X265112036Y-96995047D01*
X265045019Y-96953987D01*
X264939667Y-96897597D01*
X264814000Y-96836184D01*
X264784311Y-96823485D01*
X264735968Y-96810405D01*
X264676302Y-96806292D01*
X264592338Y-96810647D01*
X264471100Y-96822970D01*
X264470384Y-96823050D01*
X264169985Y-96857810D01*
X263915222Y-96889850D01*
X263701065Y-96919926D01*
X263522481Y-96948792D01*
X263374437Y-96977204D01*
X263251900Y-97005916D01*
X263234108Y-97010463D01*
X263156723Y-97028283D01*
X263099500Y-97038648D01*
X263089340Y-97040113D01*
X263024908Y-97053199D01*
X262947100Y-97072665D01*
X262932922Y-97076505D01*
X262846921Y-97098466D01*
X262774781Y-97115047D01*
X262742212Y-97123408D01*
X262722203Y-97139104D01*
X262504227Y-97139104D01*
X262500948Y-97133180D01*
X262465264Y-97057647D01*
X262451800Y-97011036D01*
X262458352Y-97006392D01*
X262500567Y-96991376D01*
X262568982Y-96972424D01*
X262686164Y-96942918D01*
X262671043Y-96826009D01*
X262660522Y-96727819D01*
X262989497Y-96727819D01*
X262990132Y-96781501D01*
X262991224Y-96792569D01*
X262997079Y-96826686D01*
X263011642Y-96847069D01*
X263043075Y-96854199D01*
X263099539Y-96848553D01*
X263189197Y-96830609D01*
X263320210Y-96800846D01*
X263349280Y-96794275D01*
X263468415Y-96769303D01*
X263579986Y-96748582D01*
X263663110Y-96736058D01*
X263747930Y-96725920D01*
X263861508Y-96711771D01*
X263975800Y-96697079D01*
X264130003Y-96677489D01*
X264274952Y-96660852D01*
X264423105Y-96646118D01*
X264598210Y-96630756D01*
X264801520Y-96613664D01*
X265008436Y-96724882D01*
X265049489Y-96747169D01*
X265146110Y-96801300D01*
X265226000Y-96848290D01*
X265275026Y-96879921D01*
X265353748Y-96936334D01*
X265615656Y-97106744D01*
X265883577Y-97257191D01*
X266139385Y-97377245D01*
X266170621Y-97390163D01*
X266256940Y-97424988D01*
X266320359Y-97449276D01*
X266348935Y-97458400D01*
X266351344Y-97458269D01*
X266361151Y-97448702D01*
X266357145Y-97419420D01*
X266337062Y-97364011D01*
X266298633Y-97276065D01*
X266239593Y-97149172D01*
X266217724Y-97102807D01*
X266154273Y-96967255D01*
X266105628Y-96860416D01*
X266066213Y-96769034D01*
X266030453Y-96679857D01*
X265992772Y-96579630D01*
X265947592Y-96455100D01*
X265934430Y-96417834D01*
X265895924Y-96302495D01*
X265855892Y-96175087D01*
X265817217Y-96045670D01*
X265782784Y-95924303D01*
X265755476Y-95821046D01*
X265738175Y-95745959D01*
X265733766Y-95709101D01*
X265733847Y-95698521D01*
X265728522Y-95648398D01*
X265717618Y-95575463D01*
X265715793Y-95564657D01*
X265700522Y-95498293D01*
X265680848Y-95470510D01*
X265649768Y-95470476D01*
X265622415Y-95481066D01*
X265601400Y-95502600D01*
X265600916Y-95506839D01*
X265592075Y-95518061D01*
X265565929Y-95530726D01*
X265514488Y-95547580D01*
X265429765Y-95571366D01*
X265303772Y-95604827D01*
X265214565Y-95630327D01*
X264973785Y-95722422D01*
X264766075Y-95838262D01*
X264599044Y-95973865D01*
X264594607Y-95978236D01*
X264546340Y-96014245D01*
X264486311Y-96031541D01*
X264395239Y-96036000D01*
X264357740Y-96035024D01*
X264199668Y-96007239D01*
X264066277Y-95944888D01*
X263963568Y-95852986D01*
X263897543Y-95736548D01*
X263874200Y-95600589D01*
X263883010Y-95556143D01*
X263911096Y-95474491D01*
X263953238Y-95371497D01*
X264004046Y-95259547D01*
X264058132Y-95151031D01*
X264110106Y-95058336D01*
X264111286Y-95056398D01*
X264234887Y-94854682D01*
X264339063Y-94688241D01*
X264429893Y-94548518D01*
X264513453Y-94426959D01*
X264595821Y-94315008D01*
X264683075Y-94204110D01*
X264781292Y-94085709D01*
X264896550Y-93951249D01*
X264948076Y-93890676D01*
X265009979Y-93814528D01*
X265052315Y-93758137D01*
X265068000Y-93730615D01*
X265067793Y-93728587D01*
X265047702Y-93695014D01*
X265004819Y-93648699D01*
X264986315Y-93630339D01*
X264905493Y-93533697D01*
X264814925Y-93404557D01*
X264721920Y-93254536D01*
X264633788Y-93095249D01*
X264557837Y-92938313D01*
X264513500Y-92839422D01*
X264471220Y-92753068D01*
X264432101Y-92690824D01*
X264386685Y-92640473D01*
X264325514Y-92589794D01*
X264239127Y-92526566D01*
X264185921Y-92488552D01*
X264107172Y-92433577D01*
X264050037Y-92395366D01*
X264024223Y-92380516D01*
X264022654Y-92381307D01*
X264003581Y-92410490D01*
X263968843Y-92475078D01*
X263922852Y-92566050D01*
X263870021Y-92674389D01*
X263814762Y-92791073D01*
X263761488Y-92907083D01*
X263714610Y-93013400D01*
X263660619Y-93144391D01*
X263545787Y-93455999D01*
X263436997Y-93795480D01*
X263339422Y-94147198D01*
X263328947Y-94188367D01*
X263281360Y-94383205D01*
X263239675Y-94570032D01*
X263201665Y-94760555D01*
X263165101Y-94966484D01*
X263127755Y-95199526D01*
X263087399Y-95471388D01*
X263086207Y-95479817D01*
X263074516Y-95576577D01*
X263061475Y-95705182D01*
X263047764Y-95856474D01*
X263034062Y-96021295D01*
X263021051Y-96190488D01*
X263009408Y-96354895D01*
X262999815Y-96505358D01*
X262992951Y-96632718D01*
X262989497Y-96727819D01*
X262660522Y-96727819D01*
X262656095Y-96686502D01*
X262641389Y-96496318D01*
X262629190Y-96282537D01*
X262620071Y-96059446D01*
X262614606Y-95841334D01*
X262613367Y-95642489D01*
X262616930Y-95477200D01*
X262637704Y-95123856D01*
X262704590Y-94500336D01*
X262724359Y-94388193D01*
X262913102Y-94388193D01*
X262919443Y-94410400D01*
X262924413Y-94408682D01*
X262934400Y-94380319D01*
X262937557Y-94363421D01*
X262957024Y-94307248D01*
X262988362Y-94234269D01*
X263021544Y-94162759D01*
X263070206Y-94057532D01*
X263118317Y-93953200D01*
X263165122Y-93852221D01*
X263224864Y-93724525D01*
X263280256Y-93607178D01*
X263289703Y-93587122D01*
X263328588Y-93500594D01*
X263355894Y-93433330D01*
X263366200Y-93398490D01*
X263374411Y-93363758D01*
X263398880Y-93296325D01*
X263433213Y-93214399D01*
X263470901Y-93134394D01*
X263482671Y-93107492D01*
X263493200Y-93066399D01*
X263494736Y-93058817D01*
X263511964Y-93012143D01*
X263544267Y-92936432D01*
X263586563Y-92843804D01*
X263603258Y-92808054D01*
X263643499Y-92719882D01*
X263672686Y-92653006D01*
X263685406Y-92619700D01*
X263685863Y-92617980D01*
X263702121Y-92580409D01*
X263735488Y-92513042D01*
X263779392Y-92429200D01*
X263867899Y-92264100D01*
X263750400Y-92158162D01*
X263694346Y-92111701D01*
X263645127Y-92081165D01*
X263622598Y-92081962D01*
X263618119Y-92093245D01*
X263595295Y-92145583D01*
X263558985Y-92226146D01*
X263514648Y-92322753D01*
X263493594Y-92369022D01*
X263454325Y-92460094D01*
X263427152Y-92529902D01*
X263417000Y-92566170D01*
X263416185Y-92576757D01*
X263399593Y-92615940D01*
X263387100Y-92635227D01*
X263357812Y-92702570D01*
X263319230Y-92809438D01*
X263273592Y-92949900D01*
X263260907Y-92989902D01*
X263228967Y-93086564D01*
X263201224Y-93165800D01*
X263194213Y-93185393D01*
X263164684Y-93275656D01*
X263137214Y-93369000D01*
X263131813Y-93388679D01*
X263102035Y-93495542D01*
X263073045Y-93597600D01*
X263064558Y-93628024D01*
X263037206Y-93734944D01*
X263013386Y-93838900D01*
X263006739Y-93870327D01*
X262982381Y-93983989D01*
X262959301Y-94089955D01*
X262952173Y-94123390D01*
X262932592Y-94224829D01*
X262918219Y-94312205D01*
X262915666Y-94332851D01*
X262913102Y-94388193D01*
X262724359Y-94388193D01*
X262810206Y-93901219D01*
X262956237Y-93319188D01*
X263144366Y-92746927D01*
X263376276Y-92177122D01*
X263494222Y-91912345D01*
X263423861Y-91834626D01*
X263408266Y-91817440D01*
X263364305Y-91769454D01*
X263340144Y-91743804D01*
X263326826Y-91728205D01*
X263289351Y-91681134D01*
X263239200Y-91616400D01*
X263201826Y-91568291D01*
X263159035Y-91515165D01*
X263136152Y-91489400D01*
X263117906Y-91466552D01*
X263079025Y-91407074D01*
X263028041Y-91323448D01*
X262971545Y-91226967D01*
X262916129Y-91128923D01*
X262868385Y-91040609D01*
X262834904Y-90973317D01*
X262807183Y-90907645D01*
X262765624Y-90797340D01*
X262729153Y-90688652D01*
X262706288Y-90619754D01*
X262672872Y-90548472D01*
X262628035Y-90495772D01*
X262558933Y-90443126D01*
X262516663Y-90413746D01*
X262434584Y-90353722D01*
X262358648Y-90292364D01*
X262278646Y-90220728D01*
X262184371Y-90129868D01*
X262065616Y-90010841D01*
X261927165Y-89861880D01*
X261712659Y-89588758D01*
X261522495Y-89286876D01*
X261354779Y-88952270D01*
X261207619Y-88580977D01*
X261079119Y-88169037D01*
X261044165Y-88026211D01*
X261235451Y-88026211D01*
X261236853Y-88077005D01*
X261264421Y-88171114D01*
X261269046Y-88184479D01*
X261302316Y-88283543D01*
X261332704Y-88377900D01*
X261373961Y-88500212D01*
X261450275Y-88695368D01*
X261538229Y-88892560D01*
X261631659Y-89079003D01*
X261724401Y-89241911D01*
X261810292Y-89368500D01*
X261812030Y-89370794D01*
X261840255Y-89411572D01*
X261878485Y-89470100D01*
X261895381Y-89495392D01*
X261956123Y-89577899D01*
X262034699Y-89677349D01*
X262121456Y-89782222D01*
X262206739Y-89880992D01*
X262280894Y-89962136D01*
X262334266Y-90014131D01*
X262368718Y-90044146D01*
X262423166Y-90094354D01*
X262439689Y-90109306D01*
X262496932Y-90156132D01*
X262566100Y-90208654D01*
X262589191Y-90225873D01*
X262677335Y-90295722D01*
X262756600Y-90363594D01*
X262846417Y-90438396D01*
X263015603Y-90556834D01*
X263200934Y-90665106D01*
X263381905Y-90750525D01*
X263505900Y-90800829D01*
X263391600Y-90801593D01*
X263374877Y-90801456D01*
X263267822Y-90793413D01*
X263165998Y-90776697D01*
X263133506Y-90769807D01*
X263072595Y-90760819D01*
X263043178Y-90762556D01*
X263040840Y-90768069D01*
X263044621Y-90791491D01*
X263061487Y-90838310D01*
X263094302Y-90916041D01*
X263145929Y-91032200D01*
X263173188Y-91085530D01*
X263219554Y-91166849D01*
X263274866Y-91258591D01*
X263330672Y-91347077D01*
X263378520Y-91418625D01*
X263409957Y-91459554D01*
X263424270Y-91475935D01*
X263466494Y-91530484D01*
X263515749Y-91599254D01*
X263524486Y-91611546D01*
X263603150Y-91706073D01*
X263712610Y-91819097D01*
X263843329Y-91941620D01*
X263985773Y-92064645D01*
X264130403Y-92179174D01*
X264209707Y-92237656D01*
X264248130Y-92264100D01*
X264355564Y-92338040D01*
X264507815Y-92432369D01*
X264676777Y-92526553D01*
X264872767Y-92626501D01*
X265106100Y-92738123D01*
X265233100Y-92797500D01*
X265048950Y-92804962D01*
X265036496Y-92805508D01*
X264949566Y-92811850D01*
X264888226Y-92820715D01*
X264865075Y-92830362D01*
X264874379Y-92889377D01*
X264905730Y-92989883D01*
X264953667Y-93109612D01*
X265012441Y-93235513D01*
X265076308Y-93354536D01*
X265139521Y-93453631D01*
X265227783Y-93576362D01*
X265288726Y-93515419D01*
X265318034Y-93483094D01*
X265335990Y-93439404D01*
X265323135Y-93384684D01*
X265315108Y-93351342D01*
X265305706Y-93270320D01*
X265299508Y-93164867D01*
X265296790Y-93049990D01*
X265297831Y-92940691D01*
X265302907Y-92851976D01*
X265312298Y-92798848D01*
X265325712Y-92783470D01*
X265352643Y-92785921D01*
X265397410Y-92810569D01*
X265464771Y-92860604D01*
X265559482Y-92939214D01*
X265686300Y-93049589D01*
X265860099Y-93202771D01*
X265961145Y-93089035D01*
X266007718Y-93036384D01*
X266062083Y-92973101D01*
X266092761Y-92932953D01*
X266106338Y-92906917D01*
X266109400Y-92885973D01*
X266110829Y-92876977D01*
X266131453Y-92871630D01*
X266141117Y-92886834D01*
X266157309Y-92941506D01*
X266170973Y-93019179D01*
X266182490Y-93108421D01*
X266196706Y-93189074D01*
X266218440Y-93235637D01*
X266257110Y-93257161D01*
X266322135Y-93262697D01*
X266422934Y-93261295D01*
X266568925Y-93265357D01*
X266800034Y-93294997D01*
X267011100Y-93349591D01*
X267048571Y-93363105D01*
X267136856Y-93399185D01*
X267220384Y-93437991D01*
X267284888Y-93472659D01*
X267316103Y-93496327D01*
X267310080Y-93506319D01*
X267267209Y-93521641D01*
X267195593Y-93534525D01*
X267143471Y-93542625D01*
X267064912Y-93559981D01*
X266998120Y-93579992D01*
X266952531Y-93599156D01*
X266937583Y-93613971D01*
X266962713Y-93620937D01*
X267002985Y-93630440D01*
X267084224Y-93669712D01*
X267183239Y-93732462D01*
X267289436Y-93811212D01*
X267392221Y-93898484D01*
X267481000Y-93986799D01*
X267550388Y-94062991D01*
X267664730Y-94185601D01*
X267757599Y-94279331D01*
X267836488Y-94350731D01*
X267908891Y-94406346D01*
X267982302Y-94452726D01*
X268064213Y-94496419D01*
X268128081Y-94526201D01*
X268217074Y-94556587D01*
X268273851Y-94559048D01*
X268293800Y-94532853D01*
X268286828Y-94488813D01*
X268270046Y-94424903D01*
X268231509Y-94290217D01*
X268148109Y-93923963D01*
X268088346Y-93540204D01*
X268053726Y-93153628D01*
X268045752Y-92778924D01*
X268065927Y-92430778D01*
X268072349Y-92352730D01*
X268075875Y-92195338D01*
X268068397Y-92041971D01*
X268051124Y-91904229D01*
X268025266Y-91793711D01*
X267992032Y-91722018D01*
X267982819Y-91710581D01*
X267965397Y-91693780D01*
X267939718Y-91676232D01*
X267900829Y-91655909D01*
X267843777Y-91630784D01*
X267763609Y-91598831D01*
X267655370Y-91558021D01*
X267514109Y-91506328D01*
X267334870Y-91441725D01*
X267112700Y-91362186D01*
X267040743Y-91335869D01*
X266949835Y-91301105D01*
X266884100Y-91274227D01*
X266814190Y-91244286D01*
X266731700Y-91210324D01*
X266663371Y-91181279D01*
X266583592Y-91144150D01*
X266583491Y-91144100D01*
X266525443Y-91118885D01*
X266486769Y-91108400D01*
X266459145Y-91101051D01*
X266397073Y-91077309D01*
X266317378Y-91042850D01*
X266249398Y-91012241D01*
X266172092Y-90978012D01*
X266122100Y-90956579D01*
X266084314Y-90940512D01*
X266010658Y-90908192D01*
X265924556Y-90869728D01*
X265853559Y-90838496D01*
X265792471Y-90813274D01*
X265763651Y-90803600D01*
X265751096Y-90799614D01*
X265697531Y-90776357D01*
X265608615Y-90735007D01*
X265490573Y-90678646D01*
X265349629Y-90610359D01*
X265192005Y-90533229D01*
X265024658Y-90450704D01*
X265474400Y-90450704D01*
X265475094Y-90453647D01*
X265502333Y-90478556D01*
X265556950Y-90508412D01*
X265595197Y-90525712D01*
X265734829Y-90588326D01*
X265842723Y-90635772D01*
X265914103Y-90665971D01*
X265944189Y-90676846D01*
X265949591Y-90678459D01*
X265991075Y-90695485D01*
X266062894Y-90727068D01*
X266153609Y-90768218D01*
X266223859Y-90799617D01*
X266353449Y-90855090D01*
X266496648Y-90914259D01*
X266633281Y-90968692D01*
X266741366Y-91011190D01*
X266843865Y-91052417D01*
X266921696Y-91084735D01*
X266963481Y-91103496D01*
X266987598Y-91114094D01*
X267055726Y-91141018D01*
X267156106Y-91179126D01*
X267279708Y-91225002D01*
X267417500Y-91275229D01*
X267512114Y-91309414D01*
X267690137Y-91373950D01*
X267828552Y-91425014D01*
X267932964Y-91465295D01*
X268008976Y-91497483D01*
X268062193Y-91524268D01*
X268098220Y-91548338D01*
X268122660Y-91572384D01*
X268141120Y-91599095D01*
X268159202Y-91631161D01*
X268206597Y-91744155D01*
X268239978Y-91898894D01*
X268255160Y-92091742D01*
X268252800Y-92327600D01*
X268248786Y-92433347D01*
X268242682Y-92689050D01*
X268241834Y-92931033D01*
X268246108Y-93150080D01*
X268255371Y-93336977D01*
X268269491Y-93482509D01*
X268274157Y-93516919D01*
X268295957Y-93675244D01*
X268314357Y-93799694D01*
X268332108Y-93904092D01*
X268351962Y-94002267D01*
X268376672Y-94108042D01*
X268408991Y-94235244D01*
X268451669Y-94397700D01*
X268477122Y-94485929D01*
X268493047Y-94532853D01*
X268539445Y-94669571D01*
X268617410Y-94871085D01*
X268704436Y-95073864D01*
X268793939Y-95261300D01*
X268797103Y-95267520D01*
X268852451Y-95374915D01*
X268899927Y-95464494D01*
X268934570Y-95527056D01*
X268951420Y-95553400D01*
X268955407Y-95557608D01*
X268981248Y-95595433D01*
X269016275Y-95655000D01*
X269024864Y-95670170D01*
X269063240Y-95732148D01*
X269092475Y-95771132D01*
X269100836Y-95780473D01*
X269137660Y-95827955D01*
X269182800Y-95891608D01*
X269201138Y-95917444D01*
X269240780Y-95965773D01*
X269265350Y-95985026D01*
X269269787Y-95985768D01*
X269284400Y-96010666D01*
X269293524Y-96029239D01*
X269331806Y-96074712D01*
X269389800Y-96131316D01*
X269439867Y-96172778D01*
X269443884Y-96175016D01*
X269513266Y-96213673D01*
X269592786Y-96227162D01*
X269691447Y-96214636D01*
X269822264Y-96177483D01*
X270018229Y-96093198D01*
X270222753Y-95964444D01*
X270421241Y-95798967D01*
X270476554Y-95742572D01*
X270569799Y-95635146D01*
X270667647Y-95511101D01*
X270760152Y-95383751D01*
X270837365Y-95266412D01*
X270889340Y-95172400D01*
X270900574Y-95148053D01*
X270941177Y-95059555D01*
X270982382Y-94969200D01*
X271044253Y-94817894D01*
X271129621Y-94545689D01*
X271193034Y-94255389D01*
X271229829Y-93965900D01*
X271239403Y-93852153D01*
X271252242Y-93713516D01*
X271265170Y-93584900D01*
X271268106Y-93550003D01*
X271273098Y-93444523D01*
X271276436Y-93303611D01*
X271277991Y-93137649D01*
X271277635Y-92957018D01*
X271275240Y-92772100D01*
X271270582Y-92514780D01*
X271267257Y-92289905D01*
X271265908Y-92105927D01*
X271266921Y-91957783D01*
X271270686Y-91840415D01*
X271277588Y-91748760D01*
X271288016Y-91677758D01*
X271302358Y-91622349D01*
X271321001Y-91577470D01*
X271344332Y-91538063D01*
X271372740Y-91499065D01*
X271402765Y-91460882D01*
X271460488Y-91396183D01*
X271521565Y-91344728D01*
X271597214Y-91299215D01*
X271698653Y-91252340D01*
X271837100Y-91196803D01*
X271844712Y-91193850D01*
X271938384Y-91157297D01*
X272017524Y-91126052D01*
X272065700Y-91106601D01*
X272065901Y-91106517D01*
X272108920Y-91088922D01*
X272187824Y-91057002D01*
X272291441Y-91015266D01*
X272408600Y-90968222D01*
X272523198Y-90921916D01*
X272640676Y-90873727D01*
X272738265Y-90832958D01*
X272802300Y-90805267D01*
X272822830Y-90796172D01*
X272903217Y-90763033D01*
X272967400Y-90739914D01*
X272997650Y-90729453D01*
X273073242Y-90699574D01*
X273157900Y-90662983D01*
X273230618Y-90630757D01*
X273341896Y-90582749D01*
X273450000Y-90537267D01*
X273537227Y-90500586D01*
X273638520Y-90456759D01*
X273716700Y-90421625D01*
X273738632Y-90411520D01*
X273811796Y-90378237D01*
X273919037Y-90329750D01*
X274052272Y-90269705D01*
X274203421Y-90201746D01*
X274364400Y-90129518D01*
X274429986Y-90100092D01*
X274600241Y-90023449D01*
X274764797Y-89949039D01*
X274913481Y-89881478D01*
X275036120Y-89825384D01*
X275122542Y-89785376D01*
X275171110Y-89762885D01*
X275259605Y-89723433D01*
X275325373Y-89696173D01*
X275356878Y-89685999D01*
X275361657Y-89685314D01*
X275402994Y-89668203D01*
X275462337Y-89635294D01*
X275474040Y-89628392D01*
X275538830Y-89597214D01*
X275586840Y-89584494D01*
X275610194Y-89580161D01*
X275657135Y-89549512D01*
X275662644Y-89542237D01*
X275666713Y-89510726D01*
X275628495Y-89475967D01*
X275583420Y-89443065D01*
X275520100Y-89390205D01*
X275503398Y-89375594D01*
X275440599Y-89326353D01*
X275367700Y-89274333D01*
X275304581Y-89231377D01*
X275210966Y-89167256D01*
X275117488Y-89102883D01*
X275110700Y-89098198D01*
X275037759Y-89048647D01*
X274984042Y-89013535D01*
X274960750Y-89000199D01*
X274953363Y-88996813D01*
X274911446Y-88972943D01*
X274841568Y-88931223D01*
X274753762Y-88877596D01*
X274717798Y-88855619D01*
X274296007Y-88623603D01*
X273843149Y-88417727D01*
X273370255Y-88241708D01*
X272888355Y-88099262D01*
X272408482Y-87994108D01*
X271941666Y-87929963D01*
X271887091Y-87925801D01*
X271756553Y-87919841D01*
X271597421Y-87916177D01*
X271419617Y-87914700D01*
X271233063Y-87915302D01*
X271047680Y-87917872D01*
X270873391Y-87922302D01*
X270720117Y-87928483D01*
X270597780Y-87936304D01*
X270516300Y-87945657D01*
X270464616Y-87954535D01*
X270374361Y-87969792D01*
X270275000Y-87986405D01*
X269970627Y-88042370D01*
X269652603Y-88111095D01*
X269342213Y-88187874D01*
X269053824Y-88269148D01*
X268801800Y-88351358D01*
X268796299Y-88353314D01*
X268686195Y-88392194D01*
X268578933Y-88429639D01*
X268497000Y-88457794D01*
X268433453Y-88481300D01*
X268307408Y-88533867D01*
X268153876Y-88602725D01*
X267983081Y-88682951D01*
X267805246Y-88769620D01*
X267630595Y-88857808D01*
X267469353Y-88942590D01*
X267331744Y-89019042D01*
X267249326Y-89066543D01*
X267153489Y-89121583D01*
X267078732Y-89164294D01*
X267036500Y-89188122D01*
X267003319Y-89207668D01*
X266973000Y-89229355D01*
X266968927Y-89232745D01*
X266931666Y-89258697D01*
X266865865Y-89302144D01*
X266782500Y-89355800D01*
X266755038Y-89373354D01*
X266676000Y-89424743D01*
X266617992Y-89463766D01*
X266592000Y-89483082D01*
X266566768Y-89503743D01*
X266511948Y-89545047D01*
X266439600Y-89597882D01*
X266417797Y-89613605D01*
X266361154Y-89654730D01*
X266312724Y-89690901D01*
X266264707Y-89728449D01*
X266209301Y-89773707D01*
X266138706Y-89833005D01*
X266045122Y-89912678D01*
X265920749Y-90019055D01*
X265797182Y-90125935D01*
X265656342Y-90251910D01*
X265555431Y-90348192D01*
X265494700Y-90414538D01*
X265474400Y-90450704D01*
X265024658Y-90450704D01*
X265023926Y-90450343D01*
X264851615Y-90364782D01*
X264681295Y-90279631D01*
X264519191Y-90197975D01*
X264477999Y-90177032D01*
X264864338Y-90177032D01*
X265023319Y-90251596D01*
X265107077Y-90291156D01*
X265181523Y-90326841D01*
X265226406Y-90348980D01*
X265252402Y-90361155D01*
X265277206Y-90367963D01*
X265277401Y-90367830D01*
X265298685Y-90347856D01*
X265348488Y-90299505D01*
X265419628Y-90229787D01*
X265504923Y-90145713D01*
X265603907Y-90048225D01*
X265688558Y-89966233D01*
X265757090Y-89902394D01*
X265819876Y-89847342D01*
X265887288Y-89791713D01*
X265969700Y-89726145D01*
X266030835Y-89677069D01*
X266084109Y-89632446D01*
X266109400Y-89608760D01*
X266113256Y-89605012D01*
X266149673Y-89576456D01*
X266217218Y-89526458D01*
X266308018Y-89460789D01*
X266414200Y-89385225D01*
X266448638Y-89360874D01*
X266552965Y-89286796D01*
X266640907Y-89223904D01*
X266704075Y-89178215D01*
X266734085Y-89155744D01*
X266734549Y-89155360D01*
X266775941Y-89126873D01*
X266835685Y-89091142D01*
X266854277Y-89080548D01*
X266930757Y-89035431D01*
X267011100Y-88986400D01*
X267038971Y-88969237D01*
X267110872Y-88926504D01*
X267163500Y-88897284D01*
X267193172Y-88881567D01*
X267261664Y-88843840D01*
X267341300Y-88798888D01*
X267352832Y-88792328D01*
X267525292Y-88699118D01*
X267719875Y-88601356D01*
X267912800Y-88511023D01*
X267967411Y-88486481D01*
X268079708Y-88435850D01*
X268179500Y-88390677D01*
X268198911Y-88381950D01*
X268382689Y-88305510D01*
X268597616Y-88225247D01*
X268827200Y-88147354D01*
X268838209Y-88143803D01*
X268941238Y-88110523D01*
X269033553Y-88080633D01*
X269096335Y-88060227D01*
X269141557Y-88046334D01*
X269254744Y-88014998D01*
X269394958Y-87978975D01*
X269547499Y-87941807D01*
X269697670Y-87907034D01*
X269830770Y-87878199D01*
X269932100Y-87858844D01*
X269941093Y-87857337D01*
X270059391Y-87836667D01*
X270196944Y-87811519D01*
X270325800Y-87786996D01*
X270384133Y-87777799D01*
X270514317Y-87764842D01*
X270679649Y-87754585D01*
X270871541Y-87747035D01*
X271081406Y-87742202D01*
X271300658Y-87740092D01*
X271520709Y-87740714D01*
X271732972Y-87744077D01*
X271928860Y-87750189D01*
X272099785Y-87759057D01*
X272237161Y-87770689D01*
X272332400Y-87785095D01*
X272441876Y-87808582D01*
X272574323Y-87835605D01*
X272688000Y-87857460D01*
X272767515Y-87873142D01*
X272878309Y-87897934D01*
X272967400Y-87921031D01*
X273131292Y-87969450D01*
X273308014Y-88023351D01*
X273439824Y-88065864D01*
X273525302Y-88096528D01*
X273563031Y-88114881D01*
X273580760Y-88125505D01*
X273633225Y-88136600D01*
X273661918Y-88139803D01*
X273723395Y-88160769D01*
X273731336Y-88164967D01*
X273789836Y-88192709D01*
X273862750Y-88224269D01*
X273982128Y-88274380D01*
X274099775Y-88326400D01*
X274220200Y-88383157D01*
X274364400Y-88454281D01*
X274486362Y-88515569D01*
X274610092Y-88578941D01*
X274695773Y-88624696D01*
X274747853Y-88655226D01*
X274770781Y-88672926D01*
X274790814Y-88686356D01*
X274840650Y-88706388D01*
X274876640Y-88722941D01*
X274897800Y-88747911D01*
X274898438Y-88753232D01*
X274922707Y-88771599D01*
X274928304Y-88772560D01*
X274973320Y-88793525D01*
X275048768Y-88837666D01*
X275146362Y-88899353D01*
X275257820Y-88972952D01*
X275374857Y-89052833D01*
X275489189Y-89133363D01*
X275592532Y-89208911D01*
X275676602Y-89273845D01*
X275733114Y-89322533D01*
X275736691Y-89325959D01*
X275783955Y-89365087D01*
X275815664Y-89381200D01*
X275826277Y-89386252D01*
X275837600Y-89421416D01*
X275840228Y-89440506D01*
X275856789Y-89453166D01*
X275884210Y-89440566D01*
X275953491Y-89407868D01*
X276048725Y-89362455D01*
X276158449Y-89309829D01*
X276271195Y-89255492D01*
X276375501Y-89204948D01*
X276459900Y-89163699D01*
X276477826Y-89154950D01*
X276564117Y-89114957D01*
X276631953Y-89086861D01*
X276667951Y-89076286D01*
X276685413Y-89074796D01*
X276712023Y-89053044D01*
X276699259Y-89011127D01*
X276648333Y-88956462D01*
X276641420Y-88950687D01*
X276547097Y-88876563D01*
X276424491Y-88786157D01*
X276287193Y-88689094D01*
X276148796Y-88595000D01*
X276022889Y-88513501D01*
X276000801Y-88499630D01*
X275921945Y-88449075D01*
X275863785Y-88410172D01*
X275837600Y-88390416D01*
X275833872Y-88386970D01*
X275796171Y-88363015D01*
X275736000Y-88330939D01*
X275696393Y-88310434D01*
X275609124Y-88262679D01*
X275520100Y-88211557D01*
X275382429Y-88135512D01*
X275189537Y-88039529D01*
X274961300Y-87934762D01*
X274912566Y-87912845D01*
X274836310Y-87877360D01*
X274785507Y-87852196D01*
X274770293Y-87844459D01*
X274686958Y-87808315D01*
X274567367Y-87762218D01*
X274421360Y-87709454D01*
X274258774Y-87653308D01*
X274089448Y-87597064D01*
X273923222Y-87544009D01*
X273769935Y-87497427D01*
X273639424Y-87460604D01*
X273541530Y-87436825D01*
X273486243Y-87423474D01*
X273414530Y-87403659D01*
X273378517Y-87393945D01*
X273291026Y-87373368D01*
X273196000Y-87353663D01*
X273191953Y-87352888D01*
X273093798Y-87334043D01*
X272972409Y-87310694D01*
X272853100Y-87287712D01*
X272760430Y-87270161D01*
X272675421Y-87255284D01*
X272594131Y-87243100D01*
X272507490Y-87232641D01*
X272406427Y-87222937D01*
X272281871Y-87213021D01*
X272124753Y-87201921D01*
X271926000Y-87188671D01*
X271808078Y-87181252D01*
X271615477Y-87171527D01*
X271445983Y-87167312D01*
X271281712Y-87168587D01*
X271104779Y-87175331D01*
X270897300Y-87187526D01*
X270821694Y-87192528D01*
X270603273Y-87208180D01*
X270421037Y-87223695D01*
X270263813Y-87240357D01*
X270120431Y-87259449D01*
X269979717Y-87282253D01*
X269830500Y-87310054D01*
X269821842Y-87311745D01*
X269704421Y-87334475D01*
X269589321Y-87356445D01*
X269500300Y-87373116D01*
X269419788Y-87390317D01*
X269306765Y-87418473D01*
X269195500Y-87449551D01*
X269096681Y-87478853D01*
X268993669Y-87509024D01*
X268916100Y-87531348D01*
X268882678Y-87541009D01*
X268773970Y-87574272D01*
X268651464Y-87613682D01*
X268530775Y-87654054D01*
X268427515Y-87690203D01*
X268357300Y-87716942D01*
X268355980Y-87717495D01*
X268292890Y-87743341D01*
X268202280Y-87779839D01*
X268103300Y-87819274D01*
X268007427Y-87859718D01*
X267872002Y-87921272D01*
X267717169Y-87994867D01*
X267553888Y-88075033D01*
X267393121Y-88156302D01*
X267245828Y-88233205D01*
X267122972Y-88300272D01*
X267035512Y-88352036D01*
X266965261Y-88395154D01*
X266904758Y-88428595D01*
X266873024Y-88441400D01*
X266870716Y-88441494D01*
X266841767Y-88460567D01*
X266838303Y-88464914D01*
X266802828Y-88493515D01*
X266738325Y-88538875D01*
X266655500Y-88593361D01*
X266627840Y-88611102D01*
X266548892Y-88662497D01*
X266490959Y-88701355D01*
X266465000Y-88720369D01*
X266441571Y-88739323D01*
X266385556Y-88782303D01*
X266305546Y-88842750D01*
X266210032Y-88914207D01*
X266117900Y-88983378D01*
X266030690Y-89049971D01*
X265965048Y-89101325D01*
X265930632Y-89129982D01*
X265923363Y-89136707D01*
X265877960Y-89176820D01*
X265809034Y-89236326D01*
X265728400Y-89305000D01*
X265659517Y-89365049D01*
X265526619Y-89487334D01*
X265380487Y-89627901D01*
X265233702Y-89774336D01*
X265098845Y-89914224D01*
X264988495Y-90035151D01*
X264864338Y-90177032D01*
X264477999Y-90177032D01*
X264371526Y-90122898D01*
X264244523Y-90057483D01*
X264144407Y-90004815D01*
X264077400Y-89967978D01*
X264012317Y-89931132D01*
X263920604Y-89881045D01*
X263848800Y-89843864D01*
X263836712Y-89837806D01*
X263770793Y-89800442D01*
X263726336Y-89768550D01*
X263705410Y-89753113D01*
X263656486Y-89736800D01*
X263640641Y-89734234D01*
X263620200Y-89711400D01*
X263619519Y-89705376D01*
X263596382Y-89686000D01*
X263596278Y-89685997D01*
X263568171Y-89672943D01*
X263505872Y-89638008D01*
X263417972Y-89586457D01*
X263313060Y-89523555D01*
X263199726Y-89454563D01*
X263086562Y-89384748D01*
X262982157Y-89319372D01*
X262895102Y-89263700D01*
X262833986Y-89222996D01*
X262807400Y-89202523D01*
X262784987Y-89184071D01*
X262735989Y-89154673D01*
X262719288Y-89144842D01*
X262663093Y-89108279D01*
X262582697Y-89053819D01*
X262487554Y-88988101D01*
X262387121Y-88917768D01*
X262290853Y-88849462D01*
X262208207Y-88789824D01*
X262148637Y-88745497D01*
X262121600Y-88723122D01*
X262111411Y-88713628D01*
X262068704Y-88679406D01*
X262007300Y-88633182D01*
X261976676Y-88610420D01*
X261906297Y-88556377D01*
X261854900Y-88514643D01*
X261846528Y-88507460D01*
X261795114Y-88464030D01*
X261721124Y-88402108D01*
X261637586Y-88332605D01*
X261627569Y-88324276D01*
X261530792Y-88242306D01*
X261434508Y-88158544D01*
X261358186Y-88089902D01*
X261314434Y-88051713D01*
X261261036Y-88018018D01*
X261235451Y-88026211D01*
X261044165Y-88026211D01*
X260967387Y-87712485D01*
X260964755Y-87700306D01*
X260938831Y-87573788D01*
X260927603Y-87493142D01*
X260933471Y-87455160D01*
X260958837Y-87456631D01*
X261006102Y-87494347D01*
X261077668Y-87565100D01*
X261129355Y-87616901D01*
X261230205Y-87714687D01*
X261342432Y-87820490D01*
X261456515Y-87925581D01*
X261562939Y-88021231D01*
X261652183Y-88098714D01*
X261714731Y-88149300D01*
X261773433Y-88195872D01*
X261821456Y-88238869D01*
X261853393Y-88267540D01*
X261915920Y-88318951D01*
X261990734Y-88377438D01*
X262053992Y-88428210D01*
X262102884Y-88472777D01*
X262121600Y-88497419D01*
X262125125Y-88506104D01*
X262157584Y-88517600D01*
X262172812Y-88519317D01*
X262202034Y-88537721D01*
X262202252Y-88538149D01*
X262226836Y-88560517D01*
X262284136Y-88605223D01*
X262365509Y-88666054D01*
X262462312Y-88736797D01*
X262565902Y-88811238D01*
X262667635Y-88883164D01*
X262758870Y-88946361D01*
X262830962Y-88994616D01*
X262875270Y-89021714D01*
X262914387Y-89045500D01*
X262966504Y-89086731D01*
X262971419Y-89091364D01*
X263022345Y-89129286D01*
X263089134Y-89169666D01*
X263125806Y-89190604D01*
X263209701Y-89242514D01*
X263294577Y-89298868D01*
X263345766Y-89333481D01*
X263400160Y-89367884D01*
X263426454Y-89381200D01*
X263442153Y-89388273D01*
X263493944Y-89417019D01*
X263572178Y-89462766D01*
X263667250Y-89519977D01*
X263724453Y-89554560D01*
X263840431Y-89623358D01*
X263948359Y-89685867D01*
X264030673Y-89731848D01*
X264074572Y-89755498D01*
X264174716Y-89809420D01*
X264292229Y-89872668D01*
X264409884Y-89935971D01*
X264491352Y-89978721D01*
X264583697Y-90024328D01*
X264653279Y-90055365D01*
X264689284Y-90066769D01*
X264697796Y-90065024D01*
X264739567Y-90036523D01*
X264787137Y-89984219D01*
X264825915Y-89937574D01*
X264901537Y-89854909D01*
X265001153Y-89751048D01*
X265117399Y-89633279D01*
X265242909Y-89508885D01*
X265370319Y-89385152D01*
X265492265Y-89269367D01*
X265601380Y-89168815D01*
X265690300Y-89090780D01*
X265749846Y-89040577D01*
X265835268Y-88968446D01*
X265903738Y-88910498D01*
X265944300Y-88875998D01*
X265955968Y-88866201D01*
X266031854Y-88806954D01*
X266138245Y-88728402D01*
X266265276Y-88637462D01*
X266403082Y-88541054D01*
X266541799Y-88446095D01*
X266671560Y-88359502D01*
X266782500Y-88288195D01*
X266943561Y-88191942D01*
X267149426Y-88077100D01*
X267371615Y-87959861D01*
X267595414Y-87847770D01*
X267806113Y-87748377D01*
X267989000Y-87669227D01*
X268054433Y-87642665D01*
X268161464Y-87599058D01*
X268250304Y-87562671D01*
X268306500Y-87539415D01*
X268387820Y-87507464D01*
X268496094Y-87468029D01*
X268611084Y-87428269D01*
X268714762Y-87394414D01*
X268789100Y-87372690D01*
X268808822Y-87367534D01*
X268883111Y-87347179D01*
X268983455Y-87318944D01*
X269093900Y-87287299D01*
X269161949Y-87268154D01*
X269335406Y-87223904D01*
X269528159Y-87181174D01*
X269748028Y-87138405D01*
X270002835Y-87094034D01*
X270300400Y-87046502D01*
X270380655Y-87036266D01*
X270518868Y-87023269D01*
X270686252Y-87010957D01*
X270870697Y-87000029D01*
X271060093Y-86991186D01*
X271242331Y-86985130D01*
X271405300Y-86982561D01*
X271564131Y-86983543D01*
X271902093Y-86995327D01*
X272238183Y-87019193D01*
X272556315Y-87053847D01*
X272840400Y-87097995D01*
X272895473Y-87108118D01*
X272982447Y-87123822D01*
X273043600Y-87134515D01*
X273091506Y-87142893D01*
X273241110Y-87172700D01*
X273384253Y-87205946D01*
X273498975Y-87237656D01*
X273530510Y-87247062D01*
X273605239Y-87265623D01*
X273655679Y-87272999D01*
X273663710Y-87273644D01*
X273720615Y-87286237D01*
X273814102Y-87312703D01*
X273935463Y-87350134D01*
X274075994Y-87395623D01*
X274226987Y-87446264D01*
X274379736Y-87499149D01*
X274525536Y-87551373D01*
X274655679Y-87600027D01*
X274761460Y-87642205D01*
X274877884Y-87692349D01*
X275011043Y-87752256D01*
X275146848Y-87815463D01*
X275277123Y-87877982D01*
X275393689Y-87935820D01*
X275488370Y-87984988D01*
X275552989Y-88021494D01*
X275579367Y-88041350D01*
X275581249Y-88044700D01*
X275613036Y-88060400D01*
X275632065Y-88066953D01*
X275686512Y-88093544D01*
X275761997Y-88133871D01*
X275845573Y-88180648D01*
X275924296Y-88226589D01*
X275985220Y-88264411D01*
X276015400Y-88286829D01*
X276019574Y-88290658D01*
X276057390Y-88315984D01*
X276117000Y-88350587D01*
X276134472Y-88360365D01*
X276189937Y-88393944D01*
X276218600Y-88415427D01*
X276225751Y-88422017D01*
X276266902Y-88451320D01*
X276328612Y-88490536D01*
X276385760Y-88528153D01*
X276472352Y-88588823D01*
X276575819Y-88663663D01*
X276684328Y-88744230D01*
X276942733Y-88938769D01*
X277265483Y-88772634D01*
X277585484Y-88602045D01*
X277952701Y-88393114D01*
X278313542Y-88174625D01*
X278654049Y-87955059D01*
X278960262Y-87742900D01*
X278987224Y-87723626D01*
X279062185Y-87671061D01*
X279142213Y-87615900D01*
X279185066Y-87585672D01*
X279238116Y-87544663D01*
X279262367Y-87520650D01*
X279268840Y-87512979D01*
X279306817Y-87501600D01*
X279322285Y-87499742D01*
X279342974Y-87482550D01*
X279346684Y-87474779D01*
X279379916Y-87442347D01*
X279436392Y-87400000D01*
X279459730Y-87383866D01*
X279519828Y-87340110D01*
X279556868Y-87309892D01*
X279575472Y-87294117D01*
X279629165Y-87253528D01*
X279698400Y-87204343D01*
X279740935Y-87174229D01*
X279813086Y-87120074D01*
X279863500Y-87078348D01*
X279864671Y-87077272D01*
X279905559Y-87042222D01*
X279976198Y-86983973D01*
X280066982Y-86910378D01*
X280168300Y-86829288D01*
X280258371Y-86755211D01*
X280397520Y-86634290D01*
X280537070Y-86506890D01*
X280657250Y-86390744D01*
X280892200Y-86154208D01*
X280892200Y-86346639D01*
X280875616Y-86575773D01*
X280842665Y-86751733D01*
G37*
%TD*%
%LPC*%
D14*
%TO.C,*%
X175320000Y-122080000D03*
%TD*%
D15*
%TO.C,*%
X162100000Y-111545000D03*
%TD*%
D16*
%TO.C,TP2*%
X243736500Y-97408000D03*
%TD*%
D17*
%TO.C,U$9*%
X174800000Y-107100000D03*
%TD*%
D16*
%TO.C,TP3*%
X243736500Y-91058000D03*
%TD*%
D18*
%TO.C,TP4*%
X243800000Y-84200000D03*
%TD*%
D15*
%TO.C,*%
X162100000Y-106465000D03*
%TD*%
D14*
%TO.C,*%
X231320000Y-122080000D03*
%TD*%
%TO.C,*%
X175320000Y-66080000D03*
%TD*%
D16*
%TO.C,TP1*%
X243736500Y-103758000D03*
%TD*%
D14*
%TO.C,*%
X231320000Y-66080000D03*
%TD*%
D15*
%TO.C,*%
X162100000Y-114085000D03*
%TD*%
%TO.C,*%
X162100000Y-109005000D03*
%TD*%
D19*
%TO.C,IC1*%
X205820000Y-91580000D03*
X204820000Y-91580000D03*
X203820000Y-91580000D03*
X202820000Y-91580000D03*
X201820000Y-91580000D03*
X200820000Y-91580000D03*
X205820000Y-92580000D03*
X204820000Y-92580000D03*
X203820000Y-92580000D03*
X202820000Y-92580000D03*
X201820000Y-92580000D03*
X200820000Y-92580000D03*
X205820000Y-93580000D03*
X204820000Y-93580000D03*
X203820000Y-93580000D03*
X202820000Y-93580000D03*
X201820000Y-93580000D03*
X200820000Y-93580000D03*
X205820000Y-94580000D03*
X204820000Y-94580000D03*
X203820000Y-94580000D03*
X202820000Y-94580000D03*
X201820000Y-94580000D03*
X200820000Y-94580000D03*
X205820000Y-95580000D03*
X204820000Y-95580000D03*
X203820000Y-95580000D03*
X202820000Y-95580000D03*
X201820000Y-95580000D03*
X200820000Y-95580000D03*
X205820000Y-96580000D03*
X204820000Y-96580000D03*
X203820000Y-96580000D03*
X202820000Y-96580000D03*
X201820000Y-96580000D03*
X200820000Y-96580000D03*
%TD*%
G36*
X167757000Y-134596881D02*
G01*
X167803119Y-134643000D01*
X167820000Y-134706000D01*
X167820000Y-139454000D01*
X167803119Y-139517000D01*
X167757000Y-139563119D01*
X167694000Y-139580000D01*
X161372190Y-139580000D01*
X161323972Y-139570409D01*
X161283095Y-139543095D01*
X159856905Y-138116905D01*
X159829591Y-138076028D01*
X159820000Y-138027810D01*
X159820000Y-137206740D01*
X161108792Y-137206740D01*
X161144112Y-137453467D01*
X161217827Y-137691557D01*
X161328103Y-137915084D01*
X161472181Y-138118460D01*
X161646477Y-138296625D01*
X161846648Y-138445138D01*
X162067692Y-138560287D01*
X162304114Y-138639213D01*
X162549995Y-138680000D01*
X165300196Y-138705008D01*
X165550493Y-138685311D01*
X165794631Y-138626698D01*
X166026585Y-138530619D01*
X166240665Y-138399431D01*
X166431577Y-138236378D01*
X166594630Y-138045466D01*
X166725818Y-137831387D01*
X166821898Y-137599431D01*
X166880509Y-137355297D01*
X166900208Y-137105000D01*
X166880509Y-136854702D01*
X166821898Y-136610568D01*
X166725818Y-136378612D01*
X166594630Y-136164533D01*
X166431577Y-135973621D01*
X166240665Y-135810568D01*
X166026585Y-135679380D01*
X165794629Y-135583301D01*
X165550490Y-135524687D01*
X165300199Y-135505008D01*
X162599976Y-135530792D01*
X162352913Y-135563698D01*
X162114112Y-135635081D01*
X161889520Y-135743164D01*
X161684742Y-135885248D01*
X161504880Y-136057794D01*
X161354420Y-136256498D01*
X161237110Y-136476411D01*
X161155878Y-136712044D01*
X161112746Y-136957527D01*
X161108792Y-137206740D01*
X159820000Y-137206740D01*
X159820000Y-134706000D01*
X159836881Y-134643000D01*
X159883000Y-134596881D01*
X159946000Y-134580000D01*
X167694000Y-134580000D01*
X167757000Y-134596881D01*
G37*
G36*
X166816028Y-48589591D02*
G01*
X166856905Y-48616905D01*
X168283095Y-50043095D01*
X168310409Y-50083972D01*
X168320000Y-50132190D01*
X168320000Y-53027810D01*
X168310409Y-53076028D01*
X168283095Y-53116905D01*
X166856905Y-54543095D01*
X166816028Y-54570409D01*
X166767810Y-54580000D01*
X159946000Y-54580000D01*
X159883000Y-54563119D01*
X159836881Y-54517000D01*
X159820000Y-54454000D01*
X159820000Y-51546740D01*
X161138583Y-51546740D01*
X161173903Y-51793467D01*
X161247621Y-52031564D01*
X161357894Y-52255087D01*
X161501972Y-52458463D01*
X161676276Y-52636634D01*
X161876443Y-52785145D01*
X162097490Y-52900296D01*
X162333911Y-52979222D01*
X162579801Y-53019991D01*
X165329998Y-53044999D01*
X165580295Y-53025300D01*
X165824428Y-52966689D01*
X166056383Y-52870610D01*
X166270460Y-52739423D01*
X166461371Y-52576371D01*
X166624423Y-52385460D01*
X166755610Y-52171383D01*
X166851689Y-51939428D01*
X166910301Y-51695295D01*
X166929999Y-51445000D01*
X166910301Y-51194704D01*
X166851689Y-50950571D01*
X166755610Y-50718616D01*
X166624423Y-50504539D01*
X166461371Y-50313628D01*
X166270460Y-50150576D01*
X166056383Y-50019389D01*
X165824428Y-49923310D01*
X165580295Y-49864699D01*
X165329992Y-49845000D01*
X162629778Y-49870783D01*
X162382714Y-49903689D01*
X162143908Y-49975073D01*
X161919320Y-50083153D01*
X161714538Y-50225240D01*
X161534672Y-50397788D01*
X161384214Y-50596490D01*
X161266901Y-50816408D01*
X161185670Y-51052038D01*
X161142537Y-51297527D01*
X161138583Y-51546740D01*
X159820000Y-51546740D01*
X159820000Y-48706000D01*
X159836881Y-48643000D01*
X159883000Y-48596881D01*
X159946000Y-48580000D01*
X166767810Y-48580000D01*
X166816028Y-48589591D01*
G37*
G36*
X245757000Y-134596881D02*
G01*
X245803119Y-134643000D01*
X245820000Y-134706000D01*
X245820000Y-137823332D01*
X245803934Y-137884899D01*
X245636680Y-138183551D01*
X245631511Y-138191986D01*
X245484354Y-138412221D01*
X245468685Y-138431314D01*
X244356906Y-139543095D01*
X244316028Y-139570409D01*
X244267810Y-139580000D01*
X236446000Y-139580000D01*
X236383000Y-139563119D01*
X236336881Y-139517000D01*
X236320000Y-139454000D01*
X236320000Y-137089607D01*
X237325193Y-137089607D01*
X237341026Y-137338745D01*
X237396025Y-137582251D01*
X237488805Y-137814005D01*
X237617043Y-138028196D01*
X237777507Y-138219430D01*
X237966174Y-138382909D01*
X238178296Y-138514521D01*
X238408558Y-138610970D01*
X238651154Y-138669821D01*
X238900022Y-138689604D01*
X242750011Y-138739604D01*
X243000305Y-138719896D01*
X243244433Y-138661283D01*
X243476391Y-138565203D01*
X243690458Y-138434019D01*
X243881375Y-138270960D01*
X244044423Y-138080054D01*
X244175609Y-137865978D01*
X244271686Y-137634025D01*
X244330298Y-137389892D01*
X244349995Y-137139599D01*
X244330298Y-136889307D01*
X244271686Y-136645174D01*
X244175609Y-136413221D01*
X244044423Y-136199145D01*
X243881375Y-136008239D01*
X243690458Y-135845180D01*
X243476391Y-135713996D01*
X243244432Y-135617916D01*
X243000311Y-135559305D01*
X242750006Y-135539604D01*
X238949997Y-135540397D01*
X238700626Y-135552265D01*
X238456285Y-135603390D01*
X238223082Y-135692482D01*
X238006886Y-135817300D01*
X237813127Y-135974710D01*
X237646678Y-136160754D01*
X237511708Y-136370768D01*
X237411622Y-136599456D01*
X237348923Y-136841106D01*
X237325193Y-137089607D01*
X236320000Y-137089607D01*
X236320000Y-134706000D01*
X236336881Y-134643000D01*
X236383000Y-134596881D01*
X236446000Y-134580000D01*
X245694000Y-134580000D01*
X245757000Y-134596881D01*
G37*
G36*
X244316028Y-48589591D02*
G01*
X244356905Y-48616905D01*
X245783095Y-50043095D01*
X245810409Y-50083972D01*
X245820000Y-50132190D01*
X245820000Y-53027810D01*
X245810409Y-53076028D01*
X245783095Y-53116905D01*
X244356905Y-54543095D01*
X244316028Y-54570409D01*
X244267810Y-54580000D01*
X235946000Y-54580000D01*
X235883000Y-54563119D01*
X235836881Y-54517000D01*
X235820000Y-54454000D01*
X235820000Y-51345008D01*
X237355197Y-51345008D01*
X237371030Y-51594142D01*
X237426028Y-51837644D01*
X237518808Y-52069404D01*
X237647043Y-52283590D01*
X237807509Y-52474826D01*
X237996166Y-52638297D01*
X238208291Y-52769915D01*
X238438550Y-52866363D01*
X238681143Y-52925215D01*
X238930011Y-52945000D01*
X242779991Y-52994999D01*
X243030295Y-52975300D01*
X243274428Y-52916689D01*
X243506383Y-52820610D01*
X243720460Y-52689423D01*
X243911371Y-52526371D01*
X244074423Y-52335460D01*
X244205610Y-52121383D01*
X244301689Y-51889428D01*
X244360301Y-51645295D01*
X244379999Y-51394999D01*
X244360301Y-51144704D01*
X244301689Y-50900571D01*
X244205610Y-50668616D01*
X244074423Y-50454539D01*
X243911371Y-50263628D01*
X243720460Y-50100576D01*
X243506383Y-49969389D01*
X243274428Y-49873310D01*
X243030295Y-49814699D01*
X242779995Y-49795000D01*
X238979968Y-49795793D01*
X238730619Y-49807670D01*
X238486276Y-49858796D01*
X238253074Y-49947889D01*
X238036887Y-50072704D01*
X237843123Y-50230121D01*
X237676678Y-50416160D01*
X237541710Y-50626174D01*
X237441624Y-50854862D01*
X237378927Y-51096505D01*
X237355197Y-51345008D01*
X235820000Y-51345008D01*
X235820000Y-48706000D01*
X235836881Y-48643000D01*
X235883000Y-48596881D01*
X235946000Y-48580000D01*
X244267810Y-48580000D01*
X244316028Y-48589591D01*
G37*
M02*
