%TF.GenerationSoftware,KiCad,Pcbnew,7.0.1-0*%
%TF.CreationDate,2023-03-22T23:36:25-07:00*%
%TF.ProjectId,Cosmic_Watch_Rev7_Nano_Revised,436f736d-6963-45f5-9761-7463685f5265,6.1*%
%TF.SameCoordinates,Original*%
%TF.FileFunction,Legend,Top*%
%TF.FilePolarity,Positive*%
%FSLAX46Y46*%
G04 Gerber Fmt 4.6, Leading zero omitted, Abs format (unit mm)*
G04 Created by KiCad (PCBNEW 7.0.1-0) date 2023-03-22 23:36:25*
%MOMM*%
%LPD*%
G01*
G04 APERTURE LIST*
G04 Aperture macros list*
%AMRoundRect*
0 Rectangle with rounded corners*
0 $1 Rounding radius*
0 $2 $3 $4 $5 $6 $7 $8 $9 X,Y pos of 4 corners*
0 Add a 4 corners polygon primitive as box body*
4,1,4,$2,$3,$4,$5,$6,$7,$8,$9,$2,$3,0*
0 Add four circle primitives for the rounded corners*
1,1,$1+$1,$2,$3*
1,1,$1+$1,$4,$5*
1,1,$1+$1,$6,$7*
1,1,$1+$1,$8,$9*
0 Add four rect primitives between the rounded corners*
20,1,$1+$1,$2,$3,$4,$5,0*
20,1,$1+$1,$4,$5,$6,$7,0*
20,1,$1+$1,$6,$7,$8,$9,0*
20,1,$1+$1,$8,$9,$2,$3,0*%
G04 Aperture macros list end*
%ADD10C,0.500000*%
%ADD11C,0.200000*%
%ADD12C,0.150000*%
%ADD13C,0.190500*%
%ADD14C,0.152400*%
%ADD15C,0.119969*%
%ADD16C,0.133350*%
%ADD17C,0.254000*%
%ADD18C,0.120000*%
%ADD19C,0.203200*%
%ADD20RoundRect,0.250000X0.337500X0.475000X-0.337500X0.475000X-0.337500X-0.475000X0.337500X-0.475000X0*%
%ADD21RoundRect,0.250000X-0.475000X0.337500X-0.475000X-0.337500X0.475000X-0.337500X0.475000X0.337500X0*%
%ADD22RoundRect,0.249999X-0.450001X0.350001X-0.450001X-0.350001X0.450001X-0.350001X0.450001X0.350001X0*%
%ADD23RoundRect,0.250000X0.475000X-0.337500X0.475000X0.337500X-0.475000X0.337500X-0.475000X-0.337500X0*%
%ADD24C,5.000000*%
%ADD25RoundRect,0.200000X0.200000X0.275000X-0.200000X0.275000X-0.200000X-0.275000X0.200000X-0.275000X0*%
%ADD26R,1.220000X0.650000*%
%ADD27C,1.879600*%
%ADD28RoundRect,0.150000X-0.350000X0.150000X-0.350000X-0.150000X0.350000X-0.150000X0.350000X0.150000X0*%
%ADD29RoundRect,0.250000X-0.650000X0.375000X-0.650000X-0.375000X0.650000X-0.375000X0.650000X0.375000X0*%
%ADD30C,3.000000*%
%ADD31RoundRect,0.250000X-0.462500X-1.075000X0.462500X-1.075000X0.462500X1.075000X-0.462500X1.075000X0*%
%ADD32RoundRect,0.249999X0.450001X-0.350001X0.450001X0.350001X-0.450001X0.350001X-0.450001X-0.350001X0*%
%ADD33C,3.301600*%
%ADD34R,4.000000X4.000000*%
%ADD35RoundRect,0.200000X-0.275000X0.200000X-0.275000X-0.200000X0.275000X-0.200000X0.275000X0.200000X0*%
%ADD36RoundRect,0.225000X-0.225000X-0.250000X0.225000X-0.250000X0.225000X0.250000X-0.225000X0.250000X0*%
%ADD37RoundRect,0.249999X0.450001X-0.325001X0.450001X0.325001X-0.450001X0.325001X-0.450001X-0.325001X0*%
%ADD38RoundRect,0.249999X0.350001X0.450001X-0.350001X0.450001X-0.350001X-0.450001X0.350001X-0.450001X0*%
%ADD39RoundRect,0.200000X-0.200000X-0.275000X0.200000X-0.275000X0.200000X0.275000X-0.200000X0.275000X0*%
%ADD40RoundRect,0.150000X0.825000X0.150000X-0.825000X0.150000X-0.825000X-0.150000X0.825000X-0.150000X0*%
%ADD41R,0.900000X1.200000*%
%ADD42R,0.250000X1.100000*%
G04 APERTURE END LIST*
D10*
X217155605Y-75877300D02*
G75*
G03*
X217155605Y-75877300I-179605J0D01*
G01*
X221691105Y-98229300D02*
G75*
G03*
X221691105Y-98229300I-179605J0D01*
G01*
D11*
X229168000Y-55557300D02*
X217738000Y-55557300D01*
D12*
X208340000Y-75636000D02*
X194878000Y-75636000D01*
X223326000Y-100515300D02*
X223326000Y-84767300D01*
X194878000Y-75636000D02*
X194878000Y-56268500D01*
X194878000Y-56268500D02*
X208340000Y-56268500D01*
D10*
X226728105Y-72105400D02*
G75*
G03*
X226728105Y-72105400I-179605J0D01*
G01*
X226728105Y-68676400D02*
G75*
G03*
X226728105Y-68676400I-179605J0D01*
G01*
D11*
X208340000Y-75636000D02*
X208340000Y-56332000D01*
D12*
X199180125Y-84767300D02*
X223326000Y-84767300D01*
X223326000Y-100515300D02*
X199211875Y-100515300D01*
D11*
X217738000Y-55557300D02*
X217738000Y-76131300D01*
X229168000Y-76131300D02*
X229168000Y-55557300D01*
D12*
X199180125Y-84767300D02*
X199211875Y-100515300D01*
D11*
X217738000Y-76131300D02*
X229168000Y-76131300D01*
D13*
X176254497Y-109995298D02*
X176254497Y-110612155D01*
X175174997Y-110303727D02*
X176254497Y-110303727D01*
X175174997Y-110971988D02*
X176254497Y-110971988D01*
X176254497Y-110971988D02*
X176254497Y-111383226D01*
X176254497Y-111383226D02*
X176203092Y-111486036D01*
X176203092Y-111486036D02*
X176151687Y-111537441D01*
X176151687Y-111537441D02*
X176048878Y-111588845D01*
X176048878Y-111588845D02*
X175894663Y-111588845D01*
X175894663Y-111588845D02*
X175791854Y-111537441D01*
X175791854Y-111537441D02*
X175740449Y-111486036D01*
X175740449Y-111486036D02*
X175689044Y-111383226D01*
X175689044Y-111383226D02*
X175689044Y-110971988D01*
X175226402Y-112000084D02*
X175174997Y-112154298D01*
X175174997Y-112154298D02*
X175174997Y-112411322D01*
X175174997Y-112411322D02*
X175226402Y-112514131D01*
X175226402Y-112514131D02*
X175277806Y-112565536D01*
X175277806Y-112565536D02*
X175380616Y-112616941D01*
X175380616Y-112616941D02*
X175483425Y-112616941D01*
X175483425Y-112616941D02*
X175586235Y-112565536D01*
X175586235Y-112565536D02*
X175637640Y-112514131D01*
X175637640Y-112514131D02*
X175689044Y-112411322D01*
X175689044Y-112411322D02*
X175740449Y-112205703D01*
X175740449Y-112205703D02*
X175791854Y-112102893D01*
X175791854Y-112102893D02*
X175843259Y-112051488D01*
X175843259Y-112051488D02*
X175946068Y-112000084D01*
X175946068Y-112000084D02*
X176048878Y-112000084D01*
X176048878Y-112000084D02*
X176151687Y-112051488D01*
X176151687Y-112051488D02*
X176203092Y-112102893D01*
X176203092Y-112102893D02*
X176254497Y-112205703D01*
X176254497Y-112205703D02*
X176254497Y-112462726D01*
X176254497Y-112462726D02*
X176203092Y-112616941D01*
X174505707Y-110329429D02*
X174505707Y-110123810D01*
X174505707Y-110123810D02*
X174454302Y-110021001D01*
X174454302Y-110021001D02*
X174402897Y-109969596D01*
X174402897Y-109969596D02*
X174248683Y-109866786D01*
X174248683Y-109866786D02*
X174043064Y-109815382D01*
X174043064Y-109815382D02*
X173631826Y-109815382D01*
X173631826Y-109815382D02*
X173529016Y-109866786D01*
X173529016Y-109866786D02*
X173477612Y-109918191D01*
X173477612Y-109918191D02*
X173426207Y-110021001D01*
X173426207Y-110021001D02*
X173426207Y-110226620D01*
X173426207Y-110226620D02*
X173477612Y-110329429D01*
X173477612Y-110329429D02*
X173529016Y-110380834D01*
X173529016Y-110380834D02*
X173631826Y-110432239D01*
X173631826Y-110432239D02*
X173888850Y-110432239D01*
X173888850Y-110432239D02*
X173991659Y-110380834D01*
X173991659Y-110380834D02*
X174043064Y-110329429D01*
X174043064Y-110329429D02*
X174094469Y-110226620D01*
X174094469Y-110226620D02*
X174094469Y-110021001D01*
X174094469Y-110021001D02*
X174043064Y-109918191D01*
X174043064Y-109918191D02*
X173991659Y-109866786D01*
X173991659Y-109866786D02*
X173888850Y-109815382D01*
X173426207Y-111460334D02*
X173426207Y-110843477D01*
X173426207Y-111151905D02*
X174505707Y-111151905D01*
X174505707Y-111151905D02*
X174351492Y-111049096D01*
X174351492Y-111049096D02*
X174248683Y-110946286D01*
X174248683Y-110946286D02*
X174197278Y-110843477D01*
X174505707Y-112128595D02*
X174505707Y-112231405D01*
X174505707Y-112231405D02*
X174454302Y-112334214D01*
X174454302Y-112334214D02*
X174402897Y-112385619D01*
X174402897Y-112385619D02*
X174300088Y-112437024D01*
X174300088Y-112437024D02*
X174094469Y-112488429D01*
X174094469Y-112488429D02*
X173837445Y-112488429D01*
X173837445Y-112488429D02*
X173631826Y-112437024D01*
X173631826Y-112437024D02*
X173529016Y-112385619D01*
X173529016Y-112385619D02*
X173477612Y-112334214D01*
X173477612Y-112334214D02*
X173426207Y-112231405D01*
X173426207Y-112231405D02*
X173426207Y-112128595D01*
X173426207Y-112128595D02*
X173477612Y-112025786D01*
X173477612Y-112025786D02*
X173529016Y-111974381D01*
X173529016Y-111974381D02*
X173631826Y-111922976D01*
X173631826Y-111922976D02*
X173837445Y-111871572D01*
X173837445Y-111871572D02*
X174094469Y-111871572D01*
X174094469Y-111871572D02*
X174300088Y-111922976D01*
X174300088Y-111922976D02*
X174402897Y-111974381D01*
X174402897Y-111974381D02*
X174454302Y-112025786D01*
X174454302Y-112025786D02*
X174505707Y-112128595D01*
X174402897Y-112899667D02*
X174454302Y-112951071D01*
X174454302Y-112951071D02*
X174505707Y-113053881D01*
X174505707Y-113053881D02*
X174505707Y-113310905D01*
X174505707Y-113310905D02*
X174454302Y-113413714D01*
X174454302Y-113413714D02*
X174402897Y-113465119D01*
X174402897Y-113465119D02*
X174300088Y-113516524D01*
X174300088Y-113516524D02*
X174197278Y-113516524D01*
X174197278Y-113516524D02*
X174043064Y-113465119D01*
X174043064Y-113465119D02*
X173426207Y-112848262D01*
X173426207Y-112848262D02*
X173426207Y-113516524D01*
X174505707Y-113876357D02*
X174505707Y-114544619D01*
X174505707Y-114544619D02*
X174094469Y-114184785D01*
X174094469Y-114184785D02*
X174094469Y-114339000D01*
X174094469Y-114339000D02*
X174043064Y-114441809D01*
X174043064Y-114441809D02*
X173991659Y-114493214D01*
X173991659Y-114493214D02*
X173888850Y-114544619D01*
X173888850Y-114544619D02*
X173631826Y-114544619D01*
X173631826Y-114544619D02*
X173529016Y-114493214D01*
X173529016Y-114493214D02*
X173477612Y-114441809D01*
X173477612Y-114441809D02*
X173426207Y-114339000D01*
X173426207Y-114339000D02*
X173426207Y-114030571D01*
X173426207Y-114030571D02*
X173477612Y-113927762D01*
X173477612Y-113927762D02*
X173529016Y-113876357D01*
D14*
X175653838Y-99193918D02*
X175941705Y-100057518D01*
X175941705Y-100057518D02*
X176229571Y-99193918D01*
X176517439Y-100057518D02*
X176517439Y-99481785D01*
X176517439Y-99193918D02*
X176476315Y-99235042D01*
X176476315Y-99235042D02*
X176517439Y-99276166D01*
X176517439Y-99276166D02*
X176558562Y-99235042D01*
X176558562Y-99235042D02*
X176517439Y-99193918D01*
X176517439Y-99193918D02*
X176517439Y-99276166D01*
X176928677Y-99481785D02*
X176928677Y-100057518D01*
X176928677Y-99564033D02*
X176969800Y-99522909D01*
X176969800Y-99522909D02*
X177052048Y-99481785D01*
X177052048Y-99481785D02*
X177175419Y-99481785D01*
X177175419Y-99481785D02*
X177257667Y-99522909D01*
X177257667Y-99522909D02*
X177298791Y-99605156D01*
X177298791Y-99605156D02*
X177298791Y-100057518D01*
D12*
X182762857Y-49942619D02*
X182762857Y-48942619D01*
X182762857Y-48942619D02*
X183000952Y-48942619D01*
X183000952Y-48942619D02*
X183143809Y-48990238D01*
X183143809Y-48990238D02*
X183239047Y-49085476D01*
X183239047Y-49085476D02*
X183286666Y-49180714D01*
X183286666Y-49180714D02*
X183334285Y-49371190D01*
X183334285Y-49371190D02*
X183334285Y-49514047D01*
X183334285Y-49514047D02*
X183286666Y-49704523D01*
X183286666Y-49704523D02*
X183239047Y-49799761D01*
X183239047Y-49799761D02*
X183143809Y-49895000D01*
X183143809Y-49895000D02*
X183000952Y-49942619D01*
X183000952Y-49942619D02*
X182762857Y-49942619D01*
X184334285Y-49847380D02*
X184286666Y-49895000D01*
X184286666Y-49895000D02*
X184143809Y-49942619D01*
X184143809Y-49942619D02*
X184048571Y-49942619D01*
X184048571Y-49942619D02*
X183905714Y-49895000D01*
X183905714Y-49895000D02*
X183810476Y-49799761D01*
X183810476Y-49799761D02*
X183762857Y-49704523D01*
X183762857Y-49704523D02*
X183715238Y-49514047D01*
X183715238Y-49514047D02*
X183715238Y-49371190D01*
X183715238Y-49371190D02*
X183762857Y-49180714D01*
X183762857Y-49180714D02*
X183810476Y-49085476D01*
X183810476Y-49085476D02*
X183905714Y-48990238D01*
X183905714Y-48990238D02*
X184048571Y-48942619D01*
X184048571Y-48942619D02*
X184143809Y-48942619D01*
X184143809Y-48942619D02*
X184286666Y-48990238D01*
X184286666Y-48990238D02*
X184334285Y-49037857D01*
X184762857Y-49561666D02*
X185524762Y-49561666D01*
X186000952Y-49942619D02*
X186000952Y-48942619D01*
X186000952Y-48942619D02*
X186239047Y-48942619D01*
X186239047Y-48942619D02*
X186381904Y-48990238D01*
X186381904Y-48990238D02*
X186477142Y-49085476D01*
X186477142Y-49085476D02*
X186524761Y-49180714D01*
X186524761Y-49180714D02*
X186572380Y-49371190D01*
X186572380Y-49371190D02*
X186572380Y-49514047D01*
X186572380Y-49514047D02*
X186524761Y-49704523D01*
X186524761Y-49704523D02*
X186477142Y-49799761D01*
X186477142Y-49799761D02*
X186381904Y-49895000D01*
X186381904Y-49895000D02*
X186239047Y-49942619D01*
X186239047Y-49942619D02*
X186000952Y-49942619D01*
X187572380Y-49847380D02*
X187524761Y-49895000D01*
X187524761Y-49895000D02*
X187381904Y-49942619D01*
X187381904Y-49942619D02*
X187286666Y-49942619D01*
X187286666Y-49942619D02*
X187143809Y-49895000D01*
X187143809Y-49895000D02*
X187048571Y-49799761D01*
X187048571Y-49799761D02*
X187000952Y-49704523D01*
X187000952Y-49704523D02*
X186953333Y-49514047D01*
X186953333Y-49514047D02*
X186953333Y-49371190D01*
X186953333Y-49371190D02*
X187000952Y-49180714D01*
X187000952Y-49180714D02*
X187048571Y-49085476D01*
X187048571Y-49085476D02*
X187143809Y-48990238D01*
X187143809Y-48990238D02*
X187286666Y-48942619D01*
X187286666Y-48942619D02*
X187381904Y-48942619D01*
X187381904Y-48942619D02*
X187524761Y-48990238D01*
X187524761Y-48990238D02*
X187572380Y-49037857D01*
X189096190Y-49418809D02*
X189239047Y-49466428D01*
X189239047Y-49466428D02*
X189286666Y-49514047D01*
X189286666Y-49514047D02*
X189334285Y-49609285D01*
X189334285Y-49609285D02*
X189334285Y-49752142D01*
X189334285Y-49752142D02*
X189286666Y-49847380D01*
X189286666Y-49847380D02*
X189239047Y-49895000D01*
X189239047Y-49895000D02*
X189143809Y-49942619D01*
X189143809Y-49942619D02*
X188762857Y-49942619D01*
X188762857Y-49942619D02*
X188762857Y-48942619D01*
X188762857Y-48942619D02*
X189096190Y-48942619D01*
X189096190Y-48942619D02*
X189191428Y-48990238D01*
X189191428Y-48990238D02*
X189239047Y-49037857D01*
X189239047Y-49037857D02*
X189286666Y-49133095D01*
X189286666Y-49133095D02*
X189286666Y-49228333D01*
X189286666Y-49228333D02*
X189239047Y-49323571D01*
X189239047Y-49323571D02*
X189191428Y-49371190D01*
X189191428Y-49371190D02*
X189096190Y-49418809D01*
X189096190Y-49418809D02*
X188762857Y-49418809D01*
X189905714Y-49942619D02*
X189810476Y-49895000D01*
X189810476Y-49895000D02*
X189762857Y-49847380D01*
X189762857Y-49847380D02*
X189715238Y-49752142D01*
X189715238Y-49752142D02*
X189715238Y-49466428D01*
X189715238Y-49466428D02*
X189762857Y-49371190D01*
X189762857Y-49371190D02*
X189810476Y-49323571D01*
X189810476Y-49323571D02*
X189905714Y-49275952D01*
X189905714Y-49275952D02*
X190048571Y-49275952D01*
X190048571Y-49275952D02*
X190143809Y-49323571D01*
X190143809Y-49323571D02*
X190191428Y-49371190D01*
X190191428Y-49371190D02*
X190239047Y-49466428D01*
X190239047Y-49466428D02*
X190239047Y-49752142D01*
X190239047Y-49752142D02*
X190191428Y-49847380D01*
X190191428Y-49847380D02*
X190143809Y-49895000D01*
X190143809Y-49895000D02*
X190048571Y-49942619D01*
X190048571Y-49942619D02*
X189905714Y-49942619D01*
X190810476Y-49942619D02*
X190715238Y-49895000D01*
X190715238Y-49895000D02*
X190667619Y-49847380D01*
X190667619Y-49847380D02*
X190620000Y-49752142D01*
X190620000Y-49752142D02*
X190620000Y-49466428D01*
X190620000Y-49466428D02*
X190667619Y-49371190D01*
X190667619Y-49371190D02*
X190715238Y-49323571D01*
X190715238Y-49323571D02*
X190810476Y-49275952D01*
X190810476Y-49275952D02*
X190953333Y-49275952D01*
X190953333Y-49275952D02*
X191048571Y-49323571D01*
X191048571Y-49323571D02*
X191096190Y-49371190D01*
X191096190Y-49371190D02*
X191143809Y-49466428D01*
X191143809Y-49466428D02*
X191143809Y-49752142D01*
X191143809Y-49752142D02*
X191096190Y-49847380D01*
X191096190Y-49847380D02*
X191048571Y-49895000D01*
X191048571Y-49895000D02*
X190953333Y-49942619D01*
X190953333Y-49942619D02*
X190810476Y-49942619D01*
X191524762Y-49895000D02*
X191620000Y-49942619D01*
X191620000Y-49942619D02*
X191810476Y-49942619D01*
X191810476Y-49942619D02*
X191905714Y-49895000D01*
X191905714Y-49895000D02*
X191953333Y-49799761D01*
X191953333Y-49799761D02*
X191953333Y-49752142D01*
X191953333Y-49752142D02*
X191905714Y-49656904D01*
X191905714Y-49656904D02*
X191810476Y-49609285D01*
X191810476Y-49609285D02*
X191667619Y-49609285D01*
X191667619Y-49609285D02*
X191572381Y-49561666D01*
X191572381Y-49561666D02*
X191524762Y-49466428D01*
X191524762Y-49466428D02*
X191524762Y-49418809D01*
X191524762Y-49418809D02*
X191572381Y-49323571D01*
X191572381Y-49323571D02*
X191667619Y-49275952D01*
X191667619Y-49275952D02*
X191810476Y-49275952D01*
X191810476Y-49275952D02*
X191905714Y-49323571D01*
X192239048Y-49275952D02*
X192620000Y-49275952D01*
X192381905Y-48942619D02*
X192381905Y-49799761D01*
X192381905Y-49799761D02*
X192429524Y-49895000D01*
X192429524Y-49895000D02*
X192524762Y-49942619D01*
X192524762Y-49942619D02*
X192620000Y-49942619D01*
X222825238Y-99036680D02*
X222825238Y-100036680D01*
X222825238Y-100036680D02*
X222587143Y-100036680D01*
X222587143Y-100036680D02*
X222444286Y-99989061D01*
X222444286Y-99989061D02*
X222349048Y-99893823D01*
X222349048Y-99893823D02*
X222301429Y-99798585D01*
X222301429Y-99798585D02*
X222253810Y-99608109D01*
X222253810Y-99608109D02*
X222253810Y-99465252D01*
X222253810Y-99465252D02*
X222301429Y-99274776D01*
X222301429Y-99274776D02*
X222349048Y-99179538D01*
X222349048Y-99179538D02*
X222444286Y-99084300D01*
X222444286Y-99084300D02*
X222587143Y-99036680D01*
X222587143Y-99036680D02*
X222825238Y-99036680D01*
X221253810Y-99131919D02*
X221301429Y-99084300D01*
X221301429Y-99084300D02*
X221444286Y-99036680D01*
X221444286Y-99036680D02*
X221539524Y-99036680D01*
X221539524Y-99036680D02*
X221682381Y-99084300D01*
X221682381Y-99084300D02*
X221777619Y-99179538D01*
X221777619Y-99179538D02*
X221825238Y-99274776D01*
X221825238Y-99274776D02*
X221872857Y-99465252D01*
X221872857Y-99465252D02*
X221872857Y-99608109D01*
X221872857Y-99608109D02*
X221825238Y-99798585D01*
X221825238Y-99798585D02*
X221777619Y-99893823D01*
X221777619Y-99893823D02*
X221682381Y-99989061D01*
X221682381Y-99989061D02*
X221539524Y-100036680D01*
X221539524Y-100036680D02*
X221444286Y-100036680D01*
X221444286Y-100036680D02*
X221301429Y-99989061D01*
X221301429Y-99989061D02*
X221253810Y-99941442D01*
X220825238Y-99417633D02*
X220063334Y-99417633D01*
X219587143Y-99036680D02*
X219587143Y-100036680D01*
X219587143Y-100036680D02*
X219349048Y-100036680D01*
X219349048Y-100036680D02*
X219206191Y-99989061D01*
X219206191Y-99989061D02*
X219110953Y-99893823D01*
X219110953Y-99893823D02*
X219063334Y-99798585D01*
X219063334Y-99798585D02*
X219015715Y-99608109D01*
X219015715Y-99608109D02*
X219015715Y-99465252D01*
X219015715Y-99465252D02*
X219063334Y-99274776D01*
X219063334Y-99274776D02*
X219110953Y-99179538D01*
X219110953Y-99179538D02*
X219206191Y-99084300D01*
X219206191Y-99084300D02*
X219349048Y-99036680D01*
X219349048Y-99036680D02*
X219587143Y-99036680D01*
X218015715Y-99131919D02*
X218063334Y-99084300D01*
X218063334Y-99084300D02*
X218206191Y-99036680D01*
X218206191Y-99036680D02*
X218301429Y-99036680D01*
X218301429Y-99036680D02*
X218444286Y-99084300D01*
X218444286Y-99084300D02*
X218539524Y-99179538D01*
X218539524Y-99179538D02*
X218587143Y-99274776D01*
X218587143Y-99274776D02*
X218634762Y-99465252D01*
X218634762Y-99465252D02*
X218634762Y-99608109D01*
X218634762Y-99608109D02*
X218587143Y-99798585D01*
X218587143Y-99798585D02*
X218539524Y-99893823D01*
X218539524Y-99893823D02*
X218444286Y-99989061D01*
X218444286Y-99989061D02*
X218301429Y-100036680D01*
X218301429Y-100036680D02*
X218206191Y-100036680D01*
X218206191Y-100036680D02*
X218063334Y-99989061D01*
X218063334Y-99989061D02*
X218015715Y-99941442D01*
X216491905Y-99560490D02*
X216349048Y-99512871D01*
X216349048Y-99512871D02*
X216301429Y-99465252D01*
X216301429Y-99465252D02*
X216253810Y-99370014D01*
X216253810Y-99370014D02*
X216253810Y-99227157D01*
X216253810Y-99227157D02*
X216301429Y-99131919D01*
X216301429Y-99131919D02*
X216349048Y-99084300D01*
X216349048Y-99084300D02*
X216444286Y-99036680D01*
X216444286Y-99036680D02*
X216825238Y-99036680D01*
X216825238Y-99036680D02*
X216825238Y-100036680D01*
X216825238Y-100036680D02*
X216491905Y-100036680D01*
X216491905Y-100036680D02*
X216396667Y-99989061D01*
X216396667Y-99989061D02*
X216349048Y-99941442D01*
X216349048Y-99941442D02*
X216301429Y-99846204D01*
X216301429Y-99846204D02*
X216301429Y-99750966D01*
X216301429Y-99750966D02*
X216349048Y-99655728D01*
X216349048Y-99655728D02*
X216396667Y-99608109D01*
X216396667Y-99608109D02*
X216491905Y-99560490D01*
X216491905Y-99560490D02*
X216825238Y-99560490D01*
X215682381Y-99036680D02*
X215777619Y-99084300D01*
X215777619Y-99084300D02*
X215825238Y-99131919D01*
X215825238Y-99131919D02*
X215872857Y-99227157D01*
X215872857Y-99227157D02*
X215872857Y-99512871D01*
X215872857Y-99512871D02*
X215825238Y-99608109D01*
X215825238Y-99608109D02*
X215777619Y-99655728D01*
X215777619Y-99655728D02*
X215682381Y-99703347D01*
X215682381Y-99703347D02*
X215539524Y-99703347D01*
X215539524Y-99703347D02*
X215444286Y-99655728D01*
X215444286Y-99655728D02*
X215396667Y-99608109D01*
X215396667Y-99608109D02*
X215349048Y-99512871D01*
X215349048Y-99512871D02*
X215349048Y-99227157D01*
X215349048Y-99227157D02*
X215396667Y-99131919D01*
X215396667Y-99131919D02*
X215444286Y-99084300D01*
X215444286Y-99084300D02*
X215539524Y-99036680D01*
X215539524Y-99036680D02*
X215682381Y-99036680D01*
X214777619Y-99036680D02*
X214872857Y-99084300D01*
X214872857Y-99084300D02*
X214920476Y-99131919D01*
X214920476Y-99131919D02*
X214968095Y-99227157D01*
X214968095Y-99227157D02*
X214968095Y-99512871D01*
X214968095Y-99512871D02*
X214920476Y-99608109D01*
X214920476Y-99608109D02*
X214872857Y-99655728D01*
X214872857Y-99655728D02*
X214777619Y-99703347D01*
X214777619Y-99703347D02*
X214634762Y-99703347D01*
X214634762Y-99703347D02*
X214539524Y-99655728D01*
X214539524Y-99655728D02*
X214491905Y-99608109D01*
X214491905Y-99608109D02*
X214444286Y-99512871D01*
X214444286Y-99512871D02*
X214444286Y-99227157D01*
X214444286Y-99227157D02*
X214491905Y-99131919D01*
X214491905Y-99131919D02*
X214539524Y-99084300D01*
X214539524Y-99084300D02*
X214634762Y-99036680D01*
X214634762Y-99036680D02*
X214777619Y-99036680D01*
X214063333Y-99084300D02*
X213968095Y-99036680D01*
X213968095Y-99036680D02*
X213777619Y-99036680D01*
X213777619Y-99036680D02*
X213682381Y-99084300D01*
X213682381Y-99084300D02*
X213634762Y-99179538D01*
X213634762Y-99179538D02*
X213634762Y-99227157D01*
X213634762Y-99227157D02*
X213682381Y-99322395D01*
X213682381Y-99322395D02*
X213777619Y-99370014D01*
X213777619Y-99370014D02*
X213920476Y-99370014D01*
X213920476Y-99370014D02*
X214015714Y-99417633D01*
X214015714Y-99417633D02*
X214063333Y-99512871D01*
X214063333Y-99512871D02*
X214063333Y-99560490D01*
X214063333Y-99560490D02*
X214015714Y-99655728D01*
X214015714Y-99655728D02*
X213920476Y-99703347D01*
X213920476Y-99703347D02*
X213777619Y-99703347D01*
X213777619Y-99703347D02*
X213682381Y-99655728D01*
X213349047Y-99703347D02*
X212968095Y-99703347D01*
X213206190Y-100036680D02*
X213206190Y-99179538D01*
X213206190Y-99179538D02*
X213158571Y-99084300D01*
X213158571Y-99084300D02*
X213063333Y-99036680D01*
X213063333Y-99036680D02*
X212968095Y-99036680D01*
X212253809Y-99084300D02*
X212349047Y-99036680D01*
X212349047Y-99036680D02*
X212539523Y-99036680D01*
X212539523Y-99036680D02*
X212634761Y-99084300D01*
X212634761Y-99084300D02*
X212682380Y-99179538D01*
X212682380Y-99179538D02*
X212682380Y-99560490D01*
X212682380Y-99560490D02*
X212634761Y-99655728D01*
X212634761Y-99655728D02*
X212539523Y-99703347D01*
X212539523Y-99703347D02*
X212349047Y-99703347D01*
X212349047Y-99703347D02*
X212253809Y-99655728D01*
X212253809Y-99655728D02*
X212206190Y-99560490D01*
X212206190Y-99560490D02*
X212206190Y-99465252D01*
X212206190Y-99465252D02*
X212682380Y-99370014D01*
X211777618Y-99036680D02*
X211777618Y-99703347D01*
X211777618Y-99512871D02*
X211729999Y-99608109D01*
X211729999Y-99608109D02*
X211682380Y-99655728D01*
X211682380Y-99655728D02*
X211587142Y-99703347D01*
X211587142Y-99703347D02*
X211491904Y-99703347D01*
X161096904Y-81608571D02*
X161096904Y-81132381D01*
X161382619Y-81703809D02*
X160382619Y-81370476D01*
X160382619Y-81370476D02*
X161382619Y-81037143D01*
X161382619Y-80703809D02*
X160382619Y-80703809D01*
X160382619Y-80703809D02*
X160382619Y-80465714D01*
X160382619Y-80465714D02*
X160430238Y-80322857D01*
X160430238Y-80322857D02*
X160525476Y-80227619D01*
X160525476Y-80227619D02*
X160620714Y-80180000D01*
X160620714Y-80180000D02*
X160811190Y-80132381D01*
X160811190Y-80132381D02*
X160954047Y-80132381D01*
X160954047Y-80132381D02*
X161144523Y-80180000D01*
X161144523Y-80180000D02*
X161239761Y-80227619D01*
X161239761Y-80227619D02*
X161335000Y-80322857D01*
X161335000Y-80322857D02*
X161382619Y-80465714D01*
X161382619Y-80465714D02*
X161382619Y-80703809D01*
X161335000Y-79751428D02*
X161382619Y-79608571D01*
X161382619Y-79608571D02*
X161382619Y-79370476D01*
X161382619Y-79370476D02*
X161335000Y-79275238D01*
X161335000Y-79275238D02*
X161287380Y-79227619D01*
X161287380Y-79227619D02*
X161192142Y-79180000D01*
X161192142Y-79180000D02*
X161096904Y-79180000D01*
X161096904Y-79180000D02*
X161001666Y-79227619D01*
X161001666Y-79227619D02*
X160954047Y-79275238D01*
X160954047Y-79275238D02*
X160906428Y-79370476D01*
X160906428Y-79370476D02*
X160858809Y-79560952D01*
X160858809Y-79560952D02*
X160811190Y-79656190D01*
X160811190Y-79656190D02*
X160763571Y-79703809D01*
X160763571Y-79703809D02*
X160668333Y-79751428D01*
X160668333Y-79751428D02*
X160573095Y-79751428D01*
X160573095Y-79751428D02*
X160477857Y-79703809D01*
X160477857Y-79703809D02*
X160430238Y-79656190D01*
X160430238Y-79656190D02*
X160382619Y-79560952D01*
X160382619Y-79560952D02*
X160382619Y-79322857D01*
X160382619Y-79322857D02*
X160430238Y-79180000D01*
X161382619Y-78227619D02*
X161382619Y-78799047D01*
X161382619Y-78513333D02*
X160382619Y-78513333D01*
X160382619Y-78513333D02*
X160525476Y-78608571D01*
X160525476Y-78608571D02*
X160620714Y-78703809D01*
X160620714Y-78703809D02*
X160668333Y-78799047D01*
X161382619Y-77275238D02*
X161382619Y-77846666D01*
X161382619Y-77560952D02*
X160382619Y-77560952D01*
X160382619Y-77560952D02*
X160525476Y-77656190D01*
X160525476Y-77656190D02*
X160620714Y-77751428D01*
X160620714Y-77751428D02*
X160668333Y-77846666D01*
X161382619Y-76322857D02*
X161382619Y-76894285D01*
X161382619Y-76608571D02*
X160382619Y-76608571D01*
X160382619Y-76608571D02*
X160525476Y-76703809D01*
X160525476Y-76703809D02*
X160620714Y-76799047D01*
X160620714Y-76799047D02*
X160668333Y-76894285D01*
X160382619Y-75418095D02*
X160382619Y-75894285D01*
X160382619Y-75894285D02*
X160858809Y-75941904D01*
X160858809Y-75941904D02*
X160811190Y-75894285D01*
X160811190Y-75894285D02*
X160763571Y-75799047D01*
X160763571Y-75799047D02*
X160763571Y-75560952D01*
X160763571Y-75560952D02*
X160811190Y-75465714D01*
X160811190Y-75465714D02*
X160858809Y-75418095D01*
X160858809Y-75418095D02*
X160954047Y-75370476D01*
X160954047Y-75370476D02*
X161192142Y-75370476D01*
X161192142Y-75370476D02*
X161287380Y-75418095D01*
X161287380Y-75418095D02*
X161335000Y-75465714D01*
X161335000Y-75465714D02*
X161382619Y-75560952D01*
X161382619Y-75560952D02*
X161382619Y-75799047D01*
X161382619Y-75799047D02*
X161335000Y-75894285D01*
X161335000Y-75894285D02*
X161287380Y-75941904D01*
X161096904Y-74227618D02*
X161096904Y-73751428D01*
X161382619Y-74322856D02*
X160382619Y-73989523D01*
X160382619Y-73989523D02*
X161382619Y-73656190D01*
X161382619Y-73322856D02*
X160382619Y-73322856D01*
X160382619Y-73322856D02*
X160382619Y-73084761D01*
X160382619Y-73084761D02*
X160430238Y-72941904D01*
X160430238Y-72941904D02*
X160525476Y-72846666D01*
X160525476Y-72846666D02*
X160620714Y-72799047D01*
X160620714Y-72799047D02*
X160811190Y-72751428D01*
X160811190Y-72751428D02*
X160954047Y-72751428D01*
X160954047Y-72751428D02*
X161144523Y-72799047D01*
X161144523Y-72799047D02*
X161239761Y-72846666D01*
X161239761Y-72846666D02*
X161335000Y-72941904D01*
X161335000Y-72941904D02*
X161382619Y-73084761D01*
X161382619Y-73084761D02*
X161382619Y-73322856D01*
X161287380Y-71751428D02*
X161335000Y-71799047D01*
X161335000Y-71799047D02*
X161382619Y-71941904D01*
X161382619Y-71941904D02*
X161382619Y-72037142D01*
X161382619Y-72037142D02*
X161335000Y-72179999D01*
X161335000Y-72179999D02*
X161239761Y-72275237D01*
X161239761Y-72275237D02*
X161144523Y-72322856D01*
X161144523Y-72322856D02*
X160954047Y-72370475D01*
X160954047Y-72370475D02*
X160811190Y-72370475D01*
X160811190Y-72370475D02*
X160620714Y-72322856D01*
X160620714Y-72322856D02*
X160525476Y-72275237D01*
X160525476Y-72275237D02*
X160430238Y-72179999D01*
X160430238Y-72179999D02*
X160382619Y-72037142D01*
X160382619Y-72037142D02*
X160382619Y-71941904D01*
X160382619Y-71941904D02*
X160430238Y-71799047D01*
X160430238Y-71799047D02*
X160477857Y-71751428D01*
D15*
X187148829Y-100081114D02*
X187148829Y-99586234D01*
X187148829Y-99586234D02*
X187181821Y-99487258D01*
X187181821Y-99487258D02*
X187247805Y-99421275D01*
X187247805Y-99421275D02*
X187346781Y-99388283D01*
X187346781Y-99388283D02*
X187412765Y-99388283D01*
X186818910Y-99388283D02*
X186818910Y-100081114D01*
X186818910Y-100081114D02*
X186554974Y-100081114D01*
X186554974Y-100081114D02*
X186488990Y-100048122D01*
X186488990Y-100048122D02*
X186455998Y-100015130D01*
X186455998Y-100015130D02*
X186423006Y-99949146D01*
X186423006Y-99949146D02*
X186423006Y-99850170D01*
X186423006Y-99850170D02*
X186455998Y-99784186D01*
X186455998Y-99784186D02*
X186488990Y-99751194D01*
X186488990Y-99751194D02*
X186554974Y-99718202D01*
X186554974Y-99718202D02*
X186818910Y-99718202D01*
X185763167Y-99388283D02*
X186159071Y-99388283D01*
X185961119Y-99388283D02*
X185961119Y-100081114D01*
X185961119Y-100081114D02*
X186027103Y-99982138D01*
X186027103Y-99982138D02*
X186093087Y-99916154D01*
X186093087Y-99916154D02*
X186159071Y-99883162D01*
D14*
X181707505Y-99193918D02*
X181296267Y-99193918D01*
X181296267Y-99193918D02*
X181255143Y-99605156D01*
X181255143Y-99605156D02*
X181296267Y-99564033D01*
X181296267Y-99564033D02*
X181378514Y-99522909D01*
X181378514Y-99522909D02*
X181584133Y-99522909D01*
X181584133Y-99522909D02*
X181666381Y-99564033D01*
X181666381Y-99564033D02*
X181707505Y-99605156D01*
X181707505Y-99605156D02*
X181748628Y-99687404D01*
X181748628Y-99687404D02*
X181748628Y-99893023D01*
X181748628Y-99893023D02*
X181707505Y-99975271D01*
X181707505Y-99975271D02*
X181666381Y-100016395D01*
X181666381Y-100016395D02*
X181584133Y-100057518D01*
X181584133Y-100057518D02*
X181378514Y-100057518D01*
X181378514Y-100057518D02*
X181296267Y-100016395D01*
X181296267Y-100016395D02*
X181255143Y-99975271D01*
X181995371Y-99193918D02*
X182283238Y-100057518D01*
X182283238Y-100057518D02*
X182571104Y-99193918D01*
D12*
X228373619Y-56377380D02*
X228373619Y-57377380D01*
X228373619Y-57377380D02*
X227992667Y-57377380D01*
X227992667Y-57377380D02*
X227897429Y-57329761D01*
X227897429Y-57329761D02*
X227849810Y-57282142D01*
X227849810Y-57282142D02*
X227802191Y-57186904D01*
X227802191Y-57186904D02*
X227802191Y-57044047D01*
X227802191Y-57044047D02*
X227849810Y-56948809D01*
X227849810Y-56948809D02*
X227897429Y-56901190D01*
X227897429Y-56901190D02*
X227992667Y-56853571D01*
X227992667Y-56853571D02*
X228373619Y-56853571D01*
X226992667Y-56425000D02*
X227087905Y-56377380D01*
X227087905Y-56377380D02*
X227278381Y-56377380D01*
X227278381Y-56377380D02*
X227373619Y-56425000D01*
X227373619Y-56425000D02*
X227421238Y-56520238D01*
X227421238Y-56520238D02*
X227421238Y-56901190D01*
X227421238Y-56901190D02*
X227373619Y-56996428D01*
X227373619Y-56996428D02*
X227278381Y-57044047D01*
X227278381Y-57044047D02*
X227087905Y-57044047D01*
X227087905Y-57044047D02*
X226992667Y-56996428D01*
X226992667Y-56996428D02*
X226945048Y-56901190D01*
X226945048Y-56901190D02*
X226945048Y-56805952D01*
X226945048Y-56805952D02*
X227421238Y-56710714D01*
X226087905Y-56377380D02*
X226087905Y-56901190D01*
X226087905Y-56901190D02*
X226135524Y-56996428D01*
X226135524Y-56996428D02*
X226230762Y-57044047D01*
X226230762Y-57044047D02*
X226421238Y-57044047D01*
X226421238Y-57044047D02*
X226516476Y-56996428D01*
X226087905Y-56425000D02*
X226183143Y-56377380D01*
X226183143Y-56377380D02*
X226421238Y-56377380D01*
X226421238Y-56377380D02*
X226516476Y-56425000D01*
X226516476Y-56425000D02*
X226564095Y-56520238D01*
X226564095Y-56520238D02*
X226564095Y-56615476D01*
X226564095Y-56615476D02*
X226516476Y-56710714D01*
X226516476Y-56710714D02*
X226421238Y-56758333D01*
X226421238Y-56758333D02*
X226183143Y-56758333D01*
X226183143Y-56758333D02*
X226087905Y-56805952D01*
X225611714Y-56377380D02*
X225611714Y-57377380D01*
X225516476Y-56758333D02*
X225230762Y-56377380D01*
X225230762Y-57044047D02*
X225611714Y-56663095D01*
X224040285Y-56377380D02*
X224040285Y-57377380D01*
X224040285Y-57377380D02*
X223802190Y-57377380D01*
X223802190Y-57377380D02*
X223659333Y-57329761D01*
X223659333Y-57329761D02*
X223564095Y-57234523D01*
X223564095Y-57234523D02*
X223516476Y-57139285D01*
X223516476Y-57139285D02*
X223468857Y-56948809D01*
X223468857Y-56948809D02*
X223468857Y-56805952D01*
X223468857Y-56805952D02*
X223516476Y-56615476D01*
X223516476Y-56615476D02*
X223564095Y-56520238D01*
X223564095Y-56520238D02*
X223659333Y-56425000D01*
X223659333Y-56425000D02*
X223802190Y-56377380D01*
X223802190Y-56377380D02*
X224040285Y-56377380D01*
X222659333Y-56425000D02*
X222754571Y-56377380D01*
X222754571Y-56377380D02*
X222945047Y-56377380D01*
X222945047Y-56377380D02*
X223040285Y-56425000D01*
X223040285Y-56425000D02*
X223087904Y-56520238D01*
X223087904Y-56520238D02*
X223087904Y-56901190D01*
X223087904Y-56901190D02*
X223040285Y-56996428D01*
X223040285Y-56996428D02*
X222945047Y-57044047D01*
X222945047Y-57044047D02*
X222754571Y-57044047D01*
X222754571Y-57044047D02*
X222659333Y-56996428D01*
X222659333Y-56996428D02*
X222611714Y-56901190D01*
X222611714Y-56901190D02*
X222611714Y-56805952D01*
X222611714Y-56805952D02*
X223087904Y-56710714D01*
X222325999Y-57044047D02*
X221945047Y-57044047D01*
X222183142Y-57377380D02*
X222183142Y-56520238D01*
X222183142Y-56520238D02*
X222135523Y-56425000D01*
X222135523Y-56425000D02*
X222040285Y-56377380D01*
X222040285Y-56377380D02*
X221945047Y-56377380D01*
X221230761Y-56425000D02*
X221325999Y-56377380D01*
X221325999Y-56377380D02*
X221516475Y-56377380D01*
X221516475Y-56377380D02*
X221611713Y-56425000D01*
X221611713Y-56425000D02*
X221659332Y-56520238D01*
X221659332Y-56520238D02*
X221659332Y-56901190D01*
X221659332Y-56901190D02*
X221611713Y-56996428D01*
X221611713Y-56996428D02*
X221516475Y-57044047D01*
X221516475Y-57044047D02*
X221325999Y-57044047D01*
X221325999Y-57044047D02*
X221230761Y-56996428D01*
X221230761Y-56996428D02*
X221183142Y-56901190D01*
X221183142Y-56901190D02*
X221183142Y-56805952D01*
X221183142Y-56805952D02*
X221659332Y-56710714D01*
X220325999Y-56425000D02*
X220421237Y-56377380D01*
X220421237Y-56377380D02*
X220611713Y-56377380D01*
X220611713Y-56377380D02*
X220706951Y-56425000D01*
X220706951Y-56425000D02*
X220754570Y-56472619D01*
X220754570Y-56472619D02*
X220802189Y-56567857D01*
X220802189Y-56567857D02*
X220802189Y-56853571D01*
X220802189Y-56853571D02*
X220754570Y-56948809D01*
X220754570Y-56948809D02*
X220706951Y-56996428D01*
X220706951Y-56996428D02*
X220611713Y-57044047D01*
X220611713Y-57044047D02*
X220421237Y-57044047D01*
X220421237Y-57044047D02*
X220325999Y-56996428D01*
X220040284Y-57044047D02*
X219659332Y-57044047D01*
X219897427Y-57377380D02*
X219897427Y-56520238D01*
X219897427Y-56520238D02*
X219849808Y-56425000D01*
X219849808Y-56425000D02*
X219754570Y-56377380D01*
X219754570Y-56377380D02*
X219659332Y-56377380D01*
X219183141Y-56377380D02*
X219278379Y-56425000D01*
X219278379Y-56425000D02*
X219325998Y-56472619D01*
X219325998Y-56472619D02*
X219373617Y-56567857D01*
X219373617Y-56567857D02*
X219373617Y-56853571D01*
X219373617Y-56853571D02*
X219325998Y-56948809D01*
X219325998Y-56948809D02*
X219278379Y-56996428D01*
X219278379Y-56996428D02*
X219183141Y-57044047D01*
X219183141Y-57044047D02*
X219040284Y-57044047D01*
X219040284Y-57044047D02*
X218945046Y-56996428D01*
X218945046Y-56996428D02*
X218897427Y-56948809D01*
X218897427Y-56948809D02*
X218849808Y-56853571D01*
X218849808Y-56853571D02*
X218849808Y-56567857D01*
X218849808Y-56567857D02*
X218897427Y-56472619D01*
X218897427Y-56472619D02*
X218945046Y-56425000D01*
X218945046Y-56425000D02*
X219040284Y-56377380D01*
X219040284Y-56377380D02*
X219183141Y-56377380D01*
X218421236Y-56377380D02*
X218421236Y-57044047D01*
X218421236Y-56853571D02*
X218373617Y-56948809D01*
X218373617Y-56948809D02*
X218325998Y-56996428D01*
X218325998Y-56996428D02*
X218230760Y-57044047D01*
X218230760Y-57044047D02*
X218135522Y-57044047D01*
D16*
X178629267Y-99287911D02*
X178557300Y-99251928D01*
X178557300Y-99251928D02*
X178449350Y-99251928D01*
X178449350Y-99251928D02*
X178341400Y-99287911D01*
X178341400Y-99287911D02*
X178269434Y-99359878D01*
X178269434Y-99359878D02*
X178233450Y-99431845D01*
X178233450Y-99431845D02*
X178197467Y-99575778D01*
X178197467Y-99575778D02*
X178197467Y-99683728D01*
X178197467Y-99683728D02*
X178233450Y-99827661D01*
X178233450Y-99827661D02*
X178269434Y-99899628D01*
X178269434Y-99899628D02*
X178341400Y-99971595D01*
X178341400Y-99971595D02*
X178449350Y-100007578D01*
X178449350Y-100007578D02*
X178521317Y-100007578D01*
X178521317Y-100007578D02*
X178629267Y-99971595D01*
X178629267Y-99971595D02*
X178665250Y-99935611D01*
X178665250Y-99935611D02*
X178665250Y-99683728D01*
X178665250Y-99683728D02*
X178521317Y-99683728D01*
X178989100Y-100007578D02*
X178989100Y-99251928D01*
X178989100Y-99251928D02*
X179420900Y-100007578D01*
X179420900Y-100007578D02*
X179420900Y-99251928D01*
X179780733Y-100007578D02*
X179780733Y-99251928D01*
X179780733Y-99251928D02*
X179960650Y-99251928D01*
X179960650Y-99251928D02*
X180068600Y-99287911D01*
X180068600Y-99287911D02*
X180140567Y-99359878D01*
X180140567Y-99359878D02*
X180176550Y-99431845D01*
X180176550Y-99431845D02*
X180212533Y-99575778D01*
X180212533Y-99575778D02*
X180212533Y-99683728D01*
X180212533Y-99683728D02*
X180176550Y-99827661D01*
X180176550Y-99827661D02*
X180140567Y-99899628D01*
X180140567Y-99899628D02*
X180068600Y-99971595D01*
X180068600Y-99971595D02*
X179960650Y-100007578D01*
X179960650Y-100007578D02*
X179780733Y-100007578D01*
D12*
X159772380Y-117942619D02*
X159772380Y-116942619D01*
X159772380Y-116942619D02*
X160153332Y-116942619D01*
X160153332Y-116942619D02*
X160248570Y-116990238D01*
X160248570Y-116990238D02*
X160296189Y-117037857D01*
X160296189Y-117037857D02*
X160343808Y-117133095D01*
X160343808Y-117133095D02*
X160343808Y-117275952D01*
X160343808Y-117275952D02*
X160296189Y-117371190D01*
X160296189Y-117371190D02*
X160248570Y-117418809D01*
X160248570Y-117418809D02*
X160153332Y-117466428D01*
X160153332Y-117466428D02*
X159772380Y-117466428D01*
X161153332Y-117895000D02*
X161058094Y-117942619D01*
X161058094Y-117942619D02*
X160867618Y-117942619D01*
X160867618Y-117942619D02*
X160772380Y-117895000D01*
X160772380Y-117895000D02*
X160724761Y-117799761D01*
X160724761Y-117799761D02*
X160724761Y-117418809D01*
X160724761Y-117418809D02*
X160772380Y-117323571D01*
X160772380Y-117323571D02*
X160867618Y-117275952D01*
X160867618Y-117275952D02*
X161058094Y-117275952D01*
X161058094Y-117275952D02*
X161153332Y-117323571D01*
X161153332Y-117323571D02*
X161200951Y-117418809D01*
X161200951Y-117418809D02*
X161200951Y-117514047D01*
X161200951Y-117514047D02*
X160724761Y-117609285D01*
X162058094Y-117942619D02*
X162058094Y-117418809D01*
X162058094Y-117418809D02*
X162010475Y-117323571D01*
X162010475Y-117323571D02*
X161915237Y-117275952D01*
X161915237Y-117275952D02*
X161724761Y-117275952D01*
X161724761Y-117275952D02*
X161629523Y-117323571D01*
X162058094Y-117895000D02*
X161962856Y-117942619D01*
X161962856Y-117942619D02*
X161724761Y-117942619D01*
X161724761Y-117942619D02*
X161629523Y-117895000D01*
X161629523Y-117895000D02*
X161581904Y-117799761D01*
X161581904Y-117799761D02*
X161581904Y-117704523D01*
X161581904Y-117704523D02*
X161629523Y-117609285D01*
X161629523Y-117609285D02*
X161724761Y-117561666D01*
X161724761Y-117561666D02*
X161962856Y-117561666D01*
X161962856Y-117561666D02*
X162058094Y-117514047D01*
X162534285Y-117942619D02*
X162534285Y-116942619D01*
X162629523Y-117561666D02*
X162915237Y-117942619D01*
X162915237Y-117275952D02*
X162534285Y-117656904D01*
X164105714Y-117942619D02*
X164105714Y-116942619D01*
X164105714Y-116942619D02*
X164343809Y-116942619D01*
X164343809Y-116942619D02*
X164486666Y-116990238D01*
X164486666Y-116990238D02*
X164581904Y-117085476D01*
X164581904Y-117085476D02*
X164629523Y-117180714D01*
X164629523Y-117180714D02*
X164677142Y-117371190D01*
X164677142Y-117371190D02*
X164677142Y-117514047D01*
X164677142Y-117514047D02*
X164629523Y-117704523D01*
X164629523Y-117704523D02*
X164581904Y-117799761D01*
X164581904Y-117799761D02*
X164486666Y-117895000D01*
X164486666Y-117895000D02*
X164343809Y-117942619D01*
X164343809Y-117942619D02*
X164105714Y-117942619D01*
X165486666Y-117895000D02*
X165391428Y-117942619D01*
X165391428Y-117942619D02*
X165200952Y-117942619D01*
X165200952Y-117942619D02*
X165105714Y-117895000D01*
X165105714Y-117895000D02*
X165058095Y-117799761D01*
X165058095Y-117799761D02*
X165058095Y-117418809D01*
X165058095Y-117418809D02*
X165105714Y-117323571D01*
X165105714Y-117323571D02*
X165200952Y-117275952D01*
X165200952Y-117275952D02*
X165391428Y-117275952D01*
X165391428Y-117275952D02*
X165486666Y-117323571D01*
X165486666Y-117323571D02*
X165534285Y-117418809D01*
X165534285Y-117418809D02*
X165534285Y-117514047D01*
X165534285Y-117514047D02*
X165058095Y-117609285D01*
X165820000Y-117275952D02*
X166200952Y-117275952D01*
X165962857Y-116942619D02*
X165962857Y-117799761D01*
X165962857Y-117799761D02*
X166010476Y-117895000D01*
X166010476Y-117895000D02*
X166105714Y-117942619D01*
X166105714Y-117942619D02*
X166200952Y-117942619D01*
X166915238Y-117895000D02*
X166820000Y-117942619D01*
X166820000Y-117942619D02*
X166629524Y-117942619D01*
X166629524Y-117942619D02*
X166534286Y-117895000D01*
X166534286Y-117895000D02*
X166486667Y-117799761D01*
X166486667Y-117799761D02*
X166486667Y-117418809D01*
X166486667Y-117418809D02*
X166534286Y-117323571D01*
X166534286Y-117323571D02*
X166629524Y-117275952D01*
X166629524Y-117275952D02*
X166820000Y-117275952D01*
X166820000Y-117275952D02*
X166915238Y-117323571D01*
X166915238Y-117323571D02*
X166962857Y-117418809D01*
X166962857Y-117418809D02*
X166962857Y-117514047D01*
X166962857Y-117514047D02*
X166486667Y-117609285D01*
X167820000Y-117895000D02*
X167724762Y-117942619D01*
X167724762Y-117942619D02*
X167534286Y-117942619D01*
X167534286Y-117942619D02*
X167439048Y-117895000D01*
X167439048Y-117895000D02*
X167391429Y-117847380D01*
X167391429Y-117847380D02*
X167343810Y-117752142D01*
X167343810Y-117752142D02*
X167343810Y-117466428D01*
X167343810Y-117466428D02*
X167391429Y-117371190D01*
X167391429Y-117371190D02*
X167439048Y-117323571D01*
X167439048Y-117323571D02*
X167534286Y-117275952D01*
X167534286Y-117275952D02*
X167724762Y-117275952D01*
X167724762Y-117275952D02*
X167820000Y-117323571D01*
X168105715Y-117275952D02*
X168486667Y-117275952D01*
X168248572Y-116942619D02*
X168248572Y-117799761D01*
X168248572Y-117799761D02*
X168296191Y-117895000D01*
X168296191Y-117895000D02*
X168391429Y-117942619D01*
X168391429Y-117942619D02*
X168486667Y-117942619D01*
X168962858Y-117942619D02*
X168867620Y-117895000D01*
X168867620Y-117895000D02*
X168820001Y-117847380D01*
X168820001Y-117847380D02*
X168772382Y-117752142D01*
X168772382Y-117752142D02*
X168772382Y-117466428D01*
X168772382Y-117466428D02*
X168820001Y-117371190D01*
X168820001Y-117371190D02*
X168867620Y-117323571D01*
X168867620Y-117323571D02*
X168962858Y-117275952D01*
X168962858Y-117275952D02*
X169105715Y-117275952D01*
X169105715Y-117275952D02*
X169200953Y-117323571D01*
X169200953Y-117323571D02*
X169248572Y-117371190D01*
X169248572Y-117371190D02*
X169296191Y-117466428D01*
X169296191Y-117466428D02*
X169296191Y-117752142D01*
X169296191Y-117752142D02*
X169248572Y-117847380D01*
X169248572Y-117847380D02*
X169200953Y-117895000D01*
X169200953Y-117895000D02*
X169105715Y-117942619D01*
X169105715Y-117942619D02*
X168962858Y-117942619D01*
X169724763Y-117942619D02*
X169724763Y-117275952D01*
X169724763Y-117466428D02*
X169772382Y-117371190D01*
X169772382Y-117371190D02*
X169820001Y-117323571D01*
X169820001Y-117323571D02*
X169915239Y-117275952D01*
X169915239Y-117275952D02*
X170010477Y-117275952D01*
D14*
X183836267Y-99605156D02*
X184124133Y-99605156D01*
X184247505Y-100057518D02*
X183836267Y-100057518D01*
X183836267Y-100057518D02*
X183836267Y-99193918D01*
X183836267Y-99193918D02*
X184247505Y-99193918D01*
X184617619Y-99481785D02*
X184617619Y-100057518D01*
X184617619Y-99564033D02*
X184658742Y-99522909D01*
X184658742Y-99522909D02*
X184740990Y-99481785D01*
X184740990Y-99481785D02*
X184864361Y-99481785D01*
X184864361Y-99481785D02*
X184946609Y-99522909D01*
X184946609Y-99522909D02*
X184987733Y-99605156D01*
X184987733Y-99605156D02*
X184987733Y-100057518D01*
D12*
X207942666Y-57171095D02*
X207466476Y-57171095D01*
X208037904Y-56885380D02*
X207704571Y-57885380D01*
X207704571Y-57885380D02*
X207371238Y-56885380D01*
X207037904Y-56885380D02*
X207037904Y-57552047D01*
X207037904Y-57456809D02*
X206990285Y-57504428D01*
X206990285Y-57504428D02*
X206895047Y-57552047D01*
X206895047Y-57552047D02*
X206752190Y-57552047D01*
X206752190Y-57552047D02*
X206656952Y-57504428D01*
X206656952Y-57504428D02*
X206609333Y-57409190D01*
X206609333Y-57409190D02*
X206609333Y-56885380D01*
X206609333Y-57409190D02*
X206561714Y-57504428D01*
X206561714Y-57504428D02*
X206466476Y-57552047D01*
X206466476Y-57552047D02*
X206323619Y-57552047D01*
X206323619Y-57552047D02*
X206228380Y-57504428D01*
X206228380Y-57504428D02*
X206180761Y-57409190D01*
X206180761Y-57409190D02*
X206180761Y-56885380D01*
X205704571Y-57552047D02*
X205704571Y-56552047D01*
X205704571Y-57504428D02*
X205609333Y-57552047D01*
X205609333Y-57552047D02*
X205418857Y-57552047D01*
X205418857Y-57552047D02*
X205323619Y-57504428D01*
X205323619Y-57504428D02*
X205276000Y-57456809D01*
X205276000Y-57456809D02*
X205228381Y-57361571D01*
X205228381Y-57361571D02*
X205228381Y-57075857D01*
X205228381Y-57075857D02*
X205276000Y-56980619D01*
X205276000Y-56980619D02*
X205323619Y-56933000D01*
X205323619Y-56933000D02*
X205418857Y-56885380D01*
X205418857Y-56885380D02*
X205609333Y-56885380D01*
X205609333Y-56885380D02*
X205704571Y-56933000D01*
X204656952Y-56885380D02*
X204752190Y-56933000D01*
X204752190Y-56933000D02*
X204799809Y-57028238D01*
X204799809Y-57028238D02*
X204799809Y-57885380D01*
X204275999Y-56885380D02*
X204275999Y-57552047D01*
X204275999Y-57885380D02*
X204323618Y-57837761D01*
X204323618Y-57837761D02*
X204275999Y-57790142D01*
X204275999Y-57790142D02*
X204228380Y-57837761D01*
X204228380Y-57837761D02*
X204275999Y-57885380D01*
X204275999Y-57885380D02*
X204275999Y-57790142D01*
X203942666Y-57552047D02*
X203561714Y-57552047D01*
X203799809Y-56885380D02*
X203799809Y-57742523D01*
X203799809Y-57742523D02*
X203752190Y-57837761D01*
X203752190Y-57837761D02*
X203656952Y-57885380D01*
X203656952Y-57885380D02*
X203561714Y-57885380D01*
X203323618Y-57552047D02*
X203085523Y-56885380D01*
X202847428Y-57552047D02*
X203085523Y-56885380D01*
X203085523Y-56885380D02*
X203180761Y-56647285D01*
X203180761Y-56647285D02*
X203228380Y-56599666D01*
X203228380Y-56599666D02*
X203323618Y-56552047D01*
X202466475Y-56885380D02*
X202466475Y-57552047D01*
X202466475Y-57885380D02*
X202514094Y-57837761D01*
X202514094Y-57837761D02*
X202466475Y-57790142D01*
X202466475Y-57790142D02*
X202418856Y-57837761D01*
X202418856Y-57837761D02*
X202466475Y-57885380D01*
X202466475Y-57885380D02*
X202466475Y-57790142D01*
X201990285Y-57552047D02*
X201990285Y-56885380D01*
X201990285Y-57456809D02*
X201942666Y-57504428D01*
X201942666Y-57504428D02*
X201847428Y-57552047D01*
X201847428Y-57552047D02*
X201704571Y-57552047D01*
X201704571Y-57552047D02*
X201609333Y-57504428D01*
X201609333Y-57504428D02*
X201561714Y-57409190D01*
X201561714Y-57409190D02*
X201561714Y-56885380D01*
X200656952Y-57552047D02*
X200656952Y-56742523D01*
X200656952Y-56742523D02*
X200704571Y-56647285D01*
X200704571Y-56647285D02*
X200752190Y-56599666D01*
X200752190Y-56599666D02*
X200847428Y-56552047D01*
X200847428Y-56552047D02*
X200990285Y-56552047D01*
X200990285Y-56552047D02*
X201085523Y-56599666D01*
X200656952Y-56933000D02*
X200752190Y-56885380D01*
X200752190Y-56885380D02*
X200942666Y-56885380D01*
X200942666Y-56885380D02*
X201037904Y-56933000D01*
X201037904Y-56933000D02*
X201085523Y-56980619D01*
X201085523Y-56980619D02*
X201133142Y-57075857D01*
X201133142Y-57075857D02*
X201133142Y-57361571D01*
X201133142Y-57361571D02*
X201085523Y-57456809D01*
X201085523Y-57456809D02*
X201037904Y-57504428D01*
X201037904Y-57504428D02*
X200942666Y-57552047D01*
X200942666Y-57552047D02*
X200752190Y-57552047D01*
X200752190Y-57552047D02*
X200656952Y-57504428D01*
%TO.C,C6*%
X226902533Y-74936580D02*
X226854914Y-74984200D01*
X226854914Y-74984200D02*
X226712057Y-75031819D01*
X226712057Y-75031819D02*
X226616819Y-75031819D01*
X226616819Y-75031819D02*
X226473962Y-74984200D01*
X226473962Y-74984200D02*
X226378724Y-74888961D01*
X226378724Y-74888961D02*
X226331105Y-74793723D01*
X226331105Y-74793723D02*
X226283486Y-74603247D01*
X226283486Y-74603247D02*
X226283486Y-74460390D01*
X226283486Y-74460390D02*
X226331105Y-74269914D01*
X226331105Y-74269914D02*
X226378724Y-74174676D01*
X226378724Y-74174676D02*
X226473962Y-74079438D01*
X226473962Y-74079438D02*
X226616819Y-74031819D01*
X226616819Y-74031819D02*
X226712057Y-74031819D01*
X226712057Y-74031819D02*
X226854914Y-74079438D01*
X226854914Y-74079438D02*
X226902533Y-74127057D01*
X227759676Y-74031819D02*
X227569200Y-74031819D01*
X227569200Y-74031819D02*
X227473962Y-74079438D01*
X227473962Y-74079438D02*
X227426343Y-74127057D01*
X227426343Y-74127057D02*
X227331105Y-74269914D01*
X227331105Y-74269914D02*
X227283486Y-74460390D01*
X227283486Y-74460390D02*
X227283486Y-74841342D01*
X227283486Y-74841342D02*
X227331105Y-74936580D01*
X227331105Y-74936580D02*
X227378724Y-74984200D01*
X227378724Y-74984200D02*
X227473962Y-75031819D01*
X227473962Y-75031819D02*
X227664438Y-75031819D01*
X227664438Y-75031819D02*
X227759676Y-74984200D01*
X227759676Y-74984200D02*
X227807295Y-74936580D01*
X227807295Y-74936580D02*
X227854914Y-74841342D01*
X227854914Y-74841342D02*
X227854914Y-74603247D01*
X227854914Y-74603247D02*
X227807295Y-74508009D01*
X227807295Y-74508009D02*
X227759676Y-74460390D01*
X227759676Y-74460390D02*
X227664438Y-74412771D01*
X227664438Y-74412771D02*
X227473962Y-74412771D01*
X227473962Y-74412771D02*
X227378724Y-74460390D01*
X227378724Y-74460390D02*
X227331105Y-74508009D01*
X227331105Y-74508009D02*
X227283486Y-74603247D01*
%TO.C,C5*%
X210814933Y-57059080D02*
X210767314Y-57106700D01*
X210767314Y-57106700D02*
X210624457Y-57154319D01*
X210624457Y-57154319D02*
X210529219Y-57154319D01*
X210529219Y-57154319D02*
X210386362Y-57106700D01*
X210386362Y-57106700D02*
X210291124Y-57011461D01*
X210291124Y-57011461D02*
X210243505Y-56916223D01*
X210243505Y-56916223D02*
X210195886Y-56725747D01*
X210195886Y-56725747D02*
X210195886Y-56582890D01*
X210195886Y-56582890D02*
X210243505Y-56392414D01*
X210243505Y-56392414D02*
X210291124Y-56297176D01*
X210291124Y-56297176D02*
X210386362Y-56201938D01*
X210386362Y-56201938D02*
X210529219Y-56154319D01*
X210529219Y-56154319D02*
X210624457Y-56154319D01*
X210624457Y-56154319D02*
X210767314Y-56201938D01*
X210767314Y-56201938D02*
X210814933Y-56249557D01*
X211719695Y-56154319D02*
X211243505Y-56154319D01*
X211243505Y-56154319D02*
X211195886Y-56630509D01*
X211195886Y-56630509D02*
X211243505Y-56582890D01*
X211243505Y-56582890D02*
X211338743Y-56535271D01*
X211338743Y-56535271D02*
X211576838Y-56535271D01*
X211576838Y-56535271D02*
X211672076Y-56582890D01*
X211672076Y-56582890D02*
X211719695Y-56630509D01*
X211719695Y-56630509D02*
X211767314Y-56725747D01*
X211767314Y-56725747D02*
X211767314Y-56963842D01*
X211767314Y-56963842D02*
X211719695Y-57059080D01*
X211719695Y-57059080D02*
X211672076Y-57106700D01*
X211672076Y-57106700D02*
X211576838Y-57154319D01*
X211576838Y-57154319D02*
X211338743Y-57154319D01*
X211338743Y-57154319D02*
X211243505Y-57106700D01*
X211243505Y-57106700D02*
X211195886Y-57059080D01*
%TO.C,R20*%
X234113142Y-85217819D02*
X233779809Y-84741628D01*
X233541714Y-85217819D02*
X233541714Y-84217819D01*
X233541714Y-84217819D02*
X233922666Y-84217819D01*
X233922666Y-84217819D02*
X234017904Y-84265438D01*
X234017904Y-84265438D02*
X234065523Y-84313057D01*
X234065523Y-84313057D02*
X234113142Y-84408295D01*
X234113142Y-84408295D02*
X234113142Y-84551152D01*
X234113142Y-84551152D02*
X234065523Y-84646390D01*
X234065523Y-84646390D02*
X234017904Y-84694009D01*
X234017904Y-84694009D02*
X233922666Y-84741628D01*
X233922666Y-84741628D02*
X233541714Y-84741628D01*
X234494095Y-84313057D02*
X234541714Y-84265438D01*
X234541714Y-84265438D02*
X234636952Y-84217819D01*
X234636952Y-84217819D02*
X234875047Y-84217819D01*
X234875047Y-84217819D02*
X234970285Y-84265438D01*
X234970285Y-84265438D02*
X235017904Y-84313057D01*
X235017904Y-84313057D02*
X235065523Y-84408295D01*
X235065523Y-84408295D02*
X235065523Y-84503533D01*
X235065523Y-84503533D02*
X235017904Y-84646390D01*
X235017904Y-84646390D02*
X234446476Y-85217819D01*
X234446476Y-85217819D02*
X235065523Y-85217819D01*
X235684571Y-84217819D02*
X235779809Y-84217819D01*
X235779809Y-84217819D02*
X235875047Y-84265438D01*
X235875047Y-84265438D02*
X235922666Y-84313057D01*
X235922666Y-84313057D02*
X235970285Y-84408295D01*
X235970285Y-84408295D02*
X236017904Y-84598771D01*
X236017904Y-84598771D02*
X236017904Y-84836866D01*
X236017904Y-84836866D02*
X235970285Y-85027342D01*
X235970285Y-85027342D02*
X235922666Y-85122580D01*
X235922666Y-85122580D02*
X235875047Y-85170200D01*
X235875047Y-85170200D02*
X235779809Y-85217819D01*
X235779809Y-85217819D02*
X235684571Y-85217819D01*
X235684571Y-85217819D02*
X235589333Y-85170200D01*
X235589333Y-85170200D02*
X235541714Y-85122580D01*
X235541714Y-85122580D02*
X235494095Y-85027342D01*
X235494095Y-85027342D02*
X235446476Y-84836866D01*
X235446476Y-84836866D02*
X235446476Y-84598771D01*
X235446476Y-84598771D02*
X235494095Y-84408295D01*
X235494095Y-84408295D02*
X235541714Y-84313057D01*
X235541714Y-84313057D02*
X235589333Y-84265438D01*
X235589333Y-84265438D02*
X235684571Y-84217819D01*
%TO.C,C7*%
X204939733Y-69996280D02*
X204892114Y-70043900D01*
X204892114Y-70043900D02*
X204749257Y-70091519D01*
X204749257Y-70091519D02*
X204654019Y-70091519D01*
X204654019Y-70091519D02*
X204511162Y-70043900D01*
X204511162Y-70043900D02*
X204415924Y-69948661D01*
X204415924Y-69948661D02*
X204368305Y-69853423D01*
X204368305Y-69853423D02*
X204320686Y-69662947D01*
X204320686Y-69662947D02*
X204320686Y-69520090D01*
X204320686Y-69520090D02*
X204368305Y-69329614D01*
X204368305Y-69329614D02*
X204415924Y-69234376D01*
X204415924Y-69234376D02*
X204511162Y-69139138D01*
X204511162Y-69139138D02*
X204654019Y-69091519D01*
X204654019Y-69091519D02*
X204749257Y-69091519D01*
X204749257Y-69091519D02*
X204892114Y-69139138D01*
X204892114Y-69139138D02*
X204939733Y-69186757D01*
X205273067Y-69091519D02*
X205939733Y-69091519D01*
X205939733Y-69091519D02*
X205511162Y-70091519D01*
%TO.C,*%
%TO.C,R10*%
X164257142Y-83092619D02*
X163923809Y-82616428D01*
X163685714Y-83092619D02*
X163685714Y-82092619D01*
X163685714Y-82092619D02*
X164066666Y-82092619D01*
X164066666Y-82092619D02*
X164161904Y-82140238D01*
X164161904Y-82140238D02*
X164209523Y-82187857D01*
X164209523Y-82187857D02*
X164257142Y-82283095D01*
X164257142Y-82283095D02*
X164257142Y-82425952D01*
X164257142Y-82425952D02*
X164209523Y-82521190D01*
X164209523Y-82521190D02*
X164161904Y-82568809D01*
X164161904Y-82568809D02*
X164066666Y-82616428D01*
X164066666Y-82616428D02*
X163685714Y-82616428D01*
X165209523Y-83092619D02*
X164638095Y-83092619D01*
X164923809Y-83092619D02*
X164923809Y-82092619D01*
X164923809Y-82092619D02*
X164828571Y-82235476D01*
X164828571Y-82235476D02*
X164733333Y-82330714D01*
X164733333Y-82330714D02*
X164638095Y-82378333D01*
X165828571Y-82092619D02*
X165923809Y-82092619D01*
X165923809Y-82092619D02*
X166019047Y-82140238D01*
X166019047Y-82140238D02*
X166066666Y-82187857D01*
X166066666Y-82187857D02*
X166114285Y-82283095D01*
X166114285Y-82283095D02*
X166161904Y-82473571D01*
X166161904Y-82473571D02*
X166161904Y-82711666D01*
X166161904Y-82711666D02*
X166114285Y-82902142D01*
X166114285Y-82902142D02*
X166066666Y-82997380D01*
X166066666Y-82997380D02*
X166019047Y-83045000D01*
X166019047Y-83045000D02*
X165923809Y-83092619D01*
X165923809Y-83092619D02*
X165828571Y-83092619D01*
X165828571Y-83092619D02*
X165733333Y-83045000D01*
X165733333Y-83045000D02*
X165685714Y-82997380D01*
X165685714Y-82997380D02*
X165638095Y-82902142D01*
X165638095Y-82902142D02*
X165590476Y-82711666D01*
X165590476Y-82711666D02*
X165590476Y-82473571D01*
X165590476Y-82473571D02*
X165638095Y-82283095D01*
X165638095Y-82283095D02*
X165685714Y-82187857D01*
X165685714Y-82187857D02*
X165733333Y-82140238D01*
X165733333Y-82140238D02*
X165828571Y-82092619D01*
%TO.C,U1*%
X217915595Y-92713519D02*
X217915595Y-93523042D01*
X217915595Y-93523042D02*
X217963214Y-93618280D01*
X217963214Y-93618280D02*
X218010833Y-93665900D01*
X218010833Y-93665900D02*
X218106071Y-93713519D01*
X218106071Y-93713519D02*
X218296547Y-93713519D01*
X218296547Y-93713519D02*
X218391785Y-93665900D01*
X218391785Y-93665900D02*
X218439404Y-93618280D01*
X218439404Y-93618280D02*
X218487023Y-93523042D01*
X218487023Y-93523042D02*
X218487023Y-92713519D01*
X219487023Y-93713519D02*
X218915595Y-93713519D01*
X219201309Y-93713519D02*
X219201309Y-92713519D01*
X219201309Y-92713519D02*
X219106071Y-92856376D01*
X219106071Y-92856376D02*
X219010833Y-92951614D01*
X219010833Y-92951614D02*
X218915595Y-92999233D01*
%TO.C,*%
%TO.C,J1*%
X170162619Y-94533333D02*
X170876904Y-94533333D01*
X170876904Y-94533333D02*
X171019761Y-94580952D01*
X171019761Y-94580952D02*
X171115000Y-94676190D01*
X171115000Y-94676190D02*
X171162619Y-94819047D01*
X171162619Y-94819047D02*
X171162619Y-94914285D01*
X171162619Y-93533333D02*
X171162619Y-94104761D01*
X171162619Y-93819047D02*
X170162619Y-93819047D01*
X170162619Y-93819047D02*
X170305476Y-93914285D01*
X170305476Y-93914285D02*
X170400714Y-94009523D01*
X170400714Y-94009523D02*
X170448333Y-94104761D01*
%TO.C,TP2*%
X240801119Y-98669904D02*
X240801119Y-98098476D01*
X241801119Y-98384190D02*
X240801119Y-98384190D01*
X241801119Y-97765142D02*
X240801119Y-97765142D01*
X240801119Y-97765142D02*
X240801119Y-97384190D01*
X240801119Y-97384190D02*
X240848738Y-97288952D01*
X240848738Y-97288952D02*
X240896357Y-97241333D01*
X240896357Y-97241333D02*
X240991595Y-97193714D01*
X240991595Y-97193714D02*
X241134452Y-97193714D01*
X241134452Y-97193714D02*
X241229690Y-97241333D01*
X241229690Y-97241333D02*
X241277309Y-97288952D01*
X241277309Y-97288952D02*
X241324928Y-97384190D01*
X241324928Y-97384190D02*
X241324928Y-97765142D01*
X240896357Y-96812761D02*
X240848738Y-96765142D01*
X240848738Y-96765142D02*
X240801119Y-96669904D01*
X240801119Y-96669904D02*
X240801119Y-96431809D01*
X240801119Y-96431809D02*
X240848738Y-96336571D01*
X240848738Y-96336571D02*
X240896357Y-96288952D01*
X240896357Y-96288952D02*
X240991595Y-96241333D01*
X240991595Y-96241333D02*
X241086833Y-96241333D01*
X241086833Y-96241333D02*
X241229690Y-96288952D01*
X241229690Y-96288952D02*
X241801119Y-96860380D01*
X241801119Y-96860380D02*
X241801119Y-96241333D01*
%TO.C,L1*%
X212200833Y-94119919D02*
X211724643Y-94119919D01*
X211724643Y-94119919D02*
X211724643Y-93119919D01*
X213057976Y-94119919D02*
X212486548Y-94119919D01*
X212772262Y-94119919D02*
X212772262Y-93119919D01*
X212772262Y-93119919D02*
X212677024Y-93262776D01*
X212677024Y-93262776D02*
X212581786Y-93358014D01*
X212581786Y-93358014D02*
X212486548Y-93405633D01*
%TO.C,R2*%
X211983333Y-90817919D02*
X211650000Y-90341728D01*
X211411905Y-90817919D02*
X211411905Y-89817919D01*
X211411905Y-89817919D02*
X211792857Y-89817919D01*
X211792857Y-89817919D02*
X211888095Y-89865538D01*
X211888095Y-89865538D02*
X211935714Y-89913157D01*
X211935714Y-89913157D02*
X211983333Y-90008395D01*
X211983333Y-90008395D02*
X211983333Y-90151252D01*
X211983333Y-90151252D02*
X211935714Y-90246490D01*
X211935714Y-90246490D02*
X211888095Y-90294109D01*
X211888095Y-90294109D02*
X211792857Y-90341728D01*
X211792857Y-90341728D02*
X211411905Y-90341728D01*
X212364286Y-89913157D02*
X212411905Y-89865538D01*
X212411905Y-89865538D02*
X212507143Y-89817919D01*
X212507143Y-89817919D02*
X212745238Y-89817919D01*
X212745238Y-89817919D02*
X212840476Y-89865538D01*
X212840476Y-89865538D02*
X212888095Y-89913157D01*
X212888095Y-89913157D02*
X212935714Y-90008395D01*
X212935714Y-90008395D02*
X212935714Y-90103633D01*
X212935714Y-90103633D02*
X212888095Y-90246490D01*
X212888095Y-90246490D02*
X212316667Y-90817919D01*
X212316667Y-90817919D02*
X212935714Y-90817919D01*
%TO.C,R3*%
X196303733Y-70345519D02*
X195970400Y-69869328D01*
X195732305Y-70345519D02*
X195732305Y-69345519D01*
X195732305Y-69345519D02*
X196113257Y-69345519D01*
X196113257Y-69345519D02*
X196208495Y-69393138D01*
X196208495Y-69393138D02*
X196256114Y-69440757D01*
X196256114Y-69440757D02*
X196303733Y-69535995D01*
X196303733Y-69535995D02*
X196303733Y-69678852D01*
X196303733Y-69678852D02*
X196256114Y-69774090D01*
X196256114Y-69774090D02*
X196208495Y-69821709D01*
X196208495Y-69821709D02*
X196113257Y-69869328D01*
X196113257Y-69869328D02*
X195732305Y-69869328D01*
X196637067Y-69345519D02*
X197256114Y-69345519D01*
X197256114Y-69345519D02*
X196922781Y-69726471D01*
X196922781Y-69726471D02*
X197065638Y-69726471D01*
X197065638Y-69726471D02*
X197160876Y-69774090D01*
X197160876Y-69774090D02*
X197208495Y-69821709D01*
X197208495Y-69821709D02*
X197256114Y-69916947D01*
X197256114Y-69916947D02*
X197256114Y-70155042D01*
X197256114Y-70155042D02*
X197208495Y-70250280D01*
X197208495Y-70250280D02*
X197160876Y-70297900D01*
X197160876Y-70297900D02*
X197065638Y-70345519D01*
X197065638Y-70345519D02*
X196779924Y-70345519D01*
X196779924Y-70345519D02*
X196684686Y-70297900D01*
X196684686Y-70297900D02*
X196637067Y-70250280D01*
%TO.C,R9*%
X238399333Y-91304419D02*
X238066000Y-90828228D01*
X237827905Y-91304419D02*
X237827905Y-90304419D01*
X237827905Y-90304419D02*
X238208857Y-90304419D01*
X238208857Y-90304419D02*
X238304095Y-90352038D01*
X238304095Y-90352038D02*
X238351714Y-90399657D01*
X238351714Y-90399657D02*
X238399333Y-90494895D01*
X238399333Y-90494895D02*
X238399333Y-90637752D01*
X238399333Y-90637752D02*
X238351714Y-90732990D01*
X238351714Y-90732990D02*
X238304095Y-90780609D01*
X238304095Y-90780609D02*
X238208857Y-90828228D01*
X238208857Y-90828228D02*
X237827905Y-90828228D01*
X238875524Y-91304419D02*
X239066000Y-91304419D01*
X239066000Y-91304419D02*
X239161238Y-91256800D01*
X239161238Y-91256800D02*
X239208857Y-91209180D01*
X239208857Y-91209180D02*
X239304095Y-91066323D01*
X239304095Y-91066323D02*
X239351714Y-90875847D01*
X239351714Y-90875847D02*
X239351714Y-90494895D01*
X239351714Y-90494895D02*
X239304095Y-90399657D01*
X239304095Y-90399657D02*
X239256476Y-90352038D01*
X239256476Y-90352038D02*
X239161238Y-90304419D01*
X239161238Y-90304419D02*
X238970762Y-90304419D01*
X238970762Y-90304419D02*
X238875524Y-90352038D01*
X238875524Y-90352038D02*
X238827905Y-90399657D01*
X238827905Y-90399657D02*
X238780286Y-90494895D01*
X238780286Y-90494895D02*
X238780286Y-90732990D01*
X238780286Y-90732990D02*
X238827905Y-90828228D01*
X238827905Y-90828228D02*
X238875524Y-90875847D01*
X238875524Y-90875847D02*
X238970762Y-90923466D01*
X238970762Y-90923466D02*
X239161238Y-90923466D01*
X239161238Y-90923466D02*
X239256476Y-90875847D01*
X239256476Y-90875847D02*
X239304095Y-90828228D01*
X239304095Y-90828228D02*
X239351714Y-90732990D01*
%TO.C,R5*%
X200621733Y-70091519D02*
X200288400Y-69615328D01*
X200050305Y-70091519D02*
X200050305Y-69091519D01*
X200050305Y-69091519D02*
X200431257Y-69091519D01*
X200431257Y-69091519D02*
X200526495Y-69139138D01*
X200526495Y-69139138D02*
X200574114Y-69186757D01*
X200574114Y-69186757D02*
X200621733Y-69281995D01*
X200621733Y-69281995D02*
X200621733Y-69424852D01*
X200621733Y-69424852D02*
X200574114Y-69520090D01*
X200574114Y-69520090D02*
X200526495Y-69567709D01*
X200526495Y-69567709D02*
X200431257Y-69615328D01*
X200431257Y-69615328D02*
X200050305Y-69615328D01*
X201526495Y-69091519D02*
X201050305Y-69091519D01*
X201050305Y-69091519D02*
X201002686Y-69567709D01*
X201002686Y-69567709D02*
X201050305Y-69520090D01*
X201050305Y-69520090D02*
X201145543Y-69472471D01*
X201145543Y-69472471D02*
X201383638Y-69472471D01*
X201383638Y-69472471D02*
X201478876Y-69520090D01*
X201478876Y-69520090D02*
X201526495Y-69567709D01*
X201526495Y-69567709D02*
X201574114Y-69662947D01*
X201574114Y-69662947D02*
X201574114Y-69901042D01*
X201574114Y-69901042D02*
X201526495Y-69996280D01*
X201526495Y-69996280D02*
X201478876Y-70043900D01*
X201478876Y-70043900D02*
X201383638Y-70091519D01*
X201383638Y-70091519D02*
X201145543Y-70091519D01*
X201145543Y-70091519D02*
X201050305Y-70043900D01*
X201050305Y-70043900D02*
X201002686Y-69996280D01*
%TO.C,C1*%
X215031333Y-90722680D02*
X214983714Y-90770300D01*
X214983714Y-90770300D02*
X214840857Y-90817919D01*
X214840857Y-90817919D02*
X214745619Y-90817919D01*
X214745619Y-90817919D02*
X214602762Y-90770300D01*
X214602762Y-90770300D02*
X214507524Y-90675061D01*
X214507524Y-90675061D02*
X214459905Y-90579823D01*
X214459905Y-90579823D02*
X214412286Y-90389347D01*
X214412286Y-90389347D02*
X214412286Y-90246490D01*
X214412286Y-90246490D02*
X214459905Y-90056014D01*
X214459905Y-90056014D02*
X214507524Y-89960776D01*
X214507524Y-89960776D02*
X214602762Y-89865538D01*
X214602762Y-89865538D02*
X214745619Y-89817919D01*
X214745619Y-89817919D02*
X214840857Y-89817919D01*
X214840857Y-89817919D02*
X214983714Y-89865538D01*
X214983714Y-89865538D02*
X215031333Y-89913157D01*
X215983714Y-90817919D02*
X215412286Y-90817919D01*
X215698000Y-90817919D02*
X215698000Y-89817919D01*
X215698000Y-89817919D02*
X215602762Y-89960776D01*
X215602762Y-89960776D02*
X215507524Y-90056014D01*
X215507524Y-90056014D02*
X215412286Y-90103633D01*
%TO.C,R1*%
X217799933Y-91030519D02*
X217466600Y-90554328D01*
X217228505Y-91030519D02*
X217228505Y-90030519D01*
X217228505Y-90030519D02*
X217609457Y-90030519D01*
X217609457Y-90030519D02*
X217704695Y-90078138D01*
X217704695Y-90078138D02*
X217752314Y-90125757D01*
X217752314Y-90125757D02*
X217799933Y-90220995D01*
X217799933Y-90220995D02*
X217799933Y-90363852D01*
X217799933Y-90363852D02*
X217752314Y-90459090D01*
X217752314Y-90459090D02*
X217704695Y-90506709D01*
X217704695Y-90506709D02*
X217609457Y-90554328D01*
X217609457Y-90554328D02*
X217228505Y-90554328D01*
X218752314Y-91030519D02*
X218180886Y-91030519D01*
X218466600Y-91030519D02*
X218466600Y-90030519D01*
X218466600Y-90030519D02*
X218371362Y-90173376D01*
X218371362Y-90173376D02*
X218276124Y-90268614D01*
X218276124Y-90268614D02*
X218180886Y-90316233D01*
%TO.C,TP3*%
X240801119Y-92319904D02*
X240801119Y-91748476D01*
X241801119Y-92034190D02*
X240801119Y-92034190D01*
X241801119Y-91415142D02*
X240801119Y-91415142D01*
X240801119Y-91415142D02*
X240801119Y-91034190D01*
X240801119Y-91034190D02*
X240848738Y-90938952D01*
X240848738Y-90938952D02*
X240896357Y-90891333D01*
X240896357Y-90891333D02*
X240991595Y-90843714D01*
X240991595Y-90843714D02*
X241134452Y-90843714D01*
X241134452Y-90843714D02*
X241229690Y-90891333D01*
X241229690Y-90891333D02*
X241277309Y-90938952D01*
X241277309Y-90938952D02*
X241324928Y-91034190D01*
X241324928Y-91034190D02*
X241324928Y-91415142D01*
X240801119Y-90510380D02*
X240801119Y-89891333D01*
X240801119Y-89891333D02*
X241182071Y-90224666D01*
X241182071Y-90224666D02*
X241182071Y-90081809D01*
X241182071Y-90081809D02*
X241229690Y-89986571D01*
X241229690Y-89986571D02*
X241277309Y-89938952D01*
X241277309Y-89938952D02*
X241372547Y-89891333D01*
X241372547Y-89891333D02*
X241610642Y-89891333D01*
X241610642Y-89891333D02*
X241705880Y-89938952D01*
X241705880Y-89938952D02*
X241753500Y-89986571D01*
X241753500Y-89986571D02*
X241801119Y-90081809D01*
X241801119Y-90081809D02*
X241801119Y-90367523D01*
X241801119Y-90367523D02*
X241753500Y-90462761D01*
X241753500Y-90462761D02*
X241705880Y-90510380D01*
%TO.C,TP4*%
X242962619Y-80861904D02*
X242962619Y-80290476D01*
X243962619Y-80576190D02*
X242962619Y-80576190D01*
X243962619Y-79957142D02*
X242962619Y-79957142D01*
X242962619Y-79957142D02*
X242962619Y-79576190D01*
X242962619Y-79576190D02*
X243010238Y-79480952D01*
X243010238Y-79480952D02*
X243057857Y-79433333D01*
X243057857Y-79433333D02*
X243153095Y-79385714D01*
X243153095Y-79385714D02*
X243295952Y-79385714D01*
X243295952Y-79385714D02*
X243391190Y-79433333D01*
X243391190Y-79433333D02*
X243438809Y-79480952D01*
X243438809Y-79480952D02*
X243486428Y-79576190D01*
X243486428Y-79576190D02*
X243486428Y-79957142D01*
X243295952Y-78528571D02*
X243962619Y-78528571D01*
X242915000Y-78766666D02*
X243629285Y-79004761D01*
X243629285Y-79004761D02*
X243629285Y-78385714D01*
%TO.C,R8*%
X174942619Y-99116666D02*
X174466428Y-99449999D01*
X174942619Y-99688094D02*
X173942619Y-99688094D01*
X173942619Y-99688094D02*
X173942619Y-99307142D01*
X173942619Y-99307142D02*
X173990238Y-99211904D01*
X173990238Y-99211904D02*
X174037857Y-99164285D01*
X174037857Y-99164285D02*
X174133095Y-99116666D01*
X174133095Y-99116666D02*
X174275952Y-99116666D01*
X174275952Y-99116666D02*
X174371190Y-99164285D01*
X174371190Y-99164285D02*
X174418809Y-99211904D01*
X174418809Y-99211904D02*
X174466428Y-99307142D01*
X174466428Y-99307142D02*
X174466428Y-99688094D01*
X174371190Y-98545237D02*
X174323571Y-98640475D01*
X174323571Y-98640475D02*
X174275952Y-98688094D01*
X174275952Y-98688094D02*
X174180714Y-98735713D01*
X174180714Y-98735713D02*
X174133095Y-98735713D01*
X174133095Y-98735713D02*
X174037857Y-98688094D01*
X174037857Y-98688094D02*
X173990238Y-98640475D01*
X173990238Y-98640475D02*
X173942619Y-98545237D01*
X173942619Y-98545237D02*
X173942619Y-98354761D01*
X173942619Y-98354761D02*
X173990238Y-98259523D01*
X173990238Y-98259523D02*
X174037857Y-98211904D01*
X174037857Y-98211904D02*
X174133095Y-98164285D01*
X174133095Y-98164285D02*
X174180714Y-98164285D01*
X174180714Y-98164285D02*
X174275952Y-98211904D01*
X174275952Y-98211904D02*
X174323571Y-98259523D01*
X174323571Y-98259523D02*
X174371190Y-98354761D01*
X174371190Y-98354761D02*
X174371190Y-98545237D01*
X174371190Y-98545237D02*
X174418809Y-98640475D01*
X174418809Y-98640475D02*
X174466428Y-98688094D01*
X174466428Y-98688094D02*
X174561666Y-98735713D01*
X174561666Y-98735713D02*
X174752142Y-98735713D01*
X174752142Y-98735713D02*
X174847380Y-98688094D01*
X174847380Y-98688094D02*
X174895000Y-98640475D01*
X174895000Y-98640475D02*
X174942619Y-98545237D01*
X174942619Y-98545237D02*
X174942619Y-98354761D01*
X174942619Y-98354761D02*
X174895000Y-98259523D01*
X174895000Y-98259523D02*
X174847380Y-98211904D01*
X174847380Y-98211904D02*
X174752142Y-98164285D01*
X174752142Y-98164285D02*
X174561666Y-98164285D01*
X174561666Y-98164285D02*
X174466428Y-98211904D01*
X174466428Y-98211904D02*
X174418809Y-98259523D01*
X174418809Y-98259523D02*
X174371190Y-98354761D01*
%TO.C,*%
%TO.C,C8*%
X167833333Y-71847380D02*
X167785714Y-71895000D01*
X167785714Y-71895000D02*
X167642857Y-71942619D01*
X167642857Y-71942619D02*
X167547619Y-71942619D01*
X167547619Y-71942619D02*
X167404762Y-71895000D01*
X167404762Y-71895000D02*
X167309524Y-71799761D01*
X167309524Y-71799761D02*
X167261905Y-71704523D01*
X167261905Y-71704523D02*
X167214286Y-71514047D01*
X167214286Y-71514047D02*
X167214286Y-71371190D01*
X167214286Y-71371190D02*
X167261905Y-71180714D01*
X167261905Y-71180714D02*
X167309524Y-71085476D01*
X167309524Y-71085476D02*
X167404762Y-70990238D01*
X167404762Y-70990238D02*
X167547619Y-70942619D01*
X167547619Y-70942619D02*
X167642857Y-70942619D01*
X167642857Y-70942619D02*
X167785714Y-70990238D01*
X167785714Y-70990238D02*
X167833333Y-71037857D01*
X168404762Y-71371190D02*
X168309524Y-71323571D01*
X168309524Y-71323571D02*
X168261905Y-71275952D01*
X168261905Y-71275952D02*
X168214286Y-71180714D01*
X168214286Y-71180714D02*
X168214286Y-71133095D01*
X168214286Y-71133095D02*
X168261905Y-71037857D01*
X168261905Y-71037857D02*
X168309524Y-70990238D01*
X168309524Y-70990238D02*
X168404762Y-70942619D01*
X168404762Y-70942619D02*
X168595238Y-70942619D01*
X168595238Y-70942619D02*
X168690476Y-70990238D01*
X168690476Y-70990238D02*
X168738095Y-71037857D01*
X168738095Y-71037857D02*
X168785714Y-71133095D01*
X168785714Y-71133095D02*
X168785714Y-71180714D01*
X168785714Y-71180714D02*
X168738095Y-71275952D01*
X168738095Y-71275952D02*
X168690476Y-71323571D01*
X168690476Y-71323571D02*
X168595238Y-71371190D01*
X168595238Y-71371190D02*
X168404762Y-71371190D01*
X168404762Y-71371190D02*
X168309524Y-71418809D01*
X168309524Y-71418809D02*
X168261905Y-71466428D01*
X168261905Y-71466428D02*
X168214286Y-71561666D01*
X168214286Y-71561666D02*
X168214286Y-71752142D01*
X168214286Y-71752142D02*
X168261905Y-71847380D01*
X168261905Y-71847380D02*
X168309524Y-71895000D01*
X168309524Y-71895000D02*
X168404762Y-71942619D01*
X168404762Y-71942619D02*
X168595238Y-71942619D01*
X168595238Y-71942619D02*
X168690476Y-71895000D01*
X168690476Y-71895000D02*
X168738095Y-71847380D01*
X168738095Y-71847380D02*
X168785714Y-71752142D01*
X168785714Y-71752142D02*
X168785714Y-71561666D01*
X168785714Y-71561666D02*
X168738095Y-71466428D01*
X168738095Y-71466428D02*
X168690476Y-71418809D01*
X168690476Y-71418809D02*
X168595238Y-71371190D01*
%TO.C,C18*%
X201601142Y-90701180D02*
X201553523Y-90748800D01*
X201553523Y-90748800D02*
X201410666Y-90796419D01*
X201410666Y-90796419D02*
X201315428Y-90796419D01*
X201315428Y-90796419D02*
X201172571Y-90748800D01*
X201172571Y-90748800D02*
X201077333Y-90653561D01*
X201077333Y-90653561D02*
X201029714Y-90558323D01*
X201029714Y-90558323D02*
X200982095Y-90367847D01*
X200982095Y-90367847D02*
X200982095Y-90224990D01*
X200982095Y-90224990D02*
X201029714Y-90034514D01*
X201029714Y-90034514D02*
X201077333Y-89939276D01*
X201077333Y-89939276D02*
X201172571Y-89844038D01*
X201172571Y-89844038D02*
X201315428Y-89796419D01*
X201315428Y-89796419D02*
X201410666Y-89796419D01*
X201410666Y-89796419D02*
X201553523Y-89844038D01*
X201553523Y-89844038D02*
X201601142Y-89891657D01*
X202553523Y-90796419D02*
X201982095Y-90796419D01*
X202267809Y-90796419D02*
X202267809Y-89796419D01*
X202267809Y-89796419D02*
X202172571Y-89939276D01*
X202172571Y-89939276D02*
X202077333Y-90034514D01*
X202077333Y-90034514D02*
X201982095Y-90082133D01*
X203124952Y-90224990D02*
X203029714Y-90177371D01*
X203029714Y-90177371D02*
X202982095Y-90129752D01*
X202982095Y-90129752D02*
X202934476Y-90034514D01*
X202934476Y-90034514D02*
X202934476Y-89986895D01*
X202934476Y-89986895D02*
X202982095Y-89891657D01*
X202982095Y-89891657D02*
X203029714Y-89844038D01*
X203029714Y-89844038D02*
X203124952Y-89796419D01*
X203124952Y-89796419D02*
X203315428Y-89796419D01*
X203315428Y-89796419D02*
X203410666Y-89844038D01*
X203410666Y-89844038D02*
X203458285Y-89891657D01*
X203458285Y-89891657D02*
X203505904Y-89986895D01*
X203505904Y-89986895D02*
X203505904Y-90034514D01*
X203505904Y-90034514D02*
X203458285Y-90129752D01*
X203458285Y-90129752D02*
X203410666Y-90177371D01*
X203410666Y-90177371D02*
X203315428Y-90224990D01*
X203315428Y-90224990D02*
X203124952Y-90224990D01*
X203124952Y-90224990D02*
X203029714Y-90272609D01*
X203029714Y-90272609D02*
X202982095Y-90320228D01*
X202982095Y-90320228D02*
X202934476Y-90415466D01*
X202934476Y-90415466D02*
X202934476Y-90605942D01*
X202934476Y-90605942D02*
X202982095Y-90701180D01*
X202982095Y-90701180D02*
X203029714Y-90748800D01*
X203029714Y-90748800D02*
X203124952Y-90796419D01*
X203124952Y-90796419D02*
X203315428Y-90796419D01*
X203315428Y-90796419D02*
X203410666Y-90748800D01*
X203410666Y-90748800D02*
X203458285Y-90701180D01*
X203458285Y-90701180D02*
X203505904Y-90605942D01*
X203505904Y-90605942D02*
X203505904Y-90415466D01*
X203505904Y-90415466D02*
X203458285Y-90320228D01*
X203458285Y-90320228D02*
X203410666Y-90272609D01*
X203410666Y-90272609D02*
X203315428Y-90224990D01*
%TO.C,L2*%
X205379333Y-90817919D02*
X204903143Y-90817919D01*
X204903143Y-90817919D02*
X204903143Y-89817919D01*
X205665048Y-89913157D02*
X205712667Y-89865538D01*
X205712667Y-89865538D02*
X205807905Y-89817919D01*
X205807905Y-89817919D02*
X206046000Y-89817919D01*
X206046000Y-89817919D02*
X206141238Y-89865538D01*
X206141238Y-89865538D02*
X206188857Y-89913157D01*
X206188857Y-89913157D02*
X206236476Y-90008395D01*
X206236476Y-90008395D02*
X206236476Y-90103633D01*
X206236476Y-90103633D02*
X206188857Y-90246490D01*
X206188857Y-90246490D02*
X205617429Y-90817919D01*
X205617429Y-90817919D02*
X206236476Y-90817919D01*
%TO.C,R7*%
X226953333Y-63474819D02*
X226620000Y-62998628D01*
X226381905Y-63474819D02*
X226381905Y-62474819D01*
X226381905Y-62474819D02*
X226762857Y-62474819D01*
X226762857Y-62474819D02*
X226858095Y-62522438D01*
X226858095Y-62522438D02*
X226905714Y-62570057D01*
X226905714Y-62570057D02*
X226953333Y-62665295D01*
X226953333Y-62665295D02*
X226953333Y-62808152D01*
X226953333Y-62808152D02*
X226905714Y-62903390D01*
X226905714Y-62903390D02*
X226858095Y-62951009D01*
X226858095Y-62951009D02*
X226762857Y-62998628D01*
X226762857Y-62998628D02*
X226381905Y-62998628D01*
X227286667Y-62474819D02*
X227953333Y-62474819D01*
X227953333Y-62474819D02*
X227524762Y-63474819D01*
%TO.C,*%
%TO.C,R4*%
X239923333Y-84954419D02*
X239590000Y-84478228D01*
X239351905Y-84954419D02*
X239351905Y-83954419D01*
X239351905Y-83954419D02*
X239732857Y-83954419D01*
X239732857Y-83954419D02*
X239828095Y-84002038D01*
X239828095Y-84002038D02*
X239875714Y-84049657D01*
X239875714Y-84049657D02*
X239923333Y-84144895D01*
X239923333Y-84144895D02*
X239923333Y-84287752D01*
X239923333Y-84287752D02*
X239875714Y-84382990D01*
X239875714Y-84382990D02*
X239828095Y-84430609D01*
X239828095Y-84430609D02*
X239732857Y-84478228D01*
X239732857Y-84478228D02*
X239351905Y-84478228D01*
X240780476Y-84287752D02*
X240780476Y-84954419D01*
X240542381Y-83906800D02*
X240304286Y-84621085D01*
X240304286Y-84621085D02*
X240923333Y-84621085D01*
%TO.C,R24*%
X234113142Y-91050419D02*
X233779809Y-90574228D01*
X233541714Y-91050419D02*
X233541714Y-90050419D01*
X233541714Y-90050419D02*
X233922666Y-90050419D01*
X233922666Y-90050419D02*
X234017904Y-90098038D01*
X234017904Y-90098038D02*
X234065523Y-90145657D01*
X234065523Y-90145657D02*
X234113142Y-90240895D01*
X234113142Y-90240895D02*
X234113142Y-90383752D01*
X234113142Y-90383752D02*
X234065523Y-90478990D01*
X234065523Y-90478990D02*
X234017904Y-90526609D01*
X234017904Y-90526609D02*
X233922666Y-90574228D01*
X233922666Y-90574228D02*
X233541714Y-90574228D01*
X234494095Y-90145657D02*
X234541714Y-90098038D01*
X234541714Y-90098038D02*
X234636952Y-90050419D01*
X234636952Y-90050419D02*
X234875047Y-90050419D01*
X234875047Y-90050419D02*
X234970285Y-90098038D01*
X234970285Y-90098038D02*
X235017904Y-90145657D01*
X235017904Y-90145657D02*
X235065523Y-90240895D01*
X235065523Y-90240895D02*
X235065523Y-90336133D01*
X235065523Y-90336133D02*
X235017904Y-90478990D01*
X235017904Y-90478990D02*
X234446476Y-91050419D01*
X234446476Y-91050419D02*
X235065523Y-91050419D01*
X235922666Y-90383752D02*
X235922666Y-91050419D01*
X235684571Y-90002800D02*
X235446476Y-90717085D01*
X235446476Y-90717085D02*
X236065523Y-90717085D01*
%TO.C,R12*%
X164957142Y-70332619D02*
X164623809Y-69856428D01*
X164385714Y-70332619D02*
X164385714Y-69332619D01*
X164385714Y-69332619D02*
X164766666Y-69332619D01*
X164766666Y-69332619D02*
X164861904Y-69380238D01*
X164861904Y-69380238D02*
X164909523Y-69427857D01*
X164909523Y-69427857D02*
X164957142Y-69523095D01*
X164957142Y-69523095D02*
X164957142Y-69665952D01*
X164957142Y-69665952D02*
X164909523Y-69761190D01*
X164909523Y-69761190D02*
X164861904Y-69808809D01*
X164861904Y-69808809D02*
X164766666Y-69856428D01*
X164766666Y-69856428D02*
X164385714Y-69856428D01*
X165909523Y-70332619D02*
X165338095Y-70332619D01*
X165623809Y-70332619D02*
X165623809Y-69332619D01*
X165623809Y-69332619D02*
X165528571Y-69475476D01*
X165528571Y-69475476D02*
X165433333Y-69570714D01*
X165433333Y-69570714D02*
X165338095Y-69618333D01*
X166290476Y-69427857D02*
X166338095Y-69380238D01*
X166338095Y-69380238D02*
X166433333Y-69332619D01*
X166433333Y-69332619D02*
X166671428Y-69332619D01*
X166671428Y-69332619D02*
X166766666Y-69380238D01*
X166766666Y-69380238D02*
X166814285Y-69427857D01*
X166814285Y-69427857D02*
X166861904Y-69523095D01*
X166861904Y-69523095D02*
X166861904Y-69618333D01*
X166861904Y-69618333D02*
X166814285Y-69761190D01*
X166814285Y-69761190D02*
X166242857Y-70332619D01*
X166242857Y-70332619D02*
X166861904Y-70332619D01*
%TO.C,TP1*%
X240801119Y-105019904D02*
X240801119Y-104448476D01*
X241801119Y-104734190D02*
X240801119Y-104734190D01*
X241801119Y-104115142D02*
X240801119Y-104115142D01*
X240801119Y-104115142D02*
X240801119Y-103734190D01*
X240801119Y-103734190D02*
X240848738Y-103638952D01*
X240848738Y-103638952D02*
X240896357Y-103591333D01*
X240896357Y-103591333D02*
X240991595Y-103543714D01*
X240991595Y-103543714D02*
X241134452Y-103543714D01*
X241134452Y-103543714D02*
X241229690Y-103591333D01*
X241229690Y-103591333D02*
X241277309Y-103638952D01*
X241277309Y-103638952D02*
X241324928Y-103734190D01*
X241324928Y-103734190D02*
X241324928Y-104115142D01*
X241801119Y-102591333D02*
X241801119Y-103162761D01*
X241801119Y-102877047D02*
X240801119Y-102877047D01*
X240801119Y-102877047D02*
X240943976Y-102972285D01*
X240943976Y-102972285D02*
X241039214Y-103067523D01*
X241039214Y-103067523D02*
X241086833Y-103162761D01*
%TO.C,*%
%TO.C,U2*%
X211961095Y-67643719D02*
X211961095Y-68453242D01*
X211961095Y-68453242D02*
X212008714Y-68548480D01*
X212008714Y-68548480D02*
X212056333Y-68596100D01*
X212056333Y-68596100D02*
X212151571Y-68643719D01*
X212151571Y-68643719D02*
X212342047Y-68643719D01*
X212342047Y-68643719D02*
X212437285Y-68596100D01*
X212437285Y-68596100D02*
X212484904Y-68548480D01*
X212484904Y-68548480D02*
X212532523Y-68453242D01*
X212532523Y-68453242D02*
X212532523Y-67643719D01*
X212961095Y-67738957D02*
X213008714Y-67691338D01*
X213008714Y-67691338D02*
X213103952Y-67643719D01*
X213103952Y-67643719D02*
X213342047Y-67643719D01*
X213342047Y-67643719D02*
X213437285Y-67691338D01*
X213437285Y-67691338D02*
X213484904Y-67738957D01*
X213484904Y-67738957D02*
X213532523Y-67834195D01*
X213532523Y-67834195D02*
X213532523Y-67929433D01*
X213532523Y-67929433D02*
X213484904Y-68072290D01*
X213484904Y-68072290D02*
X212913476Y-68643719D01*
X212913476Y-68643719D02*
X213532523Y-68643719D01*
%TO.C,C2*%
X208935333Y-90722680D02*
X208887714Y-90770300D01*
X208887714Y-90770300D02*
X208744857Y-90817919D01*
X208744857Y-90817919D02*
X208649619Y-90817919D01*
X208649619Y-90817919D02*
X208506762Y-90770300D01*
X208506762Y-90770300D02*
X208411524Y-90675061D01*
X208411524Y-90675061D02*
X208363905Y-90579823D01*
X208363905Y-90579823D02*
X208316286Y-90389347D01*
X208316286Y-90389347D02*
X208316286Y-90246490D01*
X208316286Y-90246490D02*
X208363905Y-90056014D01*
X208363905Y-90056014D02*
X208411524Y-89960776D01*
X208411524Y-89960776D02*
X208506762Y-89865538D01*
X208506762Y-89865538D02*
X208649619Y-89817919D01*
X208649619Y-89817919D02*
X208744857Y-89817919D01*
X208744857Y-89817919D02*
X208887714Y-89865538D01*
X208887714Y-89865538D02*
X208935333Y-89913157D01*
X209316286Y-89913157D02*
X209363905Y-89865538D01*
X209363905Y-89865538D02*
X209459143Y-89817919D01*
X209459143Y-89817919D02*
X209697238Y-89817919D01*
X209697238Y-89817919D02*
X209792476Y-89865538D01*
X209792476Y-89865538D02*
X209840095Y-89913157D01*
X209840095Y-89913157D02*
X209887714Y-90008395D01*
X209887714Y-90008395D02*
X209887714Y-90103633D01*
X209887714Y-90103633D02*
X209840095Y-90246490D01*
X209840095Y-90246490D02*
X209268667Y-90817919D01*
X209268667Y-90817919D02*
X209887714Y-90817919D01*
%TO.C,R6*%
X226953333Y-59969619D02*
X226620000Y-59493428D01*
X226381905Y-59969619D02*
X226381905Y-58969619D01*
X226381905Y-58969619D02*
X226762857Y-58969619D01*
X226762857Y-58969619D02*
X226858095Y-59017238D01*
X226858095Y-59017238D02*
X226905714Y-59064857D01*
X226905714Y-59064857D02*
X226953333Y-59160095D01*
X226953333Y-59160095D02*
X226953333Y-59302952D01*
X226953333Y-59302952D02*
X226905714Y-59398190D01*
X226905714Y-59398190D02*
X226858095Y-59445809D01*
X226858095Y-59445809D02*
X226762857Y-59493428D01*
X226762857Y-59493428D02*
X226381905Y-59493428D01*
X227810476Y-58969619D02*
X227620000Y-58969619D01*
X227620000Y-58969619D02*
X227524762Y-59017238D01*
X227524762Y-59017238D02*
X227477143Y-59064857D01*
X227477143Y-59064857D02*
X227381905Y-59207714D01*
X227381905Y-59207714D02*
X227334286Y-59398190D01*
X227334286Y-59398190D02*
X227334286Y-59779142D01*
X227334286Y-59779142D02*
X227381905Y-59874380D01*
X227381905Y-59874380D02*
X227429524Y-59922000D01*
X227429524Y-59922000D02*
X227524762Y-59969619D01*
X227524762Y-59969619D02*
X227715238Y-59969619D01*
X227715238Y-59969619D02*
X227810476Y-59922000D01*
X227810476Y-59922000D02*
X227858095Y-59874380D01*
X227858095Y-59874380D02*
X227905714Y-59779142D01*
X227905714Y-59779142D02*
X227905714Y-59541047D01*
X227905714Y-59541047D02*
X227858095Y-59445809D01*
X227858095Y-59445809D02*
X227810476Y-59398190D01*
X227810476Y-59398190D02*
X227715238Y-59350571D01*
X227715238Y-59350571D02*
X227524762Y-59350571D01*
X227524762Y-59350571D02*
X227429524Y-59398190D01*
X227429524Y-59398190D02*
X227381905Y-59445809D01*
X227381905Y-59445809D02*
X227334286Y-59541047D01*
%TO.C,D2*%
X226686705Y-67475319D02*
X226686705Y-66475319D01*
X226686705Y-66475319D02*
X226924800Y-66475319D01*
X226924800Y-66475319D02*
X227067657Y-66522938D01*
X227067657Y-66522938D02*
X227162895Y-66618176D01*
X227162895Y-66618176D02*
X227210514Y-66713414D01*
X227210514Y-66713414D02*
X227258133Y-66903890D01*
X227258133Y-66903890D02*
X227258133Y-67046747D01*
X227258133Y-67046747D02*
X227210514Y-67237223D01*
X227210514Y-67237223D02*
X227162895Y-67332461D01*
X227162895Y-67332461D02*
X227067657Y-67427700D01*
X227067657Y-67427700D02*
X226924800Y-67475319D01*
X226924800Y-67475319D02*
X226686705Y-67475319D01*
X227639086Y-66570557D02*
X227686705Y-66522938D01*
X227686705Y-66522938D02*
X227781943Y-66475319D01*
X227781943Y-66475319D02*
X228020038Y-66475319D01*
X228020038Y-66475319D02*
X228115276Y-66522938D01*
X228115276Y-66522938D02*
X228162895Y-66570557D01*
X228162895Y-66570557D02*
X228210514Y-66665795D01*
X228210514Y-66665795D02*
X228210514Y-66761033D01*
X228210514Y-66761033D02*
X228162895Y-66903890D01*
X228162895Y-66903890D02*
X227591467Y-67475319D01*
X227591467Y-67475319D02*
X228210514Y-67475319D01*
%TO.C,D1*%
X226635905Y-70980519D02*
X226635905Y-69980519D01*
X226635905Y-69980519D02*
X226874000Y-69980519D01*
X226874000Y-69980519D02*
X227016857Y-70028138D01*
X227016857Y-70028138D02*
X227112095Y-70123376D01*
X227112095Y-70123376D02*
X227159714Y-70218614D01*
X227159714Y-70218614D02*
X227207333Y-70409090D01*
X227207333Y-70409090D02*
X227207333Y-70551947D01*
X227207333Y-70551947D02*
X227159714Y-70742423D01*
X227159714Y-70742423D02*
X227112095Y-70837661D01*
X227112095Y-70837661D02*
X227016857Y-70932900D01*
X227016857Y-70932900D02*
X226874000Y-70980519D01*
X226874000Y-70980519D02*
X226635905Y-70980519D01*
X228159714Y-70980519D02*
X227588286Y-70980519D01*
X227874000Y-70980519D02*
X227874000Y-69980519D01*
X227874000Y-69980519D02*
X227778762Y-70123376D01*
X227778762Y-70123376D02*
X227683524Y-70218614D01*
X227683524Y-70218614D02*
X227588286Y-70266233D01*
%TO.C,C14*%
X230303142Y-90955180D02*
X230255523Y-91002800D01*
X230255523Y-91002800D02*
X230112666Y-91050419D01*
X230112666Y-91050419D02*
X230017428Y-91050419D01*
X230017428Y-91050419D02*
X229874571Y-91002800D01*
X229874571Y-91002800D02*
X229779333Y-90907561D01*
X229779333Y-90907561D02*
X229731714Y-90812323D01*
X229731714Y-90812323D02*
X229684095Y-90621847D01*
X229684095Y-90621847D02*
X229684095Y-90478990D01*
X229684095Y-90478990D02*
X229731714Y-90288514D01*
X229731714Y-90288514D02*
X229779333Y-90193276D01*
X229779333Y-90193276D02*
X229874571Y-90098038D01*
X229874571Y-90098038D02*
X230017428Y-90050419D01*
X230017428Y-90050419D02*
X230112666Y-90050419D01*
X230112666Y-90050419D02*
X230255523Y-90098038D01*
X230255523Y-90098038D02*
X230303142Y-90145657D01*
X231255523Y-91050419D02*
X230684095Y-91050419D01*
X230969809Y-91050419D02*
X230969809Y-90050419D01*
X230969809Y-90050419D02*
X230874571Y-90193276D01*
X230874571Y-90193276D02*
X230779333Y-90288514D01*
X230779333Y-90288514D02*
X230684095Y-90336133D01*
X232112666Y-90383752D02*
X232112666Y-91050419D01*
X231874571Y-90002800D02*
X231636476Y-90717085D01*
X231636476Y-90717085D02*
X232255523Y-90717085D01*
%TO.C,*%
%TO.C,C3*%
X220924133Y-90896580D02*
X220876514Y-90944200D01*
X220876514Y-90944200D02*
X220733657Y-90991819D01*
X220733657Y-90991819D02*
X220638419Y-90991819D01*
X220638419Y-90991819D02*
X220495562Y-90944200D01*
X220495562Y-90944200D02*
X220400324Y-90848961D01*
X220400324Y-90848961D02*
X220352705Y-90753723D01*
X220352705Y-90753723D02*
X220305086Y-90563247D01*
X220305086Y-90563247D02*
X220305086Y-90420390D01*
X220305086Y-90420390D02*
X220352705Y-90229914D01*
X220352705Y-90229914D02*
X220400324Y-90134676D01*
X220400324Y-90134676D02*
X220495562Y-90039438D01*
X220495562Y-90039438D02*
X220638419Y-89991819D01*
X220638419Y-89991819D02*
X220733657Y-89991819D01*
X220733657Y-89991819D02*
X220876514Y-90039438D01*
X220876514Y-90039438D02*
X220924133Y-90087057D01*
X221257467Y-89991819D02*
X221876514Y-89991819D01*
X221876514Y-89991819D02*
X221543181Y-90372771D01*
X221543181Y-90372771D02*
X221686038Y-90372771D01*
X221686038Y-90372771D02*
X221781276Y-90420390D01*
X221781276Y-90420390D02*
X221828895Y-90468009D01*
X221828895Y-90468009D02*
X221876514Y-90563247D01*
X221876514Y-90563247D02*
X221876514Y-90801342D01*
X221876514Y-90801342D02*
X221828895Y-90896580D01*
X221828895Y-90896580D02*
X221781276Y-90944200D01*
X221781276Y-90944200D02*
X221686038Y-90991819D01*
X221686038Y-90991819D02*
X221400324Y-90991819D01*
X221400324Y-90991819D02*
X221305086Y-90944200D01*
X221305086Y-90944200D02*
X221257467Y-90896580D01*
%TO.C,R11*%
X164157142Y-71932619D02*
X163823809Y-71456428D01*
X163585714Y-71932619D02*
X163585714Y-70932619D01*
X163585714Y-70932619D02*
X163966666Y-70932619D01*
X163966666Y-70932619D02*
X164061904Y-70980238D01*
X164061904Y-70980238D02*
X164109523Y-71027857D01*
X164109523Y-71027857D02*
X164157142Y-71123095D01*
X164157142Y-71123095D02*
X164157142Y-71265952D01*
X164157142Y-71265952D02*
X164109523Y-71361190D01*
X164109523Y-71361190D02*
X164061904Y-71408809D01*
X164061904Y-71408809D02*
X163966666Y-71456428D01*
X163966666Y-71456428D02*
X163585714Y-71456428D01*
X165109523Y-71932619D02*
X164538095Y-71932619D01*
X164823809Y-71932619D02*
X164823809Y-70932619D01*
X164823809Y-70932619D02*
X164728571Y-71075476D01*
X164728571Y-71075476D02*
X164633333Y-71170714D01*
X164633333Y-71170714D02*
X164538095Y-71218333D01*
X166061904Y-71932619D02*
X165490476Y-71932619D01*
X165776190Y-71932619D02*
X165776190Y-70932619D01*
X165776190Y-70932619D02*
X165680952Y-71075476D01*
X165680952Y-71075476D02*
X165585714Y-71170714D01*
X165585714Y-71170714D02*
X165490476Y-71218333D01*
%TO.C,*%
%TO.C,U3*%
X163832619Y-78141904D02*
X164642142Y-78141904D01*
X164642142Y-78141904D02*
X164737380Y-78094285D01*
X164737380Y-78094285D02*
X164785000Y-78046666D01*
X164785000Y-78046666D02*
X164832619Y-77951428D01*
X164832619Y-77951428D02*
X164832619Y-77760952D01*
X164832619Y-77760952D02*
X164785000Y-77665714D01*
X164785000Y-77665714D02*
X164737380Y-77618095D01*
X164737380Y-77618095D02*
X164642142Y-77570476D01*
X164642142Y-77570476D02*
X163832619Y-77570476D01*
X163832619Y-77189523D02*
X163832619Y-76570476D01*
X163832619Y-76570476D02*
X164213571Y-76903809D01*
X164213571Y-76903809D02*
X164213571Y-76760952D01*
X164213571Y-76760952D02*
X164261190Y-76665714D01*
X164261190Y-76665714D02*
X164308809Y-76618095D01*
X164308809Y-76618095D02*
X164404047Y-76570476D01*
X164404047Y-76570476D02*
X164642142Y-76570476D01*
X164642142Y-76570476D02*
X164737380Y-76618095D01*
X164737380Y-76618095D02*
X164785000Y-76665714D01*
X164785000Y-76665714D02*
X164832619Y-76760952D01*
X164832619Y-76760952D02*
X164832619Y-77046666D01*
X164832619Y-77046666D02*
X164785000Y-77141904D01*
X164785000Y-77141904D02*
X164737380Y-77189523D01*
%TO.C,C4*%
X214385733Y-57033680D02*
X214338114Y-57081300D01*
X214338114Y-57081300D02*
X214195257Y-57128919D01*
X214195257Y-57128919D02*
X214100019Y-57128919D01*
X214100019Y-57128919D02*
X213957162Y-57081300D01*
X213957162Y-57081300D02*
X213861924Y-56986061D01*
X213861924Y-56986061D02*
X213814305Y-56890823D01*
X213814305Y-56890823D02*
X213766686Y-56700347D01*
X213766686Y-56700347D02*
X213766686Y-56557490D01*
X213766686Y-56557490D02*
X213814305Y-56367014D01*
X213814305Y-56367014D02*
X213861924Y-56271776D01*
X213861924Y-56271776D02*
X213957162Y-56176538D01*
X213957162Y-56176538D02*
X214100019Y-56128919D01*
X214100019Y-56128919D02*
X214195257Y-56128919D01*
X214195257Y-56128919D02*
X214338114Y-56176538D01*
X214338114Y-56176538D02*
X214385733Y-56224157D01*
X215242876Y-56462252D02*
X215242876Y-57128919D01*
X215004781Y-56081300D02*
X214766686Y-56795585D01*
X214766686Y-56795585D02*
X215385733Y-56795585D01*
D17*
%TO.C,IC1*%
X197420237Y-92437526D02*
X197420237Y-91167526D01*
X198750714Y-92316573D02*
X198690238Y-92377050D01*
X198690238Y-92377050D02*
X198508809Y-92437526D01*
X198508809Y-92437526D02*
X198387857Y-92437526D01*
X198387857Y-92437526D02*
X198206428Y-92377050D01*
X198206428Y-92377050D02*
X198085476Y-92256097D01*
X198085476Y-92256097D02*
X198024999Y-92135145D01*
X198024999Y-92135145D02*
X197964523Y-91893240D01*
X197964523Y-91893240D02*
X197964523Y-91711811D01*
X197964523Y-91711811D02*
X198024999Y-91469907D01*
X198024999Y-91469907D02*
X198085476Y-91348954D01*
X198085476Y-91348954D02*
X198206428Y-91228002D01*
X198206428Y-91228002D02*
X198387857Y-91167526D01*
X198387857Y-91167526D02*
X198508809Y-91167526D01*
X198508809Y-91167526D02*
X198690238Y-91228002D01*
X198690238Y-91228002D02*
X198750714Y-91288478D01*
X199960238Y-92437526D02*
X199234523Y-92437526D01*
X199597380Y-92437526D02*
X199597380Y-91167526D01*
X199597380Y-91167526D02*
X199476428Y-91348954D01*
X199476428Y-91348954D02*
X199355476Y-91469907D01*
X199355476Y-91469907D02*
X199234523Y-91530383D01*
D18*
%TO.C,C6*%
X224079252Y-74999400D02*
X223556748Y-74999400D01*
X224079252Y-73529400D02*
X223556748Y-73529400D01*
%TO.C,C5*%
X211615000Y-59338748D02*
X211615000Y-59861252D01*
X210145000Y-59338748D02*
X210145000Y-59861252D01*
%TO.C,R20*%
X232951000Y-84756736D02*
X232951000Y-85210864D01*
X231481000Y-84756736D02*
X231481000Y-85210864D01*
%TO.C,C7*%
X204303000Y-67298752D02*
X204303000Y-66776248D01*
X205773000Y-67298752D02*
X205773000Y-66776248D01*
%TO.C,R10*%
X165137258Y-81722500D02*
X164662742Y-81722500D01*
X165137258Y-80677500D02*
X164662742Y-80677500D01*
%TO.C,U1*%
X219557500Y-94637300D02*
X217797500Y-94637300D01*
X217797500Y-97707300D02*
X220227500Y-97707300D01*
%TO.C,J1*%
X169095000Y-88465000D02*
X169095000Y-90640000D01*
X164965000Y-88465000D02*
X169095000Y-88465000D01*
X162775000Y-89480000D02*
X162775000Y-90635000D01*
X164775000Y-90635000D02*
X164775000Y-97765000D01*
X162775000Y-90635000D02*
X164775000Y-90635000D01*
X169095000Y-90640000D02*
X169495000Y-90640000D01*
X164775000Y-97765000D02*
X162775000Y-97765000D01*
X162775000Y-97765000D02*
X162775000Y-98920000D01*
X169095000Y-99935000D02*
X169095000Y-97760000D01*
X164965000Y-99935000D02*
X169095000Y-99935000D01*
%TO.C,TP2*%
X245486500Y-97408000D02*
G75*
G03*
X245486500Y-97408000I-1750000J0D01*
G01*
%TO.C,L1*%
X211765436Y-94837300D02*
X212969564Y-94837300D01*
X211765436Y-97557300D02*
X212969564Y-97557300D01*
%TO.C,R2*%
X212631000Y-87042736D02*
X212631000Y-87496864D01*
X211161000Y-87042736D02*
X211161000Y-87496864D01*
%TO.C,R3*%
X195667000Y-67227064D02*
X195667000Y-66772936D01*
X197137000Y-67227064D02*
X197137000Y-66772936D01*
%TO.C,R9*%
X239301000Y-93138736D02*
X239301000Y-93592864D01*
X237831000Y-93138736D02*
X237831000Y-93592864D01*
%TO.C,R5*%
X199985000Y-67227064D02*
X199985000Y-66772936D01*
X201455000Y-67227064D02*
X201455000Y-66772936D01*
%TO.C,C1*%
X214463000Y-87547052D02*
X214463000Y-87024548D01*
X215933000Y-87547052D02*
X215933000Y-87024548D01*
D19*
%TO.C,U$9*%
X176800000Y-107100000D02*
G75*
G03*
X176800000Y-107100000I-2000000J0D01*
G01*
D18*
%TO.C,R1*%
X218727000Y-87064236D02*
X218727000Y-87518364D01*
X217257000Y-87064236D02*
X217257000Y-87518364D01*
%TO.C,TP3*%
X245486500Y-91058000D02*
G75*
G03*
X245486500Y-91058000I-1750000J0D01*
G01*
%TO.C,TP4*%
X241600000Y-86400000D02*
X241600000Y-82000000D01*
X246000000Y-86400000D02*
X241600000Y-86400000D01*
X241600000Y-82000000D02*
X246000000Y-82000000D01*
X246000000Y-82000000D02*
X246000000Y-86400000D01*
%TO.C,R8*%
X173572500Y-98712742D02*
X173572500Y-99187258D01*
X172527500Y-98712742D02*
X172527500Y-99187258D01*
%TO.C,C8*%
X167859420Y-72400000D02*
X168140580Y-72400000D01*
X167859420Y-73420000D02*
X168140580Y-73420000D01*
%TO.C,C18*%
X201255000Y-87547052D02*
X201255000Y-87024548D01*
X202725000Y-87547052D02*
X202725000Y-87024548D01*
%TO.C,L2*%
X204836000Y-87581052D02*
X204836000Y-87058548D01*
X206256000Y-87581052D02*
X206256000Y-87058548D01*
%TO.C,R7*%
X224045064Y-63925000D02*
X223590936Y-63925000D01*
X224045064Y-62455000D02*
X223590936Y-62455000D01*
%TO.C,R4*%
X238539000Y-84518736D02*
X238539000Y-84972864D01*
X237069000Y-84518736D02*
X237069000Y-84972864D01*
%TO.C,R24*%
X235491000Y-93138736D02*
X235491000Y-93592864D01*
X234021000Y-93138736D02*
X234021000Y-93592864D01*
%TO.C,R12*%
X165362742Y-70777500D02*
X165837258Y-70777500D01*
X165362742Y-71822500D02*
X165837258Y-71822500D01*
%TO.C,TP1*%
X245486500Y-103758000D02*
G75*
G03*
X245486500Y-103758000I-1750000J0D01*
G01*
%TO.C,U2*%
X212723000Y-75021000D02*
X216173000Y-75021000D01*
X212723000Y-75021000D02*
X210773000Y-75021000D01*
X212723000Y-69901000D02*
X214673000Y-69901000D01*
X212723000Y-69901000D02*
X210773000Y-69901000D01*
%TO.C,C2*%
X208113000Y-87568552D02*
X208113000Y-87046048D01*
X209583000Y-87568552D02*
X209583000Y-87046048D01*
%TO.C,R6*%
X224070464Y-59911800D02*
X223616336Y-59911800D01*
X224070464Y-58441800D02*
X223616336Y-58441800D01*
%TO.C,D2*%
X225966400Y-67847600D02*
X225966400Y-65847600D01*
X225966400Y-67847600D02*
X222066400Y-67847600D01*
X225966400Y-65847600D02*
X222066400Y-65847600D01*
%TO.C,D1*%
X225991800Y-71505200D02*
X225991800Y-69505200D01*
X225991800Y-71505200D02*
X222091800Y-71505200D01*
X225991800Y-69505200D02*
X222091800Y-69505200D01*
%TO.C,C14*%
X230211000Y-93664552D02*
X230211000Y-93142048D01*
X231681000Y-93664552D02*
X231681000Y-93142048D01*
%TO.C,C3*%
X222029000Y-87067548D02*
X222029000Y-87590052D01*
X220559000Y-87067548D02*
X220559000Y-87590052D01*
%TO.C,R11*%
X164562742Y-72377500D02*
X165037258Y-72377500D01*
X164562742Y-73422500D02*
X165037258Y-73422500D01*
D12*
%TO.C,U3*%
X165295000Y-79005000D02*
X165470000Y-79005000D01*
X165295000Y-79005000D02*
X165295000Y-75755000D01*
X165470000Y-79005000D02*
X165470000Y-80080000D01*
X168545000Y-79005000D02*
X168270000Y-79005000D01*
X168545000Y-79005000D02*
X168545000Y-75755000D01*
X165295000Y-75755000D02*
X165570000Y-75755000D01*
X168545000Y-75755000D02*
X168270000Y-75755000D01*
D18*
%TO.C,C4*%
X215135000Y-59338748D02*
X215135000Y-59861252D01*
X213665000Y-59338748D02*
X213665000Y-59861252D01*
%TD*%
%LPC*%
D12*
X193867618Y-130707380D02*
X193819999Y-130755000D01*
X193819999Y-130755000D02*
X193677142Y-130802619D01*
X193677142Y-130802619D02*
X193581904Y-130802619D01*
X193581904Y-130802619D02*
X193439047Y-130755000D01*
X193439047Y-130755000D02*
X193343809Y-130659761D01*
X193343809Y-130659761D02*
X193296190Y-130564523D01*
X193296190Y-130564523D02*
X193248571Y-130374047D01*
X193248571Y-130374047D02*
X193248571Y-130231190D01*
X193248571Y-130231190D02*
X193296190Y-130040714D01*
X193296190Y-130040714D02*
X193343809Y-129945476D01*
X193343809Y-129945476D02*
X193439047Y-129850238D01*
X193439047Y-129850238D02*
X193581904Y-129802619D01*
X193581904Y-129802619D02*
X193677142Y-129802619D01*
X193677142Y-129802619D02*
X193819999Y-129850238D01*
X193819999Y-129850238D02*
X193867618Y-129897857D01*
X194439047Y-130802619D02*
X194343809Y-130755000D01*
X194343809Y-130755000D02*
X194296190Y-130707380D01*
X194296190Y-130707380D02*
X194248571Y-130612142D01*
X194248571Y-130612142D02*
X194248571Y-130326428D01*
X194248571Y-130326428D02*
X194296190Y-130231190D01*
X194296190Y-130231190D02*
X194343809Y-130183571D01*
X194343809Y-130183571D02*
X194439047Y-130135952D01*
X194439047Y-130135952D02*
X194581904Y-130135952D01*
X194581904Y-130135952D02*
X194677142Y-130183571D01*
X194677142Y-130183571D02*
X194724761Y-130231190D01*
X194724761Y-130231190D02*
X194772380Y-130326428D01*
X194772380Y-130326428D02*
X194772380Y-130612142D01*
X194772380Y-130612142D02*
X194724761Y-130707380D01*
X194724761Y-130707380D02*
X194677142Y-130755000D01*
X194677142Y-130755000D02*
X194581904Y-130802619D01*
X194581904Y-130802619D02*
X194439047Y-130802619D01*
X195153333Y-130755000D02*
X195248571Y-130802619D01*
X195248571Y-130802619D02*
X195439047Y-130802619D01*
X195439047Y-130802619D02*
X195534285Y-130755000D01*
X195534285Y-130755000D02*
X195581904Y-130659761D01*
X195581904Y-130659761D02*
X195581904Y-130612142D01*
X195581904Y-130612142D02*
X195534285Y-130516904D01*
X195534285Y-130516904D02*
X195439047Y-130469285D01*
X195439047Y-130469285D02*
X195296190Y-130469285D01*
X195296190Y-130469285D02*
X195200952Y-130421666D01*
X195200952Y-130421666D02*
X195153333Y-130326428D01*
X195153333Y-130326428D02*
X195153333Y-130278809D01*
X195153333Y-130278809D02*
X195200952Y-130183571D01*
X195200952Y-130183571D02*
X195296190Y-130135952D01*
X195296190Y-130135952D02*
X195439047Y-130135952D01*
X195439047Y-130135952D02*
X195534285Y-130183571D01*
X196010476Y-130802619D02*
X196010476Y-130135952D01*
X196010476Y-130231190D02*
X196058095Y-130183571D01*
X196058095Y-130183571D02*
X196153333Y-130135952D01*
X196153333Y-130135952D02*
X196296190Y-130135952D01*
X196296190Y-130135952D02*
X196391428Y-130183571D01*
X196391428Y-130183571D02*
X196439047Y-130278809D01*
X196439047Y-130278809D02*
X196439047Y-130802619D01*
X196439047Y-130278809D02*
X196486666Y-130183571D01*
X196486666Y-130183571D02*
X196581904Y-130135952D01*
X196581904Y-130135952D02*
X196724761Y-130135952D01*
X196724761Y-130135952D02*
X196820000Y-130183571D01*
X196820000Y-130183571D02*
X196867619Y-130278809D01*
X196867619Y-130278809D02*
X196867619Y-130802619D01*
X197343809Y-130802619D02*
X197343809Y-130135952D01*
X197343809Y-129802619D02*
X197296190Y-129850238D01*
X197296190Y-129850238D02*
X197343809Y-129897857D01*
X197343809Y-129897857D02*
X197391428Y-129850238D01*
X197391428Y-129850238D02*
X197343809Y-129802619D01*
X197343809Y-129802619D02*
X197343809Y-129897857D01*
X198248570Y-130755000D02*
X198153332Y-130802619D01*
X198153332Y-130802619D02*
X197962856Y-130802619D01*
X197962856Y-130802619D02*
X197867618Y-130755000D01*
X197867618Y-130755000D02*
X197819999Y-130707380D01*
X197819999Y-130707380D02*
X197772380Y-130612142D01*
X197772380Y-130612142D02*
X197772380Y-130326428D01*
X197772380Y-130326428D02*
X197819999Y-130231190D01*
X197819999Y-130231190D02*
X197867618Y-130183571D01*
X197867618Y-130183571D02*
X197962856Y-130135952D01*
X197962856Y-130135952D02*
X198153332Y-130135952D01*
X198153332Y-130135952D02*
X198248570Y-130183571D01*
X199343809Y-129802619D02*
X199581904Y-130802619D01*
X199581904Y-130802619D02*
X199772380Y-130088333D01*
X199772380Y-130088333D02*
X199962856Y-130802619D01*
X199962856Y-130802619D02*
X200200952Y-129802619D01*
X201010475Y-130802619D02*
X201010475Y-130278809D01*
X201010475Y-130278809D02*
X200962856Y-130183571D01*
X200962856Y-130183571D02*
X200867618Y-130135952D01*
X200867618Y-130135952D02*
X200677142Y-130135952D01*
X200677142Y-130135952D02*
X200581904Y-130183571D01*
X201010475Y-130755000D02*
X200915237Y-130802619D01*
X200915237Y-130802619D02*
X200677142Y-130802619D01*
X200677142Y-130802619D02*
X200581904Y-130755000D01*
X200581904Y-130755000D02*
X200534285Y-130659761D01*
X200534285Y-130659761D02*
X200534285Y-130564523D01*
X200534285Y-130564523D02*
X200581904Y-130469285D01*
X200581904Y-130469285D02*
X200677142Y-130421666D01*
X200677142Y-130421666D02*
X200915237Y-130421666D01*
X200915237Y-130421666D02*
X201010475Y-130374047D01*
X201343809Y-130135952D02*
X201724761Y-130135952D01*
X201486666Y-129802619D02*
X201486666Y-130659761D01*
X201486666Y-130659761D02*
X201534285Y-130755000D01*
X201534285Y-130755000D02*
X201629523Y-130802619D01*
X201629523Y-130802619D02*
X201724761Y-130802619D01*
X202486666Y-130755000D02*
X202391428Y-130802619D01*
X202391428Y-130802619D02*
X202200952Y-130802619D01*
X202200952Y-130802619D02*
X202105714Y-130755000D01*
X202105714Y-130755000D02*
X202058095Y-130707380D01*
X202058095Y-130707380D02*
X202010476Y-130612142D01*
X202010476Y-130612142D02*
X202010476Y-130326428D01*
X202010476Y-130326428D02*
X202058095Y-130231190D01*
X202058095Y-130231190D02*
X202105714Y-130183571D01*
X202105714Y-130183571D02*
X202200952Y-130135952D01*
X202200952Y-130135952D02*
X202391428Y-130135952D01*
X202391428Y-130135952D02*
X202486666Y-130183571D01*
X202915238Y-130802619D02*
X202915238Y-129802619D01*
X203343809Y-130802619D02*
X203343809Y-130278809D01*
X203343809Y-130278809D02*
X203296190Y-130183571D01*
X203296190Y-130183571D02*
X203200952Y-130135952D01*
X203200952Y-130135952D02*
X203058095Y-130135952D01*
X203058095Y-130135952D02*
X202962857Y-130183571D01*
X202962857Y-130183571D02*
X202915238Y-130231190D01*
X205153333Y-130802619D02*
X204820000Y-130326428D01*
X204581905Y-130802619D02*
X204581905Y-129802619D01*
X204581905Y-129802619D02*
X204962857Y-129802619D01*
X204962857Y-129802619D02*
X205058095Y-129850238D01*
X205058095Y-129850238D02*
X205105714Y-129897857D01*
X205105714Y-129897857D02*
X205153333Y-129993095D01*
X205153333Y-129993095D02*
X205153333Y-130135952D01*
X205153333Y-130135952D02*
X205105714Y-130231190D01*
X205105714Y-130231190D02*
X205058095Y-130278809D01*
X205058095Y-130278809D02*
X204962857Y-130326428D01*
X204962857Y-130326428D02*
X204581905Y-130326428D01*
X205962857Y-130755000D02*
X205867619Y-130802619D01*
X205867619Y-130802619D02*
X205677143Y-130802619D01*
X205677143Y-130802619D02*
X205581905Y-130755000D01*
X205581905Y-130755000D02*
X205534286Y-130659761D01*
X205534286Y-130659761D02*
X205534286Y-130278809D01*
X205534286Y-130278809D02*
X205581905Y-130183571D01*
X205581905Y-130183571D02*
X205677143Y-130135952D01*
X205677143Y-130135952D02*
X205867619Y-130135952D01*
X205867619Y-130135952D02*
X205962857Y-130183571D01*
X205962857Y-130183571D02*
X206010476Y-130278809D01*
X206010476Y-130278809D02*
X206010476Y-130374047D01*
X206010476Y-130374047D02*
X205534286Y-130469285D01*
X206439048Y-130802619D02*
X206439048Y-130135952D01*
X206439048Y-130231190D02*
X206486667Y-130183571D01*
X206486667Y-130183571D02*
X206581905Y-130135952D01*
X206581905Y-130135952D02*
X206724762Y-130135952D01*
X206724762Y-130135952D02*
X206820000Y-130183571D01*
X206820000Y-130183571D02*
X206867619Y-130278809D01*
X206867619Y-130278809D02*
X206867619Y-130802619D01*
X206867619Y-130278809D02*
X206915238Y-130183571D01*
X206915238Y-130183571D02*
X207010476Y-130135952D01*
X207010476Y-130135952D02*
X207153333Y-130135952D01*
X207153333Y-130135952D02*
X207248572Y-130183571D01*
X207248572Y-130183571D02*
X207296191Y-130278809D01*
X207296191Y-130278809D02*
X207296191Y-130802619D01*
X207772381Y-130802619D02*
X207772381Y-130135952D01*
X207772381Y-129802619D02*
X207724762Y-129850238D01*
X207724762Y-129850238D02*
X207772381Y-129897857D01*
X207772381Y-129897857D02*
X207820000Y-129850238D01*
X207820000Y-129850238D02*
X207772381Y-129802619D01*
X207772381Y-129802619D02*
X207772381Y-129897857D01*
X208153333Y-130802619D02*
X208677142Y-130135952D01*
X208153333Y-130135952D02*
X208677142Y-130802619D01*
X209677143Y-129802619D02*
X210010476Y-130802619D01*
X210010476Y-130802619D02*
X210343809Y-129802619D01*
X211200952Y-130802619D02*
X210629524Y-130802619D01*
X210915238Y-130802619D02*
X210915238Y-129802619D01*
X210915238Y-129802619D02*
X210820000Y-129945476D01*
X210820000Y-129945476D02*
X210724762Y-130040714D01*
X210724762Y-130040714D02*
X210629524Y-130088333D01*
X211629524Y-130707380D02*
X211677143Y-130755000D01*
X211677143Y-130755000D02*
X211629524Y-130802619D01*
X211629524Y-130802619D02*
X211581905Y-130755000D01*
X211581905Y-130755000D02*
X211629524Y-130707380D01*
X211629524Y-130707380D02*
X211629524Y-130802619D01*
X212296190Y-129802619D02*
X212391428Y-129802619D01*
X212391428Y-129802619D02*
X212486666Y-129850238D01*
X212486666Y-129850238D02*
X212534285Y-129897857D01*
X212534285Y-129897857D02*
X212581904Y-129993095D01*
X212581904Y-129993095D02*
X212629523Y-130183571D01*
X212629523Y-130183571D02*
X212629523Y-130421666D01*
X212629523Y-130421666D02*
X212581904Y-130612142D01*
X212581904Y-130612142D02*
X212534285Y-130707380D01*
X212534285Y-130707380D02*
X212486666Y-130755000D01*
X212486666Y-130755000D02*
X212391428Y-130802619D01*
X212391428Y-130802619D02*
X212296190Y-130802619D01*
X212296190Y-130802619D02*
X212200952Y-130755000D01*
X212200952Y-130755000D02*
X212153333Y-130707380D01*
X212153333Y-130707380D02*
X212105714Y-130612142D01*
X212105714Y-130612142D02*
X212058095Y-130421666D01*
X212058095Y-130421666D02*
X212058095Y-130183571D01*
X212058095Y-130183571D02*
X212105714Y-129993095D01*
X212105714Y-129993095D02*
X212153333Y-129897857D01*
X212153333Y-129897857D02*
X212200952Y-129850238D01*
X212200952Y-129850238D02*
X212296190Y-129802619D01*
X194486666Y-132422619D02*
X194486666Y-131422619D01*
X194486666Y-131422619D02*
X194819999Y-132136904D01*
X194819999Y-132136904D02*
X195153332Y-131422619D01*
X195153332Y-131422619D02*
X195153332Y-132422619D01*
X196058094Y-132422619D02*
X196058094Y-131898809D01*
X196058094Y-131898809D02*
X196010475Y-131803571D01*
X196010475Y-131803571D02*
X195915237Y-131755952D01*
X195915237Y-131755952D02*
X195724761Y-131755952D01*
X195724761Y-131755952D02*
X195629523Y-131803571D01*
X196058094Y-132375000D02*
X195962856Y-132422619D01*
X195962856Y-132422619D02*
X195724761Y-132422619D01*
X195724761Y-132422619D02*
X195629523Y-132375000D01*
X195629523Y-132375000D02*
X195581904Y-132279761D01*
X195581904Y-132279761D02*
X195581904Y-132184523D01*
X195581904Y-132184523D02*
X195629523Y-132089285D01*
X195629523Y-132089285D02*
X195724761Y-132041666D01*
X195724761Y-132041666D02*
X195962856Y-132041666D01*
X195962856Y-132041666D02*
X196058094Y-131994047D01*
X196962856Y-132422619D02*
X196962856Y-131422619D01*
X196962856Y-132375000D02*
X196867618Y-132422619D01*
X196867618Y-132422619D02*
X196677142Y-132422619D01*
X196677142Y-132422619D02*
X196581904Y-132375000D01*
X196581904Y-132375000D02*
X196534285Y-132327380D01*
X196534285Y-132327380D02*
X196486666Y-132232142D01*
X196486666Y-132232142D02*
X196486666Y-131946428D01*
X196486666Y-131946428D02*
X196534285Y-131851190D01*
X196534285Y-131851190D02*
X196581904Y-131803571D01*
X196581904Y-131803571D02*
X196677142Y-131755952D01*
X196677142Y-131755952D02*
X196867618Y-131755952D01*
X196867618Y-131755952D02*
X196962856Y-131803571D01*
X197819999Y-132375000D02*
X197724761Y-132422619D01*
X197724761Y-132422619D02*
X197534285Y-132422619D01*
X197534285Y-132422619D02*
X197439047Y-132375000D01*
X197439047Y-132375000D02*
X197391428Y-132279761D01*
X197391428Y-132279761D02*
X197391428Y-131898809D01*
X197391428Y-131898809D02*
X197439047Y-131803571D01*
X197439047Y-131803571D02*
X197534285Y-131755952D01*
X197534285Y-131755952D02*
X197724761Y-131755952D01*
X197724761Y-131755952D02*
X197819999Y-131803571D01*
X197819999Y-131803571D02*
X197867618Y-131898809D01*
X197867618Y-131898809D02*
X197867618Y-131994047D01*
X197867618Y-131994047D02*
X197391428Y-132089285D01*
X199391428Y-131898809D02*
X199534285Y-131946428D01*
X199534285Y-131946428D02*
X199581904Y-131994047D01*
X199581904Y-131994047D02*
X199629523Y-132089285D01*
X199629523Y-132089285D02*
X199629523Y-132232142D01*
X199629523Y-132232142D02*
X199581904Y-132327380D01*
X199581904Y-132327380D02*
X199534285Y-132375000D01*
X199534285Y-132375000D02*
X199439047Y-132422619D01*
X199439047Y-132422619D02*
X199058095Y-132422619D01*
X199058095Y-132422619D02*
X199058095Y-131422619D01*
X199058095Y-131422619D02*
X199391428Y-131422619D01*
X199391428Y-131422619D02*
X199486666Y-131470238D01*
X199486666Y-131470238D02*
X199534285Y-131517857D01*
X199534285Y-131517857D02*
X199581904Y-131613095D01*
X199581904Y-131613095D02*
X199581904Y-131708333D01*
X199581904Y-131708333D02*
X199534285Y-131803571D01*
X199534285Y-131803571D02*
X199486666Y-131851190D01*
X199486666Y-131851190D02*
X199391428Y-131898809D01*
X199391428Y-131898809D02*
X199058095Y-131898809D01*
X199962857Y-131755952D02*
X200200952Y-132422619D01*
X200439047Y-131755952D02*
X200200952Y-132422619D01*
X200200952Y-132422619D02*
X200105714Y-132660714D01*
X200105714Y-132660714D02*
X200058095Y-132708333D01*
X200058095Y-132708333D02*
X199962857Y-132755952D01*
X200820000Y-132327380D02*
X200867619Y-132375000D01*
X200867619Y-132375000D02*
X200820000Y-132422619D01*
X200820000Y-132422619D02*
X200772381Y-132375000D01*
X200772381Y-132375000D02*
X200820000Y-132327380D01*
X200820000Y-132327380D02*
X200820000Y-132422619D01*
X200820000Y-131803571D02*
X200867619Y-131851190D01*
X200867619Y-131851190D02*
X200820000Y-131898809D01*
X200820000Y-131898809D02*
X200772381Y-131851190D01*
X200772381Y-131851190D02*
X200820000Y-131803571D01*
X200820000Y-131803571D02*
X200820000Y-131898809D01*
X202058095Y-132422619D02*
X202058095Y-131422619D01*
X202058095Y-131422619D02*
X202391428Y-132136904D01*
X202391428Y-132136904D02*
X202724761Y-131422619D01*
X202724761Y-131422619D02*
X202724761Y-132422619D01*
X203200952Y-132422619D02*
X203200952Y-131755952D01*
X203200952Y-131422619D02*
X203153333Y-131470238D01*
X203153333Y-131470238D02*
X203200952Y-131517857D01*
X203200952Y-131517857D02*
X203248571Y-131470238D01*
X203248571Y-131470238D02*
X203200952Y-131422619D01*
X203200952Y-131422619D02*
X203200952Y-131517857D01*
X204105713Y-132375000D02*
X204010475Y-132422619D01*
X204010475Y-132422619D02*
X203819999Y-132422619D01*
X203819999Y-132422619D02*
X203724761Y-132375000D01*
X203724761Y-132375000D02*
X203677142Y-132327380D01*
X203677142Y-132327380D02*
X203629523Y-132232142D01*
X203629523Y-132232142D02*
X203629523Y-131946428D01*
X203629523Y-131946428D02*
X203677142Y-131851190D01*
X203677142Y-131851190D02*
X203724761Y-131803571D01*
X203724761Y-131803571D02*
X203819999Y-131755952D01*
X203819999Y-131755952D02*
X204010475Y-131755952D01*
X204010475Y-131755952D02*
X204105713Y-131803571D01*
X204534285Y-132422619D02*
X204534285Y-131422619D01*
X204962856Y-132422619D02*
X204962856Y-131898809D01*
X204962856Y-131898809D02*
X204915237Y-131803571D01*
X204915237Y-131803571D02*
X204819999Y-131755952D01*
X204819999Y-131755952D02*
X204677142Y-131755952D01*
X204677142Y-131755952D02*
X204581904Y-131803571D01*
X204581904Y-131803571D02*
X204534285Y-131851190D01*
X205867618Y-132422619D02*
X205867618Y-131898809D01*
X205867618Y-131898809D02*
X205819999Y-131803571D01*
X205819999Y-131803571D02*
X205724761Y-131755952D01*
X205724761Y-131755952D02*
X205534285Y-131755952D01*
X205534285Y-131755952D02*
X205439047Y-131803571D01*
X205867618Y-132375000D02*
X205772380Y-132422619D01*
X205772380Y-132422619D02*
X205534285Y-132422619D01*
X205534285Y-132422619D02*
X205439047Y-132375000D01*
X205439047Y-132375000D02*
X205391428Y-132279761D01*
X205391428Y-132279761D02*
X205391428Y-132184523D01*
X205391428Y-132184523D02*
X205439047Y-132089285D01*
X205439047Y-132089285D02*
X205534285Y-132041666D01*
X205534285Y-132041666D02*
X205772380Y-132041666D01*
X205772380Y-132041666D02*
X205867618Y-131994047D01*
X206724761Y-132375000D02*
X206629523Y-132422619D01*
X206629523Y-132422619D02*
X206439047Y-132422619D01*
X206439047Y-132422619D02*
X206343809Y-132375000D01*
X206343809Y-132375000D02*
X206296190Y-132279761D01*
X206296190Y-132279761D02*
X206296190Y-131898809D01*
X206296190Y-131898809D02*
X206343809Y-131803571D01*
X206343809Y-131803571D02*
X206439047Y-131755952D01*
X206439047Y-131755952D02*
X206629523Y-131755952D01*
X206629523Y-131755952D02*
X206724761Y-131803571D01*
X206724761Y-131803571D02*
X206772380Y-131898809D01*
X206772380Y-131898809D02*
X206772380Y-131994047D01*
X206772380Y-131994047D02*
X206296190Y-132089285D01*
X207343809Y-132422619D02*
X207248571Y-132375000D01*
X207248571Y-132375000D02*
X207200952Y-132279761D01*
X207200952Y-132279761D02*
X207200952Y-131422619D01*
X208486667Y-132422619D02*
X208486667Y-131422619D01*
X208486667Y-131422619D02*
X208867619Y-131422619D01*
X208867619Y-131422619D02*
X208962857Y-131470238D01*
X208962857Y-131470238D02*
X209010476Y-131517857D01*
X209010476Y-131517857D02*
X209058095Y-131613095D01*
X209058095Y-131613095D02*
X209058095Y-131755952D01*
X209058095Y-131755952D02*
X209010476Y-131851190D01*
X209010476Y-131851190D02*
X208962857Y-131898809D01*
X208962857Y-131898809D02*
X208867619Y-131946428D01*
X208867619Y-131946428D02*
X208486667Y-131946428D01*
X209486667Y-132422619D02*
X209486667Y-131422619D01*
X209915238Y-132422619D02*
X209915238Y-131898809D01*
X209915238Y-131898809D02*
X209867619Y-131803571D01*
X209867619Y-131803571D02*
X209772381Y-131755952D01*
X209772381Y-131755952D02*
X209629524Y-131755952D01*
X209629524Y-131755952D02*
X209534286Y-131803571D01*
X209534286Y-131803571D02*
X209486667Y-131851190D01*
X210820000Y-132422619D02*
X210820000Y-131898809D01*
X210820000Y-131898809D02*
X210772381Y-131803571D01*
X210772381Y-131803571D02*
X210677143Y-131755952D01*
X210677143Y-131755952D02*
X210486667Y-131755952D01*
X210486667Y-131755952D02*
X210391429Y-131803571D01*
X210820000Y-132375000D02*
X210724762Y-132422619D01*
X210724762Y-132422619D02*
X210486667Y-132422619D01*
X210486667Y-132422619D02*
X210391429Y-132375000D01*
X210391429Y-132375000D02*
X210343810Y-132279761D01*
X210343810Y-132279761D02*
X210343810Y-132184523D01*
X210343810Y-132184523D02*
X210391429Y-132089285D01*
X210391429Y-132089285D02*
X210486667Y-132041666D01*
X210486667Y-132041666D02*
X210724762Y-132041666D01*
X210724762Y-132041666D02*
X210820000Y-131994047D01*
X211296191Y-132422619D02*
X211296191Y-131755952D01*
X211296191Y-131851190D02*
X211343810Y-131803571D01*
X211343810Y-131803571D02*
X211439048Y-131755952D01*
X211439048Y-131755952D02*
X211581905Y-131755952D01*
X211581905Y-131755952D02*
X211677143Y-131803571D01*
X211677143Y-131803571D02*
X211724762Y-131898809D01*
X211724762Y-131898809D02*
X211724762Y-132422619D01*
X211724762Y-131898809D02*
X211772381Y-131803571D01*
X211772381Y-131803571D02*
X211867619Y-131755952D01*
X211867619Y-131755952D02*
X212010476Y-131755952D01*
X212010476Y-131755952D02*
X212105715Y-131803571D01*
X212105715Y-131803571D02*
X212153334Y-131898809D01*
X212153334Y-131898809D02*
X212153334Y-132422619D01*
X179891425Y-133947380D02*
X179843806Y-133995000D01*
X179843806Y-133995000D02*
X179700949Y-134042619D01*
X179700949Y-134042619D02*
X179605711Y-134042619D01*
X179605711Y-134042619D02*
X179462854Y-133995000D01*
X179462854Y-133995000D02*
X179367616Y-133899761D01*
X179367616Y-133899761D02*
X179319997Y-133804523D01*
X179319997Y-133804523D02*
X179272378Y-133614047D01*
X179272378Y-133614047D02*
X179272378Y-133471190D01*
X179272378Y-133471190D02*
X179319997Y-133280714D01*
X179319997Y-133280714D02*
X179367616Y-133185476D01*
X179367616Y-133185476D02*
X179462854Y-133090238D01*
X179462854Y-133090238D02*
X179605711Y-133042619D01*
X179605711Y-133042619D02*
X179700949Y-133042619D01*
X179700949Y-133042619D02*
X179843806Y-133090238D01*
X179843806Y-133090238D02*
X179891425Y-133137857D01*
X180462854Y-134042619D02*
X180367616Y-133995000D01*
X180367616Y-133995000D02*
X180319997Y-133947380D01*
X180319997Y-133947380D02*
X180272378Y-133852142D01*
X180272378Y-133852142D02*
X180272378Y-133566428D01*
X180272378Y-133566428D02*
X180319997Y-133471190D01*
X180319997Y-133471190D02*
X180367616Y-133423571D01*
X180367616Y-133423571D02*
X180462854Y-133375952D01*
X180462854Y-133375952D02*
X180605711Y-133375952D01*
X180605711Y-133375952D02*
X180700949Y-133423571D01*
X180700949Y-133423571D02*
X180748568Y-133471190D01*
X180748568Y-133471190D02*
X180796187Y-133566428D01*
X180796187Y-133566428D02*
X180796187Y-133852142D01*
X180796187Y-133852142D02*
X180748568Y-133947380D01*
X180748568Y-133947380D02*
X180700949Y-133995000D01*
X180700949Y-133995000D02*
X180605711Y-134042619D01*
X180605711Y-134042619D02*
X180462854Y-134042619D01*
X181177140Y-133995000D02*
X181272378Y-134042619D01*
X181272378Y-134042619D02*
X181462854Y-134042619D01*
X181462854Y-134042619D02*
X181558092Y-133995000D01*
X181558092Y-133995000D02*
X181605711Y-133899761D01*
X181605711Y-133899761D02*
X181605711Y-133852142D01*
X181605711Y-133852142D02*
X181558092Y-133756904D01*
X181558092Y-133756904D02*
X181462854Y-133709285D01*
X181462854Y-133709285D02*
X181319997Y-133709285D01*
X181319997Y-133709285D02*
X181224759Y-133661666D01*
X181224759Y-133661666D02*
X181177140Y-133566428D01*
X181177140Y-133566428D02*
X181177140Y-133518809D01*
X181177140Y-133518809D02*
X181224759Y-133423571D01*
X181224759Y-133423571D02*
X181319997Y-133375952D01*
X181319997Y-133375952D02*
X181462854Y-133375952D01*
X181462854Y-133375952D02*
X181558092Y-133423571D01*
X182034283Y-134042619D02*
X182034283Y-133375952D01*
X182034283Y-133471190D02*
X182081902Y-133423571D01*
X182081902Y-133423571D02*
X182177140Y-133375952D01*
X182177140Y-133375952D02*
X182319997Y-133375952D01*
X182319997Y-133375952D02*
X182415235Y-133423571D01*
X182415235Y-133423571D02*
X182462854Y-133518809D01*
X182462854Y-133518809D02*
X182462854Y-134042619D01*
X182462854Y-133518809D02*
X182510473Y-133423571D01*
X182510473Y-133423571D02*
X182605711Y-133375952D01*
X182605711Y-133375952D02*
X182748568Y-133375952D01*
X182748568Y-133375952D02*
X182843807Y-133423571D01*
X182843807Y-133423571D02*
X182891426Y-133518809D01*
X182891426Y-133518809D02*
X182891426Y-134042619D01*
X183367616Y-134042619D02*
X183367616Y-133375952D01*
X183367616Y-133042619D02*
X183319997Y-133090238D01*
X183319997Y-133090238D02*
X183367616Y-133137857D01*
X183367616Y-133137857D02*
X183415235Y-133090238D01*
X183415235Y-133090238D02*
X183367616Y-133042619D01*
X183367616Y-133042619D02*
X183367616Y-133137857D01*
X184272377Y-133995000D02*
X184177139Y-134042619D01*
X184177139Y-134042619D02*
X183986663Y-134042619D01*
X183986663Y-134042619D02*
X183891425Y-133995000D01*
X183891425Y-133995000D02*
X183843806Y-133947380D01*
X183843806Y-133947380D02*
X183796187Y-133852142D01*
X183796187Y-133852142D02*
X183796187Y-133566428D01*
X183796187Y-133566428D02*
X183843806Y-133471190D01*
X183843806Y-133471190D02*
X183891425Y-133423571D01*
X183891425Y-133423571D02*
X183986663Y-133375952D01*
X183986663Y-133375952D02*
X184177139Y-133375952D01*
X184177139Y-133375952D02*
X184272377Y-133423571D01*
X185367616Y-133042619D02*
X185605711Y-134042619D01*
X185605711Y-134042619D02*
X185796187Y-133328333D01*
X185796187Y-133328333D02*
X185986663Y-134042619D01*
X185986663Y-134042619D02*
X186224759Y-133042619D01*
X187034282Y-134042619D02*
X187034282Y-133518809D01*
X187034282Y-133518809D02*
X186986663Y-133423571D01*
X186986663Y-133423571D02*
X186891425Y-133375952D01*
X186891425Y-133375952D02*
X186700949Y-133375952D01*
X186700949Y-133375952D02*
X186605711Y-133423571D01*
X187034282Y-133995000D02*
X186939044Y-134042619D01*
X186939044Y-134042619D02*
X186700949Y-134042619D01*
X186700949Y-134042619D02*
X186605711Y-133995000D01*
X186605711Y-133995000D02*
X186558092Y-133899761D01*
X186558092Y-133899761D02*
X186558092Y-133804523D01*
X186558092Y-133804523D02*
X186605711Y-133709285D01*
X186605711Y-133709285D02*
X186700949Y-133661666D01*
X186700949Y-133661666D02*
X186939044Y-133661666D01*
X186939044Y-133661666D02*
X187034282Y-133614047D01*
X187367616Y-133375952D02*
X187748568Y-133375952D01*
X187510473Y-133042619D02*
X187510473Y-133899761D01*
X187510473Y-133899761D02*
X187558092Y-133995000D01*
X187558092Y-133995000D02*
X187653330Y-134042619D01*
X187653330Y-134042619D02*
X187748568Y-134042619D01*
X188510473Y-133995000D02*
X188415235Y-134042619D01*
X188415235Y-134042619D02*
X188224759Y-134042619D01*
X188224759Y-134042619D02*
X188129521Y-133995000D01*
X188129521Y-133995000D02*
X188081902Y-133947380D01*
X188081902Y-133947380D02*
X188034283Y-133852142D01*
X188034283Y-133852142D02*
X188034283Y-133566428D01*
X188034283Y-133566428D02*
X188081902Y-133471190D01*
X188081902Y-133471190D02*
X188129521Y-133423571D01*
X188129521Y-133423571D02*
X188224759Y-133375952D01*
X188224759Y-133375952D02*
X188415235Y-133375952D01*
X188415235Y-133375952D02*
X188510473Y-133423571D01*
X188939045Y-134042619D02*
X188939045Y-133042619D01*
X189367616Y-134042619D02*
X189367616Y-133518809D01*
X189367616Y-133518809D02*
X189319997Y-133423571D01*
X189319997Y-133423571D02*
X189224759Y-133375952D01*
X189224759Y-133375952D02*
X189081902Y-133375952D01*
X189081902Y-133375952D02*
X188986664Y-133423571D01*
X188986664Y-133423571D02*
X188939045Y-133471190D01*
X190462855Y-133042619D02*
X191034283Y-133042619D01*
X190748569Y-134042619D02*
X190748569Y-133042619D01*
X191748569Y-133995000D02*
X191653331Y-134042619D01*
X191653331Y-134042619D02*
X191462855Y-134042619D01*
X191462855Y-134042619D02*
X191367617Y-133995000D01*
X191367617Y-133995000D02*
X191319998Y-133899761D01*
X191319998Y-133899761D02*
X191319998Y-133518809D01*
X191319998Y-133518809D02*
X191367617Y-133423571D01*
X191367617Y-133423571D02*
X191462855Y-133375952D01*
X191462855Y-133375952D02*
X191653331Y-133375952D01*
X191653331Y-133375952D02*
X191748569Y-133423571D01*
X191748569Y-133423571D02*
X191796188Y-133518809D01*
X191796188Y-133518809D02*
X191796188Y-133614047D01*
X191796188Y-133614047D02*
X191319998Y-133709285D01*
X192653331Y-134042619D02*
X192653331Y-133518809D01*
X192653331Y-133518809D02*
X192605712Y-133423571D01*
X192605712Y-133423571D02*
X192510474Y-133375952D01*
X192510474Y-133375952D02*
X192319998Y-133375952D01*
X192319998Y-133375952D02*
X192224760Y-133423571D01*
X192653331Y-133995000D02*
X192558093Y-134042619D01*
X192558093Y-134042619D02*
X192319998Y-134042619D01*
X192319998Y-134042619D02*
X192224760Y-133995000D01*
X192224760Y-133995000D02*
X192177141Y-133899761D01*
X192177141Y-133899761D02*
X192177141Y-133804523D01*
X192177141Y-133804523D02*
X192224760Y-133709285D01*
X192224760Y-133709285D02*
X192319998Y-133661666D01*
X192319998Y-133661666D02*
X192558093Y-133661666D01*
X192558093Y-133661666D02*
X192653331Y-133614047D01*
X193129522Y-134042619D02*
X193129522Y-133375952D01*
X193129522Y-133471190D02*
X193177141Y-133423571D01*
X193177141Y-133423571D02*
X193272379Y-133375952D01*
X193272379Y-133375952D02*
X193415236Y-133375952D01*
X193415236Y-133375952D02*
X193510474Y-133423571D01*
X193510474Y-133423571D02*
X193558093Y-133518809D01*
X193558093Y-133518809D02*
X193558093Y-134042619D01*
X193558093Y-133518809D02*
X193605712Y-133423571D01*
X193605712Y-133423571D02*
X193700950Y-133375952D01*
X193700950Y-133375952D02*
X193843807Y-133375952D01*
X193843807Y-133375952D02*
X193939046Y-133423571D01*
X193939046Y-133423571D02*
X193986665Y-133518809D01*
X193986665Y-133518809D02*
X193986665Y-134042619D01*
X194462855Y-133947380D02*
X194510474Y-133995000D01*
X194510474Y-133995000D02*
X194462855Y-134042619D01*
X194462855Y-134042619D02*
X194415236Y-133995000D01*
X194415236Y-133995000D02*
X194462855Y-133947380D01*
X194462855Y-133947380D02*
X194462855Y-134042619D01*
X194462855Y-133423571D02*
X194510474Y-133471190D01*
X194510474Y-133471190D02*
X194462855Y-133518809D01*
X194462855Y-133518809D02*
X194415236Y-133471190D01*
X194415236Y-133471190D02*
X194462855Y-133423571D01*
X194462855Y-133423571D02*
X194462855Y-133518809D01*
X196177140Y-134042619D02*
X195700950Y-134042619D01*
X195700950Y-134042619D02*
X195700950Y-133042619D01*
X196939045Y-133375952D02*
X196939045Y-134042619D01*
X196510474Y-133375952D02*
X196510474Y-133899761D01*
X196510474Y-133899761D02*
X196558093Y-133995000D01*
X196558093Y-133995000D02*
X196653331Y-134042619D01*
X196653331Y-134042619D02*
X196796188Y-134042619D01*
X196796188Y-134042619D02*
X196891426Y-133995000D01*
X196891426Y-133995000D02*
X196939045Y-133947380D01*
X197415236Y-134042619D02*
X197415236Y-133042619D01*
X197510474Y-133661666D02*
X197796188Y-134042619D01*
X197796188Y-133375952D02*
X197415236Y-133756904D01*
X198605712Y-133995000D02*
X198510474Y-134042619D01*
X198510474Y-134042619D02*
X198319998Y-134042619D01*
X198319998Y-134042619D02*
X198224760Y-133995000D01*
X198224760Y-133995000D02*
X198177141Y-133899761D01*
X198177141Y-133899761D02*
X198177141Y-133518809D01*
X198177141Y-133518809D02*
X198224760Y-133423571D01*
X198224760Y-133423571D02*
X198319998Y-133375952D01*
X198319998Y-133375952D02*
X198510474Y-133375952D01*
X198510474Y-133375952D02*
X198605712Y-133423571D01*
X198605712Y-133423571D02*
X198653331Y-133518809D01*
X198653331Y-133518809D02*
X198653331Y-133614047D01*
X198653331Y-133614047D02*
X198177141Y-133709285D01*
X199843808Y-134042619D02*
X199843808Y-133042619D01*
X200415236Y-134042619D02*
X199986665Y-133471190D01*
X200415236Y-133042619D02*
X199843808Y-133614047D01*
X200986665Y-134042619D02*
X200891427Y-133995000D01*
X200891427Y-133995000D02*
X200843808Y-133947380D01*
X200843808Y-133947380D02*
X200796189Y-133852142D01*
X200796189Y-133852142D02*
X200796189Y-133566428D01*
X200796189Y-133566428D02*
X200843808Y-133471190D01*
X200843808Y-133471190D02*
X200891427Y-133423571D01*
X200891427Y-133423571D02*
X200986665Y-133375952D01*
X200986665Y-133375952D02*
X201129522Y-133375952D01*
X201129522Y-133375952D02*
X201224760Y-133423571D01*
X201224760Y-133423571D02*
X201272379Y-133471190D01*
X201272379Y-133471190D02*
X201319998Y-133566428D01*
X201319998Y-133566428D02*
X201319998Y-133852142D01*
X201319998Y-133852142D02*
X201272379Y-133947380D01*
X201272379Y-133947380D02*
X201224760Y-133995000D01*
X201224760Y-133995000D02*
X201129522Y-134042619D01*
X201129522Y-134042619D02*
X200986665Y-134042619D01*
X201748570Y-134042619D02*
X201748570Y-133042619D01*
X202177141Y-134042619D02*
X202177141Y-133518809D01*
X202177141Y-133518809D02*
X202129522Y-133423571D01*
X202129522Y-133423571D02*
X202034284Y-133375952D01*
X202034284Y-133375952D02*
X201891427Y-133375952D01*
X201891427Y-133375952D02*
X201796189Y-133423571D01*
X201796189Y-133423571D02*
X201748570Y-133471190D01*
X202796189Y-134042619D02*
X202700951Y-133995000D01*
X202700951Y-133995000D02*
X202653332Y-133899761D01*
X202653332Y-133899761D02*
X202653332Y-133042619D01*
X203558094Y-133995000D02*
X203462856Y-134042619D01*
X203462856Y-134042619D02*
X203272380Y-134042619D01*
X203272380Y-134042619D02*
X203177142Y-133995000D01*
X203177142Y-133995000D02*
X203129523Y-133899761D01*
X203129523Y-133899761D02*
X203129523Y-133518809D01*
X203129523Y-133518809D02*
X203177142Y-133423571D01*
X203177142Y-133423571D02*
X203272380Y-133375952D01*
X203272380Y-133375952D02*
X203462856Y-133375952D01*
X203462856Y-133375952D02*
X203558094Y-133423571D01*
X203558094Y-133423571D02*
X203605713Y-133518809D01*
X203605713Y-133518809D02*
X203605713Y-133614047D01*
X203605713Y-133614047D02*
X203129523Y-133709285D01*
X204034285Y-134042619D02*
X204034285Y-133375952D01*
X204034285Y-133566428D02*
X204081904Y-133471190D01*
X204081904Y-133471190D02*
X204129523Y-133423571D01*
X204129523Y-133423571D02*
X204224761Y-133375952D01*
X204224761Y-133375952D02*
X204319999Y-133375952D01*
X204700952Y-133995000D02*
X204700952Y-134042619D01*
X204700952Y-134042619D02*
X204653333Y-134137857D01*
X204653333Y-134137857D02*
X204605714Y-134185476D01*
X205891428Y-134042619D02*
X205891428Y-133042619D01*
X205891428Y-133042619D02*
X206224761Y-133756904D01*
X206224761Y-133756904D02*
X206558094Y-133042619D01*
X206558094Y-133042619D02*
X206558094Y-134042619D01*
X207034285Y-134042619D02*
X207034285Y-133375952D01*
X207034285Y-133042619D02*
X206986666Y-133090238D01*
X206986666Y-133090238D02*
X207034285Y-133137857D01*
X207034285Y-133137857D02*
X207081904Y-133090238D01*
X207081904Y-133090238D02*
X207034285Y-133042619D01*
X207034285Y-133042619D02*
X207034285Y-133137857D01*
X207939046Y-133995000D02*
X207843808Y-134042619D01*
X207843808Y-134042619D02*
X207653332Y-134042619D01*
X207653332Y-134042619D02*
X207558094Y-133995000D01*
X207558094Y-133995000D02*
X207510475Y-133947380D01*
X207510475Y-133947380D02*
X207462856Y-133852142D01*
X207462856Y-133852142D02*
X207462856Y-133566428D01*
X207462856Y-133566428D02*
X207510475Y-133471190D01*
X207510475Y-133471190D02*
X207558094Y-133423571D01*
X207558094Y-133423571D02*
X207653332Y-133375952D01*
X207653332Y-133375952D02*
X207843808Y-133375952D01*
X207843808Y-133375952D02*
X207939046Y-133423571D01*
X208367618Y-134042619D02*
X208367618Y-133042619D01*
X208796189Y-134042619D02*
X208796189Y-133518809D01*
X208796189Y-133518809D02*
X208748570Y-133423571D01*
X208748570Y-133423571D02*
X208653332Y-133375952D01*
X208653332Y-133375952D02*
X208510475Y-133375952D01*
X208510475Y-133375952D02*
X208415237Y-133423571D01*
X208415237Y-133423571D02*
X208367618Y-133471190D01*
X209700951Y-134042619D02*
X209700951Y-133518809D01*
X209700951Y-133518809D02*
X209653332Y-133423571D01*
X209653332Y-133423571D02*
X209558094Y-133375952D01*
X209558094Y-133375952D02*
X209367618Y-133375952D01*
X209367618Y-133375952D02*
X209272380Y-133423571D01*
X209700951Y-133995000D02*
X209605713Y-134042619D01*
X209605713Y-134042619D02*
X209367618Y-134042619D01*
X209367618Y-134042619D02*
X209272380Y-133995000D01*
X209272380Y-133995000D02*
X209224761Y-133899761D01*
X209224761Y-133899761D02*
X209224761Y-133804523D01*
X209224761Y-133804523D02*
X209272380Y-133709285D01*
X209272380Y-133709285D02*
X209367618Y-133661666D01*
X209367618Y-133661666D02*
X209605713Y-133661666D01*
X209605713Y-133661666D02*
X209700951Y-133614047D01*
X210558094Y-133995000D02*
X210462856Y-134042619D01*
X210462856Y-134042619D02*
X210272380Y-134042619D01*
X210272380Y-134042619D02*
X210177142Y-133995000D01*
X210177142Y-133995000D02*
X210129523Y-133899761D01*
X210129523Y-133899761D02*
X210129523Y-133518809D01*
X210129523Y-133518809D02*
X210177142Y-133423571D01*
X210177142Y-133423571D02*
X210272380Y-133375952D01*
X210272380Y-133375952D02*
X210462856Y-133375952D01*
X210462856Y-133375952D02*
X210558094Y-133423571D01*
X210558094Y-133423571D02*
X210605713Y-133518809D01*
X210605713Y-133518809D02*
X210605713Y-133614047D01*
X210605713Y-133614047D02*
X210129523Y-133709285D01*
X211177142Y-134042619D02*
X211081904Y-133995000D01*
X211081904Y-133995000D02*
X211034285Y-133899761D01*
X211034285Y-133899761D02*
X211034285Y-133042619D01*
X212986666Y-134137857D02*
X212891428Y-134090238D01*
X212891428Y-134090238D02*
X212796190Y-133995000D01*
X212796190Y-133995000D02*
X212653333Y-133852142D01*
X212653333Y-133852142D02*
X212558095Y-133804523D01*
X212558095Y-133804523D02*
X212462857Y-133804523D01*
X212510476Y-134042619D02*
X212415238Y-133995000D01*
X212415238Y-133995000D02*
X212320000Y-133899761D01*
X212320000Y-133899761D02*
X212272381Y-133709285D01*
X212272381Y-133709285D02*
X212272381Y-133375952D01*
X212272381Y-133375952D02*
X212320000Y-133185476D01*
X212320000Y-133185476D02*
X212415238Y-133090238D01*
X212415238Y-133090238D02*
X212510476Y-133042619D01*
X212510476Y-133042619D02*
X212700952Y-133042619D01*
X212700952Y-133042619D02*
X212796190Y-133090238D01*
X212796190Y-133090238D02*
X212891428Y-133185476D01*
X212891428Y-133185476D02*
X212939047Y-133375952D01*
X212939047Y-133375952D02*
X212939047Y-133709285D01*
X212939047Y-133709285D02*
X212891428Y-133899761D01*
X212891428Y-133899761D02*
X212796190Y-133995000D01*
X212796190Y-133995000D02*
X212700952Y-134042619D01*
X212700952Y-134042619D02*
X212510476Y-134042619D01*
X213796190Y-133375952D02*
X213796190Y-134042619D01*
X213367619Y-133375952D02*
X213367619Y-133899761D01*
X213367619Y-133899761D02*
X213415238Y-133995000D01*
X213415238Y-133995000D02*
X213510476Y-134042619D01*
X213510476Y-134042619D02*
X213653333Y-134042619D01*
X213653333Y-134042619D02*
X213748571Y-133995000D01*
X213748571Y-133995000D02*
X213796190Y-133947380D01*
X214700952Y-134042619D02*
X214700952Y-133518809D01*
X214700952Y-133518809D02*
X214653333Y-133423571D01*
X214653333Y-133423571D02*
X214558095Y-133375952D01*
X214558095Y-133375952D02*
X214367619Y-133375952D01*
X214367619Y-133375952D02*
X214272381Y-133423571D01*
X214700952Y-133995000D02*
X214605714Y-134042619D01*
X214605714Y-134042619D02*
X214367619Y-134042619D01*
X214367619Y-134042619D02*
X214272381Y-133995000D01*
X214272381Y-133995000D02*
X214224762Y-133899761D01*
X214224762Y-133899761D02*
X214224762Y-133804523D01*
X214224762Y-133804523D02*
X214272381Y-133709285D01*
X214272381Y-133709285D02*
X214367619Y-133661666D01*
X214367619Y-133661666D02*
X214605714Y-133661666D01*
X214605714Y-133661666D02*
X214700952Y-133614047D01*
X215605714Y-133995000D02*
X215510476Y-134042619D01*
X215510476Y-134042619D02*
X215320000Y-134042619D01*
X215320000Y-134042619D02*
X215224762Y-133995000D01*
X215224762Y-133995000D02*
X215177143Y-133947380D01*
X215177143Y-133947380D02*
X215129524Y-133852142D01*
X215129524Y-133852142D02*
X215129524Y-133566428D01*
X215129524Y-133566428D02*
X215177143Y-133471190D01*
X215177143Y-133471190D02*
X215224762Y-133423571D01*
X215224762Y-133423571D02*
X215320000Y-133375952D01*
X215320000Y-133375952D02*
X215510476Y-133375952D01*
X215510476Y-133375952D02*
X215605714Y-133423571D01*
X216034286Y-134042619D02*
X216034286Y-133042619D01*
X216462857Y-134042619D02*
X216462857Y-133518809D01*
X216462857Y-133518809D02*
X216415238Y-133423571D01*
X216415238Y-133423571D02*
X216320000Y-133375952D01*
X216320000Y-133375952D02*
X216177143Y-133375952D01*
X216177143Y-133375952D02*
X216081905Y-133423571D01*
X216081905Y-133423571D02*
X216034286Y-133471190D01*
X216986667Y-133995000D02*
X216986667Y-134042619D01*
X216986667Y-134042619D02*
X216939048Y-134137857D01*
X216939048Y-134137857D02*
X216891429Y-134185476D01*
X218177143Y-134042619D02*
X218177143Y-133042619D01*
X218177143Y-133042619D02*
X218510476Y-133756904D01*
X218510476Y-133756904D02*
X218843809Y-133042619D01*
X218843809Y-133042619D02*
X218843809Y-134042619D01*
X219748571Y-134042619D02*
X219748571Y-133518809D01*
X219748571Y-133518809D02*
X219700952Y-133423571D01*
X219700952Y-133423571D02*
X219605714Y-133375952D01*
X219605714Y-133375952D02*
X219415238Y-133375952D01*
X219415238Y-133375952D02*
X219320000Y-133423571D01*
X219748571Y-133995000D02*
X219653333Y-134042619D01*
X219653333Y-134042619D02*
X219415238Y-134042619D01*
X219415238Y-134042619D02*
X219320000Y-133995000D01*
X219320000Y-133995000D02*
X219272381Y-133899761D01*
X219272381Y-133899761D02*
X219272381Y-133804523D01*
X219272381Y-133804523D02*
X219320000Y-133709285D01*
X219320000Y-133709285D02*
X219415238Y-133661666D01*
X219415238Y-133661666D02*
X219653333Y-133661666D01*
X219653333Y-133661666D02*
X219748571Y-133614047D01*
X220081905Y-133375952D02*
X220462857Y-133375952D01*
X220224762Y-133042619D02*
X220224762Y-133899761D01*
X220224762Y-133899761D02*
X220272381Y-133995000D01*
X220272381Y-133995000D02*
X220367619Y-134042619D01*
X220367619Y-134042619D02*
X220462857Y-134042619D01*
X220653334Y-133375952D02*
X221034286Y-133375952D01*
X220796191Y-133042619D02*
X220796191Y-133899761D01*
X220796191Y-133899761D02*
X220843810Y-133995000D01*
X220843810Y-133995000D02*
X220939048Y-134042619D01*
X220939048Y-134042619D02*
X221034286Y-134042619D01*
X222700953Y-134042619D02*
X222367620Y-133566428D01*
X222129525Y-134042619D02*
X222129525Y-133042619D01*
X222129525Y-133042619D02*
X222510477Y-133042619D01*
X222510477Y-133042619D02*
X222605715Y-133090238D01*
X222605715Y-133090238D02*
X222653334Y-133137857D01*
X222653334Y-133137857D02*
X222700953Y-133233095D01*
X222700953Y-133233095D02*
X222700953Y-133375952D01*
X222700953Y-133375952D02*
X222653334Y-133471190D01*
X222653334Y-133471190D02*
X222605715Y-133518809D01*
X222605715Y-133518809D02*
X222510477Y-133566428D01*
X222510477Y-133566428D02*
X222129525Y-133566428D01*
X223272382Y-134042619D02*
X223177144Y-133995000D01*
X223177144Y-133995000D02*
X223129525Y-133947380D01*
X223129525Y-133947380D02*
X223081906Y-133852142D01*
X223081906Y-133852142D02*
X223081906Y-133566428D01*
X223081906Y-133566428D02*
X223129525Y-133471190D01*
X223129525Y-133471190D02*
X223177144Y-133423571D01*
X223177144Y-133423571D02*
X223272382Y-133375952D01*
X223272382Y-133375952D02*
X223415239Y-133375952D01*
X223415239Y-133375952D02*
X223510477Y-133423571D01*
X223510477Y-133423571D02*
X223558096Y-133471190D01*
X223558096Y-133471190D02*
X223605715Y-133566428D01*
X223605715Y-133566428D02*
X223605715Y-133852142D01*
X223605715Y-133852142D02*
X223558096Y-133947380D01*
X223558096Y-133947380D02*
X223510477Y-133995000D01*
X223510477Y-133995000D02*
X223415239Y-134042619D01*
X223415239Y-134042619D02*
X223272382Y-134042619D01*
X224034287Y-134042619D02*
X224034287Y-133042619D01*
X224034287Y-133423571D02*
X224129525Y-133375952D01*
X224129525Y-133375952D02*
X224320001Y-133375952D01*
X224320001Y-133375952D02*
X224415239Y-133423571D01*
X224415239Y-133423571D02*
X224462858Y-133471190D01*
X224462858Y-133471190D02*
X224510477Y-133566428D01*
X224510477Y-133566428D02*
X224510477Y-133852142D01*
X224510477Y-133852142D02*
X224462858Y-133947380D01*
X224462858Y-133947380D02*
X224415239Y-133995000D01*
X224415239Y-133995000D02*
X224320001Y-134042619D01*
X224320001Y-134042619D02*
X224129525Y-134042619D01*
X224129525Y-134042619D02*
X224034287Y-133995000D01*
X225320001Y-133995000D02*
X225224763Y-134042619D01*
X225224763Y-134042619D02*
X225034287Y-134042619D01*
X225034287Y-134042619D02*
X224939049Y-133995000D01*
X224939049Y-133995000D02*
X224891430Y-133899761D01*
X224891430Y-133899761D02*
X224891430Y-133518809D01*
X224891430Y-133518809D02*
X224939049Y-133423571D01*
X224939049Y-133423571D02*
X225034287Y-133375952D01*
X225034287Y-133375952D02*
X225224763Y-133375952D01*
X225224763Y-133375952D02*
X225320001Y-133423571D01*
X225320001Y-133423571D02*
X225367620Y-133518809D01*
X225367620Y-133518809D02*
X225367620Y-133614047D01*
X225367620Y-133614047D02*
X224891430Y-133709285D01*
X225796192Y-134042619D02*
X225796192Y-133375952D01*
X225796192Y-133566428D02*
X225843811Y-133471190D01*
X225843811Y-133471190D02*
X225891430Y-133423571D01*
X225891430Y-133423571D02*
X225986668Y-133375952D01*
X225986668Y-133375952D02*
X226081906Y-133375952D01*
X226272383Y-133375952D02*
X226653335Y-133375952D01*
X226415240Y-133042619D02*
X226415240Y-133899761D01*
X226415240Y-133899761D02*
X226462859Y-133995000D01*
X226462859Y-133995000D02*
X226558097Y-134042619D01*
X226558097Y-134042619D02*
X226653335Y-134042619D01*
X226939050Y-133995000D02*
X227034288Y-134042619D01*
X227034288Y-134042619D02*
X227224764Y-134042619D01*
X227224764Y-134042619D02*
X227320002Y-133995000D01*
X227320002Y-133995000D02*
X227367621Y-133899761D01*
X227367621Y-133899761D02*
X227367621Y-133852142D01*
X227367621Y-133852142D02*
X227320002Y-133756904D01*
X227320002Y-133756904D02*
X227224764Y-133709285D01*
X227224764Y-133709285D02*
X227081907Y-133709285D01*
X227081907Y-133709285D02*
X226986669Y-133661666D01*
X226986669Y-133661666D02*
X226939050Y-133566428D01*
X226939050Y-133566428D02*
X226939050Y-133518809D01*
X226939050Y-133518809D02*
X226986669Y-133423571D01*
X226986669Y-133423571D02*
X227081907Y-133375952D01*
X227081907Y-133375952D02*
X227224764Y-133375952D01*
X227224764Y-133375952D02*
X227320002Y-133423571D01*
X189677141Y-135138809D02*
X189343808Y-135138809D01*
X189343808Y-135662619D02*
X189343808Y-134662619D01*
X189343808Y-134662619D02*
X189819998Y-134662619D01*
X190343808Y-135662619D02*
X190248570Y-135615000D01*
X190248570Y-135615000D02*
X190200951Y-135567380D01*
X190200951Y-135567380D02*
X190153332Y-135472142D01*
X190153332Y-135472142D02*
X190153332Y-135186428D01*
X190153332Y-135186428D02*
X190200951Y-135091190D01*
X190200951Y-135091190D02*
X190248570Y-135043571D01*
X190248570Y-135043571D02*
X190343808Y-134995952D01*
X190343808Y-134995952D02*
X190486665Y-134995952D01*
X190486665Y-134995952D02*
X190581903Y-135043571D01*
X190581903Y-135043571D02*
X190629522Y-135091190D01*
X190629522Y-135091190D02*
X190677141Y-135186428D01*
X190677141Y-135186428D02*
X190677141Y-135472142D01*
X190677141Y-135472142D02*
X190629522Y-135567380D01*
X190629522Y-135567380D02*
X190581903Y-135615000D01*
X190581903Y-135615000D02*
X190486665Y-135662619D01*
X190486665Y-135662619D02*
X190343808Y-135662619D01*
X191105713Y-135662619D02*
X191105713Y-134995952D01*
X191105713Y-135186428D02*
X191153332Y-135091190D01*
X191153332Y-135091190D02*
X191200951Y-135043571D01*
X191200951Y-135043571D02*
X191296189Y-134995952D01*
X191296189Y-134995952D02*
X191391427Y-134995952D01*
X192343809Y-134995952D02*
X192724761Y-134995952D01*
X192486666Y-134662619D02*
X192486666Y-135519761D01*
X192486666Y-135519761D02*
X192534285Y-135615000D01*
X192534285Y-135615000D02*
X192629523Y-135662619D01*
X192629523Y-135662619D02*
X192724761Y-135662619D01*
X193058095Y-135662619D02*
X193058095Y-134662619D01*
X193486666Y-135662619D02*
X193486666Y-135138809D01*
X193486666Y-135138809D02*
X193439047Y-135043571D01*
X193439047Y-135043571D02*
X193343809Y-134995952D01*
X193343809Y-134995952D02*
X193200952Y-134995952D01*
X193200952Y-134995952D02*
X193105714Y-135043571D01*
X193105714Y-135043571D02*
X193058095Y-135091190D01*
X194343809Y-135615000D02*
X194248571Y-135662619D01*
X194248571Y-135662619D02*
X194058095Y-135662619D01*
X194058095Y-135662619D02*
X193962857Y-135615000D01*
X193962857Y-135615000D02*
X193915238Y-135519761D01*
X193915238Y-135519761D02*
X193915238Y-135138809D01*
X193915238Y-135138809D02*
X193962857Y-135043571D01*
X193962857Y-135043571D02*
X194058095Y-134995952D01*
X194058095Y-134995952D02*
X194248571Y-134995952D01*
X194248571Y-134995952D02*
X194343809Y-135043571D01*
X194343809Y-135043571D02*
X194391428Y-135138809D01*
X194391428Y-135138809D02*
X194391428Y-135234047D01*
X194391428Y-135234047D02*
X193915238Y-135329285D01*
X195581905Y-135662619D02*
X195581905Y-134662619D01*
X195581905Y-134662619D02*
X195962857Y-134662619D01*
X195962857Y-134662619D02*
X196058095Y-134710238D01*
X196058095Y-134710238D02*
X196105714Y-134757857D01*
X196105714Y-134757857D02*
X196153333Y-134853095D01*
X196153333Y-134853095D02*
X196153333Y-134995952D01*
X196153333Y-134995952D02*
X196105714Y-135091190D01*
X196105714Y-135091190D02*
X196058095Y-135138809D01*
X196058095Y-135138809D02*
X195962857Y-135186428D01*
X195962857Y-135186428D02*
X195581905Y-135186428D01*
X196724762Y-135662619D02*
X196629524Y-135615000D01*
X196629524Y-135615000D02*
X196581905Y-135519761D01*
X196581905Y-135519761D02*
X196581905Y-134662619D01*
X197486667Y-135615000D02*
X197391429Y-135662619D01*
X197391429Y-135662619D02*
X197200953Y-135662619D01*
X197200953Y-135662619D02*
X197105715Y-135615000D01*
X197105715Y-135615000D02*
X197058096Y-135519761D01*
X197058096Y-135519761D02*
X197058096Y-135138809D01*
X197058096Y-135138809D02*
X197105715Y-135043571D01*
X197105715Y-135043571D02*
X197200953Y-134995952D01*
X197200953Y-134995952D02*
X197391429Y-134995952D01*
X197391429Y-134995952D02*
X197486667Y-135043571D01*
X197486667Y-135043571D02*
X197534286Y-135138809D01*
X197534286Y-135138809D02*
X197534286Y-135234047D01*
X197534286Y-135234047D02*
X197058096Y-135329285D01*
X197962858Y-135662619D02*
X197962858Y-134995952D01*
X197962858Y-134662619D02*
X197915239Y-134710238D01*
X197915239Y-134710238D02*
X197962858Y-134757857D01*
X197962858Y-134757857D02*
X198010477Y-134710238D01*
X198010477Y-134710238D02*
X197962858Y-134662619D01*
X197962858Y-134662619D02*
X197962858Y-134757857D01*
X198867619Y-135662619D02*
X198867619Y-135138809D01*
X198867619Y-135138809D02*
X198820000Y-135043571D01*
X198820000Y-135043571D02*
X198724762Y-134995952D01*
X198724762Y-134995952D02*
X198534286Y-134995952D01*
X198534286Y-134995952D02*
X198439048Y-135043571D01*
X198867619Y-135615000D02*
X198772381Y-135662619D01*
X198772381Y-135662619D02*
X198534286Y-135662619D01*
X198534286Y-135662619D02*
X198439048Y-135615000D01*
X198439048Y-135615000D02*
X198391429Y-135519761D01*
X198391429Y-135519761D02*
X198391429Y-135424523D01*
X198391429Y-135424523D02*
X198439048Y-135329285D01*
X198439048Y-135329285D02*
X198534286Y-135281666D01*
X198534286Y-135281666D02*
X198772381Y-135281666D01*
X198772381Y-135281666D02*
X198867619Y-135234047D01*
X199772381Y-135662619D02*
X199772381Y-134662619D01*
X199772381Y-135615000D02*
X199677143Y-135662619D01*
X199677143Y-135662619D02*
X199486667Y-135662619D01*
X199486667Y-135662619D02*
X199391429Y-135615000D01*
X199391429Y-135615000D02*
X199343810Y-135567380D01*
X199343810Y-135567380D02*
X199296191Y-135472142D01*
X199296191Y-135472142D02*
X199296191Y-135186428D01*
X199296191Y-135186428D02*
X199343810Y-135091190D01*
X199343810Y-135091190D02*
X199391429Y-135043571D01*
X199391429Y-135043571D02*
X199486667Y-134995952D01*
X199486667Y-134995952D02*
X199677143Y-134995952D01*
X199677143Y-134995952D02*
X199772381Y-135043571D01*
X200629524Y-135615000D02*
X200534286Y-135662619D01*
X200534286Y-135662619D02*
X200343810Y-135662619D01*
X200343810Y-135662619D02*
X200248572Y-135615000D01*
X200248572Y-135615000D02*
X200200953Y-135519761D01*
X200200953Y-135519761D02*
X200200953Y-135138809D01*
X200200953Y-135138809D02*
X200248572Y-135043571D01*
X200248572Y-135043571D02*
X200343810Y-134995952D01*
X200343810Y-134995952D02*
X200534286Y-134995952D01*
X200534286Y-134995952D02*
X200629524Y-135043571D01*
X200629524Y-135043571D02*
X200677143Y-135138809D01*
X200677143Y-135138809D02*
X200677143Y-135234047D01*
X200677143Y-135234047D02*
X200200953Y-135329285D01*
X201058096Y-135615000D02*
X201153334Y-135662619D01*
X201153334Y-135662619D02*
X201343810Y-135662619D01*
X201343810Y-135662619D02*
X201439048Y-135615000D01*
X201439048Y-135615000D02*
X201486667Y-135519761D01*
X201486667Y-135519761D02*
X201486667Y-135472142D01*
X201486667Y-135472142D02*
X201439048Y-135376904D01*
X201439048Y-135376904D02*
X201343810Y-135329285D01*
X201343810Y-135329285D02*
X201200953Y-135329285D01*
X201200953Y-135329285D02*
X201105715Y-135281666D01*
X201105715Y-135281666D02*
X201058096Y-135186428D01*
X201058096Y-135186428D02*
X201058096Y-135138809D01*
X201058096Y-135138809D02*
X201105715Y-135043571D01*
X201105715Y-135043571D02*
X201200953Y-134995952D01*
X201200953Y-134995952D02*
X201343810Y-134995952D01*
X201343810Y-134995952D02*
X201439048Y-135043571D01*
X202677144Y-135281666D02*
X203439049Y-135281666D01*
X204629525Y-135615000D02*
X204772382Y-135662619D01*
X204772382Y-135662619D02*
X205010477Y-135662619D01*
X205010477Y-135662619D02*
X205105715Y-135615000D01*
X205105715Y-135615000D02*
X205153334Y-135567380D01*
X205153334Y-135567380D02*
X205200953Y-135472142D01*
X205200953Y-135472142D02*
X205200953Y-135376904D01*
X205200953Y-135376904D02*
X205153334Y-135281666D01*
X205153334Y-135281666D02*
X205105715Y-135234047D01*
X205105715Y-135234047D02*
X205010477Y-135186428D01*
X205010477Y-135186428D02*
X204820001Y-135138809D01*
X204820001Y-135138809D02*
X204724763Y-135091190D01*
X204724763Y-135091190D02*
X204677144Y-135043571D01*
X204677144Y-135043571D02*
X204629525Y-134948333D01*
X204629525Y-134948333D02*
X204629525Y-134853095D01*
X204629525Y-134853095D02*
X204677144Y-134757857D01*
X204677144Y-134757857D02*
X204724763Y-134710238D01*
X204724763Y-134710238D02*
X204820001Y-134662619D01*
X204820001Y-134662619D02*
X205058096Y-134662619D01*
X205058096Y-134662619D02*
X205200953Y-134710238D01*
X206058096Y-134995952D02*
X206058096Y-135995952D01*
X206058096Y-135615000D02*
X205962858Y-135662619D01*
X205962858Y-135662619D02*
X205772382Y-135662619D01*
X205772382Y-135662619D02*
X205677144Y-135615000D01*
X205677144Y-135615000D02*
X205629525Y-135567380D01*
X205629525Y-135567380D02*
X205581906Y-135472142D01*
X205581906Y-135472142D02*
X205581906Y-135186428D01*
X205581906Y-135186428D02*
X205629525Y-135091190D01*
X205629525Y-135091190D02*
X205677144Y-135043571D01*
X205677144Y-135043571D02*
X205772382Y-134995952D01*
X205772382Y-134995952D02*
X205962858Y-134995952D01*
X205962858Y-134995952D02*
X206058096Y-135043571D01*
X206962858Y-134995952D02*
X206962858Y-135662619D01*
X206534287Y-134995952D02*
X206534287Y-135519761D01*
X206534287Y-135519761D02*
X206581906Y-135615000D01*
X206581906Y-135615000D02*
X206677144Y-135662619D01*
X206677144Y-135662619D02*
X206820001Y-135662619D01*
X206820001Y-135662619D02*
X206915239Y-135615000D01*
X206915239Y-135615000D02*
X206962858Y-135567380D01*
X207867620Y-135662619D02*
X207867620Y-135138809D01*
X207867620Y-135138809D02*
X207820001Y-135043571D01*
X207820001Y-135043571D02*
X207724763Y-134995952D01*
X207724763Y-134995952D02*
X207534287Y-134995952D01*
X207534287Y-134995952D02*
X207439049Y-135043571D01*
X207867620Y-135615000D02*
X207772382Y-135662619D01*
X207772382Y-135662619D02*
X207534287Y-135662619D01*
X207534287Y-135662619D02*
X207439049Y-135615000D01*
X207439049Y-135615000D02*
X207391430Y-135519761D01*
X207391430Y-135519761D02*
X207391430Y-135424523D01*
X207391430Y-135424523D02*
X207439049Y-135329285D01*
X207439049Y-135329285D02*
X207534287Y-135281666D01*
X207534287Y-135281666D02*
X207772382Y-135281666D01*
X207772382Y-135281666D02*
X207867620Y-135234047D01*
X208343811Y-135662619D02*
X208343811Y-134995952D01*
X208343811Y-135186428D02*
X208391430Y-135091190D01*
X208391430Y-135091190D02*
X208439049Y-135043571D01*
X208439049Y-135043571D02*
X208534287Y-134995952D01*
X208534287Y-134995952D02*
X208629525Y-134995952D01*
X209343811Y-135615000D02*
X209248573Y-135662619D01*
X209248573Y-135662619D02*
X209058097Y-135662619D01*
X209058097Y-135662619D02*
X208962859Y-135615000D01*
X208962859Y-135615000D02*
X208915240Y-135519761D01*
X208915240Y-135519761D02*
X208915240Y-135138809D01*
X208915240Y-135138809D02*
X208962859Y-135043571D01*
X208962859Y-135043571D02*
X209058097Y-134995952D01*
X209058097Y-134995952D02*
X209248573Y-134995952D01*
X209248573Y-134995952D02*
X209343811Y-135043571D01*
X209343811Y-135043571D02*
X209391430Y-135138809D01*
X209391430Y-135138809D02*
X209391430Y-135234047D01*
X209391430Y-135234047D02*
X208915240Y-135329285D01*
X210248573Y-135662619D02*
X210248573Y-134662619D01*
X210248573Y-135615000D02*
X210153335Y-135662619D01*
X210153335Y-135662619D02*
X209962859Y-135662619D01*
X209962859Y-135662619D02*
X209867621Y-135615000D01*
X209867621Y-135615000D02*
X209820002Y-135567380D01*
X209820002Y-135567380D02*
X209772383Y-135472142D01*
X209772383Y-135472142D02*
X209772383Y-135186428D01*
X209772383Y-135186428D02*
X209820002Y-135091190D01*
X209820002Y-135091190D02*
X209867621Y-135043571D01*
X209867621Y-135043571D02*
X209962859Y-134995952D01*
X209962859Y-134995952D02*
X210153335Y-134995952D01*
X210153335Y-134995952D02*
X210248573Y-135043571D01*
X211486669Y-135662619D02*
X211486669Y-134662619D01*
X211486669Y-134662619D02*
X211820002Y-135376904D01*
X211820002Y-135376904D02*
X212153335Y-134662619D01*
X212153335Y-134662619D02*
X212153335Y-135662619D01*
X212629526Y-135662619D02*
X212629526Y-134995952D01*
X212629526Y-134662619D02*
X212581907Y-134710238D01*
X212581907Y-134710238D02*
X212629526Y-134757857D01*
X212629526Y-134757857D02*
X212677145Y-134710238D01*
X212677145Y-134710238D02*
X212629526Y-134662619D01*
X212629526Y-134662619D02*
X212629526Y-134757857D01*
X213058097Y-135615000D02*
X213153335Y-135662619D01*
X213153335Y-135662619D02*
X213343811Y-135662619D01*
X213343811Y-135662619D02*
X213439049Y-135615000D01*
X213439049Y-135615000D02*
X213486668Y-135519761D01*
X213486668Y-135519761D02*
X213486668Y-135472142D01*
X213486668Y-135472142D02*
X213439049Y-135376904D01*
X213439049Y-135376904D02*
X213343811Y-135329285D01*
X213343811Y-135329285D02*
X213200954Y-135329285D01*
X213200954Y-135329285D02*
X213105716Y-135281666D01*
X213105716Y-135281666D02*
X213058097Y-135186428D01*
X213058097Y-135186428D02*
X213058097Y-135138809D01*
X213058097Y-135138809D02*
X213105716Y-135043571D01*
X213105716Y-135043571D02*
X213200954Y-134995952D01*
X213200954Y-134995952D02*
X213343811Y-134995952D01*
X213343811Y-134995952D02*
X213439049Y-135043571D01*
X213867621Y-135615000D02*
X213962859Y-135662619D01*
X213962859Y-135662619D02*
X214153335Y-135662619D01*
X214153335Y-135662619D02*
X214248573Y-135615000D01*
X214248573Y-135615000D02*
X214296192Y-135519761D01*
X214296192Y-135519761D02*
X214296192Y-135472142D01*
X214296192Y-135472142D02*
X214248573Y-135376904D01*
X214248573Y-135376904D02*
X214153335Y-135329285D01*
X214153335Y-135329285D02*
X214010478Y-135329285D01*
X214010478Y-135329285D02*
X213915240Y-135281666D01*
X213915240Y-135281666D02*
X213867621Y-135186428D01*
X213867621Y-135186428D02*
X213867621Y-135138809D01*
X213867621Y-135138809D02*
X213915240Y-135043571D01*
X213915240Y-135043571D02*
X214010478Y-134995952D01*
X214010478Y-134995952D02*
X214153335Y-134995952D01*
X214153335Y-134995952D02*
X214248573Y-135043571D01*
X214724764Y-135662619D02*
X214724764Y-134995952D01*
X214724764Y-134662619D02*
X214677145Y-134710238D01*
X214677145Y-134710238D02*
X214724764Y-134757857D01*
X214724764Y-134757857D02*
X214772383Y-134710238D01*
X214772383Y-134710238D02*
X214724764Y-134662619D01*
X214724764Y-134662619D02*
X214724764Y-134757857D01*
X215343811Y-135662619D02*
X215248573Y-135615000D01*
X215248573Y-135615000D02*
X215200954Y-135567380D01*
X215200954Y-135567380D02*
X215153335Y-135472142D01*
X215153335Y-135472142D02*
X215153335Y-135186428D01*
X215153335Y-135186428D02*
X215200954Y-135091190D01*
X215200954Y-135091190D02*
X215248573Y-135043571D01*
X215248573Y-135043571D02*
X215343811Y-134995952D01*
X215343811Y-134995952D02*
X215486668Y-134995952D01*
X215486668Y-134995952D02*
X215581906Y-135043571D01*
X215581906Y-135043571D02*
X215629525Y-135091190D01*
X215629525Y-135091190D02*
X215677144Y-135186428D01*
X215677144Y-135186428D02*
X215677144Y-135472142D01*
X215677144Y-135472142D02*
X215629525Y-135567380D01*
X215629525Y-135567380D02*
X215581906Y-135615000D01*
X215581906Y-135615000D02*
X215486668Y-135662619D01*
X215486668Y-135662619D02*
X215343811Y-135662619D01*
X216105716Y-134995952D02*
X216105716Y-135662619D01*
X216105716Y-135091190D02*
X216153335Y-135043571D01*
X216153335Y-135043571D02*
X216248573Y-134995952D01*
X216248573Y-134995952D02*
X216391430Y-134995952D01*
X216391430Y-134995952D02*
X216486668Y-135043571D01*
X216486668Y-135043571D02*
X216534287Y-135138809D01*
X216534287Y-135138809D02*
X216534287Y-135662619D01*
X198677142Y-136282619D02*
X198677142Y-136996904D01*
X198677142Y-136996904D02*
X198629523Y-137139761D01*
X198629523Y-137139761D02*
X198534285Y-137235000D01*
X198534285Y-137235000D02*
X198391428Y-137282619D01*
X198391428Y-137282619D02*
X198296190Y-137282619D01*
X199581904Y-137282619D02*
X199581904Y-136758809D01*
X199581904Y-136758809D02*
X199534285Y-136663571D01*
X199534285Y-136663571D02*
X199439047Y-136615952D01*
X199439047Y-136615952D02*
X199248571Y-136615952D01*
X199248571Y-136615952D02*
X199153333Y-136663571D01*
X199581904Y-137235000D02*
X199486666Y-137282619D01*
X199486666Y-137282619D02*
X199248571Y-137282619D01*
X199248571Y-137282619D02*
X199153333Y-137235000D01*
X199153333Y-137235000D02*
X199105714Y-137139761D01*
X199105714Y-137139761D02*
X199105714Y-137044523D01*
X199105714Y-137044523D02*
X199153333Y-136949285D01*
X199153333Y-136949285D02*
X199248571Y-136901666D01*
X199248571Y-136901666D02*
X199486666Y-136901666D01*
X199486666Y-136901666D02*
X199581904Y-136854047D01*
X200058095Y-136615952D02*
X200058095Y-137282619D01*
X200058095Y-136711190D02*
X200105714Y-136663571D01*
X200105714Y-136663571D02*
X200200952Y-136615952D01*
X200200952Y-136615952D02*
X200343809Y-136615952D01*
X200343809Y-136615952D02*
X200439047Y-136663571D01*
X200439047Y-136663571D02*
X200486666Y-136758809D01*
X200486666Y-136758809D02*
X200486666Y-137282619D01*
X201391428Y-136615952D02*
X201391428Y-137282619D01*
X200962857Y-136615952D02*
X200962857Y-137139761D01*
X200962857Y-137139761D02*
X201010476Y-137235000D01*
X201010476Y-137235000D02*
X201105714Y-137282619D01*
X201105714Y-137282619D02*
X201248571Y-137282619D01*
X201248571Y-137282619D02*
X201343809Y-137235000D01*
X201343809Y-137235000D02*
X201391428Y-137187380D01*
X202296190Y-137282619D02*
X202296190Y-136758809D01*
X202296190Y-136758809D02*
X202248571Y-136663571D01*
X202248571Y-136663571D02*
X202153333Y-136615952D01*
X202153333Y-136615952D02*
X201962857Y-136615952D01*
X201962857Y-136615952D02*
X201867619Y-136663571D01*
X202296190Y-137235000D02*
X202200952Y-137282619D01*
X202200952Y-137282619D02*
X201962857Y-137282619D01*
X201962857Y-137282619D02*
X201867619Y-137235000D01*
X201867619Y-137235000D02*
X201820000Y-137139761D01*
X201820000Y-137139761D02*
X201820000Y-137044523D01*
X201820000Y-137044523D02*
X201867619Y-136949285D01*
X201867619Y-136949285D02*
X201962857Y-136901666D01*
X201962857Y-136901666D02*
X202200952Y-136901666D01*
X202200952Y-136901666D02*
X202296190Y-136854047D01*
X202772381Y-137282619D02*
X202772381Y-136615952D01*
X202772381Y-136806428D02*
X202820000Y-136711190D01*
X202820000Y-136711190D02*
X202867619Y-136663571D01*
X202867619Y-136663571D02*
X202962857Y-136615952D01*
X202962857Y-136615952D02*
X203058095Y-136615952D01*
X203296191Y-136615952D02*
X203534286Y-137282619D01*
X203772381Y-136615952D02*
X203534286Y-137282619D01*
X203534286Y-137282619D02*
X203439048Y-137520714D01*
X203439048Y-137520714D02*
X203391429Y-137568333D01*
X203391429Y-137568333D02*
X203296191Y-137615952D01*
X204867620Y-136377857D02*
X204915239Y-136330238D01*
X204915239Y-136330238D02*
X205010477Y-136282619D01*
X205010477Y-136282619D02*
X205248572Y-136282619D01*
X205248572Y-136282619D02*
X205343810Y-136330238D01*
X205343810Y-136330238D02*
X205391429Y-136377857D01*
X205391429Y-136377857D02*
X205439048Y-136473095D01*
X205439048Y-136473095D02*
X205439048Y-136568333D01*
X205439048Y-136568333D02*
X205391429Y-136711190D01*
X205391429Y-136711190D02*
X204820001Y-137282619D01*
X204820001Y-137282619D02*
X205439048Y-137282619D01*
X206058096Y-136282619D02*
X206153334Y-136282619D01*
X206153334Y-136282619D02*
X206248572Y-136330238D01*
X206248572Y-136330238D02*
X206296191Y-136377857D01*
X206296191Y-136377857D02*
X206343810Y-136473095D01*
X206343810Y-136473095D02*
X206391429Y-136663571D01*
X206391429Y-136663571D02*
X206391429Y-136901666D01*
X206391429Y-136901666D02*
X206343810Y-137092142D01*
X206343810Y-137092142D02*
X206296191Y-137187380D01*
X206296191Y-137187380D02*
X206248572Y-137235000D01*
X206248572Y-137235000D02*
X206153334Y-137282619D01*
X206153334Y-137282619D02*
X206058096Y-137282619D01*
X206058096Y-137282619D02*
X205962858Y-137235000D01*
X205962858Y-137235000D02*
X205915239Y-137187380D01*
X205915239Y-137187380D02*
X205867620Y-137092142D01*
X205867620Y-137092142D02*
X205820001Y-136901666D01*
X205820001Y-136901666D02*
X205820001Y-136663571D01*
X205820001Y-136663571D02*
X205867620Y-136473095D01*
X205867620Y-136473095D02*
X205915239Y-136377857D01*
X205915239Y-136377857D02*
X205962858Y-136330238D01*
X205962858Y-136330238D02*
X206058096Y-136282619D01*
X206772382Y-136377857D02*
X206820001Y-136330238D01*
X206820001Y-136330238D02*
X206915239Y-136282619D01*
X206915239Y-136282619D02*
X207153334Y-136282619D01*
X207153334Y-136282619D02*
X207248572Y-136330238D01*
X207248572Y-136330238D02*
X207296191Y-136377857D01*
X207296191Y-136377857D02*
X207343810Y-136473095D01*
X207343810Y-136473095D02*
X207343810Y-136568333D01*
X207343810Y-136568333D02*
X207296191Y-136711190D01*
X207296191Y-136711190D02*
X206724763Y-137282619D01*
X206724763Y-137282619D02*
X207343810Y-137282619D01*
X207677144Y-136282619D02*
X208296191Y-136282619D01*
X208296191Y-136282619D02*
X207962858Y-136663571D01*
X207962858Y-136663571D02*
X208105715Y-136663571D01*
X208105715Y-136663571D02*
X208200953Y-136711190D01*
X208200953Y-136711190D02*
X208248572Y-136758809D01*
X208248572Y-136758809D02*
X208296191Y-136854047D01*
X208296191Y-136854047D02*
X208296191Y-137092142D01*
X208296191Y-137092142D02*
X208248572Y-137187380D01*
X208248572Y-137187380D02*
X208200953Y-137235000D01*
X208200953Y-137235000D02*
X208105715Y-137282619D01*
X208105715Y-137282619D02*
X207820001Y-137282619D01*
X207820001Y-137282619D02*
X207724763Y-137235000D01*
X207724763Y-137235000D02*
X207677144Y-137187380D01*
D20*
%TO.C,C6*%
X224855500Y-74264400D03*
X222780500Y-74264400D03*
%TD*%
D21*
%TO.C,C5*%
X210880000Y-58562500D03*
X210880000Y-60637500D03*
%TD*%
D22*
%TO.C,R20*%
X232216000Y-83983800D03*
X232216000Y-85983800D03*
%TD*%
D23*
%TO.C,C7*%
X205038000Y-68075000D03*
X205038000Y-66000000D03*
%TD*%
D24*
%TO.C,*%
X175320000Y-122080000D03*
%TD*%
D25*
%TO.C,R10*%
X165725000Y-81200000D03*
X164075000Y-81200000D03*
%TD*%
D26*
%TO.C,U1*%
X219987500Y-97147300D03*
X219987500Y-96197300D03*
X219987500Y-95247300D03*
X217367500Y-95247300D03*
X217367500Y-96197300D03*
X217367500Y-97147300D03*
%TD*%
D27*
%TO.C,*%
X162100000Y-111545000D03*
%TD*%
D28*
%TO.C,J1*%
X168995000Y-91200000D03*
X168995000Y-92700000D03*
X168995000Y-94200000D03*
X168995000Y-95700000D03*
X168995000Y-97200000D03*
D29*
X163805000Y-88595000D03*
X163805000Y-99805000D03*
%TD*%
D30*
%TO.C,TP2*%
X243736500Y-97408000D03*
%TD*%
D31*
%TO.C,L1*%
X210880000Y-96197300D03*
X213855000Y-96197300D03*
%TD*%
D22*
%TO.C,R2*%
X211896000Y-86269800D03*
X211896000Y-88269800D03*
%TD*%
D32*
%TO.C,R3*%
X196402000Y-68000000D03*
X196402000Y-66000000D03*
%TD*%
D22*
%TO.C,R9*%
X238566000Y-92365800D03*
X238566000Y-94365800D03*
%TD*%
D32*
%TO.C,R5*%
X200720000Y-68000000D03*
X200720000Y-66000000D03*
%TD*%
D23*
%TO.C,C1*%
X215198000Y-88323300D03*
X215198000Y-86248300D03*
%TD*%
D33*
%TO.C,U$9*%
X174800000Y-107100000D03*
%TD*%
D22*
%TO.C,R1*%
X217992000Y-86291300D03*
X217992000Y-88291300D03*
%TD*%
D30*
%TO.C,TP3*%
X243736500Y-91058000D03*
%TD*%
D34*
%TO.C,TP4*%
X243800000Y-84200000D03*
%TD*%
D35*
%TO.C,R8*%
X173050000Y-98125000D03*
X173050000Y-99775000D03*
%TD*%
D27*
%TO.C,*%
X162100000Y-106465000D03*
%TD*%
D24*
%TO.C,*%
X231320000Y-122080000D03*
%TD*%
D36*
%TO.C,C8*%
X167225000Y-72910000D03*
X168775000Y-72910000D03*
%TD*%
D23*
%TO.C,C18*%
X201990000Y-88323300D03*
X201990000Y-86248300D03*
%TD*%
D37*
%TO.C,L2*%
X205546000Y-88344800D03*
X205546000Y-86294800D03*
%TD*%
D38*
%TO.C,R7*%
X224818000Y-63190000D03*
X222818000Y-63190000D03*
%TD*%
D24*
%TO.C,*%
X175320000Y-66080000D03*
%TD*%
D22*
%TO.C,R4*%
X237804000Y-83745800D03*
X237804000Y-85745800D03*
%TD*%
%TO.C,R24*%
X234756000Y-92365800D03*
X234756000Y-94365800D03*
%TD*%
D39*
%TO.C,R12*%
X164775000Y-71300000D03*
X166425000Y-71300000D03*
%TD*%
D30*
%TO.C,TP1*%
X243736500Y-103758000D03*
%TD*%
D24*
%TO.C,*%
X231320000Y-66080000D03*
%TD*%
D40*
%TO.C,U2*%
X215198000Y-74366000D03*
X215198000Y-73096000D03*
X215198000Y-71826000D03*
X215198000Y-70556000D03*
X210248000Y-70556000D03*
X210248000Y-71826000D03*
X210248000Y-73096000D03*
X210248000Y-74366000D03*
%TD*%
D23*
%TO.C,C2*%
X208848000Y-88344800D03*
X208848000Y-86269800D03*
%TD*%
D38*
%TO.C,R6*%
X224843400Y-59176800D03*
X222843400Y-59176800D03*
%TD*%
D41*
%TO.C,D2*%
X225366400Y-66847600D03*
X222066400Y-66847600D03*
%TD*%
%TO.C,D1*%
X225391800Y-70505200D03*
X222091800Y-70505200D03*
%TD*%
D23*
%TO.C,C14*%
X230946000Y-94440800D03*
X230946000Y-92365800D03*
%TD*%
D27*
%TO.C,*%
X162100000Y-114085000D03*
%TD*%
D21*
%TO.C,C3*%
X221294000Y-86291300D03*
X221294000Y-88366300D03*
%TD*%
D39*
%TO.C,R11*%
X163975000Y-72900000D03*
X165625000Y-72900000D03*
%TD*%
D27*
%TO.C,*%
X162100000Y-109005000D03*
%TD*%
D42*
%TO.C,U3*%
X165920000Y-79530000D03*
X166420000Y-79530000D03*
X166920000Y-79530000D03*
X167420000Y-79530000D03*
X167920000Y-79530000D03*
X167920000Y-75230000D03*
X167420000Y-75230000D03*
X166920000Y-75230000D03*
X166420000Y-75230000D03*
X165920000Y-75230000D03*
%TD*%
D21*
%TO.C,C4*%
X214400000Y-58562500D03*
X214400000Y-60637500D03*
%TD*%
G36*
X167757000Y-134596881D02*
G01*
X167803119Y-134643000D01*
X167820000Y-134706000D01*
X167820000Y-139454000D01*
X167803119Y-139517000D01*
X167757000Y-139563119D01*
X167694000Y-139580000D01*
X161372190Y-139580000D01*
X161323972Y-139570409D01*
X161283095Y-139543095D01*
X159856905Y-138116905D01*
X159829591Y-138076028D01*
X159820000Y-138027810D01*
X159820000Y-137206740D01*
X161108792Y-137206740D01*
X161144112Y-137453467D01*
X161217827Y-137691557D01*
X161328103Y-137915084D01*
X161472181Y-138118460D01*
X161646477Y-138296625D01*
X161846648Y-138445138D01*
X162067692Y-138560287D01*
X162304114Y-138639213D01*
X162549995Y-138680000D01*
X165300196Y-138705008D01*
X165550493Y-138685311D01*
X165794631Y-138626698D01*
X166026585Y-138530619D01*
X166240665Y-138399431D01*
X166431577Y-138236378D01*
X166594630Y-138045466D01*
X166725818Y-137831387D01*
X166821898Y-137599431D01*
X166880509Y-137355297D01*
X166900208Y-137105000D01*
X166880509Y-136854702D01*
X166821898Y-136610568D01*
X166725818Y-136378612D01*
X166594630Y-136164533D01*
X166431577Y-135973621D01*
X166240665Y-135810568D01*
X166026585Y-135679380D01*
X165794629Y-135583301D01*
X165550490Y-135524687D01*
X165300199Y-135505008D01*
X162599976Y-135530792D01*
X162352913Y-135563698D01*
X162114112Y-135635081D01*
X161889520Y-135743164D01*
X161684742Y-135885248D01*
X161504880Y-136057794D01*
X161354420Y-136256498D01*
X161237110Y-136476411D01*
X161155878Y-136712044D01*
X161112746Y-136957527D01*
X161108792Y-137206740D01*
X159820000Y-137206740D01*
X159820000Y-134706000D01*
X159836881Y-134643000D01*
X159883000Y-134596881D01*
X159946000Y-134580000D01*
X167694000Y-134580000D01*
X167757000Y-134596881D01*
G37*
G36*
X166816028Y-48589591D02*
G01*
X166856905Y-48616905D01*
X168283095Y-50043095D01*
X168310409Y-50083972D01*
X168320000Y-50132190D01*
X168320000Y-53027810D01*
X168310409Y-53076028D01*
X168283095Y-53116905D01*
X166856905Y-54543095D01*
X166816028Y-54570409D01*
X166767810Y-54580000D01*
X159946000Y-54580000D01*
X159883000Y-54563119D01*
X159836881Y-54517000D01*
X159820000Y-54454000D01*
X159820000Y-51546740D01*
X161138583Y-51546740D01*
X161173903Y-51793467D01*
X161247621Y-52031564D01*
X161357894Y-52255087D01*
X161501972Y-52458463D01*
X161676276Y-52636634D01*
X161876443Y-52785145D01*
X162097490Y-52900296D01*
X162333911Y-52979222D01*
X162579801Y-53019991D01*
X165329998Y-53044999D01*
X165580295Y-53025300D01*
X165824428Y-52966689D01*
X166056383Y-52870610D01*
X166270460Y-52739423D01*
X166461371Y-52576371D01*
X166624423Y-52385460D01*
X166755610Y-52171383D01*
X166851689Y-51939428D01*
X166910301Y-51695295D01*
X166929999Y-51445000D01*
X166910301Y-51194704D01*
X166851689Y-50950571D01*
X166755610Y-50718616D01*
X166624423Y-50504539D01*
X166461371Y-50313628D01*
X166270460Y-50150576D01*
X166056383Y-50019389D01*
X165824428Y-49923310D01*
X165580295Y-49864699D01*
X165329992Y-49845000D01*
X162629778Y-49870783D01*
X162382714Y-49903689D01*
X162143908Y-49975073D01*
X161919320Y-50083153D01*
X161714538Y-50225240D01*
X161534672Y-50397788D01*
X161384214Y-50596490D01*
X161266901Y-50816408D01*
X161185670Y-51052038D01*
X161142537Y-51297527D01*
X161138583Y-51546740D01*
X159820000Y-51546740D01*
X159820000Y-48706000D01*
X159836881Y-48643000D01*
X159883000Y-48596881D01*
X159946000Y-48580000D01*
X166767810Y-48580000D01*
X166816028Y-48589591D01*
G37*
G36*
X245757000Y-134596881D02*
G01*
X245803119Y-134643000D01*
X245820000Y-134706000D01*
X245820000Y-137823332D01*
X245803934Y-137884899D01*
X245636680Y-138183551D01*
X245631511Y-138191986D01*
X245484354Y-138412221D01*
X245468685Y-138431314D01*
X244356906Y-139543095D01*
X244316028Y-139570409D01*
X244267810Y-139580000D01*
X236446000Y-139580000D01*
X236383000Y-139563119D01*
X236336881Y-139517000D01*
X236320000Y-139454000D01*
X236320000Y-137089607D01*
X237325193Y-137089607D01*
X237341026Y-137338745D01*
X237396025Y-137582251D01*
X237488805Y-137814005D01*
X237617043Y-138028196D01*
X237777507Y-138219430D01*
X237966174Y-138382909D01*
X238178296Y-138514521D01*
X238408558Y-138610970D01*
X238651154Y-138669821D01*
X238900022Y-138689604D01*
X242750011Y-138739604D01*
X243000305Y-138719896D01*
X243244433Y-138661283D01*
X243476391Y-138565203D01*
X243690458Y-138434019D01*
X243881375Y-138270960D01*
X244044423Y-138080054D01*
X244175609Y-137865978D01*
X244271686Y-137634025D01*
X244330298Y-137389892D01*
X244349995Y-137139599D01*
X244330298Y-136889307D01*
X244271686Y-136645174D01*
X244175609Y-136413221D01*
X244044423Y-136199145D01*
X243881375Y-136008239D01*
X243690458Y-135845180D01*
X243476391Y-135713996D01*
X243244432Y-135617916D01*
X243000311Y-135559305D01*
X242750006Y-135539604D01*
X238949997Y-135540397D01*
X238700626Y-135552265D01*
X238456285Y-135603390D01*
X238223082Y-135692482D01*
X238006886Y-135817300D01*
X237813127Y-135974710D01*
X237646678Y-136160754D01*
X237511708Y-136370768D01*
X237411622Y-136599456D01*
X237348923Y-136841106D01*
X237325193Y-137089607D01*
X236320000Y-137089607D01*
X236320000Y-134706000D01*
X236336881Y-134643000D01*
X236383000Y-134596881D01*
X236446000Y-134580000D01*
X245694000Y-134580000D01*
X245757000Y-134596881D01*
G37*
G36*
X244316028Y-48589591D02*
G01*
X244356905Y-48616905D01*
X245783095Y-50043095D01*
X245810409Y-50083972D01*
X245820000Y-50132190D01*
X245820000Y-53027810D01*
X245810409Y-53076028D01*
X245783095Y-53116905D01*
X244356905Y-54543095D01*
X244316028Y-54570409D01*
X244267810Y-54580000D01*
X235946000Y-54580000D01*
X235883000Y-54563119D01*
X235836881Y-54517000D01*
X235820000Y-54454000D01*
X235820000Y-51345008D01*
X237355197Y-51345008D01*
X237371030Y-51594142D01*
X237426028Y-51837644D01*
X237518808Y-52069404D01*
X237647043Y-52283590D01*
X237807509Y-52474826D01*
X237996166Y-52638297D01*
X238208291Y-52769915D01*
X238438550Y-52866363D01*
X238681143Y-52925215D01*
X238930011Y-52945000D01*
X242779991Y-52994999D01*
X243030295Y-52975300D01*
X243274428Y-52916689D01*
X243506383Y-52820610D01*
X243720460Y-52689423D01*
X243911371Y-52526371D01*
X244074423Y-52335460D01*
X244205610Y-52121383D01*
X244301689Y-51889428D01*
X244360301Y-51645295D01*
X244379999Y-51394999D01*
X244360301Y-51144704D01*
X244301689Y-50900571D01*
X244205610Y-50668616D01*
X244074423Y-50454539D01*
X243911371Y-50263628D01*
X243720460Y-50100576D01*
X243506383Y-49969389D01*
X243274428Y-49873310D01*
X243030295Y-49814699D01*
X242779995Y-49795000D01*
X238979968Y-49795793D01*
X238730619Y-49807670D01*
X238486276Y-49858796D01*
X238253074Y-49947889D01*
X238036887Y-50072704D01*
X237843123Y-50230121D01*
X237676678Y-50416160D01*
X237541710Y-50626174D01*
X237441624Y-50854862D01*
X237378927Y-51096505D01*
X237355197Y-51345008D01*
X235820000Y-51345008D01*
X235820000Y-48706000D01*
X235836881Y-48643000D01*
X235883000Y-48596881D01*
X235946000Y-48580000D01*
X244267810Y-48580000D01*
X244316028Y-48589591D01*
G37*
M02*
