%TF.GenerationSoftware,KiCad,Pcbnew,7.0.1-0*%
%TF.CreationDate,2023-03-22T23:36:25-07:00*%
%TF.ProjectId,Cosmic_Watch_Rev7_Nano_Revised,436f736d-6963-45f5-9761-7463685f5265,6.1*%
%TF.SameCoordinates,Original*%
%TF.FileFunction,Soldermask,Top*%
%TF.FilePolarity,Negative*%
%FSLAX46Y46*%
G04 Gerber Fmt 4.6, Leading zero omitted, Abs format (unit mm)*
G04 Created by KiCad (PCBNEW 7.0.1-0) date 2023-03-22 23:36:25*
%MOMM*%
%LPD*%
G01*
G04 APERTURE LIST*
G04 Aperture macros list*
%AMRoundRect*
0 Rectangle with rounded corners*
0 $1 Rounding radius*
0 $2 $3 $4 $5 $6 $7 $8 $9 X,Y pos of 4 corners*
0 Add a 4 corners polygon primitive as box body*
4,1,4,$2,$3,$4,$5,$6,$7,$8,$9,$2,$3,0*
0 Add four circle primitives for the rounded corners*
1,1,$1+$1,$2,$3*
1,1,$1+$1,$4,$5*
1,1,$1+$1,$6,$7*
1,1,$1+$1,$8,$9*
0 Add four rect primitives between the rounded corners*
20,1,$1+$1,$2,$3,$4,$5,0*
20,1,$1+$1,$4,$5,$6,$7,0*
20,1,$1+$1,$6,$7,$8,$9,0*
20,1,$1+$1,$8,$9,$2,$3,0*%
G04 Aperture macros list end*
%ADD10C,0.150000*%
%ADD11RoundRect,0.250000X0.337500X0.475000X-0.337500X0.475000X-0.337500X-0.475000X0.337500X-0.475000X0*%
%ADD12RoundRect,0.250000X-0.475000X0.337500X-0.475000X-0.337500X0.475000X-0.337500X0.475000X0.337500X0*%
%ADD13RoundRect,0.249999X-0.450001X0.350001X-0.450001X-0.350001X0.450001X-0.350001X0.450001X0.350001X0*%
%ADD14RoundRect,0.250000X0.475000X-0.337500X0.475000X0.337500X-0.475000X0.337500X-0.475000X-0.337500X0*%
%ADD15C,5.000000*%
%ADD16RoundRect,0.200000X0.200000X0.275000X-0.200000X0.275000X-0.200000X-0.275000X0.200000X-0.275000X0*%
%ADD17R,1.220000X0.650000*%
%ADD18C,1.879600*%
%ADD19RoundRect,0.150000X-0.350000X0.150000X-0.350000X-0.150000X0.350000X-0.150000X0.350000X0.150000X0*%
%ADD20RoundRect,0.250000X-0.650000X0.375000X-0.650000X-0.375000X0.650000X-0.375000X0.650000X0.375000X0*%
%ADD21C,3.000000*%
%ADD22RoundRect,0.250000X-0.462500X-1.075000X0.462500X-1.075000X0.462500X1.075000X-0.462500X1.075000X0*%
%ADD23RoundRect,0.249999X0.450001X-0.350001X0.450001X0.350001X-0.450001X0.350001X-0.450001X-0.350001X0*%
%ADD24C,3.301600*%
%ADD25R,4.000000X4.000000*%
%ADD26RoundRect,0.200000X-0.275000X0.200000X-0.275000X-0.200000X0.275000X-0.200000X0.275000X0.200000X0*%
%ADD27RoundRect,0.225000X-0.225000X-0.250000X0.225000X-0.250000X0.225000X0.250000X-0.225000X0.250000X0*%
%ADD28RoundRect,0.249999X0.450001X-0.325001X0.450001X0.325001X-0.450001X0.325001X-0.450001X-0.325001X0*%
%ADD29RoundRect,0.249999X0.350001X0.450001X-0.350001X0.450001X-0.350001X-0.450001X0.350001X-0.450001X0*%
%ADD30RoundRect,0.200000X-0.200000X-0.275000X0.200000X-0.275000X0.200000X0.275000X-0.200000X0.275000X0*%
%ADD31RoundRect,0.150000X0.825000X0.150000X-0.825000X0.150000X-0.825000X-0.150000X0.825000X-0.150000X0*%
%ADD32R,0.900000X1.200000*%
%ADD33R,0.250000X1.100000*%
G04 APERTURE END LIST*
D10*
X193867618Y-130707380D02*
X193819999Y-130755000D01*
X193819999Y-130755000D02*
X193677142Y-130802619D01*
X193677142Y-130802619D02*
X193581904Y-130802619D01*
X193581904Y-130802619D02*
X193439047Y-130755000D01*
X193439047Y-130755000D02*
X193343809Y-130659761D01*
X193343809Y-130659761D02*
X193296190Y-130564523D01*
X193296190Y-130564523D02*
X193248571Y-130374047D01*
X193248571Y-130374047D02*
X193248571Y-130231190D01*
X193248571Y-130231190D02*
X193296190Y-130040714D01*
X193296190Y-130040714D02*
X193343809Y-129945476D01*
X193343809Y-129945476D02*
X193439047Y-129850238D01*
X193439047Y-129850238D02*
X193581904Y-129802619D01*
X193581904Y-129802619D02*
X193677142Y-129802619D01*
X193677142Y-129802619D02*
X193819999Y-129850238D01*
X193819999Y-129850238D02*
X193867618Y-129897857D01*
X194439047Y-130802619D02*
X194343809Y-130755000D01*
X194343809Y-130755000D02*
X194296190Y-130707380D01*
X194296190Y-130707380D02*
X194248571Y-130612142D01*
X194248571Y-130612142D02*
X194248571Y-130326428D01*
X194248571Y-130326428D02*
X194296190Y-130231190D01*
X194296190Y-130231190D02*
X194343809Y-130183571D01*
X194343809Y-130183571D02*
X194439047Y-130135952D01*
X194439047Y-130135952D02*
X194581904Y-130135952D01*
X194581904Y-130135952D02*
X194677142Y-130183571D01*
X194677142Y-130183571D02*
X194724761Y-130231190D01*
X194724761Y-130231190D02*
X194772380Y-130326428D01*
X194772380Y-130326428D02*
X194772380Y-130612142D01*
X194772380Y-130612142D02*
X194724761Y-130707380D01*
X194724761Y-130707380D02*
X194677142Y-130755000D01*
X194677142Y-130755000D02*
X194581904Y-130802619D01*
X194581904Y-130802619D02*
X194439047Y-130802619D01*
X195153333Y-130755000D02*
X195248571Y-130802619D01*
X195248571Y-130802619D02*
X195439047Y-130802619D01*
X195439047Y-130802619D02*
X195534285Y-130755000D01*
X195534285Y-130755000D02*
X195581904Y-130659761D01*
X195581904Y-130659761D02*
X195581904Y-130612142D01*
X195581904Y-130612142D02*
X195534285Y-130516904D01*
X195534285Y-130516904D02*
X195439047Y-130469285D01*
X195439047Y-130469285D02*
X195296190Y-130469285D01*
X195296190Y-130469285D02*
X195200952Y-130421666D01*
X195200952Y-130421666D02*
X195153333Y-130326428D01*
X195153333Y-130326428D02*
X195153333Y-130278809D01*
X195153333Y-130278809D02*
X195200952Y-130183571D01*
X195200952Y-130183571D02*
X195296190Y-130135952D01*
X195296190Y-130135952D02*
X195439047Y-130135952D01*
X195439047Y-130135952D02*
X195534285Y-130183571D01*
X196010476Y-130802619D02*
X196010476Y-130135952D01*
X196010476Y-130231190D02*
X196058095Y-130183571D01*
X196058095Y-130183571D02*
X196153333Y-130135952D01*
X196153333Y-130135952D02*
X196296190Y-130135952D01*
X196296190Y-130135952D02*
X196391428Y-130183571D01*
X196391428Y-130183571D02*
X196439047Y-130278809D01*
X196439047Y-130278809D02*
X196439047Y-130802619D01*
X196439047Y-130278809D02*
X196486666Y-130183571D01*
X196486666Y-130183571D02*
X196581904Y-130135952D01*
X196581904Y-130135952D02*
X196724761Y-130135952D01*
X196724761Y-130135952D02*
X196820000Y-130183571D01*
X196820000Y-130183571D02*
X196867619Y-130278809D01*
X196867619Y-130278809D02*
X196867619Y-130802619D01*
X197343809Y-130802619D02*
X197343809Y-130135952D01*
X197343809Y-129802619D02*
X197296190Y-129850238D01*
X197296190Y-129850238D02*
X197343809Y-129897857D01*
X197343809Y-129897857D02*
X197391428Y-129850238D01*
X197391428Y-129850238D02*
X197343809Y-129802619D01*
X197343809Y-129802619D02*
X197343809Y-129897857D01*
X198248570Y-130755000D02*
X198153332Y-130802619D01*
X198153332Y-130802619D02*
X197962856Y-130802619D01*
X197962856Y-130802619D02*
X197867618Y-130755000D01*
X197867618Y-130755000D02*
X197819999Y-130707380D01*
X197819999Y-130707380D02*
X197772380Y-130612142D01*
X197772380Y-130612142D02*
X197772380Y-130326428D01*
X197772380Y-130326428D02*
X197819999Y-130231190D01*
X197819999Y-130231190D02*
X197867618Y-130183571D01*
X197867618Y-130183571D02*
X197962856Y-130135952D01*
X197962856Y-130135952D02*
X198153332Y-130135952D01*
X198153332Y-130135952D02*
X198248570Y-130183571D01*
X199343809Y-129802619D02*
X199581904Y-130802619D01*
X199581904Y-130802619D02*
X199772380Y-130088333D01*
X199772380Y-130088333D02*
X199962856Y-130802619D01*
X199962856Y-130802619D02*
X200200952Y-129802619D01*
X201010475Y-130802619D02*
X201010475Y-130278809D01*
X201010475Y-130278809D02*
X200962856Y-130183571D01*
X200962856Y-130183571D02*
X200867618Y-130135952D01*
X200867618Y-130135952D02*
X200677142Y-130135952D01*
X200677142Y-130135952D02*
X200581904Y-130183571D01*
X201010475Y-130755000D02*
X200915237Y-130802619D01*
X200915237Y-130802619D02*
X200677142Y-130802619D01*
X200677142Y-130802619D02*
X200581904Y-130755000D01*
X200581904Y-130755000D02*
X200534285Y-130659761D01*
X200534285Y-130659761D02*
X200534285Y-130564523D01*
X200534285Y-130564523D02*
X200581904Y-130469285D01*
X200581904Y-130469285D02*
X200677142Y-130421666D01*
X200677142Y-130421666D02*
X200915237Y-130421666D01*
X200915237Y-130421666D02*
X201010475Y-130374047D01*
X201343809Y-130135952D02*
X201724761Y-130135952D01*
X201486666Y-129802619D02*
X201486666Y-130659761D01*
X201486666Y-130659761D02*
X201534285Y-130755000D01*
X201534285Y-130755000D02*
X201629523Y-130802619D01*
X201629523Y-130802619D02*
X201724761Y-130802619D01*
X202486666Y-130755000D02*
X202391428Y-130802619D01*
X202391428Y-130802619D02*
X202200952Y-130802619D01*
X202200952Y-130802619D02*
X202105714Y-130755000D01*
X202105714Y-130755000D02*
X202058095Y-130707380D01*
X202058095Y-130707380D02*
X202010476Y-130612142D01*
X202010476Y-130612142D02*
X202010476Y-130326428D01*
X202010476Y-130326428D02*
X202058095Y-130231190D01*
X202058095Y-130231190D02*
X202105714Y-130183571D01*
X202105714Y-130183571D02*
X202200952Y-130135952D01*
X202200952Y-130135952D02*
X202391428Y-130135952D01*
X202391428Y-130135952D02*
X202486666Y-130183571D01*
X202915238Y-130802619D02*
X202915238Y-129802619D01*
X203343809Y-130802619D02*
X203343809Y-130278809D01*
X203343809Y-130278809D02*
X203296190Y-130183571D01*
X203296190Y-130183571D02*
X203200952Y-130135952D01*
X203200952Y-130135952D02*
X203058095Y-130135952D01*
X203058095Y-130135952D02*
X202962857Y-130183571D01*
X202962857Y-130183571D02*
X202915238Y-130231190D01*
X205153333Y-130802619D02*
X204820000Y-130326428D01*
X204581905Y-130802619D02*
X204581905Y-129802619D01*
X204581905Y-129802619D02*
X204962857Y-129802619D01*
X204962857Y-129802619D02*
X205058095Y-129850238D01*
X205058095Y-129850238D02*
X205105714Y-129897857D01*
X205105714Y-129897857D02*
X205153333Y-129993095D01*
X205153333Y-129993095D02*
X205153333Y-130135952D01*
X205153333Y-130135952D02*
X205105714Y-130231190D01*
X205105714Y-130231190D02*
X205058095Y-130278809D01*
X205058095Y-130278809D02*
X204962857Y-130326428D01*
X204962857Y-130326428D02*
X204581905Y-130326428D01*
X205962857Y-130755000D02*
X205867619Y-130802619D01*
X205867619Y-130802619D02*
X205677143Y-130802619D01*
X205677143Y-130802619D02*
X205581905Y-130755000D01*
X205581905Y-130755000D02*
X205534286Y-130659761D01*
X205534286Y-130659761D02*
X205534286Y-130278809D01*
X205534286Y-130278809D02*
X205581905Y-130183571D01*
X205581905Y-130183571D02*
X205677143Y-130135952D01*
X205677143Y-130135952D02*
X205867619Y-130135952D01*
X205867619Y-130135952D02*
X205962857Y-130183571D01*
X205962857Y-130183571D02*
X206010476Y-130278809D01*
X206010476Y-130278809D02*
X206010476Y-130374047D01*
X206010476Y-130374047D02*
X205534286Y-130469285D01*
X206439048Y-130802619D02*
X206439048Y-130135952D01*
X206439048Y-130231190D02*
X206486667Y-130183571D01*
X206486667Y-130183571D02*
X206581905Y-130135952D01*
X206581905Y-130135952D02*
X206724762Y-130135952D01*
X206724762Y-130135952D02*
X206820000Y-130183571D01*
X206820000Y-130183571D02*
X206867619Y-130278809D01*
X206867619Y-130278809D02*
X206867619Y-130802619D01*
X206867619Y-130278809D02*
X206915238Y-130183571D01*
X206915238Y-130183571D02*
X207010476Y-130135952D01*
X207010476Y-130135952D02*
X207153333Y-130135952D01*
X207153333Y-130135952D02*
X207248572Y-130183571D01*
X207248572Y-130183571D02*
X207296191Y-130278809D01*
X207296191Y-130278809D02*
X207296191Y-130802619D01*
X207772381Y-130802619D02*
X207772381Y-130135952D01*
X207772381Y-129802619D02*
X207724762Y-129850238D01*
X207724762Y-129850238D02*
X207772381Y-129897857D01*
X207772381Y-129897857D02*
X207820000Y-129850238D01*
X207820000Y-129850238D02*
X207772381Y-129802619D01*
X207772381Y-129802619D02*
X207772381Y-129897857D01*
X208153333Y-130802619D02*
X208677142Y-130135952D01*
X208153333Y-130135952D02*
X208677142Y-130802619D01*
X209677143Y-129802619D02*
X210010476Y-130802619D01*
X210010476Y-130802619D02*
X210343809Y-129802619D01*
X211200952Y-130802619D02*
X210629524Y-130802619D01*
X210915238Y-130802619D02*
X210915238Y-129802619D01*
X210915238Y-129802619D02*
X210820000Y-129945476D01*
X210820000Y-129945476D02*
X210724762Y-130040714D01*
X210724762Y-130040714D02*
X210629524Y-130088333D01*
X211629524Y-130707380D02*
X211677143Y-130755000D01*
X211677143Y-130755000D02*
X211629524Y-130802619D01*
X211629524Y-130802619D02*
X211581905Y-130755000D01*
X211581905Y-130755000D02*
X211629524Y-130707380D01*
X211629524Y-130707380D02*
X211629524Y-130802619D01*
X212296190Y-129802619D02*
X212391428Y-129802619D01*
X212391428Y-129802619D02*
X212486666Y-129850238D01*
X212486666Y-129850238D02*
X212534285Y-129897857D01*
X212534285Y-129897857D02*
X212581904Y-129993095D01*
X212581904Y-129993095D02*
X212629523Y-130183571D01*
X212629523Y-130183571D02*
X212629523Y-130421666D01*
X212629523Y-130421666D02*
X212581904Y-130612142D01*
X212581904Y-130612142D02*
X212534285Y-130707380D01*
X212534285Y-130707380D02*
X212486666Y-130755000D01*
X212486666Y-130755000D02*
X212391428Y-130802619D01*
X212391428Y-130802619D02*
X212296190Y-130802619D01*
X212296190Y-130802619D02*
X212200952Y-130755000D01*
X212200952Y-130755000D02*
X212153333Y-130707380D01*
X212153333Y-130707380D02*
X212105714Y-130612142D01*
X212105714Y-130612142D02*
X212058095Y-130421666D01*
X212058095Y-130421666D02*
X212058095Y-130183571D01*
X212058095Y-130183571D02*
X212105714Y-129993095D01*
X212105714Y-129993095D02*
X212153333Y-129897857D01*
X212153333Y-129897857D02*
X212200952Y-129850238D01*
X212200952Y-129850238D02*
X212296190Y-129802619D01*
X194486666Y-132422619D02*
X194486666Y-131422619D01*
X194486666Y-131422619D02*
X194819999Y-132136904D01*
X194819999Y-132136904D02*
X195153332Y-131422619D01*
X195153332Y-131422619D02*
X195153332Y-132422619D01*
X196058094Y-132422619D02*
X196058094Y-131898809D01*
X196058094Y-131898809D02*
X196010475Y-131803571D01*
X196010475Y-131803571D02*
X195915237Y-131755952D01*
X195915237Y-131755952D02*
X195724761Y-131755952D01*
X195724761Y-131755952D02*
X195629523Y-131803571D01*
X196058094Y-132375000D02*
X195962856Y-132422619D01*
X195962856Y-132422619D02*
X195724761Y-132422619D01*
X195724761Y-132422619D02*
X195629523Y-132375000D01*
X195629523Y-132375000D02*
X195581904Y-132279761D01*
X195581904Y-132279761D02*
X195581904Y-132184523D01*
X195581904Y-132184523D02*
X195629523Y-132089285D01*
X195629523Y-132089285D02*
X195724761Y-132041666D01*
X195724761Y-132041666D02*
X195962856Y-132041666D01*
X195962856Y-132041666D02*
X196058094Y-131994047D01*
X196962856Y-132422619D02*
X196962856Y-131422619D01*
X196962856Y-132375000D02*
X196867618Y-132422619D01*
X196867618Y-132422619D02*
X196677142Y-132422619D01*
X196677142Y-132422619D02*
X196581904Y-132375000D01*
X196581904Y-132375000D02*
X196534285Y-132327380D01*
X196534285Y-132327380D02*
X196486666Y-132232142D01*
X196486666Y-132232142D02*
X196486666Y-131946428D01*
X196486666Y-131946428D02*
X196534285Y-131851190D01*
X196534285Y-131851190D02*
X196581904Y-131803571D01*
X196581904Y-131803571D02*
X196677142Y-131755952D01*
X196677142Y-131755952D02*
X196867618Y-131755952D01*
X196867618Y-131755952D02*
X196962856Y-131803571D01*
X197819999Y-132375000D02*
X197724761Y-132422619D01*
X197724761Y-132422619D02*
X197534285Y-132422619D01*
X197534285Y-132422619D02*
X197439047Y-132375000D01*
X197439047Y-132375000D02*
X197391428Y-132279761D01*
X197391428Y-132279761D02*
X197391428Y-131898809D01*
X197391428Y-131898809D02*
X197439047Y-131803571D01*
X197439047Y-131803571D02*
X197534285Y-131755952D01*
X197534285Y-131755952D02*
X197724761Y-131755952D01*
X197724761Y-131755952D02*
X197819999Y-131803571D01*
X197819999Y-131803571D02*
X197867618Y-131898809D01*
X197867618Y-131898809D02*
X197867618Y-131994047D01*
X197867618Y-131994047D02*
X197391428Y-132089285D01*
X199391428Y-131898809D02*
X199534285Y-131946428D01*
X199534285Y-131946428D02*
X199581904Y-131994047D01*
X199581904Y-131994047D02*
X199629523Y-132089285D01*
X199629523Y-132089285D02*
X199629523Y-132232142D01*
X199629523Y-132232142D02*
X199581904Y-132327380D01*
X199581904Y-132327380D02*
X199534285Y-132375000D01*
X199534285Y-132375000D02*
X199439047Y-132422619D01*
X199439047Y-132422619D02*
X199058095Y-132422619D01*
X199058095Y-132422619D02*
X199058095Y-131422619D01*
X199058095Y-131422619D02*
X199391428Y-131422619D01*
X199391428Y-131422619D02*
X199486666Y-131470238D01*
X199486666Y-131470238D02*
X199534285Y-131517857D01*
X199534285Y-131517857D02*
X199581904Y-131613095D01*
X199581904Y-131613095D02*
X199581904Y-131708333D01*
X199581904Y-131708333D02*
X199534285Y-131803571D01*
X199534285Y-131803571D02*
X199486666Y-131851190D01*
X199486666Y-131851190D02*
X199391428Y-131898809D01*
X199391428Y-131898809D02*
X199058095Y-131898809D01*
X199962857Y-131755952D02*
X200200952Y-132422619D01*
X200439047Y-131755952D02*
X200200952Y-132422619D01*
X200200952Y-132422619D02*
X200105714Y-132660714D01*
X200105714Y-132660714D02*
X200058095Y-132708333D01*
X200058095Y-132708333D02*
X199962857Y-132755952D01*
X200820000Y-132327380D02*
X200867619Y-132375000D01*
X200867619Y-132375000D02*
X200820000Y-132422619D01*
X200820000Y-132422619D02*
X200772381Y-132375000D01*
X200772381Y-132375000D02*
X200820000Y-132327380D01*
X200820000Y-132327380D02*
X200820000Y-132422619D01*
X200820000Y-131803571D02*
X200867619Y-131851190D01*
X200867619Y-131851190D02*
X200820000Y-131898809D01*
X200820000Y-131898809D02*
X200772381Y-131851190D01*
X200772381Y-131851190D02*
X200820000Y-131803571D01*
X200820000Y-131803571D02*
X200820000Y-131898809D01*
X202058095Y-132422619D02*
X202058095Y-131422619D01*
X202058095Y-131422619D02*
X202391428Y-132136904D01*
X202391428Y-132136904D02*
X202724761Y-131422619D01*
X202724761Y-131422619D02*
X202724761Y-132422619D01*
X203200952Y-132422619D02*
X203200952Y-131755952D01*
X203200952Y-131422619D02*
X203153333Y-131470238D01*
X203153333Y-131470238D02*
X203200952Y-131517857D01*
X203200952Y-131517857D02*
X203248571Y-131470238D01*
X203248571Y-131470238D02*
X203200952Y-131422619D01*
X203200952Y-131422619D02*
X203200952Y-131517857D01*
X204105713Y-132375000D02*
X204010475Y-132422619D01*
X204010475Y-132422619D02*
X203819999Y-132422619D01*
X203819999Y-132422619D02*
X203724761Y-132375000D01*
X203724761Y-132375000D02*
X203677142Y-132327380D01*
X203677142Y-132327380D02*
X203629523Y-132232142D01*
X203629523Y-132232142D02*
X203629523Y-131946428D01*
X203629523Y-131946428D02*
X203677142Y-131851190D01*
X203677142Y-131851190D02*
X203724761Y-131803571D01*
X203724761Y-131803571D02*
X203819999Y-131755952D01*
X203819999Y-131755952D02*
X204010475Y-131755952D01*
X204010475Y-131755952D02*
X204105713Y-131803571D01*
X204534285Y-132422619D02*
X204534285Y-131422619D01*
X204962856Y-132422619D02*
X204962856Y-131898809D01*
X204962856Y-131898809D02*
X204915237Y-131803571D01*
X204915237Y-131803571D02*
X204819999Y-131755952D01*
X204819999Y-131755952D02*
X204677142Y-131755952D01*
X204677142Y-131755952D02*
X204581904Y-131803571D01*
X204581904Y-131803571D02*
X204534285Y-131851190D01*
X205867618Y-132422619D02*
X205867618Y-131898809D01*
X205867618Y-131898809D02*
X205819999Y-131803571D01*
X205819999Y-131803571D02*
X205724761Y-131755952D01*
X205724761Y-131755952D02*
X205534285Y-131755952D01*
X205534285Y-131755952D02*
X205439047Y-131803571D01*
X205867618Y-132375000D02*
X205772380Y-132422619D01*
X205772380Y-132422619D02*
X205534285Y-132422619D01*
X205534285Y-132422619D02*
X205439047Y-132375000D01*
X205439047Y-132375000D02*
X205391428Y-132279761D01*
X205391428Y-132279761D02*
X205391428Y-132184523D01*
X205391428Y-132184523D02*
X205439047Y-132089285D01*
X205439047Y-132089285D02*
X205534285Y-132041666D01*
X205534285Y-132041666D02*
X205772380Y-132041666D01*
X205772380Y-132041666D02*
X205867618Y-131994047D01*
X206724761Y-132375000D02*
X206629523Y-132422619D01*
X206629523Y-132422619D02*
X206439047Y-132422619D01*
X206439047Y-132422619D02*
X206343809Y-132375000D01*
X206343809Y-132375000D02*
X206296190Y-132279761D01*
X206296190Y-132279761D02*
X206296190Y-131898809D01*
X206296190Y-131898809D02*
X206343809Y-131803571D01*
X206343809Y-131803571D02*
X206439047Y-131755952D01*
X206439047Y-131755952D02*
X206629523Y-131755952D01*
X206629523Y-131755952D02*
X206724761Y-131803571D01*
X206724761Y-131803571D02*
X206772380Y-131898809D01*
X206772380Y-131898809D02*
X206772380Y-131994047D01*
X206772380Y-131994047D02*
X206296190Y-132089285D01*
X207343809Y-132422619D02*
X207248571Y-132375000D01*
X207248571Y-132375000D02*
X207200952Y-132279761D01*
X207200952Y-132279761D02*
X207200952Y-131422619D01*
X208486667Y-132422619D02*
X208486667Y-131422619D01*
X208486667Y-131422619D02*
X208867619Y-131422619D01*
X208867619Y-131422619D02*
X208962857Y-131470238D01*
X208962857Y-131470238D02*
X209010476Y-131517857D01*
X209010476Y-131517857D02*
X209058095Y-131613095D01*
X209058095Y-131613095D02*
X209058095Y-131755952D01*
X209058095Y-131755952D02*
X209010476Y-131851190D01*
X209010476Y-131851190D02*
X208962857Y-131898809D01*
X208962857Y-131898809D02*
X208867619Y-131946428D01*
X208867619Y-131946428D02*
X208486667Y-131946428D01*
X209486667Y-132422619D02*
X209486667Y-131422619D01*
X209915238Y-132422619D02*
X209915238Y-131898809D01*
X209915238Y-131898809D02*
X209867619Y-131803571D01*
X209867619Y-131803571D02*
X209772381Y-131755952D01*
X209772381Y-131755952D02*
X209629524Y-131755952D01*
X209629524Y-131755952D02*
X209534286Y-131803571D01*
X209534286Y-131803571D02*
X209486667Y-131851190D01*
X210820000Y-132422619D02*
X210820000Y-131898809D01*
X210820000Y-131898809D02*
X210772381Y-131803571D01*
X210772381Y-131803571D02*
X210677143Y-131755952D01*
X210677143Y-131755952D02*
X210486667Y-131755952D01*
X210486667Y-131755952D02*
X210391429Y-131803571D01*
X210820000Y-132375000D02*
X210724762Y-132422619D01*
X210724762Y-132422619D02*
X210486667Y-132422619D01*
X210486667Y-132422619D02*
X210391429Y-132375000D01*
X210391429Y-132375000D02*
X210343810Y-132279761D01*
X210343810Y-132279761D02*
X210343810Y-132184523D01*
X210343810Y-132184523D02*
X210391429Y-132089285D01*
X210391429Y-132089285D02*
X210486667Y-132041666D01*
X210486667Y-132041666D02*
X210724762Y-132041666D01*
X210724762Y-132041666D02*
X210820000Y-131994047D01*
X211296191Y-132422619D02*
X211296191Y-131755952D01*
X211296191Y-131851190D02*
X211343810Y-131803571D01*
X211343810Y-131803571D02*
X211439048Y-131755952D01*
X211439048Y-131755952D02*
X211581905Y-131755952D01*
X211581905Y-131755952D02*
X211677143Y-131803571D01*
X211677143Y-131803571D02*
X211724762Y-131898809D01*
X211724762Y-131898809D02*
X211724762Y-132422619D01*
X211724762Y-131898809D02*
X211772381Y-131803571D01*
X211772381Y-131803571D02*
X211867619Y-131755952D01*
X211867619Y-131755952D02*
X212010476Y-131755952D01*
X212010476Y-131755952D02*
X212105715Y-131803571D01*
X212105715Y-131803571D02*
X212153334Y-131898809D01*
X212153334Y-131898809D02*
X212153334Y-132422619D01*
X179891425Y-133947380D02*
X179843806Y-133995000D01*
X179843806Y-133995000D02*
X179700949Y-134042619D01*
X179700949Y-134042619D02*
X179605711Y-134042619D01*
X179605711Y-134042619D02*
X179462854Y-133995000D01*
X179462854Y-133995000D02*
X179367616Y-133899761D01*
X179367616Y-133899761D02*
X179319997Y-133804523D01*
X179319997Y-133804523D02*
X179272378Y-133614047D01*
X179272378Y-133614047D02*
X179272378Y-133471190D01*
X179272378Y-133471190D02*
X179319997Y-133280714D01*
X179319997Y-133280714D02*
X179367616Y-133185476D01*
X179367616Y-133185476D02*
X179462854Y-133090238D01*
X179462854Y-133090238D02*
X179605711Y-133042619D01*
X179605711Y-133042619D02*
X179700949Y-133042619D01*
X179700949Y-133042619D02*
X179843806Y-133090238D01*
X179843806Y-133090238D02*
X179891425Y-133137857D01*
X180462854Y-134042619D02*
X180367616Y-133995000D01*
X180367616Y-133995000D02*
X180319997Y-133947380D01*
X180319997Y-133947380D02*
X180272378Y-133852142D01*
X180272378Y-133852142D02*
X180272378Y-133566428D01*
X180272378Y-133566428D02*
X180319997Y-133471190D01*
X180319997Y-133471190D02*
X180367616Y-133423571D01*
X180367616Y-133423571D02*
X180462854Y-133375952D01*
X180462854Y-133375952D02*
X180605711Y-133375952D01*
X180605711Y-133375952D02*
X180700949Y-133423571D01*
X180700949Y-133423571D02*
X180748568Y-133471190D01*
X180748568Y-133471190D02*
X180796187Y-133566428D01*
X180796187Y-133566428D02*
X180796187Y-133852142D01*
X180796187Y-133852142D02*
X180748568Y-133947380D01*
X180748568Y-133947380D02*
X180700949Y-133995000D01*
X180700949Y-133995000D02*
X180605711Y-134042619D01*
X180605711Y-134042619D02*
X180462854Y-134042619D01*
X181177140Y-133995000D02*
X181272378Y-134042619D01*
X181272378Y-134042619D02*
X181462854Y-134042619D01*
X181462854Y-134042619D02*
X181558092Y-133995000D01*
X181558092Y-133995000D02*
X181605711Y-133899761D01*
X181605711Y-133899761D02*
X181605711Y-133852142D01*
X181605711Y-133852142D02*
X181558092Y-133756904D01*
X181558092Y-133756904D02*
X181462854Y-133709285D01*
X181462854Y-133709285D02*
X181319997Y-133709285D01*
X181319997Y-133709285D02*
X181224759Y-133661666D01*
X181224759Y-133661666D02*
X181177140Y-133566428D01*
X181177140Y-133566428D02*
X181177140Y-133518809D01*
X181177140Y-133518809D02*
X181224759Y-133423571D01*
X181224759Y-133423571D02*
X181319997Y-133375952D01*
X181319997Y-133375952D02*
X181462854Y-133375952D01*
X181462854Y-133375952D02*
X181558092Y-133423571D01*
X182034283Y-134042619D02*
X182034283Y-133375952D01*
X182034283Y-133471190D02*
X182081902Y-133423571D01*
X182081902Y-133423571D02*
X182177140Y-133375952D01*
X182177140Y-133375952D02*
X182319997Y-133375952D01*
X182319997Y-133375952D02*
X182415235Y-133423571D01*
X182415235Y-133423571D02*
X182462854Y-133518809D01*
X182462854Y-133518809D02*
X182462854Y-134042619D01*
X182462854Y-133518809D02*
X182510473Y-133423571D01*
X182510473Y-133423571D02*
X182605711Y-133375952D01*
X182605711Y-133375952D02*
X182748568Y-133375952D01*
X182748568Y-133375952D02*
X182843807Y-133423571D01*
X182843807Y-133423571D02*
X182891426Y-133518809D01*
X182891426Y-133518809D02*
X182891426Y-134042619D01*
X183367616Y-134042619D02*
X183367616Y-133375952D01*
X183367616Y-133042619D02*
X183319997Y-133090238D01*
X183319997Y-133090238D02*
X183367616Y-133137857D01*
X183367616Y-133137857D02*
X183415235Y-133090238D01*
X183415235Y-133090238D02*
X183367616Y-133042619D01*
X183367616Y-133042619D02*
X183367616Y-133137857D01*
X184272377Y-133995000D02*
X184177139Y-134042619D01*
X184177139Y-134042619D02*
X183986663Y-134042619D01*
X183986663Y-134042619D02*
X183891425Y-133995000D01*
X183891425Y-133995000D02*
X183843806Y-133947380D01*
X183843806Y-133947380D02*
X183796187Y-133852142D01*
X183796187Y-133852142D02*
X183796187Y-133566428D01*
X183796187Y-133566428D02*
X183843806Y-133471190D01*
X183843806Y-133471190D02*
X183891425Y-133423571D01*
X183891425Y-133423571D02*
X183986663Y-133375952D01*
X183986663Y-133375952D02*
X184177139Y-133375952D01*
X184177139Y-133375952D02*
X184272377Y-133423571D01*
X185367616Y-133042619D02*
X185605711Y-134042619D01*
X185605711Y-134042619D02*
X185796187Y-133328333D01*
X185796187Y-133328333D02*
X185986663Y-134042619D01*
X185986663Y-134042619D02*
X186224759Y-133042619D01*
X187034282Y-134042619D02*
X187034282Y-133518809D01*
X187034282Y-133518809D02*
X186986663Y-133423571D01*
X186986663Y-133423571D02*
X186891425Y-133375952D01*
X186891425Y-133375952D02*
X186700949Y-133375952D01*
X186700949Y-133375952D02*
X186605711Y-133423571D01*
X187034282Y-133995000D02*
X186939044Y-134042619D01*
X186939044Y-134042619D02*
X186700949Y-134042619D01*
X186700949Y-134042619D02*
X186605711Y-133995000D01*
X186605711Y-133995000D02*
X186558092Y-133899761D01*
X186558092Y-133899761D02*
X186558092Y-133804523D01*
X186558092Y-133804523D02*
X186605711Y-133709285D01*
X186605711Y-133709285D02*
X186700949Y-133661666D01*
X186700949Y-133661666D02*
X186939044Y-133661666D01*
X186939044Y-133661666D02*
X187034282Y-133614047D01*
X187367616Y-133375952D02*
X187748568Y-133375952D01*
X187510473Y-133042619D02*
X187510473Y-133899761D01*
X187510473Y-133899761D02*
X187558092Y-133995000D01*
X187558092Y-133995000D02*
X187653330Y-134042619D01*
X187653330Y-134042619D02*
X187748568Y-134042619D01*
X188510473Y-133995000D02*
X188415235Y-134042619D01*
X188415235Y-134042619D02*
X188224759Y-134042619D01*
X188224759Y-134042619D02*
X188129521Y-133995000D01*
X188129521Y-133995000D02*
X188081902Y-133947380D01*
X188081902Y-133947380D02*
X188034283Y-133852142D01*
X188034283Y-133852142D02*
X188034283Y-133566428D01*
X188034283Y-133566428D02*
X188081902Y-133471190D01*
X188081902Y-133471190D02*
X188129521Y-133423571D01*
X188129521Y-133423571D02*
X188224759Y-133375952D01*
X188224759Y-133375952D02*
X188415235Y-133375952D01*
X188415235Y-133375952D02*
X188510473Y-133423571D01*
X188939045Y-134042619D02*
X188939045Y-133042619D01*
X189367616Y-134042619D02*
X189367616Y-133518809D01*
X189367616Y-133518809D02*
X189319997Y-133423571D01*
X189319997Y-133423571D02*
X189224759Y-133375952D01*
X189224759Y-133375952D02*
X189081902Y-133375952D01*
X189081902Y-133375952D02*
X188986664Y-133423571D01*
X188986664Y-133423571D02*
X188939045Y-133471190D01*
X190462855Y-133042619D02*
X191034283Y-133042619D01*
X190748569Y-134042619D02*
X190748569Y-133042619D01*
X191748569Y-133995000D02*
X191653331Y-134042619D01*
X191653331Y-134042619D02*
X191462855Y-134042619D01*
X191462855Y-134042619D02*
X191367617Y-133995000D01*
X191367617Y-133995000D02*
X191319998Y-133899761D01*
X191319998Y-133899761D02*
X191319998Y-133518809D01*
X191319998Y-133518809D02*
X191367617Y-133423571D01*
X191367617Y-133423571D02*
X191462855Y-133375952D01*
X191462855Y-133375952D02*
X191653331Y-133375952D01*
X191653331Y-133375952D02*
X191748569Y-133423571D01*
X191748569Y-133423571D02*
X191796188Y-133518809D01*
X191796188Y-133518809D02*
X191796188Y-133614047D01*
X191796188Y-133614047D02*
X191319998Y-133709285D01*
X192653331Y-134042619D02*
X192653331Y-133518809D01*
X192653331Y-133518809D02*
X192605712Y-133423571D01*
X192605712Y-133423571D02*
X192510474Y-133375952D01*
X192510474Y-133375952D02*
X192319998Y-133375952D01*
X192319998Y-133375952D02*
X192224760Y-133423571D01*
X192653331Y-133995000D02*
X192558093Y-134042619D01*
X192558093Y-134042619D02*
X192319998Y-134042619D01*
X192319998Y-134042619D02*
X192224760Y-133995000D01*
X192224760Y-133995000D02*
X192177141Y-133899761D01*
X192177141Y-133899761D02*
X192177141Y-133804523D01*
X192177141Y-133804523D02*
X192224760Y-133709285D01*
X192224760Y-133709285D02*
X192319998Y-133661666D01*
X192319998Y-133661666D02*
X192558093Y-133661666D01*
X192558093Y-133661666D02*
X192653331Y-133614047D01*
X193129522Y-134042619D02*
X193129522Y-133375952D01*
X193129522Y-133471190D02*
X193177141Y-133423571D01*
X193177141Y-133423571D02*
X193272379Y-133375952D01*
X193272379Y-133375952D02*
X193415236Y-133375952D01*
X193415236Y-133375952D02*
X193510474Y-133423571D01*
X193510474Y-133423571D02*
X193558093Y-133518809D01*
X193558093Y-133518809D02*
X193558093Y-134042619D01*
X193558093Y-133518809D02*
X193605712Y-133423571D01*
X193605712Y-133423571D02*
X193700950Y-133375952D01*
X193700950Y-133375952D02*
X193843807Y-133375952D01*
X193843807Y-133375952D02*
X193939046Y-133423571D01*
X193939046Y-133423571D02*
X193986665Y-133518809D01*
X193986665Y-133518809D02*
X193986665Y-134042619D01*
X194462855Y-133947380D02*
X194510474Y-133995000D01*
X194510474Y-133995000D02*
X194462855Y-134042619D01*
X194462855Y-134042619D02*
X194415236Y-133995000D01*
X194415236Y-133995000D02*
X194462855Y-133947380D01*
X194462855Y-133947380D02*
X194462855Y-134042619D01*
X194462855Y-133423571D02*
X194510474Y-133471190D01*
X194510474Y-133471190D02*
X194462855Y-133518809D01*
X194462855Y-133518809D02*
X194415236Y-133471190D01*
X194415236Y-133471190D02*
X194462855Y-133423571D01*
X194462855Y-133423571D02*
X194462855Y-133518809D01*
X196177140Y-134042619D02*
X195700950Y-134042619D01*
X195700950Y-134042619D02*
X195700950Y-133042619D01*
X196939045Y-133375952D02*
X196939045Y-134042619D01*
X196510474Y-133375952D02*
X196510474Y-133899761D01*
X196510474Y-133899761D02*
X196558093Y-133995000D01*
X196558093Y-133995000D02*
X196653331Y-134042619D01*
X196653331Y-134042619D02*
X196796188Y-134042619D01*
X196796188Y-134042619D02*
X196891426Y-133995000D01*
X196891426Y-133995000D02*
X196939045Y-133947380D01*
X197415236Y-134042619D02*
X197415236Y-133042619D01*
X197510474Y-133661666D02*
X197796188Y-134042619D01*
X197796188Y-133375952D02*
X197415236Y-133756904D01*
X198605712Y-133995000D02*
X198510474Y-134042619D01*
X198510474Y-134042619D02*
X198319998Y-134042619D01*
X198319998Y-134042619D02*
X198224760Y-133995000D01*
X198224760Y-133995000D02*
X198177141Y-133899761D01*
X198177141Y-133899761D02*
X198177141Y-133518809D01*
X198177141Y-133518809D02*
X198224760Y-133423571D01*
X198224760Y-133423571D02*
X198319998Y-133375952D01*
X198319998Y-133375952D02*
X198510474Y-133375952D01*
X198510474Y-133375952D02*
X198605712Y-133423571D01*
X198605712Y-133423571D02*
X198653331Y-133518809D01*
X198653331Y-133518809D02*
X198653331Y-133614047D01*
X198653331Y-133614047D02*
X198177141Y-133709285D01*
X199843808Y-134042619D02*
X199843808Y-133042619D01*
X200415236Y-134042619D02*
X199986665Y-133471190D01*
X200415236Y-133042619D02*
X199843808Y-133614047D01*
X200986665Y-134042619D02*
X200891427Y-133995000D01*
X200891427Y-133995000D02*
X200843808Y-133947380D01*
X200843808Y-133947380D02*
X200796189Y-133852142D01*
X200796189Y-133852142D02*
X200796189Y-133566428D01*
X200796189Y-133566428D02*
X200843808Y-133471190D01*
X200843808Y-133471190D02*
X200891427Y-133423571D01*
X200891427Y-133423571D02*
X200986665Y-133375952D01*
X200986665Y-133375952D02*
X201129522Y-133375952D01*
X201129522Y-133375952D02*
X201224760Y-133423571D01*
X201224760Y-133423571D02*
X201272379Y-133471190D01*
X201272379Y-133471190D02*
X201319998Y-133566428D01*
X201319998Y-133566428D02*
X201319998Y-133852142D01*
X201319998Y-133852142D02*
X201272379Y-133947380D01*
X201272379Y-133947380D02*
X201224760Y-133995000D01*
X201224760Y-133995000D02*
X201129522Y-134042619D01*
X201129522Y-134042619D02*
X200986665Y-134042619D01*
X201748570Y-134042619D02*
X201748570Y-133042619D01*
X202177141Y-134042619D02*
X202177141Y-133518809D01*
X202177141Y-133518809D02*
X202129522Y-133423571D01*
X202129522Y-133423571D02*
X202034284Y-133375952D01*
X202034284Y-133375952D02*
X201891427Y-133375952D01*
X201891427Y-133375952D02*
X201796189Y-133423571D01*
X201796189Y-133423571D02*
X201748570Y-133471190D01*
X202796189Y-134042619D02*
X202700951Y-133995000D01*
X202700951Y-133995000D02*
X202653332Y-133899761D01*
X202653332Y-133899761D02*
X202653332Y-133042619D01*
X203558094Y-133995000D02*
X203462856Y-134042619D01*
X203462856Y-134042619D02*
X203272380Y-134042619D01*
X203272380Y-134042619D02*
X203177142Y-133995000D01*
X203177142Y-133995000D02*
X203129523Y-133899761D01*
X203129523Y-133899761D02*
X203129523Y-133518809D01*
X203129523Y-133518809D02*
X203177142Y-133423571D01*
X203177142Y-133423571D02*
X203272380Y-133375952D01*
X203272380Y-133375952D02*
X203462856Y-133375952D01*
X203462856Y-133375952D02*
X203558094Y-133423571D01*
X203558094Y-133423571D02*
X203605713Y-133518809D01*
X203605713Y-133518809D02*
X203605713Y-133614047D01*
X203605713Y-133614047D02*
X203129523Y-133709285D01*
X204034285Y-134042619D02*
X204034285Y-133375952D01*
X204034285Y-133566428D02*
X204081904Y-133471190D01*
X204081904Y-133471190D02*
X204129523Y-133423571D01*
X204129523Y-133423571D02*
X204224761Y-133375952D01*
X204224761Y-133375952D02*
X204319999Y-133375952D01*
X204700952Y-133995000D02*
X204700952Y-134042619D01*
X204700952Y-134042619D02*
X204653333Y-134137857D01*
X204653333Y-134137857D02*
X204605714Y-134185476D01*
X205891428Y-134042619D02*
X205891428Y-133042619D01*
X205891428Y-133042619D02*
X206224761Y-133756904D01*
X206224761Y-133756904D02*
X206558094Y-133042619D01*
X206558094Y-133042619D02*
X206558094Y-134042619D01*
X207034285Y-134042619D02*
X207034285Y-133375952D01*
X207034285Y-133042619D02*
X206986666Y-133090238D01*
X206986666Y-133090238D02*
X207034285Y-133137857D01*
X207034285Y-133137857D02*
X207081904Y-133090238D01*
X207081904Y-133090238D02*
X207034285Y-133042619D01*
X207034285Y-133042619D02*
X207034285Y-133137857D01*
X207939046Y-133995000D02*
X207843808Y-134042619D01*
X207843808Y-134042619D02*
X207653332Y-134042619D01*
X207653332Y-134042619D02*
X207558094Y-133995000D01*
X207558094Y-133995000D02*
X207510475Y-133947380D01*
X207510475Y-133947380D02*
X207462856Y-133852142D01*
X207462856Y-133852142D02*
X207462856Y-133566428D01*
X207462856Y-133566428D02*
X207510475Y-133471190D01*
X207510475Y-133471190D02*
X207558094Y-133423571D01*
X207558094Y-133423571D02*
X207653332Y-133375952D01*
X207653332Y-133375952D02*
X207843808Y-133375952D01*
X207843808Y-133375952D02*
X207939046Y-133423571D01*
X208367618Y-134042619D02*
X208367618Y-133042619D01*
X208796189Y-134042619D02*
X208796189Y-133518809D01*
X208796189Y-133518809D02*
X208748570Y-133423571D01*
X208748570Y-133423571D02*
X208653332Y-133375952D01*
X208653332Y-133375952D02*
X208510475Y-133375952D01*
X208510475Y-133375952D02*
X208415237Y-133423571D01*
X208415237Y-133423571D02*
X208367618Y-133471190D01*
X209700951Y-134042619D02*
X209700951Y-133518809D01*
X209700951Y-133518809D02*
X209653332Y-133423571D01*
X209653332Y-133423571D02*
X209558094Y-133375952D01*
X209558094Y-133375952D02*
X209367618Y-133375952D01*
X209367618Y-133375952D02*
X209272380Y-133423571D01*
X209700951Y-133995000D02*
X209605713Y-134042619D01*
X209605713Y-134042619D02*
X209367618Y-134042619D01*
X209367618Y-134042619D02*
X209272380Y-133995000D01*
X209272380Y-133995000D02*
X209224761Y-133899761D01*
X209224761Y-133899761D02*
X209224761Y-133804523D01*
X209224761Y-133804523D02*
X209272380Y-133709285D01*
X209272380Y-133709285D02*
X209367618Y-133661666D01*
X209367618Y-133661666D02*
X209605713Y-133661666D01*
X209605713Y-133661666D02*
X209700951Y-133614047D01*
X210558094Y-133995000D02*
X210462856Y-134042619D01*
X210462856Y-134042619D02*
X210272380Y-134042619D01*
X210272380Y-134042619D02*
X210177142Y-133995000D01*
X210177142Y-133995000D02*
X210129523Y-133899761D01*
X210129523Y-133899761D02*
X210129523Y-133518809D01*
X210129523Y-133518809D02*
X210177142Y-133423571D01*
X210177142Y-133423571D02*
X210272380Y-133375952D01*
X210272380Y-133375952D02*
X210462856Y-133375952D01*
X210462856Y-133375952D02*
X210558094Y-133423571D01*
X210558094Y-133423571D02*
X210605713Y-133518809D01*
X210605713Y-133518809D02*
X210605713Y-133614047D01*
X210605713Y-133614047D02*
X210129523Y-133709285D01*
X211177142Y-134042619D02*
X211081904Y-133995000D01*
X211081904Y-133995000D02*
X211034285Y-133899761D01*
X211034285Y-133899761D02*
X211034285Y-133042619D01*
X212986666Y-134137857D02*
X212891428Y-134090238D01*
X212891428Y-134090238D02*
X212796190Y-133995000D01*
X212796190Y-133995000D02*
X212653333Y-133852142D01*
X212653333Y-133852142D02*
X212558095Y-133804523D01*
X212558095Y-133804523D02*
X212462857Y-133804523D01*
X212510476Y-134042619D02*
X212415238Y-133995000D01*
X212415238Y-133995000D02*
X212320000Y-133899761D01*
X212320000Y-133899761D02*
X212272381Y-133709285D01*
X212272381Y-133709285D02*
X212272381Y-133375952D01*
X212272381Y-133375952D02*
X212320000Y-133185476D01*
X212320000Y-133185476D02*
X212415238Y-133090238D01*
X212415238Y-133090238D02*
X212510476Y-133042619D01*
X212510476Y-133042619D02*
X212700952Y-133042619D01*
X212700952Y-133042619D02*
X212796190Y-133090238D01*
X212796190Y-133090238D02*
X212891428Y-133185476D01*
X212891428Y-133185476D02*
X212939047Y-133375952D01*
X212939047Y-133375952D02*
X212939047Y-133709285D01*
X212939047Y-133709285D02*
X212891428Y-133899761D01*
X212891428Y-133899761D02*
X212796190Y-133995000D01*
X212796190Y-133995000D02*
X212700952Y-134042619D01*
X212700952Y-134042619D02*
X212510476Y-134042619D01*
X213796190Y-133375952D02*
X213796190Y-134042619D01*
X213367619Y-133375952D02*
X213367619Y-133899761D01*
X213367619Y-133899761D02*
X213415238Y-133995000D01*
X213415238Y-133995000D02*
X213510476Y-134042619D01*
X213510476Y-134042619D02*
X213653333Y-134042619D01*
X213653333Y-134042619D02*
X213748571Y-133995000D01*
X213748571Y-133995000D02*
X213796190Y-133947380D01*
X214700952Y-134042619D02*
X214700952Y-133518809D01*
X214700952Y-133518809D02*
X214653333Y-133423571D01*
X214653333Y-133423571D02*
X214558095Y-133375952D01*
X214558095Y-133375952D02*
X214367619Y-133375952D01*
X214367619Y-133375952D02*
X214272381Y-133423571D01*
X214700952Y-133995000D02*
X214605714Y-134042619D01*
X214605714Y-134042619D02*
X214367619Y-134042619D01*
X214367619Y-134042619D02*
X214272381Y-133995000D01*
X214272381Y-133995000D02*
X214224762Y-133899761D01*
X214224762Y-133899761D02*
X214224762Y-133804523D01*
X214224762Y-133804523D02*
X214272381Y-133709285D01*
X214272381Y-133709285D02*
X214367619Y-133661666D01*
X214367619Y-133661666D02*
X214605714Y-133661666D01*
X214605714Y-133661666D02*
X214700952Y-133614047D01*
X215605714Y-133995000D02*
X215510476Y-134042619D01*
X215510476Y-134042619D02*
X215320000Y-134042619D01*
X215320000Y-134042619D02*
X215224762Y-133995000D01*
X215224762Y-133995000D02*
X215177143Y-133947380D01*
X215177143Y-133947380D02*
X215129524Y-133852142D01*
X215129524Y-133852142D02*
X215129524Y-133566428D01*
X215129524Y-133566428D02*
X215177143Y-133471190D01*
X215177143Y-133471190D02*
X215224762Y-133423571D01*
X215224762Y-133423571D02*
X215320000Y-133375952D01*
X215320000Y-133375952D02*
X215510476Y-133375952D01*
X215510476Y-133375952D02*
X215605714Y-133423571D01*
X216034286Y-134042619D02*
X216034286Y-133042619D01*
X216462857Y-134042619D02*
X216462857Y-133518809D01*
X216462857Y-133518809D02*
X216415238Y-133423571D01*
X216415238Y-133423571D02*
X216320000Y-133375952D01*
X216320000Y-133375952D02*
X216177143Y-133375952D01*
X216177143Y-133375952D02*
X216081905Y-133423571D01*
X216081905Y-133423571D02*
X216034286Y-133471190D01*
X216986667Y-133995000D02*
X216986667Y-134042619D01*
X216986667Y-134042619D02*
X216939048Y-134137857D01*
X216939048Y-134137857D02*
X216891429Y-134185476D01*
X218177143Y-134042619D02*
X218177143Y-133042619D01*
X218177143Y-133042619D02*
X218510476Y-133756904D01*
X218510476Y-133756904D02*
X218843809Y-133042619D01*
X218843809Y-133042619D02*
X218843809Y-134042619D01*
X219748571Y-134042619D02*
X219748571Y-133518809D01*
X219748571Y-133518809D02*
X219700952Y-133423571D01*
X219700952Y-133423571D02*
X219605714Y-133375952D01*
X219605714Y-133375952D02*
X219415238Y-133375952D01*
X219415238Y-133375952D02*
X219320000Y-133423571D01*
X219748571Y-133995000D02*
X219653333Y-134042619D01*
X219653333Y-134042619D02*
X219415238Y-134042619D01*
X219415238Y-134042619D02*
X219320000Y-133995000D01*
X219320000Y-133995000D02*
X219272381Y-133899761D01*
X219272381Y-133899761D02*
X219272381Y-133804523D01*
X219272381Y-133804523D02*
X219320000Y-133709285D01*
X219320000Y-133709285D02*
X219415238Y-133661666D01*
X219415238Y-133661666D02*
X219653333Y-133661666D01*
X219653333Y-133661666D02*
X219748571Y-133614047D01*
X220081905Y-133375952D02*
X220462857Y-133375952D01*
X220224762Y-133042619D02*
X220224762Y-133899761D01*
X220224762Y-133899761D02*
X220272381Y-133995000D01*
X220272381Y-133995000D02*
X220367619Y-134042619D01*
X220367619Y-134042619D02*
X220462857Y-134042619D01*
X220653334Y-133375952D02*
X221034286Y-133375952D01*
X220796191Y-133042619D02*
X220796191Y-133899761D01*
X220796191Y-133899761D02*
X220843810Y-133995000D01*
X220843810Y-133995000D02*
X220939048Y-134042619D01*
X220939048Y-134042619D02*
X221034286Y-134042619D01*
X222700953Y-134042619D02*
X222367620Y-133566428D01*
X222129525Y-134042619D02*
X222129525Y-133042619D01*
X222129525Y-133042619D02*
X222510477Y-133042619D01*
X222510477Y-133042619D02*
X222605715Y-133090238D01*
X222605715Y-133090238D02*
X222653334Y-133137857D01*
X222653334Y-133137857D02*
X222700953Y-133233095D01*
X222700953Y-133233095D02*
X222700953Y-133375952D01*
X222700953Y-133375952D02*
X222653334Y-133471190D01*
X222653334Y-133471190D02*
X222605715Y-133518809D01*
X222605715Y-133518809D02*
X222510477Y-133566428D01*
X222510477Y-133566428D02*
X222129525Y-133566428D01*
X223272382Y-134042619D02*
X223177144Y-133995000D01*
X223177144Y-133995000D02*
X223129525Y-133947380D01*
X223129525Y-133947380D02*
X223081906Y-133852142D01*
X223081906Y-133852142D02*
X223081906Y-133566428D01*
X223081906Y-133566428D02*
X223129525Y-133471190D01*
X223129525Y-133471190D02*
X223177144Y-133423571D01*
X223177144Y-133423571D02*
X223272382Y-133375952D01*
X223272382Y-133375952D02*
X223415239Y-133375952D01*
X223415239Y-133375952D02*
X223510477Y-133423571D01*
X223510477Y-133423571D02*
X223558096Y-133471190D01*
X223558096Y-133471190D02*
X223605715Y-133566428D01*
X223605715Y-133566428D02*
X223605715Y-133852142D01*
X223605715Y-133852142D02*
X223558096Y-133947380D01*
X223558096Y-133947380D02*
X223510477Y-133995000D01*
X223510477Y-133995000D02*
X223415239Y-134042619D01*
X223415239Y-134042619D02*
X223272382Y-134042619D01*
X224034287Y-134042619D02*
X224034287Y-133042619D01*
X224034287Y-133423571D02*
X224129525Y-133375952D01*
X224129525Y-133375952D02*
X224320001Y-133375952D01*
X224320001Y-133375952D02*
X224415239Y-133423571D01*
X224415239Y-133423571D02*
X224462858Y-133471190D01*
X224462858Y-133471190D02*
X224510477Y-133566428D01*
X224510477Y-133566428D02*
X224510477Y-133852142D01*
X224510477Y-133852142D02*
X224462858Y-133947380D01*
X224462858Y-133947380D02*
X224415239Y-133995000D01*
X224415239Y-133995000D02*
X224320001Y-134042619D01*
X224320001Y-134042619D02*
X224129525Y-134042619D01*
X224129525Y-134042619D02*
X224034287Y-133995000D01*
X225320001Y-133995000D02*
X225224763Y-134042619D01*
X225224763Y-134042619D02*
X225034287Y-134042619D01*
X225034287Y-134042619D02*
X224939049Y-133995000D01*
X224939049Y-133995000D02*
X224891430Y-133899761D01*
X224891430Y-133899761D02*
X224891430Y-133518809D01*
X224891430Y-133518809D02*
X224939049Y-133423571D01*
X224939049Y-133423571D02*
X225034287Y-133375952D01*
X225034287Y-133375952D02*
X225224763Y-133375952D01*
X225224763Y-133375952D02*
X225320001Y-133423571D01*
X225320001Y-133423571D02*
X225367620Y-133518809D01*
X225367620Y-133518809D02*
X225367620Y-133614047D01*
X225367620Y-133614047D02*
X224891430Y-133709285D01*
X225796192Y-134042619D02*
X225796192Y-133375952D01*
X225796192Y-133566428D02*
X225843811Y-133471190D01*
X225843811Y-133471190D02*
X225891430Y-133423571D01*
X225891430Y-133423571D02*
X225986668Y-133375952D01*
X225986668Y-133375952D02*
X226081906Y-133375952D01*
X226272383Y-133375952D02*
X226653335Y-133375952D01*
X226415240Y-133042619D02*
X226415240Y-133899761D01*
X226415240Y-133899761D02*
X226462859Y-133995000D01*
X226462859Y-133995000D02*
X226558097Y-134042619D01*
X226558097Y-134042619D02*
X226653335Y-134042619D01*
X226939050Y-133995000D02*
X227034288Y-134042619D01*
X227034288Y-134042619D02*
X227224764Y-134042619D01*
X227224764Y-134042619D02*
X227320002Y-133995000D01*
X227320002Y-133995000D02*
X227367621Y-133899761D01*
X227367621Y-133899761D02*
X227367621Y-133852142D01*
X227367621Y-133852142D02*
X227320002Y-133756904D01*
X227320002Y-133756904D02*
X227224764Y-133709285D01*
X227224764Y-133709285D02*
X227081907Y-133709285D01*
X227081907Y-133709285D02*
X226986669Y-133661666D01*
X226986669Y-133661666D02*
X226939050Y-133566428D01*
X226939050Y-133566428D02*
X226939050Y-133518809D01*
X226939050Y-133518809D02*
X226986669Y-133423571D01*
X226986669Y-133423571D02*
X227081907Y-133375952D01*
X227081907Y-133375952D02*
X227224764Y-133375952D01*
X227224764Y-133375952D02*
X227320002Y-133423571D01*
X189677141Y-135138809D02*
X189343808Y-135138809D01*
X189343808Y-135662619D02*
X189343808Y-134662619D01*
X189343808Y-134662619D02*
X189819998Y-134662619D01*
X190343808Y-135662619D02*
X190248570Y-135615000D01*
X190248570Y-135615000D02*
X190200951Y-135567380D01*
X190200951Y-135567380D02*
X190153332Y-135472142D01*
X190153332Y-135472142D02*
X190153332Y-135186428D01*
X190153332Y-135186428D02*
X190200951Y-135091190D01*
X190200951Y-135091190D02*
X190248570Y-135043571D01*
X190248570Y-135043571D02*
X190343808Y-134995952D01*
X190343808Y-134995952D02*
X190486665Y-134995952D01*
X190486665Y-134995952D02*
X190581903Y-135043571D01*
X190581903Y-135043571D02*
X190629522Y-135091190D01*
X190629522Y-135091190D02*
X190677141Y-135186428D01*
X190677141Y-135186428D02*
X190677141Y-135472142D01*
X190677141Y-135472142D02*
X190629522Y-135567380D01*
X190629522Y-135567380D02*
X190581903Y-135615000D01*
X190581903Y-135615000D02*
X190486665Y-135662619D01*
X190486665Y-135662619D02*
X190343808Y-135662619D01*
X191105713Y-135662619D02*
X191105713Y-134995952D01*
X191105713Y-135186428D02*
X191153332Y-135091190D01*
X191153332Y-135091190D02*
X191200951Y-135043571D01*
X191200951Y-135043571D02*
X191296189Y-134995952D01*
X191296189Y-134995952D02*
X191391427Y-134995952D01*
X192343809Y-134995952D02*
X192724761Y-134995952D01*
X192486666Y-134662619D02*
X192486666Y-135519761D01*
X192486666Y-135519761D02*
X192534285Y-135615000D01*
X192534285Y-135615000D02*
X192629523Y-135662619D01*
X192629523Y-135662619D02*
X192724761Y-135662619D01*
X193058095Y-135662619D02*
X193058095Y-134662619D01*
X193486666Y-135662619D02*
X193486666Y-135138809D01*
X193486666Y-135138809D02*
X193439047Y-135043571D01*
X193439047Y-135043571D02*
X193343809Y-134995952D01*
X193343809Y-134995952D02*
X193200952Y-134995952D01*
X193200952Y-134995952D02*
X193105714Y-135043571D01*
X193105714Y-135043571D02*
X193058095Y-135091190D01*
X194343809Y-135615000D02*
X194248571Y-135662619D01*
X194248571Y-135662619D02*
X194058095Y-135662619D01*
X194058095Y-135662619D02*
X193962857Y-135615000D01*
X193962857Y-135615000D02*
X193915238Y-135519761D01*
X193915238Y-135519761D02*
X193915238Y-135138809D01*
X193915238Y-135138809D02*
X193962857Y-135043571D01*
X193962857Y-135043571D02*
X194058095Y-134995952D01*
X194058095Y-134995952D02*
X194248571Y-134995952D01*
X194248571Y-134995952D02*
X194343809Y-135043571D01*
X194343809Y-135043571D02*
X194391428Y-135138809D01*
X194391428Y-135138809D02*
X194391428Y-135234047D01*
X194391428Y-135234047D02*
X193915238Y-135329285D01*
X195581905Y-135662619D02*
X195581905Y-134662619D01*
X195581905Y-134662619D02*
X195962857Y-134662619D01*
X195962857Y-134662619D02*
X196058095Y-134710238D01*
X196058095Y-134710238D02*
X196105714Y-134757857D01*
X196105714Y-134757857D02*
X196153333Y-134853095D01*
X196153333Y-134853095D02*
X196153333Y-134995952D01*
X196153333Y-134995952D02*
X196105714Y-135091190D01*
X196105714Y-135091190D02*
X196058095Y-135138809D01*
X196058095Y-135138809D02*
X195962857Y-135186428D01*
X195962857Y-135186428D02*
X195581905Y-135186428D01*
X196724762Y-135662619D02*
X196629524Y-135615000D01*
X196629524Y-135615000D02*
X196581905Y-135519761D01*
X196581905Y-135519761D02*
X196581905Y-134662619D01*
X197486667Y-135615000D02*
X197391429Y-135662619D01*
X197391429Y-135662619D02*
X197200953Y-135662619D01*
X197200953Y-135662619D02*
X197105715Y-135615000D01*
X197105715Y-135615000D02*
X197058096Y-135519761D01*
X197058096Y-135519761D02*
X197058096Y-135138809D01*
X197058096Y-135138809D02*
X197105715Y-135043571D01*
X197105715Y-135043571D02*
X197200953Y-134995952D01*
X197200953Y-134995952D02*
X197391429Y-134995952D01*
X197391429Y-134995952D02*
X197486667Y-135043571D01*
X197486667Y-135043571D02*
X197534286Y-135138809D01*
X197534286Y-135138809D02*
X197534286Y-135234047D01*
X197534286Y-135234047D02*
X197058096Y-135329285D01*
X197962858Y-135662619D02*
X197962858Y-134995952D01*
X197962858Y-134662619D02*
X197915239Y-134710238D01*
X197915239Y-134710238D02*
X197962858Y-134757857D01*
X197962858Y-134757857D02*
X198010477Y-134710238D01*
X198010477Y-134710238D02*
X197962858Y-134662619D01*
X197962858Y-134662619D02*
X197962858Y-134757857D01*
X198867619Y-135662619D02*
X198867619Y-135138809D01*
X198867619Y-135138809D02*
X198820000Y-135043571D01*
X198820000Y-135043571D02*
X198724762Y-134995952D01*
X198724762Y-134995952D02*
X198534286Y-134995952D01*
X198534286Y-134995952D02*
X198439048Y-135043571D01*
X198867619Y-135615000D02*
X198772381Y-135662619D01*
X198772381Y-135662619D02*
X198534286Y-135662619D01*
X198534286Y-135662619D02*
X198439048Y-135615000D01*
X198439048Y-135615000D02*
X198391429Y-135519761D01*
X198391429Y-135519761D02*
X198391429Y-135424523D01*
X198391429Y-135424523D02*
X198439048Y-135329285D01*
X198439048Y-135329285D02*
X198534286Y-135281666D01*
X198534286Y-135281666D02*
X198772381Y-135281666D01*
X198772381Y-135281666D02*
X198867619Y-135234047D01*
X199772381Y-135662619D02*
X199772381Y-134662619D01*
X199772381Y-135615000D02*
X199677143Y-135662619D01*
X199677143Y-135662619D02*
X199486667Y-135662619D01*
X199486667Y-135662619D02*
X199391429Y-135615000D01*
X199391429Y-135615000D02*
X199343810Y-135567380D01*
X199343810Y-135567380D02*
X199296191Y-135472142D01*
X199296191Y-135472142D02*
X199296191Y-135186428D01*
X199296191Y-135186428D02*
X199343810Y-135091190D01*
X199343810Y-135091190D02*
X199391429Y-135043571D01*
X199391429Y-135043571D02*
X199486667Y-134995952D01*
X199486667Y-134995952D02*
X199677143Y-134995952D01*
X199677143Y-134995952D02*
X199772381Y-135043571D01*
X200629524Y-135615000D02*
X200534286Y-135662619D01*
X200534286Y-135662619D02*
X200343810Y-135662619D01*
X200343810Y-135662619D02*
X200248572Y-135615000D01*
X200248572Y-135615000D02*
X200200953Y-135519761D01*
X200200953Y-135519761D02*
X200200953Y-135138809D01*
X200200953Y-135138809D02*
X200248572Y-135043571D01*
X200248572Y-135043571D02*
X200343810Y-134995952D01*
X200343810Y-134995952D02*
X200534286Y-134995952D01*
X200534286Y-134995952D02*
X200629524Y-135043571D01*
X200629524Y-135043571D02*
X200677143Y-135138809D01*
X200677143Y-135138809D02*
X200677143Y-135234047D01*
X200677143Y-135234047D02*
X200200953Y-135329285D01*
X201058096Y-135615000D02*
X201153334Y-135662619D01*
X201153334Y-135662619D02*
X201343810Y-135662619D01*
X201343810Y-135662619D02*
X201439048Y-135615000D01*
X201439048Y-135615000D02*
X201486667Y-135519761D01*
X201486667Y-135519761D02*
X201486667Y-135472142D01*
X201486667Y-135472142D02*
X201439048Y-135376904D01*
X201439048Y-135376904D02*
X201343810Y-135329285D01*
X201343810Y-135329285D02*
X201200953Y-135329285D01*
X201200953Y-135329285D02*
X201105715Y-135281666D01*
X201105715Y-135281666D02*
X201058096Y-135186428D01*
X201058096Y-135186428D02*
X201058096Y-135138809D01*
X201058096Y-135138809D02*
X201105715Y-135043571D01*
X201105715Y-135043571D02*
X201200953Y-134995952D01*
X201200953Y-134995952D02*
X201343810Y-134995952D01*
X201343810Y-134995952D02*
X201439048Y-135043571D01*
X202677144Y-135281666D02*
X203439049Y-135281666D01*
X204629525Y-135615000D02*
X204772382Y-135662619D01*
X204772382Y-135662619D02*
X205010477Y-135662619D01*
X205010477Y-135662619D02*
X205105715Y-135615000D01*
X205105715Y-135615000D02*
X205153334Y-135567380D01*
X205153334Y-135567380D02*
X205200953Y-135472142D01*
X205200953Y-135472142D02*
X205200953Y-135376904D01*
X205200953Y-135376904D02*
X205153334Y-135281666D01*
X205153334Y-135281666D02*
X205105715Y-135234047D01*
X205105715Y-135234047D02*
X205010477Y-135186428D01*
X205010477Y-135186428D02*
X204820001Y-135138809D01*
X204820001Y-135138809D02*
X204724763Y-135091190D01*
X204724763Y-135091190D02*
X204677144Y-135043571D01*
X204677144Y-135043571D02*
X204629525Y-134948333D01*
X204629525Y-134948333D02*
X204629525Y-134853095D01*
X204629525Y-134853095D02*
X204677144Y-134757857D01*
X204677144Y-134757857D02*
X204724763Y-134710238D01*
X204724763Y-134710238D02*
X204820001Y-134662619D01*
X204820001Y-134662619D02*
X205058096Y-134662619D01*
X205058096Y-134662619D02*
X205200953Y-134710238D01*
X206058096Y-134995952D02*
X206058096Y-135995952D01*
X206058096Y-135615000D02*
X205962858Y-135662619D01*
X205962858Y-135662619D02*
X205772382Y-135662619D01*
X205772382Y-135662619D02*
X205677144Y-135615000D01*
X205677144Y-135615000D02*
X205629525Y-135567380D01*
X205629525Y-135567380D02*
X205581906Y-135472142D01*
X205581906Y-135472142D02*
X205581906Y-135186428D01*
X205581906Y-135186428D02*
X205629525Y-135091190D01*
X205629525Y-135091190D02*
X205677144Y-135043571D01*
X205677144Y-135043571D02*
X205772382Y-134995952D01*
X205772382Y-134995952D02*
X205962858Y-134995952D01*
X205962858Y-134995952D02*
X206058096Y-135043571D01*
X206962858Y-134995952D02*
X206962858Y-135662619D01*
X206534287Y-134995952D02*
X206534287Y-135519761D01*
X206534287Y-135519761D02*
X206581906Y-135615000D01*
X206581906Y-135615000D02*
X206677144Y-135662619D01*
X206677144Y-135662619D02*
X206820001Y-135662619D01*
X206820001Y-135662619D02*
X206915239Y-135615000D01*
X206915239Y-135615000D02*
X206962858Y-135567380D01*
X207867620Y-135662619D02*
X207867620Y-135138809D01*
X207867620Y-135138809D02*
X207820001Y-135043571D01*
X207820001Y-135043571D02*
X207724763Y-134995952D01*
X207724763Y-134995952D02*
X207534287Y-134995952D01*
X207534287Y-134995952D02*
X207439049Y-135043571D01*
X207867620Y-135615000D02*
X207772382Y-135662619D01*
X207772382Y-135662619D02*
X207534287Y-135662619D01*
X207534287Y-135662619D02*
X207439049Y-135615000D01*
X207439049Y-135615000D02*
X207391430Y-135519761D01*
X207391430Y-135519761D02*
X207391430Y-135424523D01*
X207391430Y-135424523D02*
X207439049Y-135329285D01*
X207439049Y-135329285D02*
X207534287Y-135281666D01*
X207534287Y-135281666D02*
X207772382Y-135281666D01*
X207772382Y-135281666D02*
X207867620Y-135234047D01*
X208343811Y-135662619D02*
X208343811Y-134995952D01*
X208343811Y-135186428D02*
X208391430Y-135091190D01*
X208391430Y-135091190D02*
X208439049Y-135043571D01*
X208439049Y-135043571D02*
X208534287Y-134995952D01*
X208534287Y-134995952D02*
X208629525Y-134995952D01*
X209343811Y-135615000D02*
X209248573Y-135662619D01*
X209248573Y-135662619D02*
X209058097Y-135662619D01*
X209058097Y-135662619D02*
X208962859Y-135615000D01*
X208962859Y-135615000D02*
X208915240Y-135519761D01*
X208915240Y-135519761D02*
X208915240Y-135138809D01*
X208915240Y-135138809D02*
X208962859Y-135043571D01*
X208962859Y-135043571D02*
X209058097Y-134995952D01*
X209058097Y-134995952D02*
X209248573Y-134995952D01*
X209248573Y-134995952D02*
X209343811Y-135043571D01*
X209343811Y-135043571D02*
X209391430Y-135138809D01*
X209391430Y-135138809D02*
X209391430Y-135234047D01*
X209391430Y-135234047D02*
X208915240Y-135329285D01*
X210248573Y-135662619D02*
X210248573Y-134662619D01*
X210248573Y-135615000D02*
X210153335Y-135662619D01*
X210153335Y-135662619D02*
X209962859Y-135662619D01*
X209962859Y-135662619D02*
X209867621Y-135615000D01*
X209867621Y-135615000D02*
X209820002Y-135567380D01*
X209820002Y-135567380D02*
X209772383Y-135472142D01*
X209772383Y-135472142D02*
X209772383Y-135186428D01*
X209772383Y-135186428D02*
X209820002Y-135091190D01*
X209820002Y-135091190D02*
X209867621Y-135043571D01*
X209867621Y-135043571D02*
X209962859Y-134995952D01*
X209962859Y-134995952D02*
X210153335Y-134995952D01*
X210153335Y-134995952D02*
X210248573Y-135043571D01*
X211486669Y-135662619D02*
X211486669Y-134662619D01*
X211486669Y-134662619D02*
X211820002Y-135376904D01*
X211820002Y-135376904D02*
X212153335Y-134662619D01*
X212153335Y-134662619D02*
X212153335Y-135662619D01*
X212629526Y-135662619D02*
X212629526Y-134995952D01*
X212629526Y-134662619D02*
X212581907Y-134710238D01*
X212581907Y-134710238D02*
X212629526Y-134757857D01*
X212629526Y-134757857D02*
X212677145Y-134710238D01*
X212677145Y-134710238D02*
X212629526Y-134662619D01*
X212629526Y-134662619D02*
X212629526Y-134757857D01*
X213058097Y-135615000D02*
X213153335Y-135662619D01*
X213153335Y-135662619D02*
X213343811Y-135662619D01*
X213343811Y-135662619D02*
X213439049Y-135615000D01*
X213439049Y-135615000D02*
X213486668Y-135519761D01*
X213486668Y-135519761D02*
X213486668Y-135472142D01*
X213486668Y-135472142D02*
X213439049Y-135376904D01*
X213439049Y-135376904D02*
X213343811Y-135329285D01*
X213343811Y-135329285D02*
X213200954Y-135329285D01*
X213200954Y-135329285D02*
X213105716Y-135281666D01*
X213105716Y-135281666D02*
X213058097Y-135186428D01*
X213058097Y-135186428D02*
X213058097Y-135138809D01*
X213058097Y-135138809D02*
X213105716Y-135043571D01*
X213105716Y-135043571D02*
X213200954Y-134995952D01*
X213200954Y-134995952D02*
X213343811Y-134995952D01*
X213343811Y-134995952D02*
X213439049Y-135043571D01*
X213867621Y-135615000D02*
X213962859Y-135662619D01*
X213962859Y-135662619D02*
X214153335Y-135662619D01*
X214153335Y-135662619D02*
X214248573Y-135615000D01*
X214248573Y-135615000D02*
X214296192Y-135519761D01*
X214296192Y-135519761D02*
X214296192Y-135472142D01*
X214296192Y-135472142D02*
X214248573Y-135376904D01*
X214248573Y-135376904D02*
X214153335Y-135329285D01*
X214153335Y-135329285D02*
X214010478Y-135329285D01*
X214010478Y-135329285D02*
X213915240Y-135281666D01*
X213915240Y-135281666D02*
X213867621Y-135186428D01*
X213867621Y-135186428D02*
X213867621Y-135138809D01*
X213867621Y-135138809D02*
X213915240Y-135043571D01*
X213915240Y-135043571D02*
X214010478Y-134995952D01*
X214010478Y-134995952D02*
X214153335Y-134995952D01*
X214153335Y-134995952D02*
X214248573Y-135043571D01*
X214724764Y-135662619D02*
X214724764Y-134995952D01*
X214724764Y-134662619D02*
X214677145Y-134710238D01*
X214677145Y-134710238D02*
X214724764Y-134757857D01*
X214724764Y-134757857D02*
X214772383Y-134710238D01*
X214772383Y-134710238D02*
X214724764Y-134662619D01*
X214724764Y-134662619D02*
X214724764Y-134757857D01*
X215343811Y-135662619D02*
X215248573Y-135615000D01*
X215248573Y-135615000D02*
X215200954Y-135567380D01*
X215200954Y-135567380D02*
X215153335Y-135472142D01*
X215153335Y-135472142D02*
X215153335Y-135186428D01*
X215153335Y-135186428D02*
X215200954Y-135091190D01*
X215200954Y-135091190D02*
X215248573Y-135043571D01*
X215248573Y-135043571D02*
X215343811Y-134995952D01*
X215343811Y-134995952D02*
X215486668Y-134995952D01*
X215486668Y-134995952D02*
X215581906Y-135043571D01*
X215581906Y-135043571D02*
X215629525Y-135091190D01*
X215629525Y-135091190D02*
X215677144Y-135186428D01*
X215677144Y-135186428D02*
X215677144Y-135472142D01*
X215677144Y-135472142D02*
X215629525Y-135567380D01*
X215629525Y-135567380D02*
X215581906Y-135615000D01*
X215581906Y-135615000D02*
X215486668Y-135662619D01*
X215486668Y-135662619D02*
X215343811Y-135662619D01*
X216105716Y-134995952D02*
X216105716Y-135662619D01*
X216105716Y-135091190D02*
X216153335Y-135043571D01*
X216153335Y-135043571D02*
X216248573Y-134995952D01*
X216248573Y-134995952D02*
X216391430Y-134995952D01*
X216391430Y-134995952D02*
X216486668Y-135043571D01*
X216486668Y-135043571D02*
X216534287Y-135138809D01*
X216534287Y-135138809D02*
X216534287Y-135662619D01*
X198677142Y-136282619D02*
X198677142Y-136996904D01*
X198677142Y-136996904D02*
X198629523Y-137139761D01*
X198629523Y-137139761D02*
X198534285Y-137235000D01*
X198534285Y-137235000D02*
X198391428Y-137282619D01*
X198391428Y-137282619D02*
X198296190Y-137282619D01*
X199581904Y-137282619D02*
X199581904Y-136758809D01*
X199581904Y-136758809D02*
X199534285Y-136663571D01*
X199534285Y-136663571D02*
X199439047Y-136615952D01*
X199439047Y-136615952D02*
X199248571Y-136615952D01*
X199248571Y-136615952D02*
X199153333Y-136663571D01*
X199581904Y-137235000D02*
X199486666Y-137282619D01*
X199486666Y-137282619D02*
X199248571Y-137282619D01*
X199248571Y-137282619D02*
X199153333Y-137235000D01*
X199153333Y-137235000D02*
X199105714Y-137139761D01*
X199105714Y-137139761D02*
X199105714Y-137044523D01*
X199105714Y-137044523D02*
X199153333Y-136949285D01*
X199153333Y-136949285D02*
X199248571Y-136901666D01*
X199248571Y-136901666D02*
X199486666Y-136901666D01*
X199486666Y-136901666D02*
X199581904Y-136854047D01*
X200058095Y-136615952D02*
X200058095Y-137282619D01*
X200058095Y-136711190D02*
X200105714Y-136663571D01*
X200105714Y-136663571D02*
X200200952Y-136615952D01*
X200200952Y-136615952D02*
X200343809Y-136615952D01*
X200343809Y-136615952D02*
X200439047Y-136663571D01*
X200439047Y-136663571D02*
X200486666Y-136758809D01*
X200486666Y-136758809D02*
X200486666Y-137282619D01*
X201391428Y-136615952D02*
X201391428Y-137282619D01*
X200962857Y-136615952D02*
X200962857Y-137139761D01*
X200962857Y-137139761D02*
X201010476Y-137235000D01*
X201010476Y-137235000D02*
X201105714Y-137282619D01*
X201105714Y-137282619D02*
X201248571Y-137282619D01*
X201248571Y-137282619D02*
X201343809Y-137235000D01*
X201343809Y-137235000D02*
X201391428Y-137187380D01*
X202296190Y-137282619D02*
X202296190Y-136758809D01*
X202296190Y-136758809D02*
X202248571Y-136663571D01*
X202248571Y-136663571D02*
X202153333Y-136615952D01*
X202153333Y-136615952D02*
X201962857Y-136615952D01*
X201962857Y-136615952D02*
X201867619Y-136663571D01*
X202296190Y-137235000D02*
X202200952Y-137282619D01*
X202200952Y-137282619D02*
X201962857Y-137282619D01*
X201962857Y-137282619D02*
X201867619Y-137235000D01*
X201867619Y-137235000D02*
X201820000Y-137139761D01*
X201820000Y-137139761D02*
X201820000Y-137044523D01*
X201820000Y-137044523D02*
X201867619Y-136949285D01*
X201867619Y-136949285D02*
X201962857Y-136901666D01*
X201962857Y-136901666D02*
X202200952Y-136901666D01*
X202200952Y-136901666D02*
X202296190Y-136854047D01*
X202772381Y-137282619D02*
X202772381Y-136615952D01*
X202772381Y-136806428D02*
X202820000Y-136711190D01*
X202820000Y-136711190D02*
X202867619Y-136663571D01*
X202867619Y-136663571D02*
X202962857Y-136615952D01*
X202962857Y-136615952D02*
X203058095Y-136615952D01*
X203296191Y-136615952D02*
X203534286Y-137282619D01*
X203772381Y-136615952D02*
X203534286Y-137282619D01*
X203534286Y-137282619D02*
X203439048Y-137520714D01*
X203439048Y-137520714D02*
X203391429Y-137568333D01*
X203391429Y-137568333D02*
X203296191Y-137615952D01*
X204867620Y-136377857D02*
X204915239Y-136330238D01*
X204915239Y-136330238D02*
X205010477Y-136282619D01*
X205010477Y-136282619D02*
X205248572Y-136282619D01*
X205248572Y-136282619D02*
X205343810Y-136330238D01*
X205343810Y-136330238D02*
X205391429Y-136377857D01*
X205391429Y-136377857D02*
X205439048Y-136473095D01*
X205439048Y-136473095D02*
X205439048Y-136568333D01*
X205439048Y-136568333D02*
X205391429Y-136711190D01*
X205391429Y-136711190D02*
X204820001Y-137282619D01*
X204820001Y-137282619D02*
X205439048Y-137282619D01*
X206058096Y-136282619D02*
X206153334Y-136282619D01*
X206153334Y-136282619D02*
X206248572Y-136330238D01*
X206248572Y-136330238D02*
X206296191Y-136377857D01*
X206296191Y-136377857D02*
X206343810Y-136473095D01*
X206343810Y-136473095D02*
X206391429Y-136663571D01*
X206391429Y-136663571D02*
X206391429Y-136901666D01*
X206391429Y-136901666D02*
X206343810Y-137092142D01*
X206343810Y-137092142D02*
X206296191Y-137187380D01*
X206296191Y-137187380D02*
X206248572Y-137235000D01*
X206248572Y-137235000D02*
X206153334Y-137282619D01*
X206153334Y-137282619D02*
X206058096Y-137282619D01*
X206058096Y-137282619D02*
X205962858Y-137235000D01*
X205962858Y-137235000D02*
X205915239Y-137187380D01*
X205915239Y-137187380D02*
X205867620Y-137092142D01*
X205867620Y-137092142D02*
X205820001Y-136901666D01*
X205820001Y-136901666D02*
X205820001Y-136663571D01*
X205820001Y-136663571D02*
X205867620Y-136473095D01*
X205867620Y-136473095D02*
X205915239Y-136377857D01*
X205915239Y-136377857D02*
X205962858Y-136330238D01*
X205962858Y-136330238D02*
X206058096Y-136282619D01*
X206772382Y-136377857D02*
X206820001Y-136330238D01*
X206820001Y-136330238D02*
X206915239Y-136282619D01*
X206915239Y-136282619D02*
X207153334Y-136282619D01*
X207153334Y-136282619D02*
X207248572Y-136330238D01*
X207248572Y-136330238D02*
X207296191Y-136377857D01*
X207296191Y-136377857D02*
X207343810Y-136473095D01*
X207343810Y-136473095D02*
X207343810Y-136568333D01*
X207343810Y-136568333D02*
X207296191Y-136711190D01*
X207296191Y-136711190D02*
X206724763Y-137282619D01*
X206724763Y-137282619D02*
X207343810Y-137282619D01*
X207677144Y-136282619D02*
X208296191Y-136282619D01*
X208296191Y-136282619D02*
X207962858Y-136663571D01*
X207962858Y-136663571D02*
X208105715Y-136663571D01*
X208105715Y-136663571D02*
X208200953Y-136711190D01*
X208200953Y-136711190D02*
X208248572Y-136758809D01*
X208248572Y-136758809D02*
X208296191Y-136854047D01*
X208296191Y-136854047D02*
X208296191Y-137092142D01*
X208296191Y-137092142D02*
X208248572Y-137187380D01*
X208248572Y-137187380D02*
X208200953Y-137235000D01*
X208200953Y-137235000D02*
X208105715Y-137282619D01*
X208105715Y-137282619D02*
X207820001Y-137282619D01*
X207820001Y-137282619D02*
X207724763Y-137235000D01*
X207724763Y-137235000D02*
X207677144Y-137187380D01*
D11*
%TO.C,C6*%
X224855500Y-74264400D03*
X222780500Y-74264400D03*
%TD*%
D12*
%TO.C,C5*%
X210880000Y-58562500D03*
X210880000Y-60637500D03*
%TD*%
D13*
%TO.C,R20*%
X232216000Y-83983800D03*
X232216000Y-85983800D03*
%TD*%
D14*
%TO.C,C7*%
X205038000Y-68075000D03*
X205038000Y-66000000D03*
%TD*%
D15*
%TO.C,*%
X175320000Y-122080000D03*
%TD*%
D16*
%TO.C,R10*%
X165725000Y-81200000D03*
X164075000Y-81200000D03*
%TD*%
D17*
%TO.C,U1*%
X219987500Y-97147300D03*
X219987500Y-96197300D03*
X219987500Y-95247300D03*
X217367500Y-95247300D03*
X217367500Y-96197300D03*
X217367500Y-97147300D03*
%TD*%
D18*
%TO.C,*%
X162100000Y-111545000D03*
%TD*%
D19*
%TO.C,J1*%
X168995000Y-91200000D03*
X168995000Y-92700000D03*
X168995000Y-94200000D03*
X168995000Y-95700000D03*
X168995000Y-97200000D03*
D20*
X163805000Y-88595000D03*
X163805000Y-99805000D03*
%TD*%
D21*
%TO.C,TP2*%
X243736500Y-97408000D03*
%TD*%
D22*
%TO.C,L1*%
X210880000Y-96197300D03*
X213855000Y-96197300D03*
%TD*%
D13*
%TO.C,R2*%
X211896000Y-86269800D03*
X211896000Y-88269800D03*
%TD*%
D23*
%TO.C,R3*%
X196402000Y-68000000D03*
X196402000Y-66000000D03*
%TD*%
D13*
%TO.C,R9*%
X238566000Y-92365800D03*
X238566000Y-94365800D03*
%TD*%
D23*
%TO.C,R5*%
X200720000Y-68000000D03*
X200720000Y-66000000D03*
%TD*%
D14*
%TO.C,C1*%
X215198000Y-88323300D03*
X215198000Y-86248300D03*
%TD*%
D24*
%TO.C,U$9*%
X174800000Y-107100000D03*
%TD*%
D13*
%TO.C,R1*%
X217992000Y-86291300D03*
X217992000Y-88291300D03*
%TD*%
D21*
%TO.C,TP3*%
X243736500Y-91058000D03*
%TD*%
D25*
%TO.C,TP4*%
X243800000Y-84200000D03*
%TD*%
D26*
%TO.C,R8*%
X173050000Y-98125000D03*
X173050000Y-99775000D03*
%TD*%
D18*
%TO.C,*%
X162100000Y-106465000D03*
%TD*%
D15*
%TO.C,*%
X231320000Y-122080000D03*
%TD*%
D27*
%TO.C,C8*%
X167225000Y-72910000D03*
X168775000Y-72910000D03*
%TD*%
D14*
%TO.C,C18*%
X201990000Y-88323300D03*
X201990000Y-86248300D03*
%TD*%
D28*
%TO.C,L2*%
X205546000Y-88344800D03*
X205546000Y-86294800D03*
%TD*%
D29*
%TO.C,R7*%
X224818000Y-63190000D03*
X222818000Y-63190000D03*
%TD*%
D15*
%TO.C,*%
X175320000Y-66080000D03*
%TD*%
D13*
%TO.C,R4*%
X237804000Y-83745800D03*
X237804000Y-85745800D03*
%TD*%
%TO.C,R24*%
X234756000Y-92365800D03*
X234756000Y-94365800D03*
%TD*%
D30*
%TO.C,R12*%
X164775000Y-71300000D03*
X166425000Y-71300000D03*
%TD*%
D21*
%TO.C,TP1*%
X243736500Y-103758000D03*
%TD*%
D15*
%TO.C,*%
X231320000Y-66080000D03*
%TD*%
D31*
%TO.C,U2*%
X215198000Y-74366000D03*
X215198000Y-73096000D03*
X215198000Y-71826000D03*
X215198000Y-70556000D03*
X210248000Y-70556000D03*
X210248000Y-71826000D03*
X210248000Y-73096000D03*
X210248000Y-74366000D03*
%TD*%
D14*
%TO.C,C2*%
X208848000Y-88344800D03*
X208848000Y-86269800D03*
%TD*%
D29*
%TO.C,R6*%
X224843400Y-59176800D03*
X222843400Y-59176800D03*
%TD*%
D32*
%TO.C,D2*%
X225366400Y-66847600D03*
X222066400Y-66847600D03*
%TD*%
%TO.C,D1*%
X225391800Y-70505200D03*
X222091800Y-70505200D03*
%TD*%
D14*
%TO.C,C14*%
X230946000Y-94440800D03*
X230946000Y-92365800D03*
%TD*%
D18*
%TO.C,*%
X162100000Y-114085000D03*
%TD*%
D12*
%TO.C,C3*%
X221294000Y-86291300D03*
X221294000Y-88366300D03*
%TD*%
D30*
%TO.C,R11*%
X163975000Y-72900000D03*
X165625000Y-72900000D03*
%TD*%
D18*
%TO.C,*%
X162100000Y-109005000D03*
%TD*%
D33*
%TO.C,U3*%
X165920000Y-79530000D03*
X166420000Y-79530000D03*
X166920000Y-79530000D03*
X167420000Y-79530000D03*
X167920000Y-79530000D03*
X167920000Y-75230000D03*
X167420000Y-75230000D03*
X166920000Y-75230000D03*
X166420000Y-75230000D03*
X165920000Y-75230000D03*
%TD*%
D12*
%TO.C,C4*%
X214400000Y-58562500D03*
X214400000Y-60637500D03*
%TD*%
G36*
X167757000Y-134596881D02*
G01*
X167803119Y-134643000D01*
X167820000Y-134706000D01*
X167820000Y-139454000D01*
X167803119Y-139517000D01*
X167757000Y-139563119D01*
X167694000Y-139580000D01*
X161372190Y-139580000D01*
X161323972Y-139570409D01*
X161283095Y-139543095D01*
X159856905Y-138116905D01*
X159829591Y-138076028D01*
X159820000Y-138027810D01*
X159820000Y-137206740D01*
X161108792Y-137206740D01*
X161144112Y-137453467D01*
X161217827Y-137691557D01*
X161328103Y-137915084D01*
X161472181Y-138118460D01*
X161646477Y-138296625D01*
X161846648Y-138445138D01*
X162067692Y-138560287D01*
X162304114Y-138639213D01*
X162549995Y-138680000D01*
X165300196Y-138705008D01*
X165550493Y-138685311D01*
X165794631Y-138626698D01*
X166026585Y-138530619D01*
X166240665Y-138399431D01*
X166431577Y-138236378D01*
X166594630Y-138045466D01*
X166725818Y-137831387D01*
X166821898Y-137599431D01*
X166880509Y-137355297D01*
X166900208Y-137105000D01*
X166880509Y-136854702D01*
X166821898Y-136610568D01*
X166725818Y-136378612D01*
X166594630Y-136164533D01*
X166431577Y-135973621D01*
X166240665Y-135810568D01*
X166026585Y-135679380D01*
X165794629Y-135583301D01*
X165550490Y-135524687D01*
X165300199Y-135505008D01*
X162599976Y-135530792D01*
X162352913Y-135563698D01*
X162114112Y-135635081D01*
X161889520Y-135743164D01*
X161684742Y-135885248D01*
X161504880Y-136057794D01*
X161354420Y-136256498D01*
X161237110Y-136476411D01*
X161155878Y-136712044D01*
X161112746Y-136957527D01*
X161108792Y-137206740D01*
X159820000Y-137206740D01*
X159820000Y-134706000D01*
X159836881Y-134643000D01*
X159883000Y-134596881D01*
X159946000Y-134580000D01*
X167694000Y-134580000D01*
X167757000Y-134596881D01*
G37*
G36*
X166816028Y-48589591D02*
G01*
X166856905Y-48616905D01*
X168283095Y-50043095D01*
X168310409Y-50083972D01*
X168320000Y-50132190D01*
X168320000Y-53027810D01*
X168310409Y-53076028D01*
X168283095Y-53116905D01*
X166856905Y-54543095D01*
X166816028Y-54570409D01*
X166767810Y-54580000D01*
X159946000Y-54580000D01*
X159883000Y-54563119D01*
X159836881Y-54517000D01*
X159820000Y-54454000D01*
X159820000Y-51546740D01*
X161138583Y-51546740D01*
X161173903Y-51793467D01*
X161247621Y-52031564D01*
X161357894Y-52255087D01*
X161501972Y-52458463D01*
X161676276Y-52636634D01*
X161876443Y-52785145D01*
X162097490Y-52900296D01*
X162333911Y-52979222D01*
X162579801Y-53019991D01*
X165329998Y-53044999D01*
X165580295Y-53025300D01*
X165824428Y-52966689D01*
X166056383Y-52870610D01*
X166270460Y-52739423D01*
X166461371Y-52576371D01*
X166624423Y-52385460D01*
X166755610Y-52171383D01*
X166851689Y-51939428D01*
X166910301Y-51695295D01*
X166929999Y-51445000D01*
X166910301Y-51194704D01*
X166851689Y-50950571D01*
X166755610Y-50718616D01*
X166624423Y-50504539D01*
X166461371Y-50313628D01*
X166270460Y-50150576D01*
X166056383Y-50019389D01*
X165824428Y-49923310D01*
X165580295Y-49864699D01*
X165329992Y-49845000D01*
X162629778Y-49870783D01*
X162382714Y-49903689D01*
X162143908Y-49975073D01*
X161919320Y-50083153D01*
X161714538Y-50225240D01*
X161534672Y-50397788D01*
X161384214Y-50596490D01*
X161266901Y-50816408D01*
X161185670Y-51052038D01*
X161142537Y-51297527D01*
X161138583Y-51546740D01*
X159820000Y-51546740D01*
X159820000Y-48706000D01*
X159836881Y-48643000D01*
X159883000Y-48596881D01*
X159946000Y-48580000D01*
X166767810Y-48580000D01*
X166816028Y-48589591D01*
G37*
G36*
X245757000Y-134596881D02*
G01*
X245803119Y-134643000D01*
X245820000Y-134706000D01*
X245820000Y-137823332D01*
X245803934Y-137884899D01*
X245636680Y-138183551D01*
X245631511Y-138191986D01*
X245484354Y-138412221D01*
X245468685Y-138431314D01*
X244356906Y-139543095D01*
X244316028Y-139570409D01*
X244267810Y-139580000D01*
X236446000Y-139580000D01*
X236383000Y-139563119D01*
X236336881Y-139517000D01*
X236320000Y-139454000D01*
X236320000Y-137089607D01*
X237325193Y-137089607D01*
X237341026Y-137338745D01*
X237396025Y-137582251D01*
X237488805Y-137814005D01*
X237617043Y-138028196D01*
X237777507Y-138219430D01*
X237966174Y-138382909D01*
X238178296Y-138514521D01*
X238408558Y-138610970D01*
X238651154Y-138669821D01*
X238900022Y-138689604D01*
X242750011Y-138739604D01*
X243000305Y-138719896D01*
X243244433Y-138661283D01*
X243476391Y-138565203D01*
X243690458Y-138434019D01*
X243881375Y-138270960D01*
X244044423Y-138080054D01*
X244175609Y-137865978D01*
X244271686Y-137634025D01*
X244330298Y-137389892D01*
X244349995Y-137139599D01*
X244330298Y-136889307D01*
X244271686Y-136645174D01*
X244175609Y-136413221D01*
X244044423Y-136199145D01*
X243881375Y-136008239D01*
X243690458Y-135845180D01*
X243476391Y-135713996D01*
X243244432Y-135617916D01*
X243000311Y-135559305D01*
X242750006Y-135539604D01*
X238949997Y-135540397D01*
X238700626Y-135552265D01*
X238456285Y-135603390D01*
X238223082Y-135692482D01*
X238006886Y-135817300D01*
X237813127Y-135974710D01*
X237646678Y-136160754D01*
X237511708Y-136370768D01*
X237411622Y-136599456D01*
X237348923Y-136841106D01*
X237325193Y-137089607D01*
X236320000Y-137089607D01*
X236320000Y-134706000D01*
X236336881Y-134643000D01*
X236383000Y-134596881D01*
X236446000Y-134580000D01*
X245694000Y-134580000D01*
X245757000Y-134596881D01*
G37*
G36*
X244316028Y-48589591D02*
G01*
X244356905Y-48616905D01*
X245783095Y-50043095D01*
X245810409Y-50083972D01*
X245820000Y-50132190D01*
X245820000Y-53027810D01*
X245810409Y-53076028D01*
X245783095Y-53116905D01*
X244356905Y-54543095D01*
X244316028Y-54570409D01*
X244267810Y-54580000D01*
X235946000Y-54580000D01*
X235883000Y-54563119D01*
X235836881Y-54517000D01*
X235820000Y-54454000D01*
X235820000Y-51345008D01*
X237355197Y-51345008D01*
X237371030Y-51594142D01*
X237426028Y-51837644D01*
X237518808Y-52069404D01*
X237647043Y-52283590D01*
X237807509Y-52474826D01*
X237996166Y-52638297D01*
X238208291Y-52769915D01*
X238438550Y-52866363D01*
X238681143Y-52925215D01*
X238930011Y-52945000D01*
X242779991Y-52994999D01*
X243030295Y-52975300D01*
X243274428Y-52916689D01*
X243506383Y-52820610D01*
X243720460Y-52689423D01*
X243911371Y-52526371D01*
X244074423Y-52335460D01*
X244205610Y-52121383D01*
X244301689Y-51889428D01*
X244360301Y-51645295D01*
X244379999Y-51394999D01*
X244360301Y-51144704D01*
X244301689Y-50900571D01*
X244205610Y-50668616D01*
X244074423Y-50454539D01*
X243911371Y-50263628D01*
X243720460Y-50100576D01*
X243506383Y-49969389D01*
X243274428Y-49873310D01*
X243030295Y-49814699D01*
X242779995Y-49795000D01*
X238979968Y-49795793D01*
X238730619Y-49807670D01*
X238486276Y-49858796D01*
X238253074Y-49947889D01*
X238036887Y-50072704D01*
X237843123Y-50230121D01*
X237676678Y-50416160D01*
X237541710Y-50626174D01*
X237441624Y-50854862D01*
X237378927Y-51096505D01*
X237355197Y-51345008D01*
X235820000Y-51345008D01*
X235820000Y-48706000D01*
X235836881Y-48643000D01*
X235883000Y-48596881D01*
X235946000Y-48580000D01*
X244267810Y-48580000D01*
X244316028Y-48589591D01*
G37*
M02*
