%TF.GenerationSoftware,KiCad,Pcbnew,7.0.1-0*%
%TF.CreationDate,2023-03-22T23:36:25-07:00*%
%TF.ProjectId,Cosmic_Watch_Rev7_Nano_Revised,436f736d-6963-45f5-9761-7463685f5265,6.1*%
%TF.SameCoordinates,Original*%
%TF.FileFunction,Paste,Top*%
%TF.FilePolarity,Positive*%
%FSLAX46Y46*%
G04 Gerber Fmt 4.6, Leading zero omitted, Abs format (unit mm)*
G04 Created by KiCad (PCBNEW 7.0.1-0) date 2023-03-22 23:36:25*
%MOMM*%
%LPD*%
G01*
G04 APERTURE LIST*
G04 Aperture macros list*
%AMRoundRect*
0 Rectangle with rounded corners*
0 $1 Rounding radius*
0 $2 $3 $4 $5 $6 $7 $8 $9 X,Y pos of 4 corners*
0 Add a 4 corners polygon primitive as box body*
4,1,4,$2,$3,$4,$5,$6,$7,$8,$9,$2,$3,0*
0 Add four circle primitives for the rounded corners*
1,1,$1+$1,$2,$3*
1,1,$1+$1,$4,$5*
1,1,$1+$1,$6,$7*
1,1,$1+$1,$8,$9*
0 Add four rect primitives between the rounded corners*
20,1,$1+$1,$2,$3,$4,$5,0*
20,1,$1+$1,$4,$5,$6,$7,0*
20,1,$1+$1,$6,$7,$8,$9,0*
20,1,$1+$1,$8,$9,$2,$3,0*%
G04 Aperture macros list end*
%ADD10RoundRect,0.250000X0.337500X0.475000X-0.337500X0.475000X-0.337500X-0.475000X0.337500X-0.475000X0*%
%ADD11RoundRect,0.250000X-0.475000X0.337500X-0.475000X-0.337500X0.475000X-0.337500X0.475000X0.337500X0*%
%ADD12RoundRect,0.249999X-0.450001X0.350001X-0.450001X-0.350001X0.450001X-0.350001X0.450001X0.350001X0*%
%ADD13RoundRect,0.250000X0.475000X-0.337500X0.475000X0.337500X-0.475000X0.337500X-0.475000X-0.337500X0*%
%ADD14RoundRect,0.200000X0.200000X0.275000X-0.200000X0.275000X-0.200000X-0.275000X0.200000X-0.275000X0*%
%ADD15R,1.220000X0.650000*%
%ADD16RoundRect,0.150000X-0.350000X0.150000X-0.350000X-0.150000X0.350000X-0.150000X0.350000X0.150000X0*%
%ADD17RoundRect,0.250000X-0.650000X0.375000X-0.650000X-0.375000X0.650000X-0.375000X0.650000X0.375000X0*%
%ADD18RoundRect,0.250000X-0.462500X-1.075000X0.462500X-1.075000X0.462500X1.075000X-0.462500X1.075000X0*%
%ADD19RoundRect,0.249999X0.450001X-0.350001X0.450001X0.350001X-0.450001X0.350001X-0.450001X-0.350001X0*%
%ADD20RoundRect,0.200000X-0.275000X0.200000X-0.275000X-0.200000X0.275000X-0.200000X0.275000X0.200000X0*%
%ADD21RoundRect,0.225000X-0.225000X-0.250000X0.225000X-0.250000X0.225000X0.250000X-0.225000X0.250000X0*%
%ADD22RoundRect,0.249999X0.450001X-0.325001X0.450001X0.325001X-0.450001X0.325001X-0.450001X-0.325001X0*%
%ADD23RoundRect,0.249999X0.350001X0.450001X-0.350001X0.450001X-0.350001X-0.450001X0.350001X-0.450001X0*%
%ADD24RoundRect,0.200000X-0.200000X-0.275000X0.200000X-0.275000X0.200000X0.275000X-0.200000X0.275000X0*%
%ADD25RoundRect,0.150000X0.825000X0.150000X-0.825000X0.150000X-0.825000X-0.150000X0.825000X-0.150000X0*%
%ADD26R,0.900000X1.200000*%
%ADD27R,0.250000X1.100000*%
G04 APERTURE END LIST*
D10*
%TO.C,C6*%
X224855500Y-74264400D03*
X222780500Y-74264400D03*
%TD*%
D11*
%TO.C,C5*%
X210880000Y-58562500D03*
X210880000Y-60637500D03*
%TD*%
D12*
%TO.C,R20*%
X232216000Y-83983800D03*
X232216000Y-85983800D03*
%TD*%
D13*
%TO.C,C7*%
X205038000Y-68075000D03*
X205038000Y-66000000D03*
%TD*%
D14*
%TO.C,R10*%
X165725000Y-81200000D03*
X164075000Y-81200000D03*
%TD*%
D15*
%TO.C,U1*%
X219987500Y-97147300D03*
X219987500Y-96197300D03*
X219987500Y-95247300D03*
X217367500Y-95247300D03*
X217367500Y-96197300D03*
X217367500Y-97147300D03*
%TD*%
D16*
%TO.C,J1*%
X168995000Y-91200000D03*
X168995000Y-92700000D03*
X168995000Y-94200000D03*
X168995000Y-95700000D03*
X168995000Y-97200000D03*
D17*
X163805000Y-88595000D03*
X163805000Y-99805000D03*
%TD*%
D18*
%TO.C,L1*%
X210880000Y-96197300D03*
X213855000Y-96197300D03*
%TD*%
D12*
%TO.C,R2*%
X211896000Y-86269800D03*
X211896000Y-88269800D03*
%TD*%
D19*
%TO.C,R3*%
X196402000Y-68000000D03*
X196402000Y-66000000D03*
%TD*%
D12*
%TO.C,R9*%
X238566000Y-92365800D03*
X238566000Y-94365800D03*
%TD*%
D19*
%TO.C,R5*%
X200720000Y-68000000D03*
X200720000Y-66000000D03*
%TD*%
D13*
%TO.C,C1*%
X215198000Y-88323300D03*
X215198000Y-86248300D03*
%TD*%
D12*
%TO.C,R1*%
X217992000Y-86291300D03*
X217992000Y-88291300D03*
%TD*%
D20*
%TO.C,R8*%
X173050000Y-98125000D03*
X173050000Y-99775000D03*
%TD*%
D21*
%TO.C,C8*%
X167225000Y-72910000D03*
X168775000Y-72910000D03*
%TD*%
D13*
%TO.C,C18*%
X201990000Y-88323300D03*
X201990000Y-86248300D03*
%TD*%
D22*
%TO.C,L2*%
X205546000Y-88344800D03*
X205546000Y-86294800D03*
%TD*%
D23*
%TO.C,R7*%
X224818000Y-63190000D03*
X222818000Y-63190000D03*
%TD*%
D12*
%TO.C,R4*%
X237804000Y-83745800D03*
X237804000Y-85745800D03*
%TD*%
%TO.C,R24*%
X234756000Y-92365800D03*
X234756000Y-94365800D03*
%TD*%
D24*
%TO.C,R12*%
X164775000Y-71300000D03*
X166425000Y-71300000D03*
%TD*%
D25*
%TO.C,U2*%
X215198000Y-74366000D03*
X215198000Y-73096000D03*
X215198000Y-71826000D03*
X215198000Y-70556000D03*
X210248000Y-70556000D03*
X210248000Y-71826000D03*
X210248000Y-73096000D03*
X210248000Y-74366000D03*
%TD*%
D13*
%TO.C,C2*%
X208848000Y-88344800D03*
X208848000Y-86269800D03*
%TD*%
D23*
%TO.C,R6*%
X224843400Y-59176800D03*
X222843400Y-59176800D03*
%TD*%
D26*
%TO.C,D2*%
X225366400Y-66847600D03*
X222066400Y-66847600D03*
%TD*%
%TO.C,D1*%
X225391800Y-70505200D03*
X222091800Y-70505200D03*
%TD*%
D13*
%TO.C,C14*%
X230946000Y-94440800D03*
X230946000Y-92365800D03*
%TD*%
D11*
%TO.C,C3*%
X221294000Y-86291300D03*
X221294000Y-88366300D03*
%TD*%
D24*
%TO.C,R11*%
X163975000Y-72900000D03*
X165625000Y-72900000D03*
%TD*%
D27*
%TO.C,U3*%
X165920000Y-79530000D03*
X166420000Y-79530000D03*
X166920000Y-79530000D03*
X167420000Y-79530000D03*
X167920000Y-79530000D03*
X167920000Y-75230000D03*
X167420000Y-75230000D03*
X166920000Y-75230000D03*
X166420000Y-75230000D03*
X165920000Y-75230000D03*
%TD*%
D11*
%TO.C,C4*%
X214400000Y-58562500D03*
X214400000Y-60637500D03*
%TD*%
M02*
