M48
; DRILL file {KiCad 7.0.1-0} date 2023 March 22, Wednesday 23:36:25
; FORMAT={-:-/ absolute / inch / decimal}
; #@! TF.CreationDate,2023-03-22T23:36:25-07:00
; #@! TF.GenerationSoftware,Kicad,Pcbnew,7.0.1-0
; #@! TF.FileFunction,Plated,1,2,PTH
FMAT,2
INCH
; #@! TA.AperFunction,Plated,PTH,ViaDrill
T1C0.0118
; #@! TA.AperFunction,Plated,PTH,ViaDrill
T2C0.0157
; #@! TA.AperFunction,Plated,PTH,ComponentDrill
T3C0.0394
; #@! TA.AperFunction,Plated,PTH,ComponentDrill
T4C0.0591
; #@! TA.AperFunction,Plated,PTH,ComponentDrill
T5C0.0787
; #@! TA.AperFunction,Plated,PTH,ComponentDrill
T6C0.0984
; #@! TA.AperFunction,Plated,PTH,ComponentDrill
T7C0.1260
%
G90
G05
T1
X8.2362Y-3.3031
T2
X6.4117Y-3.1865
X6.5835Y-3.0858
X6.6517Y-2.8165
X6.6758Y-3.1811
X6.6758Y-3.3339
X6.6858Y-3.8575
X6.7509Y-3.3339
X6.7795Y-3.1811
X7.1654Y-3.1496
X7.1654Y-3.2283
X7.3228Y-3.1496
X7.3228Y-3.2283
X7.4803Y-3.1496
X7.4803Y-3.2283
X7.6378Y-3.1496
X7.6378Y-3.2283
X7.7685Y-3.5071
X7.7685Y-3.9071
X7.8134Y-3.6657
X7.8346Y-3.1496
X7.8346Y-3.2283
X8.1374Y-2.5873
X8.1526Y-2.6801
X8.2185Y-3.9071
X8.2374Y-2.5873
X8.2374Y-2.6873
X8.2559Y-4.0394
X8.2824Y-3.4353
X8.3084Y-4.0891
X8.3104Y-3.9713
X8.3624Y-2.6598
X8.3624Y-2.7148
X8.3624Y-3.5873
X8.374Y-2.4252
X8.4374Y-2.6598
X8.4374Y-2.7148
X8.4704Y-3.5513
X8.4874Y-2.7148
X8.4904Y-3.6713
X8.5374Y-2.5598
X8.5374Y-2.6603
X8.5598Y-2.8623
X8.5598Y-2.9623
X8.5624Y-2.7873
X8.5681Y-2.7041
X8.6124Y-2.5873
X8.6124Y-2.6623
X8.6149Y-2.9123
X8.6614Y-3.189
X8.6874Y-3.0098
X8.6874Y-3.0898
X8.8124Y-2.8623
X8.8246Y-2.4123
X8.8364Y-3.0079
X8.8624Y-3.0898
X8.8874Y-2.4123
X8.9598Y-3.4873
X9.0649Y-3.4873
X9.1444Y-3.7873
X9.1624Y-3.5873
X9.1624Y-3.6873
X9.1848Y-3.4873
X9.1874Y-3.8373
X9.2384Y-3.7873
X9.2399Y-3.4873
X9.3228Y-3.4598
X9.3228Y-3.6732
X9.3348Y-2.9373
X9.3819Y-3.4488
X9.3898Y-3.8189
X9.3899Y-2.9373
X9.4874Y-3.6848
X9.4874Y-3.7623
T3
X6.3819Y-4.1915
X6.3819Y-4.2915
X6.3819Y-4.3915
X6.3819Y-4.4915
T4
X9.5959Y-3.585
X9.5959Y-3.835
X9.5959Y-4.085
T5
X9.5984Y-3.315
T6
X6.8819Y-4.2165
T7
X6.9024Y-2.6016
X6.9024Y-4.8063
X9.1071Y-2.6016
X9.1071Y-4.8063
T0
M30
